<svg id="Слой_1" data-name="Слой 1" xmlns="http://www.w3.org/2000/svg" viewBox="0 0 384.83 315.56"><defs><style>.cls-1{fill:#323232;}.cls-2{fill:#282828;}.cls-3{fill:#dc7973;}.cls-4{fill:#f7ddc2;}.cls-5{fill:#faf2e9;}.cls-6{fill:#e8c3a1;}.cls-7{fill:#9fcfcc;}.cls-8{fill:#faebdc;}.cls-9{fill:#ebb04e;}.cls-10{fill:#c4e2e8;}.cls-11{fill:#fefefd;}.cls-12{fill:#ebb44d;}.cls-13{fill:#736a5e;}.cls-14{fill:#2b2827;}.cls-15{fill:#71695d;}.cls-16{fill:#a3d0cf;}.cls-17{fill:#2a2b2f;}.cls-18{fill:#f2d9bf;}.cls-19{fill:#282625;}.cls-20{fill:#4d4741;}.cls-21{fill:#c7e2e8;}.cls-22{fill:#2a2928;}.cls-23{fill:#cabaa6;}.cls-24{fill:#c4e0e6;}.cls-25{fill:#c7b8a4;}.cls-26{fill:#cdbda8;}.cls-27{fill:#c5b5a2;}.cls-28{fill:#c4b5a2;}.cls-29{fill:#4e4741;}.cls-30{fill:#86b8b4;}.cls-31{fill:#cbbba7;}.cls-32{fill:#85b6b2;}.cls-33{fill:#b4a694;}.cls-34{fill:#bdaf9c;}.cls-35{fill:#84b5b1;}.cls-36{fill:#ebeae3;}.cls-37{fill:#f7e3df;}.cls-38{fill:#333130;}.cls-39{fill:#363534;}.cls-40{fill:#353433;}.cls-41{fill:#85b5b1;}.cls-42{fill:#85b7b3;}.cls-43{fill:#bfdbe0;}.cls-44{fill:#c6e0e4;}.cls-45{fill:#80afab;}.cls-46{fill:#84b4b0;}.cls-47{fill:#677773;}.cls-48{fill:#f9fafa;}.cls-49{fill:#f4f2f2;}.cls-50{fill:#262221;}.cls-51{fill:#faf9f9;}.cls-52{fill:#404341;}.cls-53{fill:#f4c85c;}.cls-54{fill:#c6b6a2;}</style></defs><title>iconDopyt</title><path class="cls-1" d="M561.92,233.66l0.22,12.64c1,5.4-.37,10.92.78,16.32l0.22,12.68c1,5.09-.36,10.31.78,15.4l0.23,15.6c1,5.09-.36,10.3.77,15.38l0.21,14.62c1.09,5.75-.37,11.61.79,17.35-1.33,17,1.9,33.34,6.41,49.52,2.12,7.58,8.19,12.72,12.84,18.68,2.19,2.81,3.9,5.39,1.53,8.87-2,3-9.53,6.51-12.12,5.28-5.2-2.46-10.49-5-12.38-11.16-1.07-3.46-2.81-1.08-4.13-.56-3.31,1.32-6.28,1.87-8.93-1.37-1.28-1.57-1.82-2.73.09-4.07,8.81-6.15,9.55-14.32,5.87-23.58a1,1,0,0,1,0-.5c0.44-3-.11-7.58-1.81-8-3.45-.94-7.44.71-10.54,3.07-2.63,2-4.67,4.31-4.95,8.06-0.45,6-4.93,8.61-11,7.38-7.94-1.61-16-2.75-23.77-5-2.73-.78-4.57.72-6.37,2.78-15.56,17.75-31.22,35.41-47.93,52.11a23.68,23.68,0,0,1-6.75,5c-7.35,3.39-13.1,1.59-16.2-5.87-4.38-10.54-6.71-21.38-1.8-32.52,2-4.53,6.14-5.66,10.28-5.29s6.52,3.84,7.07,8,0.64,8.17,1,13.32l36.24-41.3c-7.6-.67-14-3.48-21.34-0.58-9.15,3.61-19.06,4.31-28.85,5.43-9.45,1.08-18.45-.39-27.42-2.73a3.66,3.66,0,0,0-4.25,1.32c-9.29,10.19-18.66,20.31-27.9,30.55-4.5,5-9.12,9.47-16.1,11-5,1.09-8.24-1.21-10.64-4.62-5.42-7.73-5-16.82-4.87-25.71,0-3.06-.41-6.09,1.44-9.08,2.54-4.1,5.91-6.32,10.57-5.68,4.3,0.59,6.48,3.79,7.07,7.92,0.51,3.54.75,7.12,1.17,11.29,8.46-9.25,18-16.68,25-27.13-11.3-8.72-20-19.91-23.38-34.56a7.3,7.3,0,0,0-5.34-5.79c-7.63-2.39-10.24-9-11.47-15.68-2.5-13.54,1.51-25.69,9.57-36.71A38.18,38.18,0,0,1,364,284.83c4.49-2.52,7-5.61,6.32-11.1-0.55-4.44-.36-9-0.5-13.47-0.7-2.91-.33-5.86-0.22-8.78,3.37-.12,4.83,1.46,3.62,5.51-1.67,5.61-1,11.24-1.26,15.81,0.24-3.54-.49-8.18.5-12.75,2.72-1.62,2.73.74,2.89,2.19,0.29,2.64,0,5.32.11,8,0,1.27-.3,2.91,2,2.47,2.38-.85,5.62-3.7,7.07-1.27,1.84,3.08-2.64,4.06-4.45,5.9-0.34.35-.79,0.59-1.15,0.93A54,54,0,0,0,360.1,306.6c-0.45,1.56-.75,3.28-2.59,4-1.16-.53-2.44-0.85-3.31-1.9-1.31-3.65,1.51-6.69,1.47-10.15a7,7,0,0,1,1.5-2.57,49.88,49.88,0,0,0-9.72,33.62c0.62,8.88,5.3,14.07,13.44,14a21.78,21.78,0,0,0,12.52-5.42,67.43,67.43,0,0,1,18.74-11.86c5.18-2.21,8.16-6,8.07-11.87,0.26-2.24-.86-3.33-3-3.66-1.42-.22-3-0.14-3.47-2.05,2.29-2.8,5.41-3,8.4-2s3.28,3.81,3.18,6.6a25.68,25.68,0,0,0,.68,6.36c-0.62,7.12-5.91,10.66-11.13,14.09-2.35,1.54-4.79,2.83-6.25,5.34-2.46.42-.6,4.48-3.68,4.4-1.75-2-3.5-1.68-5.58-.32a47.27,47.27,0,0,1-12.73,6.37c-3.57.1-4,1.87-2.88,4.9,8.34,21.69,23.93,35.54,46.54,39.91,18.45,3.57,36.56-.18,53.87-7.41a114.68,114.68,0,0,0,16.5-9.86,16.46,16.46,0,0,1,3.37-2c0.93-.36,2-0.68,2.75.17s0.29,1.88-.21,2.71c-1.39,2.31-3.55,3.85-5.64,5.44-3.49,2.43-6.74,5.15-10.72,8.22,4.66-.32,8.94,2.58,12.47-1.65,4-3,8-6,13.4-3,2.9,1.74,3.66,5.55,6.84,7a17.1,17.1,0,0,0,4.45,1c6,1.38,12.13,2,18.19,3,3.53,0.58,5.69-.83,5.29-4.55-1.35-12.58-.39-25.24-1.44-37.83a36.82,36.82,0,0,1-.42-4.47c0.52-13.15-.73-26.25-1.28-39.35-0.76-18.24-1.1-36.51-2.54-54.72-0.62-7.77-.84-15.6-1.06-23.39-0.23-8.15-1.27-16.23-1.31-24.38,0-6.14-1.67-7.67-7.67-9.3-4.66-1.27-9.56-1.18-14.18-2.65a9.78,9.78,0,0,1-1.47-.93c-4-4.09.37-4.21,2.53-5.4,6.34-.8,12.44.81,18.53,2.14a9.73,9.73,0,0,0,8.68-1.83c3.78-2.81,7.82-5.59,13.05-4.63a1.48,1.48,0,0,1,.6,2.15c-2,2.62-5.07,3.72-7.55,5.66a9.6,9.6,0,0,0-4,9.45c1.36,13.56,1.88,27.2,2.57,40.81,1.05,20.75,1.64,41.52,2.88,62.27,0.52,8.63.74,17.3,0.92,25.92,0.29,14.31,1.83,28.58,1.27,42.9-0.13,3.35.52,6.6,1.08,10.41,3-3.88,7.53-4.72,10.92-7.38,1.88-1.53,2-4.25,3.83-5.79,2.11-.16,2.28,1.43,2.63,2.89,2.38,9.77,4,19.7,5.79,29.59,0.85,4.73-1.89,8.53-5,11.92-0.74.8-2.82,0.91-1.77,2.83,2.48,0.84,4.61-3.06,7.19-.51,2.91,4.57,6.15,8.7,12.23,8.92,1.81-.44,3.8-0.46,5-2.23,0.13-2.66-1.78-4.37-3.28-5.91-7.93-8.11-10.86-18.36-13-29-4.18-20.53-7.87-41.14-11.73-61.73-1.76-9.4-3.33-18.84-5.22-28.22-0.34-1.71-.5-3.3-2.45-3.86a19,19,0,0,0-2,.19,3.37,3.37,0,0,1-1.31-.28c-2.23-1.78-.69-3.59,0-5.41a3.5,3.5,0,0,1,1.75-1.21c4.33-.77,7.28.95,9,5a13.56,13.56,0,0,0,2.08,3.31c2.62,4.29.09,8.92,0.79,12.13,0.09,1.87,1.16,1,.55,1.23-0.15.06-.27,0-0.26-0.33,0.12-2.46-1.13-5.08.86-7.31,3.05,1.82,2.5,4.91,2.4,7.62-0.42,11.7,1.73,23.15,2.58,32.66-1.59-6.92-1.82-16.09-2.18-25.14-0.43-10.79-1-21.6-1.43-32.39-0.8-18.59-1.3-37.2-2.63-55.77-0.57-7.95-.94-15.94-1.1-23.91-0.15-7.67-1.27-15.25-1.27-22.91,0-6.05-4.37-8.06-9.3-9.37-1.73,0-3.28-.9-5-1-8.13-.5-15.95-2.91-24-3.88q-37.05-5.85-74.06-12c-13.06-2.22-26-5.36-39.44-4.39a11.72,11.72,0,0,1-5.9-.69c-4.18-2-7.55-.53-11.19,1.7-6,3.69-10.56,9.11-16.34,13-1.64,0-2.4-.93-2.71-2.4,2.16-5.28,7.18-8,10.85-11.89,2-2.09,4.67-3.47,6.94-5.29,4.35-3.51,7.69-3.78,11.95-.44,2.59,2,4.51,3.83,8.11,1,1.63-1.28,5.18-.46,7.79-0.09,22.26,3.18,44.53,6.38,66.76,9.75q35.54,5.39,71,11.13c6.34,1,10.33,6.18,10.65,12.48,0.21,4.14.71,8.26,1.08,12.39,1,4.08-.35,8.31.78,12.38l0.26,12.62C562.11,224.72,560.83,229.26,561.92,233.66Z" transform="translate(-203.01 -146.28)"/><path class="cls-2" d="M373.19,259c-0.83,6.64.91,13.51-2.26,21.39,0.43-7.66-.32-13.87.69-20.16,0.46-2.85,2.26-6.56-1.56-8.92-1.48-3.71.26-7.7-1-11.43l-0.2-15.62c-1.11-5.77.36-11.65-.8-17.42a76.64,76.64,0,0,0-.2-13.58c-1.07-4,.35-8.23-0.8-12.25L365,176.31c-0.34-3.35-1-6.7,0-10.05h0l2.16,2.25c3.15,5.65,5.7,11.66,5.68,18.13,0,15.05,1.3,30.06,1.15,45.1-0.5,5.91-1.25,11.84.27,17.73C374.2,252.67,375.75,256.06,373.19,259Z" transform="translate(-203.01 -146.28)"/><path class="cls-3" d="M369.08,239.88c1.17,3.74.29,7.65,1,11.43l-0.19,9C368,253.53,369.31,246.67,369.08,239.88Z" transform="translate(-203.01 -146.28)"/><path class="cls-1" d="M365,166.26c0.65,3.35,1.51,6.7,0,10.05C362.42,173,362.51,169.61,365,166.26Z" transform="translate(-203.01 -146.28)"/><path class="cls-3" d="M565.92,353.65c-1.12-5.74-.8-11.55-0.79-17.35C567,342,565.7,347.87,565.92,353.65Z" transform="translate(-203.01 -146.28)"/><path class="cls-3" d="M368.08,206.84c1.19,5.76.8,11.6,0.8,17.42C367,218.52,368.31,212.65,368.08,206.84Z" transform="translate(-203.01 -146.28)"/><path class="cls-3" d="M562.92,262.62c-1.06-5.4-.82-10.86-0.78-16.32C564,251.67,562.69,257.18,562.92,262.62Z" transform="translate(-203.01 -146.28)"/><path class="cls-3" d="M563.92,290.7c-1.2-5.09-.78-10.25-0.78-15.4C565,280.35,563.69,285.56,563.92,290.7Z" transform="translate(-203.01 -146.28)"/><path class="cls-3" d="M564.92,321.68c-1.17-5.08-.73-10.25-0.77-15.38C566,311.35,564.69,316.55,564.92,321.68Z" transform="translate(-203.01 -146.28)"/><path class="cls-3" d="M561.92,233.66c-1-4.41-.82-8.89-0.74-13.36C562.87,224.68,561.74,229.21,561.92,233.66Z" transform="translate(-203.01 -146.28)"/><path class="cls-3" d="M560.91,207.69c-1.1-4.07-.81-8.24-0.78-12.38C561.94,199.33,560.7,203.56,560.91,207.69Z" transform="translate(-203.01 -146.28)"/><path class="cls-3" d="M367.08,181c1.15,4,.91,8.14.8,12.25C366.09,189.27,367.28,185.09,367.08,181Z" transform="translate(-203.01 -146.28)"/><path class="cls-4" d="M309.9,418.07c-9.23,8.19-19,15.73-28.95,23-6.31,1.73-12-1.16-18-2.3-15.49-3-30.64-7.35-45.8-11.62-3-.85-6.26-1.8-6.28-6,11.48-7,23.06-13.88,35.13-19.87,9.93-.53,19.2,3,28.68,5,9.66,2,19.24,4.48,28.84,6.82C306.23,413.78,309.77,413.89,309.9,418.07Z" transform="translate(-203.01 -146.28)"/><path class="cls-5" d="M210.89,421.19c3.12,4.76,8.57,4.57,13.17,6.07,18.6,6.07,37.76,9.89,56.89,13.82-2.06,2.63-4.71,2.63-7.66,1.91-23.23-5.68-46.47-11.31-70.28-17.09A30.05,30.05,0,0,1,210.89,421.19Z" transform="translate(-203.01 -146.28)"/><path class="cls-6" d="M309.9,418.07c-3.56-4-8.72-3.59-13.26-4.71-16.84-4.16-33.74-8.06-50.62-12.05,2.3-2.07,5-1.48,7.57-.93q29.92,6.47,59.79,13.15a2.91,2.91,0,0,1,.81.82A10.55,10.55,0,0,1,309.9,418.07Z" transform="translate(-203.01 -146.28)"/><path class="cls-7" d="M480.07,382.38l6.94-6.6c-7.6,3.86-14.08,9.42-22.05,12.42-9,2.63-18,5.47-27.41,6.62-21.88,2.66-41.87-.41-58.35-16.73a63,63,0,0,1-14.92-22c-1.5-3.83-1.13-6.26,2.73-7.86,6.16-2.83,11.83-6.55,18.13-10.6v5.63c1.5,3.74,4.31,5,8.27,5.37,10.8,1,21.53,2.78,32.35,3.66,3.67,0.84,4.91-1.54,5.18-4.38,0.86-9.19,2.23-18.38,1.37-27.65a7.08,7.08,0,0,0-2.16-4.89c-4.24-.82-8.5-1.49-10.59-6.13-0.76-1.69-3-1.21-4.27-2.25-1.85-2.7.67-4.46,1.58-6.45s1.41-3.28-1.35-3.7c-7.72-1.82-15.57-2.83-23.39-4-2.1-.31-3.68.51-3.57,2.94,0.2,4.62-.08,8.63-5.16,11.16-2.29,1.13-1.14,5.35-3.34,7.4-2.08,5.82-6.92,9-11.87,11.88-2.33,1.37-4.88,3.84-7.72,2.34-3.16-1.67-2.34-5.3-2.15-8.14,1-15,5.69-28.48,16.46-39.42,1.15-1.17,2.54-2.16,3.15-3.79l6.69-5.46c-2.76-.18-4.41,2.07-6.71,2.38-2.07-.83-2.33-2.57-2.39-4.5-0.87-28.08-2.4-56.14-2.48-84.25,0-2.32-.21-4.69,1.15-6.78,1.36-1.71,3.11-1.39,5-1.13,14.54,2,29,4.28,43.6,6.2,19,2.5,38,4.87,56.92,7.42a13,13,0,0,1,1.93.46c4.07,1.25,7.58,3.72,11.54,5.23a7.31,7.31,0,0,1,4.29,4.46,92.74,92.74,0,0,1,1.39,15.34c-0.32,18.14.71,36.24,1.37,54.33,1,26.22,1,52.46,2.66,78.66,0.74,11.93-.42,23.94,1.06,35.86a6.48,6.48,0,0,1-.81,3.86c-2.91,3.41-4.76-.28-7.05-1.06-5.15-2.46-9,.51-12.83,3.19a15.79,15.79,0,0,1-3.88.56c-1.65,0-3.54-.16-4.31-1.8-0.85-1.82.57-3,1.95-4S479.09,383.69,480.07,382.38Z" transform="translate(-203.01 -146.28)"/><path class="cls-8" d="M542,187.06c-5.3,1.89-10.7,3.65-14.6,8-1.44,1.61-2.7,1-4.4.52a94.91,94.91,0,0,0-21-3.28c-11.51,1.62-22.63-1.7-33.91-2.78-10.32-1-20.61-2.49-30.9-3.88-14.08-1.91-28.17-3.78-42.25-5.73-4.75-.66-9.47-1.7-14.31-1.67A5.24,5.24,0,0,1,377,176.9a2.79,2.79,0,0,1-.6-1.66c0.46-3,2.62-4.43,5-5.81,9.27-5.45,19.44-6.27,29.86-5.93,8.44,0.28,16.85,1.1,25.25,1.83a18.86,18.86,0,0,0,4.45-.51c8.44,0.25,16.69,2.07,25,3.32q18.32,2.76,36.63,5.61c11.39,1.79,22.77,3.65,34.2,5.23,1.66,0.23,3,1.31,4.62,1.83a4.28,4.28,0,0,1,1.37.69C543.73,183.5,544.39,185.47,542,187.06Z" transform="translate(-203.01 -146.28)"/><path class="cls-8" d="M553.08,379.27c0.06,1.45-.19,2.54-2,2.77-5.51.72-9.18,4.28-12.43,8.45-1.58-.69-0.85-2-0.89-3q-3.5-82-6.95-164c-0.28-6.64-.44-13.35-1.59-19.87-0.76-4.31.65-7,3.54-9.5A32.55,32.55,0,0,1,542.89,188c3.72,2,2.85,5.84,3,8.92,1,24.17,3.41,48.28,3.7,72.49,0,4.12,1.06,8.19,1,12.38-0.16,7.83,0,7.83-7.58,10.36l-1,1.07c-2.3,3.49-1.91,7.51-1.23,11.11,4.11,21.53,7.87,43.13,12.14,64.63A31.72,31.72,0,0,1,553.08,379.27Z" transform="translate(-203.01 -146.28)"/><path class="cls-8" d="M387.84,339.27c-0.38-3.14,1.32-4.67,4-5.8,6.14-2.56,11-6.49,13-13.22-0.65-2.44-.38-4.95-0.41-7.42-0.05-5-1.66-6.47-6.6-6.16a16.72,16.72,0,0,0-5.69,1.56c-2.92,1.26-4.38-.22-4.64-3.16a6.42,6.42,0,0,1,.1-1c0.72-11.78,1.06-12,12.82-9.87,2.94,0.54,5.9.92,8.85,1.41,3.85,0.64,5.23,2.11,3.9,6.07-1.48,4.42-.25,4.18,3.85,6.36,4.55,2.43,8.31,6.48,12.85,9.33,1.57,1,.79,4.13.55,6.23-0.73,6.44-1,12.9-1.64,19.35s-2.7,8.44-9.41,8.2c-9-.31-17.84-1.63-26.71-2.84C386.66,347.49,385.92,345.83,387.84,339.27Z" transform="translate(-203.01 -146.28)"/><path class="cls-9" d="M499.88,195.75c5.27,0.72,10.58,1.23,15.79,2.22,7.78,1.48,8.69,2.59,9.11,10.5,1.15,21.61,2.34,43.21,3.26,64.83,1.66,39.24,3.13,78.5,4.68,117.75,0.07,1.83.08,3.66,0.09,5.49,0,3-1.45,4.25-4.42,3.8-7.55-1.14-15.16-1.94-22.55-4a3.2,3.2,0,0,1,0-4.25c4-1.3,7.87.42,11.78,0.84,6,0.64,7.42-.22,7.32-6.13-0.37-20.78-.77-41.55-1.74-62.32-0.48-10.29-.52-20.6-1.14-30.9-1.35-22.39-1.55-44.84-3.08-67.24-0.67-9.72-4.63-16.81-13.86-20.58a12.92,12.92,0,0,1-5.72-3.88C498.31,199.73,498.06,197.66,499.88,195.75Z" transform="translate(-203.01 -146.28)"/><path class="cls-10" d="M375,178.47c0,11.16-.49,22.36.19,33.49,1.19,19.43.47,38.91,1.87,58.32a26.54,26.54,0,0,0,.85,3.86c-1,.77-2,2.29-3.26,1.72s-0.53-2.36-.62-3.58c-0.36-4.42.12-8.89-.82-13.28l-0.31-9.71c-1-4-.05-8.11-0.37-12.15-0.14-1.79.26-3.62-.42-5.37,0.12-16.81-.82-33.58-1.89-50.34-0.28-4.42-3.89-8.16-3.06-12.92,5.34-8,13.35-12.65,21.34-17.36a3,3,0,0,1,1.89-.47c16.39,3.18,33.35,2.06,49.55,6.64-0.15,2.56-2.35,2.89-3.9,2.66-5.14-.79-10,1.06-15.08.92-7.17.39-14.12-1.5-21.09-2.59-5.32-.83-9.4,0-13.3,3.39a90.49,90.49,0,0,0-8.91,8.69c-0.64,2.28-2.59,3.91-3.12,6.26A2.71,2.71,0,0,1,375,178.47Z" transform="translate(-203.01 -146.28)"/><path class="cls-11" d="M499.88,195.75l0.35,5.55c2.71,5.22,2.71,11,2.64,16.56-0.25,19.15,1,38.26,1.38,57.38q0.71,33.9,2.06,67.8c0.42,10.81.49,21.61,0.72,32.41,0.06,2.68.46,5.29,0.73,7.94,0.31,3.08,1,6.37-1.69,8.93l-0.22,4a6.1,6.1,0,0,1-3.85-.65c-1-1.74-1.76-3.5-.24-5.35q-0.84-28.93-1.68-57.86c-0.76-28-1.4-55.91-2.24-83.86-0.48-16.13-1.26-32.25-1.91-48.38-0.91-1.66-1.66-3.34-.23-5.11a3.59,3.59,0,0,1,4.23.29Z" transform="translate(-203.01 -146.28)"/><path class="cls-12" d="M542.78,174.18c9.14,0.71,11.67,3.28,12.18,12.24,2.94,51.68,5.11,103.39,7.23,155.11,0.16,3.81.48,7.62,0.27,11.51-2.16-9.11-4.29-18.21-5.1-27.55-0.59-6.78,0-13.64-1.21-20.39-2.53-7.84-2.13-16-2.56-24.06-1-19-1.7-38.1-2.9-57.13-0.76-12.08-1.17-24.18-2.07-36.25-0.28-3.68-1.37-6-4.95-7a4.35,4.35,0,0,1-1.59-.82C540.78,177.76,541.14,175.89,542.78,174.18Z" transform="translate(-203.01 -146.28)"/><path class="cls-13" d="M489.92,392c2.87-1.9,4.33-.52,5.21,2.24a5.33,5.33,0,0,1-1.58,4.48c-13.45,15.3-26.86,30.64-40.64,45.65-2.68,2.92-4.8,6.35-8,8.83-3,3-6.31,5.43-11,4.19-6.9-8.3-6.65-18.05-5.34-27.85,0.6-4.48,3.18-5.74,8.45-5.29,2.43,6.82,2.08,14.22,4.15,21.23,1.17-.69.7-1.65,1-2.38,14.18-13.73,27-28.73,40.27-43.3C484.87,397.15,488.46,395.61,489.92,392Z" transform="translate(-203.01 -146.28)"/><path class="cls-14" d="M387.84,339.27c-1,5.82,2,7.45,7.33,7.75,8.79,0.49,17.54,1.59,26.29,2.59,3.24,0.37,4.9-.44,5.16-4,0.63-8.62,1.46-17.23,2.38-25.82,0.28-2.61-.4-3.66-3.11-3.3a4.72,4.72,0,0,1-3.7-1.22c-2.88-2.53-3.8-6.43-9.14-7.32-4.3-.72-1.92-6.25.24-9.93-7.34-1.18-14.19-2.2-21-3.41-2.18-.39-2.64.68-2.76,2.37-0.27,3.64-.5,7.28-0.79,11.43,3.6-1.9,6.77-3.83,10.58-3.08,3.59,0.7,6.41,2.14,5.72,6.55-0.44,2.8.75,5.61-.19,8.39-1.52-1.83-1-4.13-1.13-6.16-0.45-6.74-.6-7-7-5.87a4.3,4.3,0,0,0-2.7,1c-0.19,2-2,2.55-3.29,3.57a25.56,25.56,0,0,1-3.8,3.17c-2,1.2-2.66,0-2.85-1.78a10.22,10.22,0,0,1,.06-1.49,2.91,2.91,0,0,0-.08.54c-1.38,11.23-9.72,19.49-20.74,20.55-2.73-.34-6.12,1.1-7.48-2.83a2.55,2.55,0,0,1,2.6-1.91q14.56-1.27,20.7-14.52c1.7-4,.95-9.33,7-11,1.49-.4.62-4.35,0.48-6.61-0.29-4.73,1.84-6.48,6.27-5.75,8.05,1.31,16.09,2.71,24.13,4.08,2,1.29,1.88,2.63.63,4.58s-3.11,3.6-2.53,6.24c3.07,0.19,5.46,1.06,7,4.22,1.85,3.69,5.27,3.47,8.66,2,1.83,0.68,1.52,2.27,1.7,3.75,1.32,10.66-.5,21.19-1.22,31.77-0.26,3.77-2,5.81-5.7,6.28-12.32-1.49-24.63-3.07-37-4.41-4.69-.51-4-3.44-3.5-6.47,1.16-1.16.61-2.7,0.94-4C386.59,337.11,387.24,339.13,387.84,339.27Z" transform="translate(-203.01 -146.28)"/><path class="cls-13" d="M384.91,314.22c0.27,0.55.13,1.93,1.3,0.58s2.18-2.76,3.92-3.39c7.81-2.1,8.68-1.89,11.78,2.75,0.4,6.21-2.31,10.73-7.92,13.11-7.89,3.35-14.72,8.17-21.29,13.59-3.28,2.71-7.29,4.62-11.88,4.26-10.27-3.17-13.09-7.43-13.38-18.64-0.23-8.87,1.27-17.22,5.73-24.92,0.85-1.48,1.33-3.6,3.78-3.38,0.49,3.89-2.34,7.21-1.93,11.09a2.44,2.44,0,0,1,.63,1.42,126.74,126.74,0,0,0,.16,17.14,6.59,6.59,0,0,1,.32,1.5l-0.08.77c1.89,3.53,5.39,1.63,8.1,2.39-0.24,1.89-1.77.88-2.2,1.16a24.22,24.22,0,0,0,21.4-17.49C383.59,315.34,383.33,314,384.91,314.22Z" transform="translate(-203.01 -146.28)"/><path class="cls-13" d="M352,404.26c1.51,3.56,1.38,7.46,2.27,11.13s0.46,7.52,2.12,11.18c3-1.89-.84-4.66,1.31-6.38,2.16,0,3.09-1.8,4.34-3,6.87-6.79,13.82-13.51,20.44-20.54,2.41-2.56,4.83-3.73,8.21-3l3.19,1.74c-0.3,3-2.69,4.7-4.59,6.58-9.87,9.74-19.11,20.08-28.43,30.34-2.92,2.4-5.41,5.62-9.84,5.1-5.47-2.78-6.64-8.12-7.39-13.36a64.66,64.66,0,0,1-.08-13.93C344,404.89,347.21,402.87,352,404.26Z" transform="translate(-203.01 -146.28)"/><path class="cls-15" d="M542.93,297.12L544,296c3.84-.53,3.24,2.72,3.63,4.65,2.85,14,5.29,28.08,7.86,42.13,3.44,18.77,7.26,37.47,11,56.19,1.91,9.58,7.32,17,13.41,24.1,1.31,1.53,2.78,2.93,2.3,5.22a9.41,9.41,0,0,1-6.28,1.85c-5.49-1.76-10.2-4.53-12.95-9.88-2.6-.33-4.24,2.62-6.92,2a2.37,2.37,0,0,1,.39-3.55c7.11-5.71,6.52-13.18,5.12-21-2.88-16-6.65-31.81-10-47.72-3.11-14.79-5.57-29.71-8.8-44.48A19.69,19.69,0,0,1,542.93,297.12Z" transform="translate(-203.01 -146.28)"/><path class="cls-16" d="M419.73,159.4c6.71-1,13.57-.43,20.2-2.09,18,2.79,36,5.54,54,8.4,7,1.12,14,2.48,21,3.73,1.35,0.53,2.53,1.4,3.88,1.95,1.07,0.43,2.19,1,2.11,2.32-0.1,1.64-1.55,1.81-2.82,2.07-10.51-.72-20.82-2.88-31.22-4.38-9.91-1.43-19.79-3.11-29.7-4.55q-17.34-2.54-34.67-5.14C421.17,161.5,420,161,419.73,159.4Z" transform="translate(-203.01 -146.28)"/><path class="cls-17" d="M543.06,179.22c4.62,0.48,7,2.77,7.28,7.69,1.49,29.75,3.19,59.5,4.73,89.25,0.5,9.63.74,19.28,1.09,28.93q0,4.4,0,8.79c-1.66-4.83-.26-10.08-3.07-14.61a45.75,45.75,0,0,1-2.69-14.49c-0.66-18.56-1.49-37.12-2.75-55.65-0.92-13.57-1.29-27.17-2.56-40.72a11.16,11.16,0,0,0-2.18-6l-0.07-.24,0.22-.12A1.89,1.89,0,0,1,543.06,179.22Z" transform="translate(-203.01 -146.28)"/><path class="cls-18" d="M542.91,182.44c3.61,0.13,4,2.6,4.17,5.46q2,36.79,4,73.58,1,18.89,2,37.78c-1.77-.58-1.54-2.38-2.2-3.64-1.72-3.31-4.66-3.72-7.93-3.45,7.76-3.64,6.54-10.3,5.55-16.79-1.19-7.74-1-15.61-1.24-23.34-0.55-19.76-3.28-39.39-3.35-59.16a23.77,23.77,0,0,0-1-4.86l-0.88-1C543.34,185.72,540.31,183.54,542.91,182.44Z" transform="translate(-203.01 -146.28)"/><path class="cls-19" d="M499.93,195.4l-3.86-.07c-2.72,2-5.5.67-8-.3-2-.79-4.06-1.06-6.07-1.64q-32.82-4.6-65.63-9.19-20.71-2.89-41.42-5.71l-1.09-1c0.2-2.64,1.74-1.84,3.2-1.25,7,1,14,2,21,2.88q49.75,6.21,99.51,12.36c1.48,0.18,2.93.57,4.4,0.86C502.07,193.86,497.3,192.15,499.93,195.4Z" transform="translate(-203.01 -146.28)"/><path class="cls-20" d="M582.17,428.32c-1.29-3-3.61-5.19-5.81-7.41-8.55-8.64-11-19.83-13.23-31.11-3.27-16.73-6.37-33.49-9.53-50.24q-3.77-20-7.5-40c-0.28-1.49-.24-3-2.12-3.52,4.45-1.5,4.49,2,5,4.6,2.76,14.45,5.34,28.94,8.08,43.4,3.6,19,6.91,38.08,11.29,56.95,2.09,9,7.92,15.51,13.27,22.44C582.73,424.87,584.83,426.36,582.17,428.32Z" transform="translate(-203.01 -146.28)"/><path class="cls-21" d="M367,348.23l1,0.84c-5.19,1.28-3.39,4.66-2,7.53,9.5,20.26,24.51,33.47,47.27,36.74a101.14,101.14,0,0,0,48.51-5.07c1-.35,2.11-1.28,3.18-0.06-23.43,9.25-47.22,13.65-71,2.13a60,60,0,0,1-31.29-34.75C360.3,349.08,360.09,349.15,367,348.23Z" transform="translate(-203.01 -146.28)"/><path class="cls-22" d="M553.08,379.27c-2.28-11.86-4.63-23.71-6.83-35.59-2.39-12.89-4.73-25.78-6.92-38.7-0.7-4.15-2-8.65,2.6-11.73,1.07,1.38-1.33,2.92.19,4.28,1.76,10.19,3.89,20.32,5.72,30.49,2.35,13.13,5.35,26.13,7.67,39.26,0.34,1.94,1.14,3.86-.34,5.67C554.83,375.18,554.52,377.41,553.08,379.27Z" transform="translate(-203.01 -146.28)"/><path class="cls-23" d="M555.17,373c-3.6-19.09-7.31-38.16-10.73-57.28-1.07-6-3.34-11.88-2.32-18.15a1.6,1.6,0,0,0,.81-0.41c2.88,15.1,5.69,30.21,8.67,45.29q5.12,25.91,10.5,51.77c2,9.79,2.73,19.19-5.71,26.7a3.06,3.06,0,0,0-.36,1.42c-1.34.21-2.85,0.49-3.41-1.1-0.38-1.08.83-1.75,1.58-2.26,7.75-5.2,8.37-12.29,6.22-20.65S556.89,381.41,555.17,373Z" transform="translate(-203.01 -146.28)"/><path class="cls-24" d="M379.11,314.5c-1.3,7.72-11.61,16-19.63,15.75l-3.43-.13,0.05,0.15c-2.05-6-1-12-.67-18.1a2.35,2.35,0,0,1,1.68-1.69c3.39-13.3,9.65-24.81,20.8-33.26,1.12,1.56-.53,2.05-1.19,2.76-11.53,12.42-16.38,27.35-16.77,44-0.08,3.58,1,4.79,4.2,2.7,5.56-3.6,12.81-5.52,13.92-13.69,0.1-.71.58-0.55,0.77,0A8.63,8.63,0,0,1,379.11,314.5Z" transform="translate(-203.01 -146.28)"/><path class="cls-20" d="M444.93,453.23c2.66-5.86,7.56-10,11.62-14.75C468.12,425,480.17,412,492,398.73a45.39,45.39,0,0,0,3.14-4.46c1.42,1.79.84,3.35-.5,4.88-9.12,10.44-18.2,20.93-27.34,31.34-5.34,6.08-10.72,12.12-16.21,18.06C449.33,450.44,448,453,444.93,453.23Z" transform="translate(-203.01 -146.28)"/><path class="cls-25" d="M356.94,298.19c-8.79,11.43-10,24.19-6.44,37.7,1.38,5.23,6.38,6.71,10.31,9.24-7.6-.09-12-3-13.74-10.37-4.11-17.12,1.35-31.54,13.69-44.82C360.32,293.83,358,295.72,356.94,298.19Z" transform="translate(-203.01 -146.28)"/><path class="cls-26" d="M489.92,392c1.27,0.61.57,1.28,0,1.84-15.33,14.82-28.1,32.06-43.83,46.5-1.16,1.07-1.88,2.88-3.92,2.74,3.23-5.9,8.47-10.08,13-14.86C466.57,416,477.14,403,489.92,392Z" transform="translate(-203.01 -146.28)"/><path class="cls-27" d="M352,404.26c-5-.09-6.81,2.91-7.06,7.39-0.5,9.16-.53,18.2,6.08,25.68-3.25,0-5.21-1.73-6.4-4.59-3.42-8.23-3.54-16.77-2.23-25.4a7.11,7.11,0,0,1,4.93-5.77C349.81,400.7,350.94,402.56,352,404.26Z" transform="translate(-203.01 -146.28)"/><path class="cls-28" d="M437.06,424.27c-7.14,3.15-8.39,5.1-8,14.08,0.29,6.16,1.11,12.27,5,17.45,0.45,0.6.61,1.14-.14,1.62-3.23-1.05-4.6-3.71-5.46-6.64-2.26-7.64-2-15.44-1.06-23.22a6.93,6.93,0,0,1,4.84-5.84C434.78,420.79,435.81,422.75,437.06,424.27Z" transform="translate(-203.01 -146.28)"/><path class="cls-29" d="M360.91,432.22c3.76-6.92,9.63-12.13,14.73-18,5.79-6.6,12.72-12.14,18.29-19,1.94,2-.3,3.28-1.13,4.12C382.15,410.34,372.71,422.44,360.91,432.22Z" transform="translate(-203.01 -146.28)"/><path class="cls-30" d="M518.84,174.42c0.44-.35,2.14-0.3.57-1.33s-3.4-1.89-4.43-3.65l24.09,4a3.1,3.1,0,0,1,.1,4.25c-4.66,2.69-9.22.15-13.71-.59C523.26,176.73,519.87,178.11,518.84,174.42Z" transform="translate(-203.01 -146.28)"/><path class="cls-31" d="M390.74,393.57c-5.67.4-8.53,4.84-12,8.36-6.06,6.08-12.09,12.19-18.22,18.19-0.54.52-1.79,3.59-2.72,0.06,8.2-8.4,16.55-16.67,24.53-25.27C385.07,391.91,387.38,390.65,390.74,393.57Z" transform="translate(-203.01 -146.28)"/><path class="cls-32" d="M480.07,382.38c0.31,3.34-3,4.52-4.42,7.46,2.54,0.89,5.43-.09,7.59,1.6-1.42,2.45-3.44,3.19-6.25,2.62-3.35-.68-6.77-1-11-1.58Z" transform="translate(-203.01 -146.28)"/><path class="cls-33" d="M562.94,420.28c3.45,4.43,8.62,6.6,12.95,9.88C569.52,429.57,565,426.55,562.94,420.28Z" transform="translate(-203.01 -146.28)"/><path class="cls-14" d="M357.12,310.48c-2.13,4.53-.31,9.28-0.75,13.91-0.19,1.95-.18,3.92-0.26,5.87l-1.17-.85a85.41,85.41,0,0,1,0-19.22,2.37,2.37,0,0,1,.06-0.91C356.33,308.61,357,309.11,357.12,310.48Z" transform="translate(-203.01 -146.28)"/><path class="cls-34" d="M401.91,314.17c-3.15-4.23-7.75-2.26-11.78-2.75l3.86-2.22C397.84,308.93,401.74,308.59,401.91,314.17Z" transform="translate(-203.01 -146.28)"/><path class="cls-35" d="M501.75,390.32q0.12,2.68.24,5.35c-3.72-1.08-3-5.71-5.93-7.41C498.24,388.16,500,389.23,501.75,390.32Z" transform="translate(-203.01 -146.28)"/><path class="cls-36" d="M539.17,177.73l-0.09-4.3a5.15,5.15,0,0,1,3.71.75c0.25,1.66.39,3.31-.71,4.77C540.37,180.31,539.6,179.41,539.17,177.73Z" transform="translate(-203.01 -146.28)"/><path class="cls-1" d="M372.09,231.76c1.2,5.8.84,11.67,0.78,17.52-1.06-.25-2-0.86-1.62-2C372.75,242.16,371.5,236.92,372.09,231.76Z" transform="translate(-203.01 -146.28)"/><path class="cls-37" d="M400.25,242.11a15.3,15.3,0,0,1,11.4,4.58,7.68,7.68,0,0,1,1.95,8.73c-1.18,3-3.78,4.53-7,4.77a17.16,17.16,0,0,1-10.41-2.86c-3.52-2.17-5.78-5.28-4.59-9.56S396.07,241.84,400.25,242.11Z" transform="translate(-203.01 -146.28)"/><path class="cls-37" d="M477.84,266.42c-4,.42-7.25-1.36-8.38-5.61s1.31-7.41,4.8-9.49,7.56-3.69,11.85-2.38c6.57,2,8.13,9,3.16,13.7C486.45,265.3,483.09,266.46,477.84,266.42Z" transform="translate(-203.01 -146.28)"/><path class="cls-38" d="M453.41,266.17c-0.89-4.74-2.29-9.54,1.53-13.77,0.82,9,5.3,15.52,13.13,19.86l5.94,2.67c-5.49,1.7-10.2,0-14.86-1.94-2.14.06-2.86,2-4.17,3.15-5.74,5.1-12,8.46-20,6.13-4.43-1.26-8.65-2.81-11.27-7-0.88-1.41-.95-2.05,1-1.8,8.52,4.69,16.63,3.63,24.61-1.49A8.43,8.43,0,0,0,453.41,266.17Z" transform="translate(-203.01 -146.28)"/><path class="cls-39" d="M423.77,226.36a32.28,32.28,0,0,1,.18,3.44c-0.17,3.31-.94,6.75-4.92,6.72s-4.65-3.62-4.94-6.81c-0.27-2.86.15-5.68,2.78-7.48,1.64-1.12,3.36-1.56,4.47.81C422.37,224,422.82,225.36,423.77,226.36Z" transform="translate(-203.01 -146.28)"/><path class="cls-40" d="M468.19,231.9a5.34,5.34,0,0,1,.8,1.7c0.25,3.56.19,7.22-4,8.56-2.77.9-4.12-1.23-5.06-3.51-1.66-4-.73-9.12,2.1-10.79,1.47-.86,3-1.34,4.3.46C467.35,229.32,467.52,230.73,468.19,231.9Z" transform="translate(-203.01 -146.28)"/><path class="cls-41" d="M425.6,354.13c3.11-1.49,4.57-3.78,4.72-7.41,0.42-10,1.22-19.93,1.85-29.89,0.1-1.65.35-3.38-1.36-4.5,1.41,0,2,.73,2.26,2.07,1.89,11.71.52,23.32-.93,34.94C431.66,353.33,429.38,354.73,425.6,354.13Z" transform="translate(-203.01 -146.28)"/><path class="cls-42" d="M435,282.28c8.21,0.1,15.22-2.55,20.43-9.1,1.32-1.66,2.39-2.19,3.74-.18C454.26,282.12,443.09,286.41,435,282.28Z" transform="translate(-203.01 -146.28)"/><path class="cls-43" d="M453.41,266.17c1.12,1.34,1,2.45-.11,3.92-6,7.89-20.93,9.7-28.63,3.35,8.69,3.08,16.94,2.67,24.4-3.27C450.6,269,452,267.51,453.41,266.17Z" transform="translate(-203.01 -146.28)"/><path class="cls-44" d="M468.06,272.27c-9.16-3.46-13.41-10.16-13.13-19.86,2.13,3,1.75,6.92,3.76,10.06a24.13,24.13,0,0,0,10.29,9,0.53,0.53,0,0,1,0,.45A6.14,6.14,0,0,1,468.06,272.27Z" transform="translate(-203.01 -146.28)"/><path class="cls-45" d="M482,193.38a76.84,76.84,0,0,1,14,1.94l-0.14,4.89Z" transform="translate(-203.01 -146.28)"/><path class="cls-46" d="M415.12,306.07c-2.86-2.35.06-3.94,0.83-5.75,0.7-1.65,2.9-2.91,1.07-5.08,2.87,0.55,3.56,2,2,4.55C417.68,301.87,416.41,304,415.12,306.07Z" transform="translate(-203.01 -146.28)"/><path class="cls-47" d="M487.86,373.7l5.58-4.91-5.1,5.57Z" transform="translate(-203.01 -146.28)"/><path class="cls-48" d="M423.77,226.36c-2.32,0-4-.45-2.44-3.31C424.82,222.19,424.1,224.42,423.77,226.36Z" transform="translate(-203.01 -146.28)"/><path class="cls-49" d="M468.19,231.9c-2.77-.1-3-1.5-1.81-3.58C469.62,228.18,469.46,229.76,468.19,231.9Z" transform="translate(-203.01 -146.28)"/><path class="cls-50" d="M539.17,177.73c1.05,0.21,1.6,1.61,2.91,1.21l1,0.27q0,1.43,0,2.87c-8.25-1.43-16.48-3-24.75-4.27q-37.4-5.82-74.83-11.46a17.3,17.3,0,0,0-2.48,0c-5.17,1.27-10-1-15.06-1.46-9.71-.84-19.44-1.77-29.08-3.33a6.94,6.94,0,0,0-5.21,1.23c-5,3.55-10.49,6.35-14.83,10.77-1.94-.68-1.37-2-0.84-3.3,3.67-4.95,8.38-8.82,13.14-12.64,2.63-2.11,5.58-1.59,8.54-1.18l22.07,3c16.26,2.55,32.5,5.15,48.77,7.62,16.77,2.54,33.56,4.94,50.34,7.4Z" transform="translate(-203.01 -146.28)"/><path class="cls-51" d="M376.82,173.25c3.82-5.87,9.62-9.44,15.31-13.12,1.48-1,3.2-.76,4.85-0.49,13.37,2.16,27,2.87,40.1,6.57a15.93,15.93,0,0,0,3.92.11c-5.55,2-11-.17-16.49-0.51-13.59-.87-27.07-1.49-40,3.8-3,1.21-5.63,2.77-7.32,5.63A1.4,1.4,0,0,1,376.82,173.25Z" transform="translate(-203.01 -146.28)"/><path class="cls-52" d="M376.82,173.25l0.33,2-0.07,1c-1.16.16-2.49-.08-3.2,1.25a7.6,7.6,0,0,1-3-5.85c2.17,0.39,2,2.76,3.71,3.31,1.12-1.36-.47-3.56,1.34-4.7C376.08,171.29,375.88,172.43,376.82,173.25Z" transform="translate(-203.01 -146.28)"/><path class="cls-53" d="M506.07,392.32c-0.69-19.94-1.43-39.89-2-59.83q-2-63.1-3.82-126.2c0-1.66,0-3.32,0-5,2.42,1.1,4.82,2.22,7.26,3.29,10,4.4,13.1,12.69,13.59,22.91q1.22,25.87,2.15,51.75c0.51,14.58,1.14,29.19,2,43.75,0.8,13-.15,26,1,38.86,0.77,9,.62,17.93.77,26.89,0.09,5.48-1.46,7.09-6.84,6.42C515.4,394.58,510.48,394.6,506.07,392.32Z" transform="translate(-203.01 -146.28)"/><path class="cls-54" d="M384.91,314.22c-1.58,8.39-6.51,14.22-14,18-3.36,1.72-6.91,2.86-11.2,1.64l4.4-1.39c10-3.31,18.12-8.38,18.89-20.3a3.4,3.4,0,0,1,.18-1c0.51-1.35.37-3.07,2-3.82a1.29,1.29,0,0,1,1.21.35c0.79,1.48.3,2.84-.52,4.18A16,16,0,0,0,384.91,314.22Z" transform="translate(-203.01 -146.28)"/><path class="cls-1" d="M355,310.19q0,9.61,0,19.22A42.46,42.46,0,0,1,355,310.19Z" transform="translate(-203.01 -146.28)"/></svg>