<svg id="Слой_1_копия_" data-name="Слой 1 (копия)" xmlns="http://www.w3.org/2000/svg" viewBox="0 0 508.79 508.79"><defs><style>.cls-1{fill:#4eb1ae;}.cls-2{fill:#fefefe;}.cls-3{fill:#509890;}</style></defs><title>iconQuestion</title><path class="cls-1" d="M62.2,293C62,153,175.87,38.88,316.27,38.48,456.4,38.09,570.86,152.36,571,292.8c0.13,140.07-113.89,254.28-254.05,254.48C176.58,547.47,62.42,433.51,62.2,293Z" transform="translate(-62.2 -38.48)"/><path class="cls-2" d="M234,168.11c15.63-15.59,33.8-26.92,55.61-31.19,35.7-7,69.83-3.82,100.24,18.31,27.81,20.23,39.16,57,27.3,87.66-4.44,11.5-11.61,21.31-20.48,29.74-11.83,11.23-23.69,22.46-36.09,33C347.59,316.73,339.31,330,336.94,347c-1.41,10.11-6,18.18-16.11,22.06-13.14,8.1-32.48-.6-35.85-16.4-3-13.86-1.13-27.42,3.53-40.73,5.4-15.44,16.9-26,28.49-36.58,12-11,24-22,35-34.09,17-18.69,10.29-47.57-13.23-56.91-15.45-6.13-30.88-5.5-45.85,2.14-3.35,1.71-5.83,4.42-8.32,7.09a21.12,21.12,0,0,1-5.88,4.55c-6.16,8.14-9.48,17.64-12.66,27.15-3,8.94-7.76,16.28-16.28,20.79-15.85,10.69-36.27-3.32-39.91-18.3-1.67-6.87-.67-13.63.81-20.25,2.87-12.81,7.86-24.7,17.08-34.41A23.44,23.44,0,0,1,234,168.11Z" transform="translate(-62.2 -38.48)"/><path class="cls-3" d="M278.74,198.12c5.1-9.13,12.51-15.31,22.77-17.92,11.85-3,23.77-3.48,35.35.6,25.56,9,37.69,39.62,16,63.23-10.5,11.44-22.71,21-34.09,31.52-11.84,10.91-22.82,22.45-28.29,38-4.18,11.9-6,24.18-3.55,36.73a24.67,24.67,0,0,0,28.47,19.64l5.41-.86c-9.18,8.57-17.84,18.47-31.2,19.89S261.9,383,260.94,363.09c-1.36-28.37,11.5-49.65,31.9-67.84,13.25-11.82,27.55-22.64,38.52-36.84,16.11-20.85,4.76-47.49-15-56.66-11-5.1-22.2-5-33.7-3.91C281.38,198,280.06,198,278.74,198.12Z" transform="translate(-62.2 -38.48)"/><path class="cls-2" d="M288.27,401.38c8.87-9.53,19.47-14.14,32.6-11.27,12.75,2.79,22.36,12.76,24.07,24.81,2.14,15.11-3.41,26.74-16,33.53-1,.54-2,1.14-3,1.71-9,7.2-18.62,4.95-27.67.77-14.57-6.73-21.5-22.73-17.7-38.3C281.8,407.81,284.58,404.35,288.27,401.38Z" transform="translate(-62.2 -38.48)"/><path class="cls-3" d="M234,168.11c-10.58,12.47-18.37,26.32-21.61,42.55-3.47,17.37,4.05,31.64,19.3,36,6.1,1.76,12.16,1.11,18.16-.64a109.5,109.5,0,0,1-22.49,17.24c-15.24,8.61-33.22,1.46-39.56-15.38-2.35-6.25-1.59-13.57,0-20.25,5.44-22.8,17.92-40.92,37.16-54.32C227.76,171.36,229.74,167.76,234,168.11Z" transform="translate(-62.2 -38.48)"/><path class="cls-3" d="M288.27,401.38c-4.73,7.33-7,15.22-5.94,24,2.57,21,24.11,30.33,40.78,25.46,0.95-.28,1.92-0.48,2.88-0.71a1.17,1.17,0,0,1,.13.46c-10.83,9.13-20.93,19.63-36.35,20.61-12.15.78-26.15-7.73-30.28-18.21-5.5-14-2-29.2,9.44-37.85C275.24,410.41,280.84,404.58,288.27,401.38Z" transform="translate(-62.2 -38.48)"/></svg>