<svg id="Слой_1" data-name="Слой 1" xmlns="http://www.w3.org/2000/svg" viewBox="0 0 249.93 249.99"><defs><style>.cls-1{fill:#82addf;}.cls-2{fill:#fff;}.cls-3{fill:#feffff;}.cls-4{fill:#f7f9fd;}</style></defs><title>iconWWW</title><path class="cls-1" d="M497.66,353.87c-68.47.08-125-56-125-124.2-0.09-69.32,55.73-125.76,124.45-125.79,69.52,0,125.13,55.59,125.47,124.2A124.93,124.93,0,0,1,497.66,353.87Z" transform="translate(-372.62 -103.88)"/><path class="cls-2" d="M517.9,230.18l41.92,49.31c-7.06,1.47-13.2-1.14-20-.4,3.24,8,6.29,15.74,9.44,23.39,1.11,2.7,1.7,4.6-2,6.14-3.89,1.61-4.77-.07-5.83-3.13-2.34-6.75-5.16-13.33-7.35-20.13-1.31-4.07-2.6-3.18-4.77-.82-3.45,3.75-7.05,7.36-11.43,11.9V230.18Z" transform="translate(-372.62 -103.88)"/><path class="cls-3" d="M428.77,223.21c-2.89,8.26-7,14.58-8.07,22-0.41,2.78-1.55,4.3-4.23,4.61-3,.34-4.87-1.31-5.6-3.92-1-3.66-1.58-7.46-2.46-11.18A231.56,231.56,0,0,0,401,209.42c-1-2.67-2.32-5.75,1.48-7.19,4-1.52,6,1.3,6.91,4.52,2.36,7.94,4.45,16,6.74,24.3,2.3-3.89,3.21-8.15,4.65-12.19,1.17-3.28,2.31-6.59,3.76-9.76,1.16-2.52,2.35-5.49,5.93-5.16,4,0.36,4.32,4,4.75,6.71,1,6.39,1.81,12.81,3.32,19.11,0.42,1.76.86,3.51,1.45,5.9a235.67,235.67,0,0,0,8.7-22.82,70.71,70.71,0,0,1,2.74-8c1-2.29,3-3.77,5.69-2.67,2.92,1.21,3,3.7,2,6.3-2.55,6.85-5.09,13.7-7.75,20.5-2.18,5.57-4.53,11.07-6.85,16.58-1.1,2.61-2.09,5.39-5.76,5.28-3.92-.12-4.88-3-5.54-6C431.76,238.22,430.48,231.55,428.77,223.21Z" transform="translate(-372.62 -103.88)"/><path class="cls-3" d="M491.77,224.67c-2.92,6.69-6.82,13-8,20.17-0.49,2.91-1.4,4.75-4.39,5-3.19.25-4.93-1.61-5.64-4.51-1.33-5.48-2.68-11-3.86-16.47-1.49-7-4-13.71-6.27-20.47-0.9-2.68-1.1-5.11,2-6.21s5.14,0.46,6.27,3.32c3.25,8.2,4.74,16.9,7.17,25.81,2.88-5.21,4-10.7,5.91-15.85a83.07,83.07,0,0,1,3.87-8.62c0.94-1.84,2.45-3.14,4.8-2.91s3.5,2,3.89,4c1.48,7.31,2.71,14.66,4.09,22,0.32,1.72.85,3.4,1.48,5.84,3.34-8.21,6.5-15.66,8.76-23.48a47.93,47.93,0,0,1,2.68-7.48c1.1-2.29,3.1-3.66,5.74-2.53s2.88,3.5,2.07,5.91c-1.53,4.57-3.07,9.14-4.85,13.61-3.27,8.17-6.69,16.29-10.12,24.4-1.05,2.49-2.25,4.92-5.66,4.7s-4.36-2.43-5.18-5.17C494.41,238.83,493.7,231.72,491.77,224.67Z" transform="translate(-372.62 -103.88)"/><path class="cls-3" d="M554.88,223.18c-3,8.15-6.91,14.42-8.14,21.63-0.49,2.9-1.37,4.76-4.37,5-3.19.26-5-1.58-5.65-4.48-1.2-5-2.08-10.09-3.46-15-2-7.35-4.34-14.64-6.67-21.91-0.86-2.67-1.13-5.1,1.93-6.22s5.15,0.43,6.29,3.29c3.26,8.2,4.74,16.9,7.17,25.78,2.86-5,4-10.29,5.73-15.31a43.83,43.83,0,0,1,3.77-8.67c1.19-1.93,2.49-3.59,5.07-3.34s3.61,2.28,4,4.44c1.41,7.15,2.63,14.34,4,21.51,0.33,1.74.85,3.43,1.46,5.83,3.37-8,6.31-15.33,8.68-22.92a64.27,64.27,0,0,1,2.77-8c1.07-2.3,3.08-3.68,5.73-2.56s2.91,3.49,2.11,5.9c-1.58,4.72-3.19,9.45-5,14.07-3.2,8-6.56,16-9.93,23.94-1,2.48-2.24,4.93-5.65,4.73s-4.38-2.4-5.2-5.15C557.42,238.86,556.7,231.74,554.88,223.18Z" transform="translate(-372.62 -103.88)"/><path class="cls-4" d="M600.49,242.84c2.7,0,4.8,1.1,4.88,3.86,0.09,3.16-2.38,4.07-5.06,4.14s-4.63-1.35-4.55-4.08S597.93,242.91,600.49,242.84Z" transform="translate(-372.62 -103.88)"/></svg>