<svg id="Слой_1" data-name="Слой 1" xmlns="http://www.w3.org/2000/svg" viewBox="0 0 515.97 314.54"><defs><style>.cls-1{fill:#a6a19e;}.cls-2{fill:#84807d;}.cls-3{fill:#948f8c;}.cls-4{fill:#605b58;}.cls-5{fill:#938e8b;}.cls-6{fill:#77736f;}.cls-7{fill:#87837f;}.cls-8{fill:#777372;}.cls-9{fill:#6c6864;}.cls-10{fill:#787373;}.cls-11{fill:#635f5c;}.cls-12{fill:#6f6a67;}.cls-13{fill:#686360;}.cls-14{fill:#787371;}.cls-15{fill:#88837f;}.cls-16{fill:#787470;}.cls-17{fill:#6c6867;}.cls-18{fill:#77726f;}.cls-19{fill:#989490;}.cls-20{fill:#797471;}.cls-21{fill:#6d6a68;}.cls-22{fill:#605c58;}.cls-23{fill:#777370;}.cls-24{fill:#807c79;}.cls-25{fill:#93918e;}.cls-26{fill:#9a9591;}.cls-27{fill:#7e7c7b;}.cls-28{fill:#76726e;}.cls-29{fill:#6e6967;}.cls-30{fill:#615d59;}.cls-31{fill:#615f5e;}.cls-32{fill:#7c7875;}.cls-33{fill:#6d6a67;}.cls-34{fill:#646260;}.cls-35{fill:#635e5a;}.cls-36{fill:#7e7a76;}.cls-37{fill:#797571;}.cls-38{fill:#85807d;}.cls-39{fill:#807d7a;}.cls-40{fill:#827d7c;}.cls-41{fill:#938f8c;}.cls-42{fill:#736f6c;}.cls-43{fill:#7b7778;}.cls-44{fill:#6c6764;}.cls-45{fill:#807f7e;}.cls-46{fill:#5d5955;}.cls-47{fill:#9f9e9a;}.cls-48{fill:#969593;}.cls-49{fill:#b2adaa;}.cls-50{fill:#95908d;}.cls-51{fill:#beb9b6;}.cls-52{fill:#c1bcb9;}.cls-53{fill:#a8a3a0;}.cls-54{fill:#96918e;}.cls-55{fill:#989390;}.cls-56{fill:#bab5b2;}.cls-57{fill:#918c88;}.cls-58{fill:#9e9995;}</style></defs><title>rockTableBG</title><path class="cls-1" d="M219.91,455c-5.74,3.95,1.5,9.48-4.59,13.38-5.69-3.51-2.84-7.93-3.54-11.4-15.6,2.62-31.71,3.19-48,3-12.69-.11-25.87.44-32.57-8.16-1-1.69-.61-3.34.18-5.06,1.48-3.2,8.6-5.61,5-9.37s-9.16-6.94-17.34-9.22c0.67,8.2,5.23,16.47-5.61,23.12a16.56,16.56,0,0,1-10.69,1.46c-11.63-5.21-18.62-12.52-25.24-20-2.08-9.61-4.87-19.2-5.82-28.86-0.62-6.33-9.38-11.23-7.46-17.78,3.66-2.07,7.48-1.41,11.31-.3-13.71-3.49-14.37-4.25-13.65-15.42a5.6,5.6,0,0,1,3.67-4.08c3.38-1.43,6.94,2,10.31-.12,7.14-1,14.85,1.28,22.13-1.57-8.54-1.57-16.64-3.18-23.17,2.12-6.37-.15-6.08-3.19-5.32-5.37,1.94-5.61-.65-10.74-2.77-16-1.83-4.57,1.9-6.92,8.15-4.91,10.58,3.4,11.2.08,10.92-4.72a2.86,2.86,0,0,1,1.17-2.08c9.5-2.17,16.66,2.72,24.14,2.65-10.6-1.94-22.68-3.81-33.75-7.33a17.81,17.81,0,0,1-3.31-.66c-5.72-4-12.86-7.35-15.3-12.73a21.57,21.57,0,0,1,6.46-11c7.37-5.17,12.86-.08,19.93,1.49,2.69-3.16-3.09-7.3,2.67-9.94,25,5.2,49.21,11.63,73.6,17.77,8.42,2.12,16.64,4.53,25.07,6.66,9.26,2.34,17.56,5.25,23.41,10.59C215.25,336,223.68,340,232,341.78c19.82,4.3,33.53,13.68,51.14,19.67,8.08,2.75,11.19,7.09,8.6,12.69-6,12.91-13.08,25.6-19.55,38.42a70.15,70.15,0,0,1-17.89,12.23c-8.1,3.76-9.11,9.21-12.17,14.24a2.33,2.33,0,0,0,1,3.5c9.23,3.94,3.43,7.54-.35,11.24-5.85,5.06-13.36,4.18-21.2,2.1,0.71-3.8-3.69-7-3.8-10.49C216.4,448.62,223.74,451.43,219.91,455Z" transform="translate(-47.23 -157.83)"/><path class="cls-2" d="M65.37,386.47c12.68,15,12.45,31.34,14.8,47.45-2.05,6.86-12.23,9.34-19.94,13.15-2.69-.89-2.48-2.46-2.34-3.91,1.59-17.13-3-34-7.29-50.77-0.75-2.9-.08-4.83,4.72-5.87C58.67,387.34,62,383.74,65.37,386.47Z" transform="translate(-47.23 -157.83)"/><path class="cls-3" d="M87.63,333.9c-0.35,2.42,3.62,4.48,1.47,7.11-2.77,3.36-5.2,6.7-12.2,2.34-1.78-1.11-3.49-3.44-6.83-2.19-4,1.5-.33,3.4.22,5.18,1.55,5,6.68,9.81,1.71,15.27-1.23,1.35-.11,3.9,3.06,5.2l0,0c-2.62,2.41-5.08.3-7.6-.09-3.44-5.76-14.21-7.16-19.61-11.77l0-16.56c7.48-1.81,14.17-4.06,15-9.59,3.94-1.51,8.24-1.08,12.5-.86l1.83,0.15C82.3,329,87.45,329.85,87.63,333.9Z" transform="translate(-47.23 -157.83)"/><path class="cls-4" d="M162.65,458.05c14.08-.55,28.23-0.73,42.2-1.77,9.18-.69,11.83,1,10.34,6.18-0.55,1.92.05,4,.13,5.94l0,0c-8.29,1.66-17.05-.34-25.37,1.15-16.06-.42-32.3,2-48.2-1-0.63-9.19.12-9.69,15-9.9C158.72,458.62,160.81,458.79,162.65,458.05Z" transform="translate(-47.23 -157.83)"/><path class="cls-3" d="M552.91,232.48q9.5,12.91,7.22,26.94a171.86,171.86,0,0,1-6.1,18.46c-0.82,2.19-.24,5.12-5.87,5.6-5.18-3.34-3.68-7.56-2.91-11.25,1.31-6.22-2.2-12.2-1.12-18.34,0.59-3.37-3.41-2.58-6.65-2.36-13.53-3.1-24-9.2-36.5-13.34-3.62-1.2-6.91-4.51,2-5.08,11.35,2.59,22.52,3.06,33.25-1.09C541.75,232.33,547.09,235.51,552.91,232.48Z" transform="translate(-47.23 -157.83)"/><path class="cls-5" d="M540.26,432.45c-1.66,10.22-3,20.45-2.37,30.73,0.12,2.08-2.34,3-4.72,3.95a5.71,5.71,0,0,1-4.15-4.26c-0.09-3.63-5-5.38-8.38-7.74s-8.56-3.95-8.65-7.62c0.29-1.89,1.41-3.63-2-5.29-15.24-7.33-14.13-17.16,2.4-23.45a29.09,29.09,0,0,1,5.51-1.63,5.46,5.46,0,0,1,4.37,1.69c2.74,5.24.65,10.68,1.61,16.19C529.87,435.1,533.39,429.67,540.26,432.45Z" transform="translate(-47.23 -157.83)"/><path class="cls-6" d="M472.75,471.06c-14.37,1.2-27.41-2.35-40.94-4.12-9.87-1.29-19.65-2.82-29.47-4.25,0.18-2.56-3.82-1.77-5.85-2.59-3.91-2-2.49-3.86.49-5.65a13.45,13.45,0,0,1,3.68-.82c20.41,0.53,40.67,2.41,61.14,2.27a56.26,56.26,0,0,1,7.6.59c13.52,2.64,13.53,2.64,6.81,9.89C474.83,467.88,474.43,469.64,472.75,471.06Z" transform="translate(-47.23 -157.83)"/><path class="cls-7" d="M472.75,471.06c-4.68-4.86,2.38-7,6.51-9.92-1.28-2.86-7.11-1-9-3.1,11.48-4.12,25-1.49,37-4,8.56,1.83,18.14,2.64,23.21,8.07l2.72,5c-12.23,4.58-26.34,2.47-39.48,3.83C486.91,471.66,479.74,471.07,472.75,471.06Z" transform="translate(-47.23 -157.83)"/><path class="cls-8" d="M60.22,447.07c3.89-5.87,15.07-7.8,19.94-13.15L102.56,452c5.4,4.62,8.18,9.39,2.56,14.69C88.72,461.33,74.24,454.39,60.22,447.07Z" transform="translate(-47.23 -157.83)"/><path class="cls-9" d="M320.48,158c18.43,1.91,36.84,3.91,54.69,7.37,6.54,1.1,8.7,3.79,7.77,7.61-1.92,3.67-4.56,6.16-11.08,2.46-4.26-2.41-9.31-1.15-14.19-1.15-13.78,0-28.18,2.84-40.89-2.84C313.14,166.48,314.81,162,320.48,158Z" transform="translate(-47.23 -157.83)"/><path class="cls-10" d="M552.91,232.48c-5,3.53-10,5.42-14.87,0,2.1-9.77,1.13-19.6,1.4-29.39-3.1-7-4.79-14.3-11.06-20.8-4.91-5.09-3-7.35,6.83-9.47,22,18.05,18.09,38.15,13.11,58.37C547.85,233,551.52,231.81,552.91,232.48Z" transform="translate(-47.23 -157.83)"/><path class="cls-11" d="M560.8,370.05l-10.66,23.54c-6.54,1.93-13.6,3.07-20.44,4.49-4.13.86-9.37,2.61-12.9-1,0.41-4.61,4.89-8.11,9-11.7,8.22-7.71,16.31-15.51,32.81-17.79C560.59,368,561.93,368.65,560.8,370.05Z" transform="translate(-47.23 -157.83)"/><path class="cls-3" d="M535.2,172.78c-4.86,1.73-10.22,4.24-5.43,7.44,9.1,6.1,6.59,14.43,13.12,20.86a33.85,33.85,0,0,1-7.95,3.5c-8.18,2.74-14.21,2.17-17.44-3.55-3.41-6-9.64-11.61-8.8-18.36,3.13-3.68,16-3.06,12.18-9.84A14.64,14.64,0,0,1,535.2,172.78Z" transform="translate(-47.23 -157.83)"/><path class="cls-12" d="M222.63,159.45l67.33,3c-6.7,6-18.21,7.26-28.2,10-9.91.62-19.32-1.17-28.91-2.13a71.62,71.62,0,0,1-7.56-.77c-5-1.39-11.52-.1-15.52-3.19C211,162,217.77,161.37,222.63,159.45Z" transform="translate(-47.23 -157.83)"/><path class="cls-13" d="M302.69,468l-39.93.11c-5.85-4-12.11-7.91-5.83-13.73,4.33-2.32,9.93-2.69,15.24-3.53a20.75,20.75,0,0,1,5.41.08c10.62,3.93,20.5,8.32,26.42,15.18A2.18,2.18,0,0,1,302.69,468Z" transform="translate(-47.23 -157.83)"/><path class="cls-14" d="M517.64,396.51c6.1,2.2,11.33.08,16.49-1.37s10.26-2.55,16-1.55l-7.58,15c-8,3.73-17.13,6.25-26.55,8.42-8.24-1.88-6-5.91-5.56-9.57C513.93,404,508.77,398.62,517.64,396.51Z" transform="translate(-47.23 -157.83)"/><path class="cls-15" d="M397.8,454.86c-0.7,1.51-3.85,3,.07,4.53,0.73,3.5-6.16,3.27-7.75,5.64-13.23,2.76-24.58,9.69-40.49,6.52,1.61-.94,4.52-1.5.07-2.91-6.36-2-13.1-4.25-12.15-9.7a16.18,16.18,0,0,1,6.16-2.33c6.46-.83,13.34-1.55,19.17.38,5.28,1.75,6.37-3.48,10.84-1.61,10.8,5.58,10.8,5.58,19.16-1A7,7,0,0,1,397.8,454.86Z" transform="translate(-47.23 -157.83)"/><path class="cls-16" d="M548.1,283.24l12-23.83c-0.7,8.42-1.58,16.83-2,25.26-0.24,4.63-5.16,11.69-3.55,12.89,5.89,4.38,5.21,9,6.37,13.65,1.82,3.5-1.1,4.53-6.34,4.36-5.19-.92-6.56-3.61-7.59-6.25-1.77-4.52-5.54-8.19-11.8-10.93,4.57-4.18,11.64-7.67,10.64-13.44A5.49,5.49,0,0,1,548.1,283.24Z" transform="translate(-47.23 -157.83)"/><path class="cls-17" d="M55.29,259.23c-0.84-8.88-1.76-17.75-2.48-26.63-0.17-2.13-1.44-4.49,2.07-6.23,6.84-1.18,12.87.48,19,1.92a5.53,5.53,0,0,1,2.38,1.61c1.14,2.76-2.33,4.83-3,7.32-3.49,6.07-.86,12.89-6.38,18.71C63.8,258,60.57,259.92,55.29,259.23Z" transform="translate(-47.23 -157.83)"/><path class="cls-18" d="M257.69,454.86c-3.76,5.17,4.17,8.76,5.07,13.3l-12.62-1.49a8.88,8.88,0,0,1-3.24-2.83c-1.12.75-.94,1.77-1.52,2.64a11.14,11.14,0,0,1-2.6,3.16c-19.65,2.84-16.69-7.67-22-13.28a1.9,1.9,0,0,1,2.54-.06c5-2.4,13,1.62,17.12-2.75C246.9,450.58,252.59,451.34,257.69,454.86Z" transform="translate(-47.23 -157.83)"/><path class="cls-19" d="M262.45,171L290,162.43,320.48,158c0.28,4.45-4.28,8.57-2.5,13.12C299.46,173.74,280.95,174.67,262.45,171Z" transform="translate(-47.23 -157.83)"/><path class="cls-20" d="M540.26,432.45c-8,.1-11.13,5.52-19.67,6.44v-19.8c5.65-4.42,13.79-4.45,22-4.43C543,420.64,544.39,426.67,540.26,432.45Z" transform="translate(-47.23 -157.83)"/><path class="cls-21" d="M520.87,172.83c3.89,1.16,5.56,2.95,3.37,5.34-3,3.24-8.08,3.78-13.71,3.4-8.81-7.26-23.45-9.07-38.41-4.72-7.06,3.65-8.91,1-9.78-2.87,0.65-2.26-1-5.28,5.25-5.72,4.13-1.61,8.32-1.51,13.17-1C494.36,168.58,508.1,169.42,520.87,172.83Z" transform="translate(-47.23 -157.83)"/><path class="cls-22" d="M105.12,466.72L102.56,452a24.46,24.46,0,0,0,10-1.77c5.86-1.48,11.58-3.84,18.11-1,0.57,4.79-.13,9.4-5.63,13.28C118.54,464.14,112.65,466.81,105.12,466.72Z" transform="translate(-47.23 -157.83)"/><path class="cls-23" d="M337.65,459.44c3.61,3.75,8.63,6.55,15.22,8.43,1.65,0.47,4,1.61,2.55,2.79-0.93.74-3.8,0.63-5.79,0.9L302.69,468a11.53,11.53,0,0,1,.13-1.27c7.54-2.93,16.27-4.52,23.62-7.73A12.2,12.2,0,0,1,337.65,459.44Z" transform="translate(-47.23 -157.83)"/><path class="cls-24" d="M130.32,162.47l50-4.45c4.66,0.74,9.88.68,13.63,2.79,2.75,1.55,7.28,3.21,1.39,5.64-12.9,2-26,.31-39,0.86a103.17,103.17,0,0,1-14.82-.61C137.64,165.46,131.51,166.29,130.32,162.47Z" transform="translate(-47.23 -157.83)"/><path class="cls-25" d="M130.32,162.47l9.91,2.57c-2.53,3.87-8.52,3.22-13.65,3.74-17,1.74-34.67,1.89-50,7.64-5.48-.15-8.81-1.67-9.14-5.1C86.51,163.5,109.11,164.74,130.32,162.47Z" transform="translate(-47.23 -157.83)"/><path class="cls-26" d="M380.86,171.25c1.79-3.23-6.35-3-5.69-5.89,14.88-2,29.8-3.8,45.2-3.11,2.75,2.44,7,4.3,8,7.44C412.77,173.12,396.74,171.41,380.86,171.25Z" transform="translate(-47.23 -157.83)"/><path class="cls-16" d="M427.95,169.65c-5-1.55-9.6-3.28-7.58-7.41,14.37,1.22,28.75,2.4,43.09,3.69,2,0.18,4,.77,4.13,2.33-3.43,1.71-1.69,4.2-2.62,6.28-4.76,1.95-8.4-.68-12.6-1.07C444.26,172.13,435.2,172.91,427.95,169.65Z" transform="translate(-47.23 -157.83)"/><path class="cls-27" d="M50.39,205.57A40,40,0,0,1,57.21,183c2.54-1.12,4.94-2.57,8.55-1.39l1.13,1A6.23,6.23,0,0,1,68,184.9c0.44,5.72,1,11.44-.3,17.15A6.34,6.34,0,0,1,66,204.36C61.21,206.78,56.21,208.08,50.39,205.57Z" transform="translate(-47.23 -157.83)"/><path class="cls-28" d="M125,462.51c1.46-4.1,1.48-8.42,5.17-12.19a1.7,1.7,0,0,1,2.39.08c6.34,7.69,17.93,8,30,7.66a2.39,2.39,0,0,1-.91.46c-12.08-.49-18.13,3.29-20,10Z" transform="translate(-47.23 -157.83)"/><path class="cls-6" d="M560.73,326.67c-0.61,5.42,1.34,11-2.55,16.22-6.92.62-9-2.76-12.17-5.25-2.14-5.47-2.38-10.94.16-16.41a6.48,6.48,0,0,1,3.19-1.82C561.8,319,562,319.14,560.73,326.67Z" transform="translate(-47.23 -157.83)"/><path class="cls-29" d="M50.39,205.57l14.5-1.48c8.29,5,10.93,11.21,10.7,18-7,2.23-11.8.65-15.29-3.16C57.08,214.47,48.86,211.31,50.39,205.57Z" transform="translate(-47.23 -157.83)"/><path class="cls-30" d="M548.05,338.45c5.38-.15,5.59,3.9,10.13,4.45l-0.53,13.4a19.18,19.18,0,0,1-14.21,2.2,4.43,4.43,0,0,1-2.31-1.88C542,350.37,540.21,343.75,548.05,338.45Z" transform="translate(-47.23 -157.83)"/><path class="cls-31" d="M65.37,386.47c-3.37-1-6.68,2.41-10.06,0,4.06-1.72,10.53-2.4,1.07-6-8.92-3.38-4.54-8.32,1.56-12.17,3.64-1.66,5.33-.37,6.61,1.55,2.3,5.35-4.28,13.12,11.66,15.63Z" transform="translate(-47.23 -157.83)"/><path class="cls-32" d="M67.48,305.55l-7.39,10.37c-1.68,4.52-6.7,4.31-12.41,3.13,3.92-3.69,8.94-7.21,5.25-12.08,2.47-2.58,2.57-5.69,5-8.24,1.9-2,2.92-5,8.79-3.41C72.22,298.6,69.93,302.07,67.48,305.55Z" transform="translate(-47.23 -157.83)"/><path class="cls-33" d="M197.78,165c-4.39-3.59-11.36-4.89-17.43-7,14.22-.84,28.15,1.36,42.28,1.42-3.33,2.64-6.35,5.51-12.68,5.81A12.21,12.21,0,0,1,197.78,165Z" transform="translate(-47.23 -157.83)"/><path class="cls-34" d="M64.86,295.05c-6.23,3.17-4,9.36-11.94,11.92,0.49-8.44-.39-17,4.54-25.11,3.29,2.14,6.94,4.11,9.47,6.65C68,290.89,68.36,293.19,64.86,295.05Z" transform="translate(-47.23 -157.83)"/><path class="cls-35" d="M47.67,319c4.38-.7,9.09-0.92,12.41-3.13,5.25,3.93,11.45,7.42,15.27,12-3.57,2.53-8.53,1.08-12.8,1.59-2.81-.26-5.7-0.48-4.93-2.9,3.75-.53,6.88-0.94,1.22-3C55,322.16,48.2,323.32,47.67,319Z" transform="translate(-47.23 -157.83)"/><path class="cls-36" d="M57.63,326.61l4.93,2.9c6.3,9.56-6.41,7.9-14.68,8.85C48.27,333.6,42.9,327.14,57.63,326.61Z" transform="translate(-47.23 -157.83)"/><path class="cls-37" d="M543.3,357.71l14.35-1.42c0.16,4.66,7.56,8.73,3.15,13.76l-3.26-1.91c-5.74,1-12.8,4.18-11.31-3.7C546.5,363,545.12,359.85,543.3,357.71Z" transform="translate(-47.23 -157.83)"/><path class="cls-38" d="M542.55,414.65c-6.4,3.11-15,2.27-22,4.43L518,417.53a0.9,0.9,0,0,1-.8-0.81q0.08-.5.31-0.5c6.44-4.76,15.48-6.51,25-7.66Q542.56,411.61,542.55,414.65Z" transform="translate(-47.23 -157.83)"/><path class="cls-39" d="M64.53,369.9l-6.61-1.55c-1.89-4.87-9.6-8.18-10.1-13.42,6.33,2.36,14.61,2.78,19.13,7,1.76,1.64,2.26,3.11.48,4.77Z" transform="translate(-47.23 -157.83)"/><path class="cls-40" d="M60.3,219c4.68,1.32,8.92,3.41,14.61,2.92a4.11,4.11,0,0,1,2.75,4.31,4.32,4.32,0,0,1-2.52,3.18,97,97,0,0,1-20.26-3Z" transform="translate(-47.23 -157.83)"/><path class="cls-41" d="M560.73,326.67c0.79-5.74-4.7-6.85-12.68-6.11-1.19-2.84-1.68-5.48,5-6,4.12,0.15,7.45-.36,7.9-3.32C564.71,316.38,563.15,321.53,560.73,326.67Z" transform="translate(-47.23 -157.83)"/><path class="cls-42" d="M67.5,171.32l7.86,4.32a1.72,1.72,0,0,1,.4,2.09c-2.68,2.17-3.91,5.77-10.72,3.86l0.07,0c-3.91-1.35-3.87-3.82-4.8-6C60.72,173,62.93,171.47,67.5,171.32Z" transform="translate(-47.23 -157.83)"/><path class="cls-39" d="M64.6,287.83c-6.1-.41-7.17-3-7.14-6,1.92-1,3.77-2,6.59-1.86,1.82-1,3.39-2.26,6.06-2.58,5.17-.29,12.08,0,11.7,3.35-0.41,3.69-7.56,2.41-12.29,2.29a1.27,1.27,0,0,0-.89.43,1.16,1.16,0,0,0,.28.75C68.93,286.09,67.7,287.37,64.6,287.83Z" transform="translate(-47.23 -157.83)"/><path class="cls-43" d="M55.29,259.23c3.27-.86,5.35-3.07,9.46-3,6.32,5.32,1.51,8.85-5.42,12.05a5.9,5.9,0,0,1-3.79-.08Z" transform="translate(-47.23 -157.83)"/><path class="cls-44" d="M223.28,456.29l-2.54.06a2.27,2.27,0,0,1-.82-1.33c-3.63-4.88-7.4-9.75-1.52-16.76C220.82,445.19,223.23,450.59,223.28,456.29Z" transform="translate(-47.23 -157.83)"/><path class="cls-45" d="M55.54,268.22l2,0c8,1.87,11.58,5.59,12.38,10.48L64,280C60.28,276.31,52.1,273.76,55.54,268.22Z" transform="translate(-47.23 -157.83)"/><path class="cls-46" d="M242.77,469.63l1.28-10c5.64,1.77,6,4.37,6.09,7C247.76,467.73,246.34,469.63,242.77,469.63Z" transform="translate(-47.23 -157.83)"/><path class="cls-47" d="M390.13,465c-0.15-3.21,5.37-3.66,7.75-5.64,4.25-.23,7.7-0.08,4.47,3.3Z" transform="translate(-47.23 -157.83)"/><path class="cls-48" d="M60.31,175.62c2.66,1.7,4.49,3.64,4.79,6L57.21,183A9.12,9.12,0,0,1,60.31,175.62Z" transform="translate(-47.23 -157.83)"/><path class="cls-1" d="M189.91,469.57c8.24-2.12,16.87-1.11,25.37-1.15C207.1,471,198.43,469.68,189.91,469.57Z" transform="translate(-47.23 -157.83)"/><path class="cls-49" d="M553,314.53c-3.56,1.45-2.78,4.18-5,6l-0.08-.05c-5.92,2.23-11.17.06-16.46-1-10.13-2.07-20.49-3-33.63-3.23,13.91,4.26,25.92,7.46,36,12.74,13,6.79,15.26,11.2,5,19.66-6.06,5-3.43,7.07,4,9.2l0.37-.13c1.74,1.52,3.27,2.92,3.56,5,0.5,3.53,2.61,6.8,10.68,5.43-11.9,4.83-22.25,10.56-29.6,18-3.26,1.76-8.5,1.19-10.26,5.26-2.08,4.81-11.2,6.12-19.2,6.78a140.08,140.08,0,0,1-22.36-.25c7.78,4.38,15.13,2.38,22.29,1.3,14.71-2.23,16.63-1.21,14.73,7.9,1.52,3-4.26,7.27,4.41,9q0.23,0.66.48,1.31c-0.29,1.62-1.94,2.31-4.33,3.12-9.78,3.3-14.18,10.9-10.49,16.91a4.48,4.48,0,0,0,4.21,2.23c15.88,0,10.52,4.59,5.49,9.09,2.85,2.56,1,4.37-2.64,5.89-12.64,4-26.49,2.87-40,3.27l-7.33-.28c-12.65-1-25.32-2.12-38-2.67-14.31-.63-21.53-5.07-26.21-12.41-4.26-6.68-3.06-13.64-3.6-19,2.44,9.29-7.74,20.47,2.42,31.06l0.2,0.11-4.88.06c-5.26,3.21-11,4.3-17.72,1.51-10.53,2.58-21.63.94-32.42,1.55a162.17,162.17,0,0,1-65.21-6l-4.84-.08c-11.69-3.22-18.3-10.72-14-18.33,3.84-6.81,6.59-13.85,11.41-20.46,1.81-10.92,9.55-20.89,14.43-31.31,6.85-14.62,7.83-13.77-11-22.17s-40-14-58.71-22.25c-8.28-3.64-11.07-10.16-21.48-12.82-29.53-7.53-58.28-16.16-88.89-22.19-6.08-1.2-11.38-3.81-17-5.77-8.36-1.83-14-5.2-16.37-10.38,1.23-2.88,4.62-3.68,9.29-3.91,23.94-1.18,47.69-4,72-1.5,8.88,0.9,17.55,1.9,24.12,5.42,10.87,5.82,25.08,7.46,38.77,12.75-3.56-6.88-5.67-12.63-8.38-18.29-1.31-2.75-4.14-6.79,2-7.72,4.76-.72,5.59,3.58,7.18,6.05,0.42,0.66.65,1.43,4.26,2-6.72-11.41,7-16.13,20.2-20.45-2.08-1.52-2.8-1.65-3.69-1.55-4.21.47-7.37,5.09-11.53,2.48s0-6.12,3-8.74c5.44-4.67,10.25-9.68,18.3-13.09,5.63-2.39,6.1-5.27,3.22-9.11-4.07-5.42-8.87-10.66-11.37-16.51-3.65-8.57-8.62-16.11-25.08-19.59-10.43-2.21-17-8.58-23.69-14s-14.37-10.22-26.66-11.25c-3.3-.28-7.71-0.78-7.88-3.83l42.56-.43L210,165.26c4.47,2.49,11.27.28,15.74,2.77-3.16,3.19-7.85,6.56,1.16,9.06,2.71,0.75,4.48,3.95,8.12,2.12,4.84-2.44-2.71-2.69-3-4.45-0.41-2.18-2.09-4.32.72-6.35L262.45,171c16.14-.73,32.43,1,48.54-1,2.1-.27,4.65.71,7,1.11,14.49,2.91,29.15,1.7,43.78.6,6.72-.5,13.81-1.74,15.07,4.4,3.7-1.38,3.15-3.31,4-4.87,15.52-2.46,31.39-1.17,47.09-1.6l27.34,1.83c7.29,5.48,8.94,11.45,4.6,18a5.06,5.06,0,0,0-1,3.66c3.37,16.76-16.13,24.84-35.28,32.92-8.12,3.43-17,6.14-24.33,10.31-12.44,7-21.95,14.34-12.73,25.15q-9.41,12.09,13,12.76c5.73,2.8,4.83,7.81,10.31,11.32,7.86-6.1,15.77-11.75,24.24-17.11,7.28-4.6,15.91-6.84,26.63-6.72,15.37,0.16,30.78-.25,46.13.13,12.46,0.31,22.25-1.3,26.66-9.06,0.71-1.24,2.78-1.79,4.51-2.46,3-.51,4.68-3.48,8.32-2.11,1.38,0.52,1.41,2.65,1.44,4,0.21,10.31.26,20.62,0.36,30.92q-0.14.66-.32,1.32c-7.47,2.91-15.57,5.39-19.58,10.62,2.12,0.81,5.54,1.13,7.4,2.87,8.35,0,11.08,3.22,12.72,7.39A98.35,98.35,0,0,0,553,314.53Z" transform="translate(-47.23 -157.83)"/><path class="cls-50" d="M270.13,413.15c0.29,6-1.44,11.58-6.24,17.08-7.36,8.44-1.83,15.58,8.84,21.71-4.36,2.17-10.14,1.73-15,2.92-5.69-.77-11.25-2.17-17.29-1.32,0.43-1.48-1.82-3.58,3.22-3.92,2.81-.19,4.94-2.09,2.07-3-5-1.61-8.78-3.71-7.58-6.84,1.7-4.43,3.24-9.87,8.29-12.64C254.62,422.62,260.37,416.64,270.13,413.15Z" transform="translate(-47.23 -157.83)"/><path class="cls-50" d="M132.62,450.39q-1.2,0-2.4-.08c-5.87-1.92-11.79,1.2-17.66-.06,6.38-6.89,7.76-13.86,1.37-21.1-1.84-2.08-1.92-4.15,3.84-3.29,11.34,1.69,17.38,7.27,24.06,12.21,2,1.48-.42,3.25-2.53,4.55C135.77,444.82,133.08,447.27,132.62,450.39Z" transform="translate(-47.23 -157.83)"/><path class="cls-50" d="M72.54,286.16l14.94,10.49a7.07,7.07,0,0,1,0,1.49c-0.66,3.67,6.31,8.15,1,10.54-5.11,2.31-9.14-2.89-13.94-4.44-4.29-1.38-4.85.86-7.14,1.31,0-3.57,1.14-7.25-2.62-10.5q-0.13-3.61-.26-7.22l2.84-4.57C72.21,282.31,71.85,284.57,72.54,286.16Z" transform="translate(-47.23 -157.83)"/><path class="cls-3" d="M75.06,366.8c2.41-4.86,5-8.81,15.7-4.78,4.13,1.56,10.46-.69,15.39,1.29-9.18,5.32-15.37,6-31.11,3.47Z" transform="translate(-47.23 -157.83)"/><path class="cls-51" d="M87.63,333.9c-1.75-3-7.21-3.72-10.45-5.82,10-.82,15.76,5.4,25.58,5.41,4.14,0,8.27,1.81,12.69,2.87C105.19,338.6,97,333.82,87.63,333.9Z" transform="translate(-47.23 -157.83)"/><path class="cls-52" d="M126.2,349c-5-3.14-4-6.37-1.49-11.11C129.06,342.38,127,345.79,126.2,349Z" transform="translate(-47.23 -157.83)"/><path class="cls-53" d="M538,250.38c-7.83,13-8.64,13.38-32,13.38-15.38,0-30.77.25-46.13-.08-9.56-.2-17,1.6-23,5.91-8.09,5.86-18.51,10.63-23.66,17.88-0.77,1.08-.75,2.66-3.58,2.51a4.58,4.58,0,0,1-4-2.5q-3.89-6.65-7.81-13.29c-6.74.7-12.84-.41-14.79-2.7-1.78-2.09-.14-5.22.67-6.76,0.92-1.75,1.34-1.47,1.62-2.41,1.2-4.07-7.64-6.28-7.29-10.91a4.72,4.72,0,0,1,1.39-2.8c7.26-8,17.46-14.39,29.88-19.56,8.79-3.66,18-7.06,26.93-10.49,24-9.17,16.92-24.63,23.53-37.24,1.72-3.27-5.3-6.14-4.45-9.84,3,1.31,5.47,3.16,9.69,3.07l1.27,3.19,3.89-2.35c8.25,2.45,10.26,6.52,11.85,11.86,4.53,15.21,8.28,30.67,20.78,44.61a1.68,1.68,0,0,1,.09,2.13c-3.75.14-4.49,1.39-1.58,2.53C513.38,241.26,525.72,245.78,538,250.38Z" transform="translate(-47.23 -157.83)"/><path class="cls-49" d="M502.86,234c-8.24-3.16-8.56-8.61-11.3-13.45-6.72-11.89-11.67-24-13-36.53-0.41-4-8.38-4.82-8.47-8.62,8.56-5.67,18.85-1.71,28.43-1.87s13.46,2.47,12,8.05c0.75,7.55,7.6,13.94,11.26,20.94,1.12,2.14,3.06,3.16,7.4,1.64,4.14-1.45,9.1-2.08,13.7-3.06,0.09,7.89.13,15.77,0.31,23.66,0.07,3,.17,6-5.16,7.69C529.59,238.11,512.88,238.84,502.86,234Z" transform="translate(-47.23 -157.83)"/><path class="cls-6" d="M510.26,454.78l2.64-5.89c6.93,2.56,11.69,6.48,17.33,9.84,1.65,1,3.64,2.17.23,3.36C523.82,459.55,515.23,458.95,510.26,454.78Z" transform="translate(-47.23 -157.83)"/><path class="cls-54" d="M397.6,454.76c-9.24-5.37-12.08-11.6-7-18.85,4.15-5.93,1-12.28,2.92-18.81,6.67,6.88,3.39,14.36,6.47,21.22,3.9,8.68,10.06,14.31,26.81,15.5,12,0.85,24.57,1.19,36.15,4C441,458.18,419.25,456.8,397.6,454.76Z" transform="translate(-47.23 -157.83)"/><path class="cls-55" d="M513.13,407.19c1.19-7-3.15-8.51-14.33-6.14-17.67,3.75-20.95,2.75-30.71-7.05a86.61,86.61,0,0,0,36.44,1.62c5.17-.84,11-2.48,11.49-5,1-5.36,6.49-4.41,11.92-4.41l-10.29,10.32C512.56,399.53,518.19,404.17,513.13,407.19Z" transform="translate(-47.23 -157.83)"/><path class="cls-56" d="M232.66,168.41c2,2.64-.64,7.21,8.77,6.79,1.64-.07,1,2.65-0.79,3.77-2.8,1.7-8.87,4.69-9.2,3.8-1.75-4.66-11.8-3.19-13.28-7.15-1.41-3.77-.47-7,7.55-7.59Z" transform="translate(-47.23 -157.83)"/><path class="cls-57" d="M277.57,452c21.74,2,42.79,6.63,65.21,6l-5.13,1.45a25.34,25.34,0,0,0-13.51,2.61c-6,3-12.83,5.4-21.33,4.73C295.93,460.93,286.08,456.88,277.57,452Z" transform="translate(-47.23 -157.83)"/><path class="cls-47" d="M375.2,456.44c6.12,0.39,11.9-.64,17.72-1.51,0,3.81-2.26,6.84-9.13,7.28C377.13,462.64,376.51,459.21,375.2,456.44Z" transform="translate(-47.23 -157.83)"/><path class="cls-3" d="M535.59,298l-11.33-1.89c5.64-5.9,10.06-11.87,23.52-11.59C549,290.77,549,296.58,535.59,298Z" transform="translate(-47.23 -157.83)"/><path class="cls-56" d="M72.54,286.16l-5.1-2.91c-0.39-.08-0.77-0.18-1.16-0.24-1.21-.2-1.44-0.87-0.5-0.93,4.83-.29,9.7-0.39,14.92-0.57-2.61-2.86-6.75-2.75-10.79-2.8L57.53,268.24c5.2-3.4,9.58-7,7.23-12l5.82-20.52c8.81-.81,11.13,5.74,19,5.55-6.26-3.08-13.26-6.28-14.24-11.94l-0.24,0,0.15-2.82a2,2,0,0,1,.61-0.64c12-5.25,11.85-5.17,2.71-12.82-4.32-3.62-10.63-6.34-13.33-10.66l0.07-19.08c8.58-2.35,6.92,5.14,13.73,4.81-1.51-3.6-8.45-6.65-4-11l0.3-1.52c14.59-8.56,34.26-6.62,51.89-8.81,4.36-.54,9-0.2,13-1.78l15,0.41c20,2.2,33,9.7,44.42,19.27a43.85,43.85,0,0,0,25.84,10.86c7.11,0.63,9.26,5.59,11.3,9.25,5.34,9.57,10.47,19.14,18.65,28.06,4.83,5.26-4.16,6.94-8.54,9.22-9.92,5.14-16.19,11.5-22,18.9,6.32,0,6.72-3.2,9.83-4.4,2.14-.83,4.36-1.51,6.76-0.19,2.23,1.23,5,3.72,3.08,4.3-5.66,1.71-6.32,7.74-13.62,6.73-9.93-1.38-9,2.36-7.94,5.32,1.3,3.56.38,6.82-.71,10.18-0.41,1.27-1.66,2.41-4,2.52-2.8.13-2.66-1.5-3.62-2.52-2.61-2.78-1.19-6.47-7.47-8.56l13.64,29.49c-12.95-6.17-27.26-7.08-36.4-11.95-20.64-11-44.65-11-69-9.73-9.94.52-19.84,0.86-29.76,0.9C80.41,283.11,75.92,283.55,72.54,286.16Z" transform="translate(-47.23 -157.83)"/><path class="cls-54" d="M75.38,229.34c4.86,5.74,14.81,9,21,14.43-12.53,1-17.9-4.93-25.84-8Z" transform="translate(-47.23 -157.83)"/><path class="cls-54" d="M65.28,202.43c8.41,3.85,14.73,8.85,21.32,13.71,2.67,2,7.09,3.18,4.17,6.78-2.57,3.16-5.89,2.45-10,2.21-1.73-.1-3.64.92-5.47,1.44q-0.19-2.34-.38-4.68l-10-17.78Z" transform="translate(-47.23 -157.83)"/><path class="cls-3" d="M75.05,177.16c0.16,5.22,8.08,8.6,9.85,13.48C73,192.73,72,185.48,65.34,183.34L65,181.59C70.43,181.76,70.69,177.81,75.05,177.16Z" transform="translate(-47.23 -157.83)"/><path class="cls-58" d="M542.93,357.85c-16.56-1.08-16.56-1.08-7.66-8.75,12.06-10.38,8.35-16.19-16-24.38-8.9-3-18.14-5.62-29.84-9.21,22.77-2.9,40.41,2.14,58.58,5q0,9,.07,17.94Z" transform="translate(-47.23 -157.83)"/><path class="cls-53" d="M411.38,390.18c-6.29,0-12.94-.91-17.73-3.85-17.24-10.56-38.72-15.7-62.56-18-0.41,0-.85,0-1.24-0.08-5.06-.89-12.72-1.5-12.61-4.62,0.1-2.79,7.53-3.56,12.71-4.66,15-3.21,29.54-7.14,45.07-9.61,8.5-1.35,11-6.17,13.21-10.85,0.92-2,2.3-5.34,6.92-4,5,1.42-.37,3.31-1.77,4.68-3.41,3.37-4.78,7.41-3.5,10.68,1.22,3.12.93,5.15-2.21,7.33-2.4,1.67-2,3.11.53,4.54,1.57,0.91,3.73,1.95,5.27.7,17.07-13.76,38.65-5.14,58.28-3.88,11.21,0.72,21.52,4.53,33.64,4,6.56-.31,9.35,2.22,3.85,5.68C468.14,381.44,444.71,391.87,411.38,390.18Z" transform="translate(-47.23 -157.83)"/></svg>