<svg id="Слой_1" data-name="Слой 1" xmlns="http://www.w3.org/2000/svg" viewBox="0 0 624.73 150.79"><defs><style>.cls-1{fill:#e8c999;}.cls-2{fill:#eaca9a;}.cls-3{fill:#e6c794;}.cls-4{fill:#e6c795;}.cls-5{fill:#775e3f;}.cls-6{fill:#7c5e3f;}.cls-7{fill:#806240;}.cls-8{fill:#dac7ab;}.cls-9{fill:#d2ae79;}.cls-10{fill:#7d5e3f;}.cls-11{fill:#e4cbb2;}.cls-12{fill:#919090;}.cls-13{fill:#e2cdab;}.cls-14{fill:#919191;}.cls-15{fill:#dac29e;}.cls-16{fill:#dfcbaf;}.cls-17{fill:#dfcbad;}.cls-18{fill:#7a6342;}.cls-19{fill:#e1cfaf;}.cls-20{fill:#92918d;}.cls-21{fill:#d8d8d8;}.cls-22{fill:#93928d;}.cls-23{fill:#f4e4c4;}.cls-24{fill:#6b593b;}.cls-25{fill:#e2c28f;}.cls-26{fill:#caab77;}.cls-27{fill:#d4b584;}.cls-28{fill:#d5b77f;}.cls-29{fill:#d9b687;}.cls-30{fill:#d4b581;}.cls-31{fill:#eacdc0;}.cls-32{fill:#d2b381;}.cls-33{fill:#d5b981;}.cls-34{fill:#d8ba7c;}.cls-35{fill:#e2c08e;}.cls-36{fill:#dbb986;}.cls-37{fill:#ceab79;}.cls-38{fill:#ceac79;}.cls-39{fill:#d0b07d;}.cls-40{fill:#d2b17c;}.cls-41{fill:#ddbb89;}.cls-42{fill:#d5b582;}.cls-43{fill:#d8b785;}.cls-44{fill:#d6b786;}.cls-45{fill:#d7b482;}.cls-46{fill:#d6b481;}.cls-47{fill:#e4d1c1;}.cls-48{fill:#9d7b4b;}.cls-49{fill:#c9ab79;}.cls-50{fill:#cfb286;}.cls-51{fill:#ebca99;}.cls-52{fill:#e9ca99;}.cls-53{fill:#d5b37e;}.cls-54{fill:#d2b586;}.cls-55{fill:#d1b27d;}.cls-56{fill:#d6b784;}.cls-57{fill:#debf8b;}.cls-58{fill:#e2c18f;}.cls-59{fill:#ca7;}.cls-60{fill:#d9b684;}.cls-61{fill:#ccaa74;}.cls-62{fill:#d7c08d;}.cls-63{fill:#dcba86;}.cls-64{fill:#d1b17f;}.cls-65{fill:#d5b280;}.cls-66{fill:#cfad7a;}.cls-67{fill:#d4b27f;}.cls-68{fill:#d5b681;}.cls-69{fill:#ccae7a;}</style></defs><title>signBG</title><path class="cls-1" d="M921.88,285.68l0.06-11.94c12.74-1.12,15.69-5.77,23.2-8.79a78.5,78.5,0,0,1,13.36-.65c52.35,0.43,104.4-2,156.73-2.25,38.66-.22,77.39-1.16,116.06-1.91q81.62-1.59,163.26-3c38.66-.74,77.37-1.33,116-2.38,6.4,0.32,11.11,1.59,11.13,4,0,3,2.63,4.12,10.91,3.56a8.86,8.86,0,0,1,6.71,2c0.32,2.4,1.71,4.82-1.14,7.15-10.61.79-20.51-1-31.47-1.26,11.06,1.24,23,.29,32.27,3.11,2.14,8.63,0,17.3,1.9,25.94,1,4.5-3.87,6.11-16.53,5.74-52.58-1.53-105.39-1.12-158-2.73-24.23-.74-48.77.46-72.87-1.36-18.75-1.22-36.31-4.2-55.27-5.15-31.26-.51-62.13-2.76-93.49-2.71-1.81,0-3.62,0-5.39-.15-4-.34-8.36-0.75-8.72-2.58-0.31-1.6,3.75-2.19,6.84-2.76a425.66,425.66,0,0,1,49.61-6.31c14.28-.94,28.63-0.8,43-0.57q32.31,1.39,64.72,2.57c-21.49-.73-42.89-1.77-64.36-2.58-5.39-.27-11.65.68-17.2-1.78,14.94-2,29.25-2,41.63-2.21-4.4-.23-10.62.1-16.87,0.41-2.88.14-5.66-.26-5.41-1.57,0.17-.91,2.08-1.38,3.28-1.3-7.41.41-16.27,0.77-25.24,1-0.07.22,0.65-.05,1.55,0,6.07,0.54,15.73-2.26,17.55,1,1.2,2.12-9.46,1.3-14.57,2-26.42,3.84-55.49,4.25-81.63,8.33-21.91,3.42-46.64,4.1-66.43,9.57-4.78,1.32-11.35.82-17.19,0.84-9,0-18,0-27.08.1-26.2-.4-52.61,1.08-78.54-1.24-1.2-.48-0.65.38-1.06-0.21C940.06,291.17,931.54,288.27,921.88,285.68Z" transform="translate(-918.77 -191.81)"/><path class="cls-2" d="M924.25,321.64l0.4-7.85c2.13-.82,4.74-0.69,7.37-0.52,8.86,7.2,26.33,10.64,42.2,13.54-8.14-1-16.73-3.49-25.33-5.73-6.45-1.68-15.11-4-9.64-8a56.72,56.72,0,0,1,17.72.09,20.51,20.51,0,0,1,8,3.13c-1.25-1.38-4.23-2.07-6.66-2.94-2.88-1-2.4-1.81,1.24-2.37,19,0.24,38,.28,57,0.33,9.63,0,19.25.06,28.87,0,6.75,0.06,13.77-.4,19.67,1.34-0.47,3-7.95,1.57-11.69,2.52-2.39.6-6.62,0.74-3.61,2.38,1,0.56,3,.65,4.6.93-0.72-.5-2.68-0.47-3.21-1.1-1.35-1.59,1.5-2.16,4.66-2.34,6.57-.38,12.59-1.61,19.38-1.63,11.61-.21,23-1,34.4-1.72a439.55,439.55,0,0,0,47.16-4.12c41-6.21,84.38-6.25,127.71-6.22,7.09,0,14.2-.14,21.21.42,5.23,1.54,16.88,0,16,4.48-18.06,1.25-36.38-.06-54.47.71a586,586,0,0,0-61.52,4.95c-23.53,3.32-48.57,2.9-72.88,4.26-5.4.3-10.65,0.36-15.26,1.95,3,1.47,7.18,2,11.87,2.22-3.71-.24-7.63-0.55-7-2.33,0.46-1.4,3.84-1.63,7.17-1.73,12.5-.39,24.91-1.15,37.46-1.32,26.42-.37,49.94-5.19,75.67-6.7,11.1-.65,22.19-1.15,33.38-1.5,15.28,0,30.54,0,45.79,0,7.2-.53,14.13.13,21,0.74,2.85,0.25,6.86.43,6.59,1.91-0.23,1.28-3.84,1.67-6.71,2.05-9.52,1.26-19.42-.26-29,0.49-9.34.41-18.8,0.52-28,1.5,11.23-1.16,22.79-1.14,34.23-1.66,14.76,0.94,29.36-1,44-.33,7.17,0.32,18.75,0,18.53,3.26-0.25,3.52-11.42,1.58-17.78,2-3.47.23-7.14,0-10.72,0-8.68-.3-16.9.68-25.1,1.43-14.23,1.29-28.44,2.51-43.4,2,23,1.09,43.85-2.8,66.11-3.4,17.92-.16,35.78.17,53.67-1.39,8.06-.7,17.21.71,25.57-1.21,3.08-.71,7.5.14,8.89,1.51,2.27,2.23.16,4.2-4.59,5.78a26,26,0,0,1-6.46.55c-29.54-2.35-58.44,1.85-87.81,1.12a11.12,11.12,0,0,0-1.31,0c-2.66,0-5.36-.1-8.47,0,16.85,6,38.34,7.79,55.44,9.4-7.3-.42-18.32-1.87-29.19-3.39-3.18-.45-9.28-0.63-8-2.69s6.83-1.88,11.19-1.67c11.58,0.55,23,1.44,34.64,2,32,4.1,65.72,4.61,98.79,6.45,6,0.33,12.56.72,18.14-.85a17.37,17.37,0,0,1,5.26-.9c3.94,1.45,5.49,4.58,14.18,2.74,5.47,0.48,6.84,1.95,6.8,3.77-0.62,3.07-7.09,3.2-12.82,3.17-33.24-.18-66.48.58-99.73-0.53-25.53-.85-51.23-0.16-76.85-0.31-11.68-.07-23.38.26-35-0.3-30.65-3.81-60.8-8.14-83.45-12.63,12.75,1.43,29.34,5.93,48.54,8.2,5.54,0.65,11.26,1.14,16.62,1.87,6.89,0.93,1.66,1.74-1.35,2.38-21.16,1.08-42.39.47-63.56,0.47-40.61,0-81.23-.29-121.82,0-49.2.35-98.26-1.42-147.45-1a83.33,83.33,0,0,1-13.3-.71c-7.74-2.16-3.85-4.7-1.74-7.18,3.92-2.27,8.75-.91,13-0.29,10.94,1.6,22.21,2.88,33,4.58-17.87-2.86-36.83-4.72-54.15-8.08-4.85-1.53-10.63-2.68-14.46-4.65C923.2,322.47,923.37,322,924.25,321.64Z" transform="translate(-918.77 -191.81)"/><path class="cls-3" d="M919,246.64l0-5.93a8.35,8.35,0,0,1,3.76-.24c21.36,1.65,42.6-.41,63.91-0.43,10.11,0,15,1,16.66,4.47,0.3,2.53-5.09,2.55-9.58,3-5.62-.22-10.42.64-17.47,2,9.67,0.71,16.81,2.47,25,.49,13.1-.11,26.17.61,37.92,0.2-8.36-.08-18.12.32-27.78-0.2-6.89-.37-16.43-0.38-6.95-4.41,0.67-.29-0.36-0.93-1.05-1.37-4-3.68,2.56-4.46,9.9-4.55,21.45-.28,42.6-1.41,63.71-2.7,1.34-.16,2.71-0.27,4.1-0.35a346.62,346.62,0,0,0,37-3.56c8.82-1.15,15.5-3.8,24.57-4.78,4.13,0,8.31-.25,12.37.25,3.91,2.46,2.27,5,1.21,7.6-3.23,1.68-8.19,1.51-9.89,1.56,15.77-2,35.05-1.15,54.16-1.31,10.33-.08,20.59,0,30.39,1.41a69.26,69.26,0,0,0,17.1-.11c9.86-.37,19.84-1,28.57,1.49,3.86,2.84-2,3.34-7.13,4-18.12,2.33-36.26,4.61-55.6,4.87a7.51,7.51,0,0,0-1.11.2c-1,.41-0.65.49,0.88,0.41,5.46-.29,10.62.73,16,0.55s11-.9,13.49,1.81c2.13,2.34,3.42,4.58-3.94,6.06,3.69,1.35,13.35-.88,11.93,3-38.35.63-76.62,1.72-115,1.66-8.84.38-16.57-.74-24.37-2.19a163.06,163.06,0,0,0-55.93-.22c3.94,0.63,9.21-.08,12.24,2-3.56,1.87-10.16,1.4-15,2.3-7.37.15-14.74,0.06-22.1,0.08-7.74.08-15.21,0.28-18.23-3.43-1.23-1.51-6.74-1.39-10.62-1.7-11.18-.91-22.31-0.39-33.44.21-9.95-.49-19.7-1.14-26.07-4.46,0.87-1.7,5-1.81,8.24-2,7.64-.35,8.16-2,6.43-4.14-2.4-.43-4.3.09-6.3,0.36-4.14.55-9.55,1.72-12.24,0.1-3.5-2.1,4-2.58,8.51-4.6-8.54,3.07-15.39,5.16-25.37,3.45A19.23,19.23,0,0,1,919,246.64Z" transform="translate(-918.77 -191.81)"/><path class="cls-4" d="M1536.73,336.69c-2.52-.67-3.49-2.14-7.57-2-3.73-1-7.58-1.89-11.07-3l-2.82,1c-14.88,2.26-29.92.55-44.71,0-24.36-.93-48.66-2.21-72-5.2a16.59,16.59,0,0,0-5.17.18c-14.08.35-27.48-2.33-45.24-1.5,19,4,37.21,5.14,54.37,7.58-11.25.87-22.08-.57-31.78-2-13-1.87-28.88-1.76-37.93-6.89-1.74-1-11.36.36-10.4-1.78,1.11-2.45,9.06-1.1,14-1.42,6.43,2.24,13.85.5,20.4,0.36,26.59-.53,53.11-1.46,79.79-1.33-6.47-1.67,7.45-4.41-1.89-5.71-7-1-9.43,2-14.19,3a8.61,8.61,0,0,1-2.43.28c-21.65-3.34-43.79,1.1-65.52-.59q-2.32-1,0-2H1384c-9.95-3.15-18.57-3.2-27-3-13.25.37-26.43,0.71-39.64-.06-1.3-.69-4.13-0.28-5.37-1,6.73-2,14.54-.72,21.83-0.92,5-.14,9.27-0.81,16.06-1.67l-27-1.39c-1.58-.67-1.59-1.33,0-2l-16.29-2.89c17.69-2.13,35.41-1.33,53.14-.09,24.06,6.27,52.08,7.7,80.25,8.37,21.47,0.51,42.88,1.51,64.52,1.31,10-.09,19.33,0,27.05-2.7,3.28-.08,6.3.09,8.35,1.18l0,3.78c-0.7,1.77,1.37,3.55,0,5.33-0.28,4.06,0,8.11-.17,12.16C1539.63,333.73,1540.65,335.44,1536.73,336.69Z" transform="translate(-918.77 -191.81)"/><path class="cls-5" d="M1536.73,336.69c2-6-1.32-12.2,2.69-18.21,3.68,1.54.07,3.56,2.55,5.18-0.46,5-1.35,10-1.23,14.95,0.09,3.43-4.21,4-12.47,4-65-.15-129.92-0.1-194.88-0.2q-192.83-.29-385.67-0.61c-9.07,0-17-.37-22.74-3.23,5.76-3.88,13.37-2.29,20.9-1,117.46,1.07,234.93,1.19,352.42,1,3.67-1,7.38-.55,11.1,0q109.22,0.46,218.45.9C1532.8,339.52,1538.53,339.68,1536.73,336.69Z" transform="translate(-918.77 -191.81)"/><path class="cls-6" d="M1360.81,303.67c-18-1-36.09-1.15-54.23-.87l-21-.23c-11.6-.86-23.34-0.42-35-0.36q-68.22.39-136.3-1.09-66.64-.34-133.19-1.63c-11.24-.22-22.49-0.07-33.7-0.38-8.71-.55-18-0.3-25.5-2.53l0.28-1.62c6-2.17,12.13-1.95,18.44-.22,27.71,1.2,55.56.93,83.37,1,16.11,0.54,32.21,1,48.21-.34a59.07,59.07,0,0,1,8-.27c30,1.7,60.31.44,90.42,1.59,28.21,1.08,56.75,0,85.07,1.25,11.54,0.52,23,1.25,34.61,1.61q108.08,1.76,216.16,3.53c31.54,0.53,31.57.57,31.38-11-0.11-6.48-.36-13-0.55-19.44q-2.57-.43-0.18-1l0-8c-2.54-1.68-6.93-3.26-3.81-5.4,2.11-1.44,5.57-1.39,9-.5,2.32,15.87.65,31.76,0.61,47.63,0,1.81,2.54,4-3,5.46l-8.22-.2c-6.53-1.09-17.14.7-19-3.75-0.47-1.1-2.66,0-4,0-30.65.09-61.22-.74-91.81-1.21-12.6-.19-25.2-0.47-37.82-0.52C1372.62,305.14,1366.32,305.09,1360.81,303.67Z" transform="translate(-918.77 -191.81)"/><path class="cls-7" d="M1030.4,262.77l24.11-.25c17.94-1.08,35.5-3,54.12-2.45,8.32,0.23,16.37,2.1,25,.73,39.85-.17,79.62-1,119.37-2,2.79-1.29,6.85-1.58,10.8-1.51,19.57,0.35,38.85-1.31,58.38-1.11,13.72,0,27.49.65,41.11-.51,7.13-.51,14.35-0.44,21.56-0.45,17.59,0.2,35-.82,52.54-1.16s34.68-.73,49.22.18c4.61-.1,2.86-1.15,3.36-0.51,0.12,0.15-.2.2-0.9,0.25-7.21.54-14.19-.4-21.31-0.51-3.82-.06-9-0.54-8.77-2.35,0.19-1.6,5.22-1.61,8.63-1.72,15.28-.48,30.3-1.68,45.59-2.14,18.66-.57,19.42-1,20-7.76,0.26-2.79-1.29-5.67,2.26-8.35a5,5,0,0,1,3.85-.26c6.91,6.75,2.75,13.72,2.84,20.6-8,2-17.19,2.46-26.49,2.79a0.61,0.61,0,0,0-.48.42,1.25,1.25,0,0,0,.43.47s-0.9.39-.9,0.39c-22.07,2.4-44.9,1.28-67.34,1.83-45.46,1.12-91,1.6-136.54,2.41q-158.24,2.83-316.46,5.75c-17.07.32-34.27-.3-51.2,1a40,40,0,0,1-21.48.09c-0.11-.88-0.45-1.79,2.57-2.16,25.55-1.64,51.27-2.36,77.22-2.4C1011.25,262.06,1020.49,264.31,1030.4,262.77Z" transform="translate(-918.77 -191.81)"/><path class="cls-8" d="M921.62,240.7l-2.64,0c-0.86-12.87-.86-12.88,33.83-13q29.55-.08,59.1,0c5.4,0,10.73,0,15.62-1,3.61,1,7.55-1.17,11.14.15a29.07,29.07,0,0,0,4.73.76c48.55-.13,97.09,0,145.65-0.46,64.3-.61,128.67-0.29,193-0.32a46.69,46.69,0,0,1,6.18.8l-1.45.6c-11.47,1.92-24,1.66-36.07,2.52a60.63,60.63,0,0,1-10.41-1c-14.16-.58-28,0.45-42,1-5.56.26-10.63-.65-16-0.89-36.51.75-73,.27-109.54,0.38-6.26,0-12.74.18-18-1.51l-13.58,0a73.94,73.94,0,0,1-24.16,2.15c-22.83-1.72-45.52-.32-68.25.22a105.87,105.87,0,0,1-15.92-.31c-23.28.89-46.65-1.07-69.89,0.33a57.19,57.19,0,0,1-9.28.27c-6.81-.69-10.87,0-13.17,2.66C937.67,237.42,925.66,237.57,921.62,240.7Z" transform="translate(-918.77 -191.81)"/><path class="cls-9" d="M1030.4,262.77a36.42,36.42,0,0,1-5,.61c-33.78-.46-67.33,1.91-101.12,1.1,7.24-1.11,14.42-2.27,21.74-3.3,3.54-.5,5.22-1.1,2.95-2.45,5.57-1.7,12.78.84,18.31-1,15.35-2.07,30.71-.83,46.08,0,2.9,0.15,6.06.51,5.19,1.68C1014.93,264.28,1025.89,261.94,1030.4,262.77Z" transform="translate(-918.77 -191.81)"/><path class="cls-10" d="M1016.48,312.54c-19.91.34-39.82,0.76-59.59-.65a54.54,54.54,0,0,1-24.2-1.22l-8.18-4.09q-1.43-.89.95-1.43c15.33-1,30.25.48,45.2,1.21,17.73,0.86,35.74,1.37,52.76,3.69C1028,313.48,1018,311.42,1016.48,312.54Z" transform="translate(-918.77 -191.81)"/><path class="cls-11" d="M1539.34,230.88l-0.76,0-0.75-.07c-6,1-2.79,2.75-2.58,4.27,0.33,2.49-3.36,4.11-9.26,4.86-6.07.77-8.84-.86-11-2.62a6.31,6.31,0,0,1-2.13-3.36c-1.25-4.38-10.12-4-18.34-3.94-30.71.16-61.4,0-92.06,0.61-6.23.13-13.07,0.24-14.73-2.94l0.48-.13c9.65-.32,19.52.73,29-0.66,3.45-1.55,7.47.71,11-.22,11.74,1.72,24,.72,36,0.9,21,0.32,42.09.22,63.09,0.64C1531.51,228.34,1539.34,227.61,1539.34,230.88Z" transform="translate(-918.77 -191.81)"/><path class="cls-12" d="M1070.5,219.47q72.39-13.15,144.8-26.3a7.91,7.91,0,0,1,4.71.48c1.36,1.88-4.16,1.19-5.59,2l-143.57,25.16Q1069,220.21,1070.5,219.47Z" transform="translate(-918.77 -191.81)"/><path class="cls-13" d="M945.89,337.6c-6.86.63-14.34-.55-20.9,1-6.51-5.6-3.72-11.26-.74-16.92l0.37,1.16c2.06,2,7.53,2.51,11.4,3.73,3.62,1.64,13.05.85,12.73,4.14Z" transform="translate(-918.77 -191.81)"/><path class="cls-14" d="M1239.17,192.83l118.56,21.31-1.86,1.46-114.09-20C1239.55,194.86,1230,195,1239.17,192.83Z" transform="translate(-918.77 -191.81)"/><path class="cls-15" d="M924.79,305.61a1.55,1.55,0,0,1-.27,1c-6.54-3.13-.3-6.72-2.65-10L946,297.63c6,7,5,7.5-14.82,7.55C929,305.18,926.68,305,924.79,305.61Z" transform="translate(-918.77 -191.81)"/><path class="cls-16" d="M940.59,294.74l-18.44.22q-0.14-4.64-.27-9.28c2.18,0.54,4.43,1.59,6.52,1.55C945.74,286.89,944,290.6,940.59,294.74Z" transform="translate(-918.77 -191.81)"/><path class="cls-17" d="M1542.27,257.79c-6.1-.33-9.85.26-6.46,2.75,1.48,1.09,2.08,2,1.27,3.15-15.34,1.38-21.52-.86-19.37-6.56,0.17-.46-1.92-1-3-1.57l0.37,0.1a30.23,30.23,0,0,1,19.07.08C1535.76,257,1541.8,255.91,1542.27,257.79Z" transform="translate(-918.77 -191.81)"/><path class="cls-18" d="M967.28,257.76c-4.81,3.67-12,1.26-18.31,1-9.55-1.31-19.58-2.36-24.65-6.12q-1.58-.71.42-1.26c7.37-.54,13.52.16,18.17,2.41C950.23,255.74,958.76,256.75,967.28,257.76Z" transform="translate(-918.77 -191.81)"/><path class="cls-19" d="M921.71,266.64l21.48-.09c-3.19,4-5.28,8.38-21.26,7.2Q921.83,270.2,921.71,266.64Z" transform="translate(-918.77 -191.81)"/><path class="cls-20" d="M1428.24,226.72c-3.39,2-7.33.21-11,.22l-46.2-8.6,1.45-1.12C1391.88,219.69,1409.78,223.45,1428.24,226.72Z" transform="translate(-918.77 -191.81)"/><path class="cls-21" d="M1239.17,192.83c-3.89,1.54,1.4,1.9,2.61,2.79a91.58,91.58,0,0,1-27.37.07l5.59-2C1226.16,192.65,1232,190.55,1239.17,192.83Z" transform="translate(-918.77 -191.81)"/><path class="cls-22" d="M1070.5,219.47l0.34,1.37-32.17,6c-3.72,0-7.64,2.06-11.14-.15Z" transform="translate(-918.77 -191.81)"/><path class="cls-23" d="M932.69,310.66l24.2,1.22,2.68,1.8H937.94a8.72,8.72,0,0,1-5.49,0l-7.8.08Z" transform="translate(-918.77 -191.81)"/><path class="cls-8" d="M924.82,251.13l-0.5,1.47c-5.6-1.52-5.85-3.69-5.35-6l2.75,0.07C927,247.78,934.25,248.66,924.82,251.13Z" transform="translate(-918.77 -191.81)"/><path class="cls-24" d="M1542,323.66c-3.81-1.53-1.34-3.48-2.55-5.18-1.41-1.3-2.68-2.6.51-3.82C1545.76,317.5,1542.08,320.64,1542,323.66Z" transform="translate(-918.77 -191.81)"/><path class="cls-25" d="M1290.31,299.62c-66.05-.28-132-1.57-198-2.6-18-.28-36-0.3-53.93-0.51-4.84-.06-9.95.39-14.44-0.72l10.82-.12c14.39-.15,27.39-0.67,41.84-3,27.43-4.46,56.62-7.74,86.35-10.35,21.48-1.88,43.91-2.87,65.18-6.18-9.55-1.32-18.75.48-27.89-.08a287.71,287.71,0,0,1,47-2.17c-3.43,1.67-9.43-.07-13,2.1,10.73,0.76,22-1.8,34,1.58-18.63.31-35-.38-50.81,2.15h13.23q2.35,1,0,2c-51-.08-65.46,2-98.54,8.61,2.56,2,7.67,1.17,11.77,1.41,9.83,2.23,21,.88,31.44,1.38,21.86,1.06,43.94,2,66.15,1.58C1258.33,295.62,1274.1,297.91,1290.31,299.62Z" transform="translate(-918.77 -191.81)"/><path class="cls-26" d="M1357.72,286.41c19.27-1,55.91,3.57,97.93,12C1420.92,296.72,1393,287.47,1357.72,286.41Z" transform="translate(-918.77 -191.81)"/><path class="cls-27" d="M1314.67,265.36c-47.76-1.36-95.64-.42-143.43-1.19C1219.08,264,1267,262.48,1314.67,265.36Z" transform="translate(-918.77 -191.81)"/><path class="cls-28" d="M1241.56,294.66c-2.93,1.5-7.31,1.09-11.15,1-26.7-.62-53.38-1.34-80.07-2-3.66-.09-6-0.57-6.37-2C1176.73,291.65,1209,293.8,1241.56,294.66Z" transform="translate(-918.77 -191.81)"/><path class="cls-29" d="M1230.73,281.67q0-1,0-2l74.36,3.53-0.3,1Z" transform="translate(-918.77 -191.81)"/><path class="cls-30" d="M1502.6,296.86a164.36,164.36,0,0,1-42.38-6.53A347.2,347.2,0,0,1,1502.6,296.86Z" transform="translate(-918.77 -191.81)"/><path class="cls-31" d="M1517.24,298.18c1.4-1.82.11-4.13,5.91-3.68,4.89,0.38,7,2.29,7.05,4.34s-3.59,1.92-7.17,1.83C1517.75,300.55,1515.68,299.58,1517.24,298.18Z" transform="translate(-918.77 -191.81)"/><path class="cls-32" d="M1330.21,290.57c14.07,0.56,27.94,1.33,38.77,5.27Z" transform="translate(-918.77 -191.81)"/><path class="cls-33" d="M1537.12,271.68l0.18,1c-11-.37-21.94-0.84-32.3-2.55C1516,269.59,1526.59,270.6,1537.12,271.68Z" transform="translate(-918.77 -191.81)"/><path class="cls-34" d="M1521.4,267.26c-8.13,1.28-14.76-.41-23.63-1C1507.19,265.25,1514.25,265.65,1521.4,267.26Z" transform="translate(-918.77 -191.81)"/><path class="cls-35" d="M924.79,305.61c2.11-1.21,5.76-.59,8.43-1,6-.88,22,0.47,9.38-5.16-0.36-.16,2.2-1.21,3.39-1.84,51.11,1.44,102.58.08,153.57,2.65,4.58,0.23,9.41-1,14.43-.45,8.13,5.62-8,2.9-10.67,4.46,6.21-.29,12.63-1.37,19.33-2.11,3.43-.38,8.63-0.74,9.64.67,1.41,2-3.74,2.18-8.48,2.3,4.68,0.11,9,0,12.56.94,2,0.54,3.46,1.29,1,2-7.73,2.26-15.2,4.82-26.37,4.14a5.58,5.58,0,0,0-2.3.45,273.17,273.17,0,0,1-35.31,2c-2.12-1-5.92,0-8.06-1-5.8-2-13-.53-19.33-1-6.9-1-15-.19-21.51-1.82Z" transform="translate(-918.77 -191.81)"/><path class="cls-36" d="M1108.69,312.69c6.39-1.7,14.59-1.09,21.5-2.37-1.39-1.44-6.58.13-8.09-1.32,4.44-.65,10.06.06,14.22-1.86l-17.24-1.85c3.42-1.12,9.13-.38,11.88-2.33-11.21.1-21.44,2.08-34.47,1.57,7.21-1.6,19.2-.06,17.49-4.7q82.58,1,165.17,2.11c2.14,0,4.25.41,6.38,0.62-34.15,0-68.27.24-101.71,3.16-10,.87-19.87,2.1-29.29,3.6A309.2,309.2,0,0,1,1108.69,312.69Z" transform="translate(-918.77 -191.81)"/><path class="cls-37" d="M1274,307.66a333.24,333.24,0,0,0-53.91,3.75c-26.93,4.17-55.43,3.52-83.08,5.29-4.47.29-12-.87-12.38,1.54-0.35,2.15,7.21,1.1,11.11,1.62,1.72,0.23,3.18.53,3.25,1.73-10.86-1.19-22.83-.6-33.37-4.18,21.27-2.39,41.81-2.66,61.93-3.32,18.76-.62,35.32-3.65,53.2-5.14,14.94-1.24,29.76-2.45,45.16-2.29C1269.15,306.38,1273.23,305.18,1274,307.66Z" transform="translate(-918.77 -191.81)"/><path class="cls-30" d="M1393.42,327.68c0.34-1.55,2.1-1.92,6.24-1.33,37.26,5.25,76.15,6.53,115.62,6.37-1.13,2.86-7.35,2.09-11.62,1.92C1466.54,333.14,1429,332.6,1393.42,327.68Z" transform="translate(-918.77 -191.81)"/><path class="cls-38" d="M1309.4,338.6l-11.1,0c-30.56-2.47-56.14-9.32-86.75-12.76,6.14-1.88,10.36-.47,13.93,0C1253.59,330,1280.57,335.15,1309.4,338.6Z" transform="translate(-918.77 -191.81)"/><path class="cls-39" d="M1436.67,320.74a14.48,14.48,0,0,1-3.28.78c-34.2.07-68.27,1.07-104.17,2.25l7.25-2.06c19.33,0.24,38.42-.37,57.41-1.81C1408.22,318.8,1422.26,321.36,1436.67,320.74Z" transform="translate(-918.77 -191.81)"/><path class="cls-40" d="M932.45,313.72l5.49,0c8.4,7.83,29,10.3,46.43,14.32C962.44,328,934.42,320.25,932.45,313.72Z" transform="translate(-918.77 -191.81)"/><path class="cls-41" d="M1263.27,315.91c-21.43,2.93-43.82,2.68-66,3.05C1218.58,315.74,1241.4,317.4,1263.27,315.91Z" transform="translate(-918.77 -191.81)"/><path class="cls-36" d="M1274,307.66c-1.93-1.18-5.18-.9-8.08-1,18.76-2.15,38-.42,57-1q0,1,0,2Z" transform="translate(-918.77 -191.81)"/><path class="cls-42" d="M1352.64,315.7q0,1,0,2c-15.29.17-29.67,2.28-44.73,2.86-7.48.29-15.1,0-22.79-.38C1308.61,320.51,1329.65,316.16,1352.64,315.7Z" transform="translate(-918.77 -191.81)"/><path class="cls-43" d="M948.75,330.68c-2.57-2.25-10-2.22-13.63-4a3.21,3.21,0,0,1,2.79,0l60.34,9.2C980.53,335.56,965.41,332.19,948.75,330.68Z" transform="translate(-918.77 -191.81)"/><path class="cls-44" d="M1325.66,333.87l-54.28-7.7c20.78-.28,37.49,3.76,55.54,6.39Z" transform="translate(-918.77 -191.81)"/><path class="cls-45" d="M1065.31,313.69c2.93,0.05,6.14-.19,8.06,1-7.31-.27-13.56,1-20.91,1.5,3.23,2.33,10.44,1,12.78,3a5,5,0,0,1-1.49.47c-8-.11-20.82-0.53-20.2-2.92C1044.29,313.87,1056.81,313.79,1065.31,313.69Z" transform="translate(-918.77 -191.81)"/><path class="cls-46" d="M1312,311.66c2.18,0.06,4.25.19,5.37,1-13.2-.47-25.87,1.37-43,1.49C1288.83,311.56,1300.43,311.63,1312,311.66Z" transform="translate(-918.77 -191.81)"/><path class="cls-47" d="M1518.09,331.7c6.12-.23,11.44-0.06,11.06,3-0.7,1.66-3.66,2.38-7.6,1.78C1515.29,335.52,1518.93,333.33,1518.09,331.7Z" transform="translate(-918.77 -191.81)"/><path class="cls-48" d="M1024.47,310.82a88,88,0,0,1,21.52,1.82l-29.5-.1Z" transform="translate(-918.77 -191.81)"/><path class="cls-49" d="M959.57,313.69c8.61,0.41,9.81,3,14,6-10.18-1.15-12.41-3.48-14-6h0Z" transform="translate(-918.77 -191.81)"/><path class="cls-50" d="M937.92,326.68h-2.79c-6-.37-11.46-1-10.51-3.89C930.11,323.61,935.24,324.57,937.92,326.68Z" transform="translate(-918.77 -191.81)"/><path class="cls-51" d="M1154.79,228.7c36.1,0,72.22-.16,108.31.12,7.3,0.06,14.57-2.11,21.8-.09,8.47,2.49,19.17,3.45,28.44,5.7-4.76-1.83-14.4-1.3-15-4.7a314.1,314.1,0,0,1,43.51-1.22c3.12,3.68,13.25,2.22,19.51,3.61,17,1.94,34.64.74,51.86,1.52,2.65,0.18,5.17.54,7.76,0.83,4,0.44,7.95,1.05,8.55,2.78,0.74,2.12-4.07,2.75-8.07,3.45-12.16,2.12-25.34,3.31-37.14,5.82-9.37,2-16.08,5.21-25.92,7a228.17,228.17,0,0,1-35.6,4c-23.24.65-46.46,1.45-69.81,1.27h-24.4c2.66-2.79,7.85-2,11-2.86,6.71-1.78-.51-3.21-0.14-4.8,0.54-2.35-3.7-1.12-6.25-.92-10.68.8-20.31-1.26-31.93-.58,3.27-2.56,7.4-1.67,10.52-2,3.84-1.54,8.46-.43,12.7-0.47,19.07-.17,36-3.34,53.61-5.37,8.72-1-1.58-1.33-1.26-2.13-9.74-1.32-19.87-1-29.93-1a20.39,20.39,0,0,1-7.71.27c-23.31-3.23-47.6-2.13-71.61-2.3-4.4,0-9,.28-12.8-1C1151.54,233.38,1154.5,231,1154.79,228.7Z" transform="translate(-918.77 -191.81)"/><path class="cls-52" d="M921.62,240.7c0.24-2.66,1.44-5,10.81-5.07,4.95,0,5.58-1.39,5.43-2.8-0.39-3.57,6.34-3.13,12.67-3.3,17.25-.47,34.28-1.5,51.58.62,5.06,0.62,11.95-1,18.1-1.3,4.24-.22,9-0.69,12.55.85-3.41,1.53-9.29,1.1-14.6,2.72,12.4,0.06,23.37-2.32,34.37-.34,4.51,0.81,9.95.54,11.69,3.29,1.4,2.22,11,.29,14.66,2.32a82.7,82.7,0,0,1-21.58,1.84c-15.72-.82-29.85,3.18-46,1.35-6.69-.76-9.28,1.38-5.66,3.81a3.94,3.94,0,0,1-2.66,0c-3.32-2.78-7.64-3.51-17-3.25-20.48.57-41.11,0.62-61.61,1.42C920,243,922.41,241.46,921.62,240.7Z" transform="translate(-918.77 -191.81)"/><path class="cls-51" d="M1078.87,237.69c-4,0-8.11.06-12.14,0-2.16,0-5-.11-6.3-0.6-12.5-4.73-12.42-4.74-31.69-3.47-2.62.17-5.39,0.12-8.08,0.09-3.48,0-7-.17-12.8-0.33a64.73,64.73,0,0,1,24.89-3.66c11.3,1,22.58-.16,33.66-0.46,15.75-.44,31.21-0.92,46.83.19a153.7,153.7,0,0,0,28-.69,69.3,69.3,0,0,1-21.69,5c-12.16,2-25.57,2.32-37.95,4h-2.71Z" transform="translate(-918.77 -191.81)"/><path class="cls-53" d="M1133.62,260.8c-6.76,1.31-14.11.7-21.2,0.83-19.29.36-38.6,0.6-57.91,0.89,2.8-1.28,7.61-.51,13.87-1.64l-21.67-.41c14.94-6,32.43-4.85,49.55-4.53C1110.12,256.19,1119.49,260.95,1133.62,260.8Z" transform="translate(-918.77 -191.81)"/><path class="cls-52" d="M924.82,251.13c4.63-2,.23-3.16-3.11-4.41,11.47,1.46,19.59-1.8,29.54-3-2.57,2-10.43,2.07-11.8,4.85,2.43-.12,4.13-0.13,5.7-0.3,5.45-.6,10.08-2.92,15.82-2.1,7.13,1-4.88,3.21,1,5,3.61,1.12,1.24,1.84-3.3,1.86-5.26,0-10.51.42-15.77,0.66Z" transform="translate(-918.77 -191.81)"/><path class="cls-54" d="M1154.78,235.72c31-.11,62.07-0.79,92.11,3-2.57,1.3-6.61,1.27-9.84,1-34.8-3.47-69.71-2.25-106.85-.18C1137.92,236.29,1148.2,237.64,1154.78,235.72Z" transform="translate(-918.77 -191.81)"/><path class="cls-55" d="M1276.83,239.7H1291c1.11,2.4-3.51,2.11-5.85,2.38-23.91,2.82-47,7.14-73.39,5.6,0.29-1.11,1.5-2,4.94-1.8,21.51,1.54,39.16-3.26,58.76-4.84C1276.17,241,1276.39,240.16,1276.83,239.7Z" transform="translate(-918.77 -191.81)"/><path class="cls-56" d="M1003,244.7l2.66,0c3.55,1.58,3.55,1.58-2.73,3.59,15.93,2.54,32.68,1,49.17.82l0,1.62h-51.93c-6,1.46-10.3.41-13.09-1.48-2.58-1.74,1.24-2.24,5-2.52C996.43,246.52,1000.22,246,1003,244.7Z" transform="translate(-918.77 -191.81)"/><path class="cls-52" d="M992.15,246.71c-8.89,4.51,2.6,3.43,8.07,4-0.54,1.82-3.26,2-7.57,1.6-7.66-.79-15.43-1.42-26.46-2.42C976.59,248.59,981.87,245.42,992.15,246.71Z" transform="translate(-918.77 -191.81)"/><path class="cls-52" d="M1081.58,237.69c11.69-2.57,25.06-3,37.95-4C1108.15,236.66,1094.67,236.92,1081.58,237.69Z" transform="translate(-918.77 -191.81)"/><path class="cls-57" d="M1360.81,303.67l159.76,2c-0.5,1.25-11.28.95-2.26,2.78,4.26,0.86,8.9,1.47,13.37,2.19-3.74,3.54-10.56,3.21-19.76,3.21-33.38,0-66.74-.77-99.49-2.54C1394.71,310.39,1373.58,310.19,1360.81,303.67Z" transform="translate(-918.77 -191.81)"/><path class="cls-57" d="M1471,314.71c18.62,0.88,37.35,1.1,56.11,1l-0.25,1.63-56.1-1.09Z" transform="translate(-918.77 -191.81)"/><path class="cls-51" d="M1387.76,227.74c8.81,3.94,21.05,1.47,30.37,1.29,27-.52,54,0,81-0.3,6.16,1.3,11.81,2.82,16.1,4.95l2.74,3c-13.64,6.55-35.28,7.15-54.1,9.83-2.69.38-6.64,0.25-7.85-1.12-1-1.17,2-1.68,4.11-2.23a29.25,29.25,0,0,1,7.47-.92c12.76-.47,23.91-2,30.62-6.39-5.7,4.57-17.31,5.48-29.05,6.3-5.3-.69-2.72-1.64-0.61-2.57,3.24-.64,6.75-1.09,10.28-2-3.62.66-6.39,1.43-9.74,1.76-9.25,2-18,4.33-28.35,5.62-16.62.32-25.27,5.44-37.37,8.47-4.9,1.93-11.14,2.82-18.09,3.15l-21.36.27a78.1,78.1,0,0,1-20.08-.58c23-3.86,37.28-10.92,59.81-13.3,6.93-.73,13.54-1.76,20.06-2.85,3.44-.57,9.08-0.85,8.59-2.63-0.43-1.58-5.35-2-9.42-2.27-1.33-.08-2.65-0.17-3.93-0.35-19-1.31-38.63-.15-57.37-2.2-4.17-.82-11-0.2-11.67-2.92Z" transform="translate(-918.77 -191.81)"/><path class="cls-58" d="M1385.29,256.53l16-3.87c2.17,0,5.47.5,6.34-.1,7-4.77,19.78-6.63,31.81-8.88,11-.79,18.65-4.35,29.87-5q1.36,0.35.87,0.68a1.69,1.69,0,0,1-1,.32c-0.2.66-3,1.32,0,2q1.34,0.34.88,0.67a1.52,1.52,0,0,1-.9.33l-11.55,2.25c21.6-1.43,42-3.82,60.28-8.27,0.94,1.41,1.76,3.44,7.06,2.46s10.55-2.38,7.18-5.41c-1.27-1.14-9.54-5.53,5.61-2.87-0.2,3.82-1.29,7.68-.35,11.46,1.07,4.34-3.9,5.76-14.82,6.11-20.42.66-40.76,1.7-63.11,2.67,11.8,2.26,23.71,1.39,35.23,3.29Z" transform="translate(-918.77 -191.81)"/><path class="cls-59" d="M1420.52,234.65a60.91,60.91,0,0,1,6.71.13c4.33,0.58,11.08.26,11.68,2.56s-5.59,2.3-9.66,2.76c-29.54,3.28-54.5,9.6-79.13,16.4l13.81,0.31c-13.54,1.61-27.4.66-41.14,0.72,24.51-2.09,43.72-7.76,63.82-12.85,9.78-2.47,21.8-3,32.28-4.92,3.13-.57,8.12-0.63,8.32-2.09,0.28-2.1-5.39-1.7-9-2.12a18.61,18.61,0,0,1-3.14-.87A9.28,9.28,0,0,1,1420.52,234.65Z" transform="translate(-918.77 -191.81)"/><path class="cls-60" d="M1298.34,229.72c5.13,3.25,16.4,2.71,22.66,5.39-13.67-.83-26.78-2.06-36.1-6.39Z" transform="translate(-918.77 -191.81)"/><path class="cls-61" d="M1349.92,229.69a31.6,31.6,0,0,0,10.89,2c0.72,0.93,0,1.35-2.77,1.11a82.38,82.38,0,0,1-17.41-2.15c-3.52-.92-3.85-1.79,1.21-2.14Z" transform="translate(-918.77 -191.81)"/><path class="cls-62" d="M1515.24,233.67c-8-.46-11.73-2.86-16.1-4.95C1506.76,229.37,1517.36,228.71,1515.24,233.67Z" transform="translate(-918.77 -191.81)"/><path class="cls-36" d="M1104.58,302.28c-9.19,1-15.4-1-22.42-.77C1089.59,300.69,1089.59,300.69,1104.58,302.28Z" transform="translate(-918.77 -191.81)"/><path class="cls-63" d="M1358,232.8l2.77-1.11c14.71,1.05,29.4,2.09,44.52,2,5.09,0,10.75-.7,15.19.94l-5.47,0C1396,234.4,1376.5,235.69,1358,232.8Z" transform="translate(-918.77 -191.81)"/><path class="cls-64" d="M1355.45,242.7c6.33-2.81,21.28-.52,24.2-5.63,0.44-.78,5-0.13,6.59.7,2.25,1.18-.28,1.73-2.79,2.21a151.47,151.47,0,0,1-28.06,2.69Z" transform="translate(-918.77 -191.81)"/><path class="cls-65" d="M1355.39,242.67c-7.13,3.37-19.16,3.83-28.09,6.13a71.2,71.2,0,0,1,28.15-6.1Z" transform="translate(-918.77 -191.81)"/><path class="cls-66" d="M1303,244.07c-4.61,2-10.12,2.63-16.92,3.66C1293.8,244.67,1293.8,244.67,1303,244.07Z" transform="translate(-918.77 -191.81)"/><path class="cls-67" d="M1439.48,243.68c-1.69,1.56-5.7,2-9.31,2.66-8.4,1.47-16.48,2.48-17.61,7.07-0.56,2.3-7.62.35-11.23-.75C1413.32,249.25,1422.52,244.23,1439.48,243.68Z" transform="translate(-918.77 -191.81)"/><path class="cls-68" d="M1469.25,242.69l0-1c5.52-.69,11.35-1.15,16.48-2.11,9.66-1.82,10.14-2.89,4.13-6.57,6.42-.59,9.53.89,11.21,2.54s-2.46,2.5-5.85,3.42A108.6,108.6,0,0,1,1469.25,242.69Z" transform="translate(-918.77 -191.81)"/><path class="cls-69" d="M1469.27,239.7a5.2,5.2,0,0,1,.08-1c2.22-.52,4.57-1,6.62-1.59s-2-2.65,4-2.22a4.11,4.11,0,0,1,2.48,1c0.79,1.35-1.55,2.17-4.49,2.67C1475.18,239,1472.17,239.33,1469.27,239.7Z" transform="translate(-918.77 -191.81)"/><polygon class="cls-14" points="437.11 23.79 452.26 26.55 453.71 25.42 438.97 22.33 437.11 23.79"/></svg>