<svg id="Слой_1" data-name="Слой 1" xmlns="http://www.w3.org/2000/svg" viewBox="0 0 145.13 175.93"><defs><style>.cls-1{fill:#31211d;}.cls-2{fill:#f0c5a3;}.cls-3{fill:#f7f7f9;}.cls-4{fill:#71b8ac;}.cls-5{fill:#c54e45;}.cls-6{fill:#a44f46;}.cls-7{fill:#c67948;}.cls-8{fill:#f0c5a2;}.cls-9{fill:#e49987;}.cls-10{fill:#553d33;}.cls-11{fill:#4c7996;}.cls-12{fill:#b66247;}.cls-13{fill:#edb545;}.cls-14{fill:#937048;}.cls-15{fill:#f7dc6f;}.cls-16{fill:#f4f4f6;}.cls-17{fill:#f5f4f6;}.cls-18{fill:#4c7e98;}.cls-19{fill:#e39887;}.cls-20{fill:#0d0e0e;}.cls-21{fill:#d96966;}.cls-22{fill:#f8dc6f;}.cls-23{fill:#497778;}.cls-24{fill:#d6644f;}.cls-25{fill:#533d2b;}.cls-26{fill:#513d2c;}.cls-27{fill:#6d4239;}.cls-28{fill:#6d413a;}.cls-29{fill:#de9e46;}.cls-30{fill:#74b5a4;}.cls-31{fill:#34231e;}.cls-32{fill:#33241d;}.cls-33{fill:#efc5a2;}.cls-34{fill:#fcfcfb;}.cls-35{fill:#0f1111;}.cls-36{fill:#0e1010;}</style></defs><title>geologist2</title><path class="cls-1" d="M45.66,37.21a15,15,0,0,0-2.88,4c-0.61,1-1,.85-1.59,0a6.85,6.85,0,0,1-1.23-7c-1,0-1.37,1-2.37,1.06a10.75,10.75,0,0,1,.58-8.14c0.24-.54,1.15-1.26-0.42-1.37-0.41,0-.25-0.86-0.26-1.32-0.08-5.29,1.91-9.37,6.92-11.74l-2.32.47a4.43,4.43,0,0,1,2.79-4.09c3.59-1.41,6.4-4.09,9.87-5.62S62.28,1.72,65.88.57C69.93-.72,73.37.1,77,1.33c1.24,0.42.1-1,1-1a33.6,33.6,0,0,1,3.49,0C88.2,1.14,91.57,4,93.4,10.51c0.3,1.06.57,2.13,0.85,3.2,1,2.79-.42,5-1.94,7a14.82,14.82,0,0,1-4.49,3.94,32,32,0,0,1-11.31,2.68c-5,.47-10,0-15,0.67a16.84,16.84,0,0,0-8.8,3,19.06,19.06,0,0,0-5.26,4.51A3.35,3.35,0,0,1,45.66,37.21Z" transform="translate(-0.01 0.08)"/><path class="cls-2" d="M98.26,46a10.49,10.49,0,0,1,1.42,14.56,3.73,3.73,0,0,1-2.53,1.65c-1.66,0-1.81.82-1.79,2.2,0,2.74.42,5.51-.16,8.23-1.73,8.07-7,12.8-14.58,15.25-0.59.19-1.19,0.31-1.79,0.47a1.71,1.71,0,0,1-.6.56c-3.51.76-7,1.11-10.49-.18-1.12-.85-2.6-0.68-3.8-1.32a14.49,14.49,0,0,1-4.12-7.66c-1.38-5.72-1.32-11.54-.89-17.36a2.25,2.25,0,0,1,1.74-1.3,10.44,10.44,0,0,0,7.39-7.65c0.06-.2.14-0.39,0.2-0.59a1.86,1.86,0,0,1,2.21-1.41A1.72,1.72,0,0,1,72,53.39v0c0.11,2.13,0,4.27.05,6.4a3.65,3.65,0,0,0,.22,1.65,20.55,20.55,0,0,0,.19-3.85V53.69c0.05-1,.2-2,1.44-2.18A2,2,0,0,1,76.3,53q0,0.09,0,.19a11.66,11.66,0,0,0,1.95,4.07c2.52,3.12,5.67,4.71,9.77,4s6.63-3.36,8.14-7.1a11.81,11.81,0,0,0,.42-1.6c0.44-1.26.18-2.57,0.29-3.85C97,47.67,97,46.51,98.26,46Z" transform="translate(-0.01 0.08)"/><path class="cls-3" d="M97.4,97.57a7.15,7.15,0,0,1,6,1.51q19.14,14.4,38.31,28.76c4.19,3.16,4.55,7.49,1.06,11.4-2.8,3.13-5.64,6.23-8.47,9.33a6.41,6.41,0,0,1-4,2.34c-0.49-1.31-.64-2.74-2.06-3.6-0.74-.45-0.25-1.26.15-1.82a2.68,2.68,0,0,0-.18-3.79l-0.27-.21a1.33,1.33,0,0,1-.39-2c1.92-3.15,1.72-3.73-1.65-5.4l-0.36-.2c-1.3-.8-2.47-1.81-3.81-2.56-1.6-1.74-3-3.72-5.18-4.83L99.1,113.66a3.28,3.28,0,0,1-.63-2.51,57.13,57.13,0,0,1,0-5.74C98.71,102.7,97.88,100.21,97.4,97.57Z" transform="translate(-0.01 0.08)"/><path class="cls-4" d="M105.84,126.08a39.51,39.51,0,0,1,1,23,31.29,31.29,0,0,1-10.59,17.13c-0.25,1.7-2,1.94-2.92,3a37.77,37.77,0,0,1-17.67,6.54A23.82,23.82,0,0,1,64,173.88c-0.35-.61.1-0.89,0.51-1.13,7.25-4.33,11.87-10.91,15.5-18.3a105.66,105.66,0,0,0,8.54-26,3.71,3.71,0,0,1,.94-2.44c1.28-.07,1,1.28,1.8,1.87-0.37-.84-1-1.54-0.69-2.41a2.35,2.35,0,0,1,1.95-1.29,1.51,1.51,0,0,0,1.07-1.57A2.65,2.65,0,0,1,96,119.92a2.82,2.82,0,0,1,3.07,1.91,3.32,3.32,0,0,0,2.27,1.92A13.07,13.07,0,0,1,105.84,126.08Z" transform="translate(-0.01 0.08)"/><path class="cls-3" d="M47.62,112.21a2.45,2.45,0,0,1-1,1.27q-8.92,6.61-17.82,13.25a0.82,0.82,0,0,1-.4-0.45c-0.89-2.72-1.18-2.77-3.19-.59a4.83,4.83,0,0,0-.79,1,8,8,0,0,1-6.05,4.39c-2.68.51-3.08,2.75-1,4.74,0.83,0.8.86,1.35-.06,1.94-1.66,1.08-1.92,2.43-.81,4a1.69,1.69,0,0,1-.08,2.39l-0.19.15a2.55,2.55,0,0,0-.63,3.55L15.69,148c0.93,1.47.54,2.6-1,3.38A7.45,7.45,0,0,1,10.9,149c-3-3.37-6.15-6.69-9.14-10.11s-2.14-7.82,1.58-10.62q13.43-10.12,26.88-20.21c3.79-2.85,7.59-5.69,11.38-8.56A7.08,7.08,0,0,1,47.78,98c-1,3.83-.11,7.62.26,11.43A4.22,4.22,0,0,1,47.62,112.21Z" transform="translate(-0.01 0.08)"/><path class="cls-5" d="M48.65,164.52c-0.87-.65-2.07-0.11-2.92-0.84a0.69,0.69,0,0,1,.52-0.78c4.45-1.4,6.74-5.11,9-8.69A95.19,95.19,0,0,0,68,122.79a29.23,29.23,0,0,0-1-17.47,1.36,1.36,0,0,1,0-1.55c0.87-.59,1.56.06,2.31,0.33a9.63,9.63,0,0,1,1,.57c0.83,0.63,1.8,1,2.64,1.68,1.51,1.28,3.23,2.31,4.62,3.74,1.22,3.42.94,7,.47,10.42a92,92,0,0,1-14.14,38,38.2,38.2,0,0,1-4.84,5.89,3.25,3.25,0,0,1-1.9,1.15,26.32,26.32,0,0,1-6.07-.35A2.86,2.86,0,0,1,48.65,164.52Z" transform="translate(-0.01 0.08)"/><path class="cls-6" d="M67.24,103.73c-0.5,1,.49,1.47.73,2.21a31.45,31.45,0,0,1,1.14,13.86C67.59,131,63.21,141.19,58,151a42.89,42.89,0,0,1-6.64,9.41,12.69,12.69,0,0,1-5.6,3.23c-2.61-.42-3.19-2.61-3.68-4.61a19.59,19.59,0,0,1,.23-10.15c1.65-.94,3.21-0.19,4.78.25a4.49,4.49,0,0,1,1,.94,2.07,2.07,0,0,0,3.22,0,7.32,7.32,0,0,0,2.17-2.64c4.66-7.64,8.41-15.62,9.29-24.68,0.11-1.17.12-2.33,0.13-3.5-0.08-3.1-1-4-3.53-3.4a8.7,8.7,0,0,1-4.73-3.43,22.92,22.92,0,0,1,8.79-9.66,2.88,2.88,0,0,1,1.78-.39C66.1,102.54,66.94,102.72,67.24,103.73Z" transform="translate(-0.01 0.08)"/><path class="cls-7" d="M54.82,112.44l4.6,3.15c2,0.35,3.18,1.75,4.07,3.44,0.14,8-2.24,15.29-5.88,22.26-1.2,2.3-2.08,4.82-4,6.71-2.17,2.18-4,2.67-6.21,1.7l-5.14-.76c-0.67-.19-1.42,0-2-0.46,8-7.8,11-17.9,13-28.4a23.41,23.41,0,0,0,0-6,3.33,3.33,0,0,1,.1-2A0.93,0.93,0,0,1,54.82,112.44Z" transform="translate(-0.01 0.08)"/><path class="cls-8" d="M125.7,133.54c1.83,0.71,3.93,1.11,3.72,3.86a4,4,0,0,1-2,2.87c2.8,2.39,2.9,2.8,1.12,5.8-0.42.71-.18,0.86,0.42,1.19a2.73,2.73,0,0,1,1.35,3.62l0,0c-0.82,1.11-1.48,2.14-.41,3.57a2.09,2.09,0,0,1-.5,2.65,2.41,2.41,0,0,1-2.71.94c-2.8-.92-5.63-1.72-8.43-2.63-0.88-.28-1.73-0.88-1.55-1.89,0.2-1.17,1.29-1.3,2.29-1.26s2.16,0.15,3.78.27c-1.45-1.27-2.83-1.3-4-1.63-1.56-.43-3.25-0.6-3-2.83,0.16-1.6,1.55-2.26,3.87-2,0.49,0.06,1.22.51,1.41-.22s-0.64-.7-1.13-0.84l-3-.79c-1.36-.36-2.26-1.13-1.94-2.65s1.38-1.93,2.8-1.73a14.94,14.94,0,0,0,1.84.2c0.63,0,1.44.35,1.62-.72a1.47,1.47,0,0,0-1-1.79c-1.14-.48-2.26-1-3.37-1.54-1.82-.9-2.23-2-1-3.56,0.82-1,.18-1.82.2-2.71a7.53,7.53,0,0,1,.46-3.22c2.84,0.2,3.82,2.63,5.31,4.45C123,132.07,124,133.28,125.7,133.54Z" transform="translate(-0.01 0.08)"/><path class="cls-2" d="M14.68,151.3c0.81-1.23,1.35-2.27.12-3.77-1.06-1.3-.28-2.76,1-3.74,0.59-.45,1-0.68.4-1.58-1.81-2.55-1.4-3.92,1.57-5.41-0.94-.84-2.23-1.29-2.33-2.8-0.13-2,.62-3.33,2.57-3.56a7.12,7.12,0,0,0,6-4.22,10.3,10.3,0,0,1,2.07-2.29,1.77,1.77,0,0,1,2-.67c0.77,0.33.72,1.09,0.72,1.79v1.65a2.2,2.2,0,0,0,.31,2.41c1.1,1.24.64,2.53-.93,3.32-1.1.55-2.25,1-3.38,1.5-0.83.35-1.4,0.8-1.13,1.86s1.06,0.6,1.66.63a16.42,16.42,0,0,0,2.06-.06,2,2,0,0,1,2.53,1.79c0.24,1.43-.6,2.15-1.86,2.51s-2.39.63-3.58,1a0.69,0.69,0,0,0-.66.84,6.47,6.47,0,0,0,2.67.06c1.42,0,2.39.49,2.65,2s-0.81,2.22-2.05,2.59c-1.54.45-3.12,0.79-4.65,1.35,1.31,0.61,2.65.25,4,.32a1.47,1.47,0,0,1,.63,2.88c-3.06,1-6.1,2.07-9.2,2.89C16.23,155,15.14,153.7,14.68,151.3Z" transform="translate(-0.01 0.08)"/><path class="cls-9" d="M59.4,62.21c0.12,5.42-.36,10.85.78,16.23a20.3,20.3,0,0,0,2.89,7.2,4.23,4.23,0,0,1,.88,1.84A20.94,20.94,0,0,1,49.68,65c0.17-1.43.43-2.76-1.77-2.74a3.46,3.46,0,0,1-2.23-1.36c-3.71-3.83-3.31-11.2.81-14.63,1,0.62,1,1.65,1.06,2.65a12.3,12.3,0,0,0,.23,3.18c1.22,5.74,4,8.44,9.69,9.51A3.33,3.33,0,0,1,59.4,62.21Z" transform="translate(-0.01 0.08)"/><path class="cls-10" d="M98.26,46a7.93,7.93,0,0,0-.8,4.58,3.18,3.18,0,0,1-.36,2.2,1.53,1.53,0,0,1-.61-1.44c0.26-3.07-.86-5.75-2.31-8.34-0.35-1.89-.3-3.82-0.54-5.73A21,21,0,0,0,89.2,26.84c-0.58-.74-1.34-1.41-1.31-2.49a48.43,48.43,0,0,0,4.21-4.19,10.11,10.11,0,0,0,2.1-6.35c4.45,2.68,6.12,7.06,7,11.82,1,5.44-.66,10.61-1.86,15.82C99,43,98.63,44.52,98.26,46Z" transform="translate(-0.01 0.08)"/><path class="cls-11" d="M54.82,112.44l-1.25-.38a5.81,5.81,0,0,0-4.23,2.2,1.62,1.62,0,0,1-1.42.71l-0.3-2.79c-0.35-3.12-.73-6.24-1-9.37a6.75,6.75,0,0,1,1.18-4.87,8.53,8.53,0,0,1,4.71-1.27H61c0.66,0,1.41-.21,1.84.57a7.2,7.2,0,0,1,2.41,5.56c-3.53.8-5.48,3.63-7.71,6.07A42.51,42.51,0,0,0,54.82,112.44Z" transform="translate(-0.01 0.08)"/><path class="cls-11" d="M97.4,97.57a8,8,0,0,1,1.8,5.35q-0.06,5.37-.11,10.74L98.7,115c-1.14,0-1.82-.85-2.59-1.47a62.74,62.74,0,0,0-8.4-5.76,22.4,22.4,0,0,0-6.09-1.55,2,2,0,0,1-1.7-1.2c0.86-2.74,1.5-5.58,3.42-7.86a2.18,2.18,0,0,1,.87-0.49C88.62,96.82,93.09,96.07,97.4,97.57Z" transform="translate(-0.01 0.08)"/><path class="cls-12" d="M47.92,115c0.87-.86,1.7-1.77,2.63-2.56a2.41,2.41,0,0,1,3-.35c1.32,5.86-.09,11.44-1.73,17A56.75,56.75,0,0,1,43.6,146a5.19,5.19,0,0,1-3.36,2.5c-1.6,0-1.85-1.16-2-2.33-0.57-3.73.22-7.34,1.12-10.92,1.62,0.26,1.45,1.56,1.58,2.7,0.1,0.85-.3,2.08.7,2.4s1.72-.78,2.23-1.54a34.71,34.71,0,0,0,5.8-16.58c0.06-.73.16-1.68-0.64-2s-1.31.51-1.87,1c-0.93.78-1.57,2.33-3.22,1.22C44.83,119.64,46.62,117.44,47.92,115Z" transform="translate(-0.01 0.08)"/><path class="cls-13" d="M44,122.34a2,2,0,0,0,2.25-1,6.62,6.62,0,0,1,1.08-1.24c0.53-.53,1-1.24,1.91-0.94s1,1.17,1.08,2A22.82,22.82,0,0,1,49,129.05a31.26,31.26,0,0,1-5,10.55c-0.68.86-1.36,2.23-2.76,1.67-1.23-.5-0.88-1.87-0.92-2.94s0.35-2.39-1-3.11c-2-3.46-2.3-6.85.34-10.16A10.38,10.38,0,0,1,44,122.34Z" transform="translate(-0.01 0.08)"/><path class="cls-14" d="M72.63,106.63c-0.85-.49-1.9-0.69-2.43-1.65,1.76-2.14,3.46-2.63,6.09-1.74a2.75,2.75,0,0,1,.56.36c2.72,2.21,2.92,5.39,3,8.47a74,74,0,0,1-4.62,26.51,93.5,93.5,0,0,1-9.47,19.92,34.42,34.42,0,0,1-8.4,9.58,8.68,8.68,0,0,1-3.51,1.68,1.16,1.16,0,0,1-.64-0.13,0.68,0.68,0,0,0-.28-0.11,6,6,0,0,1-4.27-5l2.47,0.14c1.95,1.64,4,1.37,6.15.4a23.44,23.44,0,0,0,6-6.7A90.88,90.88,0,0,0,77.52,120.1a26.27,26.27,0,0,0-.32-10C76,108.48,75.12,106.47,72.63,106.63Z" transform="translate(-0.01 0.08)"/><path class="cls-15" d="M87.93,107.29A68.54,68.54,0,0,1,98.71,115a33.39,33.39,0,0,1,7.13,11c-1.49.17-2.36-1.19-3.68-1.49-1.77-.4-3.34-1-3.93-3.06-0.33-1.15-1.46-1.23-2.58-1.06a1.65,1.65,0,0,0-1.43,1.84v0.08c0,1.5-.09,2.71-2.21,2.47-1-.11-1.41.7-0.8,1.71a5.54,5.54,0,0,1,1.09,2.61c-1.56-.39-1.61-0.46-2.63-3.25a2.4,2.4,0,0,1-.66-2.44c0.39-2.51.24-5,.43-7.55a3,3,0,0,1,.22-0.77c1.46-3.25,1.46-3.25-1.16-5.81C87.39,108.07,87.39,108.07,87.93,107.29Z" transform="translate(-0.01 0.08)"/><path class="cls-9" d="M67.75,88.78c3.69-.15,7.41.42,11.09-0.38q0,3.33,0,6.66c-0.26,1.29-1.49,1.23-2.35,1.63a20.2,20.2,0,0,1-2.89,1,1.81,1.81,0,0,1-.62,0c-1.8-.85-4-0.9-5.32-2.73Z" transform="translate(-0.01 0.08)"/><path class="cls-16" d="M73.41,97.54c1.59-1.32,3.74-1.4,5.44-2.49l2.51-.73c-0.46,1.79-.65,3.45,2,2.89L80.21,105c-1.66.64-2.63-.65-3.82-1.35h0C74.63,101.95,73.37,100.06,73.41,97.54Z" transform="translate(-0.01 0.08)"/><path class="cls-17" d="M67.66,95c1.71,1.08,3.87,1.2,5.46,2.54a11.39,11.39,0,0,1-3.79,7.13l-2.1-1a5.12,5.12,0,0,0-2-.94L62.8,97.21c1.82,0,3.71,0,2-2.79C66,94.12,66.73,95.13,67.66,95Z" transform="translate(-0.01 0.08)"/><path class="cls-10" d="M47.35,52.43c-0.7-2,0-4.21-.86-6.19-0.23-3-.91-6-0.83-9a17.07,17.07,0,0,1,6.73-6.4,2.19,2.19,0,0,1,0,2.17,24.33,24.33,0,0,0-1,9,2.2,2.2,0,0,1-.65,1.26A10.1,10.1,0,0,0,48,50.61,2,2,0,0,1,47.35,52.43Z" transform="translate(-0.01 0.08)"/><path class="cls-18" d="M95.79,169.11l-0.19,0H95.41a1.93,1.93,0,0,1-2.2-.37l3-2.47A2,2,0,0,1,95.9,169Z" transform="translate(-0.01 0.08)"/><path class="cls-2" d="M87.9,24.35c5,5.13,6.91,11.4,6.67,18.44-0.89.32-1.4-.39-2-0.79-6.44-4.21-13.87-1.5-16.11,5.89-0.12.4-.23,0.79-0.37,1.18A1.79,1.79,0,0,1,74,50.32a1.64,1.64,0,0,1-1.48-1.7,17,17,0,0,0-.27-3.15,12.73,12.73,0,0,0-.28,3c-0.1.86-.3,1.66-1.34,1.81A1.9,1.9,0,0,1,68.47,49a0.26,0.26,0,0,1-.07-0.19c-1.13-4.82-4.29-7.68-8.86-9.19A3.15,3.15,0,0,1,59,36.48c0.88-1.54,2.26-1.27,3.61-.92a11.25,11.25,0,0,1,3.47,2c-0.85-1.88-2.5-2.5-4.34-2.81-0.85-.14-1.81.11-2.49-0.67-0.1-2.36-.27-4.75,1.77-6.53,4.82-.89,9.7-0.39,14.55-0.75,4-.3,7.9-0.69,11.54-2.47A1.88,1.88,0,0,1,87.9,24.35Z" transform="translate(-0.01 0.08)"/><path class="cls-19" d="M61,27.56c-1.09,2.06-1.1,4.37-1.56,6.57,0,0.72-2,1.4,0,2.15,0.07,1-.25,2.12.34,3.11a0.43,0.43,0,0,1-.23.32c-3,0-5.68,1.26-8.42,2.29-1-2.51-.3-5,0.18-7.46,0.25-1.26.72-2.47,1.09-3.7C54.8,28.52,57.86,27.93,61,27.56Z" transform="translate(-0.01 0.08)"/><path class="cls-20" d="M51.12,42a10.6,10.6,0,0,1,8.65-2.6,11.05,11.05,0,0,1,9.09,9.24,1.2,1.2,0,0,0,1.51,1.15,1,1,0,0,0,1.11-1.31V45.17a0.84,0.84,0,0,1,.58-1l0.13,0c0.78,0,.84.54,0.85,1.12a25.07,25.07,0,0,0,0,2.69c0.08,0.68-.58,1.72.87,1.88,1.27,0.14,1.56-.44,1.84-1.55,1.56-6.29,6.71-9.77,12.73-8.74,2.41,0.41,4.21,1.88,6.07,3.28,2.43,2.94,2.7,6.44,2.54,10a11,11,0,0,1-10.3,9.3A11.12,11.12,0,0,1,76,54.21a4.44,4.44,0,0,1-.29-1.2c0-1.3-.89-1.08-1.71-1.13-1.14-.07-0.95.7-0.95,1.36V61.7c0,0.62.27,1.56-.84,1.49-0.88-.06-0.71-0.87-0.71-1.46V53.06c0-.71-0.09-1.23-1-1.15-0.69.06-1.4-.28-1.64,0.93-1,5.23-4.37,8.19-9.45,9.36-6.82-.12-11.26-3.72-12.05-9.76,0.08-3.19-.13-6.45,2.39-9Z" transform="translate(-0.01 0.08)"/><path class="cls-21" d="M70.77,73a20.63,20.63,0,0,0,11-2.1c0.55-.27,1.24-0.74,1.63,0s-0.41,1-.94,1.28a25.57,25.57,0,0,1-15.27,2.2c-0.61-.1-1.64.13-1.51-0.91,0.11-.85,1-0.43,1.57-0.44C68.43,73,69.6,73,70.77,73Z" transform="translate(-0.01 0.08)"/><path class="cls-22" d="M88.6,140.83c1.15,0.6,3,.73,1.67,2.9-0.51.84,1.35,2.14,2.36,1.5a2.06,2.06,0,0,1,2.63.26c2.61,2,5.16,4.19,4.59,8.07a1.25,1.25,0,0,0,.08.81c2.5,3.57-.08,6.2-2,8.57a13.52,13.52,0,0,1-8.53,5.23A29.76,29.76,0,0,0,81,170.54a2.85,2.85,0,0,1-2.46,0c2.19-.91,3.48-3.52,6.87-1.45-1.1-1.64-1-2.41,0-3.24a17.65,17.65,0,0,0,2.46-3c1-1.34,1.77-2.53.78-4.46-1.1-2.14-.15-4.61,0-6.92,0.06-1,1.21-1.59,2.11-2.12,1.19-.7,1.32-1.54.22-2.41-1.8-1.43-2.26-3.72-3.59-5.48-0.9-1.19,0-2.77,1.11-3.84a1,1,0,0,1,1.33-.09,1.07,1.07,0,0,1,.14,1.15C89.77,139.54,88.92,140,88.6,140.83Z" transform="translate(-0.01 0.08)"/><path class="cls-23" d="M64,173.6c-2.49-.55-5.08-0.89-6.85-3a2.34,2.34,0,0,1,2-.24,6.64,6.64,0,0,0,5.91-1.75,44.25,44.25,0,0,0,12.1-16.24,124.84,124.84,0,0,0,5.13-12.62c2.5-7.79,4.13-15.7,3.83-23.94a26.7,26.7,0,0,0-.46-4.1,6.09,6.09,0,0,0-2.77-4.39c-0.55-.34-1.27-0.65-1.19-1.52a16.65,16.65,0,0,1,6.23,1.54c-0.28.85,0.67,1,.87,1.63a6.69,6.69,0,0,1,1.11,6.19c0.55,3.62-.29,7.22-0.24,10.83a126.65,126.65,0,0,1-5.06,19.08c-3.28,9-7.29,17.54-14.45,24.21C68.31,171,66.47,172.72,64,173.6Z" transform="translate(-0.01 0.08)"/><path class="cls-24" d="M69.33,104.68l3.79-7.13a0.89,0.89,0,0,0,.28,0l2.93,6.08c-2.38-1-4.21.41-6.14,1.36A0.9,0.9,0,0,1,69.33,104.68Z" transform="translate(-0.01 0.08)"/><path class="cls-25" d="M57.26,165.06c-1.79,2-5.07,2.07-6.15-.41Z" transform="translate(-0.01 0.08)"/><path class="cls-26" d="M72.63,106.63c2.44-.8,3.39-0.09,4.54,3.43A23.67,23.67,0,0,1,72.63,106.63Z" transform="translate(-0.01 0.08)"/><path class="cls-27" d="M47.42,149.69a11,11,0,0,0,6.21-1.7,5.45,5.45,0,0,1-3.16,3.32A2.07,2.07,0,0,1,47.42,149.69Z" transform="translate(-0.01 0.08)"/><path class="cls-28" d="M63.5,119l-4.08-3.44c1.37-1.13,2.72-.9,3.51.7A4.65,4.65,0,0,1,63.5,119Z" transform="translate(-0.01 0.08)"/><path class="cls-29" d="M81.69,105.76c4.05,1.84,4.88,5.35,5,9.35,0.46,12.49-3,24.07-8,35.31-2.74,6.14-6.06,11.86-10.95,16.61-3,3-6.16,5.12-10.63,3.54l-3.56-1c6.62-3,10.36-8.82,13.72-14.82A92,92,0,0,0,77.74,126.9c1.13-5.93,2.08-11.88,1.14-18a10.18,10.18,0,0,0-2.56-5.24L80.14,105Z" transform="translate(-0.01 0.08)"/><path class="cls-30" d="M89.91,115.12a35,35,0,0,0-1.11-6.19c0.76,0.77,1.54,1.52,2.28,2.31S91.07,114.21,89.91,115.12Z" transform="translate(-0.01 0.08)"/><path class="cls-31" d="M59.42,36.29c-0.68.1-1.63,0.8-1.91-.26-0.37-1.44,1.3-1.24,1.94-1.89,2.8-.22,5.36.22,7.16,2.67,0.38,0.52,1.06,1.13.28,1.77s-1.21,0-1.67-.6C63.67,36.11,61.81,35.27,59.42,36.29Z" transform="translate(-0.01 0.08)"/><path class="cls-32" d="M85.32,35.6a0.89,0.89,0,0,1-1.26.67c-2.84-1-5-.08-6.51,2.42A0.87,0.87,0,0,1,76,38L76,37.87c0.85-2.82,6-4.76,8.59-3.22A1.19,1.19,0,0,1,85.32,35.6Z" transform="translate(-0.01 0.08)"/><path class="cls-8" d="M95,51c0.59,4.28-3.75,8.83-8.39,8.83a9.15,9.15,0,0,1-.23-18.28C91.41,41.53,94.87,45.32,95,51Z" transform="translate(-0.01 0.08)"/><path class="cls-19" d="M60.24,59.47A7.69,7.69,0,0,1,50.13,51.7c0-.82,0-1.65.05-2.47,0.08-5.31,4.79-8.74,10-7.29,0,1.75-.54,3.14-2.57,3.36-2.41,1-4.17,2.58-4.23,5.31s1.79,4.47,4.25,5.5C59.65,56.34,60.16,57.74,60.24,59.47Z" transform="translate(-0.01 0.08)"/><path class="cls-33" d="M60.24,59.47a2,2,0,0,1-.72-0.57c0.27-1.76-1.05-2-2.2-2.35a2.19,2.19,0,0,1,1.87-.64,5.21,5.21,0,0,0,0-10.4,2.3,2.3,0,0,1-1.88-.63c2.07,0.12,1.82-2,2.86-2.93A9.09,9.09,0,0,1,60.24,59.47Z" transform="translate(-0.01 0.08)"/><path class="cls-34" d="M85.68,56.54a5.65,5.65,0,0,1-6-5.88c0-3.46,2.4-5.63,5.87-5.84a5.93,5.93,0,0,1,6.09,5.76q0,0.18,0,.37C91.61,53.62,88.94,57,85.68,56.54Z" transform="translate(-0.01 0.08)"/><path class="cls-34" d="M57.33,44.87c2,0,3.89-.19,5.52,1.51a5.81,5.81,0,0,1-4.09,10.14H57.32c-2.94-1.16-4.5-3.13-4.53-5.74S54.23,46.14,57.33,44.87Z" transform="translate(-0.01 0.08)"/><path class="cls-35" d="M85.45,53.34A2.43,2.43,0,0,1,83,51q0-.09,0-0.18a2.38,2.38,0,0,1,2.52-2.65,2.54,2.54,0,0,1,2.79,2.63,2.59,2.59,0,0,1-2.59,2.59H85.45Z" transform="translate(-0.01 0.08)"/><path class="cls-36" d="M58.45,53.32a2.42,2.42,0,0,1-2.34-2.5v0a2.66,2.66,0,1,1,2.5,2.55H58.45Z" transform="translate(-0.01 0.08)"/></svg>