<svg id="Слой_1" data-name="Слой 1" xmlns="http://www.w3.org/2000/svg" viewBox="0 0 196.35 196.35"><defs><style>.cls-1{fill:#dc7767;stroke:#fff;stroke-miterlimit:10;stroke-width:5px;}.cls-2{fill:#5cb5ad;}.cls-3{fill:#374b5d;}.cls-4{fill:#fff;}.cls-5{fill:#5db6ae;}.cls-6{fill:#f5cd68;}.cls-7{fill:#dc7869;}.cls-8{fill:#d1d7e1;}.cls-9{fill:#d0d6e0;}.cls-10{fill:#ced4df;}.cls-11{fill:#ccd2de;}</style></defs><title>iconTask</title><path class="cls-1" d="M422.75,291.75c-0.22,53.45-42.54,95.58-95.88,95.45a95.35,95.35,0,0,1-95.47-96.49c0.29-52.47,43.56-95.11,96.27-94.86A95.42,95.42,0,0,1,422.75,291.75Z" transform="translate(-228.91 -193.35)"/><path class="cls-2" d="M346.5,236.38c7.16,0,14.32,0,21.48.12,6.17,0.07,7.45,1.3,7.46,7.25q0,50,0,99.94c0,5.16-2.06,7.19-7.27,7.2q-41,0-82,0c-5.43,0-7.46-2-7.46-7.58q-0.07-49.72,0-99.44c0-5.74,1.75-7.31,7.55-7.37,7.16-.08,14.32-0.08,21.48-0.12,3.61,4.69,2.68,9.62.77,14.61-3.75-5.08-9.14-4.64-14.56-4.53-3.64.08-5.15,1.71-5,5.21,0,0.66,0,1.33,0,2q0,39.69,0,79.38c0,6.92.36,7.28,7.37,7.29q31,0,61.9,0c6.11,0,6.55-.43,6.56-6.51q0.06-40.44,0-80.87c0-6-.43-6.24-6.61-6.5-4.07-.17-8.35,1.05-12.17-1.45C344.6,242,344.32,239.14,346.5,236.38Z" transform="translate(-228.91 -193.35)"/><path class="cls-3" d="M308.11,250.22a70.06,70.06,0,0,0-.31-13.85c-0.26-4.67,1.89-6.32,6.46-5.52,3.17,0.55,5.66.35,5.33-4.34-0.32-4.51,3-6.81,7.17-7.35,3.78-.49,7.86,2.69,7.67,6.75-0.25,5.55,2.85,5.47,6.48,5,4.49-.64,6.36,1,5.6,5.52q0,4.28.1,8.55c1.73,4.88.86,7.1-3.64,7.34-10.42.56-20.87,0.41-31.3,0C310.23,252.27,308.59,252.09,308.11,250.22Z" transform="translate(-228.91 -193.35)"/><path class="cls-4" d="M308.11,250.22c5.32,1.56,10.75.42,16.12,0.64s10.58-.33,15.81.16c4.94,0.46,7.41-.76,6.56-6.08,5.16,0,10.33.2,15.47-.1,3.46-.2,4.5.79,4.46,4.36-0.18,18.64-.09,37.28-0.09,55.92,0,11-.13,22,0.08,32.95,0.06,3.35-1,4.15-4.23,4.13q-35.2-.19-70.39,0c-3.66,0-4.36-1.28-4.34-4.61q0.17-44.18,0-88.37c0-3.56,1-4.67,4.49-4.38a53.49,53.49,0,0,0,10,0C306.23,244.4,308.66,245.48,308.11,250.22Z" transform="translate(-228.91 -193.35)"/><path class="cls-5" d="M303.68,306c-7.87-.14-6.79,1.2-6.86-7.31-0.06-6.65,0-6.71,7.48-6.63s6.35-1.13,6.36,7.8C310.66,307,311.67,305.85,303.68,306Z" transform="translate(-228.91 -193.35)"/><path class="cls-6" d="M303.89,332c-8.07-.13-7.14,1.16-7.13-7.05S295.71,318,304,318c7.7,0,6.61-1,6.63,7.53C310.63,332.88,311.49,331.86,303.89,332Z" transform="translate(-228.91 -193.35)"/><path class="cls-7" d="M310.66,272.18c0,7.84,0,7.88-7.25,7.82-7.59-.06-6.55,1-6.58-7.14s-0.58-6.18,8.06-6.92C311.32,265.4,311.06,268.86,310.66,272.18Z" transform="translate(-228.91 -193.35)"/><path class="cls-8" d="M337.73,269.88c-5.48,0-11,0-16.44,0-1.53,0-3.7.56-3.66-2.07,0-2.25,1.95-1.86,3.36-1.86q16.94,0,33.87,0c1.4,0,3.33-.43,3.41,1.82,0.1,2.64-2.07,2.1-3.61,2.12C349,269.91,343.37,269.88,337.73,269.88Z" transform="translate(-228.91 -193.35)"/><path class="cls-9" d="M338.16,291.9c5.65,0,11.29,0,16.94,0,1.45,0,3.27-.24,3.19,2s-1.92,1.9-3.34,1.9q-16.94,0-33.88,0c-1.4,0-3.32.42-3.43-1.8-0.13-2.66,2-2.11,3.58-2.13C326.86,291.86,332.51,291.9,338.16,291.9Z" transform="translate(-228.91 -193.35)"/><path class="cls-10" d="M338,320.91c-5.65,0-11.3,0-16.95,0-1.22,0-3.07.5-3.21-1.37-0.15-2,1.75-1.59,3-1.6q17.19-.06,34.39,0c1.21,0,3.11-.42,3,1.59s-2,1.37-3.21,1.38C349.26,320.94,343.61,320.91,338,320.91Z" transform="translate(-228.91 -193.35)"/><path class="cls-11" d="M327.84,276.93c2.48,0,5,0,7.45,0,0.84,0,1.73.2,1.85,1.23,0.16,1.35-.83,1.68-1.88,1.68q-7.95,0-15.9,0a1.46,1.46,0,0,1-1.66-1.44A1.48,1.48,0,0,1,319.4,277c2.81,0,5.63,0,8.44,0v0Z" transform="translate(-228.91 -193.35)"/><path class="cls-11" d="M327.25,305.87c-2.48,0-5,0-7.45,0-1,0-2.09-.21-2.06-1.55a1.49,1.49,0,0,1,1.73-1.37q7.95,0,15.9,0a1.52,1.52,0,0,1,1.8,1.3c0.11,1.37-.94,1.6-2,1.61C332.55,305.9,329.9,305.87,327.25,305.87Z" transform="translate(-228.91 -193.35)"/><path class="cls-11" d="M327.79,331.87c-2.65,0-5.3,0-7.95,0-1,0-2.14-.2-2.11-1.5s1.16-1.44,2.18-1.44q7.7,0,15.4,0c0.85,0,1.73.23,1.83,1.26,0.14,1.36-.86,1.64-1.91,1.66C332.76,331.9,330.28,331.87,327.79,331.87Z" transform="translate(-228.91 -193.35)"/></svg>