<svg id="Слой_1" data-name="Слой 1" xmlns="http://www.w3.org/2000/svg" viewBox="0 0 348.03 164.76"><defs><style>.cls-1,.cls-45,.cls-68{fill:#5d5d5f;}.cls-1{stroke:#000;}.cls-1,.cls-68{stroke-miterlimit:10;}.cls-2{fill:#9d9d9e;}.cls-3{fill:#282829;}.cls-4{fill:#282729;}.cls-5{fill:#854b3f;}.cls-6{fill:#844a3f;}.cls-7{fill:#5c5c5e;}.cls-8{fill:#34322e;}.cls-9{fill:#101111;}.cls-10{fill:#5d5d60;}.cls-11{fill:#5e5e61;}.cls-12{fill:#c35645;}.cls-13{fill:#373330;}.cls-14{fill:#663f3b;}.cls-15{fill:#d38f67;}.cls-16{fill:#161615;}.cls-17{fill:#252420;}.cls-18{fill:#0e0f10;}.cls-19{fill:#6b4440;}.cls-20{fill:#643f39;}.cls-21{fill:#b25245;}.cls-22{fill:#2f2f31;}.cls-23{fill:#26282a;}.cls-24{fill:#111;}.cls-25{fill:#3d3e40;}.cls-26{fill:#d9d9db;}.cls-27{fill:#e1e1e3;}.cls-28{fill:#bbbabc;}.cls-29{fill:#b8b7b9;}.cls-30{fill:#363638;}.cls-31{fill:#cc8a64;}.cls-32{fill:#ce8a64;}.cls-33{fill:#d1916a;}.cls-34{fill:#cfced0;}.cls-35{fill:#e1996d;}.cls-36{fill:#be5b47;}.cls-37{fill:#e19a70;}.cls-38{fill:#e49b6b;}.cls-39{fill:#9a9a9d;}.cls-40{fill:#9d9d9f;}.cls-41{fill:#a3a3a5;}.cls-42{fill:#28282a;}.cls-43{fill:#e5e4e5;}.cls-44{fill:#d19d4a;}.cls-46{fill:#5e5f61;}.cls-47{fill:#d0cfcf;}.cls-48{fill:#c4c4c4;}.cls-49{fill:#d7a955;}.cls-50{fill:#e6e5e6;}.cls-51{fill:#5d5e60;}.cls-52{fill:#d2d2d1;}.cls-53{fill:#deb158;}.cls-54{fill:#e0b561;}.cls-55{fill:#d3a85c;}.cls-56{fill:#c1c1c1;}.cls-57{fill:#2f2f2f;}.cls-58{fill:#292a2c;}.cls-59{fill:#c4c3c4;}.cls-60{fill:#f6f7f8;}.cls-61{fill:#343436;}.cls-62{fill:#bfbebe;}.cls-63{fill:#e3b86a;}.cls-64{fill:#d7b267;}.cls-65{fill:#f1c56b;}.cls-66{fill:#9b9b9e;}.cls-67{fill:#a0a0a3;}.cls-68{stroke:#333;}</style></defs><title>iskop</title><circle class="cls-1" cx="96.24" cy="150.24" r="11.5"/><path class="cls-2" d="M95.78,334.37c0.12,3.3,5.07,5.45,1.94,9a2.55,2.55,0,0,1-3.77-.18C91.26,339.68,95.91,337.62,95.78,334.37Z" transform="translate(0 -189.01)"/><path class="cls-3" d="M56.58,198.06c0.47,0.26,1.31.48,1.35,0.78,1.06,9.61,5.26,15.71,16.05,14.6-2.15,3.59-5,6.82-4.21,11.6,0.35,2-2.13,4.91,1.08,5.87,3.4,1,7.44,4,10.41-1,0.55-2.24.81-4.6,2.64-6.29,2.29-.55,4.37,1.06,6.71.55,4.83-1,9-1.69,6.29,5.91-1.24,3.51,2.53,2.71,4.53,3.12,7.05,0.24,13.8-4.08,21-1.4,2.9,1.42,6.07,2.25,8.84,4,4.95,0.18,11.73-2.79,14.36,1.37,3,4.67-4.24,7.71-6.57,11.69-4.49,7.66-6.51,16.22-10.75,24.66,4.13-.35,7.21,3.28,11.05.65,0.88-.6,2.21-1.2,2.71.45a6.64,6.64,0,0,1,.19,3.35c-0.48,2-1.85.89-3.18,0.95-6.52.28-13.58-2-19.18,3.44a2.66,2.66,0,0,1-3.49.38c-1.76-1.82-1.88-4.59-3.73-6.36-5.3-3.24-11.11-1.73-16.73-1.78-2.67,0-4,1.8-4.72,4.21-0.86,3-2.21,5.35-5.93,4.79-3-.78-3.23-4.24-5.62-5.58s-4.14-.49-5.74,1.32a3.13,3.13,0,0,1-2.15.05c-2-2.18-4-2.49-6.24-.34-2.2,1.69-3.91,4.16-7,4.35a3.17,3.17,0,0,1-2.26-1c-6.38-9-10.36-10.15-22.37-6.17-2.54,1.45-2.84,4.56-4.78,6.45-3.05.95-2.08-3.08-4.15-3.35-6.66,1.62-13.32-2.43-20,.05-2.31.86-2.12-1.2-2.06-2.44s-0.83-3.86,2.27-3C6.29,274.13,7.3,275,8.35,275c7.69,0.06,9.28-2.19,6.9-9.44C12.46,257.12,9,249,2.75,242.4c-3.12-3.31-4.9-6.77,2-6.86,5.8-.07,4.07-9.26,10.49-8.08,3,0.5,4.1,5.12,8.12,3.41,2.17-.93,5.75,2.25,5.79-4.05,0-5.49,6.58-7.44,11.8-7.67,4.76-.21,3.52,3,2.31,5.88-0.8,1.89-1.25,4.45.41,5.6,2.19,1.51,4.65-.56,5.92-2,3.66-4.17,6.54-8.84,1.13-14,0-4.19,1.43-8.23,1-12.52C51.57,199.35,52.11,196.07,56.58,198.06Z" transform="translate(0 -189.01)"/><path class="cls-4" d="M290.05,235.54c6.12,0.51,3.84,4.11,1.77,6.27-6.93,7.26-10.61,16.09-13.58,25.42-2,6.23-.15,8.47,6.8,7.55,1.38-.18,2.9-2.7,4,0.2a5.76,5.76,0,0,1-.06,3.39c-1,3.25-2.66-.1-3.77.31-6.09,2.25-14.26-3.12-18.69,5.08-4.58.08-2.5-4.91-4.94-6.45-0.58-.48-1.15-1-1.75-1.41-3.84-2.55-8.16-1.75-12.36-1.83-6.59-.07-13,0.41-19.3,2.85-5.19,2-11,1.33-15.75-.42-5.61-2.06-11-2.44-16.72-2.33-9.78-2.26-16.27,2.85-21.94,9.79-0.93-3-2.49-5.29-6-4.34-5.32,1.42-10.47-3.06-15.89-.15-2.16,1.16-2-1.22-2-2.39,0-1.41-.41-4.56,2.08-3.12,4.85,2.79,8.5-1.8,12.79-.57-3.67-11.68-7.06-22.93-15.61-31.64-2-2.06-2.41-4.52.3-6.6a12.17,12.17,0,0,1,4.5-1.65c12.66-.52,25.33-0.17,38-0.24,3.52,0.11,7.06-.15,10.58,0,3.36,0.3,6.75,0,10.11.14a81,81,0,0,1,12.84-.07c7.51-.08,15-0.2,22.51,0,3.69,0,7.38-.38,11.07-0.06C269.34,233.69,279.93,231.43,290.05,235.54Z" transform="translate(0 -189.01)"/><path class="cls-5" d="M192.76,235.46H153.09c-0.06-2.85,2.29-2.78,4.09-3.34,8.83-2.75,8.82-2.74,5.57-10.79a2.6,2.6,0,0,1,.53-2.38c1.67-3.5,3.31-7,6.83-9.14,5.35-1.59,10.78-.17,16.17-0.45,8.18,0.06,10.47-7.91,15.86-11.65,0.84-.16,1.67-0.78,2.42-0.71,7.69,0.74,15.43,4.27,23-.61a2.67,2.67,0,0,1,.91,1.31l4.09,5c0.5,4.65-3.13,5.53-6.26,6.87-13.38-2.94-14.52,9.9-20.77,16.14C202.48,230.57,196.73,231.85,192.76,235.46Z" transform="translate(0 -189.01)"/><path class="cls-6" d="M248,235.19l-24.7.09c-2-2.59,3.67-6.17-1.1-8.39-1.82-1.68-4.91-2.4-4.46-5.81,0.62-1.74,3.14-1.24,3.65-3.13,4.06-7.31,8.75-3.92,13.07-.53s8.14,6.13,13.3,2c3.83-5.72,11.77-2.33,16-7.24a19.39,19.39,0,0,1,4.14-2.24c5.1-1.29,8.14,1.43,8.1,5.94-0.06,5.76,1.12,8.73,7.53,7.48,1.3-.25,2.47,1.25,3.72,1.9l1.89,1.59c-0.23,6.53-6.42,2.23-8.22,5,2.49,0.36,6-.61,8.36,2.32a2.31,2.31,0,0,1,.78,1.36l-32-.13c-1-1.95,2-4.69-.64-6-2.23-1.05-4,1.13-5.61,2.62C250.62,233.2,249.31,234.18,248,235.19Z" transform="translate(0 -189.01)"/><path class="cls-7" d="M173.71,284c4-12,4-12,22.35-12a14.11,14.11,0,0,1,10.72,6.68c5.28,7.85,25.19,6.19,29-2.22,2.73-6,7.25-2.74,11-3.55,2.28,1.14,1.53,3.65,2.54,5.72-0.41-1.82-.51-3.4-1.38-4.77a1.09,1.09,0,0,1-.55-1.24,0.78,0.78,0,0,1,.48-0.64c4.62,0.89,10.16-2.18,13.73,3.21a16.43,16.43,0,0,1-.19,2.3c1.1-.22.88-1.54,1.68-2,3.7,1.73.32,6.35,3.39,8.34-4.64,2.64-10.26,2.83-14.65,6.4-2.18,1.77-6,1.34-7.95-.68-5.15-5.39-9.9-2.88-14.87-.15-6.93-.54-13.86-0.12-20.8-0.27-3.6-2.22-6.87-4.47-11-.22-2.37,2.44-6.53,3.26-9.44,1.18C183.44,286.9,178.35,286,173.71,284Z" transform="translate(0 -189.01)"/><path class="cls-8" d="M84.06,223.89a10.58,10.58,0,0,1-1.77,6.74C77,234,72.44,230.37,70.79,227c-2-4.06,2.28-6.94,6.39-8.29,3.76-9.51,8.73-12.71,15.76-10.28,1.68,0.58,3.64,1.06,4,2.84,0.77,4.33,2.7,3.94,5.58,1.93,3.11-2.17,7.86-.79,8.66.85,3.6,7.42,8.92,4.15,14,3.42,0.66-.1,1.45.7,2.18,1.09-4.27,3.66-3.24,9.44-5.55,13.89-7-.93-13.39,4.51-20.52,1.76,4.08-4.45,3.73-6.66-2.38-9.61C93.48,222,89.24,220.19,84.06,223.89Z" transform="translate(0 -189.01)"/><path class="cls-9" d="M51.35,215.14c4.68,0,8.69.17,4.09,6.37-1.26,1.7-1,4.48-2,6.43-2.38,4.39-7.19,5.33-11.31,7.2-0.63-4.8-5.11-9.75,1.9-14.51-13.43,2-15.26,4.76-10.59,14.23-2,1.73-3.63.6-5.27-.74-1.06-.86-3.16-2.33-3.3-2.17-8.19,9-6.6-2.6-9.54-4.49l1.9-1.8c6.71-7.86,15-11.93,25.54-10.88C45.6,215,48.53,213.83,51.35,215.14Z" transform="translate(0 -189.01)"/><path class="cls-10" d="M25,279.27l4,3.11c2.79-1.59,2-4.88,3.4-7.14,3.64-6.27,9.56-2.22,14.37-3,5.83-1,10.87-.21,10.2,7.82-0.14,1.68,1.5,2.15,3,2.38,7.59-.6,14.9.93,22.18,2.8a2,2,0,0,1,.38,2.61l-0.12-.23c-6.69,3.25-13.82,1-20.72,1.69-3.91-2.24-7.58-5.12-11.9-.17-1.2,1.37-4.39,1.9-6.41,1.49-5.74-1.15-10.21-5.79-16.52-6C25,284.5,25.67,281.1,25,279.27Z" transform="translate(0 -189.01)"/><path class="cls-11" d="M82.53,287.81l-0.3-2.19c-0.93-2-1-3.41,1.85-3.26,1.63-.15,3.44.29,4.51-1.58,1.62-2.82-1.39-8.8,4.58-8.42,7.34,0.47,15.38-3.43,22,2.89-0.71,2.69-1.17,5.31,1.71,7.14l3.11-.09c-5.92,6.79-19.26,10.17-25.4,5.4C89.89,284.12,86.48,288.52,82.53,287.81Z" transform="translate(0 -189.01)"/><path class="cls-12" d="M249.36,220.32c-5.22,6.05-10,4.55-15.17-.37-3.54-3.34-8-9.11-11.63.29-4.86-5-2.33-8.56,2.23-11.75,2.85-1.57,6.21-2.44,7.75-5.77,8.16,1.33,16,6.28,24.66.7,3.73-2.41,6.48,2.27,9.68,3.71,2.3,0.76,3.09,2.09,1.64,4.29l-3.21,1.76c-3.78-2-7.15-6.56-12.05-2.69C250.21,212.89,246.84,215.55,249.36,220.32Z" transform="translate(0 -189.01)"/><path class="cls-13" d="M51.35,215.14a12.33,12.33,0,0,1-8.55,1.79c-4.33-3-7.9-7.7-14.18-6.21-1.65-8.83,8.82-18.07,18.64-16.15,3.21,0.63,6.22,2.29,9.32,3.48-2.26.27-4.16,1.44-3,3.77C56.05,207,53.67,211,51.35,215.14Z" transform="translate(0 -189.01)"/><path class="cls-14" d="M228.46,197.71c-6.39-2.91-7.46,9.44-12.76,5.28-4.35-3.41-8.32-5.32-13.56-5.27,4.56-5.52,10.19-8.87,17.58-8.69C225.39,189.15,229,191.29,228.46,197.71Z" transform="translate(0 -189.01)"/><path class="cls-15" d="M163.27,219a19.57,19.57,0,0,0,.53,2.44c1,2.88,7.58,3,5.26,6.08s-5.12,8.52-11.35,6.65c-1.29-.39-3.07.86-4.62,1.35l-3.76-.32C148.72,225.23,154.5,220.8,163.27,219Z" transform="translate(0 -189.01)"/><path class="cls-16" d="M77.18,218.72l-6.3,8c4.63,0.09,6.84,4.69,11.42,3.91,1.45,2.72.13,4.81-2.39,4.57-4.18-.4-8.27-1.8-12.36-2.9a2.66,2.66,0,0,1-1.77-1.53,4.68,4.68,0,0,1,.78-3c3.32-4.34-2.16-13.26,7.43-14.29C76.38,214.39,76.32,216.84,77.18,218.72Z" transform="translate(0 -189.01)"/><path class="cls-17" d="M28.61,210.73c8.35-6.2,11,.55,14.18,6.21-4.16.41-8.46-.76-12.48,1.12-1.46.68-4.15,0.49-4.11,2.32,0.13,6.14-2.13,6.43-6.56,3.38-0.26-.18-1.61,1.24-2.46,1.92-0.24-4.9,2.14-8.3,6.58-9.81C26.53,214.91,28.23,213.6,28.61,210.73Z" transform="translate(0 -189.01)"/><path class="cls-18" d="M121.78,232.46c-1.2-5.85-3-12,5.55-13.89,5.27,4.82,2.72,11.44,4,17.18C127.94,235.16,123.33,238.22,121.78,232.46Z" transform="translate(0 -189.01)"/><path class="cls-19" d="M268.52,211.42l-1.64-4.29c0.84-.12,2.07-0.67,2.46-0.3,6.3,5.81,14.18,10.11,17.89,18.43-2.1.32-4.23-1.71-6.38,0.41-2.33,2.29-4.05.25-5.7-1.32s-2.87-2.73-1.27-5.64C276.79,213.43,274.57,210.73,268.52,211.42Z" transform="translate(0 -189.01)"/><path class="cls-20" d="M186.27,209.36c-5.24,5.47-10.76,1-16.17.46C178.23,202.4,183.14,202.27,186.27,209.36Z" transform="translate(0 -189.01)"/><path class="cls-21" d="M289.27,234.18H274.62c2.52-8.81,11-2.52,14.51-7.32C292,229.24,290.3,231.72,289.27,234.18Z" transform="translate(0 -189.01)"/><path class="cls-22" d="M208.21,289c7-2.58,13.9-3,20.8.27C222.05,291.12,215.11,291.53,208.21,289Z" transform="translate(0 -189.01)"/><path class="cls-23" d="M61.69,289.28c6.66-3.62,13.83-.84,20.72-1.69C75.91,293.07,68.7,290,61.69,289.28Z" transform="translate(0 -189.01)"/><path class="cls-24" d="M84.06,223.89c-0.35-2.14-3.59-3.08-2.15-6.7,5.44,5.51,14.06-.07,19.55,6.66,1.43,1.76,6.23,1.25,6.25,4.71s-3,5.17-6.44,5.65c-2.48,1-4.66,3-7.21-.56-3-4.16,1.9-5.41,2.89-8.6C92.31,224.39,87.39,230.44,84.06,223.89Z" transform="translate(0 -189.01)"/><path class="cls-25" d="M84.07,282.37l-1.84,3.26c-7.66.58-15.29,1-22.26-3.23a11.94,11.94,0,0,1,4.95-5.2c2.38,0.12,4.91-.42,6.81,1.67l2.68-.15c1.48-2,4.51-1.07,6-3.1C83.85,276.65,84.14,279.41,84.07,282.37Z" transform="translate(0 -189.01)"/><path class="cls-26" d="M32.45,275.25c0.9,3.35,4.36,7.92-3.4,7.14C29.71,279.78,27,275.58,32.45,275.25Z" transform="translate(0 -189.01)"/><path class="cls-27" d="M116.82,282.4c-1.93.39-3.92,0.76-4.43-1.93-0.45-2.38.27-4.28,2.72-5.21C118.2,277,116.28,280,116.82,282.4Z" transform="translate(0 -189.01)"/><path class="cls-28" d="M71.72,278.87c-2.4,0-5.17,1.45-6.81-1.67,1.76-1.68,3.69-3.36,6.21-2.88C71.59,274.41,71.53,277.28,71.72,278.87Z" transform="translate(0 -189.01)"/><path class="cls-29" d="M80.39,275.62c0.45,5.75-3.53,3-6,3.1C72.85,270.83,77.87,275.65,80.39,275.62Z" transform="translate(0 -189.01)"/><path class="cls-30" d="M247.82,273.62c-5,0-10.62-2.54-10.45,7.05,0.07,3.82-8,4.29-11.93,4.5-8.72.46-19.64,3.62-22.88-9.92-0.69-2.88-4.93-1-6.52-3.31,6.12,0.23,11.81.56,18,2.93,5.94,2.26,14.1-.54,21.07-2.08,4.31-.95,8.46-0.74,12.7-0.88a7.29,7.29,0,0,0-.05,1.72h0Z" transform="translate(0 -189.01)"/><path class="cls-31" d="M223.62,225.71c7.33,3.43.34,6.4-.31,9.57l-9.86-.09c-1.58-1.42-1.53-3.13-.89-4.95C215.27,226.36,218.53,223.79,223.62,225.71Z" transform="translate(0 -189.01)"/><path class="cls-32" d="M248,235.19c3.78-9.06,7.18-10.42,14.71-5.57l-4.65,5.78Z" transform="translate(0 -189.01)"/><path class="cls-33" d="M192.76,235.46c0.37-7.44,9.16-5.41,11.69-10.41a4.12,4.12,0,0,1,1.82,1.77c1.69,4,2.52,7.61-3.42,8.53Z" transform="translate(0 -189.01)"/><path class="cls-6" d="M202.85,235.35c4.69-1.79,1.36-5.45,1.91-8.21a5.18,5.18,0,0,1,5.12-1.13c2,1,4.42,1.78,3.68,4.89q-0.05,2.15-.11,4.29Z" transform="translate(0 -189.01)"/><path class="cls-34" d="M263.09,275.42a4.4,4.4,0,0,1,.13.82c-0.07,2.33,1.29,5-1.18,6.77a2.29,2.29,0,0,1-2.09-.7c-1.6-2.82-.8-5.22,1.65-7.18A10.32,10.32,0,0,1,263.09,275.42Z" transform="translate(0 -189.01)"/><path class="cls-35" d="M210,227.45l-5.23-.31-0.31-2.09a16.32,16.32,0,0,1-.86-2.22c5.58-3,6.43-9.41,9.84-14,3.83-5.12,7.66,1.53,11.35-.38a13.67,13.67,0,0,0-2.23,11.75c-1.34,2-2.68-.1-4,0C215.1,221.94,215.17,227.81,210,227.45Z" transform="translate(0 -189.01)"/><path class="cls-36" d="M176.65,228.75c-1.64-2.12-6.2-5-4.74-5.9,3.26-2.07,4-8.94,9.6-6.39,3.63,1.65,7.74-5.24,9.52-.21s0,10.61-5,14.15C183.21,227.94,179.91,228.45,176.65,228.75Z" transform="translate(0 -189.01)"/><path class="cls-37" d="M176.65,228.75c4-4.21,7.35-5.22,9.34,1.66C182.05,234.5,178.58,236,176.65,228.75Z" transform="translate(0 -189.01)"/><path class="cls-38" d="M249.36,220.32c-1.26.24-2.9,1.26-3.14-1.07-0.67-6.45,3.23-10.31,8.47-12.3s9.4,0.18,10.62,6.23c-2.7,2.23-3.81,7.37-9.4,4.11C254,216.19,251.13,218.32,249.36,220.32Z" transform="translate(0 -189.01)"/><path class="cls-5" d="M210,227.45c4.64-.29,2.26-8.88,8.55-7.21-0.42,3.79,4.24,2.85,5.08,5.47-4.21.08-7.22,2.46-10.06,5.19Z" transform="translate(0 -189.01)"/><path class="cls-39" d="M191.08,274.42c1,2.8,4.78,5.11,1.84,8.3a2.47,2.47,0,0,1-3.79-.08C186.62,279.44,189.67,277.11,191.08,274.42Z" transform="translate(0 -189.01)"/><path class="cls-40" d="M247.81,273.64a11.72,11.72,0,0,1,2,2.5c0.91,2.12,3.49,4.14,1.06,6.7a2.74,2.74,0,0,1-3.82.13c-2.41-2.08.06-4,.46-6a31.22,31.22,0,0,0,.31-3.31h0Z" transform="translate(0 -189.01)"/><path class="cls-41" d="M44.15,274.67c0.48,2.79,4.65,5,1.74,8.16a3.16,3.16,0,0,1-3.07.06C39.09,279.87,43.59,277.56,44.15,274.67Z" transform="translate(0 -189.01)"/><path class="cls-42" d="M77.74,340.77c-6.64-.47-13.37-1.77-19.89-1.1-4,.41-2.62-1.56-2.79-3-0.22-1.92.14-2.49,2.76-2.24,11.62,1.1,12.44-.09,8.8-10.46-2.74-7.81-6-15.36-12-21.24a7.88,7.88,0,0,1-2.36-6.09,43.71,43.71,0,0,1,16.34-3c39.37-.2,78.75.43,118.12-0.33a20.64,20.64,0,0,1,11.5,2.71c0.1,1.4.85,3.43,0.21,4.09-9.17,9.37-13.05,21.59-17.43,33.3,3.19-.45,6.52,4,11.09.86,2.15-1.47,2.43,1.36,2.36,3-0.1,2.19-.24,2.78-3.44,2.35-6.28-.86-13.09-1.18-18.9,2.87a2.63,2.63,0,0,1-3.4.46c-1.94-2-2.27-5.27-5-6.71-4.26-2.3-8.85-1.72-13.37-1.53-2,.08-4.62.37-5,2.55-1.4,8.76-9.21,8.39-14.91,10.33-6.77,2.31-13.45,0-19.64-3.29-1-.53-2.18-1.05-2.62-2.11-4.67-11.3-13.29-7.91-21.53-5.84-2.8,1.16-3.38,4.13-5.05,6.22C79.54,343.62,78.69,342.09,77.74,340.77Z" transform="translate(0 -189.01)"/><path class="cls-3" d="M339.41,295.64c2.62,1.48,6.84-1.53,8.32,2.28s-2.63,5.23-4.43,7.57c-4.94,6.41-7.94,13.73-10.48,21.31s-1,9.54,6.95,8.44c1.17-.16,2.45-2.19,3.34-0.07a5.51,5.51,0,0,1-.12,4.13c-1.09,2.16-2.4-.67-3.34-0.3-6.22,2.47-14.85-3.24-19.17,5.6-4.81-4.57-8.32-11.08-16.78-9.77-3.92.61-8,.12-12,0.14-7.32.34-14.7-.88-21.86,2.36-4.39,2-8.16-3.7-12.9-2.36a29.19,29.19,0,0,1-5.13-.07c-9.83-1.44-18,1-23.74,9.63-0.81-2.43-1.4-5.37-4.92-4.54-5.58,1.33-11-2.6-16.55-.29-2.76,1.14-2.62-1.05-2.67-2.67-0.06-1.83.11-2.83,2.82-2.6,11.13,0.92,12.51-1,8.75-11.4-2.62-7.26-5.86-14.18-11.35-19.87-2.51-2.6-5.11-5.69,1.08-7.22,3-.26,5.88-1.16,8.85-1.6,16.37-.77,32.73,0,49.1-0.26,1.08,0,2.15,0,3.22,0,23.34-.12,46.67-0.12,70,0.37A12.68,12.68,0,0,1,339.41,295.64Z" transform="translate(0 -189.01)"/><path class="cls-43" d="M98.44,256.53c7.63-14.75,17.31-18.66,32.55-14.32,4.59,1.31,6.89,2.86,7.36,7.66s3.86,8.12,6.4,11.86c-2.28,7.43-.75,12.54,6.85,16.65,7.89,4.27,7.29,8.24-.91,11.44-3.28,1.28-4.26,5.73-8.4,5.34q-29.16,0-58.26,0c-6.11.13-6.56-6.47-10.54-8.86-3.16-2.29-6.36-1.75-9.58-.11-4.44-1-2.57-4.92-3.48-7.56,7.27-1.57,12.23-4.55,14.65-12.87,1.5-5.15,8.89-5,14.3-3.33,3,0.89,5.54,3,8.91,2.55,2.89,3.5,1.76,6.24-1.66,8.47-2.33,1.52-5.36,2.24-6.07,5.52-1.46,10.47-1.16,10.79,9.35,10.21,9.92-.55,14.74-5.09,15.16-14.28-0.15-12-1.11-13.24-12.85-16.47A9.31,9.31,0,0,1,98.44,256.53Z" transform="translate(0 -189.01)"/><path class="cls-44" d="M263.6,295.5a425,425,0,0,1-50.87,0c2.64-4.05,6.08-2.27,9.12-2-1-1.82-2.21-4.33-1-7.24,3.16-3.68,4-9.59,9.95-10.62,12.14,1.5,11-8.79,13.87-15.58,4.08-5.43,9.09-9.5,16.14-10,4.76-.37,9.58-0.12,9.9,6.37,0.24,4.95,6.07,4.89,7.36,8.76a1.63,1.63,0,0,1,.14.81C270.44,274.38,265,283.93,263.6,295.5Z" transform="translate(0 -189.01)"/><path class="cls-44" d="M337.42,295.58c-23.84.95-47.69,0.88-71.53,0,0.41-.17.66-2.67,0.48-4.94-1-12.38,6.14-19.09,18.11-15.66,4.48,1.29,2-2.24,3.35-2.58,4.87-2.7,8.6-8.88,15.6-5.14,10.8-.51,15.75,9.36,23.85,13.67,3.6,1.92,1.77,8.57-2.58,11.49-2.37,1.59-5.14,1.49-7.8,1.87-1.07.41,0.73,1.44,0.07,0.51-0.25-.35-0.06-0.68.54-0.64C324.15,294.53,331.23,289.12,337.42,295.58Z" transform="translate(0 -189.01)"/><path class="cls-45" d="M77.74,340.77l3.37,1.73c3.33-1.22,2.1-4.75,3.5-6.94,3.6-5.81,9.33-2.56,14.09-3.19,5.52-.74,10-0.17,10.58,7.44,0.29,4,15.8,8.72,21.32,5.47,4-2.36,14.36.61,11.36-10.08-0.13-.48.84-1.43,1.49-1.93,3.16-2.45,18.81-.81,22,2.25,1.87,2-.62,6.27,3.72,6.9h2.88c0.64,2.94-1.2,3.47-3.44,3.38a11.74,11.74,0,0,0-8.52,3.19c-3.32,2.82-7.88,3.56-11.13.75-5.12-4.45-9.59-3.26-14.47-.31-6.94,0-13.88-.29-20.82.19-3.86-2.3-7.48-5.11-11.78-.22-1.21,1.38-4.33,1.91-6.36,1.57-6-1-10.59-6.32-17.15-6.26C78.2,344.71,78,342.14,77.74,340.77Z" transform="translate(0 -189.01)"/><path class="cls-46" d="M228,344.54c1.77-9.47,7.73-12.81,16.91-11.91,3.91,0.38,7.88.15,11.83,0.2,8.84,15.38,23.69,15.81,34.9,1a50.24,50.24,0,0,1,9.51-.09c2.86,2.2,2,4.59.37,7-3.17,1-6.42,1.94-6.81,6.08-3.6-1.58-6.47,2-9.92,1.42a37.34,37.34,0,0,1-23.24,0c-3.39-.83-6.54-2.69-9.9,1-2.32,2.53-6.48,3.5-9.45,1.34C237.87,347.42,232.64,346.81,228,344.54Z" transform="translate(0 -189.01)"/><path class="cls-47" d="M144.65,294.09c-0.13-7.87,6.1-6.53,10.72-6.77,0.49-5.49-3.59-6.74-6.53-8.57-9.91-6.18-10-6.08-4.09-17,1.6,5.65,6.81,4.3,10.49,4.7a31.5,31.5,0,0,1,12,3.76c2.81,3,1.22,6.42.76,9.71-1.2,4.49,3.7,8.76.5,13.33C160.61,295.55,152.67,296.13,144.65,294.09Z" transform="translate(0 -189.01)"/><path class="cls-48" d="M144.65,294.09c8.26,0.08,16.69,1.46,24.27-3.36,0.23-.53.72-1.32,1-1.21,8.47,3.33,9.52-2.33,10.24-8.41,3.09-5.14,6.91-7.86,12.75-3.86,1.38,6.36-.34,13.59,5.3,18.74q-70.44,0-140.88,0a39.3,39.3,0,0,0-5.08.65c1-3.76,4.16-1.86,6.35-2.52,4.93-4,10.65-1.92,16.09-2.08a10,10,0,0,1,6.61,2.14Z" transform="translate(0 -189.01)"/><path class="cls-49" d="M337.42,295.58c-7.21-1.83-14.63.1-24.43-1.43,5.72-1.36,9.64-1.14,12-4.49,2.88-4.09,5.28-7.76-2.52-8.67-1.1-.13-3.06-0.53-3.1-1-0.93-9.81-11.77-7.17-15.93-12.82,10-3.14,15.28-1.08,19.8,7.86,1,2,2.75,2.68,4.75,3,10.44,1.56,13.2,8.1,11.43,17.59Z" transform="translate(0 -189.01)"/><path class="cls-50" d="M192.9,277.25c-5-.83-9.2.35-11.86,5.07-5.62,3.24-10.65,1.29-15.55-1.75,0.55-3.46,2.41-6.7,1.74-10.36C179.6,262.25,187.79,264.5,192.9,277.25Z" transform="translate(0 -189.01)"/><path class="cls-51" d="M302.17,334.64l-10.62-.22a0.87,0.87,0,0,1-.5-1.08,0.74,0.74,0,0,1,.51-0.53c6,0,11.95-.2,17.91,0,7.45,0.25,9.64,5.7,11,11.79-4.35,2.11-9.15,2.78-13.41,5.61s-9.18,1.36-12.31-3.38c-1.07-2.39-2-4.95.13-7.09,2.3-2.33,3.11,1.35,4.85,1.55C306.33,341.21,303.1,337.5,302.17,334.64Z" transform="translate(0 -189.01)"/><path class="cls-52" d="M98.44,256.53c15.31-.09,18.89,3.5,18.85,18.87-2.16.57-2.84-1.39-4.12-2.36-4.33-3.27-7.81-2.58-10.51,2.22-4.37,7.78-5.36,8-14.58,3.62,0.19-3.6,2.26-6.22,5.55-6.6,5.06-.58,4.9-3.72,4.64-7.28Q98.36,260.76,98.44,256.53Z" transform="translate(0 -189.01)"/><path class="cls-53" d="M287.84,272.36c-0.22,2.82,2.45,4.36,3.33,7.69-6.84-3.82-14.12-7.19-19.64-1-1.24,1.38-7.52,10.28.56,15.23-1.37,1.67-4.33-.31-6.2,1.3l-2.29,0c-3.67-3.43,2.39-5.3,1.33-8.26-4.51-12.67,8.42-14.93,13.15-22.08C280.22,269.07,282.79,272.39,287.84,272.36Z" transform="translate(0 -189.01)"/><path class="cls-43" d="M74.11,294.14H58.59c-1.24-2.06-5.5-1.23-4.87-5.07,2.85-4.09,7.05-2.9,11-2.81,2.59,0,5.18-.09,7.78.08C76.44,288.21,76.61,290.89,74.11,294.14Z" transform="translate(0 -189.01)"/><path class="cls-54" d="M244.69,260.07c1.46,4.73-1.81,9.32-.22,14.19,0.85,2.6-1.28,3.29-3.66,2.9-3.32-.55-6.66-1-10-1.51,4.71-1,5.92-5.28,8-8.73C240.43,264.34,241.62,261.39,244.69,260.07Z" transform="translate(0 -189.01)"/><path class="cls-55" d="M220.87,286.27c6.75,11.43-3.75,7.64-8.14,9.23l-7.58.46Z" transform="translate(0 -189.01)"/><path class="cls-56" d="M65.67,287.41c-4.13-.53-8,0.83-12,1.64-2.06-6.23,1.37-8.94,6.7-10.41,5.24,0.32-.31,6.08,3.57,7.09C65.52,285.32,66,285.95,65.67,287.41Z" transform="translate(0 -189.01)"/><path class="cls-57" d="M113.71,349.62c6.91-3.17,13.85-2.93,20.82-.19C127.61,351.75,120.66,351.52,113.71,349.62Z" transform="translate(0 -189.01)"/><path class="cls-58" d="M261.58,348.29l23.24,0C277.08,352.74,269.33,352.65,261.58,348.29Z" transform="translate(0 -189.01)"/><path class="cls-59" d="M169.2,342.41c-1.35,1.4-2.86,2-4.22.2-1.84-2.42-.42-4.78.5-7.1C171.07,335.46,168.42,339.86,169.2,342.41Z" transform="translate(0 -189.01)"/><path class="cls-26" d="M84.61,335.56c0.4,3.1,4.8,8.22-3.5,6.94C81.84,340,79.15,335.71,84.61,335.56Z" transform="translate(0 -189.01)"/><path class="cls-60" d="M132.46,338.06c-2.46,1.13-4.75,2.26-5.79-.72-0.23-.64.07-2.08,0.47-2.23C130,334,130.38,337.49,132.46,338.06Z" transform="translate(0 -189.01)"/><path class="cls-61" d="M291.56,332.8a6.54,6.54,0,0,0,0,1.61c-1.42,10-14.65,15.29-26,11-6.28-2.36-10-5.54-8.82-12.63,3.54,0.13,6.92-.69,10.31,2.24,2,1.73,4.75-2.36,8.53-2.05C280.73,333.42,286.23,332.89,291.56,332.8Z" transform="translate(0 -189.01)"/><path class="cls-62" d="M88.09,278.88c2.83,0.24,5.69.29,8.47,0.78,2.24,0.39,3.53-.39,3.39-2.45-0.39-5.76,2.3-8,7.85-8.83,6.13-1,7.63,3,9.5,7,0,9.67-6.51,16-16.12,15.61-0.28,0-.57-0.06-0.85-0.06C87.25,291.05,87.25,291.05,88.09,278.88Z" transform="translate(0 -189.01)"/><path class="cls-47" d="M74.11,294.14c-0.07-2.75,1.2-6.15-3.29-6.74-0.82-3.13,2.27-2.27,3.44-3.38,3.76,2.42,5.68,6.1,7,10.18Z" transform="translate(0 -189.01)"/><path class="cls-62" d="M74.25,284l-3.44,3.38a4.16,4.16,0,0,1-5.14,0L64,285.74C66.4,279.14,70.52,282.71,74.25,284Z" transform="translate(0 -189.01)"/><path class="cls-63" d="M253.44,294.48h-13.7l0-1,13.63-.88Z" transform="translate(0 -189.01)"/><path class="cls-64" d="M295,293.44h14.81l0.07,0.76H295.38Z" transform="translate(0 -189.01)"/><path class="cls-65" d="M307.72,287.65c-2.59,2.74-5.32,1.95-10.47,1.68C302.14,286.67,304.88,286.43,307.72,287.65Z" transform="translate(0 -189.01)"/><path class="cls-66" d="M96.25,334.68c0.19,3.08,5.22,5.55,1.45,8.76a3.17,3.17,0,0,1-3.08,0C91.09,340,96.14,337.79,96.25,334.68Z" transform="translate(0 -189.01)"/><path class="cls-67" d="M302.17,334.64c4,1.48,4.84,5.27,3.35,8-1.65,3-4.3,1.26-5.8-1.35A12.22,12.22,0,0,0,302.17,334.64Z" transform="translate(0 -189.01)"/><path class="cls-43" d="M165.48,280.56L181,282.31a50,50,0,0,1-.12,5.08c-0.28,2.34,1.08,5.5-2.3,6.52-2.85.86-5.64,0.75-6.67-3.06-0.08-.29-2-0.08-3-0.11C166.26,287.85,166.1,284.13,165.48,280.56Z" transform="translate(0 -189.01)"/><circle class="cls-68" cx="96.24" cy="150.24" r="11.5"/><path class="cls-2" d="M95.78,334.37c0.12,3.3,5.07,5.45,1.94,9a2.55,2.55,0,0,1-3.77-.18C91.26,339.68,95.91,337.62,95.78,334.37Z" transform="translate(0 -189.01)"/><circle class="cls-68" cx="153.09" cy="151.11" r="11.5"/><path class="cls-2" d="M152.63,335.25c0.12,3.3,5.07,5.45,1.94,9a2.55,2.55,0,0,1-3.77-.18C148.11,340.55,152.77,338.5,152.63,335.25Z" transform="translate(0 -189.01)"/><circle class="cls-68" cx="244.59" cy="152.75" r="11.5"/><path class="cls-2" d="M244.13,336.89c0.12,3.3,5.07,5.45,1.94,9a2.55,2.55,0,0,1-3.77-.18C239.61,342.19,244.27,340.14,244.13,336.89Z" transform="translate(0 -189.01)"/><circle class="cls-68" cx="303.43" cy="152.75" r="11.5"/><path class="cls-2" d="M303,336.89c0.12,3.3,5.07,5.45,1.94,9a2.55,2.55,0,0,1-3.77-.18C298.46,342.19,303.11,340.14,303,336.89Z" transform="translate(0 -189.01)"/></svg>