<svg id="Слой_1" data-name="Слой 1" xmlns="http://www.w3.org/2000/svg" viewBox="0 0 532.67 141.85"><defs><style>.cls-1{fill:#dde587;}.cls-1,.cls-10{stroke:#010204;}.cls-1,.cls-10,.cls-2{stroke-miterlimit:10;stroke-width:2px;}.cls-2{fill:#579f61;stroke:#191919;}.cls-3{fill:#010204;}.cls-4{fill:#1a1b19;}.cls-5{fill:#1b1b1a;}.cls-6{fill:#1b1b19;}.cls-7{fill:#87badf;}.cls-8{fill:#56a662;}.cls-9{fill:#1a1c1b;}.cls-10{font-size:106.42px;fill:#f7f7f8;font-family:Amatic SC;font-weight:700;}</style></defs><title>logo</title><ellipse class="cls-1" cx="266.33" cy="69.56" rx="265.33" ry="65.11"/><path class="cls-2" d="M77.13,483.56a3.85,3.85,0,0,1-.17-2.29,145.4,145.4,0,0,0,2.53-18.69c0.18-1.11.26-1.66,0.42-2.77,0.44-3.68.61-5.51,0.84-9.19a140.59,140.59,0,0,0-.34-21.54c-0.16-1.56-.47-5.17-1.27-10.77-0.19-1.58-.29-2.37-0.51-4A1.85,1.85,0,0,0,78,413a6.87,6.87,0,0,0-2.16-.41c-1.28-.12-2.21-0.16-2.78-0.16a10.68,10.68,0,0,0-4.81,1.16,21.59,21.59,0,0,0,.28,5.71c0.36,2.88.9,6.55,1.09,10.61,0,1,.47,5.27.54,12.87,0,3.18-.07,4.78-0.26,8-0.07,1.24,0,3.06,0,5.41a47.07,47.07,0,0,1-.34,6.29,35.12,35.12,0,0,1-.7,3.54c-0.23,1.22-.35,1.83-0.6,3-0.6,4.48-1,6.73-1.91,11.21a3.4,3.4,0,0,1-1.29,2,3.49,3.49,0,0,1-2.27.54c-1.72-.1-2.45-1-2-2.71A144.29,144.29,0,0,0,65,459.48c0.22-1.84.31-2.76,0.48-4.61a107.58,107.58,0,0,0,.19-11.37c-0.09-1.95-.22-4.77-0.51-8.43a179.75,179.75,0,0,0-3.43-22.72,3.43,3.43,0,0,1,.19-2.51,2.44,2.44,0,0,1,2-1c6.39-.39,11.51-0.4,14.87-0.45A4.78,4.78,0,0,1,82,409.55a3.48,3.48,0,0,1,1.32,2.86,36.45,36.45,0,0,0,.47,5.45c0.21,1.52.42,2.7,0.54,3.46,0.09,0.57.17,1.32,0.29,2.18s0.2,1.86.24,3c0.06,1.45.21,3.3,0.31,5.45,0.21,4.69-.13,8.25-0.18,10.1,0,1.42.12,3.95,0.07,7.28s0,5.87-.13,7.08-0.51,2.54-.65,3.86c-0.16,1.52-.23,3.88-0.34,7-0.08,2.3-.25,4.13-0.42,5.45-0.13,1-.2,1.43-0.35,2.38-0.28,2.12-.55,3.67-0.77,4.66S82,481.09,81.8,482A2.48,2.48,0,0,1,79,484.2,2.26,2.26,0,0,1,77.13,483.56Z" transform="translate(-40.67 -375.46)"/><path class="cls-2" d="M95.38,483.06a3.88,3.88,0,0,1-.13-2.35A165.43,165.43,0,0,0,98.11,464a157.25,157.25,0,0,0,1.54-18.84c0.23-11.95-1.07-24.24-5.15-35.56a3.44,3.44,0,0,1,3.21-2.35,14.1,14.1,0,0,1,6.69,1.56,16.8,16.8,0,0,1,5.44,4.4,23.58,23.58,0,0,1,5,13,25.78,25.78,0,0,1-2.43,13.45,21.16,21.16,0,0,1-8.76,9.2c-0.07,4-.16,6.05-0.43,10.09-0.11,2.12-.18,3.18-0.34,5.3-0.07,1.13-.28,2.8-0.52,4.9-0.51,4.36-1,8.1-1.51,10.89a6,6,0,0,1-1.36,3A3.32,3.32,0,0,1,96.85,484,1.52,1.52,0,0,1,95.38,483.06Zm13.49-46.78a20.66,20.66,0,0,0,1.28-9.17V427a28.9,28.9,0,0,0-1-5.81,7.8,7.8,0,0,0-1.28-2.39c-0.59-.8-0.93-1.26-1-1.39a19,19,0,0,0-3.88-3.06l-2.73-1.87c0.51,3.39,1.42,8.65,2.28,15.77,0.66,6.31.86,9.46,1,15.78A23.31,23.31,0,0,0,108.86,436.28Z" transform="translate(-40.67 -375.46)"/><path class="cls-2" d="M122.55,483.65a3.57,3.57,0,0,1-.56-2.94c0.75-3.41,1.34-6.91,1.76-10.47,0.37-3.09.83-7.8,1.07-14.1,0.11-2.88.12-7.22-.22-13-0.06-1.14-.15-2.8-0.3-5s-0.3-4.13-.44-5.79c-0.1-1.13-.21-2.85-0.35-5.13-0.22-4.11-.37-6.16-0.76-10.27a21.82,21.82,0,0,0-.47-2.52c-0.14-.93-0.22-1.39-0.37-2.31a3.4,3.4,0,0,1,.48-2.53,2.39,2.39,0,0,1,2-.93,3.25,3.25,0,0,1,3.48,2.69,33.63,33.63,0,0,1,.89,4.54,23.68,23.68,0,0,1,.07,3.63,59.78,59.78,0,0,0,0,6.76c0.11,1.21.16,1.82,0.26,3a157.66,157.66,0,0,1,.64,17c-0.09,4.8-.19,7.2-0.51,12-0.14,2.09-.3,5.21-0.61,9.38l0.55,0.11c0.62-1.57.92-2.36,1.5-3.93,2.47-6.78,4.49-13,6.24-18.57a72.67,72.67,0,0,0,2.68-12.24c0.36-2.43.67-4.39,1-5.88,1.49-7.3,2.12-11,3.2-18.27a4.48,4.48,0,0,1,1.39-2,2.45,2.45,0,0,1,1.84-.58,4.62,4.62,0,0,1,2.37,1.66,4.45,4.45,0,0,1,1.22,2.68c0.11,2.32.12,4.91,0.07,7.42-0.16,8.24-.14,13.78-0.14,15.95,0,9.07-.35,15.87-0.54,20.41-0.09,2.17-.09,5.57-0.12,10.21s-0.15,7.71-.24,9.19c-0.06,2-.09,3-0.18,5.08a5.06,5.06,0,0,1-1.37,3.34,4,4,0,0,1-2.94,1.19,2.19,2.19,0,0,1-1.72-.78,2.81,2.81,0,0,1-.58-2.09l0.12-.91c1.09-8.15,1.49-12.23,2-20.38,0.09-1.46.13-2.19,0.2-3.65,0-3.51.13-8.92,0-16.22,0-1.66,0-2.49-.06-4.16-0.06-2.68-.1-4-0.22-6.69a0.65,0.65,0,0,0-.47-0.1c-0.34,0-.83,1.61-1.46,4.62l-1.87,9c-0.62,3-1.07,4.91-1.28,5.72-0.62,2.9-1,4.55-1.18,5-2,6.4-3.85,11.73-5.36,16s-2.93,8.63-4.34,13c-0.7,2.14-2.07,3.21-4,3.18A2.84,2.84,0,0,1,122.55,483.65Z" transform="translate(-40.67 -375.46)"/><path class="cls-2" d="M163,484a4.12,4.12,0,0,1-.36-2.4c0.8-6.85,1.13-10.27,1.62-17.12,0.69-8.29.9-14.72,0.95-19.26,0.13-12.14-.67-24.59-3.89-36.37a3.76,3.76,0,0,1,3.39-2.37,13.2,13.2,0,0,1,6.56,1.64,15.48,15.48,0,0,1,5.11,4.51,24.35,24.35,0,0,1,4.31,13.27,28.62,28.62,0,0,1-2.72,13.7,21.7,21.7,0,0,1-8.71,9.39c0,4.12,0,6.18-.13,10.3,0,2.16,0,3.24-.08,5.41,0,1.16-.12,2.87-0.22,5-0.22,4.46-.36,8.27-0.64,11.12a5.7,5.7,0,0,1-1.08,3.05,3,3,0,0,1-2.52,1.1A1.7,1.7,0,0,1,163,484Zm11.44-47.81a22.74,22.74,0,0,0,1.51-9.35v-0.1a31.54,31.54,0,0,0-.71-5.92,7.69,7.69,0,0,0-1.16-2.45c-0.55-.81-0.86-1.29-0.93-1.43a17.79,17.79,0,0,0-3.68-3.15l-2.6-1.92c0.26,3.47.83,8.84,1.46,16.11,0.45,6.45.61,9.67,0.79,16.12A24.77,24.77,0,0,0,174.47,436.17Z" transform="translate(-40.67 -375.46)"/><path class="cls-2" d="M196.86,485.71a14.26,14.26,0,0,1-3.32-5c-1.62-3.7-2.66-8.77-3.29-15.18-0.43-4.43-.75-9.56-1-15.36,0-2.17,0-3.26,0-5.43s0-3.32,0-5.53c-0.07-1.77-.12-3.92-0.16-6.45-0.07-4.1,0-7.75.19-10.85a44.29,44.29,0,0,1,1.46-9.74,10.11,10.11,0,0,1,4-6,7.61,7.61,0,0,1,3.38-.84,9.55,9.55,0,0,1,8.16,4.28,28.71,28.71,0,0,1,4.55,10.77,86.89,86.89,0,0,1,1.88,13.76c0.23,4.81.41,9.45,0.38,13.76,0,2.34,0,3.51,0,5.85,0,1.16-.19,3.36-0.56,6.57-0.29,2.53-.47,4.69-0.51,6.47v0.41a37.21,37.21,0,0,0-.76,6.77,17,17,0,0,1-1.35,6,16.62,16.62,0,0,1-3.48,5.22,6.92,6.92,0,0,1-4.95,2.44A6.62,6.62,0,0,1,196.86,485.71Zm8.53-7.55a37.32,37.32,0,0,0,2-8.26c0.45-3.25.83-6.95,1.17-11,0.15-1.77.26-4.07,0.29-6.88,0-3.78,0-5.67,0-9.44s-0.53-8.33-1.21-13.86a48.51,48.51,0,0,0-3.1-12.51,11.36,11.36,0,0,0-2.5-4,4.39,4.39,0,0,0-3.08-1.43c-1.58,0-2.63,1.43-3.32,4A49.25,49.25,0,0,0,194,424c-0.25,3.61-.42,7.07-0.44,10.35,0,1.35,0,2-.06,3.38-0.06,1-.08,2.25-0.08,3.89,0,0.16,0,.25,0,0.41,0,4.58.45,10.27,1.07,16.91,0.83,9,1.88,15.55,3.65,19.39q1.72,3.6,3.82,3.61C203.24,481.95,204.41,480.68,205.39,478.16Z" transform="translate(-40.67 -375.46)"/><path class="cls-2" d="M250,494.51a3.36,3.36,0,0,1-.87-2.21q0-1.75.43-9.76a15,15,0,0,0-4.22-.61,43.46,43.46,0,0,0-5.64.52l-2.3.31q-7,.82-11,1.12-0.38,0-5.09.3,0,1,0,3c0,1.3-.06,2.36-0.14,3.19a4,4,0,0,1-.8,2.16,1.93,1.93,0,0,1-1.54.82,2.3,2.3,0,0,1-1.25-.41,7.15,7.15,0,0,1-1.54-2.78,26.27,26.27,0,0,1,0-4.42c0-1.11,0-1.66,0-2.77a2.48,2.48,0,0,1,.82-1.8,3.44,3.44,0,0,1,2.42-1.07c2.86-.19,4.75-1.94,5.63-5.23a54.94,54.94,0,0,0,1.31-5.7q0.61-3.34.82-5.91c1-9,1.4-16,1.4-20.76,0-1.64,0-4.07-.19-7.19-0.11-2.17-.2-3.8-0.2-4.83,0-2.88-.09-5.07-0.13-6.47-0.16-5.7-.14-9.53-0.3-11.1a5.51,5.51,0,0,1,.62-3.44,3.33,3.33,0,0,1,2.64-1.6c3-.35,4.87-0.52,5.5-0.52a11,11,0,0,1,3.51.51A4,4,0,0,0,241,408a2.5,2.5,0,0,1,.81.1,4.73,4.73,0,0,1,2.51.82q0.71,0.62.69,3c-0.05,2.84-.08,4.26-0.13,7.09,0,1.58,0,2.76.08,3.5,0.57,11.17.61,23,1,34.54,0,1.11.06,1.66,0.1,2.77q0.21,5.24.53,10.64a52.43,52.43,0,0,0,.82,7.55,21.52,21.52,0,0,1,5.38.51,2.44,2.44,0,0,1,1.91,2.57,2.87,2.87,0,0,1-.08.82q-0.24,2.06-.48,4.52c-0.16,1.64-.18,3.13-0.29,4.21a16.73,16.73,0,0,0-.05,2,4.17,4.17,0,0,1-.39,2.16,1.8,1.8,0,0,1-1.69.72A2.35,2.35,0,0,1,250,494.51Zm-14.58-15.77,6.76-.51q0.18-2.26.18-3.29c0-1-.14-2.66-0.2-4.93,0-.47-0.05-1.27-0.15-2.36s-0.15-2.09-.15-3c-0.27-6.54-.41-9.81-0.67-16.34,0-4.07,0-6.11,0-10.18-0.44-9.46-.66-14.19-1.11-23.64a9.16,9.16,0,0,0-.28-2.57,8.22,8.22,0,0,0-3.4-.51,24.56,24.56,0,0,0-4,.31c0,6.45.07,9.68,0.09,16.14,0,3.12,0,4.69,0,7.81-0.17,9.32-.52,17.59-1,24.77a97.06,97.06,0,0,1-1.25,10.48q-0.95,5.45-1.76,8.32Q232.8,478.84,235.46,478.74Z" transform="translate(-40.67 -375.46)"/><path class="cls-2" d="M267.83,485.78a15.9,15.9,0,0,1-3.83-5c-2-3.69-3.44-8.77-4.44-15.19-0.69-4.44-1.23-9.59-1.57-15.41,0-2.18-.07-3.27-0.11-5.45s0-3.33,0-5.55q-0.09-2.67-.07-6.47c0-4.11.26-7.77,0.57-10.89a41.64,41.64,0,0,1,2-9.76,11,11,0,0,1,4.51-5.95,8,8,0,0,1,3.45-.81,8.78,8.78,0,0,1,7.81,4.34,28.55,28.55,0,0,1,3.85,10.78,107.34,107.34,0,0,1,1.39,13.74c0.14,4.8.32,9.43,0.36,13.74,0,2.34,0,3.51.08,5.84,0,1.16-.09,3.35-0.32,6.56a61.82,61.82,0,0,0-.17,6.46l0,0.41a33.59,33.59,0,0,0-.28,6.77,17,17,0,0,1-.84,6,15.12,15.12,0,0,1-3,5.25,6.21,6.21,0,0,1-4.68,2.48A7.28,7.28,0,0,1,267.83,485.78Zm7.8-7.63a39,39,0,0,0,1.32-8.26c0.23-3.25.39-6.95,0.57-11,0.08-1.77.1-4.07,0.06-6.87-0.09-3.77-.12-5.66-0.16-9.44s-0.5-8.32-1-13.85a52.83,52.83,0,0,0-2.51-12.52,10.68,10.68,0,0,0-2.23-4,4.08,4.08,0,0,0-3-1.45c-1.58,0-2.74,1.41-3.6,4A45.65,45.65,0,0,0,263,424c-0.41,3.61-.68,7.09-0.76,10.37,0,1.36-.07,2-0.11,3.39q-0.1,1.44-.1,3.9c0,0.16,0,.25,0,0.41A133.73,133.73,0,0,0,263.49,459c1.21,9,2.8,15.57,4.91,19.4,1.36,2.39,2.75,3.58,4.15,3.58S274.87,480.68,275.63,478.15Z" transform="translate(-40.67 -375.46)"/><path class="cls-2" d="M297.6,481.73a16.77,16.77,0,0,1-.91-1.84,29.19,29.19,0,0,1-1.68-3.57,10.77,10.77,0,0,1-.67-3.17c0-.45,0-0.68,0-1.13a4.41,4.41,0,0,1,.46-1.95,1.86,1.86,0,0,1,1.17-1,2.75,2.75,0,0,1,2.15.55,3.89,3.89,0,0,1,1.48,1.88c0.25,0.66.61,1.63,0.94,2.86a35.17,35.17,0,0,0,1.92,5.31,2.15,2.15,0,0,0,2,1.32,4.65,4.65,0,0,0,1.13-.21,7.58,7.58,0,0,0,4.27-4.63,33,33,0,0,0,1.45-11.44,34.86,34.86,0,0,0-.73-5l-0.27-2c-0.09-.64-0.18-1.31-0.26-2a11.32,11.32,0,0,0-2.3-5.51,9.71,9.71,0,0,0-4.89-3c-0.19-.07-0.69-0.19-1.49-0.36a4,4,0,0,1-2-1,2.67,2.67,0,0,1-.8-1.89c-0.07-1.85,1.37-3.14,4.18-3.88a6.74,6.74,0,0,0,3.93-3.16c2.38-2.38,3.62-5.84,3.8-10.4a32.27,32.27,0,0,0-.81-8.37,5.36,5.36,0,0,0-2.32-3.64,7.33,7.33,0,0,0-4.16-1.3,6.83,6.83,0,0,0-5.54,2.94c-0.27.34-.75,1.05-1.42,2.14a18.5,18.5,0,0,1-2.39,3.37,2.56,2.56,0,0,1-1.53.81,2.16,2.16,0,0,1-1.71-.67,2.79,2.79,0,0,1-.65-1.49,7.27,7.27,0,0,1,0-1.23,11,11,0,0,1,2.12-6.14,14.65,14.65,0,0,1,5-4.38,12.14,12.14,0,0,1,5.86-1.6,14,14,0,0,1,6.78,2,10.84,10.84,0,0,1,5.52,8.5,35.17,35.17,0,0,1,.29,6.42,43.13,43.13,0,0,1-1.54,9.17,22.83,22.83,0,0,1-4.94,9l-1.86.92c2,0.48,3.88,2.11,5.53,4.89a17.59,17.59,0,0,1,2.65,8.35,25.33,25.33,0,0,0,.43,3.46c0.21,1.18.27,2.1,0.32,2.55,0.07,0.65.19,1.66,0.27,3a38.6,38.6,0,0,1-.68,10.71c-1.31,6.47-4.58,9.74-10,9.78a20.9,20.9,0,0,1-3-.28A6.57,6.57,0,0,1,297.6,481.73Z" transform="translate(-40.67 -375.46)"/><path class="cls-2" d="M342.15,484.71a4.76,4.76,0,0,1-1-2.37c-1.71-11.85-2.84-23.79-3.64-35.74a20.82,20.82,0,0,0-3.17-.4c-2.54,0-5.2.3-5.48,0.72-0.91,1.41.54,9.55,1.6,17.16,1.13,8.06,2.06,13.87,2.49,17.25a3.09,3.09,0,0,1-.33,1.88,1.46,1.46,0,0,1-1.32.88c-0.83,0-1.92-1.59-2.89-4.65-2.87-9.1-3.82-19.27-4.51-29a282.14,282.14,0,0,1,.06-32.13c0.09-2.09.28-5.09,0.65-9a1.69,1.69,0,0,1,1.8-1.82,4,4,0,0,1,1.89.53,3.77,3.77,0,0,1,1.35,1.13,56.24,56.24,0,0,0-1.07,7.61c-0.22,2.84-.29,6.34-0.27,10.36,0,4.62,0,8.19,0,10.56,0,0.73,0,1.1,0,1.83a16.42,16.42,0,0,0-.1,1.93,22.31,22.31,0,0,0,.19,2.64q0.56,0,1.86-.1c0.87-.07,1.75-0.2,2.6-0.31a36.16,36.16,0,0,1,4.56-.31c0-5.87.05-11.31,0.19-16.31,0.27-6.77.51-10.15,1.19-16.92,0.12-1.09.18-1.64,0.32-2.73a4.66,4.66,0,0,1,2.13.48,3,3,0,0,1,1.28,1.18,7.07,7.07,0,0,1,.61,3.85c-0.1.93-.15,1.4-0.24,2.33a231.59,231.59,0,0,0-.27,33.28c0.58,11.06,2.1,22.31,3.79,33.36a3.83,3.83,0,0,1-.42,2.54,2,2,0,0,1-1.79,1.14A2.44,2.44,0,0,1,342.15,484.71Z" transform="translate(-40.67 -375.46)"/><path class="cls-2" d="M375.45,483.05a3,3,0,0,1-1.11-2c-1-5.24-1.41-7.87-2.08-13.11a14.34,14.34,0,0,0-4.8-1.56,49.49,49.49,0,0,0-6.49-.84,15.72,15.72,0,0,0-.92,5.14c0,0.81-.07,1.21-0.12,2,0,0.47-.05,1.51-0.13,3.13a39.16,39.16,0,0,1-.4,4.19,8.67,8.67,0,0,1-.68,2.78c-0.89.61-4-.62-4.55-2,0.53-1.08.8-4.25,1-9.5,0.34-7.39.64-11.08,1.52-18.45a183.59,183.59,0,0,1,3.78-22.33,90.45,90.45,0,0,1,5-15.44c2-4.59,3.8-6.89,5.13-6.87s2.77,0.45,2.91.84c0.47,1.32-.94,9.16-0.39,19.32,0.54,10,1.42,16.83,1.55,20.49a92.92,92.92,0,0,0,2.16,15.18c1.41,6.67,2.64,12.07,3.42,16.06,0.44,2.26-.36,3.41-2.48,3.45A4,4,0,0,1,375.45,483.05Zm-4-21.21c-0.47-2.93-1.09-6.58-1.7-10.91-2.13-15-1.83-24.34-1.53-27.75l0.07-.8c-0.69.66-1.85,3.68-3.2,9.06A140.28,140.28,0,0,0,362,448.76a80.78,80.78,0,0,0-.78,12.26,29.16,29.16,0,0,0,8.45,1.14A7.2,7.2,0,0,0,371.48,461.85Z" transform="translate(-40.67 -375.46)"/><path class="cls-2" d="M393.51,483a4.75,4.75,0,0,1-1.69-2.86c-0.52-3.37-1.08-6.82-1.63-10.33-0.48-3-1.2-7.69-1.82-13.9-0.28-2.84-.79-7.11-1.21-12.81-0.07-1.13-.17-2.77-0.25-4.92s-0.09-4.07-.08-5.72c0-1.12.06-2.82,0.24-5.07,0.36-4.05.59-6.08,1.18-10.14,0.08-.6.13-1.42,0.16-2.49s0.15-1.37.26-2.29a4.12,4.12,0,0,1,1.22-2.47,3.2,3.2,0,0,1,2.29-.86c1.83,0,2.72,1,2.65,2.72-0.07,2-.19,3.47-0.33,4.46a31.29,31.29,0,0,1-.77,3.56,38.49,38.49,0,0,0-1.18,6.64c-0.07,1.19-.09,1.78-0.14,3-0.18,6.08-.13,11.66,0,16.75,0.12,4.72.26,7.08,0.71,11.79,0.19,2,.57,5.12,1.3,9.22l0.58,0.09c0.22-1.55.34-2.33,0.6-3.88a149.72,149.72,0,0,1,4-18.23c0.81-2.57,1.7-6.55,3-11.94a58.75,58.75,0,0,1,1.61-5.71A151.25,151.25,0,0,1,411.44,410a6.59,6.59,0,0,1,2-1.89,2.41,2.41,0,0,1,3.85,1.15,3.47,3.47,0,0,1,.4,2.61c-0.56,2.22-1.23,4.71-1.84,7.14a85.89,85.89,0,0,0-2.49,15.38,121.84,121.84,0,0,0,0,19.71,77.68,77.68,0,0,0,1.6,9.85c1,4.47,1.79,7.43,2.15,8.86,0.56,2,.86,2.94,1.48,4.89a4,4,0,0,1-.14,3.25,2.75,2.75,0,0,1-2.47,1.24,3.18,3.18,0,0,1-2-.7,3.89,3.89,0,0,1-1.37-2l-0.21-.89A135.05,135.05,0,0,1,409,458.84c-0.16-1.42-.23-2.12-0.35-3.54a129.55,129.55,0,0,1-.95-15.73c0-1.61,0-2.42.11-4,0.1-2.6.18-3.89,0.4-6.49a0.62,0.62,0,0,0-.46-0.1c-0.35,0-1.07,1.55-1.93,4.47s-1.61,5.84-2.22,8.76-0.94,4.78-1.1,5.57c-0.45,2.83-.68,4.44-0.77,4.84a140.93,140.93,0,0,0-2.45,15.69,83.28,83.28,0,0,0-.19,12.76c0.12,2.1-.78,3.2-2.7,3.24A4.31,4.31,0,0,1,393.51,483ZM399,400a6.38,6.38,0,0,1-.84-5.4l0.08-.3a3.16,3.16,0,0,1,2.39-2.24,2.89,2.89,0,0,1,2,.15,1.73,1.73,0,0,1,1.16,1.22,1.87,1.87,0,0,1,.08.75,6.66,6.66,0,0,0,0,.75c0.11,1,.52,1.5,1.23,1.52a2.27,2.27,0,0,0,1.42-.56,19.42,19.42,0,0,0,3.23-3.7c1.06-1.49,2-2.14,2.67-1.92a2.28,2.28,0,0,1,1.41,1.28,1.81,1.81,0,0,1-.13,1.83c-1.13,1.76-2.13,3.22-3,4.39a13.72,13.72,0,0,1-3.22,3,11.94,11.94,0,0,1-1.91.9q-1.12.42-1.55,0.61A6.49,6.49,0,0,1,399,400Z" transform="translate(-40.67 -375.46)"/><path class="cls-3" d="M487.73,375.47a63.21,63.21,0,0,1,15.44,2.47,113,113,0,0,1,16.85,6.5c3,1.4,6,2.93,8.91,4.47,0.24,0.42,0,.65-0.33.84a4.61,4.61,0,0,1-2-.9c-2.88-1.55-5.83-2.94-8.8-4.3a118.09,118.09,0,0,0-12.29-4.82A63.92,63.92,0,0,0,494,377a51.18,51.18,0,0,0-12.12-.37,80.19,80.19,0,0,0-10.52,1.79,73.66,73.66,0,0,0-17.72,6.76,66.08,66.08,0,0,0-18.07,14.26,70.16,70.16,0,0,0-8,11,68.8,68.8,0,0,0-6.17,14.48,62.81,62.81,0,0,0-2.08,8.51c-0.31,1.87-.48,3.76-0.62,5.66q-0.18,2.56-.12,5.11a78.62,78.62,0,0,0,.65,7.95,91.54,91.54,0,0,0,2.17,11.26,70.39,70.39,0,0,0,4.26,11.91,66.6,66.6,0,0,0,9.48,14.92A72.82,72.82,0,0,0,446.2,501a83.21,83.21,0,0,0,14.74,9.3A56.68,56.68,0,0,0,475,514.9a71.69,71.69,0,0,0,7.79,1.07,61.9,61.9,0,0,0,8.18.31c2.34-.12,4.68-0.24,7-0.46,2.83-.27,5.63-0.69,8.43-1.15,2.19-.36,4.35-0.86,6.52-1.36a68.29,68.29,0,0,0,15.39-5.43,45,45,0,0,0,10.59-7.27,42,42,0,0,0,9.67-13.44,73.42,73.42,0,0,0,4.6-15.47c0.54-2.6,1-5.21,1.53-7.83,0.68-3.65,1.33-7.3,2.05-10.94,0.48-2.43,1.1-4.84,1.5-7.28a47.63,47.63,0,0,0,.67-11.38,43.75,43.75,0,0,0-4.2-15.05,84.16,84.16,0,0,0-7-12.65,1,1,0,0,1-.24-0.65,0.49,0.49,0,0,1,.66-0.41,26.9,26.9,0,0,1,2.94,4.49A93.09,93.09,0,0,1,557,422a41.15,41.15,0,0,1,2.87,11.34,20.89,20.89,0,0,1,.16,2.46,9.33,9.33,0,0,1,0,2.83,50.61,50.61,0,0,1-1.45,10.55c-1.68,7.55-2.8,15.22-4.39,22.79-1.31,6.23-2.84,12.41-5.83,18.1a42,42,0,0,1-9.95,12.38c-6.44,5.53-14,8.87-22.07,11.07a113.59,113.59,0,0,1-14.85,3c-2.09.28-4.2,0.45-6.31,0.62-3,.24-6.06.18-9.09,0.12A64,64,0,0,1,470,514.81a56.66,56.66,0,0,1-11.39-4.49,91.34,91.34,0,0,1-14.2-9.37,76.07,76.07,0,0,1-8.21-7.75A66.34,66.34,0,0,1,427.33,481a71.73,71.73,0,0,1-7.53-19.45,88.64,88.64,0,0,1-2.12-13.49,74.13,74.13,0,0,1-.09-9.44,56.63,56.63,0,0,1,2.74-14,81.9,81.9,0,0,1,3.69-9.79,67.27,67.27,0,0,1,27.85-29.93,76.76,76.76,0,0,1,22.82-8.29c2.68-.53,5.4-0.85,8.11-1.13,1-.1,2,0.16,3,0A4.54,4.54,0,0,0,487.73,375.47Z" transform="translate(-40.67 -375.46)"/><path class="cls-3" d="M528.57,389.61l0.35-.7a71.66,71.66,0,0,1,12.56,8.88,57.66,57.66,0,0,1,6.49,7.27,2.33,2.33,0,0,1,.22.47l-0.53.35c-0.77,0-.92-0.75-1.26-1.19a52.35,52.35,0,0,0-13.47-12.13c-1.25-.81-2.55-1.55-3.82-2.34A0.73,0.73,0,0,1,528.57,389.61Z" transform="translate(-40.67 -375.46)"/><path class="cls-3" d="M560,438.59v-2.83A4.84,4.84,0,0,1,560,438.59Z" transform="translate(-40.67 -375.46)"/><path class="cls-3" d="M487.73,375.47a2.39,2.39,0,0,1-1.94,0h1.94Z" transform="translate(-40.67 -375.46)"/><path class="cls-4" d="M528.57,389.61a71.44,71.44,0,0,1,10.79,7.32,51.47,51.47,0,0,1,8.31,9,83.74,83.74,0,0,1,9.82,19.51,37.57,37.57,0,0,1,1.83,14.28,82.3,82.3,0,0,1-1.91,11.65c-1.37,6.8-2.55,13.64-3.92,20.45-1.2,6-2.67,11.91-5.47,17.39a42.4,42.4,0,0,1-16.07,17.07c-7.07,4.31-14.86,6.62-22.9,8.24a111,111,0,0,1-11.59,1.72,76.25,76.25,0,0,1-10.84.37,69.27,69.27,0,0,1-20.23-3.7,63.51,63.51,0,0,1-10.6-5,85.92,85.92,0,0,1-12.85-9.15,71.37,71.37,0,0,1-7.56-7.65,67.38,67.38,0,0,1-13.93-26.22,92.8,92.8,0,0,1-2.8-14.54,62.11,62.11,0,0,1-.37-10.22,67.93,67.93,0,0,1,4.44-20,64.91,64.91,0,0,1,9.16-16.65,68.08,68.08,0,0,1,9.13-9.79,64.94,64.94,0,0,1,16-10.45A74.18,74.18,0,0,1,478,376.85a52.54,52.54,0,0,1,9.4-.67,64.6,64.6,0,0,1,15.72,2.51,128.18,128.18,0,0,1,21.95,9C526.27,388.3,527.41,389,528.57,389.61Z" transform="translate(-40.67 -375.46)"/><path class="cls-5" d="M418.77,440.71v-0.35a1,1,0,0,0,.26-0.88c-0.07-.59,0-1.18-0.08-1.77,0.23-1.57.44-3.13,0.68-4.7a64.39,64.39,0,0,1,2.88-10.83,63.15,63.15,0,0,1,4.07-9.48,67.75,67.75,0,0,1,8-11.73A65.23,65.23,0,0,1,449,388.26a73,73,0,0,1,32.9-11.32,34.86,34.86,0,0,1,4.29-.38c1.43,0,2.85.27,4.28,0.37a59.74,59.74,0,0,1,10,1.62,85.34,85.34,0,0,1,10.09,3.21,144.28,144.28,0,0,1,14.72,6.65,74,74,0,0,1,13.61,8.81A48.94,48.94,0,0,1,550.26,411,81.16,81.16,0,0,1,557,425.7a45,45,0,0,1,1.69,8.73,31.09,31.09,0,0,1,.16,4.09,35.32,35.32,0,0,1-.41,4.1,94.51,94.51,0,0,1-1.95,9.95c-1.21,5.94-2.18,11.92-3.36,17.86a6.39,6.39,0,0,0-.35,1.77c-0.16.52-.2,1.07-0.35,1.59-0.17.77-.36,1.53-0.53,2.3l-0.35,1.41c-0.22.64-.31,1.31-0.53,1.94s-0.37,1.17-.53,1.77a19.73,19.73,0,0,1-.71,2.12,0.69,0.69,0,0,0-.18.53c-0.23.45-.3,1-0.53,1.41A59,59,0,0,1,545,493a40,40,0,0,1-4.13,5.27,44,44,0,0,1-10.74,8.34,68.72,68.72,0,0,1-19,6.87c-4,.87-8,1.42-12,2a9.06,9.06,0,0,0-1.83.21,6.13,6.13,0,0,0-1.94,0,2.86,2.86,0,0,1-1.24.35,3,3,0,0,0-2.65,0h-0.53a11.91,11.91,0,0,1-3.18,0H487a2.59,2.59,0,0,0-2.48,0l-1.06-.18c-0.6-.56-1.3-0.1-1.94-0.18-1.57-.23-3.13-0.45-4.69-0.7a57,57,0,0,1-14.17-4.21,79.11,79.11,0,0,1-17.81-11.2,68.32,68.32,0,0,1-23.1-35.5,97.09,97.09,0,0,1-2.6-13.94,14.63,14.63,0,0,0-.4-2.69,1.75,1.75,0,0,0,0-1.94v-0.35A22.28,22.28,0,0,1,418.77,440.71Z" transform="translate(-40.67 -375.46)"/><path class="cls-6" d="M553.15,470.42c0.25-2.36.81-4.67,1.22-7,0.57-3.23,1.18-6.46,1.78-9.68a2.92,2.92,0,0,1,.35-1.17c-0.28,2.42-.85,4.79-1.27,7.18-0.57,3.23-1.17,6.46-1.76,9.68A2.2,2.2,0,0,1,553.15,470.42Z" transform="translate(-40.67 -375.46)"/><path class="cls-6" d="M418.77,440.71v4.42A11.5,11.5,0,0,1,418.77,440.71Z" transform="translate(-40.67 -375.46)"/><path class="cls-6" d="M418.95,437.71c0.19,0.9.49,1.81-.18,2.65C419.2,439.5,418.55,438.57,418.95,437.71Z" transform="translate(-40.67 -375.46)"/><path class="cls-6" d="M491.44,516a2.48,2.48,0,0,1,2.65,0A5,5,0,0,0,491.44,516Z" transform="translate(-40.67 -375.46)"/><path class="cls-6" d="M484.55,516a2.2,2.2,0,0,1,2.48,0A4.22,4.22,0,0,0,484.55,516Z" transform="translate(-40.67 -375.46)"/><path class="cls-6" d="M487.73,516h3.18A6,6,0,0,1,487.73,516Z" transform="translate(-40.67 -375.46)"/><path class="cls-6" d="M418.77,445.49a1.44,1.44,0,0,1,0,1.94A3.27,3.27,0,0,0,418.77,445.49Z" transform="translate(-40.67 -375.46)"/><path class="cls-6" d="M551.91,476.08a5.74,5.74,0,0,1,.53-2.3A5.74,5.74,0,0,1,551.91,476.08Z" transform="translate(-40.67 -375.46)"/><path class="cls-6" d="M549.79,483.33a6.41,6.41,0,0,1,.71-2.12A4,4,0,0,1,549.79,483.33Z" transform="translate(-40.67 -375.46)"/><path class="cls-6" d="M481.54,515.68c0.67-.19,1.35-0.46,1.94.18C482.87,515.46,482.17,516,481.54,515.68Z" transform="translate(-40.67 -375.46)"/><path class="cls-6" d="M495.33,515.68a2.39,2.39,0,0,1,1.94,0C496.63,516,496,515.59,495.33,515.68Z" transform="translate(-40.67 -375.46)"/><path class="cls-6" d="M551,479.44a4.17,4.17,0,0,1,.53-1.94A4.17,4.17,0,0,1,551,479.44Z" transform="translate(-40.67 -375.46)"/><path class="cls-6" d="M550.5,481.2a3.49,3.49,0,0,1,.53-1.77A3.49,3.49,0,0,1,550.5,481.2Z" transform="translate(-40.67 -375.46)"/><path class="cls-6" d="M552.44,473.78a3,3,0,0,1,.35-1.59A3,3,0,0,1,552.44,473.78Z" transform="translate(-40.67 -375.46)"/><path class="cls-6" d="M549.08,485.27a2.38,2.38,0,0,1,.53-1.41A2.38,2.38,0,0,1,549.08,485.27Z" transform="translate(-40.67 -375.46)"/><path class="cls-7" d="M498.37,398.65a23.39,23.39,0,0,0,7.84-1.81,33.53,33.53,0,0,0,5.54-2.8l0.57-.39a3.66,3.66,0,0,1,1.05-.68h0a1.24,1.24,0,0,1,1-.85l0.36-.37c2.13-2.13,2-2,4.3-.82a73.14,73.14,0,0,1,6.34,3.66,2.51,2.51,0,0,0,.39.16,6.71,6.71,0,0,1,2.67,1.79l0.19,0.14c0.43,0.24,1.22.18,0.9,1.06a18.33,18.33,0,0,1-4.74,4.15c-4.72,3.15-7.87,7.43-8.73,13.2a57,57,0,0,0-.67,9.42,16.94,16.94,0,0,0,.49,4,1.77,1.77,0,0,0,1.61,1.4,10.57,10.57,0,0,0,2.11.08c1.21-.06,2.41-0.09,3.62-0.09a2.82,2.82,0,0,1,2.56,1.46c0.5,0.86,1,1.75,1.45,2.62,1.41,2.53,3,3.3,5.71,2.34a5.38,5.38,0,0,1,6.16,1.49,8,8,0,0,0,6.22,2.37c2.36,0,4.7-.38,7.06-0.37,1.13,0,1.28.14,1.34,1.24,0,0.21,0,.41,0,0.62,0,2.31-.3,2.63-2.55,2.92-5,.65-10,1.23-15,1.72a38.2,38.2,0,0,0-4.91.56,2.63,2.63,0,0,1-2-.59,20.06,20.06,0,0,1-2.28-1.66,17.16,17.16,0,0,0-10.27-3.93c-5.76-.43-11.51-0.91-17.27-1.15a22,22,0,0,0-3.18.09,1.3,1.3,0,0,0-1.31,1.19,10.39,10.39,0,0,0-.11,1.32c0,4.39,0,8.78-.34,13.16-0.15,2.19-.82,4.27-1.14,6.42a12,12,0,0,0,2.11,9.46,6.67,6.67,0,0,0,3.1,2.26l8.29,3a4.5,4.5,0,0,1,3.26,3.64c0.6,3.05,1.51,6,2.26,9.06a42.26,42.26,0,0,0,5,11.82,18.8,18.8,0,0,1,1.94,4c0.37,1.17.26,1.41-.86,1.86a61.31,61.31,0,0,1-17.26,4.11,78.44,78.44,0,0,1-12.7.15c-2.54-.17-2.51-0.14-3-2.62-1-4.9-1.93-9.8-3.19-14.64-0.41-1.59-1.25-3-1.49-4.69a8.59,8.59,0,0,1,.55-5.15A83.72,83.72,0,0,0,486,472c1-3.51-.24-6.41-2.28-9.09a5.07,5.07,0,0,0-4.1-1.73c-4.42-.18-8.83.24-13.25,0.28a85.41,85.41,0,0,1-15.73-1.26,1.43,1.43,0,0,0-.35-0.06c-2.07.17-3.17-1-4-2.71-1.32-2.62-2.77-5.18-3.88-7.9-0.17-.41-0.3-0.83-0.45-1.24a1.13,1.13,0,0,1,.73-1.66c1.71-.7,3.39-1.48,5.08-2.23,0.24-.11.47-0.24,0.72-0.33a3.85,3.85,0,0,0,2.8-4.32,7.82,7.82,0,0,1,.35-2.88,1.53,1.53,0,0,1,1.84-1.36c2.47,0.08,4.94.21,7.42,0.28a26,26,0,0,0,3.35-.11c3.12-.33,4.88-2.05,5.42-5.22a26.6,26.6,0,0,0-1.2-12.69,3.39,3.39,0,0,0-2.08-2.23c-4-1.66-8.08-3-12.11-4.56a70.58,70.58,0,0,1-11.74-5.83,7.82,7.82,0,0,1-2-1.68,1.26,1.26,0,0,1,0-1.75,34.41,34.41,0,0,1,10-9.25,9,9,0,0,1,4.45-.92,16,16,0,0,1,9.52,2.67,11.62,11.62,0,0,0,4.31,2.14,27.31,27.31,0,0,0,6.51.18,25.67,25.67,0,0,0,4.19-.44c0.38-.34.85,0.06,1.25-0.15a12.89,12.89,0,0,1,4.35.19,5.77,5.77,0,0,1,2.53.83,13.84,13.84,0,0,0,3.65.93c0.84,0,1.59.45,2.43,0.55a17.84,17.84,0,0,0,2.52.16A7.26,7.26,0,0,0,498.37,398.65Z" transform="translate(-40.67 -375.46)"/><path class="cls-8" d="M505.23,443.53a38.25,38.25,0,0,1,10.29.52,6.6,6.6,0,0,1,3.65,2,45.4,45.4,0,0,0,3.85,3.77,5.91,5.91,0,0,0,4.53,1.53c5.43-.44,10.87-0.8,16.3-1.15,2.53-.16,5.06-0.3,7.59-0.27,0.79,0,1.1.22,1,1.08a187.65,187.65,0,0,1-5.14,26.22,44.65,44.65,0,0,1-16.76,24.14,14.82,14.82,0,0,1-6.18,2.48,1.22,1.22,0,0,1-1.46-.77,68.87,68.87,0,0,1-7.06-20.71,43.53,43.53,0,0,0-1.58-6.24,5,5,0,0,0-4-3.67c-2.62-.54-5.14-1.46-7.7-2.23-3.07-.93-4.2-3.15-4.59-6a24.32,24.32,0,0,1,.18-5.11c0.36-4.64.45-9.29,0.68-13.94,0-.23,0-0.47.07-0.7a0.85,0.85,0,0,1,1-.91C501.7,443.56,503.46,443.53,505.23,443.53Z" transform="translate(-40.67 -375.46)"/><path class="cls-8" d="M457.16,431.17a54.79,54.79,0,0,0-6.62-.06,3.34,3.34,0,0,0-2.67,1.5,7.12,7.12,0,0,0-1.25,5.11c0,0.2.07,0.41,0.09,0.61,0.14,1.65,0,1.9-1.57,2.47a56.36,56.36,0,0,0-6.71,2.7c-3.15,1.63-3.42,2.28-2.22,5.56s2.85,6.46,4.23,9.71c0.29,0.68.55,1.36,0.78,2.06,0.15,0.46.07,0.79-.55,0.79a39.08,39.08,0,0,1-13.09-2.12,3.91,3.91,0,0,1-2.64-3.07,51.69,51.69,0,0,1,.24-25.85,67.86,67.86,0,0,1,8.6-20.39,29.7,29.7,0,0,1,2.46-3.23,1.14,1.14,0,0,1,1.66-.28c4.59,2.53,9.2,5,13.79,7.52q5.42,3,11.05,5.52a3.58,3.58,0,0,1,2.41,3.75,44.21,44.21,0,0,1-.52,6.86,0.89,0.89,0,0,1-1.11.87C461.4,431.15,459.28,431.17,457.16,431.17Z" transform="translate(-40.67 -375.46)"/><path class="cls-8" d="M474.9,489.6c-1.11-.94-2.08-1.77-3.07-2.59-1.59-1.32-3.26-2.53-4.93-3.73a0.86,0.86,0,0,0-1.44.31c-0.84,1.31-.72,2.07.51,3,3,2.15,6,4.32,9,6.42a6.21,6.21,0,0,1,2.28,2.83,17.19,17.19,0,0,1,1.4,5.35l-1.81-1.36c-3-2.32-6-4.65-9-7-0.91-.7-1-0.63-1.29.48,0,0.11-.05.23-0.08,0.34a1.85,1.85,0,0,0,.89,2.34c3.71,2.55,7.35,5.21,11,7.92a4.27,4.27,0,0,1,1.67,2.49c0.26,1,.49,2.06.65,3.11,0.09,0.57,0,.71-0.6.58a84.34,84.34,0,0,1-10.39-2.77c-1.53-.52-3.06-1-4.61-1.5a1.79,1.79,0,0,1-1.35-1.28A44.23,44.23,0,0,0,457,491.35a12.52,12.52,0,0,0-1.59-1.66,49,49,0,0,1-4.68-4.93,8.23,8.23,0,0,1-1.91-4.8c-0.48-4.86-.6-9.76-1.35-14.6,0-.12,0-0.23,0-0.35-0.06-1.05,0-1.12,1-.77a37.78,37.78,0,0,0,13.15,2.29c4.66,0,9.31-.17,14-0.27,1.24,0,2.47,0,3.71.07,1.59,0.12,2.05.59,2.14,2.2a10.88,10.88,0,0,1-.78,4.67c-1.3,3.25-3.21,6.22-4.36,9.63A76.55,76.55,0,0,0,469,477c-0.34-.24-0.68-0.47-1-0.71s-0.84-.67-1.34-0.06a1.31,1.31,0,0,0-.07,1.83,16.13,16.13,0,0,0,1.49,1.24c2.09,1.58,4.18,3.16,6.3,4.71a1.83,1.83,0,0,1,.82,1.71C475.15,486.95,475.06,488.19,474.9,489.6Z" transform="translate(-40.67 -375.46)"/><path class="cls-8" d="M520.39,417.21a27.1,27.1,0,0,1,.57-6.5,5.26,5.26,0,0,1,2.08-3.26c1.59-1.12,3.11-2.34,4.71-3.43a13.89,13.89,0,0,0,4.16-4.13c0.72-1.17,1-1.21,2.24-.61a25.62,25.62,0,0,1,9.52,8.25A47.29,47.29,0,0,1,550.49,422a59,59,0,0,1,2.42,11.47c0.22,2.19,0,3.23-3,3.07a7.61,7.61,0,0,1-2.77-.84c-2.38-1.09-4.71-2.28-7.12-3.31a4.87,4.87,0,0,0-3.43-.28,10.92,10.92,0,0,1-1.38.29,2.24,2.24,0,0,1-2.38-1,19.45,19.45,0,0,0-2.27-2.47,7.84,7.84,0,0,0-7-2.34c-2.21.32-2.26,0.24-2.59-1.94A49.24,49.24,0,0,1,520.39,417.21Z" transform="translate(-40.67 -375.46)"/><path class="cls-8" d="M506.28,384a1.26,1.26,0,0,0,.7.17,0.9,0.9,0,0,1,1.06.35,5.24,5.24,0,0,0,1.6.51,1,1,0,0,1,1.07.48,7.22,7.22,0,0,0,1.23.59c0.53,0.23,1,.6.36,1.22a2.8,2.8,0,0,1-1.32,1.31,45.24,45.24,0,0,1-5.77,4.29,2.91,2.91,0,0,1-.74.2,5.61,5.61,0,0,1-2.88.54c-0.47-.27-1,0.36-1.49-0.15l-0.29,0c-0.36-.18-0.8.27-1.12-0.15l-0.29,0c-0.36-.18-0.8.27-1.13-0.16l-0.06,0-0.07,0c-0.35-.19-0.79.27-1.11-0.15l-0.3,0c-0.37-.08-0.79.28-1.11-0.15l-0.28,0c-0.43-.15-0.92.29-1.31-0.15l-0.29,0c-0.42-.2-0.91.34-1.3-0.14l-0.64,0a1.77,1.77,0,0,0-1.26,0,1,1,0,0,1-1.11-.18h-0.88a0.87,0.87,0,0,1-1,.18,1.6,1.6,0,0,0-1.16-.05l-0.65,0c-0.44.52-1-.12-1.46,0.15l-0.3,0c-0.38.44-.88-0.11-1.28,0.16l-0.07,0-0.07,0c-0.32.43-.74,0.07-1.11,0.15h-0.07l-0.06,0c-0.31.43-.76,0-1.11,0.16l-0.07,0-0.06,0c-0.31.42-.73,0.1-1.09,0.16H477.9l-0.07,0c-0.31.41-.73,0.1-1.09,0.16h-0.08l-0.07,0c-0.38.44-.88-0.1-1.29,0.16l-0.83,0a0.94,0.94,0,0,1-1.23,0,2,2,0,0,1-.89-0.18,2.86,2.86,0,0,1-2.3-.87,21.86,21.86,0,0,0-7.86-2.7,18.92,18.92,0,0,1-5.19-1.31,0.76,0.76,0,0,1-.69-0.58,0.82,0.82,0,0,1,.66-0.51,65.64,65.64,0,0,1,19.81-6.83,13.57,13.57,0,0,0,1.93-.3,0.82,0.82,0,0,1,.9-0.13,1.89,1.89,0,0,0,1.13,0H484a2.48,2.48,0,0,0,1.38,0,0.74,0.74,0,0,1,.81.15l0.81,0c0.47,0.27,1-.36,1.49.15l0.3,0c0.47,0.25,1-.32,1.46.16,0.71-.15,1.36.47,2.08,0.19a3.84,3.84,0,0,1,.73.2,0.73,0.73,0,0,1,.9.13,2.22,2.22,0,0,0,1.23.21,0.73,0.73,0,0,1,.89.16,0.08,0.08,0,0,0,.11,0,12.34,12.34,0,0,1,3.26.46,0.44,0.44,0,0,1,.31.29l2.32,0.47A9.05,9.05,0,0,1,506.28,384Z" transform="translate(-40.67 -375.46)"/><path class="cls-7" d="M456.11,502.29a48.43,48.43,0,0,1-8.63-6.46,74.17,74.17,0,0,1-18.67-28.13,24.58,24.58,0,0,1-.72-2.54c-0.19-.76.13-0.94,0.79-1a15.46,15.46,0,0,1,4,.56,40.86,40.86,0,0,1,6.13,1.91,5.55,5.55,0,0,1,3.81,5.73,67.1,67.1,0,0,0,.35,9.88c0.11,0.84.28,1.68,0.46,2.51a4.46,4.46,0,0,0,1.82,2.69,30.2,30.2,0,0,1,10.35,13.78C455.92,501.55,456,501.86,456.11,502.29Z" transform="translate(-40.67 -375.46)"/><path class="cls-6" d="M504.48,393.13a79.42,79.42,0,0,0,7.83-5.8c0.16,0.93-.79,1.1-1.22,1.52-1.08,1.07-2.4,1.9-3.59,2.86-0.69.56-1.48,0.94-2.2,1.44A0.73,0.73,0,0,1,504.48,393.13Z" transform="translate(-40.67 -375.46)"/><path class="cls-6" d="M506.28,384L502,382.91a0.84,0.84,0,0,1,.31-0.28C503.71,383,505.23,382.83,506.28,384Z" transform="translate(-40.67 -375.46)"/><path class="cls-6" d="M499.73,382.43l-3.57-.75c1.14-.5,2.21.05,3.3,0.25A0.46,0.46,0,0,1,499.73,382.43Z" transform="translate(-40.67 -375.46)"/><path class="cls-6" d="M470,392.65l2.3,0.87A1.68,1.68,0,0,1,470,392.65Z" transform="translate(-40.67 -375.46)"/><path class="cls-6" d="M528.38,396.54l-2.67-1.79A3.24,3.24,0,0,1,528.38,396.54Z" transform="translate(-40.67 -375.46)"/><path class="cls-6" d="M488.44,392.29a7.86,7.86,0,0,1,2.37.13,1.8,1.8,0,0,0-1.15.24C489.06,393.2,488.68,393,488.44,392.29Z" transform="translate(-40.67 -375.46)"/><path class="cls-6" d="M485.37,392.43a6.91,6.91,0,0,1,2.18-.13c-0.13.67-.51,0.82-1,0.42A1.88,1.88,0,0,0,485.37,392.43Z" transform="translate(-40.67 -375.46)"/><path class="cls-6" d="M487.55,397a13.07,13.07,0,0,1-2.53-.83C486,396.15,486.91,396.09,487.55,397Z" transform="translate(-40.67 -375.46)"/><path class="cls-6" d="M486.14,380.39a8.67,8.67,0,0,1-2.19-.14,2.94,2.94,0,0,0,1.45-.26A0.44,0.44,0,0,1,486.14,380.39Z" transform="translate(-40.67 -375.46)"/><path class="cls-6" d="M480.74,380.26a7.65,7.65,0,0,1-2,.15c0.1-.43.38-0.63,0.76-0.4A2.51,2.51,0,0,0,480.74,380.26Z" transform="translate(-40.67 -375.46)"/><path class="cls-6" d="M529.47,397.75c-0.06-.55-0.63-0.68-0.9-1.06a1.15,1.15,0,0,1,1,.29C529.84,397.27,529.91,397.56,529.47,397.75Z" transform="translate(-40.67 -375.46)"/><path class="cls-6" d="M473.23,393.69h1.23C474,394.39,473.77,394.39,473.23,393.69Z" transform="translate(-40.67 -375.46)"/><path class="cls-6" d="M488.44,380.59a4.1,4.1,0,0,1-1.49-.15,1.58,1.58,0,0,0,.74-0.22C488.1,380,488.34,380.15,488.44,380.59Z" transform="translate(-40.67 -375.46)"/><path class="cls-6" d="M490.21,380.77a3.81,3.81,0,0,1-1.46-.16C489.23,380.66,489.82,379.78,490.21,380.77Z" transform="translate(-40.67 -375.46)"/><path class="cls-6" d="M483.26,392.6a3.73,3.73,0,0,1,1.46-.15c-0.1.42-.33,0.6-0.74,0.37A1.6,1.6,0,0,0,483.26,392.6Z" transform="translate(-40.67 -375.46)"/><path class="cls-6" d="M510.72,385.52a3.23,3.23,0,0,1-1.07-.48C510.23,384.7,510.63,384.76,510.72,385.52Z" transform="translate(-40.67 -375.46)"/><path class="cls-6" d="M500.11,393.51a4,4,0,0,1,1.49.15,1.58,1.58,0,0,0-.74.22C500.44,394.11,500.21,393.94,500.11,393.51Z" transform="translate(-40.67 -375.46)"/><path class="cls-6" d="M493,392.62a2.91,2.91,0,0,1,1.31.15C493.88,392.92,493.38,393.5,493,392.62Z" transform="translate(-40.67 -375.46)"/><path class="cls-6" d="M508,384.53l-1.06-.35C507.56,383.62,507.86,383.9,508,384.53Z" transform="translate(-40.67 -375.46)"/><path class="cls-6" d="M491.44,392.46a2.85,2.85,0,0,1,1.3.14C492.31,392.56,491.77,393.46,491.44,392.46Z" transform="translate(-40.67 -375.46)"/><path class="cls-6" d="M475.3,393.66a3.06,3.06,0,0,1,1.29-.16C476.28,394.55,475.72,393.51,475.3,393.66Z" transform="translate(-40.67 -375.46)"/><path class="cls-6" d="M476.74,393.49a2.18,2.18,0,0,1,1.09-.16C477.58,394.18,477.14,393.71,476.74,393.49Z" transform="translate(-40.67 -375.46)"/><path class="cls-6" d="M478,393.31a2.26,2.26,0,0,1,1.09-.16C478.82,394,478.38,393.53,478,393.31Z" transform="translate(-40.67 -375.46)"/><path class="cls-6" d="M494.63,392.8a2.29,2.29,0,0,1,1.11.15C495.33,393.15,494.89,393.67,494.63,392.8Z" transform="translate(-40.67 -375.46)"/><path class="cls-6" d="M480.43,392.95a2.27,2.27,0,0,1,1.11-.15C481.28,393.67,480.84,393.16,480.43,392.95Z" transform="translate(-40.67 -375.46)"/><path class="cls-6" d="M481.68,392.78a2.83,2.83,0,0,1,1.28-.16C482.65,393.66,482.09,392.63,481.68,392.78Z" transform="translate(-40.67 -375.46)"/><path class="cls-6" d="M514.33,392.12a3,3,0,0,1-1,.85A0.71,0.71,0,0,1,514.33,392.12Z" transform="translate(-40.67 -375.46)"/><path class="cls-6" d="M493.92,381.3a1.6,1.6,0,0,1-.9-0.13C493.4,380.64,493.71,380.66,493.92,381.3Z" transform="translate(-40.67 -375.46)"/><path class="cls-6" d="M498.69,393.33a2.26,2.26,0,0,1,1.12.15C499.43,393.53,498.95,394.27,498.69,393.33Z" transform="translate(-40.67 -375.46)"/><path class="cls-6" d="M497.28,393.15a2.39,2.39,0,0,1,1.13.16C498,393.34,497.53,394.1,497.28,393.15Z" transform="translate(-40.67 -375.46)"/><path class="cls-6" d="M496,393a2.22,2.22,0,0,1,1.11.15C496.76,393.19,496.29,393.9,496,393Z" transform="translate(-40.67 -375.46)"/><path class="cls-6" d="M479.19,393.13a2.37,2.37,0,0,1,1.11-.16C480.06,393.91,479.58,393.19,479.19,393.13Z" transform="translate(-40.67 -375.46)"/><path class="cls-6" d="M496,381.66a1.58,1.58,0,0,1-.89-0.16C495.55,381,495.84,381,496,381.66Z" transform="translate(-40.67 -375.46)"/><path class="cls-6" d="M498.37,398.65a4.68,4.68,0,0,1-2.22,0h2.22Z" transform="translate(-40.67 -375.46)"/><path class="cls-6" d="M513.36,393a2,2,0,0,1-1.05.68A1,1,0,0,1,513.36,393Z" transform="translate(-40.67 -375.46)"/><path class="cls-6" d="M480.67,396a2.52,2.52,0,0,1-1.25.15C479.77,395.57,480.25,396,480.67,396Z" transform="translate(-40.67 -375.46)"/><path class="cls-5" d="M456.43,398.27a1,1,0,0,1,1.1,1.6,5.47,5.47,0,0,0,.06,3.8c0.44,1.29,1,1.54,2.28,1.25a135.92,135.92,0,0,1,16.61-2.72,35.66,35.66,0,0,1,8.78.73A76.24,76.24,0,0,1,499,406.45a4.31,4.31,0,0,1,2.42,2,17.4,17.4,0,0,1,1.68,5,1.29,1.29,0,0,1-.15.76,84.93,84.93,0,0,1-7.3,14.65,1,1,0,0,1-1.35.42,40.15,40.15,0,0,1-4.42-1.49,145.42,145.42,0,0,1-15.53-7.12c-0.23-.12-0.45-0.27-0.69-0.39a3.94,3.94,0,0,1-2.37-3.35,18.5,18.5,0,0,0-.55-2.31,1.49,1.49,0,0,0-1.49-1.2,43.82,43.82,0,0,1-8.71-1.75,17.52,17.52,0,0,1-8.41-6.32c-1.13-1.5-1.07-2.11,0-3.64a12.59,12.59,0,0,1,3-3A2,2,0,0,1,456.43,398.27Z" transform="translate(-40.67 -375.46)"/><path class="cls-5" d="M466.41,442a0.64,0.64,0,0,1,.75.38,84.87,84.87,0,0,1,6.65,11,1,1,0,0,1,.12,1.21c-0.76,1-1,1-1.7,0a126.85,126.85,0,0,1-7-10.69c-0.59-1-.58-1.07.48-1.6C466,442.16,466.26,442.06,466.41,442Z" transform="translate(-40.67 -375.46)"/><path class="cls-5" d="M493.42,489.28a4.08,4.08,0,0,1,2.76.86c0.8,0.6,1.6,1.2,2.41,1.78a4.2,4.2,0,0,0,4.11.45c0.58-.21,1.27-0.59,1.64.32a1.51,1.51,0,0,1-1.06,1.79,5.26,5.26,0,0,1-4.71-.65c-0.66-.44-1.27-1-1.91-1.43a4.19,4.19,0,0,0-3.26-.73,1.39,1.39,0,0,1-1.61-1.27c-0.14-.92.54-1,1.15-1.08A3.89,3.89,0,0,1,493.42,489.28Z" transform="translate(-40.67 -375.46)"/><path class="cls-5" d="M517.92,398.42a1.51,1.51,0,0,1,1.24.26c0.81,0.87.74,1.3-.36,1.8a32.07,32.07,0,0,1-5.79,2.07c-1,.25-1.2.15-1.58-0.91s-0.28-1.68.47-1.91A32.45,32.45,0,0,1,517.92,398.42Z" transform="translate(-40.67 -375.46)"/><path class="cls-5" d="M491.43,437.65a3.45,3.45,0,0,1-.19.34,24.86,24.86,0,0,1-3.65,4.27,0.77,0.77,0,0,1-1.35-.14c-0.1-.15-0.21-0.28-0.3-0.43-0.95-1.48-.92-1.7.37-2.86,0.46-.41,1-0.78,1.41-1.19,1-.92,2.2-0.56,3.35-0.37A0.39,0.39,0,0,1,491.43,437.65Z" transform="translate(-40.67 -375.46)"/><path class="cls-5" d="M471.25,440a0.82,0.82,0,0,1,.82.46,34.8,34.8,0,0,1,3.51,7,1.12,1.12,0,0,1,.12.42,0.93,0.93,0,0,1-.32.93c-0.29.12-.47-0.28-0.65-0.5a47.43,47.43,0,0,1-4.52-6.59C469.57,440.57,469.89,440,471.25,440Z" transform="translate(-40.67 -375.46)"/><path class="cls-5" d="M510.81,427.56a2.38,2.38,0,0,1-.5,1.05c-0.42.29-.7-0.26-1-0.53a17.51,17.51,0,0,1-3.51-5,1.83,1.83,0,0,1,1.13-2.26,0.3,0.3,0,0,1,.34.19,35,35,0,0,1,3.43,6.12A3.32,3.32,0,0,1,510.81,427.56Z" transform="translate(-40.67 -375.46)"/><path class="cls-5" d="M507.79,431a0.88,0.88,0,0,1-.33.73,0.68,0.68,0,0,1-.8-0.16,22.48,22.48,0,0,1-4.75-4.68,2.08,2.08,0,0,1,1-2,0.64,0.64,0,0,1,.35.23,33.61,33.61,0,0,1,4.34,5.3A0.89,0.89,0,0,1,507.79,431Z" transform="translate(-40.67 -375.46)"/><path class="cls-9" d="M501.37,480.58c0,0.53-.09.85-0.81,0.71a19.86,19.86,0,0,1-3.46-1c-0.39-.15-0.49-0.3-0.19-0.68,0.79-1,1.1-1.14,2.31-.72a7.27,7.27,0,0,1,1.74.85A0.81,0.81,0,0,1,501.37,480.58Z" transform="translate(-40.67 -375.46)"/><path class="cls-5" d="M529.2,472.2a1,1,0,0,1,.6.36,80.8,80.8,0,0,1,8.77,8.43,3,3,0,0,1,.29.33,0.73,0.73,0,0,1-.08.9c-0.29.37-.52,0-0.74-0.14q-4.57-3.32-8.85-7a12.2,12.2,0,0,0-1.14-1c-0.69-.46-0.49-0.86,0-1.3A2.37,2.37,0,0,1,529.2,472.2Z" transform="translate(-40.67 -375.46)"/><path class="cls-5" d="M534.08,493.87a2.05,2.05,0,0,1-.67,1c-0.24.18-.49-0.08-0.7-0.23a67,67,0,0,1-8.16-7c-0.64-.64,0-0.93.26-1.3s0.57-.82,1.14-0.38a51.65,51.65,0,0,1,7.78,7.28A4.18,4.18,0,0,1,534.08,493.87Z" transform="translate(-40.67 -375.46)"/><path class="cls-5" d="M541,477.08a0.76,0.76,0,0,1-.27.77,0.67,0.67,0,0,1-.72-0.19,114.55,114.55,0,0,1-9.26-8.28c-0.75-.74.25-1,0.46-1.5s0.58-.26.89,0a66.83,66.83,0,0,1,8.56,8.5A0.92,0.92,0,0,1,541,477.08Z" transform="translate(-40.67 -375.46)"/><path class="cls-5" d="M543.8,470.9a1.13,1.13,0,0,1-.46.94,0.6,0.6,0,0,1-.68-0.27,113.26,113.26,0,0,1-8.78-7.65,1.6,1.6,0,0,1,.46-2,0.52,0.52,0,0,1,.51.26,80.33,80.33,0,0,1,8.59,8.12A0.86,0.86,0,0,1,543.8,470.9Z" transform="translate(-40.67 -375.46)"/><path class="cls-5" d="M536.2,488.56a0.9,0.9,0,0,1-.37.67,0.48,0.48,0,0,1-.63-0.14,104.1,104.1,0,0,1-8.32-6.5c-0.62-.54-0.23-0.91.08-1.33a0.72,0.72,0,0,1,1.2-.22,48.61,48.61,0,0,1,7.67,6.85A0.8,0.8,0,0,1,536.2,488.56Z" transform="translate(-40.67 -375.46)"/><path class="cls-6" d="M538.63,456.42a1,1,0,0,1,.7.31,36.57,36.57,0,0,1,7.32,7,1.28,1.28,0,0,1,.31.52,0.74,0.74,0,0,1-.25.8,0.63,0.63,0,0,1-.71-0.21,61.71,61.71,0,0,1-5.73-4.71c-0.76-.7-1.5-1.42-2.21-2.16-0.22-.23-0.7-0.41-0.51-0.82A1.91,1.91,0,0,1,538.63,456.42Z" transform="translate(-40.67 -375.46)"/><path class="cls-5" d="M432.19,427.74l-0.56-.07c-1.15-.2-1.27-0.38-1-1.5a54,54,0,0,1,2.7-8.58,8.69,8.69,0,0,1,1.61-2.52,1.44,1.44,0,0,1,2.16-.44c0.27,0.12.52,0.27,0.78,0.4a0.91,0.91,0,0,1,.44,1.42c-1.23,2.57-2.55,5.11-3.53,7.8a13.71,13.71,0,0,0-.55,2C433.93,427.61,433.8,427.73,432.19,427.74Z" transform="translate(-40.67 -375.46)"/><path class="cls-6" d="M471.81,469.47a4.15,4.15,0,0,1,.44.28,41.27,41.27,0,0,1,4.68,4.41,1.39,1.39,0,0,1,.52,1,0.94,0.94,0,0,1-1.6.81,28.1,28.1,0,0,1-5-4.17c-0.25-.26-0.68-0.49-0.43-1A3.65,3.65,0,0,1,471.81,469.47Z" transform="translate(-40.67 -375.46)"/><path class="cls-5" d="M535.45,425.36c0.08-.28.14-0.57,0.24-0.85a0.71,0.71,0,0,1,1.16-.5,75.44,75.44,0,0,1,12.39,6.75,1.36,1.36,0,0,1,.77.91,0.91,0.91,0,0,1,0,1,0.93,0.93,0,0,1-1-.09,115.68,115.68,0,0,1-12-5.71c-0.31-.17-0.61-0.36-0.93-0.51A0.87,0.87,0,0,1,535.45,425.36Z" transform="translate(-40.67 -375.46)"/><path class="cls-5" d="M537.34,418.09c0.21,0.09.38,0.16,0.53,0.24a82.59,82.59,0,0,1,9.42,5.71,2.88,2.88,0,0,1,1.44,2.09c0,0.19.27,0.38,0,.55a0.59,0.59,0,0,1-.59,0c-0.84-.36-1.68-0.71-2.51-1.09a96.3,96.3,0,0,1-8.75-4.57,1,1,0,0,1-.48-1.51A2.7,2.7,0,0,1,537.34,418.09Z" transform="translate(-40.67 -375.46)"/><path class="cls-5" d="M544.94,415.57c0,1-.14,1.12-0.95.79l-6.26-2.58c-0.56-.23-0.93-0.54-0.56-1.18s0.33-1.34,1.39-1a24,24,0,0,1,5.75,2.82A1.16,1.16,0,0,1,544.94,415.57Z" transform="translate(-40.67 -375.46)"/><path class="cls-8" d="M473.44,405.85a70,70,0,0,1,20.49,3,9.81,9.81,0,0,1,2.49,1.12,2.63,2.63,0,0,1,1.35,3.16,37.11,37.11,0,0,1-3.6,9.36c-0.72,1.26-.83,1.26-2.17.79a125.38,125.38,0,0,1-13.36-5.52,1.71,1.71,0,0,1-1-1.21,16.87,16.87,0,0,0-1.07-3.26,3.87,3.87,0,0,0-2.46-2.11c-3-.91-6-1.88-9-2.84a4.56,4.56,0,0,1-1.59-.75,0.54,0.54,0,0,1-.29-0.59,0.5,0.5,0,0,1,.52-0.26C467.51,406.42,471.27,405.79,473.44,405.85Z" transform="translate(-40.67 -375.46)"/><text class="cls-10" transform="translate(384.74 107.7) scale(1.01 1)">&amp;CO</text></svg>