<svg id="Слой_1" data-name="Слой 1" xmlns="http://www.w3.org/2000/svg" viewBox="0 0 1023 280.97"><defs><style>.cls-1{fill:#95634e;}.cls-2{fill:#8a5842;}.cls-3{fill:#7b4c3a;}.cls-4{fill:#895741;}.cls-5{fill:#895742;}.cls-6{fill:#afa98d;}.cls-7{fill:#968d72;}.cls-8{fill:#794d3c;}.cls-9{fill:#96634a;}.cls-10{fill:#ad8979;}.cls-11{fill:#ada99e;}.cls-12{fill:#a19c91;}.cls-13{fill:#6a4436;}.cls-14{fill:#6a4337;}.cls-15{fill:#b4ab91;}.cls-16{fill:#6b4337;}.cls-17{fill:#6a4437;}.cls-18{fill:#684336;}.cls-19{fill:#694336;}.cls-20{fill:#a39f9d;}.cls-21{fill:#b6aa90;}.cls-22{fill:#b7a494;}.cls-23{fill:#6a4f3a;}.cls-24{fill:#beb4b2;}.cls-25{fill:#a99c98;}.cls-26{fill:#b9b4b3;}.cls-27{fill:#b79d84;}.cls-28{fill:#75513f;}.cls-29{fill:#bda58c;}.cls-30{fill:#ba9e87;}.cls-31{fill:#c1a28a;}.cls-32{fill:#684e38;}.cls-33{fill:#aead95;}.cls-34{fill:#7a4b3a;}.cls-35{fill:#aaa09d;}.cls-36{fill:#b3a992;}.cls-37{fill:#725c48;}.cls-38{fill:#714939;}.cls-39{fill:#7a5d50;}.cls-40{fill:#784d3a;}.cls-41{fill:#b0aa90;}.cls-42{fill:#b1aa92;}.cls-43{fill:#794f3b;}.cls-44{fill:#a3a09b;}.cls-45{fill:#bcb5b3;}.cls-46{fill:#baa58d;}.cls-47{fill:#ad9484;}.cls-48{fill:#454237;}.cls-49{fill:#6c695d;}.cls-50{fill:#4c4f43;}.cls-51{fill:#774d3b;}.cls-52{fill:#b3a98f;}.cls-53{fill:#92866d;}.cls-54{fill:#bca48b;}.cls-55{fill:#aeab91;}.cls-56{fill:#b3aa8e;}.cls-57{fill:#96846c;}.cls-58{fill:#979276;}.cls-59{fill:#9a8b71;}.cls-60{fill:#6a5f45;}.cls-61{fill:#b2a89c;}.cls-62{fill:#a49b90;}.cls-63{fill:#b89f87;}.cls-64{fill:#b1a99b;}.cls-65{fill:#a39a8e;}.cls-66{fill:#afa79c;}.cls-67{fill:#96947d;}.cls-68{fill:#714b39;}.cls-69{fill:#9d987c;}.cls-70{fill:#7c6b56;}</style></defs><title>miningUndergroundTop</title><path class="cls-1" d="M629,4.1h29.31c18.84,0.76,35.31,8,51.11,17.8,7.31,4.53,16.07,5.33,24.68,5.52,3.25,6.13,1.44,16.73-5.7,22.19C722,54.49,717.7,60.86,712.29,66.41a7,7,0,0,1-8,.18C699.57,58.86,691,58.91,683.88,58c-25.42-3.35-50.93-2.51-76.43.19-19.55,2.08-38.39,9.26-58.47,7.73-8.36-.64-15.89-2.51-22.5-8-2.83-2.34-5-4.8-5.69-8.36-0.84-4.18-3.49-5.56-7.53-5.65a17.1,17.1,0,0,0-9.36,2.3c-12.82,8-27.47,8.29-41.61,9.49-22.41,1.91-45,2.22-67.44,3.21-5.2.23-10.14-.29-14.3-4.06a7,7,0,0,0-9-.7c-4.27,4.25-9.38,5.08-15.27,5-12.76-.24-25.5,1-38.19,2.22-5.75.55-9.35-1.67-12-6.36-0.84-5-3.14-7.88-8.57-9.32-5.59-1.48-10.54-5-11.41-11.78a12.76,12.76,0,0,1,3.61-8.1,56.44,56.44,0,0,0,11.11-15.05c1.51-3.1,4.53-4.53,7-6.55H472.64c11.8,2.15,23.13,6.16,34.78,8.91,15.05,3.55,30,7.53,45.16,10.59,9.16,1.84,17.45.05,25.39-4.33,3-1.67,6.23-3.18,9.08-5,11.85-7.69,25.36-8,38.65-9.43C626.82,4.68,628,5,629,4.1Z" transform="translate(-4 -3.98)"/><path class="cls-2" d="M345.84,4.21C339.72,10.06,124.45,190.94,126,197.29s-8.8,9.83-16.78,13.86c-11.82,1.31-19-1.41-24.43-5.73q0-98.48-.18-197c0-3.38,1-4.38,9.28-4.36Q219.85,4.37,345.84,4.21Z" transform="translate(-4 -3.98)"/><path class="cls-2" d="M663.74,5.29A30.06,30.06,0,0,1,660,4.53l-1.67-.43Q775.21,4.1,892.1,4c9.24,0,11.11.84,11.1,5-0.36,71.42-.26,142.85-0.26,214.28-35.78-3.05-89.42-3.14-150.42,15.82-35.43,11-47,20.26-60.21,13.38C640.45,225.56,667.7,6,663.74,5.29Z" transform="translate(-4 -3.98)"/><path class="cls-2" d="M629,4.1c-8,2.22-15.89,5.16-24,6.5-9.29,1.52-16.62,6.77-24.44,11-9.34,5.07-18.76,7.4-29.27,5-17-4-34.36-7-51.14-11.8C490.8,12.08,480.91,10,472.66,4.1H629Z" transform="translate(-4 -3.98)"/><path class="cls-3" d="M274.37,33.37c7-6.55,8.49-6.55,13.94,0,2,6.33,7.35,8.68,12.88,10.48,4.6,1.5,7.19,4,6.76,9C311.38,64.44,321.5,74,334.22,72.1a199.21,199.21,0,0,1,41.51-1.79c19.49-1.85,39-.5,58.54-1.16a337.1,337.1,0,0,0,49-5.75c4.39-.84,7.17-2.63,6.94-7.81-0.2-4.65,2.43-7.24,7.27-7.2A3.56,3.56,0,0,1,499,49.91c0.38,10.87,1.51,12,16.18,15.89,2.33,8.91,5.14,10.5,15.24,9.56,5.94-.55,11.87-0.74,17.67-2.51,3.11-.94,6.42-0.76,8.89,2.09,0.69,1.29,1.17,3,.43,4-7.13,9.62-2.12,20.15-2.24,30.22-0.12,9.81-.69,11.5-9.69,14.7a12.1,12.1,0,0,0-3.14,1.4c-2.65,1.67-5.5.84-8.3,0.65-6.09-2.68-10.09,1.76-14.51,4.41-6.49,3.91-6.14,3.94-8.36-3.22-4-12.72-12.76-20.53-25.82-23.31-3.58-.76-7-2.51-10.87-1.45-1.72.46-4,0-4.61,2.32-0.49,1.89,1.05,3.14,2.37,3.93,13.58,8.15,17.33,21.67,19.81,35.9,1,6,5.77,10.12,11.28,9.84,4.53-.23,8.5-4.59,9.09-10.59,0.37-3.74,0-7.59,4.43-9.32,2-.46,3.53.69,5.17,1.48,3.82-.19,7.25-2.12,11-2.44a9.13,9.13,0,0,1,4.37,2.21c2,2.38,0,4.88.21,7.3,0.17,1.29.69,2.25,2.14,2.33,3.16-.58,4.18-6.33,8.7-3.58,1.24,1.2,1.12,2.63.89,4.18-0.13.88,0.71,1.07,0.32,0.23s1.35,0.21.61-.36c5.4-6.29,11.66-6.82,18.67-3.07,2.41,1.29,5.38,1.67,7.13-.42,4.11-4.85,9.8-8.29,11.86-15.05,1.39-4.57,3.24-10.33,10.5-8.27,1,0.29,1.91.63,2.84,1a6.69,6.69,0,0,0,5.85.29c5.75-2.33,14.09,1.95,15.89,7.81,0.35,1.13.69,2.68-.13,3.35-4.94,3.76-5.15,10.63-10,14.53-5.22,4.18-6.74,10.87-9.11,16.73-1.08,2.65.25,7.18,2.32,10.4,1.28,2,2.37,4,1.5,6.48A91.56,91.56,0,0,1,578,210.46c-14.5,9.16-30.94,7.92-46.49,2.58-11.61-4-23.64-6.69-35-11.59-3.07-1.33-5.44-4.69-9.42-3.77a7.08,7.08,0,0,1-2.3-.18c-9.12-2.58-18.32-5.19-27.76-5.91-26.76-2-52.59,1-77.09,13.52A425.12,425.12,0,0,1,338.12,224c-25.16,9.63-51,15.83-78.23,10.48-17.56-3.45-26.59-16-24.68-33.79,0.48-4.42,2.21-8,6.36-10.09a20.55,20.55,0,0,1,5.23-1.48c3.93-.76,4.82-3,2.94-6.43a6.38,6.38,0,0,1-.36-2.91c0.31-8.89,6.39-14.69,11.67-20.66,11.11-12.54,16.78-23.31,20.56-41.81-12.17,11.52-26.59,15.05-41.25,17.94-6.93,1.88-13,5.85-19.67,8.29-5.85,2.1-11.57,3.35-16.61-1.81-1.24-4.27,1-5.93,4.69-5,5.24,1.24,8.36-1.34,11.19-5,7.73-7.53,16-13.46,27.6-13.56,9.43-.08,17-4.25,23.42-11.62,5.68-6.46,12.21-12.61,20.91-15.41,4.94,0.33,6.64,2.67,4.66,7.4-1.53,3.65-.27,4.65,3.46,3.81,4.06-.91,8.13-1.57,12.08-3.05,5-1.89,7.08-5.57,7.9-10.43s-1.86-6.95-5.65-9-7.11-5.34-12-4.06c-4.13-.38-8.27-0.27-12.41-0.4A16.14,16.14,0,0,1,282,73.15c-2.58-1.55-5.58-3.27-5.19-6.69,0.45-3.91,4-4.61,7.25-5.1,4.14-.63,8.27-1.49,11.37-4.45,1.86-1.77-.49-1.35-1.33-1.61-5-.64-9.25.39-12.4,4.57a5,5,0,0,1-2.13.66c-5.41.34-6.94-2.38-5.77-7.26a5.52,5.52,0,0,1,1.34-2.88c2.16-2.51,7.12-3.08,5.63-8.13-0.22-1.45-.19-2.94-1.17-4.18C278.61,35.74,275.18,36.05,274.37,33.37Z" transform="translate(-4 -3.98)"/><path class="cls-4" d="M556.45,75.33c-8.59-.35-16.73,2.73-25.22,3.45s-14.72-1.67-20.61-6.13c-0.21-3.3,5.52-2.12,3.46-6-1.22-2.57.22-4.72,0.89-7.08,1-3.51,3.05-7.36-1-10.46-5.51-1.93-10.39,3.24-15.89,1.4-4-2.27-5,.4-5.13,3.5a18.88,18.88,0,0,0,1,6.14c1.06,3.5.09,4.88-3.67,5.54-22.33,3.84-44.68,7.13-67.43,6.89-16-.16-32,0-48-0.05-1.2-1.19-2.51-2.33-1.89-4.32,0.94-1.79,2.89-1.94,4.46-2.63,2.09-.9,2.63-2.17,1.52-4.18-1-4-4.66-5.19-7.64-7.08a2.32,2.32,0,0,1-.6-2.65c3.78-2.51,6.85-3.09,10.92.59,6.75,6.11,15.65,3.86,23.47,3.14,16.42-1.51,32.93-.62,49.34-2.43,12.2-1.35,24.44-2.43,36.6-4,4.94-.64,9.25-2.68,7.84-10.15,2.32,7,6.33,4.13,10,3.35,8-1.67,10.35.21,14.22,7.25,4.86,8.84,13.59,12.38,23.17,13.21,16.17,1.41,31.71-2.56,47.43-5.7a189.12,189.12,0,0,1,33.77-3.75c18.08-.3,36.26-1.6,54.28,1.25,7.08,1.12,14.07,2.87,21.07,4.47,4.81,1.1,3.55,3.82,1.54,6.62,1.75,5.12-3.17,6.16-5.38,8.87-1.67,1.05-3.35,2.07-5.15,3A15.37,15.37,0,0,1,689.34,79c-6.23-1.08-10.81,3-16,5.14-5.23-.18-10.6,1.28-15.61-1.36-2.51-3-5.67-4.18-9.65-4.44-7.85-.43-15.45-2.8-23.29-3.53-12.39-1.15-24.76-1.67-37.12.35-9.2,3-18.68.64-28,1.36A5.17,5.17,0,0,1,556.45,75.33Z" transform="translate(-4 -3.98)"/><path class="cls-5" d="M370.77,51.66L372.1,53c-0.06,4.36-2.17,9,2,12.72a6.39,6.39,0,0,1-.57,2.69l1.4,4.09c-14.7,1-29.4,2.2-44.11,2.81-14.9.62-22.73-8.79-22.86-22.37,2,4.79,5.16,5.55,10.43,5,13-1.38,26.2-1.91,39.31-2C362.8,55.9,367.12,55.28,370.77,51.66Z" transform="translate(-4 -3.98)"/><path class="cls-6" d="M733.53,27.8c1.56-1.92.84-6.31,5-5.33,3.61,0.84,2.74,4.18,2.84,6.87,0.13,3.69.46,7.36,0.7,11,2.84,8.68-2.91,13.94-7.79,19.56-5.39,3-8.36,8.65-13.14,12.34-5.85.39-7.79-3.81-9.49-8.25a44.4,44.4,0,0,1,13.26-15.56C731,43.78,734,36.1,733.53,27.8Z" transform="translate(-4 -3.98)"/><path class="cls-7" d="M711.67,64c4.56,0.5,5.26,6,9.32,7.17,1.24,6.53-2.78,9.64-7.86,12.05-4.6.38-6.51-4.47-10.49-5.34-2-1.75-5-2.56-5.73-5.68,3.24-1.43,5.38-4.08,7.53-6.75C706.88,65.15,709.47,65.54,711.67,64Z" transform="translate(-4 -3.98)"/><path class="cls-1" d="M204.65,140.76c9.27,4.4,16.82-1.05,24.64-4.47,3.79-1.67,7.25-4,11.62-3.85,6.13-.84,4.89,3.35,4.25,6.58-1.38,6.92-4.7,13-8.61,18.85a316.57,316.57,0,0,1-27.25,35.18,59.14,59.14,0,0,0-15.37,39.31c-0.11,5.72,3,10.38,6.18,15.49,4.85,7.9,13.33,10,19,16.08,0.3,1.67-.71,2.58-2,3.28a1.55,1.55,0,0,0,.17.79c-2.51,1.79-5.24,1.67-7.92.69-9-3.35-17.72-7.84-27.74-7.69a2.72,2.72,0,0,1-2.07-1.67c-1.3-5.54,3.4-4.88,6.69-6.17-4.91-.5-5.34-5-7.71-7.62-14.1-15.89-16.63-34.29-12.64-54.53,4.62-23.46,10.53-46.71,12.7-70.66,0.38-4.14.73-9.66,5.08-12.85,4.41,4.75,1.11,10.6,2.27,15.81,0.69,7,2.51,8.68,10.77,10C200,135,203.3,136.86,204.65,140.76Z" transform="translate(-4 -3.98)"/><path class="cls-8" d="M183.77,125.56l-0.15-18.1c1.05-5.6-1.57-11.27.49-16.91,4.79-13.12,8.36-14.63,20.59-8.36,9.42-4.26,15.35-12.92,23.57-18.7,2.19-1.54,4-3.83,7-3.6,5.44-4.1,10.69-8.63,18.15-8.36,2.55-3.62,8.3-3.51,9.8-8.36l11.12-9.79c3.12-.07,6.11.26,8.42,2.71-5,10.48-13,17.56-24.25,20.86-6.64,2.09-12.6,5.8-19.17,8.1a13.75,13.75,0,0,0-7.59,6.69c-5.32,9.36-12.6,17.19-20.77,24.12-8.43,7.14-12.46,6.28-17.78-3.24a2.56,2.56,0,0,0-2.44-1.76c-2.62,4.34.17,9.2-.75,13.88-0.84,4.39.75,9.13-.07,13.77-0.32,1.8,1.19,2.89,2.67,3.71a6.24,6.24,0,0,1,2.18,2,17.39,17.39,0,0,0,2.51,3.05c4.92,4.42,10.87,5.23,17.16,5,2.81-.1,6-1.25,8.27,1.61-3.22,4.68-8.08,5.36-13.14,5-2.1-.13-4.11-1-5,1.81l-8.41-5.31C191.24,133.21,187.31,129.64,183.77,125.56Z" transform="translate(-4 -3.98)"/><path class="cls-9" d="M235.3,59.89c-6.69,6.51-13.51,13-20.15,19.58-3,3-6.26,4.5-10.45,2.73-0.43-2-1.11-4.09,1-5.71a230.67,230.67,0,0,1,25.16-17A3.45,3.45,0,0,1,235.3,59.89Z" transform="translate(-4 -3.98)"/><path class="cls-3" d="M263.28,43.19c0.43,7.13-3.79,8.8-9.8,8.36C252.41,43.68,259.29,45.15,263.28,43.19Z" transform="translate(-4 -3.98)"/><path class="cls-10" d="M191.77,31.9c-0.15,1.67-1,2.42-2.2,2.36-1.92-.09-3.73-0.91-3.84-3-0.08-1.47,1.35-2.27,2.87-2.07A3.86,3.86,0,0,1,191.77,31.9Z" transform="translate(-4 -3.98)"/><path class="cls-1" d="M732.08,58.46a57.39,57.39,0,0,0,10-18c6.41,3,9.59,9.2,11.29,15.12,4.08,14.13,8.66,28.09,8.51,43.36-0.19,18.52-6.54,34.82-14.71,50.7-7.36,14.31-14.36,28.68-13.38,45.16,0.71,11.83,5.09,23,8.21,34.41a42.58,42.58,0,0,1,1.58,8.1c-17.83,7.33-34.65,16.73-52,25.18-6.76,3.3-13.95,5.13-21.14,6.88-18.62,4.52-36.16,13.48-55.87,13.62-4.42,0-8.82.5-13.21-.36-2.51-.49-5-1.29-7.33.59-2,1.43-4,2.27-6.48,1.39-2.27-1.47-4.88-1.06-7.35-1.22-6.56-.44-12.08-2.1-13.77-9.63a46.7,46.7,0,0,0-2.22-5.75c0.14-3.85.14-7.68-1.41-11.32,0.94-2.15,3-2.63,4.59-3.19-5.61-1.63-9.47-4.77-8.74-11.57,2.37-4.85,6.75-6.52,11.5-5.75,18.93,3.11,35.55-1.51,50.09-13.92,1.67-.4,3.53-0.41,4.18-2.51,5.32-4.63,10.67.79,16.12,0.11,2.15-.27,1.29,3.41,1.56,5.33,4.08,2.17,4.32-2.44,6.46-3.64a5,5,0,0,1,2.82-1c4.66,1.59,7.41-.84,9.65-4.49,5.74-9.43,6.41-20,7.09-30.62,0-.68-0.36-1.4-0.25-2.06,0.73-4.18,1.51-8.69,6.69-9.37s7.63,3,8.88,7.19c2,6.85-.6,12.82-4.68,18.11-1.61,2.09-3.63,3.64-2.21,6.56,0.56,1.44,1.82,1.81,3.19,2a8.36,8.36,0,0,1,2.38.84c2.09,1.49,3.84-.4,5.75-0.6,3.49,0.89,6.57-.11,9.44-2.07,5.54-1.4,5.7-5.6,5.25-10.13a6.58,6.58,0,0,1,.59-1.95c4.13-8.59,3.65-17.72,3.14-26.84-0.13-2.27-.84-4.53.49-6.69,2.55-3.51,6.46-5.34,10.09-7.22,5.21-2.68,8.92-5.76,7.7-12.31a3.75,3.75,0,0,1,1.41-3.07c3-1.61,5.15.38,7.46,1.75s4.42,1.26,6.15-.76,4.1-4.09,1.08-6.91c-3.14-2.51-6.4-2.25-9.73-.49-1.67,1.44-2.23,4.13-4.86,4.58-3.62-.19-5.53-2.31-5.8-5.71s2.32-4.76,4.86-6.07c3.21-1.67,6.69-1.59,10.18-1.81,8.15-.53,10.77-4.54,7.6-12a139,139,0,0,0-14.89-25.79c-8.05-11.32-8.15-11.83,1.23-22.35C730.42,61.19,731.66,60.07,732.08,58.46Z" transform="translate(-4 -3.98)"/><path class="cls-2" d="M621.9,223.34c-8,10.59-19.5,14.69-31.78,16.4-6.77.94-13.9,1.14-20.76-.74-4.18-1.15-6.69,1.26-8.88,4.29-4,1.1-6.27-2-9.07-3.85a12.76,12.76,0,0,1-2.22-1.54,9.77,9.77,0,0,0-4.12-1.67c-4.59.22-8.84-1.67-13.31-2.13-2.68.53-4.94,2.62-7.9,2.12A4.67,4.67,0,0,1,521,234.8c1.67-9-5.17-10.78-11.32-12.59-20.65-6.07-41.15-11.93-63.07-13.09-29.11-1.53-55.2,6-80.59,19.23-12.29,6.4-24.74,12.67-37.52,18.15-1.92.84-4.37,1.33-5.24,3.24-3,6.47-7.72,7.86-14.22,6.22-3-.75-5.9.64-8.71,1.89A109,109,0,0,1,280,265c-3.94.89-7.8,1.25-11.45-1l-1.25-1.29c-4.84-7.35-14.22-8.65-23.7-2.9-6,3.61-12.25,6.34-19.13,7.28-1.87.26-5,2-5.85-1.89-4-1.77-8.15-3.35-12-5.39-3.11-1.67-8.36-2.19-6-8.12a1.9,1.9,0,0,0-1-1.5c-8.91-2.59-8.52-10.66-8.65-17a59.34,59.34,0,0,1,16.28-42.42c11.83-12.85,22-27,31.24-41.7,2.4-3.81,3.35-8.56,4.8-12.94,0.62-1.88-.57-3.05-2.35-3.62,16.85-2.78,31.65-10.33,45.52-20.37-5,17.94-9,35.56-22.73,49-5.21,5.11-11.16,10.64-11.83,19-2.33,1.67-4.86.14-7.28,0.43-3.19.38-5.34,1.46-3.85,5.22,0.57,2.38,4.35,3.53,2.66,6.79-9.2,8.17-5.85,28.24,5.78,34.62,4.7,2.58,9.63,4.65,15.05,5.08,16.44,1.3,32.52,1.11,48.82-3.46,28.36-8,53.79-22.5,80.88-33.19A113.59,113.59,0,0,1,441.58,188c12.31,0.6,24.55.79,36.41,4.58,2.84,0.91,6,.84,8.58,2.6a4.25,4.25,0,0,0-.84,1.6,6.62,6.62,0,0,1,1.15-1.43c3.88-1.62,6.36,1.53,9.48,2.66,15.05,5.44,30.11,10.95,45.7,14.5,12.84,2.93,25.84,1.89,36.8-5.95,8.43-6,15.47-14,22-22.14a29,29,0,0,1,5.73-6,3,3,0,0,1,2.84-.92c6,2.75,12.46,4.44,18.74,6.41,12,3.76,14.74,12.22,6.35,21.84C629.72,211.21,624.12,216.06,621.9,223.34Z" transform="translate(-4 -3.98)"/><path class="cls-11" d="M192,124.24c-4.94-1-8.74-2.63-4.74-8.6,0.49-.74,1.15-2.14.84-2.51-4.4-5.3,1-11.36-1.41-16.88-0.76-1.76-.4-4.18-0.13-6.19,0.32-2.34,1.45-4.53,4.11-4.83,2.51-.28,3.53,1.71,4.52,3.64,6,11.77,6,11.81,16.07,2.77a85.9,85.9,0,0,0,18.34-22.5c1-1.87,2-3.88,4-4.65,8.1-3.2,15.3-8.61,24.18-9.91a76.1,76.1,0,0,1,7.85,2.94c5-.92,9.58,3,14.63,1.13a1.25,1.25,0,0,0,1.11-.12c3.35-3.62,8.48-3.35,12.4-5.67,0.88-.74,1.79-1.45,2.63-2.22,1.44-1.34,3.06-2.42,4.81-.84s1,3.35.23,5.09a13.61,13.61,0,0,1-9.73,8c-4.46,1-9,1.81-13.94,2.8,4.23,5,8.9,7.53,15.2,6.83a72.9,72.9,0,0,1,9,.13c3,1,6.44,1.09,8.36,4.23,0.64,2.78-.71,5-3.11,5.44-6.51,1.33-13.1,4.58-19.78,2-7.81-3-15-2.43-22,1.74a6,6,0,0,1-3.4.59,5.1,5.1,0,0,1-2-.6,6.46,6.46,0,0,1-2.51-3.17c-3.09-7.1-7.89-7.53-14-1.38-3,3-9.13,5.85-5.52,12.27,3.14,1.77,7.1,1.8,9.74,4.61,2.12,3.27.84,6-1.93,7.74-4.93,3.06-10.3,5.78-16.27,4.91-6.13-.89-11.94.6-17.88,1.15C203.07,113,197.69,118.82,192,124.24Z" transform="translate(-4 -3.98)"/><path class="cls-12" d="M260.67,85c2.27-1.14,4.52-2.31,6.82-3.4,3.8-1.81,8.17-4.32,11.92-2.65,8.63,3.82,17.05,2.67,25.77,1.34,2.63-.4,3.72-1.33,4.18-3.63,6.88,1,10.61,5.75,9.6,12.09-1.2,7.53-5.24,10.54-12.48,9.27-3-.53-6-1.12-8.12-3.45-1.84-2-3.92-2.17-6.28-1.24-7.28,4.94-14.43,10.16-20.14,16.88a29.9,29.9,0,0,1-23.81,11.06c-10.58.08-19.23,3.86-25.38,12.66-10.14,2.32-20.2,4.18-27.87-5.66,0.71-4.47,5.7-3.53,7.82-6.21,7.44,0,14.74-1.48,22-2.64-8.36-3.39-16-1.67-23.32,3.14-2.51,1.41-4.7,3.65-8,3.13l-1.4-1.4c1.72-6.92,6-11.32,13-13,8.53-2,16.82-4.93,26-3.09,5.74,1.15,14.79-4.81,15.48-9a1.67,1.67,0,0,1,.58-1.2C253.46,95.6,257.56,90.8,260.67,85Z" transform="translate(-4 -3.98)"/><path class="cls-13" d="M556.45,75.33c1.55-.45,3.11-1.36,4.63-1.28,8.74,0.48,17.35-.84,26-1.57,7.53,0.08,11.23,2.9,14.14,10.75a6.3,6.3,0,0,1-1.35,4.07c-3.35,4.55-8.36,4.18-13.18,4.51-1.67-.27-2.88-1.56-4.46-1.87A3.6,3.6,0,0,0,577.61,93c-0.44,2.38,1.76,2.22,3.25,2.51,4.73,1,9.58,4.75,14-.69,3.63-1.95,7.31-2.76,11.14-.56,4.42,8.84.75,21.5-7.83,27.06-3.67-1.95-4.93.3-5.85,3.29a35.56,35.56,0,0,1-13.95,19c-3.63,2.51-7,3.9-10.76,1.75-6.36-3.62-11.71-2.65-16.56,2.51-3.86-3.86.84-6.65,1.22-10,3.76-4,8.61-2.9,13.1-2.36,7.69,0.94,13.53-2.46,16-10,1.15-3.53,1.58-7.33,3.27-10.64,2.87-5.58-.13-6.86-5.17-7.44-0.34,3.5,1.16,6.5,1.52,9.63,1.17,10.09-5.63,16.83-15.51,15.38-5-.73-7-3.54-5.49-8.36,1-3.08,1.92-6.39,3.61-9,2.88-4.4,1.61-7-2.15-9.41-0.24.33,0.18,0.44,0.18,0.69,1.67,6.48,1.9,12.63-2.43,18.31-4.78,6.28-15.42,6.16-18.34-.35,0.4-.57.7-1.52,1.2-1.67,14.61-3.51,11.84-15.6,9.54-24.25C549,89,552.78,82.6,556.45,75.33Z" transform="translate(-4 -3.98)"/><path class="cls-13" d="M609.51,178.63l-2.93-.23c-9.65-11.86-4.41-24.6,3.1-32.16,4.55-4.57,5.49-11.23,10.8-15,1.72-1.22.65-3.15-.91-4-3.69-1.9-5.06-8.57-11.37-5.2-6.05,3.24-6.16,3-8.78.72,6.51-6,8.46-13.87,9.41-22.21,2.74-5.49,7-5.19,11.71-3,6.08,6.23,1.67,13.38,1.67,21.85,3.51-6,1.52-11.26,2.78-16a8.23,8.23,0,0,1,3.16-4.31c1.67-1,4.73-1.09,3.91-3.82-0.77-2.58-3.75-2-5.91-2.26-0.84-.12-1.8.19-2.71,0-3.16-1.21-4.48-4.55-7.28-6.27-1.79-1.1-3.22-2.82-5.49-1.12-1.29,1.14-2.65,2.07-4.51,1.72a4.44,4.44,0,0,1-3.4-3.51c3.15-9.78,9.07-11.83,17-5.76,1.88,1.43,3.55,3.19,6.16,2.12,5.15-2.08,9.16-.1,12.28,3.8s5.69,3.76,8.73-.19c3.3-4.27,7.53-6.13,12.68-2.9,4.46,3,9.58.05,14.22,1.58,1.29,3.56-1.34,4.48-3.77,5.19a16.33,16.33,0,0,1-6.17.39c-6.62-.7-11.06,2-13.38,8.2-6,2.91-10.26,6.82-7.9,14.38-9.56,10.51-16.85,22.66-24.33,34.62a129.74,129.74,0,0,0-10.15,20.91c-0.74,2.47.08,4.18,2.11,5.81s3.88,3.91,2,7A2.17,2.17,0,0,1,609.51,178.63Z" transform="translate(-4 -3.98)"/><path class="cls-14" d="M517.23,135.58c-3.7,4.73-2.51,11-5.39,16.25-2.78,5-6.83,5.85-10.87,4.83-5.19-1.27-11.42-2.84-12.2-9.68-1.57-13.64-4.24-26.44-16.87-34.82-2.51-1.67-5.94-4.44-4.76-8.5s5.39-3.86,8.28-3.7c18.61,1,36.59,9.73,38.84,31.78a29.18,29.18,0,0,1,13.55-8.36c2.09-.62,5-2.65,6.46,1.18a3.05,3.05,0,0,1,.44,1.91,4.29,4.29,0,0,1-3.4,3.35c-4.83-1.11-8.51,1.23-12,4A3.07,3.07,0,0,0,517.23,135.58Z" transform="translate(-4 -3.98)"/><path class="cls-15" d="M533.79,125.65a1.32,1.32,0,0,0,.45-1.12c2.17-2.35,4.39-.95,6.61-0.08a10.64,10.64,0,0,0,14,.59c4.09-3.1,8-7.66,3.91-13.69-2-3,1.25-4.52,1.76-6.82l-0.13.12c12.05,1.16,11.87,1.06,5.85,11.54-2.33,4.06-3.63,8.7-5.34,12.93,1.59,1.5,3,.6,4.3.57,12.54-.33,16.73-7.65,10.8-19.23-1.29-2.51-2.16-4.57.23-6.81s4.18-.32,6.57.39c8.36,2.46,9.79,6,4.08,12.82-1.47,1.76-2,4.88-1.86,7.31,0.43,7.59-8,9.62-9.64,15.89-0.42,1.57-3.35,1.14-5.07.23-5.19-2.78-10.72-2.51-16.29-2a6.07,6.07,0,0,1-3,1.1,3.94,3.94,0,0,1-1.92-.73c-0.49-4.59-3.56-4.37-7-4C532.81,135.71,532,134.7,533.79,125.65Z" transform="translate(-4 -3.98)"/><path class="cls-16" d="M338.24,131.11c19.18-.12,40.14,20.12,42.17,40.24,0.75,7.47-5.75,13-13.34,11.88-12.18-1.77-11.47-2.3-14.87-14.22-3-10.7-7.32-21.65-19.74-25.71-3.35-1.1-7.63-2.19-6.86-6.46s4.8-5.85,9.15-5.72C335.92,131.13,337.08,131.1,338.24,131.11Z" transform="translate(-4 -3.98)"/><path class="cls-17" d="M457.3,139.52c10.09,5.36,9.62,5.59,6.92,18.32-0.64,3.05-.15,6.89-1.17,10.37-0.84,2.9-2.69,4.1-5.42,4.62-9.85,1.89-18.15-2-23.57-10.41a33.29,33.29,0,0,0-18-13.83c-9.75-3.2-17.29-9.75-23.78-17.12-7.28-8.26-16-14.54-24.7-20.91-3.23-2.38-3.7-4.18-2.43-7.35,0.72-1.36.63-3.54,3.14-3.11,3.65,7.7,12,9.52,18.1,14.22C404.93,128.61,421.85,145,441,158.47c3,2.12,4.72,5.75,8,7.59,6.9,0.67,9-1.41,8-7.48-0.48-2.72-1.35-5.34-1.74-8.08a5.36,5.36,0,0,1,1.2-3.77c-0.41-1.06,2.91.44,1.05-1.44S455.31,141.51,457.3,139.52Z" transform="translate(-4 -3.98)"/><path class="cls-18" d="M368.35,100.55l-3.28,2.63c0.27-8.36,7.84-9.83,13-13.06,4.68-2.91,8.36.84,11,4.52,11.09,15.17,26.48,25.26,42.71,33.33,8.2,4.08,16.43,8.84,25.41,11.54-0.08,2.11.84,3.81,1.81,5.63s-0.43,1.67-1.67,1.3a3.14,3.14,0,0,1-3.27.61c-11.71-5.49-24.85-7.73-35.22-16.26a155.76,155.76,0,0,0-23.24-15.3c-5.13-2.86-9.83-6.2-10.2-13.06-0.21-3.79-3.17-3.29-5.8-2.77C376,100.41,372.35,103,368.35,100.55Z" transform="translate(-4 -3.98)"/><path class="cls-19" d="M292.09,93.29c5-2.31,9.4.6,14.07,1.39,2.65,0.44,6.26,3.66,7.86-.53,1.8-4.71,4.56-10,.08-14.88-1.17-1.26-3.14-1.78-4.73-2.64l-7.46-4c8.21-1.25,13.38,5.4,20,8.2,4.94,2.1.13,18.11-6.44,20.58s-13.22,3.89-19.92,5.49c-3.54.84-4.73-1.29-3.78-4.43a32.41,32.41,0,0,1,2.86-6.22C296.56,92.79,293.5,93.79,292.09,93.29Z" transform="translate(-4 -3.98)"/><path class="cls-20" d="M515.79,46.21c4.44,4.18,5.08,10.14,1.58,16a53.74,53.74,0,0,1-3.29,4.43c-6.29,3.24-11.21.13-15.18-4.11-2.63-2.82-3.8-6.82-1.12-10.71A31.78,31.78,0,0,0,515.79,46.21Z" transform="translate(-4 -3.98)"/><path class="cls-21" d="M611.08,102.05a28.43,28.43,0,0,1-4,16.31c-1.81,3-4,4.92-7.67,4.42l-1.25-1.45c2.82-8.61,9.15-16.27,7-26.21-3.18-2.22-7.33-3.66-6.94-8.71l1.46-2.77c1.44-1.1,2.79-1.27,4,.33l3.24,2.34A7.25,7.25,0,0,1,612.1,92C613.89,95.54,611,98.65,611.08,102.05Z" transform="translate(-4 -3.98)"/><path class="cls-22" d="M263.57,59.65c-3.06-.38-3.78-3.44-5.76-5,8.05-3.18,15.66-6.91,19.46-15.44a4.68,4.68,0,0,1,5.53-3.05l1.2,5.4c-0.84,4.38-2.77,7.94-7,9.94l-1.36,1.12C273.86,58.77,267.62,57.35,263.57,59.65Z" transform="translate(-4 -3.98)"/><path class="cls-23" d="M533.79,125.65c1.51,16.68,12.75,1.59,18.4,6.52-0.48,1.57-4,2.92-2.82,6-1.09,1.07-2.31.92-3.56,0.38-2.34-3-5.93.84-8.36-1.51l-5.12-1.77c-3.44-1.4-6.15-.13-8.73,2.15-1,.84-1.24,3.46-3.51,1.67a4,4,0,0,0-2.84-3.5c-0.95-.95-1.3-1.94-0.27-3.06,4.92-.6,9-4.18,14.06-4.18Z" transform="translate(-4 -3.98)"/><path class="cls-24" d="M515.79,46.21c-3.91,8.05-11.88,10.53-18,5.59a7.36,7.36,0,0,0,.29-1.34C503.26,46,509.21,44.81,515.79,46.21Z" transform="translate(-4 -3.98)"/><path class="cls-25" d="M243.42,192.5c-2-1.67-4.83-2.42-5.65-5.32,2.51-6,5.24-6.86,14.48-4.47C255,190.28,253,192.47,243.42,192.5Z" transform="translate(-4 -3.98)"/><path class="cls-26" d="M252.25,182.7c-2.46,1.56-4.76,3.35-8,2-2.8-1.2-4.62.84-6.44,2.51a6.74,6.74,0,0,1,2.38-9.2c4.27-2.92,8.24-1,11.71,2.11Z" transform="translate(-4 -3.98)"/><path class="cls-27" d="M550.8,138.12l3.21,0.16c0.08,3.55-4.06,5.78-3,9.63-0.67,2,.49,4.61-1.81,6.33-3.35-3.62-2.12-7.69-1.33-11.71C546.65,139.58,549.44,139.34,550.8,138.12Z" transform="translate(-4 -3.98)"/><path class="cls-28" d="M263.57,59.65c2.89-4.3,8.36-4.11,12.08-7.06-0.44,3.55-.21,6.56,4.63,6.09C274.85,61.28,269.14,58.9,263.57,59.65Z" transform="translate(-4 -3.98)"/><path class="cls-29" d="M550.8,138.12l-2.93,4.42c-4.1-.18-4.08,3.55-5.71,5.79-0.72,1-1.45,5.26-3.82,1-1.67-5.65,2.2-8.81,5.44-12.27a2.51,2.51,0,0,1,2.89-.28c0.28,1.73,1.55,1.48,2.74,1.37h1.4Z" transform="translate(-4 -3.98)"/><path class="cls-30" d="M546.65,136.75l-1.5,1.35c-4.27.84-5.36,7.53-11,6-0.73-3.19,2.84-4.4,3.24-7.07a50,50,0,0,1,6.87-2.8C545.76,133.83,548.46,133.58,546.65,136.75Z" transform="translate(-4 -3.98)"/><path class="cls-31" d="M520.09,139.09c2.62-1.67,3.81-5,7.19-5.92,2.4-.64,4.52-1.48,5,2.07-3.65,1.19-7.26,2.4-9.8,5.61-0.84,1.05-2.25,1.91-3.41.4C518.46,140.41,519.27,139.58,520.09,139.09Z" transform="translate(-4 -3.98)"/><path class="cls-32" d="M534.2,144.06c4.3-.84,5.85-6.69,11-6-2.78,3.42-5.66,6.79-6.83,11.21Z" transform="translate(-4 -3.98)"/><path class="cls-28" d="M293.79,52.9c-3.27,3.79-7.59,5.25-12.4,5.67C283.12,51.41,289.3,54,293.79,52.9Z" transform="translate(-4 -3.98)"/><path class="cls-28" d="M277,51.45c3.35-2.61,5.19-6.24,7-9.94C284.78,47,282.32,50.22,277,51.45Z" transform="translate(-4 -3.98)"/><path class="cls-33" d="M605.11,165.67c5.69-13.91,12.34-27.25,22.05-38.88,2.19-2.62,4.38-5.13,4.83-8.91,0.64-5.29,6.32-5,9.46-7.63-0.13-5.91,3-10.21,7-14.09,0.12-7.87,4.57-10.46,11.93-11.45,4.46-.59,9.69,2.38,13.49-2.19,3.65-5.57,8.36-8.31,15.05-5.59,6.09,1.28,5.85,6.92,7.68,11.14,3.61,5,3.25,9.53-1.81,13.21-4.42,3.2-5.09,8.36-7.48,12.54-5.7,10.18-10.6,21.08-19.34,29.35a46.19,46.19,0,0,0-6.17,6.56c-2.51,3.55-1.94,6,2.82,6.64,11,2,22.08,3.78,33.18,5.21,6.5,0.84,8,2.4,8.36,9.2-4.42,3.55-6.92,11.31-15.05,7-6.46-4.18-13.38-4.32-20.6-2.51-5.6,1.43-11.22,3-17.06,1.27a10,10,0,0,1-3-.65c-1.85-3.81-4.18-6.38-9-4.18-0.94.43-2.13-.48-3-1.25-5.29-6.53-1.51-12.71.72-18.94-1.13-7.53,1.26-14.55,2.79-21.74-6.69-1-7.36-.84-7,5,0.49,7.72-2,14.33-5.6,20.8a6.35,6.35,0,0,1-3.35,3.75c-5.07.79-8,3.71-9.73,8.58-1.12,3.25-3.56,5.33-7.53,4.51S604.24,169,605.11,165.67Z" transform="translate(-4 -3.98)"/><path class="cls-34" d="M603.66,84l-4-.33c-3.71-4.27-6.86-9.2-12.59-11.18,12.79-2.73,25.69-1.57,38.47-.69,8,0.55,15.95,2.42,23.93,3.56,4.13,0.59,7.23,2.84,10.11,5.59-5.33-.72-8.65,2.1-11.51,6.16-4,5.75-6.89,5.74-11.09.23-3.06-4-5.8-8-11.59-3.3-1.59,1.29-4.18.69-6.13-1.48-6.69-7.33-6.84-7.23-13.67-.51Z" transform="translate(-4 -3.98)"/><path class="cls-35" d="M373.57,66.75c-8.45-4.73-8.71-7.08-1.48-13.77,6.14-1.82,7.9,2.61,9.8,6.86C382,67.14,380.83,68.17,373.57,66.75Z" transform="translate(-4 -3.98)"/><path class="cls-36" d="M696.92,72.24c2.91,0,5.09,1.78,7.46,3.1,4.22,3.08,6.15,6.86,2.78,11.6-2.78,3.91-6.82,4.06-11.85.84,0-4.29-3.46-7.84-2.64-12.32C693.63,73.81,694.81,72.39,696.92,72.24Z" transform="translate(-4 -3.98)"/><path class="cls-37" d="M692.67,75.5c1.81,3.49,3.89,6.91,3,11.12-0.26,1,.14,2.22-1.14,2.77-3-3.64-.9-9.58-5.62-12.45Z" transform="translate(-4 -3.98)"/><path class="cls-3" d="M373.57,66.75c5.48,1,7.46-2.31,8.36-6.92,2.36,7.39,1.5,8.27-8.36,8.56l-1.11-.54Z" transform="translate(-4 -3.98)"/><path class="cls-2" d="M732.08,58.46c0.73,4.43-3.4,6.11-5.29,9-2.44,3.72-3.19,6.56.05,10.48A144,144,0,0,1,745.7,108.6c4.82,10.23.84,16.78-10.18,17a27.46,27.46,0,0,0-7.53.94c-7.16,2.22-7.28,3.26-1.54,8.82a1.73,1.73,0,0,1,.6,2.37l-0.05.08c0.11,2.13-1.55,4.93,1.25,6.14,3.18,1.38,1.54,2.77.37,4.06a44.18,44.18,0,0,1-20,12.54c-10.49-1.15-21.09-.64-31.55-2-4.76-.64-7.35-3.64-6.91-8.71-0.24-4.56.75-9.13,3.86-12.24,7.09-7.13,10.25-16.49,14.47-25.09,5.91-12,14.28-21.63,24.09-30.31,3.7-2.94,5.27-7.53,8.4-10.92C723.72,66.09,726.76,61.27,732.08,58.46Z" transform="translate(-4 -3.98)"/><path class="cls-38" d="M712.59,82.12c1.49,1.67.59,2.9-.78,4.09-12.29,10.77-20.48,24.33-26.3,39.39-3.19,8.23-10.91,13.67-13.38,22.29a4.53,4.53,0,0,0-1,3.13c0.57,9.43.57,9.43-8.92,8.15-1.78-.26-4.36,2.1-5.19-1.24-0.78-3.15-1.23-6.49,1.32-9.2,3-3.2,6.12-6.31,9.2-9.44,4.42-4.48,8.44-9.27,10.09-15.51,0.72-2.72,2.74-4.18,4.56-5.93s4.13-3.74,3.35-5.72c-2.7-6.82,2.58-9,6.37-11.84C696,97.2,697.79,94,694.5,89.41l1.14-2.77c4,2.2,7.28,1.31,10-2.07,2.93-3.55.38-6.33-1.37-9.2C709,75.36,708.67,81.3,712.59,82.12Z" transform="translate(-4 -3.98)"/><path class="cls-3" d="M183.77,125.56c6.69,0.07,8.86,5.85,12.48,9.84C190,134.74,184,133.82,183.77,125.56Z" transform="translate(-4 -3.98)"/><path class="cls-39" d="M193.46,125.65l6.75-4.62c1.23,0.34,2.42.74,3,2.07,0.45,6.89-6.54,1.77-8.28,5.13Z" transform="translate(-4 -3.98)"/><path class="cls-40" d="M652.68,174.49c10.34-1,20.68-2.16,31-3.09,3.94-.35,8.07-0.57,9.44,4.6a9.83,9.83,0,0,1,1.81,3.61,11.35,11.35,0,0,1-1.2,7.37c-2.51,5.37-6.45,10.12-6.8,16.44-0.08,1.34-1.55,2.22-3,2.55-3.46-1.32-6.24.65-9.2,1.95-3.23-3.8-.73-6.58,1.34-9.83,3.41-5.36,7.59-10.79,4-17.78-1.05-2-2-4.33-4.9-4.27-3.35.08-3.11,3.12-3.65,5.09-2.51,8.87-.64,18.34-3.51,27.17-1.67,5.18-3,10.65-7.94,14-2.93,2-5.91,2.66-8.77-.22-2.16-5.49,4-7.45,4.92-11.66a10.35,10.35,0,0,1,1.33-3.59c2.18-4.23,5.11-8.14,5.61-13.09,1.21-5.6-.6-9-6.54-10.38a7.76,7.76,0,0,1-6.1-5.85C650.37,175.92,651.46,175.16,652.68,174.49Z" transform="translate(-4 -3.98)"/><path class="cls-3" d="M609.51,178.63l3.16-.3a6.17,6.17,0,0,1,6.85-2.18c8.3,2.13,16.87,2.76,25.18,4.6,11.61,2.57,14.3,11.11,6.94,20.51a28.22,28.22,0,0,0-11.09,12.8c-1.24,2.93-3.65,5.94-6.8,4.18-4.27-2.42-6.33.07-8.92,2.23l3.53,2.68c-2.3,1-4.18,2.19-6.44.21-2.07-8.2,4.53-12.75,8.64-17.49,9.14-10.57,8.62-14.59-4.24-19.74-4.69-1.88-9.2-4.18-14.32-4.58C610.35,181.39,608.57,181.11,609.51,178.63Z" transform="translate(-4 -3.98)"/><path class="cls-41" d="M682,205.25c1-.44,2.92-1.25,2.91-1.28-3.42-8.3,4.59-12.54,6.69-18.79,0.58-1.73,1.13-3.48,1.67-5.21,2.88-.59,5.49-1.43,7.53-3.92,1.76-2.17,4.07-4.06,6.38-.3,0.36,6.69-.94,13.09-2.56,19.47v1.67c0,4.72-1.4,8.64-6,10.82-1.51,1.28-3,2.62-4.54,3.84-3,2.33-5.06,1.44-6.37-1.91-2.57-1-4.48,2.22-7.07,1.1l-1.22-.92c-1.94-.78-3.26-2.13-2.07-4.18S680.27,203.83,682,205.25Z" transform="translate(-4 -3.98)"/><path class="cls-42" d="M624.82,220.45c0.26-2.69,1.81-4.67,3.68-6.41s4.13-1.55,6.31-.29c1.57,0.9-2.55,3,.38,3,2.22,0,2.67-1.72,2.21-4.42-0.52-3.09,2.75-4.86,5.17-6.63,2-1.48,3.86-3.21,5.79-4.83,3.66,3.22,8,5.85,10.2,10.45-0.08,5.16-4.69,7.3-7.23,10.82l-1.45,1c-2.91,2-5.21,5.85-9.68,3.24-4.18-1.26.5-3.24-.55-5-2,.84-4.11,1.67-6.21,2.51-1.1.43-3,.66-2.84-0.64C631.16,216.61,626.24,222.26,624.82,220.45Z" transform="translate(-4 -3.98)"/><path class="cls-43" d="M704.57,195.22c-1.35-7,2.21-13.72.93-20.69a2.42,2.42,0,0,1-.71-3c0.64-4.92-1.22-7.25-6.48-7.18-12.29.15-24-3.93-36.12-5.21,5.8,0.23,10.48-.49,7.79-8.31-0.54-1.58.74-2.51,2.17-3-0.74,6.19,2.93,8.13,8.19,8.29,5,0.15,10.09.31,15.11,0s9.5,0.73,13.2,4.32c0.15,10.16,1.13,20.36-1.41,30.41C706.78,192.72,707,194.69,704.57,195.22Z" transform="translate(-4 -3.98)"/><path class="cls-44" d="M727,137.78l-0.54-2.46c0.41-2.23.54-4.61,2.89-5.85,4.66,1.86,9.37,1.27,14.11.35,3,5.41,1.42,10.1-3.35,13.18C733.86,147,730.54,141.69,727,137.78Z" transform="translate(-4 -3.98)"/><path class="cls-45" d="M743.45,129.79c-4.64,6-9.68,5.85-14.11-.35C734.12,126.7,738.86,125.26,743.45,129.79Z" transform="translate(-4 -3.98)"/><path class="cls-46" d="M682,205.25c-2.84.4-4.57,1.43-2.55,4.56-0.89,1.38-2.2,2.63-3.72,1.67-0.74-.46-0.61-2.34-0.84-3.58,0.89-2.56,1.76-5.28,5-5.52C681.56,202.3,684,202.3,682,205.25Z" transform="translate(-4 -3.98)"/><path class="cls-43" d="M698.6,207.73c2.94-3.09,4.14-7.13,6-10.82C705.89,202.34,705.61,206.89,698.6,207.73Z" transform="translate(-4 -3.98)"/><path class="cls-47" d="M486.87,195.34c1.67,2.11,4.39,4.18,1.6,7-1.78,1.81-3.91.32-5.63-.84-1.17-.79-2.13-2-1.78-3.47,0.69-3,3.12-2.93,5.48-2.89Z" transform="translate(-4 -3.98)"/><path class="cls-48" d="M260.67,85c1.3,9.8-2.11,13.21-14.22,14.22-3.88-.37-7.69-1-11.16-2.94-0.44-7.67,8.52-18.71,15.5-18.75,5.08,0,7.53,3.6,9.53,7.64Z" transform="translate(-4 -3.98)"/><path class="cls-49" d="M260.33,85.12c-7.87-7.33-14.77-6.52-20.63,2.7-1.67,2.65-4,5.09-4.4,8.44-2.46-.95-3-2.63-1.86-4.92,3.13-6.29,7.3-11.84,13.38-15.42C252.33,72.67,257.43,76.34,260.33,85.12Z" transform="translate(-4 -3.98)"/><path class="cls-50" d="M197.36,103.42c1.89,0,2.75.84,2.74,2a2.09,2.09,0,0,1-2.38,1.89c-1,0-2.51.43-2.51-1.3S196.69,104,197.36,103.42Z" transform="translate(-4 -3.98)"/><path class="cls-51" d="M203.17,123.1c-2.6,1.63-2.86-.11-3-2.07,7.4-8.1,16.65-7.89,26.27-5.71,2,0.45,4.32,1,3.92,3.87s-1.76,5.17-4.81,4.9c-5.85-.53-11.51-0.49-17.18,1.6C207.16,126.16,204.94,124,203.17,123.1Z" transform="translate(-4 -3.98)"/><path class="cls-41" d="M595.48,97.5c-0.84,3.92-4.53,4.47-7,4-4.7-.84-8.86-4.08-14.11-3.17-1.05.18-1.55-1.59-1.4-2.76a11.52,11.52,0,0,1,7-9.58c4.07-1.8,5.64,1.6,7.34,4.32C591.11,91.48,595.5,91.91,595.48,97.5Z" transform="translate(-4 -3.98)"/><path class="cls-52" d="M561.84,93.58A7.27,7.27,0,0,1,556.21,89c-1.37-3,1.75-3,3.23-4.09,1.1-.84,2.94-1.52,3.1-2.51,1.67-10.27,6.81-1,10.12-1.72,0.77-.16,1.78,1.23,1.55,2.63C573.86,85.51,564.08,93.68,561.84,93.58Z" transform="translate(-4 -3.98)"/><path class="cls-53" d="M595.48,97.5c-2.16-3.06-6.69-3.43-8.23-7.18,3.14-2.76,7.82-1.16,11-3.91,3.58,1.9,6.11,4.62,6.94,8.71C601.85,95.6,598.46,95.71,595.48,97.5Z" transform="translate(-4 -3.98)"/><path class="cls-54" d="M560.52,104.55c-2.61.4-2.94-1.53-3.35-3.35-0.41-2,1.3-2.73,2.56-3.57a2,2,0,0,1,2.87.23l0.15,0.19c0.84,1.31.2,2.63-.47,3.81-0.55,1-1.27,1.86-1.92,2.78Z" transform="translate(-4 -3.98)"/><path class="cls-55" d="M658.56,211.27c-2.65-.92-5.25-2-8-2.71-5.39-1.34.89-5.85-2.24-7.74a38.16,38.16,0,0,0,3.72-5c2.75-5.22,1-9.87-4.71-11.1-11.51-2.45-23.14-4.31-34.72-6.41-2.89-1.38-3.24-5.39-7.3-6.16-2.1-.39-1.54-4.18-0.24-6.51,0.84,2.45.84,6.24,4.8,5.14,2.85-.84,5.15-3.06,4.18-6.79s0-5.34,4.4-4.6c1.89,0.32,4-2,6.41-1.75,3.4,6.17,9.7,8.84,15.15,12.54,4.73-.08,7.35-3.93,11.71-7.13l-1.81,11c-2.45,2.39,1.61,1.75,1.44,3.09,2.35,1.33,4.56,3.11,7.08,3.91,9.37,2.93,9.41,2.81,6.89,12.95-2,4.57-5,8.72-5.74,13.82Z" transform="translate(-4 -3.98)"/><path class="cls-56" d="M609.09,83.88c6.41-2.78,8.87-1.48,14.57,7.65,5.85,2.42,3.61,7.46,3.76,11.71,0.4,6.44,1.05,12.89-2.38,18.86-1.12,2-2.46,3.52-4.9,2.68s-2.68-3-2.09-5.14c1.82-6.69,3.11-13.46,2.46-20.45-2.44-2.37-5.24-4.37-7.32-7.13C612.35,89.08,607.66,88,609.09,83.88Z" transform="translate(-4 -3.98)"/><path class="cls-57" d="M627.42,103.24l-3.76-11.71c1.34-.84,2.51-2.11,4.35-1.67,3.35,0.74,8.54-.65,8.88,4.41,0.31,4.53-2.51,7.79-7.94,7.1C627.83,101.18,627.71,102.41,627.42,103.24Z" transform="translate(-4 -3.98)"/><path class="cls-58" d="M648.42,96.16c0,5.85-3,10.2-7,14.09C636.4,103,639.23,97.25,648.42,96.16Z" transform="translate(-4 -3.98)"/><path class="cls-59" d="M615.23,90.65c3.95,1.51,4.7,5,5.26,8.56-3.22.68-8.1-4.1-9.42,2.85l-1.33-10.41C611.18,89.2,613.07,89.16,615.23,90.65Z" transform="translate(-4 -3.98)"/><path class="cls-60" d="M615.23,90.65a7.53,7.53,0,0,0-5.48,1l-2.84-5.31,2.18-2.46C610.22,87,614.31,87.38,615.23,90.65Z" transform="translate(-4 -3.98)"/><path class="cls-61" d="M498,128.37c-4.07-13.27-16.33-17.31-28.43-24,9.86-3.29,16.73,0,23.2,4.32,11.91,8,19.46,18.4,17.42,33.66-4.52,3.45-8.7,2.51-10.42-2.55C498.57,136.11,498.57,132.19,498,128.37Z" transform="translate(-4 -3.98)"/><path class="cls-62" d="M498,128.37c1.73,3,1.81,6.49,3.42,9.61,2,4,4.61,5.42,8.79,4.35a6.76,6.76,0,0,1-.13,2.74c-1.54,3.19.37,9.57-6.82,7.75-6.57-1.67-9.46-6.41-7-12.2C498.08,136.59,498.06,132.53,498,128.37Z" transform="translate(-4 -3.98)"/><path class="cls-63" d="M531,128.34c-4.08,3.42-8.64,5.24-14.06,4.18C521.16,129.46,525,125.43,531,128.34Z" transform="translate(-4 -3.98)"/><path class="cls-64" d="M361.13,160.41c-4.8-16.73-20-18.4-34.1-22.48,15.63-10.14,43.38,5.44,46.59,25.09,1.15,4.75,1,10.75-3.75,11.63-5.55,1-6.24-5.31-7.23-9.78C362.3,163.35,362.49,161.62,361.13,160.41Z" transform="translate(-4 -3.98)"/><path class="cls-65" d="M361.13,160.41c5,2.73,4.33,9.12,8.57,12.76,1.81-3.06,4.06-6.08,3.92-10.14,1.67,2.51,1.31,5.34,1.2,8.07-0.15,3.71.94,8.45-5.65,7.7-6.12-.7-9.94-4.43-9.27-9.49C360.29,166.34,360.71,163.38,361.13,160.41Z" transform="translate(-4 -3.98)"/><path class="cls-66" d="M368.35,100.55c4.5-3.14,10-3.55,15-5.12C388,94,390,97.61,389,101.4s-0.06,6,3.12,8c12.85,7.83,25.33,16.17,37.58,24.92,3.4,2.43,8.24,2.82,12.35,4.32,5.44,2,10.87,4.08,15.4,7.81l0.46,4.38c0.54,3.51.1,7.08,0.37,10.61,0.43,5.67-4.8,6.69-9.65,6.77-3.35-.38-6.39-1.18-7.12-5.26a3.77,3.77,0,0,0-1.67-2.12c-20.17-12.77-36.48-30.44-55.75-44.32-3.6-2.6-6.47-5.65-11.37-6.58C368.56,109.12,366.83,105.09,368.35,100.55Z" transform="translate(-4 -3.98)"/><path class="cls-18" d="M448.62,168.21c4.5-1.93,10.95-2.22,7.25-10.34-0.77-1.67,1.27-4.66,2-7,2.31,3.35,1,7.45,2.8,11.13,1.41,2.89-7.57,8.24-12.79,7.79a0.64,0.64,0,0,1-.18-0.53A10.1,10.1,0,0,1,448.62,168.21Z" transform="translate(-4 -3.98)"/><path class="cls-67" d="M627.63,154.77c3.35-8.23,5.18-16.73,4-25.64-0.45-3.56,1.77-4,4.27-3.48,3.6,0.77,6.83-.28,11.42-2.11-2.78,9.61-5.85,18.21-5.94,27.35C637.11,153.08,633.61,158.39,627.63,154.77Z" transform="translate(-4 -3.98)"/><path class="cls-68" d="M627.63,154.77c4.94-.08,8.15-6.27,13.79-3.88,1,4.46-3.11,7.69-2.82,12,0.17,2.51-.08,5.13,1.47,7.37-5.51.84-9.78-2.8-14.48-4.51-3-1.09-1.44-5.19-.68-8Z" transform="translate(-4 -3.98)"/><path class="cls-69" d="M704.79,171.56c1,0.84.94,1.86,0.71,3-3.95,2.14-6.09,8.36-12.26,5.44l-0.08-4c2,1.22,3.83,2.19,5.59-.64A7.59,7.59,0,0,1,704.79,171.56Z" transform="translate(-4 -3.98)"/><path class="cls-70" d="M651.38,177.21c-3.24-1-6.53-1.94-8.87-4.77,3.53-2.9,4.62,2.68,7.43,1.67l2.75,0.38Z" transform="translate(-4 -3.98)"/><path class="cls-42" d="M659.61,207.85c0.28-5.29.07-10.77,5.74-13.82C665.5,199.5,661.92,203.41,659.61,207.85Z" transform="translate(-4 -3.98)"/><path class="cls-2" d="M97.18,211.15a74,74,0,0,1-81.18,0,12.29,12.29,0,0,1-8.48-3.53A12,12,0,0,1,4,199.15V16.1a12,12,0,0,1,12-12H97.18a12,12,0,0,1,12,12V199.15Z" transform="translate(-4 -3.98)"/><rect class="cls-2" x="891.5" y="0.45" width="131.5" height="219.68" rx="11.25" ry="11.25"/><rect class="cls-2" x="858.25" y="0.45" width="61" height="31.5" rx="12" ry="12"/></svg>