<svg id="Слой_1_копия_2" data-name="Слой 1 копия 2" xmlns="http://www.w3.org/2000/svg" viewBox="0 0 1262.35 302.37"><defs><style>.cls-1{fill:#6b4437;}.cls-2{fill:#926858;}.cls-3{fill:#855b4b;}.cls-4{fill:#855c4b;}.cls-5{fill:#6c4435;}.cls-6{fill:#9e9084;}.cls-7{fill:#9a928a;}.cls-8{fill:#9a938f;}.cls-9{fill:#dea871;}.cls-10{fill:#9d9590;}.cls-11{fill:#756057;}.cls-12{fill:#dea974;}.cls-13{fill:#756758;}.cls-14{fill:#b39876;}.cls-15{fill:#806d61;}.cls-16{fill:#c6a68d;}.cls-17{fill:#b5ac87;}.cls-18{fill:#d3ca63;}.cls-19{fill:#796358;}.cls-20{fill:#c6bd53;}.cls-21{fill:#77543c;}.cls-22{fill:#b8b6b1;}.cls-23{fill:#77513e;}.cls-24{fill:#d6a57b;}.cls-25{fill:#8b9f5e;}.cls-26{fill:#bfb3b0;}.cls-27{fill:#cda47f;}.cls-28{fill:#8b7451;}.cls-29{fill:#d1a77f;}.cls-30{fill:#d0a97d;}.cls-31{fill:#8e6345;}.cls-32{fill:#bdafa8;}.cls-33{fill:#8e6e46;}.cls-34{fill:#8a6b45;}.cls-35{fill:#867a4e;}.cls-36{fill:#a89b4f;}.cls-37{fill:#9c724b;}.cls-38{fill:#8a6e45;}.cls-39{fill:#dbcdac;}.cls-40{fill:#907248;}.cls-41{fill:#8a5c41;}.cls-42{fill:#8e6f4a;}.cls-43{fill:#9b6c4a;}.cls-44{fill:#9c6c48;}.cls-45{fill:#8a6345;}.cls-46{fill:#cdb572;}.cls-47{fill:#cab56d;}.cls-48{fill:#d8c179;}.cls-49{fill:#735041;}.cls-50{fill:#cdb677;}.cls-51{fill:#9d9467;}.cls-52{fill:#c8c3b9;}.cls-53{fill:#d6d3cc;}.cls-54{fill:#f0c190;}.cls-55{fill:#926958;}.cls-56{fill:#8d945a;}.cls-57{fill:#cfa983;}.cls-58{fill:#d1a381;}.cls-59{fill:#c1b892;}.cls-60{fill:#82ab5c;}.cls-61{fill:#d9d0aa;}.cls-62{fill:#b8b2af;}.cls-63{fill:#85955a;}.cls-64{fill:#895d44;}.cls-65{fill:#c8a683;}.cls-66{fill:#d3a97f;}.cls-67{fill:#916958;}.cls-68{fill:#885c44;}.cls-69{fill:#be9e88;}.cls-70{fill:#e9c3a4;}.cls-71{fill:#dda671;}.cls-72{fill:#dea973;}.cls-73{fill:#43343c;}.cls-74{fill:#815e4f;}.cls-75{fill:#825f4e;}.cls-76{fill:#845c4e;}.cls-77{fill:#796b58;}.cls-78{fill:#dba876;}.cls-79{fill:#ba9064;}.cls-80{fill:#b98a68;}.cls-81{fill:#8c5942;}.cls-82{fill:#dca976;}.cls-83{fill:#443336;}.cls-84{fill:#483130;}.cls-85{fill:#8c6347;}.cls-86{fill:#d6a67b;}.cls-87{fill:#41333f;}.cls-88{fill:#483e56;}.cls-89{fill:#755e58;}.cls-90{fill:#885952;}.cls-91{fill:#7d704d;}.cls-92{fill:#d0a982;}.cls-93{fill:#7c6152;}.cls-94{fill:#bd9a7c;}.cls-95{fill:#b0a99e;}.cls-96{fill:#f1ecd8;}.cls-97{fill:#f0eacb;}.cls-98{fill:#e3dfc2;}.cls-99{fill:#efeacc;}.cls-100{fill:#e9e3c4;}.cls-101{fill:#cfa37b;}.cls-102{fill:#b59578;}.cls-103{fill:#b9977a;}.cls-104{fill:#c3b954;}.cls-105{fill:#d5c174;}.cls-106{fill:#b0a951;}.cls-107{fill:#beb554;}.cls-108{fill:#b4ab51;}.cls-109{fill:#c9b766;}.cls-110{fill:#c3b069;}.cls-111{fill:#cab274;}.cls-112{fill:#ccb96a;}.cls-113{fill:#cbb074;}.cls-114{fill:#81ad5c;}.cls-115{fill:#a09c92;}.cls-116{fill:#c8bdaa;}.cls-117{fill:#825b4a;}.cls-118{fill:#a69c8c;}.cls-119{fill:#a29d92;}.cls-120{fill:#dea873;}.cls-121{fill:#ece6de;}.cls-122{fill:#443541;}.cls-123{fill:#6a4636;}.cls-124{fill:#cd9763;}.cls-125{fill:#cb9662;}.cls-126{fill:#998a83;}.cls-127{fill:#825a3f;}.cls-128{fill:#d19b65;}.cls-129{fill:#d29b65;}.cls-130{fill:#cc9b64;}.cls-131{fill:#cc9764;}.cls-132{fill:#d49f6b;}.cls-133{fill:#d7a267;}.cls-134{fill:#7baf5d;}.cls-135{fill:#86a35a;}.cls-136{fill:#a7b27a;}.cls-137{fill:#dfba5b;}.cls-138{fill:#251a09;}.cls-139{fill:#6b483c;}.cls-140{fill:#8b6145;}.cls-141{fill:#65493d;}.cls-142{fill:#d39b67;}.cls-143{fill:#885b44;}.cls-144{fill:#574d5b;}.cls-145{fill:#7f5b55;}.cls-146{fill:#584a5c;}.cls-147{fill:#a09389;}.cls-148{fill:#7e6556;}.cls-149{fill:#885d43;}.cls-150{fill:#a59788;}.cls-151{fill:#584b5e;}.cls-152{fill:#875a43;}.cls-153{fill:#ead270;}.cls-154{fill:#936945;}.cls-155{fill:#d9bc56;}.cls-156{fill:#debd83;}.cls-157{fill:#b0ab99;}.cls-158{fill:#443542;}.cls-159{fill:#dfa871;}.cls-160{fill:#dca876;}.cls-161{fill:#875c4c;}.cls-162{fill:#473438;}.cls-163{fill:#815c4b;}.cls-164{fill:#d6a777;}.cls-165{fill:#423847;}.cls-166{fill:#845b4b;}.cls-167{fill:#d1a978;}.cls-168{fill:#bc8e68;}.cls-169{fill:#c1925e;}.cls-170{fill:#cbbfb4;}.cls-171{fill:#6a4534;}.cls-172{fill:#c8c0b5;}.cls-173{fill:#cbc3b2;}.cls-174{fill:#6c4436;}.cls-175{fill:#6d4636;}.cls-176{fill:#6b4636;}.cls-177{fill:#d3af8f;}.cls-178{fill:#906f5e;}.cls-179{fill:#865b4c;}.cls-180{fill:#816151;}.cls-181{fill:#916751;}.cls-182{fill:#cd9960;}.cls-183{fill:#ce9762;}.cls-184{fill:#cf9964;}.cls-185{fill:#cb965f;}.cls-186{fill:#cd9a67;}.cls-187{fill:#d09a65;}.cls-188{fill:#9b9290;}.cls-189{fill:#473630;}.cls-190{fill:#f0c89e;}.cls-191{fill:#906149;}.cls-192{fill:#926957;}.cls-193{fill:#c9a787;}.cls-194{fill:#594c5e;}.cls-195{fill:#726258;}.cls-196{fill:#cda477;}.cls-197{fill:#ccac4c;}.cls-198{fill:#bfae72;}.cls-199{fill:#89868d;}.cls-200{fill:#7e5f44;}.cls-201{fill:#8a8786;}.cls-202{fill:#8b5c48;}.cls-203{fill:#d2a883;}.cls-204{fill:#898486;}.cls-205{fill:#27191b;}.cls-206{fill:#ddce94;}.cls-207{fill:#584e5d;}.cls-208{fill:#7f5e49;}.cls-209{fill:#8d8288;}.cls-210{fill:#dda873;}.cls-211{fill:#574d5d;}.cls-212{fill:#866962;}.cls-213{fill:#926b55;}.cls-214{fill:#966759;}.cls-215{fill:#878b58;}.cls-216{fill:#896d54;}.cls-217{fill:#4c372f;}.cls-218{fill:#756743;}.cls-219{fill:#413733;}.cls-220{fill:#bcb4b2;}.cls-221{fill:#d19c68;}.cls-222{fill:#cea57d;}.cls-223{fill:#6f5961;}.cls-224{fill:#fbf1d7;}.cls-225{fill:#8a888b;}.cls-226{fill:#d09963;}.cls-227{fill:#cf9968;}.cls-228{fill:#d09b67;}.cls-229{fill:#cc9663;}.cls-230{fill:#cf9965;}.cls-231{fill:#c68f5c;}.cls-232{fill:#8a898c;}.cls-233{fill:#8c878e;}.cls-234{fill:#84ab5c;}.cls-235{fill:#201600;stroke:#201600;stroke-width:2px;}.cls-235,.cls-236{stroke-miterlimit:10;}.cls-236{fill:#fff;stroke:#fff;}.cls-237{fill:#020202;}.cls-238{fill:#eab1a1;}</style></defs><title>miningUndergroundBottom</title><path class="cls-1" d="M71,379.47c-8.84-.55-15.53-6-22.9-10L-136,379c57.77-24,126.73-38.18,192.8-14.82q4.7,1.66,9.25,3.53c2.68,0,4.43,1.44,5.69,3.65,0.6,2.2,1.74,4.34,1,6.74Z" transform="translate(181 -281.05)"/><path class="cls-2" d="M530.46,583.17H245c-0.84-.73-1.66-1.77-2.72-1.86-19.82-1.78-36.63-12.14-54.56-19.25a80.94,80.94,0,0,0-24.33-5.13c-17.42-1.26-34.88-2.06-52.08-5.43a48.4,48.4,0,0,1-11.19-3.15c-3.76-1.74-7.24-4.19-6.17-8.7,1.15-4.87,5.49-4.39,9.55-4.11,15,1,29.64,4.23,44.45,6.38,20.18,2.92,40.33,3.91,60.33-1.27a101.76,101.76,0,0,0,28.17-12.23c11.05-6.87,21.89-14,34.58-17.6a18.46,18.46,0,0,0,6.39-3.74c3.36-2.56,7.92-3.61,10-7.86a7.2,7.2,0,0,1,5.64-1.8c8.7,2.29,14.5-4.91,21.94-6.74,4.41-1.27,8.46-4.08,13.39-3.14a21.1,21.1,0,0,1,4.57,2.15c1.77,1.12,3.08,4.13,5.46,2.92,7.21-3.64,15.29-1.1,22.64-3.66a30.82,30.82,0,0,0,6.79-2.86c3-.56,5.32-2.7,8.18-3.58a97.58,97.58,0,0,0,20.18,1.43,91.07,91.07,0,0,0,21.54,8.15c4.84,2.09,10.09,3.88,8.2,11-0.41,1.62-1.12,3.15-1.47,4.8-1.33,8.28.08,16.48,0.7,24.7-0.88,3.87-4.08,4.12-7.14,4.61-3.6.19-7.27,0-10.65,1.54-2.59,1.19-4.82,1.11-6.61-1.36-1.59-5.66,2.6-11.79-1.39-17.22-8.12,3.43-14.29-1.54-20.87-4.74-1.77-.22-3.48-1.05-5.32-0.58-1.06.32-2.34,0.65-2.75,1.61-3.07,7.11-8.63,7.31-14.94,5.65a7.44,7.44,0,0,0-4.76.6c-0.92.63-2.06,1.14-2.29,2.27-1.63,8.12-4.85,12.16-14.26,8.48-5.37-2.1-10.41,4.59-8.51,10.27,0.69,2.07,2,3.92,1.42,6.26-0.72,3.17-4,4.44-5.65,7.69,6.62,4.54,15.24,3.14,21.92,7.18,11.52,9.82,24.17,10.12,37.54,4.5a25.92,25.92,0,0,0,10.95-7.21c3.7-4,7.51-4.58,11.49-.78,2.82,2.69,5.27,2.89,8.87,1.11,6.6-3.26,14.85.26,21.27-4.66,1.3-1,3.59-.91,4.49-2,5.67-6.83,13.89-6.88,21.51-8.52,5.81-1.25,8.61-6.58,13.06-9.68,2.1-1.46,1-4.34-1.4-3.95-8.11,1.33-10.61-4-12.92-9.84-0.95-1.49-2.81-1.7-4-2.84-4.57-3.59-11.4-6.26-5.75-14,3.12-2.14,6.31-1.39,9.54-.27,7.64,2.65,15.59,3.51,23.57,4.6C503,514.22,524,509,545.22,508.54c25-.49,49.2-7.24,73.81-10.81a142.33,142.33,0,0,0,34.24-9.3A15,15,0,0,1,658,486.3c8.26,4.21,15.27,2.06,21.44-4.29,3.58-1.75,7.9-2.63,8.76-7.57,5.35-4,12.22-4,18.18-6.6,3.86-1.7,7.87-3.48,12-4.85,5.4,2.63,10.6,1.21,15.72-.91,2.54-1.06,5-2.42,7.87-1.78,5.9,2.35,11,1.49,15-3.73-2.11-3.75-4.85-1.25-7-.47-3.24,1.16-6.15,1.82-9-.64a2.93,2.93,0,0,1-.56-2.44c9.16-7.18,19.29-11.09,31.13-9.37,5.58,7.28,2.61,15.66,0,22-4.46,11.05-8.63,22.66-16.91,31.91-1.88,2.1-3.66,4.07-6.29,5.13-10.5.31-19.32-6.22-29.55-7.2-19.58-1.87-38.64-1.72-54.21,13-6.18,5.84-15.27,8.13-19.59,16.19-1.56,2-3.2,3.89-3.63,6.5-4.32,15.34-18.57,13.38-29.6,16.91-13.16,4.22-26,8.86-38.34,15.45C559.52,570.94,545.63,578.6,530.46,583.17Z" transform="translate(181 -281.05)"/><path class="cls-3" d="M799.19,291.07c75,3.67,237.07,14.09,238.81,40.93,1.78,27.54-166.07,59.66-238.81,72.57a10.18,10.18,0,0,1-4.37,3.64,8.38,8.38,0,0,1-2.4.59c-6.35.64-12.4,2.69-18.41,4.78-8.07.32-14.22,5.74-21.5,8.26-7,2.43-14.23,4.43-21,7.62-2.49,1.18-4.85.66-7.25-.1-9.92,0-18.45,4.78-27.51,7.76-3.06,1-2.11,4.27-3.81,6-6.93,5.42-15.67,5.93-23.59,8.66a156.39,156.39,0,0,0-29.08,3.48c-3.53.75-5.09,2.6-6.71,5.12-7.5,4.56-16.06,3.53-24.22,4.62-3.1.22-6-1.1-9-1.26-8.37-.44-12.36-3.37-10.56-11.11,2.94-12.59,1-25.43,3.85-37.85,1.29-9.68,6-16,16-18.83,8.5-2.38,16.57-6.25,24.38-10.49,2.84-.26,4,2.25,5.92,3.53a13.77,13.77,0,0,1,1.73,1.47c5.22,4.59,10.14,1.75,14.8-.89,2-1.15,3.18-3.73,5.86-4.09,2.17-.44,4.28-1.24,6.53-1.13,21.43,1,39-8.81,55.75-20.32,10.25-7,19.67-15.25,29.56-22.76,8.4-6.38,10-13.11,6.69-22.27-0.75-2-1.63-4.16-1.28-6.47,1-4,4.32-5.7,7.66-6.94a102.23,102.23,0,0,0,25.31-13.87C794.6,290.15,796.74,289.07,799.19,291.07Z" transform="translate(181 -281.05)"/><path class="cls-4" d="M747.4,501.42c1.15-15.1,12.31-19.18,20.49-35.95,2.86-5.85,2-13.52,2.83-20.36,3.73-7.21,11.55-4.4,17.19-7,3.88-1.76,7.91-1.92,11.3,1.47C917.1,379.35,1023.12,372.76,1061,419c15.94,19.46,28.42,58.77,14,90-5.46,11.83-17.17,27.68-62,46-44.19,18.06-91.79,26.75-219.65,28.31-25.41.31-33.32-.08-89.92-0.12q-86.48-.06-173,0c6.75-7.68,16.29-11.51,25-15.28,15.66-6.73,29.81-16.81,46.62-21,6.12-1.51,12.18-5.18,18.14-4.92,9.9,0.43,14.6-4.64,18.38-12.22,2.44,0.57,3.37,2.59,4.36,4.55,7,8.2,13,17.88,24.62,20.19,13.37,2.64,26.64,8.37,40.51,1.82,3.24-1.53,6.74-2.62,9.62-4.79,7.44-5.59,15.59-6.59,24.36-4.25,4.27,2.4,9,2,13.63,2.28,5.58,0.33,9.09-1.56,10.22-7.2,2.27-6,2.52-10.7-4.61-14.24a63.5,63.5,0,0,1-9.5-8.81C746.51,513,747.2,503.94,747.4,501.42Z" transform="translate(181 -281.05)"/><path class="cls-3" d="M280.11,508.2c0.53,1.54.22,2.84-1.45,3.27-20.55,5.21-36.32,19.87-55.44,27.94-18.89,8-38.57,10.26-58.65,8-21.44-2.36-42.75-5.82-64.13-8.79-1.6-.22-3.54-0.92-4.27,1.19-0.67,1.95,1,3.16,2.4,3.87,5,2.48,10.55,3.27,16,4.42,20.14,4.25,40.79,3.54,61.08,6.44,7.62,1.09,14.42,4.1,21.22,7.11,14.17,6.27,28.3,12.6,43.35,16.51,2.78,0.72,4.4,2.15,4.84,5-63,0-125.91-.11-188.86.16-3.37,0-5.57-.17-6.87-1.43-2.14-2.09-1.51-5.79-1.47-6.44C48.69,563.32-68.14,533.1-68,525c0.06-3.59,23.19-7.94,116.07-11.94a79.35,79.35,0,0,1,14.05-.19c2.92,0.24,5.82,1,8.79,1,10,1.1,19.89,2.89,29.77,4.73,12.62,4,25.74.59,38.52,2.52,1.56,0.24-.12-1.66.9-2.09,2.81-2.62,6.36-2,9.54-1.72,12.85,1.11,25.71,3.48,38.33-1.35,4.42,5.74,9.78,7.66,16.82,4.76,2.27-.94,4.81.5,7.2,1.2,3.21,0.94,6.8,1.71,9.11-1.55,3.4-4.79,8.09-5.48,13.19-4.64s3-2,2.43-4.23A6.45,6.45,0,0,1,237,509c0.61-1.32,1.72-2.91,2.93-2.64,7.37,1.67,13.88-3.25,21.07-2.51,3,0.28,6.27-.84,8.87,1.62,1.27,2.11.19,3-1.79,3.38C272.06,508.16,275.94,505.53,280.11,508.2Z" transform="translate(181 -281.05)"/><path class="cls-5" d="M769.35,297.89c8.69-2.3,15.9-7.35,23-12.58,2.19-1.62,3.9-3.93,6.87-4.26v10c-11.22,10.11-24.8,16-38.6,21.41a6.44,6.44,0,0,1-4.08,4.93c-19.42,8.91-37.16,21.54-57.66,27.91q-27.79,8.64-55.71,16.95c-15,4.47-30.65,5.05-46.24,3.85-3.67-.28-8,0.15-10.48-3.86-1-3.91.87-7.21,2.28-10.61,2.15-3.07,5.36-4,8.78-3.65,20.83,2.43,40.86-1,60.15-8.68a166.67,166.67,0,0,1,25.48-7.41c19.6-4.39,36.39-14.74,54-23.43,7.44-3.67,14.93-7.24,22.62-10.38C763,296.79,766.1,296.37,769.35,297.89Z" transform="translate(181 -281.05)"/><path class="cls-3" d="M48.07,473C-5.66,454.48-129,409.74-124,385c4.55-22.41,112.45-18.91,172.07-15.48,2.69-.07,7.88-0.36,13.17,2.55,3.84,2.11,7.3,5.12,10.87,7.87-2.32,14.4-1.38,29-3.06,43.49-0.62,5.35,3.19,7.32,7.94,7.23,6.34-.12,12.6-1.37,18.92-1.92,3.81-.33,7.13,0,10,2.66,3.78,9.43,6.79,19.07,13.31,27.41,3.09,4,3.09,10.29,5.39,15.36,1.44,3.17-1.73,5.16-4.76,6.64-6.68,3.26-13.13.13-19.58-.45-6.06-.54-12.07-1.6-18.2-1.54-3.27,0-6.82.65-9.27-2.45-3.09-3.9-4.53-.12-6.48,1.36a15.4,15.4,0,0,1-5,1.74C56.21,478.64,50.79,478.58,48.07,473Z" transform="translate(181 -281.05)"/><path class="cls-6" d="M724.28,426.76c15-.72,27.82-7.81,40.8-14.24,2.47-1.23,4.48-3,7.45-2.59,5.15,1.65,9.73-1.33,14.61-1.79,4-.38,8-2.68,12.06-0.22v5c-7.79,4.93-17.18,4.27-25.51,7.3-11.56,4-23.21,7.76-34.77,11.77-3.56,1.23-6.08,3.53-9,5.54-8.86,4.78-17.75,9.5-27.82,11.29a101.91,101.91,0,0,0-10.21,2c-12,4.14-24.11,8.1-36.4,11.31a31.09,31.09,0,0,0-8.88,4.24c-2.59,1.59-5.46,1.33-8.29,1.35-15.31,2.75-30.61,5.67-46.3,3.58-2.28-1.59-3.22-3.66-2.33-6.39,5.75-3.65,12.54-1.75,18.65-3.51,8.3-.08,16.71.58,24.42-3.57,7-4.1,15.19-3.6,22.74-5.66,4.49-1.22,9-2.21,13.36-4,8.15-.57,15.55-3.55,22.84-6.94C700,433.28,711.26,432,721.26,428A12.55,12.55,0,0,0,724.28,426.76Z" transform="translate(181 -281.05)"/><path class="cls-7" d="M799.19,439.62c-9.84,0-19,3.5-28.49,5.49-10.44,1.34-20.56,3.63-29.48,9.62-3.86,4.47-9.54,5.63-14.67,7.15-11.86,3.51-23.85,7.35-34.85,12.39-13.86,6.34-28.31,9-42.67,12.61-15,3.8-30.37,5.66-45.77,6.86-6.89.54-13.64,2.57-20.64,1.8-3-.32-6.31.39-7.62-3.48,2.7-4.89,7-7.36,12.39-8.27a81.64,81.64,0,0,1,17.88-1.11,50.29,50.29,0,0,0,5.22-.76c10.38-2.6,21.18-2.34,31.58-4.77,9.72-3,19.58-5.4,29.47-7.72,3-.7,5.85-1.49,8.34-3.34,1.54-.83,3.3-0.73,4.94-1.12,8.33-3.55,17.35-5.29,25.32-9.76,12.39-4.06,24.14-9.94,36.86-13.09,10.12-3,20.2-6.17,30.28-9.32a15.69,15.69,0,0,1,2.58-.7c6.53,0.12,13.57-3.59,19.32,2.52v5Z" transform="translate(181 -281.05)"/><path class="cls-8" d="M48.07,508.06v-6.68c7.72-5.07,15.19.3,22.77,0.65A14.1,14.1,0,0,1,77,504.12c2.2,1.62,4.87,1.82,7.4,2.47,5.87-.7,11.48.46,17,2.31,1.36,0.22,2.7.55,4.07,0.74,13.29-.64,26.58-0.27,39.87-0.08,2.4-.56,4.49.66,6.71,1.13,7.39,3,14.44,1.57,21.34-1.7,4.76-.42,9.62.15,14.25-1.48,5.18-2.56,11.23-.13,16.39-2.85,1.79-.54,3.48.07,5.18,0.47s3.58,0.29,5.19,1.22c1.75,1.49,3.69,2.9,2.38,5.67-4.23,2.75-9.22,2.69-13.92,3.75a39.43,39.43,0,0,1-13.14,1.46h-2.86c-11.19,1.86-22.34,3-33.74,1.76-10.75-1.21-21.34,1.93-32.17,1.74-22.52-.4-44.19-6.08-66.22-9.5A10.83,10.83,0,0,1,48.07,508.06Z" transform="translate(181 -281.05)"/><path class="cls-9" d="M76.07,507.78c-8.89-4.06-18.82-3.56-28-6.4V488c1.49-1.6,2.84-3.42,5.37-3.37,12.44,2.74,24.72,6.28,37.48,7.5,2.35,3.31.35,5.44-2,7.53C85.09,503.11,81.22,506.46,76.07,507.78Z" transform="translate(181 -281.05)"/><path class="cls-10" d="M48.07,473l13.47,3.7c10.08,0.88,19.84,5.67,30.26,2.53,9.45,0.63,18.53,4.55,28.35,2.43,2.9-.62,6.45,1.06,9.12,3.27,2.69,3.37,2.84,6.51-.81,9.33-12.19.1-24.36-.22-36.38-2.61a235.42,235.42,0,0,1-35-6.77c-3.49-.95-7-1.72-9-5.2V473Z" transform="translate(181 -281.05)"/><path class="cls-11" d="M48.07,508.06c8.14-.26,15.89,2.08,23.64,3.92,32.74,7.74,65.81,7.27,99,4.92,6.34-.45,12.71-0.47,19.07-0.69a1.16,1.16,0,0,1,.38,1.14,0.7,0.7,0,0,1-.34.59c-16.34,7.41-33.44.38-50,2.65-3,3.63-7.09,1.67-10.47,1.37-9.78-.84-19.55-0.39-29.31-0.6L71,516.14c-7.52-2.54-16.19-1-22.89-6.41v-1.67Z" transform="translate(181 -281.05)"/><path class="cls-12" d="M799.19,434.61c-6.52-.79-13,2.46-19.55,0-3.22-.51-4.31-3-5.15-5.65-1.76-3.31-3.78-6.61-.65-10.22,8.29-2.36,16.51-5.15,25.35-4.16v20Z" transform="translate(181 -281.05)"/><path class="cls-13" d="M48.07,479.68l43.79,9.8c-0.82,1.83-2.68,2.13-4.23,2.88-11.9-.11-22.94-5-34.63-6.22L48.07,488Q48.07,483.85,48.07,479.68Z" transform="translate(181 -281.05)"/><path class="cls-14" d="M48.07,509.73c7.58,2.32,15.84,2.2,22.89,6.41-7.87.73-15.3-1.72-22.89-3.08v-3.34Z" transform="translate(181 -281.05)"/><path class="cls-15" d="M799.19,414.58l-25.11,4.69a1.75,1.75,0,0,1-1.86-1.62c8.82-2.52,17.71-4.71,27-4.74v1.67Z" transform="translate(181 -281.05)"/><path class="cls-16" d="M799.19,407.91c-6.11,0-11.94,1.65-17.87,2.8-3,.58-6,1-8.8-0.79l26.67-5.35v3.34Z" transform="translate(181 -281.05)"/><path class="cls-17" d="M747.4,501.42a2.84,2.84,0,0,1,.25,1.36c-4.12,14.91-11.62,34.76-29.59,34.76-4.31,0-7.7,2.89-11.16,5.23A25.59,25.59,0,0,1,683.19,546c-7.59-2.59-16-1.65-23.3-5.54-2.9-2.28-6.49-2.89-9.86-4-6.32-2.1-10.48-5.68-9.12-13.11,0.31-.76.41-1.83,1-2.25,16.2-11.8,29.5-27.65,52.47-28.7C713.12,491.51,730.79,492,747.4,501.42Z" transform="translate(181 -281.05)"/><path class="cls-4" d="M423.3,503.37c2.72-6.51-3.61-6.24-6.43-8.6,4.18-3.76,9.38-4.06,14.58-4.21,5.52-.16,11.07.26,16.46-1.38a26.83,26.83,0,0,1,4.37-.31c9.39-2,17.69,4.39,26.94,3.48A154.54,154.54,0,0,0,524.34,495c0.81-.14,1.72-0.59,2.41-0.36,12.33,4.13,24.82.51,37.22,0.85,15.16,0.68,30.23-.79,45.29-2.12,12.75-1.21,25.2-4.06,37.66-6.88,3,0.84,6.72-.17,8.73,3.31-4.1,5.12-10.55,4.83-15.93,6.06C603,504.27,566.39,513,528.4,513.28c-9.36.07-18.69,2.53-28.07,2.82-14.73.45-29.36-1-43.46-5.77-2.62-.89-5.06-2.33-8-2.19a15.43,15.43,0,0,1-7,.45c-4.25-1.18-7.85-5-12.84-3.17C427,505.24,424.12,507.14,423.3,503.37Z" transform="translate(181 -281.05)"/><path class="cls-18" d="M349.82,517.22l4.9,1.23a2.37,2.37,0,0,1,.78.19c8,5.44,8,7.19,15.12-3.63,8-3.32,12.76,3.55,18.92,6,3.15,2.15,5.9-2.33,9-.55,6.2,3.87,2,10.22,3.61,15.18,5.47,2.45,10.58-3.14,16.05-.72,0.78,4.18-3.17,4.68-5.17,6.7-6.23,3.94-13.55,6.7-16,14.79-3.91,4.37-7,9.79-13.5,10.92a15,15,0,0,1-3.78-.62c-2-1.19-3.7-2.93-6.6-1.8-5.81,2.27-12.24,1.84-18.14,3.86-17.32-2.71-24.41-15.85-30.53-30,4.1-9,5.33-9.72,13.52-5.32,5.19,2.79,6.63-.71,7.5-4.09C346.65,525.21,346.87,520.77,349.82,517.22Z" transform="translate(181 -281.05)"/><path class="cls-19" d="M564.12,497.93c-12.9.54-25.79,2.24-38.69,0-15.58-1-31.17-1.83-46.71-3.24-9.21,1.3-17.4-5.13-26.65-3.53-12.25-1.17-24.58-1.67-36.72-3.93a13.37,13.37,0,0,0-7.3,1c-3.67-1.28-7.81.06-11.36-2-7.24.49-14.39-.36-21.53-1.38a236.34,236.34,0,0,1-46.9,4.79l-13.05,3.33c-4.78-.66-8.45,2.23-12.52,3.89-14.57.71-28.19,5.75-42.14,9.29l-22.5,4c-5.15,3-10.78,3.77-16.61,3.57-2-.17-3.9-0.58-4.86-2.67l-3.08-2.47c0.86-2.2,2.66-2.9,4.81-3,12.68,0.81,24.73-2.6,36.68-6,30.38-8.59,61.18-15.5,92.53-18.7a369.53,369.53,0,0,1,84.38.76c26.33,3.34,52.54,7.89,79.18,9.34,15.83,0.86,31.61.5,47.39,1.2a12,12,0,0,0,7.78-2.43c3.35-.95,6.68-1.72,9.12,1.84,10.72,3.79,21.38,0,31.89-.92,35.19-3.11,69.07-12.31,102.25-24.26,10.61-3.82,20.1-10.67,31.73-11.71v0c-2.88,9.18-11.47,8.35-18.38,10.36a7.05,7.05,0,0,1-4-.13c-8.82,6.6-19.68,7.8-29.68,11.26-5.94,6.75-14.89,6.14-22.45,8.7a69.43,69.43,0,0,1-19.38,3.45c-12.3,2.64-24.16,7.42-37,7.64-7.6-3.43-15,.94-22.62.52C579.85,496.07,572,497.24,564.12,497.93Z" transform="translate(181 -281.05)"/><path class="cls-20" d="M423.92,532.75c-4.52-8.57-4.4-17.48-1.92-26.56,3.63-2.26,6.43.13,9.39,1.64,1.94,0.86,3.4,2.51,5.43,3.26,4.45,0.82,7.09,4.95,11.34,6.13,1.45,0.43,2.91.8,4.34,1.28a46,46,0,0,1,9.15,11.43c1.14,1.58,2.9,2.63,3.74,4.47,0.71,2.88.25,5.71-.33,8.55a7,7,0,0,1-6.28,4.07,53.2,53.2,0,0,1-27.12-4.8,7.18,7.18,0,0,1-2.16-1.15,11.39,11.39,0,0,1-1.63-10.49c0.81-1-1-.84,0-0.33,0.24,0.12.07,0.32-.19,0.77C426.82,532.53,425.89,533.72,423.92,532.75Z" transform="translate(181 -281.05)"/><path class="cls-21" d="M463.71,534.62l-3.15-3.77c-2.5-3.19-3-6.34.19-9.42,1.35,1.05,2.53,2.25,2.4,4.12-0.38,5.47,2.44,5.76,6.85,4.77,3.38-.76,7.83-1.91,9.43,2.51,1.52,4.2-2.51,6.53-5.27,8.54-7.34,5.34-14.74,10.83-24.66,10.12-1-.07-2.82.4-3,1-2.67,9.33-13.8,6.15-18.45,12.59-1.34,1.85-3.54,1-5.28-.15-2.91-1.89-6.13-1.35-8.72,0-5.14,2.74-9.47,2.44-13.47-1.82-2.67-2.84-4.73-1.41-7,.76-3.38,3.3-7,6.35-11.64,7.74a3,3,0,0,1-2.39-3.58c1-2,3-2.54,4.83-3.2,4.95-2,7.8-6.24,10.8-10.29,3.3-1.43,6.65-2.42,10-.29,4.52,2.86,8.84-2.12,13.28-.31,1.77,0.16,2.87-.88,3.85-2.19a7.63,7.63,0,0,1,2.77-1.73c2.14-.46,4.74-0.4,3.47-3.94-0.73-2-1.74-4.15-.4-6.36a1.36,1.36,0,0,1,2,.19,1.86,1.86,0,0,0,1.18.08c8.41,5.19,17.48,6.55,27.1,4.72a7.1,7.1,0,0,0,5.24-3.31C464.19,539.14,465.9,536.87,463.71,534.62Z" transform="translate(181 -281.05)"/><path class="cls-22" d="M518.81,546.32c-2.94-2.44-6.86-4.6-5.95-9.12,1-4.76,5.48-6,9.47-6.91a87.67,87.67,0,0,1,13.9-1.94c4.36-.29,8.65.67,9.43,5.92,0.73,4.87-1.61,8.32-6.08,10.67-4.09,2.15-8.77,1-12.81,2.86C523.51,550.6,521.19,548.28,518.81,546.32Z" transform="translate(181 -281.05)"/><path class="cls-23" d="M341.69,566.83c-6.16-1.17-12.3-2.47-18.5-3.46-3.46-.55-6.81-1.23-7.23-5.3s2.07-5.73,5.93-6.16c1.16-.13,2.19-1.52,3.28-2.33a5,5,0,0,1,3.44-1.28,106.21,106.21,0,0,1,14.24,16.44A3.27,3.27,0,0,1,341.69,566.83Z" transform="translate(181 -281.05)"/><path class="cls-24" d="M718.79,464.94c7.27-3.86,15.68-5.22,22.43-10.23,4,0.48,7.43-1.66,11.1-2.63s6.68-.93,6.68,4.08c-4.77,4.58-10.35,7.08-17.08,6.63-4.45,1.41-9,2.68-13.34,4.27C724.77,468.43,721.59,467.81,718.79,464.94Z" transform="translate(181 -281.05)"/><path class="cls-25" d="M268.14,533.66l2.19-2.36a15.39,15.39,0,0,1,6.59-2.16c2.58-.06,5.09.13,7.11,2,9.18,3.67,10.59,6.9,6.18,15.87-1.53,3.11.17,6.56-1.81,9.41l-0.11-.13c-7.17,3.94-14.61.94-21.93,0.76a2.15,2.15,0,0,1-1.8-3.11c2-3.83-.38-7-1.13-10.38l0.31-2.37C265.34,538.78,268.12,537,268.14,533.66Z" transform="translate(181 -281.05)"/><path class="cls-26" d="M235.39,568.23c-4,0-8.58-.14-8.79-5.24-0.18-4.39,4.15-5.45,7.72-6,4-.59,8.36-1.85,11.79,1.39,1.45,1.37,1.25,3.71.22,5.47C243.87,568.13,239.5,567.91,235.39,568.23Z" transform="translate(181 -281.05)"/><path class="cls-27" d="M647.28,488.34c13.5-5.59,27.94-7.89,41.83-12.15,1.77,1.72,4.61,3.4-.13,5-2.82,1-5.55,2.23-8.32,3.35-6.92,2.69-13.71,6-21.5,4l-3.52,1.26C652.85,489.37,649.79,490.38,647.28,488.34Z" transform="translate(181 -281.05)"/><path class="cls-28" d="M288.4,556.46c0.13-3.25-.24-6.62.49-9.74,1.71-7.37,0-12.72-7.53-15.38-2.6-2.85-1.27-5.49.45-8.1,3.92,6.29,11.15,8.93,15.78,14.34,1.72,2,.72,5.16-1.42,6.69C291.87,547.36,290.21,551.9,288.4,556.46Z" transform="translate(181 -281.05)"/><path class="cls-29" d="M260.55,506.24c-0.21-1.45-.22-2.79,1.62-3.22,13.74-3.22,27.12-8.16,41.46-8.41,2.47,0.29,1.83,1.8.6,2.5a19.45,19.45,0,0,1-11.13,2.67l-4.59,1.61c-5.59,4.13-11.72,6.49-18.79,5.78Z" transform="translate(181 -281.05)"/><path class="cls-30" d="M328.25,489.73a154.05,154.05,0,0,1,46.9-4.79c-1,3.33-4.08,2.81-6.52,3.45-10.07,3.82-21.06,2.09-31.3,5.13-1.68.5-3.71-.66-5.38-1.65Z" transform="translate(181 -281.05)"/><path class="cls-31" d="M396.69,486.32c3.4-.31,6.73-2.79,10.22-0.3,11.18,2,22.52,2.34,33.77,3.66,2.68,0.31,5.65-.64,7.77,1.91-10.35,2.74-21.18.84-31.57,3.18C410.11,492,402.16,492.14,396.69,486.32Z" transform="translate(181 -281.05)"/><path class="cls-32" d="M585.43,546.46c-3.87-.15-9-0.27-8.8-4.47,0.24-6.31,6.6-5.41,11-5.91,3.22-.36,7.82-0.27,7.27,4.31C594.31,545.19,589.59,546.18,585.43,546.46Z" transform="translate(181 -281.05)"/><path class="cls-33" d="M328.86,549.72l-3.69-.13c-3.11-6.23-7.05-12.14,1.65-17.77,3.77-2.44,6.39-3.79,10.22-1,5,3.67,7,.65,7.94-3.87,0.77-3.74.41-7.91,4.85-9.76-1.31,4.79-2.94,9.52-3.84,14.38-1.22,6.61-4.23,7-8.78,3.08-4.8-4.13-8.28-3.6-10.5,2.54-1.5,2.18-.65,3.91.67,5.92S330.75,547,328.86,549.72Z" transform="translate(181 -281.05)"/><path class="cls-34" d="M341.69,566.83l0.17-2.43c11.54,5.77,23.55,4.06,35.57,2.25a3.33,3.33,0,0,1,2.82,1.42l1.75,3.57C367.66,577.6,354,578,341.69,566.83Z" transform="translate(181 -281.05)"/><path class="cls-35" d="M263.43,543.6c3,1.07,4.94,4.08,4.29,6.33-2.36,8.16,3.18,6.57,7.43,6.61s8.76-.13,13.14-0.21c-4.17,4-17.26,5.09-23.4,1C259.7,553.8,262.64,548.34,263.43,543.6Z" transform="translate(181 -281.05)"/><path class="cls-36" d="M430.21,539.93l-0.71.18-0.73,0c-2.92,1.13-6.13.47-9.09,1.46-3.55,0-7.21.31-9.44-3.36,2-2.73,5.92-.69,8-3.23l5.68-2.2c2.84-1.2,3.27-4.29,5-6.34s4-1.07,6-.31c1.31,0.48,2.84,1.1,2.45,2.74-0.55,2.34-2.66,2.27-4.64,2.47C425.12,532.09,432.76,537.54,430.21,539.93Z" transform="translate(181 -281.05)"/><path class="cls-37" d="M332,491.88l36.68-3.49c-0.68,2.17-2.41,2.59-4.41,3.08-8.5,2.09-17.6,0-25.89,4.13C335.85,496.86,333,495,332,491.88Z" transform="translate(181 -281.05)"/><path class="cls-38" d="M435.43,513c-2.47.31-3.52-1.53-4.74-3.11-1.31-.66-1.42-1.75-1.11-3,3.91-3.75,8.3,1.06,12.32-.69,2.47,0.19,5,0,7,2-2.08,7.15,5.26,7.57,8,11.25-1.41,1.84-3.09,1.82-4.92.68l-5.12-.35C444.45,515.14,441.31,511.74,435.43,513Z" transform="translate(181 -281.05)"/><path class="cls-39" d="M640.91,523.31c1.78,7.28,6.64,10.81,13.9,11.37,2.6,0.2,4.78,1,6.22,3.32a4.73,4.73,0,0,1-3,2.52c-7.31,2.66-12.84-.25-17.6-5.61l-1.83-5.11Z" transform="translate(181 -281.05)"/><path class="cls-40" d="M396.85,520.56c-2.43,1.8-4.54,5-8.11,1.94-4.26-2.51-8.63-4.89-10.33-10,2.35-4,3.75-1.08,5.25.75,3.9,4.75,7.67,9.07,13.46,1.9,1.54-1.9,3.41-.14,4.6,1.5C401,519.07,400,521.09,396.85,520.56Z" transform="translate(181 -281.05)"/><path class="cls-41" d="M269.71,507.18c5.84-3.31,12.4-4.27,18.79-5.78,0.85,6.77-6.1,3.92-8.4,6.81-4.49,2.09-9.21,1.66-14.17,1.36C266.37,507.21,268.87,508.45,269.71,507.18Z" transform="translate(181 -281.05)"/><path class="cls-42" d="M372,516.2a11.93,11.93,0,0,0-1.07,1.21c-7,10.46-7,10.46-16.21,1,5.57,1.44,11.27,3.68,13.67-4.71,0.47-1.65,3.07-2.13,5.08-2.16C375.43,513.89,374.09,515.17,372,516.2Z" transform="translate(181 -281.05)"/><path class="cls-43" d="M741.92,462.78c5.68-2.24,10.83-5.84,17.08-6.62,1,0.61,4.69.43,2.2,2.11C755.58,462,749.69,467.18,741.92,462.78Z" transform="translate(181 -281.05)"/><path class="cls-44" d="M659.16,488.59c7-2.07,14.13-3.75,21.5-4C674.39,490.72,667.6,494.08,659.16,488.59Z" transform="translate(181 -281.05)"/><path class="cls-45" d="M293.1,499.78c3-2.71,8.18-1.08,10.53-5.17,3.64-2.17,7.21-4.78,11.57-1.55-4.55,2.35-9,4.81-13.68,7C298.77,501.37,295.83,502,293.1,499.78Z" transform="translate(181 -281.05)"/><path class="cls-46" d="M396.85,520.56l4.87-4a27.22,27.22,0,0,1,.46,19.07C398.37,531.35,401.94,524.43,396.85,520.56Z" transform="translate(181 -281.05)"/><path class="cls-47" d="M452,520.08l4.92-.68,3.81,2q-0.09,4.71-.19,9.43C456.32,528.37,453.75,524.56,452,520.08Z" transform="translate(181 -281.05)"/><path class="cls-48" d="M372,516.2l1.47-4.63c1.83-.73,3.37.16,4.94,0.9l10.33,10c-3.17,2.23-4.32-1.12-5.71-2.47C379.84,516.94,375.79,517.1,372,516.2Z" transform="translate(181 -281.05)"/><path class="cls-49" d="M518.81,546.32l8,1.49,10.6,0.78c-7.49,3.87-13.69,3.07-19.73-.57a0.78,0.78,0,0,1-.11-0.74A10,10,0,0,1,518.81,546.32Z" transform="translate(181 -281.05)"/><path class="cls-35" d="M268.14,533.66c2.9,5.07,2.31,8.11-4.41,7.58C261.53,536.57,265.18,535.31,268.14,533.66Z" transform="translate(181 -281.05)"/><path class="cls-35" d="M276.84,531c-2,2.58-4.26,1.77-6.51.32,0.14-4.52,3.32-4.94,6.76-5A3.21,3.21,0,0,1,276.84,531Z" transform="translate(181 -281.05)"/><path class="cls-50" d="M430.56,506.65q0.06,1.61.13,3.22c-4.29,2.09-4.55-5.36-8.68-3.68l1.3-2.81c1.74,1.85,3.48-.41,5.22,0S431.31,504.67,430.56,506.65Z" transform="translate(181 -281.05)"/><path class="cls-51" d="M276.84,531q0.12-2.35.25-4.7l4.73-3q-0.22,4.05-.44,8.1C279.75,532.52,278.26,532.25,276.84,531Z" transform="translate(181 -281.05)"/><path class="cls-52" d="M69.53,372.95L66,367.71c0.07-3.23,1.2-6.14,4-7.74,6.73-3.88,7.11-9.47,5.66-16.3-2.65-12.44.18-15.07,12.51-12.44,4.24,1.27,8.41,2.26,13,1.6,5-.71,9.83.35,14.71,1.91,13,4.13,26.19,6.6,41.38,4.57-7.43.25-14.34,4.27-17.94-4.37a3.55,3.55,0,0,1,1.45-2.07c11.92-.37,22.64-4.77,33.14-9.88,9.71-4.72,18.81-3.06,27.53,2.64A10.32,10.32,0,0,1,204,329c2,4.39,6.47,5.1,10.3,6.35,10.75,3.49,15.44,11.17,15.88,21.92,0.38,9.16.25,18.33,0.08,27.5-0.06,3.39-.56,6.65-2.9,9.34-3.83,3.22-8.53,2.09-12.91,2.59-11.15-2.95-22.16-4.41-32.22,3.33a26.54,26.54,0,0,1-17,1.32c-3.17-3.24-7.86-2.49-11.56-4.35A63.57,63.57,0,0,0,134,389.24c-17.64-4-35.55-5.37-53.42-7.15C74.29,381.47,73.11,376.07,69.53,372.95Z" transform="translate(181 -281.05)"/><path class="cls-53" d="M94.81,324.22c8.39-2.71,16.29-1,24.16,2.35,6.89,2.89,14,5.35,21,8,8.9,5.95,17.48,1.55,28.36-1.49-8.43,8.45-17.12,10.64-26.34,10.36a75.41,75.41,0,0,1-20.46-3.09c-8.38-2.64-16.59-6-25.87-3-4,1.26-6.54-2.06-7.41-6.08C89.25,327.83,92.09,326.08,94.81,324.22Z" transform="translate(181 -281.05)"/><path class="cls-54" d="M608.39,461.37c-5.59,2.91-11.65,3.27-17.77,3.35-1.83.13-3-.85-4.16-2.18C576.1,450.47,563,451,553.8,463.9a7.35,7.35,0,0,1-3.75,3.08c-4.54,2.57-9.27,3.54-14.33,1.75-2.81-.42-3.91-2.66-5.34-4.73-5.05-7.34-11.3-12.12-20.91-9a6.35,6.35,0,0,1-6.84-1.72c-2.84-8.23-2-9.7,6.12-10.24,4.32-.28,8.69.27,12.95-0.87,15.17,1.11,30.21-2.73,42.51-1.78-14.17.1-31.13,1.94-48.15,2.57-2.49,0-5.06-.38-7.44.14-5.24,1.15-9.64.62-10.94-5.38-1.19-5.47-2-11.22,5.09-13.84,24.56-.84,49.07-2.86,73.67-3.67-0.34-.42-0.5.24-0.73,0.25-25.46.51-50.84,2.67-76.27,3.73-8-5.09-6.67-12.72-5.56-20.28,0.92-2.22-.58-3.52-1.8-5.08-3.56-4.55-3.42-8.63,1.86-11.87,8.84-5.55,18.61-6.67,28.75-6.13,12.88,0.69,25-4.13,37.72-5a33.16,33.16,0,0,0,8.59,1.18c6.11,0.17,12-1.22,18.06-1.84,9.28-1,12.87,2.35,13.86,11.79s-3.7,18.18-3.38,27.52c-4.4,12.1-.22,25.13-4.31,37.44-2,6.07.56,10.76,8.64,8.91C603.9,460.3,606.21,461.13,608.39,461.37Z" transform="translate(181 -281.05)"/><path class="cls-55" d="M597.55,414.42c-0.21-9.4-.74-18.82-0.53-28.21,0.15-6.89-2.52-8.5-9-7.58-6.8,1-13.78.63-20.69,0.87-0.57-1.1-.54-2.31.48-2.92a32.66,32.66,0,0,0,12.49-13.84,5.09,5.09,0,0,1,3.87-2.8,3.21,3.21,0,0,1,3.2,1.6c32.1,5.11,61.48-5.89,91.71-14,26-7,48.39-20.63,72.27-31.58,3-1.39,5.85-3.22,9.28-3.48,9.1,10.67,8.1,21.26-2.18,29.89-11,9.26-22.17,18.34-34.1,26.39-18.66,12.59-38.38,21.95-61.86,18.87-2.69-4.8-5.46-9.28-10.3-12.59-4.31-2.95-6.56-2.13-9.39,1.56-2.52,3.29-3,8.3-7.94,9.62-0.89,3.49-3.08,5.48-6.53,6.68-5.69,2-11.12,4.77-16.86,6.55C603.75,401.83,597.33,404.92,597.55,414.42Z" transform="translate(181 -281.05)"/><path class="cls-56" d="M634.82,386.22c1.14-6.66,7.42-10.91,8.21-17.93,0.28-2.49,4.18-2.75,5.45-1.05,3.55,4.72,8.44,7.76,12.59,11.65,1.7,1.59,1,5.75,1.38,8.75-7.52,9-14.79,10.62-24.84,5.45,1.89-2.83,4.64-3.57,7.82-3.25,3.76-1,8.76-1.17,4.93-7.28-2.78-2.69-4.52-1.22-6.52,1.21-2.36,2.86-3.19,6.91-6.81,8.76C635,390.86,635.49,388.34,634.82,386.22Z" transform="translate(181 -281.05)"/><path class="cls-57" d="M724.28,426.76a4.4,4.4,0,0,1,0,1.57c-11,4-21.17,9.86-32.51,12.89-0.17-1.73-5-3.54-1.08-4.83C701.71,432.7,712.14,426.64,724.28,426.76Z" transform="translate(181 -281.05)"/><path class="cls-58" d="M668.91,448.16c-11,7-23.2,9.65-36.1,9.64-1.15-3.54,1.11-4.22,3.81-4.64Q652.76,450.69,668.91,448.16Z" transform="translate(181 -281.05)"/><path class="cls-59" d="M640.48,534.91a47.61,47.61,0,0,0,16.77,3.22,26,26,0,0,0,16.35,5c1.93,0,4-.31,5.75.62,11.51,5.93,21.91,3.89,31.36-4.43,2.71-2.38,5.77-2.71,9.19-3,11.32-1,16-5.46,19.37-16,1.79-5.69,6.13-10.06,10.28-14.34,3.7,3.1,4.26,7.41,4.6,11.82,1,2.34,1.87,4.7,1.58,7.31-6.25,3.81-13.46,6.94-10.13,16.74a9.08,9.08,0,0,1-.79,6.37,3.45,3.45,0,0,1-2.1,1c-9.87-.07-18.37,2.68-27.13,8-15.33,9.38-32,4.91-48.51,1.3C653.21,555.47,647.13,545.23,640.48,534.91Z" transform="translate(181 -281.05)"/><path class="cls-60" d="M742.72,549.16l1.34-1.21c2.39-4.69-1.08-10.31,2.67-15,1.75-2.17,2.87-4.67,6-5.11,5.35-4.6,9.39.38,12.92,2.65a9.42,9.42,0,0,1,3.64,12.24c-1.75,3.11,1,9.11-4.17,9.54C757.58,552.93,749.28,556.2,742.72,549.16Z" transform="translate(181 -281.05)"/><path class="cls-61" d="M749.55,506c-3.23,7.84-9,14.28-11.4,22.75-1.59,5.66-7.88,8.41-13.34,8.57-10.3.3-17.63,6.13-25,11.73-3.22,2.44-5,2.46-8.54,1-7.37-3.08-14.92-6-23.27-5.28-5.13.47-8.12-2.83-10.74-6.6L661,538c9.56,3.93,20,4,29.83,6.7,3.45,0.94,40.4-13.43,42.24-16.43,5.12-8.33,9.73-17,14.55-25.48Z" transform="translate(181 -281.05)"/><path class="cls-62" d="M777.83,508.66c-2.48-.62-5.38-0.8-7.74-2-5-2.62-4.91-7.56.05-10.26,3.72-2,8-2.37,12.1-2.53,3.86-.15,8.53-0.46,9.37,4.53,0.81,4.8-2.65,7.59-7,8.92C782.53,507.92,780.31,508.16,777.83,508.66Z" transform="translate(181 -281.05)"/><path class="cls-63" d="M769.25,542.76c-1.37-8.86-8.53-15.19-15.42-13.61a2.22,2.22,0,0,1-.12-3.11l0.44-8.25c3.76,3.45,6.73,7.61,12.27,9.12C771,528.14,772.3,537.78,769.25,542.76Z" transform="translate(181 -281.05)"/><path class="cls-64" d="M189.85,517.93l0-1.73,0.11,0.05c1.75-.51,3.34.25,5,0.6,11.44,0.21,22.4-3.22,33.64-4.55a90.46,90.46,0,0,1,9.83-.82c3.62,2,5.77,4.58,2.93,8.68-3.22,4.65-5.1.93-7.78-1s-7.65-2-7.89,1c-0.9,11.05-9,6.6-13.09,5.49a46.26,46.26,0,0,0-15.24-1.25C194.16,524.57,186,527.13,189.85,517.93Z" transform="translate(181 -281.05)"/><path class="cls-65" d="M238.37,511.49c-12.34,4.29-25.19,6.23-38,8.2-2.54.39-5.63,1.05-7.63-1.78,1.57-4.1,5.67-1.67,8.24-3.19,7-1.86,14.29-2,21.42-3.2,5.3,0.44,10.27-3,15.67-1.29A2.85,2.85,0,0,0,238.37,511.49Z" transform="translate(181 -281.05)"/><path class="cls-66" d="M100,521.35c8.49-3.77,17.27-.94,25.86-0.74,4.65,0.11,9.28.5,13.93,0l4.55,1.17C129.45,522.85,114.67,525.22,100,521.35Z" transform="translate(181 -281.05)"/><path class="cls-67" d="M104.67,432.88c-6.6-2.29-13,.68-19.47.83-3.57.08-7.13,0.87-10.68,0.8-7.2-.14-10.91-3.92-9.54-11.19,2.25-12,1.47-24.1,1.91-36.15,0.14-3.77,3.48-4.79,4.1-7.7l0.49,0.12c4.5,1.85,10,.14,14,3.84,1.65,3.48,5.15,1.71,7.69,2.64,6.62,4.07,15.07,3.27,21.43,8,4.36,2.27,8.83,4.22,13.8,4.63,2.29,0.19,4.42.55,5.35,3.07-2.44,7.54-8.66,7.41-14.84,7.22-10.35-.33-20-3.6-30.25-7.81,5.56,5,14.7,2.92,17.19,11.05-3.74,6.37.48,12.59,0.38,18.9A3.65,3.65,0,0,1,104.67,432.88Z" transform="translate(181 -281.05)"/><path class="cls-68" d="M104.67,432.88q0.2-.77.38-1.55a2.65,2.65,0,0,1,2.46-.51,6.88,6.88,0,0,1,4.28,3.68c6.37,14.89,15.36,28.52,21.15,43.68,1.11,2.9,1.56,5.91-.88,8.53a3.35,3.35,0,0,1-3.71-.18c-12-1.41-24.16-.5-36-3.62-8.74-2.09-18.46-.52-26-7-0.71-.43-1.43-0.83-2.11-1.3-1-.67-0.89-1.36.19-1.74,2.6-.91,6-2.84,7.87-0.86,6.15,6.67,13.88,3.44,20.95,4.37,5.9,0.78,11.94-.72,17.79,2.39,3.9,2.07,7.36-2.77,11-2.31C119.6,460.15,106.08,449,104.67,432.88Z" transform="translate(181 -281.05)"/><path class="cls-69" d="M66.37,475.94c8.57,2.73,17.71,3.31,26,7a51.29,51.29,0,0,1-30.85-6.21Z" transform="translate(181 -281.05)"/><path class="cls-70" d="M583.79,352.77c2.27-1.44,4.54-2.21,6.8,0,0.64,3.56-.66,6.39-3.26,8.74l-3.61-.08C578.11,358.52,579.59,355.64,583.79,352.77Z" transform="translate(181 -281.05)"/><path class="cls-71" d="M748.2,444.71c-12.61,4.2-24.34,10.82-37.48,13.54-7.36-.22-11.49-3.66-11.33-11.37,9.67-3.36,19.22-7,28.12-12.17A10.85,10.85,0,0,1,738,432.28c4.14,2.69,8.45,5.22,10.65,10A4.34,4.34,0,0,1,748.2,444.71Z" transform="translate(181 -281.05)"/><path class="cls-72" d="M681.05,467.91a6.18,6.18,0,0,1-5.25,4.61c-11.07,1.71-21.52,6.23-32.76,7.16-7.41-4.27-8.24-7.42-3.78-14.38,2.05-.21,4.17-0.25,5.53-2.22,10.16-2.58,20.22-5.56,30.41-8C679.44,458.29,682.05,462.28,681.05,467.91Z" transform="translate(181 -281.05)"/><path class="cls-73" d="M550.59,464.69c10.49-18,29.27-18,40,0l1.82,5.4a22.31,22.31,0,0,1,1.18,7.42c-0.42,4.48-3.34,6.89-7.13,8.57s-6.56,5.38-11.12,5.52l-9.44.07c-2.57,1.93-5.24.47-7.88,0.23a26.75,26.75,0,0,1-11.73-19.06C545.76,469.1,548.17,466.89,550.59,464.69Z" transform="translate(181 -281.05)"/><path class="cls-74" d="M591,476.67a7,7,0,0,1,1.43-6.56c12.48-.47,24.74-2.62,37-4.74,3.28-.57,6.53-1.3,9.82-0.08-0.63,5.29,2.07,9.71,3.78,14.38-10.33,3.59-21,4.55-31.89,4.55-3-2.3.62-7.37-3.79-9.07C601.68,473.31,596.58,477.55,591,476.67Z" transform="translate(181 -281.05)"/><path class="cls-75" d="M748.2,444.71l-0.53-1.81c0-4.8,3.39-7.2,5.5-8.5-3.94,5.35-9.8,3.28-15.73.1-3.36-2.31-6.64-.88-9.93.2,4.27-5.93,11.68-5.3,17.48-8,8.64-4,18.13-6.14,27.25-9.07l1.86,1.62,3.11,8.87c-2.2,3.28-.95,5.8,1.75,8Z" transform="translate(181 -281.05)"/><path class="cls-76" d="M699.39,446.87l11.33,11.37a74.16,74.16,0,0,1-25,9.46c-5.19-2.9-7.9-7.16-7.21-13.26,4.46-2.49,10.49-1.71,13.81-6.6C694.62,447.36,696.63,444.37,699.39,446.87Z" transform="translate(181 -281.05)"/><path class="cls-77" d="M692.28,447.85c-2,7.41-8.64,5.75-13.76,7.06a2.89,2.89,0,0,1-2.84,1.41c-10.5,1.35-20.06,6.93-30.89,6.76,9-4.94,19.38-5.35,28.68-9.41C679.45,451.07,686,449.75,692.28,447.85Z" transform="translate(181 -281.05)"/><path class="cls-78" d="M591,476.67c4.77-8.3,12.74-4.37,19.49-5.1-1.06,4.83.21,10.19-3.27,14.48l-20.74.06Z" transform="translate(181 -281.05)"/><path class="cls-79" d="M675.68,456.32l2.84-1.41,7.16,12.8-4.63.2C678.83,464.24,676.47,460.65,675.68,456.32Z" transform="translate(181 -281.05)"/><path class="cls-80" d="M607.23,486.05c0.56-4.95-1.58-10.5,3.27-14.48,3.2,4.07,1.17,8.4.65,12.66Z" transform="translate(181 -281.05)"/><path class="cls-81" d="M778.95,436.15c-2.68-.57-6.7,1.36-7.59-2.63-0.93-4.16,3.63-3.81,5.84-5.38l2.45,6.47Z" transform="translate(181 -281.05)"/><path class="cls-82" d="M147.2,511.68c-14.62,3.15-29.31,1.31-44,.67-1.32-8.51,4.09-13.72,9.33-19,8.32-.37,16.66.21,25-0.54C141.61,498.64,146.15,504.27,147.2,511.68Z" transform="translate(181 -281.05)"/><path class="cls-83" d="M208.54,507.64l-3.39-1.18c-8.74-.74-11.5-3.58-12.73-13.11,0-2.29,0-4.58,0-6.87,0-.93-0.07-1.86-0.14-2.79,1.43-8.54,9.11-17.31,17.27-18.75,10.71-1.89,19.75.92,25.51,11,1.77,2.6,2.7,5.6,4,8.45,1,2.12.13,4.28,0.14,6.42a20.45,20.45,0,0,1-.27,2.55c-0.52,4-3.25,6.88-5.13,10.21-1.76,2.37-4.27,2.86-7,2.81a5,5,0,0,1-3.25-1.77c-2-3.12-1-5.7,1.36-8.15,5-5.14,3.88-10.73.41-15.9-2.69-4-11.42-5.21-16.12-2.6-5.78,3.22-8.16,8-6,14.6,0.43,1.31.57,2.71,1,4C205.21,500.39,211.64,502.17,208.54,507.64Z" transform="translate(181 -281.05)"/><path class="cls-84" d="M147.2,511.68c-4.78-4.7-8.66-9.88-9.07-16.91a14.27,14.27,0,0,1-1.54-2.21c0.07-9.32,6-14.45,13.26-18.71,9.34-4.68,21.33-2.61,28.1,4.88,2.35,2.6,3.69,5.51,2.43,9.09a5.35,5.35,0,0,1-4.68,2.26c-2.92-.19-5.14-1.9-7.42-3.49-5.69-4-14.27-4.44-17.74-1-3.86,3.8-4,12.94-.16,18.7,1.07,1.6,2.65,2.87,3.24,4.81,0.07,1.86,1.57,4.56-2.36,4.11Z" transform="translate(181 -281.05)"/><path class="cls-85" d="M111.85,496.3c-1.44,6.13-6.21,10.47-8.63,16.06l-2-1.17c-5.23-5.86-11.36-5.77-17.94-2.72-2.51,1.08-4.76-.59-7.17-0.68L90.78,493a3.7,3.7,0,0,1,1.73-1.39C99.45,491.12,105.49,494.39,111.85,496.3Z" transform="translate(181 -281.05)"/><path class="cls-86" d="M194.76,493.29c1.73,5.76,5.58,9.84,10.39,13.17-4.84,4.57-10.88,3.07-16.58,3.26l-1.3-.52c-4-4-4.91-8.84-3.85-14.23C186.74,491.29,190.27,489,194.76,493.29Z" transform="translate(181 -281.05)"/><path class="cls-87" d="M174.89,488.08l4.52-.19,1.23,0.34a5,5,0,0,1,1.65,1.91c2.17,10.83-.21,16.51-8.87,21.15-7.13,3.7-14.39,5.87-22.17,1.89,1.29-1,.86-2.09.29-3.23,1.2-2.73,3.71-2.88,6.18-3.18,11.15-1.33,12.91-3,14.92-14.53C172.94,490.59,173.34,489,174.89,488.08Z" transform="translate(181 -281.05)"/><path class="cls-88" d="M224.81,503.15l2.48,1.57c-1.25,5.43-5.29,4.19-9,3.77l-4.81.15-4.94-1c-0.87-4.23-5.32-5.89-6.91-9.61,0.39-5.77,4.37-5.84,8.63-5.47a5.93,5.93,0,0,1,2.26,1.06C214.67,499.29,220.89,499.75,224.81,503.15Z" transform="translate(181 -281.05)"/><path class="cls-89" d="M173.43,511.3c5.35-6.12,8.62-12.89,6.78-21.3,4.71-1.74,10-1.05,14.54-3.52q0,3.41,0,6.81c-3.44.65-7.48-.65-10,3-0.19,4.62-1.63,9.55,3.24,12.9l0.58,0.51C183.71,512,178.51,511.11,173.43,511.3Z" transform="translate(181 -281.05)"/><path class="cls-90" d="M83.24,508.47c2.68-6.16,7.66-6.16,12.94-4.52,3.32,1,7.12,2.24,5,7.24Z" transform="translate(181 -281.05)"/><path class="cls-91" d="M222.37,511.51c-6.63,2.8-13.72,3.16-20.73,4a1.85,1.85,0,0,1-.5-1.43,0.91,0.91,0,0,1,.24-0.77c5-.87,10-2.58,15.18-2.15Z" transform="translate(181 -281.05)"/><path class="cls-11" d="M201.39,513.27l0.25,2.2c-2.79,1.49-6.39,0-8.93,2.43l-2.8-1.65C193.33,513.69,197.64,514.55,201.39,513.27Z" transform="translate(181 -281.05)"/><path class="cls-92" d="M53,486.14c3.49-3,6.83,0,10.12.49,8.41,1.15,16.73,2.91,25.08,4.42,2.1-.77,3.64-0.46,4,2.09a11.07,11.07,0,0,0-1.44-.15C77.39,495.1,65.22,490.49,53,486.14Z" transform="translate(181 -281.05)"/><path class="cls-93" d="M92.22,493.15l-4-2.09,3.65-1.58c12.23,1,24.41,2.73,36.71,2.53,3.44-1.31,6.83-2.26,9.73,1.12a2.6,2.6,0,0,1-.18,1.63c-8.69,1.72-17.71-2.25-26.28,1.53a18.78,18.78,0,0,0-8.73,2.07c-2.23,1-6.84,4.66-5.4-3.09C98.49,491.13,94.09,494,92.22,493.15Z" transform="translate(181 -281.05)"/><path class="cls-94" d="M138.31,493.14L128.57,492c1.33-1.89.7-3.69-.23-5.49l3.57-.39c2.95-7.26,8.45-10.87,16.17-11.35a4.15,4.15,0,0,1,1.77,1.56C144,480.59,139.37,485.62,138.31,493.14Z" transform="translate(181 -281.05)"/><path class="cls-95" d="M113.24,396.23c-6.47-4.79-16.32-.66-21.72-8.25-2.62-.5-5.17-1.14-6.82-3.53-1.3-1.23-3.16-2.09-4.49-1.12-5.27,3.84-7.1.44-8.73-3.76l-1.94-6.64c11.63,10.23,26.25,6.38,39.57,8a184.41,184.41,0,0,1,44.64,11.4,2.35,2.35,0,0,1,1.63,3.24,2.54,2.54,0,0,1-1.22,1.89C140.54,396.37,126.74,401.17,113.24,396.23Z" transform="translate(181 -281.05)"/><path class="cls-96" d="M719.21,505.53c-8.46,5.07-18.81.2-29.29-1.19-1.81-.24-4.35.54-4.59-2.16-0.18-2,2.23-2,3.53-2.94,13-9.14,24.53-1.31,36.36,3,1,0.37,2,1.46,1.41,2.62C725.34,507.36,723.26,505.67,719.21,505.53Z" transform="translate(181 -281.05)"/><path class="cls-97" d="M727.48,518.89c-2.69,1.53-4.93.72-7.07-.5-13.88-7.94-28.21-12.09-43.89-5.38-2.34,1-4.75.91-5-2.16-0.28-3.72,2.54-1.44,4.1-1.67,8.07-1.18,15.74-2.76,24.38-1.11C710.07,510,718.57,514.22,727.48,518.89Z" transform="translate(181 -281.05)"/><path class="cls-98" d="M685.79,519.86c-4.49,3-9.45,2.74-14.44,3.29,0.78,3.38,5.3.22,6,4.13-4.63,1.36-8.89-.7-13.13-1.71-1.92-.46-5-1.76-3.9-4.27,0.68-1.61,4.34-3.66,5.49-3.11C672.36,521.4,679.16,518.61,685.79,519.86Z" transform="translate(181 -281.05)"/><path class="cls-99" d="M668.24,515.53c6.26,2.48,12.56-2.29,21.17,0C680.78,516.87,674.49,519.93,668.24,515.53Z" transform="translate(181 -281.05)"/><path class="cls-100" d="M654,522l12.62,9.13c-7.43-1-10.92-3.86-14-7.29Z" transform="translate(181 -281.05)"/><path class="cls-101" d="M448.44,491.59c-11.23-.57-22.47-1-33.7-1.75-3-.19-7,1.08-7.85-3.82a105.24,105.24,0,0,1,45.16,5.17Z" transform="translate(181 -281.05)"/><path class="cls-102" d="M564.12,497.93c7.28-2.58,15-2.22,22.5-3,5.42-.57,10.88-0.22,16.31-1.43,2.49-.56,6.23-2,7.4,2.51C594.95,497.13,579.6,499.18,564.12,497.93Z" transform="translate(181 -281.05)"/><path class="cls-103" d="M478.72,494.73c5.85-4,11.72,0,17.51.27,9.75,0.39,19.65.3,29.21,3C509.8,497.77,494,499.45,478.72,494.73Z" transform="translate(181 -281.05)"/><path class="cls-2" d="M430.56,506.65l-2-3.27c5.75-5.23,9.1,1,13.38,2.8C438.26,509.73,434.5,510.35,430.56,506.65Z" transform="translate(181 -281.05)"/><path class="cls-104" d="M410.25,538.17l11.44-.11c9.63,5.26,10.29,7.46,4,13.52l-1.91,2c-2,1.41-2.27,4.72-5.46,4.7a20.51,20.51,0,0,0-2.59-1.76c-7.75,8.56-13.56-3-20.52-1.93C394.78,544.1,405.77,544.11,410.25,538.17Z" transform="translate(181 -281.05)"/><path class="cls-105" d="M380.25,568.07c-13.44,5.54-26.35,5.56-38.39-3.67l-13-14.69a73.52,73.52,0,0,0-3.85-7.34c-1.79-2.69-.67-4,1.7-5.16,5.9,13.28,12.42,25.95,28.54,29.27,5.85,2,11.48.1,17.05-1.25,2.68-.65,5.16-2,7.95-0.61l4.2,0.24Z" transform="translate(181 -281.05)"/><path class="cls-106" d="M366.65,551.29c-0.09,5.4-6.08,11.6-10.27,11.35-3.13-.19-4.23-2.29-4.38-5-0.17-3.16,7.24-10.62,10.46-10.55S366.53,549.34,366.65,551.29Z" transform="translate(181 -281.05)"/><path class="cls-107" d="M380.24,564.62c-5.41,2.78-10.86,5.39-17.19,5.24-3.1-.07-6.16,0-7.81-3.37,6.37-1.62,12.71-3.34,19.11-4.81C376.89,561.1,379.38,561.45,380.24,564.62Z" transform="translate(181 -281.05)"/><path class="cls-108" d="M388,545.23c0,3.26-2.18,4.21-4.79,4.8-2.23.51-4.12,0.09-4.19-2.51-0.09-3.24,1.94-5.16,5-5.61C386.37,541.57,387.63,543,388,545.23Z" transform="translate(181 -281.05)"/><path class="cls-8" d="M218.29,508.49c3.42-.25,6.72-0.76,9-3.76l4.55-3.13c6-5.33,14.5-3.94,21.07-7.78,10.77-4,22-6.11,33.3-7.69a28.1,28.1,0,0,0,7.84-2.22c0.77-.46,1.55-0.89,2.33-1.34,6.4-2.17,13.07-2.35,19.72-2.78,9,1.9,17.65,1.21,25.59-4a18.31,18.31,0,0,1,2.6-.33c7.76-2.23,15.95,0,23.7-2.28a1.54,1.54,0,0,1,.8-0.12c9.37,4.46,18.74,4.54,28.12,0,5.36,1.08,10.78-1.21,16.13.23,12.59,3.23,25.87,1,38.39,4.78a16.85,16.85,0,0,0,6.27,1.88c9.25-1.09,18.14,1,27,3a122.83,122.83,0,0,1,13.17.77c7.25,2.48,13.7,7.87,22.37,5.1,3.79-1.21,6.54-5.41,11.22-4,4.08,3.17,8.9,2.45,13.45,2.15a27.73,27.73,0,0,1,12.72,1.81l8.26,2.82,4.86,2.78c-26.74.13-52,.35-77.45-2.33-38.57-4.07-76.8-12.29-115.87-10.59a452.53,452.53,0,0,0-86.38,12.07c-21.28,5.12-42.6,10.1-63.88,15.2C224.16,509.54,221.21,510.07,218.29,508.49Z" transform="translate(181 -281.05)"/><path class="cls-109" d="M458.49,544.72c-10,4-19.09,2.74-27.1-4.72C440.29,542.32,449.15,544.92,458.49,544.72Z" transform="translate(181 -281.05)"/><path class="cls-110" d="M435.43,513c9.73-5.21,10.66-4.67,11.47,6.75C442.32,518.77,439.48,514.85,435.43,513Z" transform="translate(181 -281.05)"/><path class="cls-111" d="M463.71,534.62c1.83,0.22,4.42.11,4.36,2.43-0.06,2.15-2.47,3.29-4.34,4.36C461.66,539.15,462.83,536.88,463.71,534.62Z" transform="translate(181 -281.05)"/><path class="cls-112" d="M425.72,551.59c3.61-6,0-9.81-4-13.52,3.37-2.92,4.6,1.77,7.08,2a43.19,43.19,0,0,1,3.22,5.71c1,2.55,4.52,5.06,1.37,8S428.13,552.89,425.72,551.59Z" transform="translate(181 -281.05)"/><path class="cls-113" d="M418.35,558.26c1.91-1.46,1.63-5.47,5.46-4.7C422.71,556,424.59,561.83,418.35,558.26Z" transform="translate(181 -281.05)"/><path class="cls-114" d="M286.65,546c0.92,6.17-1.33,9-8.12,8.92-6.95-.05-7.93-4.72-7.73-9.28,0.19-4.21,0-10.21,6.82-10.32S287.79,538.92,286.65,546Z" transform="translate(181 -281.05)"/><path class="cls-54" d="M227.45,392.65l2.21,0.26c4.06,3.33,3.52,8.39,4.81,12.77,3.05,6,.6,12.88,3.14,18.95,1.93,7.78-.54,15.82,1.49,23.6-1.83,7.47-1.75,15.06-1.42,22.66,0.11,2.4.9,4.92-1.37,6.83a2.45,2.45,0,0,1-2.7.25c-13.72-15.89-32.2-12.88-38.93,6.36-3.83,5.41-9,5.34-14.61,3.63l-0.64-.05c-6.59-12.32-15.39-15.76-29.57-11.55a1.19,1.19,0,0,0-1-.43c-5.77-6.29-5.23-7.43,4.6-9.78,18.2-2.3,36.2-5.84,50-8.18-13.92,2.69-32.25,5.49-50.53,8.55-11.28,1.68-15.85-.82-17.06-9.6-0.52-3.75-.26-7.25,4.73-8.11,22.34-3.82,44.69-7.6,67-11.64a6.73,6.73,0,0,1,2.3-.07c-11.27,1.1-23.06,3.8-34.93,5.88-11.71,2.06-23.52,3.59-35.18,5.94-4,.81-7.67.24-9.37-3.37-4.92-10.46-9.44-21.13-8.11-33.18a11.63,11.63,0,0,1,8.69-4.33c14.67-1,28.66-6.27,43.38-6.77a12.55,12.55,0,0,0,6.92-2.42c7.48-4.18,15.58-5.14,24-4.51,2.81,0.21,5.52.22,8-1.3Z" transform="translate(181 -281.05)"/><path class="cls-115" d="M206.46,366.55c-0.21,8.42-11.37,16.76-19.81,14.09-7.87-2.48-15.39-6-23.68-7.22-1.75-.25-4.12-0.84-3.9-3.45,0.18-2,2.22-2.32,3.74-2.71a63.57,63.57,0,0,1,10.5-2.27,13.85,13.85,0,0,0,11.44-7.09c2.17-3.58,5.26-6.66,9.45-4.13C199.29,356.84,206.95,358,206.46,366.55Z" transform="translate(181 -281.05)"/><path class="cls-116" d="M181.85,399.29c-1.34,2.38-3.5,3.18-6.09,3.68-17.5,3.39-35,6.9-52.47,10.37-4.44,5.59-9.72,5.85-15.57,2.44a5.68,5.68,0,0,1-3-3c-4.91-4.61-11.7-4.55-17.47-7-2.52-1.08-5.43-1.89-5.9-5.21-0.34-2.38,1.56-3.36,3.24-4.32,2.94-1.68,5,1.08,7.21,1.46,7.23,1.22,12.12,7.37,21,6.67,6.54-.52,13.53.62,20.23-1.62,6.38-3.14,12.55-7.27,20.21-4.11,3.87-.27,7.8.19,11.63-0.77,5.59,2.84,11.17,1.48,16.75,0a0.93,0.93,0,0,1,.43.9A0.55,0.55,0,0,1,181.85,399.29Z" transform="translate(181 -281.05)"/><path class="cls-117" d="M141.55,331.14c10.14,3.4,18.55-1.74,26.07-6.82s15.4-5.51,23.65-5.16c5.36,0.23,8.93,2.93,8.53,9-10-7.94-20-5.64-30.2-.27-9.32,4.9-18.83,9.59-29.89,5.74Z" transform="translate(181 -281.05)"/><path class="cls-118" d="M181.85,399.29l-0.19-1.42c9.29-9.88,20.65-6.1,31.64-4.82-5.25,5-12.17,4-18.46,4.71C190.51,398.28,186.13,398.36,181.85,399.29Z" transform="translate(181 -281.05)"/><path class="cls-119" d="M109.54,358.78c-0.66,3.94-4,4.65-7.17,5.31a4,4,0,0,1-5.15-3.91c-0.1-4.31,3.76-4.85,6.92-5.35C106.84,354.42,108.9,355.67,109.54,358.78Z" transform="translate(181 -281.05)"/><path class="cls-95" d="M164.91,397.91c-3.2,4.67-7.9,3.14-12.27,3-0.18-2,1.14-3.22,2.2-4.6,0.18-.23.36-0.47,0.53-0.71A10.15,10.15,0,0,1,164.91,397.91Z" transform="translate(181 -281.05)"/><path class="cls-120" d="M520.67,443.25a11.81,11.81,0,0,1-7.88,1.27c-7.51-1.15-10.18,2-8.91,9.2-0.88,6.55-5.6,10.05-10.61,13.32a7.13,7.13,0,0,1-5.17-1.28c-2.61-4.23-3.83-9.07-6-13.51-4.57-14.9-10.13-29.49-14.32-44.52a14,14,0,0,1,0-7.31,13,13,0,0,0-.53-4.07c-2-8.45-.38-10.67,9-12.85,4-1.49,7.88.5,11.83,0.33a4.9,4.9,0,0,1,4.29,2.5c-5,7.38.87,11.72,4.64,16.66-1.6,6.79.13,13.27,1.85,19.75-1.44,1.83-3.46.68-4.95,1,2.55,0.57,5.57-1,8.2,1-0.56,1.54-1.45,3-1.62,4.62-1.1,10.14,1,12.39,10.91,12,1.37-.05,2.75,0,4.13.07C517,442.95,519.54,441.1,520.67,443.25Z" transform="translate(181 -281.05)"/><path class="cls-121" d="M492,387.6l-3.69-1.4a4.94,4.94,0,0,1-.91-3.78c5.26-8.9,12.56-14.71,23.26-15.39a34.16,34.16,0,0,1,18.4,4.48c2.43,3,4.82,4.39,7.09-.2,3.15-2.94,7-3,10.92-2.63,5.45,1.26,13.14-2.08,14.7,7.16a3.58,3.58,0,0,1-1.59,2.29c-13.12,4.81-26.93,5.52-40.64,6.51-7.12.51-14.49-.93-20.2,5.18-1.56,1.66-3.63-.69-5.52-0.31C493,389.06,492,388.82,492,387.6Z" transform="translate(181 -281.05)"/><path class="cls-122" d="M493.89,466a30,30,0,0,1,10-12.26c16.26-4.64,23.65-1.65,31.32,12.67,2,1.57,3.16,3.53,2.77,6.18-1,5.53-1.26,11.45-8,13.62-12,8.69-19.56,8.64-31.17-.21-6.4-1.61-7.89-6.3-7.59-12.1,0-1.28,0-2.57.09-3.85C491.51,468.25,492,466.7,493.89,466Z" transform="translate(181 -281.05)"/><path class="cls-123" d="M560.17,378.12l0.66-1.92c2.18-3.38,6.38-4.21,8.95-7.1,1.24-1.4,3.46-2.49,3.08-4.57-0.49-2.66-3.21-2.73-5.29-3-6.33-.78-11.92-2.44-13.79-9.6,0.33-5.8-2.24-11.81,1.24-17.38a2.2,2.2,0,0,1,2.61-.22c2.68,10.29,8.39,16.52,20,15.24a5.8,5.8,0,0,1,6.2,3.19c-2,2.88-2.73,5.77-.06,8.69-3.63,7.7-8.48,14.28-16.43,18C564.83,379.49,562.11,380.8,560.17,378.12Z" transform="translate(181 -281.05)"/><path class="cls-124" d="M502.18,424.7H483.79l-0.09-2h15.23c19.93-1,39.85-2.17,59.79-3.07a158.84,158.84,0,0,1,20.6.53C553.61,422.1,528,424.66,502.18,424.7Z" transform="translate(181 -281.05)"/><path class="cls-125" d="M520.67,443.25c-1.77-.39-3.72-0.27-5.07-1.83,18.49,0.54,36.88-3.06,55.45-.37Z" transform="translate(181 -281.05)"/><path class="cls-126" d="M536,473.3l-0.81-6.92,15.39-1.7-2,8.71C544.35,476.69,540.17,476.47,536,473.3Z" transform="translate(181 -281.05)"/><path class="cls-127" d="M492,387.6l1.82,1.9c-3,6.92-3,6.92,9.91,13.55-2.43,2.55-4.59-.88-6.65-0.06C486.63,396.38,486.12,394.84,492,387.6Z" transform="translate(181 -281.05)"/><path class="cls-128" d="M523.76,395.16l22.87-1.77,0.21,2.16L524,397.3Z" transform="translate(181 -281.05)"/><path class="cls-129" d="M544.86,403.8a51.06,51.06,0,0,1,22.85-2.16C559.42,405.48,552,404.74,544.86,403.8Z" transform="translate(181 -281.05)"/><path class="cls-130" d="M532.28,450.75c8.12-1,16-3.81,25.47-2.19C548.57,451.73,540.39,451.59,532.28,450.75Z" transform="translate(181 -281.05)"/><path class="cls-131" d="M539.71,430.08c-7.22,3.88-14.26,2.87-21.34,1.62Z" transform="translate(181 -281.05)"/><path class="cls-132" d="M591.53,433.18c-6.05,3.6-10.64,3.08-17.18,3.05C580.3,432.54,584.87,432.85,591.53,433.18Z" transform="translate(181 -281.05)"/><path class="cls-133" d="M577.81,391.94c4.39-1.22,6.63-3.52,9.64-.91C584.93,393.69,582.25,393.28,577.81,391.94Z" transform="translate(181 -281.05)"/><path class="cls-134" d="M653.94,379.6c3.65,2.64,3.11,5.94,1.72,9.56-1.6,4.15-5,3.59-8.31,3.58-5.21-2.45-5.26-6.49-3.05-10.89S650.09,377.62,653.94,379.6Z" transform="translate(181 -281.05)"/><path class="cls-135" d="M653.94,379.6c-8.86,1.07-9.94,3.2-6.6,13.13l-9.74.35-0.58-.55C637.83,379.86,645.33,374.12,653.94,379.6Z" transform="translate(181 -281.05)"/><path class="cls-136" d="M753.71,526q0.06,1.56.13,3.12c-5.23,2.78-5.12,8.48-6.55,13.08-0.73,2.36-.27,4.81-3.23,5.73-2-6.14-4-12,.27-18.36C746.93,525.74,749.33,524,753.71,526Z" transform="translate(181 -281.05)"/><path class="cls-137" d="M539.81,297.62c5.15,0.14,7,5,10.54,7.41,1.57,10.78,12.77,8.15,19.1,13.17-5.19,3-10.64,1.63-15.43,3.31-2.3,5.48-9.26,5.3-12.18,10-5,2.68-9.78,2.5-14.09-1.55-3.4-4.61-8.41-2.48-12.77-3-3.39-.41-7.35,1.07-9.41-3.22-1.05-6.15,2.62-8.42,7.76-9.58A42.59,42.59,0,0,1,524,312.78c3.26-.93,5.11,2.78,8.18,2.53,1,0.42,1.17-1.09.8,0-0.06.18-.3,0-0.75,0-2.65-.37-4.46-1.67-5.16-4.35-0.34-3.14.93-6.11,3.81-6.55C535.32,303.66,537,300.08,539.81,297.62Z" transform="translate(181 -281.05)"/><path class="cls-138" d="M542.4,329.42c-2.79-3.12.51-3.33,2.09-4.06,3.11-1.43,5.89-3.71,9.52-3.87,9.76,1.88,2.25,8.61,3.61,12.85l-2,.11-1.15,0C550.37,333.06,544.87,334.86,542.4,329.42Z" transform="translate(181 -281.05)"/><path class="cls-139" d="M154.84,396.31c3.23,3.43-1,3.3-2.2,4.6-4.29-.47-8.38-1.14-12.05,2.61-2,2.06-5.14,1.2-7.51-.72-3.65-3.06-8.4-.6-12.35-2.53-2.55-1.25-6-.82-7.48-4,4.3-3.82,8.51-7.72,12.89,0a3.42,3.42,0,0,0,5.16.92C139,391,146.87,393.15,154.84,396.31Z" transform="translate(181 -281.05)"/><path class="cls-140" d="M104.74,412.83l3.88,0.67c0,6,1.94,12.22-2.06,17.76l-1.51.07c-1.3-3.57-2.63-7.13-3.89-10.72S101.08,414.29,104.74,412.83Z" transform="translate(181 -281.05)"/><path class="cls-141" d="M84.7,384.46c2.58,0.58,5.21,1.07,6.82,3.53-3.48,2.27-7,.26-8.91-1.67C80.18,383.9,83.93,385.15,84.7,384.46Z" transform="translate(181 -281.05)"/><path class="cls-142" d="M106.56,431.26a36.33,36.33,0,0,0-1.34-6.29c-1.93-4.83-1-8.62,3.39-11.48,4.92,2.1,9.78-.39,14.68-0.15,2.76,8.67,5.63,17.31,8.25,26,1.95,6.5,4.87,9.15,12.63,7.72,23.29-4.29,46.55-9,70.4-10q-26.06,4.68-52.12,9.36c-5.44,1-10.94,1.66-16.33,2.83-2.86.62-8.26-.87-7.42,4.12s1.87,11.28,8.67,12.72a30.37,30.37,0,0,0,5.81.13l0.13,0.15c-4.39,1.81-8,4-4.4,9.49-6.7,1.69-9.94,9.12-17,10.22-6.07-10.89-8.33-23.45-16.35-33.68C111,446.63,109.46,438.41,106.56,431.26Z" transform="translate(181 -281.05)"/><path class="cls-143" d="M737.44,434.5c6.64,2.19,11.59-1.2,16.72-4.71,2.69-1.84,6.77-3.41,8.58.57,1.69,3.71-2.08,5.44-5.07,5.76-4.73.51-5.95,5.64-10,6.78C744.06,440.34,740.14,438.16,737.44,434.5Z" transform="translate(181 -281.05)"/><path class="cls-144" d="M570.07,487.58c-7.78.12-15.2-7.34-15.51-15.58s6.9-15.22,16.17-15.58c8.31-.32,15.61,6.8,16.13,15.73C587.28,479.14,578.22,487.46,570.07,487.58Z" transform="translate(181 -281.05)"/><path class="cls-145" d="M536,473.3l12.54,0.09a48,48,0,0,0,9.13,15.49c-7.29,1.68-14.68.67-22,.89-2.74.08-4.79-.79-5.66-3.59Z" transform="translate(181 -281.05)"/><path class="cls-146" d="M224.81,503.15a34.17,34.17,0,0,0-5.69-.06c-7,1.06-11-.31-7.36-8.48,0.69-2.68,5.81-4,4.31-6-2.63-3.47-2.72.51-3,2.2a10.84,10.84,0,0,1-1.31,3.73c-3.63.37-7.13,1.11-10.09,3.44-3.94-6.68-4.84-13.28.6-19.66,4.85-5.69,10.89-6.54,18-5.09,6.66,1.37,10.46,5.65,11.47,11.5,0.94,5.45,1.48,11.88-5.54,14.89C224.53,500.37,224.62,501.75,224.81,503.15Z" transform="translate(181 -281.05)"/><path class="cls-147" d="M233.59,478a3,3,0,0,1,1.3,0c1.72-.65,3.23-1.79,5-2.26,8.13-1.35,15.71-4.89,24.06-5.57,4.3-.35,8.36-2.63,11.78-5.59,3.31-1.45,6.83-1.37,10.34-1.5,5.18,0.71,9.86-2.79,15.27-1.53,2.74,0.64,5.39.49,6.75,3.47,1.2,4.29-1.49,6.27-4.7,8-4.87,1.67-10,2.12-15.05,2.54-14.61,1.26-28.35,6.49-42.58,9.47-2.91.61-5.73,2.25-8.69,0.24Z" transform="translate(181 -281.05)"/><path class="cls-148" d="M237.11,485.15c16.73-5.62,33.6-10.64,51.28-12.27a2.92,2.92,0,0,1,.63,3.36c-2.56,2.2-6.08,1.92-8.91,3.46-10.55,3.24-21.65,4.53-31.84,9.05-3.45,2.68-6.77,6-11.51,2.4Z" transform="translate(181 -281.05)"/><path class="cls-149" d="M236.77,491.16c4.07,0,6.76-3.11,10.16-4.61,6.14,0.56,7.1,4.13,5.38,9.26-6,2.69-11.74,4.24-16-2.82Z" transform="translate(181 -281.05)"/><path class="cls-148" d="M236.32,493c5,2,9.85,5.2,15.45,1.74,1.37-.27,2.06.06,1.44,1.59-6.51,4.25-14.1,4.17-21.38,5.28Z" transform="translate(181 -281.05)"/><path class="cls-150" d="M180.06,487.95c4.56-2.47,10.13-.82,14.61-3.62q0,1.07.09,2.15c-3.41,7.13-8.91,5.61-14.55,3.52C180.16,489.31,180.11,488.63,180.06,487.95Z" transform="translate(181 -281.05)"/><path class="cls-151" d="M174.89,488.08c3.8,15.17-4.07,24.09-19.27,21.88a27.44,27.44,0,0,0-4.07,0c-8.74-6.37-10.91-17.68-5-26.18,3.51-5.06,17.6-6.17,22.71-1.66C171.29,483.92,173,486.08,174.89,488.08Z" transform="translate(181 -281.05)"/><path class="cls-152" d="M188,509.21c-10.78-1.86-4.34-8.05-3.24-12.9Z" transform="translate(181 -281.05)"/><path class="cls-153" d="M525.38,314.55c-3.58,2.25-7.65,2.94-11.73,3.2-4.35.28-6.57,2.24-6.62,6.6-1.76,1.33-3.72.82-5.54,0.37-3.48-.85-1.65,1.46-1.69,2.7-0.33,3.57-3.33,4-5.84,5a6,6,0,0,1-2.37-.27c-2.29-2-5.58-3.42-4.85-7.42l0.6-3.66c2.17-12.16,8.11-21.51,19.8-26.6,2.4-1.85,4.57-4.28,8.12-3.37,3.73,4.08,10.43,4.19,13.09,9.72a5.55,5.55,0,0,1-.1,2.17c-1.1,2-2.91,3.85-2,6.51C526.25,311.23,527,313.09,525.38,314.55Z" transform="translate(181 -281.05)"/><path class="cls-154" d="M507.14,294.45c-8.49,7.46-14.66,16.65-19.8,26.6-0.67-11.43,3.71-22.71,16.54-26.65Z" transform="translate(181 -281.05)"/><path class="cls-155" d="M527.41,300.92c-5.87-1-10.87-3.13-12.14-9.83A57,57,0,0,1,534,294.21C535.37,300.8,534.5,301.68,527.41,300.92Z" transform="translate(181 -281.05)"/><path class="cls-156" d="M523.49,309.44c-2.49-4.34-.74-6.44,3.74-7.1,2.9-1.92,7.26-1.74,8.39-6.3,0.25-1,2.26-1.12,3.05.55a6.4,6.4,0,0,1,1.14,1c-0.06,4.4-.56,8.34-6.42,8.51-3.05.09-4,2.46-4.44,5.1C526.35,313.06,525.48,309.51,523.49,309.44Z" transform="translate(181 -281.05)"/><path class="cls-137" d="M538.67,296.58c-4,1.46-6.32,6.45-11.45,5.76a9.6,9.6,0,0,1,.18-1.43c3.16-1.29,6.76-2.14,6.58-6.71C535.91,294.3,537.71,294.61,538.67,296.58Z" transform="translate(181 -281.05)"/><path class="cls-157" d="M710.12,501.8c-3.09,1.56-5.32,1.91-7.11-.38a2.14,2.14,0,0,1,.45-2C706.11,497.67,707.85,499.19,710.12,501.8Z" transform="translate(181 -281.05)"/><path class="cls-158" d="M397,476c-9.57,4.56-19,5.75-28.1-1.16-7.11-.84-8.79-6.05-9.61-12a15.69,15.69,0,0,1,0-7c0.33-11.47,8.62-16.1,17.63-19.12,9.58-3.21,20.52,1.8,26.72,10.86,1.07,1.54,2.39,2.94,2.63,4.92-0.11,1.83.44,3.63,0.35,5.46a19.52,19.52,0,0,1-2.13,11.56C403.7,473.69,400.13,474.58,397,476Z" transform="translate(181 -281.05)"/><path class="cls-159" d="M452.09,481.1c-13.24-2.35-27-.34-40-4.57-3.51-7.06,4.09-9.23,6.09-13.87,13.08-1.84,25.83.07,38.48,3.33C461.05,471.89,459.78,476.07,452.09,481.1Z" transform="translate(181 -281.05)"/><path class="cls-160" d="M253.21,496.32l-1.44-1.59-4.85-8.18c0.42-2.77,2.58-3,4.78-3.56,9.56-2.25,19.08-4.62,28.62-6.95,1.89-.73,4.18-1.18,5.26.65,2.41,4.08,7,6,9.3,10.1C281.24,491,267.24,493.7,253.21,496.32Z" transform="translate(181 -281.05)"/><path class="cls-161" d="M483.79,485.86l-26.7-3.49c-2.78-6.45,2.39-9.93,5.32-14.25,9.41,2.24,19.09,2.17,28.63,3.33C493,479.14,491.87,481.48,483.79,485.86Z" transform="translate(181 -281.05)"/><path class="cls-162" d="M342.64,477.87l-0.59,0-0.58,0c-3,.12-3.21-2.13-3.59-4.23a11.06,11.06,0,0,1,.74-4c2.7-8.23,1.35-13.16-4.46-16.42C328,449.75,320.78,451.65,316,458a22.76,22.76,0,0,1-2.53,3.28c-2.13,1.43-4.14,3.36-7,1.87a7.88,7.88,0,0,1-1.88-3.56A8.1,8.1,0,0,1,306,453c11.35-18.56,32.27-18.29,43.62.54,0,4,5.12,5.64,4.78,9.86C351.4,469,349.6,475.51,342.64,477.87Z" transform="translate(181 -281.05)"/><path class="cls-163" d="M288.44,476.24q0-1.68-.05-3.36c4.35-1.43,8.63-3.2,13.37-2.66,9.09,0.68,13.73,4.52,14.66,12.15l-19.72,4.16C292.78,484,286.84,483.16,288.44,476.24Z" transform="translate(181 -281.05)"/><path class="cls-164" d="M342.64,477.87c2.35-3.28,4.84-6.54,5.27-10.7,0.36-3.46,2.26-4.57,5.42-4.28,2.59-2.85,5.3-2.69,8.09-.31l7.46,12.24c-2.94,5-7.91,3-12.08,3.25C352.11,478.36,347.37,478,342.64,477.87Z" transform="translate(181 -281.05)"/><path class="cls-165" d="M316.42,482.37c-3.86-5.29-8.37-9.78-14.66-12.15,3.44-.51,5.18-2.28,4.36-5.92a1.08,1.08,0,0,1,.58-1.4l4.94-3.46c2.39,0.89,2.9,3,3.6,5.15,2.8,8.63,7.39,11.16,16.14,9.45,2.87-.56,5.64-2.55,8.77-1l1.32,4.88C334.28,485.85,325.3,483.84,316.42,482.37Z" transform="translate(181 -281.05)"/><path class="cls-166" d="M418.57,464.95l-6.48,11.58C407,477.73,402,476.12,397,476l5.08-6.38C406.63,464.71,411.16,459.72,418.57,464.95Z" transform="translate(181 -281.05)"/><path class="cls-167" d="M483.79,485.86l8.32-12.63c0.52-.73,1-0.68,1.48,0,0.17,4.89,2.41,8.92,5.25,12.7A47.2,47.2,0,0,1,483.79,485.86Z" transform="translate(181 -281.05)"/><path class="cls-168" d="M462.14,469.63c-1.31,4.39-4.61,8-5,12.74-1.88.39-3.7,0.57-5-1.27,1.25-4.4,6.06-7.4,5-12.72C459.3,466.5,461.23,465.95,462.14,469.63Z" transform="translate(181 -281.05)"/><path class="cls-169" d="M288.44,476.24l8.26,10.29-1.8.25a11.52,11.52,0,0,1-9.1-6.45c-1.27-2.36-2.61-4.19-5.47-4.3C283.08,474.28,285.76,475.16,288.44,476.24Z" transform="translate(181 -281.05)"/><path class="cls-170" d="M280.26,357.66a57.11,57.11,0,0,0,14.25,13.57c2.87,1.19,5.45,2.59,4.63,6.43-10.62,6.85-12.62,7.06-19.11,2-4.49-4.24-7.56-9.55-10.15-15-3-6.33-6.52-12-12.3-16.18-2.9-2.12-5.35-5.34-3.87-9.23s5.34-3.37,8.61-3.42c3.84-.06,7.69,0,11.52.28,5.13,0.32,6,4,6.12,8.16C277.44,348.78,278.5,353.23,280.26,357.66Z" transform="translate(181 -281.05)"/><path class="cls-171" d="M486.75,324.71c1.68,2,6,1.53,5.41,5.72,0.1,2.66.6,5.46-2.3,7.17a6.26,6.26,0,0,1-4.11.48,308.84,308.84,0,0,0-66.44-2.67,8.92,8.92,0,0,1-4-1.19c-3.41-1.14-6.38-2.73-7-6.78-0.38-1-2.82-2.21.06-2.86,23.06-5.23,46.19-6.67,69.36-.72A21.56,21.56,0,0,0,486.75,324.71Z" transform="translate(181 -281.05)"/><path class="cls-172" d="M408.38,327.44c2.67,0.63,5.33,1.27,7.06,3.7,2.49,3.67,3,8.08-.7,10.38C404.49,348,401,360,392.18,367.49c-7.35,3.21-14.68,3.8-21.95-.25-3-4.6-.28-7.84,2.93-10.52,4.41-3.69,8.27-7.94,12.59-11.67,2.64-2.28,2.91-4.31,1.33-7.05-0.86-2.66-.77-5.08,1.73-6.88,2.25-4.27,5.69-3.89,9.79-3.16C401.72,328.51,405.11,327.66,408.38,327.44Z" transform="translate(181 -281.05)"/><path class="cls-173" d="M323.5,355.81c-9.28-7.79-21.31-5.93-32.17-8.73,8.05-10.8,29.58-8.19,48.61,5.53a6.39,6.39,0,0,1,5.82,2.55c3,4.83,8.8,8.74,5.38,15.79q-6.4,7.46-15.63,4.07a14,14,0,0,1-5.87-8.44C327.79,362.88,325.62,359.36,323.5,355.81Z" transform="translate(181 -281.05)"/><path class="cls-174" d="M343.48,356.42l-3.54-3.82c1-4.62,5.1-5.62,8.55-7.12,13.1-5.71,25.64-13,40.3-14.38-0.74,2.57.63,4.64,1.58,6.82,0.17,4.24-3.1,5.53-6.1,6.82-10.62,4.57-21.71,8-32.18,13C349,359.19,346.2,357.89,343.48,356.42Z" transform="translate(181 -281.05)"/><path class="cls-175" d="M231.89,406.1c-2.34-4.13-1.78-8.74-2.24-13.19,10.54,2.74,19.5-3.71,29.35-5.06,5.67-.78,10.43-5,16.42-4.87q0.86,1,1.65,2c1.87,2.78,2.73,5.64.67,8.73a13.6,13.6,0,0,1-9.36,4.31c-4.64,1.45-9.23,3.07-14.07,3.76-2,.46-3.79,1.45-5.74,2C243.19,405.94,238,409.14,231.89,406.1Z" transform="translate(181 -281.05)"/><path class="cls-176" d="M323.5,355.81c4.23,1.55,7.43,4.06,8.22,8.82-2.08,6.45-8.38,7.87-13.37,10.24a46.27,46.27,0,0,0-9.17,5.35c-2.87,1.36-5.79,2-8.84.59a3.39,3.39,0,0,1-1.66-3.32l-4.16-6.25C305.23,368.06,315.82,364.66,323.5,355.81Z" transform="translate(181 -281.05)"/><path class="cls-177" d="M298.68,377.48l1.68,1.93c0.13,2.46-1.12,4.14-3.06,5.43-4.28,2-8.9,2.67-13.52,3.31-3.45.48-6.66,0.32-8.3-3.52q0-.82-0.06-1.65c2.29-.1,4.65-0.1,4.62-3.37C286.67,382.58,292.33,377,298.68,377.48Z" transform="translate(181 -281.05)"/><path class="cls-178" d="M280.26,357.66c-4.89-4.36-6.6-8.79-.3-13.41C281.52,348.69,281.25,353.17,280.26,357.66Z" transform="translate(181 -281.05)"/><path class="cls-179" d="M235.53,448.23c-2.88-7.61-1.19-15.37-.77-23.09,0.44-2.8-4.09-9,4.32-6.35,6.72,9.8,16.61,8.72,26.26,7.1,6.13-1,3.13-6.69,4-10.39a6.74,6.74,0,0,1,1.6-4.73c4.19-2.88,8.62-.7,13-0.63,10,10.86,13.95,24.22,16,38.39a4.38,4.38,0,0,1-1.55,1.87c-9.13-2.2-16.93,3.59-25.65,4.35-8.39.73-16.15,4.81-24.61,5.88a20.56,20.56,0,0,1-9.69-.91C233.74,456.79,237,451.94,235.53,448.23Z" transform="translate(181 -281.05)"/><path class="cls-180" d="M235.53,448.23c2.39,2.83-.54,7.9,4.13,9.76,2.19,2.31,4,3.73,8,2.77,10.67-2.55,21.28-5.4,31.9-8.11,6.15-1.57,12.42-1.15,18.46-2.78l0.62-.54c7.08,0.09,4,7.88,7.86,10.39l0.2,3.18a3.4,3.4,0,0,1-.58,1.4c-7.24-1.64-13.88,2.89-21,2.06-5.46-6.23-12.7-3.82-18.38-2-5.39,1.71-11.23,3.73-16,7.42-3.3,3.09-8.88,2-11.51,6.34-1.49,1.31-2.9.54-4.32-.15Z" transform="translate(181 -281.05)"/><path class="cls-181" d="M238.26,421.24c-6.6-3.59-1.39,3.44-3.5,3.89l-2.87-19c5-3.29,10.85-3.41,16.49-4.35,5.48,7.17-1,10.54-4.68,14.8C241.68,417.86,240.78,420.49,238.26,421.24Z" transform="translate(181 -281.05)"/><path class="cls-182" d="M153.16,466.28c18.88-5,38.21-7.17,57.53-9.5-19,4.14-37.85,8.9-57.4,9.65Z" transform="translate(181 -281.05)"/><path class="cls-183" d="M181.1,424.2c7.7-3.74,16-5.23,24.56-5.55C198,422.42,189.51,422.92,181.1,424.2Z" transform="translate(181 -281.05)"/><path class="cls-184" d="M199.31,467.05c-7.42,3.78-15.59,4.11-23.62,5.07C183.1,468.26,191.19,467.59,199.31,467.05Z" transform="translate(181 -281.05)"/><path class="cls-185" d="M175.92,451.75c-5.9,3.16-12.17,3.67-18.5,4C163.26,452.66,169.58,451.81,175.92,451.75Z" transform="translate(181 -281.05)"/><path class="cls-186" d="M171.61,417.4l-12.18,2.29C163.09,416.93,166.94,415.14,171.61,417.4Z" transform="translate(181 -281.05)"/><path class="cls-187" d="M229.37,448.91c-3.5.72-6.66,3.34-11.8,1.89C222,448.3,225.43,447.3,229.37,448.91Z" transform="translate(181 -281.05)"/><path class="cls-2" d="M391.38,364.93c6.74-8.77,10.34-20,20.95-25.76,2.88-1.55,3.23-4.9,3.11-8,6.78,2.14,13.53-.31,20.31-0.26,17.31,0.13,34.65-.71,51.38,5.1,3.1,5.57-.94,7.74-4.7,10.27-5.94,4-13.68,3.89-19.22,8.67-2.17,2.16-5.24,3-8.41,5.68,6.17-1.17,11.52-4.45,16.73-.4,4.06,5.5,3.94,12.55,6.92,18.5,1.54,3.08-.3,5.85-3,7.78-8.44,2.93-8.4,3.11-3.11,9.94,1.79,2.32-2.66,1.25-2.34,3.17-2.07,3.21-5.34,3.62-8.72,3.61-9.62,0-19.22.49-28.84-.89-9.15-1.31-17.88,1.35-26.38,4.59-3.9-1.35-4-4.73-4.29-8-0.35-4.63-.8-9.28-1-13.87C400.31,376.79,398.8,369.63,391.38,364.93Z" transform="translate(181 -281.05)"/><path class="cls-3" d="M405.2,406.1c1.8-4.95,5.19-6.15,10.52-6.83,18.16-2.31,36.17,1.93,54.24.31,3.12,17.81,12,34,15,51.82-2.24,4.24-5.75,4.63-9.92,3.38-20-6-41-8.12-61-13.91-4.11-1.19-5.61,3.42-9.07,2.56-4.21-2.15-3.95-6-3.74-9.81,0.06-1.41.27-2.82,0.33-4.23,0.39-5.49,1.2-10.92-.21-16.47C400.56,410,400.89,406.64,405.2,406.1Z" transform="translate(181 -281.05)"/><path class="cls-188" d="M403.91,457.63l-0.08-3.93c6.62-4.47,13.49-3,20.39-.86,13.43,1.43,26.48,6.18,40.25,4.58,4.76,0.81,9.56,1.39,14.26,2.51,2.09,0.52,4.27.5,6.38,1,1.78,0.62,2.6,2.12,3.34,3.68l5.43,1.41-0.33,3.46c-7.18,2.77-14.85,2-21.74.44-19.18-4.23-38.37-7.28-58-6.87C409.39,463.09,405.35,462.81,403.91,457.63Z" transform="translate(181 -281.05)"/><path class="cls-189" d="M488.45,464.55l-3-1.41c-0.89-4.62-4-3.93-7.25-3.07-20.65-5.13-41.45-9.46-62.49-12.62-3.32-.5-6.52,1.85-9.85.3-1.36-1.44-4.51-2.59-.86-4.91l4.56-8.44c1.71,3.56,4.91,4.27,8.1,5q29.55,6.52,59.1,13.05c2.89,0.64,5.46-.26,8.11-1C486.12,455.78,490.08,459.41,488.45,464.55Z" transform="translate(181 -281.05)"/><path class="cls-190" d="M555.66,334.46a44.11,44.11,0,0,1,1.41,18.25c0.88,9.24-3.39,15.1-11.93,18.15L537.38,373c-2.51,2.52-5.53,2.43-8.67,1.67l-17.9-5.41c-3-2.38-7.06-2.74-10-5.25s-4.73-5.21-3.74-9.2c1.22-2.76,3.35-5,4.39-7.87,2.32-6.43,6.84-9.68,13.71-9.58,9.06,2.06,17.69.94,26.29-2.68,4.34-1.83,9.25-3.44,13.89-.09Z" transform="translate(181 -281.05)"/><path class="cls-191" d="M475.4,386.48c1.19-8.83-5-16.14-5.11-24.71,0.62-2,2.25-2.09,3.95-2,8.09,5.8,14.74,12.52,14.64,23.45l-0.57,3Z" transform="translate(181 -281.05)"/><path class="cls-2" d="M498.72,356.38c0.14,3,1.38,5.23,4.72,5.33,5,0.15,6.21,3.78,7.37,7.56-8.85,2.21-15.14,8.44-21.93,13.91-5.65-6.52-9.63-14.06-13.42-21.73-1.2-4.35,2-5.82,5-7.06,5.12-2.11,10.43-3.2,16-1.54C497.79,353.62,498.25,355,498.72,356.38Z" transform="translate(181 -281.05)"/><path class="cls-192" d="M545.14,370.86c3.5-6.36,10.12-10.68,11.93-18.15,2.44,6,8.22,4.22,12.71,5.55,3.35,1,8.43-.1,9.73,3.21,1.59,4.05-3.38,6.27-5.67,9.17-3.31,4.2-7.55,6.33-13,5.57-0.2-4.39-3.7-2.93-6.09-3.42C551.54,372.13,548.34,371.5,545.14,370.86Z" transform="translate(181 -281.05)"/><path class="cls-193" d="M528.71,374.68c2.54-2.37,5.49-2.63,8.67-1.67-0.43,2.2.75,5.5-2.46,6C532.07,379.45,530.23,377,528.71,374.68Z" transform="translate(181 -281.05)"/><path class="cls-194" d="M498.73,471.18c0.19-7.86,7.79-14.68,16.07-14.43,7.19,0.22,15.52,8.32,15.39,15-0.15,8-7.85,15.47-15.66,15.28C505.55,486.77,498.52,479.75,498.73,471.18Z" transform="translate(181 -281.05)"/><path class="cls-195" d="M403.91,457.63c8.74,4.45,18.44,2.94,27.67,4.24,20.6,2.91,41.31,5.08,62,7.56q0,1.93,0,3.85l-0.73-.06h-0.74c-10.07-.55-20.42,1.21-30-3.6-1.46-1.4-3.25-1.47-5.1-1.24-12.75-1.93-25.38-5.25-38.46-3.44-5.89.2-11,3.21-16.51,4.66Z" transform="translate(181 -281.05)"/><path class="cls-196" d="M555.31,334.61c-9.2.28-16.5,7.88-25.81,7-4.85-.44-10.54,3.45-14.57-2.28-1.39-4.51.91-7,4.93-7.7,2.22-.4,4.33-0.36,5.64-2.51a7.73,7.73,0,0,1,3.24-1c4.29,3.19,9.08,1.11,13.66,1.31C546.45,331.79,553.51,326.65,555.31,334.61Z" transform="translate(181 -281.05)"/><path class="cls-197" d="M528.74,328.11l-1.38,1.74a10.94,10.94,0,0,1-9.08,2.36c-6.66-.92-14.31,2.81-19.69-4.16-2.14-2.42-6.15-2.66-7.58-7,5.75,0.31,11.63-2.74,16,3.27,7.17,0.68,14.2.33,20.59-3.08C530.8,323.4,526.73,326.15,528.74,328.11Z" transform="translate(181 -281.05)"/><path class="cls-198" d="M523.49,309.44c2.78-2.36,3.69,1.06,5.48,1.78,4.48,3.08,8.66,1.06,13.77-2.49-5.12,10-9.63,11.08-17.35,5.81Z" transform="translate(181 -281.05)"/><path class="cls-199" d="M570.19,478.17c-3.77-.6-6.2-2.77-6.13-6.6a6,6,0,0,1,6.37-6.28c4.23,0,6.87,2.69,6.62,6.87C576.81,475.92,574,477.84,570.19,478.17Z" transform="translate(181 -281.05)"/><path class="cls-200" d="M541,477.51c2.5,1.14,6.42,1.18,6.91,4.61,0.42,3-2.81,3.78-5.29,4-2.87.21-6-.52-6.51-3.76C535.62,479.33,538.24,478.19,541,477.51Z" transform="translate(181 -281.05)"/><path class="cls-201" d="M211.72,494.59c-1.52-2.56-4.25-4.82-2.87-8.24a6.74,6.74,0,0,1,7.28-4.45,6,6,0,0,1,5.54,5.36c0.53,3.41-.64,6.19-4.13,7.15-1.8.5-3.84,0.16-5.77,0.2Z" transform="translate(181 -281.05)"/><path class="cls-202" d="M248.34,470.13c5.56-6.28,30-13.19,36.82-10.39,5.52,2.26,1.44,4.43-.08,6.62-2.76,2.74-5.46.32-8.19-.1-7.41,3.62-15.7,3.79-23.5,5.85C251.42,472.64,249.68,471.67,248.34,470.13Z" transform="translate(181 -281.05)"/><path class="cls-203" d="M248.34,470.13c9.68-.07,18.62-5.61,28.55-3.87C270,474.67,259,472,250.46,476c-3.35,1.55-7.48,1.44-11.25,2.08C237,469.38,245.8,473.36,248.34,470.13Z" transform="translate(181 -281.05)"/><path class="cls-204" d="M159.66,488.15c3.49,0.57,6.34,2.16,6.63,6,0.31,4.24-2.06,6.86-6.29,7-3.65.12-6.51-1.58-6.68-5.67S155.55,489,159.66,488.15Z" transform="translate(181 -281.05)"/><path class="cls-205" d="M518.22,330.72c3.14,0.76,5.93-2.18,9.13-.87-2.09,2-1.5,10-7.47,3.35l-5,6.15c-5.66,1.72-10.4,4.48-10.61,11.18-0.12,3.92-3.83,3.83-5.6,5.86l-1.85-1.47c-1.49-2.44-4.93-2.07-6.45-4.46-5.31-4.87-1.19-9.86-.17-14.81-1.71-2.6-1-4.31,1.91-5.21a3.15,3.15,0,0,0,1.25.21C501.67,331.94,510,329.41,518.22,330.72Z" transform="translate(181 -281.05)"/><path class="cls-206" d="M518.22,330.72c-8.27-.62-16.56,5-24.81-0.08,0.34-3.64,3.54-1.55,5.18-2.59C504.9,330.61,511.85,328.59,518.22,330.72Z" transform="translate(181 -281.05)"/><path class="cls-54" d="M405,442.85l0.15,3.27c1,2.86-.54,3.64-3,3.75-10.26-16.45-34.86-14.56-40.63,6.55-4.81,5.16-9.66,2.47-14.51.07-6.16-16.27-29.67-18.79-39.06-2.2-6.81-2.37-6.88-8.83-5.91-13.54,1.39-6.69,8.81-3.49,12.76-5.35-4.94-.61-12.67,6-15.29-4.37-1.29-5.06-4.31-11,3.59-13.92,26.93-2.81,53.7-6.84,76.5-8.9-18.95,1.18-41.73,5.64-64.82,7.27-5.47.39-10.77,2.63-16.39,1.55-6.26-11.13-4.46-22.66-1.7-34.25l3.59-3.37,8.12-1.52c8.94-1.53,16.8-8.89,26.75-4.92,5.3,0.34,10.15-1.36,15-3.29a30.7,30.7,0,0,1,19.69-4.86c7.16,2.55,14.34,1.77,21.52.12,11.28-.48,11-0.46,12.17,11.38,1,9.92,2.64,19.78,1.63,29.8-1.95,8.29,1.52,16.59,0,24.88-2.95,2.24-6.55,2.17-9.26,3,2.23,0.85,4.92-2.81,7.9-.61Z" transform="translate(181 -281.05)"/><path class="cls-207" d="M382.65,444c7.21-.06,16,8.26,15.91,15.12-0.05,7.5-7.88,15-15.84,15.16-6.45.14-15.3-8-15.34-14.07C367.33,453.2,375.94,444.06,382.65,444Z" transform="translate(181 -281.05)"/><path class="cls-208" d="M402.23,449.87l3-3.75c7.46-5.17,14.89-1.31,22.29.15,17.39,3.44,34.82,6.68,51.89,11.55a4.16,4.16,0,0,1-.25,5c-4.73-.68-9.6-0.72-14.05-2.8-13.85-2.38-27.53-6.43-41.84-4.2l-19.4-2.14Z" transform="translate(181 -281.05)"/><path class="cls-209" d="M347.09,456.49l14.51-.07q-0.08,3.09-.17,6.17l-8.09.31C350.11,461.87,347.36,460.39,347.09,456.49Z" transform="translate(181 -281.05)"/><path class="cls-210" d="M301.92,418c-3.5,22,12.14,16.81,25.3,15.15l-1.14,2.47c-5.27.61-10.53,1.36-15.81,1.78-5,.4-7.08,2-4.55,7.31,1.38,2.89,1.58,6.34,2.31,9.54l-1.52,5.43c-2.07,1.44-3.75,2.25-4.65-1.29-0.78-3.1-2.12-6.07-3.21-9.09-5.61-12.52-9-26-15.66-38-7-4.64-8.61-9.55-6.14-18.25l-1.37-8.41c7.33,2.06,14.06-2.76,21.28-1.85,2.83,11,1.79,22.15,1.83,33.27C298.8,418.23,301.46,416.3,301.92,418Z" transform="translate(181 -281.05)"/><path class="cls-211" d="M340.15,473c-4.71,5.28-11,7.08-17.31,5.21-8.85-2.64-12.44-9.52-11.2-18.75,1.23-7.49,6.48-10.36,13.23-11.49,7.26-1.22,13.86,1.37,17.43,7S345.95,467.59,340.15,473Z" transform="translate(181 -281.05)"/><path class="cls-212" d="M490.24,335.64c2,1.43,3.35,3.31,1.37,5.46-3.42,3.7-.63,5.16,2.09,6.79-8.43,5.52-18.26,6.31-27.79,8-2.17.38-4.19-1-5.49-3,4.81-5.91,12.94-4.05,18.73-8.05,3.53-2.44,7.11-4.27,8-8.87Z" transform="translate(181 -281.05)"/><path class="cls-2" d="M369.86,364.81c-5.58,5.61-12.45,6-19.69,4.86-0.45-5.31-4.47-8.83-6.7-13.25,12.65-4.81,25.36-9.46,37.89-14.56,3-1.22,6.66-1.17,9-3.94,3.5,3.68.59,6.24-1.46,9.1C383.74,354.23,375.31,357.92,369.86,364.81Z" transform="translate(181 -281.05)"/><path class="cls-213" d="M335.23,373a57.36,57.36,0,0,1-26.75,4.92c6.87-6,14.87-9.94,23.25-13.26Z" transform="translate(181 -281.05)"/><path class="cls-214" d="M276.85,393L283,411.3c-3.73,2.15-7.48,1.93-11.24.06-8.64-3.62-10-8-4.91-16.41Z" transform="translate(181 -281.05)"/><path class="cls-215" d="M241.42,416.15c2.94-4.5,7.9-8,7-14.4l5-2.5c9.76,1.27,16.68,8.7,17,18.25-1.09,3.76.1,10.14-5.32,9.85-7.08-.38-15.54,4.91-21.31-3.56,0.32-4,3.19-3.86,6-3.46a21.89,21.89,0,0,0,7.36.23c2-.4,3.83-1.27,3.65-3.67s-2.51-3.46-4.2-4.75c-1.86-1.43-2.93-.13-3.81,1.45-1.77,3.19-3.77,6.11-7.82,6.62C242.24,420.15,241.69,418.27,241.42,416.15Z" transform="translate(181 -281.05)"/><path class="cls-216" d="M270,416.09c-2.67-8.44-10.89-11.4-16.61-16.84l13.48-4.31c-0.64,6.15-.17,12,4.91,16.41l0,4.78A1.05,1.05,0,0,1,270,416.09Z" transform="translate(181 -281.05)"/><path class="cls-217" d="M298,449.87c-0.08,2.07-1.35,3-3.23,3-16,.36-30.57,7.2-46,10-2.37.42-3.82,0.89-4.32,3.83-0.65,3.81-3.91,3.65-8,3.41,2.63-4.19,4.41-7.85,3.19-12.09,15.14,0.68,28.85-6.14,43.46-8.25,4.65-.67,9.41-1.19,6-9.75C293.53,444.09,294,448.56,298,449.87Z" transform="translate(181 -281.05)"/><path class="cls-218" d="M270,416.09l1.8,0c0,4.58,1.31,11.18-4,12.13-8,1.41-16.76,3.9-24.46-1.65-1.95-1.4-3.36-3.56-5-5.37,1.3-1.55.16-4.61,3.16-5.1l3.16,3.65a1,1,0,0,1,.83,1q-0.08.71-.31,0.71c0.63,7.35,6.39,4.68,10.17,4.75,4.28,0.07,9.74,2.15,12-4.18C268.05,420,269.08,418.08,270,416.09Z" transform="translate(181 -281.05)"/><path class="cls-219" d="M460.42,352.91c11.39,0.26,21.64-7,33.28-5l3.17,7c-7.4,1.32-15.35.85-21.41,6.54l-5.17.32c-5.39-2-9.58,1.64-14.25,3-2.73.82-6.35,3.4-8-.26-1.32-2.92,1.83-5.59,4.36-7.31A83.26,83.26,0,0,1,460.42,352.91Z" transform="translate(181 -281.05)"/><path class="cls-220" d="M444.94,394.83a73.59,73.59,0,0,1-7.27-1.42,5.86,5.86,0,0,1-4.46-5.39c-0.24-3,1.61-4.5,4.1-5.52a35.81,35.81,0,0,1,15.36-2.82c3.05,0.15,6.34.54,7,4.46,0.63,3.7-1,6.47-4.26,8.18A22.62,22.62,0,0,1,444.94,394.83Z" transform="translate(181 -281.05)"/><path class="cls-221" d="M403.81,433.35l-17.42,3.06c5.6-4.69,12.51-3.77,18.78-5.43Z" transform="translate(181 -281.05)"/><path class="cls-222" d="M423.23,455.83c1-4,4.27-3,6.77-2.84,9.11,0.51,18.2,1.45,27.31,2,3.73,0.21,6.21,1.78,7.76,5.06-10,4-19.15-2.59-28.9-2.42C431.87,457.68,427.55,456.46,423.23,455.83Z" transform="translate(181 -281.05)"/><path class="cls-223" d="M479.13,462.82q0.12-2.5.24-5c4.37-.91,6.67.57,6.13,5.31Z" transform="translate(181 -281.05)"/><path class="cls-224" d="M543.32,360.7a5.88,5.88,0,0,1-5.51,5.24c-2.41.32-4.65-.64-5.07-3.24-0.63-4,2.47-4.49,5.31-4.71C540.18,357.82,542.68,357.46,543.32,360.7Z" transform="translate(181 -281.05)"/><path class="cls-225" d="M514.38,478.21c-3.68-.53-6.57-2.15-6.53-6.19s2.55-6,6.49-6,6.36,1.86,6.29,6S518.32,478.06,514.38,478.21Z" transform="translate(181 -281.05)"/><path class="cls-226" d="M301.92,418c-1,.21-2.05.45-3.09,0.6s-2.53,1.53-3.09-.3c-0.13-.44,1.84-1.51,2.85-2.3,17.45-.47,34.53-4.22,51.85-5.78,12.33-1.11,24.63-2.7,37-3.21C359.1,411.84,330.6,415.6,301.92,418Z" transform="translate(181 -281.05)"/><path class="cls-227" d="M387.5,427c-16,1.19-31.49,7-47.78,5.24C355.56,429.68,371.36,426.7,387.5,427Z" transform="translate(181 -281.05)"/><path class="cls-228" d="M322.3,423.78L349,419.71c-8.44,4.35-17.56,5-26.58,6.13Z" transform="translate(181 -281.05)"/><path class="cls-229" d="M346.38,440.88c7.46-3.06,15.11-3.56,22.78-4C361.81,440.08,354.07,440.81,346.38,440.88Z" transform="translate(181 -281.05)"/><path class="cls-230" d="M372.64,389.89c-7,3.47-14.3,3.53-21.59,4C357.87,390.11,365.5,391,372.64,389.89Z" transform="translate(181 -281.05)"/><path class="cls-125" d="M358,382.69c-8.28,3.61-14.71,3.75-21.13,4C342.84,383.49,349.28,383.39,358,382.69Z" transform="translate(181 -281.05)"/><path class="cls-231" d="M400.1,420.25c-5.76,1.22-9,3.85-13.91,1.79C390.49,420.74,393.8,419.26,400.1,420.25Z" transform="translate(181 -281.05)"/><path class="cls-232" d="M383,453c3.68,0.23,6.44,2.4,6.67,5.87,0.26,3.91-2.29,6.76-6.52,6.79-3.78,0-6.19-2.09-6.26-6.05S379.34,453.8,383,453Z" transform="translate(181 -281.05)"/><path class="cls-233" d="M326.86,457.68c4.47,0.12,6.66,2,6.54,5.66-0.13,3.83-2.42,6.36-6.35,6.2-3.7-.14-6.54-2.36-6.35-6.28S323.86,457.72,326.86,457.68Z" transform="translate(181 -281.05)"/><path class="cls-234" d="M245.1,421.5l-0.51-1.71c2.21-3.73,5.36-6.82,5.9-11.63,0.39-3.48,2.39-5.91,5.89-1.7a35.51,35.51,0,0,0,5.51,4.94c2.4,1.89,5.49,3.56,4,7.23a9.09,9.09,0,0,1-7.46,5.88C253.63,425.16,249.06,424.63,245.1,421.5Z" transform="translate(181 -281.05)"/><path class="cls-4" d="M70,547" transform="translate(181 -281.05)"/><path class="cls-1" d="M-181,403H-55" transform="translate(181 -281.05)"/><circle class="cls-235" cx="701.85" cy="68.92" r="1.97"/><circle class="cls-235" cx="727.85" cy="61.92" r="1.97"/><path class="cls-236" d="M543.59,358.81c0.7,1.39-1.83,5.46-5.28,5.94s-7-2.77-6.68-4.29c0.21-1.06,2.28-1.36,5.66-1.84S543.07,357.78,543.59,358.81Z" transform="translate(181 -281.05)"/><path class="cls-237" d="M517.37,341.92a2.82,2.82,0,0,1,1.68-1.36c0.59-.2,1.59-0.46,2,0.14s1.57,0,1.08-.63c-1.51-2-4.89-.66-5.88,1.23a0.63,0.63,0,0,0,1.08.63h0Z" transform="translate(181 -281.05)"/><path class="cls-237" d="M543.08,334.89a2.21,2.21,0,0,1,3.36-.33,0.63,0.63,0,0,0,.88-0.88,3.49,3.49,0,0,0-5.32.58c-0.47.66,0.62,1.28,1.08,0.63h0Z" transform="translate(181 -281.05)"/><ellipse class="cls-238" cx="520.85" cy="356.38" rx="3.48" ry="1.65" transform="translate(109.63 -142.77) rotate(-14.16)"/><ellipse class="cls-238" cx="551.77" cy="347.25" rx="3.48" ry="1.65" transform="translate(112.81 -135.49) rotate(-14.16)"/></svg>