<svg id="Слой_1" data-name="Слой 1" xmlns="http://www.w3.org/2000/svg" viewBox="0 0 802.73 213.04"><defs><style>.cls-1{fill:#8b4840;}.cls-2{fill:#d36758;}.cls-3{fill:#121717;}.cls-4{fill:#a45045;}.cls-5{fill:#a54f45;}.cls-6{fill:#aa5146;}.cls-7{fill:#a75246;}.cls-8{fill:#a95247;}.cls-9{fill:#7a4f47;}.cls-10{fill:#a85246;}.cls-11{fill:#ae564d;}.cls-12{fill:#b25247;}.cls-13{fill:#ac544a;}.cls-14{fill:#c6665d;}.cls-15{fill:#1d3435;}.cls-16{fill:#e0ba7c;}.cls-17{fill:#1e3334;}.cls-18{fill:#e0ba7d;}.cls-19{fill:#bda676;}.cls-20{fill:#d3bb89;}.cls-21{fill:#2d4544;}.cls-22{fill:#2c4643;}.cls-23{fill:#35463f;}.cls-24{fill:#b36f5c;}.cls-25{fill:#e3b180;}.cls-26{fill:#2d3a2c;}.cls-27{fill:#dfb086;}.cls-28{fill:#bc5847;}.cls-29{fill:#a44f44;}.cls-30{fill:#a75045;}.cls-31{fill:#9d4e44;}.cls-32{fill:#b95547;}.cls-33{fill:#9f4f44;}.cls-34{fill:#9f4e44;}.cls-35{fill:#a24f45;}.cls-36{fill:#a95045;}.cls-37{fill:#aa5045;}.cls-38{fill:#af5346;}.cls-39{fill:#b85347;}.cls-40{fill:#a55045;}.cls-41{fill:#b15046;}.cls-42{fill:#af5246;}.cls-43{fill:#ac5046;}.cls-44{fill:#af5446;}.cls-45{fill:#ab5146;}.cls-46{fill:#594332;}.cls-47{fill:#1f393a;}.cls-48{fill:#c66858;}.cls-49{fill:#cf695a;}.cls-50{fill:#c86a5a;}.cls-51{fill:#ad645b;}.cls-52{fill:#ada37a;}.cls-53{fill:#b8a778;}.cls-54{fill:#b5a884;}.cls-55{fill:#b6aa80;}.cls-56{fill:#d4b78b;}.cls-57{fill:#b8a880;}.cls-58{fill:#915f59;}.cls-59{fill:#26322c;}.cls-60{fill:#233029;}.cls-61{fill:#131919;}.cls-62{fill:#595740;}.cls-63{fill:#52492f;}.cls-64{fill:#4e4930;}.cls-65{fill:#514a30;}.cls-66{fill:#494a32;}.cls-67{fill:#2b2c1e;}.cls-68{fill:#d9b582;}.cls-69{fill:#1e3434;}.cls-70{fill:#1d3334;}.cls-71{fill:#ac5647;}.cls-72{fill:#af5547;}.cls-73{fill:#dbb97d;}.cls-74{fill:#efdbc0;}.cls-75{fill:#975652;}.cls-76{fill:#4f7d6f;}.cls-77{fill:#c5bc98;}.cls-78{fill:#b25347;}.cls-79{fill:#a95649;}.cls-80{fill:#7b5151;}.cls-81{fill:#ceb282;}.cls-82{fill:#825a49;}.cls-83{fill:#509398;}.cls-84{fill:#cfb380;}.cls-85{fill:#334c41;}.cls-86{fill:#92574f;}.cls-87{fill:#a8555c;}.cls-88{fill:#171916;}.cls-89{fill:#d9c9af;}.cls-90{fill:#658767;}.cls-91{fill:#a8c7b3;}.cls-92{fill:#beb8a0;}.cls-93{fill:#d9bb9e;}.cls-94{fill:#a95848;}.cls-95{fill:#80c3d3;}</style></defs><title>miningbgFull</title><rect class="cls-1" y="188.67" width="682.04" height="24.37"/><rect class="cls-2" x="599.03" width="203.7" height="206.55"/><rect class="cls-2" width="199.95" height="208.79"/><path class="cls-1" d="M273.86,342.87c36.51,0,73,.2,109.54.23,16.85,0,33.51-1,50.31-1.86,14.66-.79,29.39-1.21,44,0.17h148c2,0,4,0,6-.06a5.11,5.11,0,0,0,3.56-1.18V280.53c-1.58-1.5-3.84-1.22-5.91-1.22q-40.27-.06-80.55,0c-2.55,0-5.11.49-7.66,0a42,42,0,0,1-4.62.53c-21-.05-42.08,0-63.13-0.05l-1.8-.1c-5.87-.49-11.8-2.37-17.53.45a2.1,2.1,0,0,1-1,.09c-4-.26-8,0.51-12,0.12-3.61-.36-7.39.19-10.83-1.13a6.16,6.16,0,0,0-2.53,0,3.37,3.37,0,0,0-1,.1c-4-.12-6.1,1.82-8,4.12-1.25,1.5-2.59,3.14-4.83,3.79-3.77,1.1-4.11,3.31-3.66,5.82a16.59,16.59,0,0,1,.3,6.1,9.07,9.07,0,0,1-1.11,2.77,3.62,3.62,0,0,1-3.08,2.8c-2.86.59-3.69,2.62-5.12,4.23a3.1,3.1,0,0,1-1.23,1.19c-5.32,1.84-8.23,5.69-12.3,8.58a9,9,0,0,0-1.85,2.12,1.46,1.46,0,0,1-1.93.5c-4.46-2-9.22-.05-13.81-0.89,0.06-1.67-.41-3.25-3.68-2.83a3.4,3.4,0,0,0-.92.19,7.38,7.38,0,0,0-3.32,2.79c-1.13,2.11-4.3,2-6.2,3.22a0.92,0.92,0,0,1-1.14-.32c-1.33-1.75-3.48-1.93-5.82-1.73-0.06-.77.57-1.42,0.05-2.08-3.1-1.59-6.11-3.36-10.25-2a4.66,4.66,0,0,1-2.94.13c-4-1.47-7.93-.92-12-0.26a43.7,43.7,0,0,1-12.53,0,5,5,0,0,1-3.42-2.85,2.9,2.9,0,0,0-.64-0.58c-3.65-2.19-8.81-1.94-12.28-4.44a0.37,0.37,0,0,1-.11-0.1,0.35,0.35,0,0,1-.2.06c-2.57.39-3.54-1-5-2.2-2-1.56-2.9-4.15-6.39-4.48-8,.67-13.49-2.48-18.17-6.9-5.15-3.43-8.89-7.84-13.72-11.49a14,14,0,0,0-7.44-3.13c-5.41-.49-10.85-0.8-16.18-1.7a4,4,0,0,0-3.58.84V343Q249,342.86,273.86,342.87Z" transform="translate(-27.98 -133.29)"/><path class="cls-2" d="M427.83,280.61c-4.45-.15-6.43,3-8.55,6.16-1.58,2.31-3.37,4.36-6.26,5.29-2.35.75-1.78,3-1.37,4.59a16.16,16.16,0,0,1-.23,9.2c-1.13,2.13-2.27.86-3-.18-1.5-2-3.16-2-5.29-1.14a81.38,81.38,0,0,1-7.78,3.14,3.87,3.87,0,0,0-3,4.28c0,0.22,0,.45,0,0.67,0.28,1.89-1.05,4.24,1.11,5.59,2.33,1.46,3.95-.59,5.69-1.66,1-.6,2-1.39,3-0.53s0.45,1.8,0,2.71c-0.57,1.44-1.15,2.84-3,3a2.38,2.38,0,0,0-1.44.76c-2.79,3.18-5.54,6.41-8.3,9.62-2.92,2.56-6.33,2.56-9.77,1.63-2.63-.71-5.09-1.89-5-5.29,0-1.44-.56-1.63-1.88-1.29a11,11,0,0,0-6.2,3.63l0.05,0c-2.2.45-4.31,1.67-6.65,1-1.16-.34-1.51.54-2.18,1.06-2.1,1.63-4.7,1.58-7.15,1.88-1.13.14-1.6-1-2.12-1.84-3.05-1.7-6.06-3.64-9.78-1.94-2.38,1.08-4.47-.62-6.75-0.77-4.41-.29-8.49,1.89-12.83,1.33-3-.39-6.22.37-9-1.33-0.9-.3,1.36-1-0.24-1.43a8.63,8.63,0,0,1-3-2c-2.52-1.59-4.88-3.48-8.24-2.75-1.45.31-2.16-1-2.55-2.18-0.3-.95-0.76-2.05-1.72-1.08-2.22,2.23-3.05.18-4.14-1.1-2.3-2.72-4.55-5.49-6.81-8.24a23.06,23.06,0,0,0-8.15-7.52c-2.49-1.35-4.75-1.92-7.25-.58a2.89,2.89,0,0,1-4.11-.78,105.9,105.9,0,0,1-10.94-12.22,17.68,17.68,0,0,0-13.49-7c-5.11-.36-10.18-1.38-15.26-2.11q0-72.55-.06-145.1c0-2.3.45-2.75,2.75-2.75q202.87,0.11,405.73,0c2.3,0,2.76.45,2.75,2.75q-0.13,72.55-.06,145.1-42.68,0-85.36,0c-3,0-6,.52-9-0.39-0.13-1.23.83-1.68,1.58-2.35,3.51-3.14,5.11-6.93,3.7-11.65-1.29-4.32-4.39-6.55-8.64-7.4a2.93,2.93,0,0,1-2.06-.93c-0.91-1.33-2.29-1.14-3.61-1.14-4.76,0-9.52,0-14.28,0-1.74,0-3.41-.06-3.73-2.32,0.44-2.26,2.28-2.18,3.93-2.24,4.47-.19,8.94,0,13.41-0.1,4-.09,5-0.94,5-5,0.07-11.17,0-22.35,0-33.52,0-7.38-.58-7.92-8.09-7.91-0.39,0-.79,0-1.18-0.06a64.09,64.09,0,0,0-24.68.54,2.59,2.59,0,0,1-1.76-.46c-1.29-1.13-1-2.66-.95-4.07,0.09-8.82-.39-17.62-0.33-26.44,0-5.78-1.4-7.13-7.12-7.16-9.15,0-18.3.1-27.45-.06-4.48-.08-8.66.47-12.36,3.17a4.37,4.37,0,0,1-4-1c-2.33-1.7-4.46-3.64-6.63-5.51-1.56-1.35-3.27-2.06-5.16-1s-3.94-.34-5.85.33c-6.39-2.51-13.06-4.14-19.55-6.34a20.46,20.46,0,0,1-9.16-2.35c-1.78-.89-2.66-2.64-3.88-4.07s-2.39-1.57-4.13-.9c-10,3.84-18.72,9.73-26.66,16.81-2.54,2.27-3.84,5.63-6.36,8-5.3,4.23-10.85,8.17-15.79,12.85-3.5,4.43-8.2,7.49-12.51,11a16.22,16.22,0,0,1-4.66,1.52c-1.74.14-3.38,1.64-2.66,3,2,3.85.26,7-.94,10.42a2.86,2.86,0,0,1-2.31,2.19c-5.62.6-8.24,4.65-10.11,9.17-2.87,6.94-2,13.89,1.26,20.48,5.21,10.64,14.36,16,25.57,19,0-1.77-1.11-2.54-1.65-3.59-0.65-1.29-1.06-2.69-.28-3.84,1.45-2.14,1-4.25.42-6.44-1.87-6.8-1.63-13.73-1-20.63s5.19-11.48,10.06-15.69c5.93-5.12,11.62-10.49,17.47-15.68,9.36-8.32,18.48-16.9,27.84-25.21,2-1.79,4-2,6.48-1.21q20.19,6.3,40.29,12.87c1.76,0.57,3.69,1.05,5,2.61a40.86,40.86,0,0,0,2.17,4.88c-0.49,7-3.29,13.38-4.91,20.08-2.63,10.84-5.72,21.56-8.55,32.34a74.46,74.46,0,0,0,0,8.57,5.28,5.28,0,0,1-2,4.81c-7.77,2.65-9.41,10.16-7.48,14.81a10,10,0,0,0,2.9,4C426.46,278.65,427.55,279.29,427.83,280.61Z" transform="translate(-27.98 -133.29)"/><path class="cls-3" d="M427.83,280.61a11.08,11.08,0,0,1-7-9.78,11.25,11.25,0,0,1,5.52-11.1c0.85-.54,1.79-0.93,2.68-1.39a10.15,10.15,0,0,1,5.15-1.06c5.23,0,10.46.07,15.69-.15,9.26,0.35,18.53.09,27.79,0.15,18.36,0.12,36.73-.22,55.09.07a9.19,9.19,0,0,1,3.84.52c9.56,2.07,13.64,9.24,9.91,17.4-1.17,2.57-3.46,4-5.64,5.49a27.17,27.17,0,0,1-7.29.5q-28.81,0-57.61,0c-1.11,0-2.23-.1-3.34-0.15a1.94,1.94,0,0,1-.27-2.3c0.84-1.17,2.11-1.09,3.34-1.12,12.85-.31,25.7-0.16,38.56-0.08,7.37,0,14.75,0,22.12-.22a7.19,7.19,0,0,0,7.12-6.71,7.32,7.32,0,0,0-5.44-8.16,17.24,17.24,0,0,0-5.31-.61q-49,0-97.94,0a19.85,19.85,0,0,0-3.35.17,7.89,7.89,0,0,0-5.15,12.61,21.5,21.5,0,0,1,2.55,3.51,2.2,2.2,0,0,1-.71,2.2A0.35,0.35,0,0,0,427.83,280.61Z" transform="translate(-27.98 -133.29)"/><path class="cls-4" d="M471.32,281.17c-1.66-.14-3.32-0.36-5-0.42-3.65-.12-7.47-1.88-10.81,1.28-0.57.54-1.92,0.36-2.91,0.36-6.55,0-13.1-.13-19.64-0.05a3.73,3.73,0,0,1-3.81-2.6c1.56-7.51,9.77-12.91,16.38-9.24a9.92,9.92,0,0,0,3.86,1,2.56,2.56,0,0,1,1.29.89c1.84,3.47,3,3.8,5.68,1.2,2.33-2.28,4.94-1.82,7.46-1,2.75,0.94,4.75,3.26,7.24,4.75C472.53,278.23,472.31,279.81,471.32,281.17Z" transform="translate(-27.98 -133.29)"/><path class="cls-5" d="M402.14,318.74c0.09-1.84-.21-2.69-2-1.07s-3.77,3.69-7,2.66c-1.9-.6-2.57-1.47-2.63-3.22a8.57,8.57,0,0,0,0-1c-1-6.41,1.39-10.42,8.06-11.46a8.67,8.67,0,0,0,1.85-.77c5.68-2.37,5.68-2.36,10.11,2a1.82,1.82,0,0,0,.95-0.07,4.49,4.49,0,0,1-1.12,3.54,12,12,0,0,0-3.43,4C404.73,314.7,403.52,316.8,402.14,318.74Z" transform="translate(-27.98 -133.29)"/><path class="cls-6" d="M263.83,302.44a2.53,2.53,0,0,0,3-.32c2.76-1.82,5.7-2.24,8.62,0a22.3,22.3,0,0,0,4.21,2.65,5.76,5.76,0,0,1,3.7,6.6c-5.32.72-10.61,1.36-14.24-4C267.73,305.29,264.68,305,263.83,302.44Z" transform="translate(-27.98 -133.29)"/><path class="cls-7" d="M348.41,332.86a3.63,3.63,0,0,0,3.8.09,5.78,5.78,0,0,1,4.34-.57c-0.43-1.23-1-2.28.39-3.21s1.93,0,2.9.55c2.06,1.12,4.4,1,6.67,1.05a9.9,9.9,0,0,0-2.51,2.87c-2.16,4.1-6.55,5.3-10.51,6.9-1,.42-2-0.27-1.05-1.42,1.95-2.45-.07-2.6-1.6-2.8s-3.35-.09-5-0.15c-0.67,0-1.51-.09-1.6-0.88s0.72-1,1.4-1.05C346.73,334.14,347.9,334.18,348.41,332.86Z" transform="translate(-27.98 -133.29)"/><path class="cls-7" d="M366.46,330.8c0.61-1.4.37-3.85,1.73-4.1,2.77-.51,5.16-2.12,7.9-2.36,1.37-.12,1.9.71,1.08,2.22-1.86,3.44.22,6.72,4.34,7,2.73,0.18,5.27-.71,7.84-1.44-1.1,1.07-2.16,2.17-3.3,3.19-0.8.72-1.87,1.07-2.72,0.27-1.95-1.83-4-1.44-6.2-.67a2.71,2.71,0,0,1-1.91,0,3.61,3.61,0,0,0-4.78.77c-1.34,1.35-2.92.53-3.79-.53s0.65-1.53,1.33-2.08a1.37,1.37,0,0,0,.7-1.67C368.25,330.26,367.34,330.57,366.46,330.8Z" transform="translate(-27.98 -133.29)"/><path class="cls-8" d="M278.36,331c-0.26-1.55-.9-3,0.73-3.81s2.47,0.4,3.42,1.39c1.22,1.29,2.37.75,3.51-.2,0.79-.66,1.65-2,2.69-0.42,0.89,1.34.19,2.31-1.15,2.9-1.79.8-2.09,2.43-2.37,4.13-0.38,2.27-2.38,2.52-3.44,1.4C280.28,334.86,276.88,334.14,278.36,331Z" transform="translate(-27.98 -133.29)"/><path class="cls-9" d="M471.32,281.17c0.59-3.05-2.26-3.48-3.8-4.82-4.72-4.1-6.4-4.15-11.54-.7-2.67,1.79-3.93,1.27-6.14-2.54,4.24-.69,8.26-3.33,12.55-2.59,4,0.69,7.34,3.43,10.23,6.39a2,2,0,0,1,.12,2.48l-0.08,1.76Z" transform="translate(-27.98 -133.29)"/><path class="cls-10" d="M342.9,338.74c-3.27-.2-6.55-0.32-9.81-0.63-1.93-.19-1.06-2.5-2.23-3.4-0.34-.26,0-0.85.51-1,1.12-.36,1.91.26,2.66,1a3.85,3.85,0,0,0,3.14.84C339.58,335.36,341.39,336.49,342.9,338.74Z" transform="translate(-27.98 -133.29)"/><path class="cls-9" d="M449,272.38c-1.42.61-2.61-.13-3.8-0.71a9.84,9.84,0,0,0-12.66,3.14l-3.42,4.93c-0.2.39-.29,1-1,0.69q0-1,0-2a3,3,0,0,1,0-2.86c4-6.06,11.19-11,19.17-6C448.45,270.27,449.57,270.81,449,272.38Z" transform="translate(-27.98 -133.29)"/><path class="cls-11" d="M286.28,319a6.24,6.24,0,0,1-4.16,3.42,1.16,1.16,0,0,1-1.34-1.49c0.47-2.1,2.3-2.55,4.06-3A1,1,0,0,1,286.28,319Z" transform="translate(-27.98 -133.29)"/><path class="cls-12" d="M306.8,326.68c1.88,0.32,3.78,2.55,5.58-.6,0.6-1.06,1.9.53,2.44,1.4,0.69,1.11-.29,1.26-1.09,1.36a9.57,9.57,0,0,0-3.72,1.32A9.26,9.26,0,0,1,306.8,326.68Z" transform="translate(-27.98 -133.29)"/><path class="cls-13" d="M290.9,334.18c-0.51-.13-2.06.16-1.55-1.08a5,5,0,0,1,3.61-2.71,1.07,1.07,0,0,1,1.44,1.29C294.16,333.56,293.05,334.41,290.9,334.18Z" transform="translate(-27.98 -133.29)"/><path class="cls-14" d="M406.88,313.44a1.26,1.26,0,0,1-.32-0.1c-1.38-.87-0.36-1.69.3-1.95,1.27-.51,1.16-3.37,3.44-2C409.85,311.33,409,312.94,406.88,313.44Z" transform="translate(-27.98 -133.29)"/><path class="cls-15" d="M431,162.88c2.07,0.24,4,.59,6-0.78,1.71-1.17,3.41.09,4.83,1.22,3.13,2.48,6.24,5,9.36,7.49a2,2,0,0,1,.64,2.41c-1.84,5.17-2.91,10.57-4.61,15.78a3.18,3.18,0,0,1-1.35,1.85c-1.48.77-2.32-.23-3.17-1.17-4.6-2.95-10-3.9-15-5.6-10.06-3.38-20.23-6.4-30.32-9.71a4.6,4.6,0,0,0-5.1,1.19Q368,197.66,343.64,219.69a18.33,18.33,0,0,0-6,12.38c-0.69,7.65-.4,15.18,2.3,22.48,0.31,0.84.7,1.79-.28,2.42-2.83,1.79-1.64,3.51-.17,5.51,1.09,1.49,2.93,2.52,3.21,4.85-3.74.63-7.09-1-10.19-2.23-11.24-4.59-20-12-23-24.3-2.19-8.81-.65-16.85,6.29-23.32,1.51-1.4,3-2.71,5.32-2,1.37,0.39,1.61-.81,2.16-1.58,1.75-1.11,3.16-.08,4.6.74a9.48,9.48,0,0,0,4.36.82c1.44-.23,2.27-1.27,3.08-2.33,9.22-11.09,17.86-22.65,27.65-33.25a1.94,1.94,0,0,0-.3-2c0-1.93-2-2.24-2.75-3.55,1.48-1.68,3.92-2.69,3.69-5.56a2.49,2.49,0,0,1,1.09-1.19c8-6.42,15.65-13.19,25.62-16.69,7.32-2.57,7.47-2.84,11.81,3.77,0.22,1,.91,2,0.27,3.09-3,4.91-3,5.08,2.84,5.93,7.61,1.11,15.13,2.71,22.71,4C430.87,167.26,430.48,164.78,431,162.88Z" transform="translate(-27.98 -133.29)"/><path class="cls-16" d="M445.1,190.43c1.12-3.94,2.38-7.85,3.3-11.83,0.63-2.73,1.89-5.19,2.8-7.79a15.17,15.17,0,0,1,11-3.95c10.39,0.14,20.78,0,31.17.07,6.08,0,7.42,1.35,7.49,7.56,0.12,10.39.12,20.78,0.17,31.17a5.8,5.8,0,0,1,.82,3.52q0,16.89,0,33.78a5.17,5.17,0,0,1-.55,2.92c-1,1.18-2.38,1.18-3.71,1.19q-31.39.21-62.78,0c-1.41,0-3,0-3.72-1.66-0.56-3.69,1.27-6.92,2.14-10.3,3.21-12.48,6.7-24.9,10-37.35,0.4-1.5.6-3,.9-4.58A3.67,3.67,0,0,1,445.1,190.43Z" transform="translate(-27.98 -133.29)"/><path class="cls-17" d="M431.12,245.4l69.61,0a3.91,3.91,0,0,1,2.35-.86c6-.09,12,0.06,18.07-0.07,4.54-.09,5.56-1.06,5.56-5.57,0-9.78-.09-19.57,0-29.35,0-1.51-.66-3.46,1.4-4.41,5.78-2.69,9.72-.43,9.75,5.67,0.07,13.5,0,27,.15,40.5,0,2.42-.87,3.13-3.1,3.11-5.8-.07-11.6,0-17.41,0-1.2,0-2.47-.27-3.57.5a2,2,0,0,1-2.27.71,9.39,9.39,0,0,0-3.65-.38q-23.33,0-46.67,0a18.39,18.39,0,0,0-4,.41c-7.28-.89-14.59-0.16-21.89-0.41-1.4,0-2.91.39-4.14-.69A11.92,11.92,0,0,1,431.12,245.4Z" transform="translate(-27.98 -133.29)"/><path class="cls-18" d="M502.18,205.74a1.52,1.52,0,0,1,1.7-1.64c7.91,0,15.84-.44,23.74.39-0.41.52-.77,1.27-1.5,1.21-3.42-.28-3.83,2.26-4,4.55-0.25,4-.18,8-0.09,12a4.58,4.58,0,0,0,2.63,4.33c2.11,1,2.49,2.55,2.43,4.62-0.1,3.34-.06,6.69,0,10,0,2.46-.87,3.67-3.55,3.61-5.91-.13-11.83-0.09-17.74,0-2,0-3.07-.64-3.46-2.7a28.12,28.12,0,0,1-.45-4.64c-0.16-7.13.38-14.28-.31-21.4C501.82,212.68,500.93,209.15,502.18,205.74Z" transform="translate(-27.98 -133.29)"/><path class="cls-19" d="M512.25,254.84l1.66,0.1c1.23,1.26,2.84,1.09,4.37,1.1,5,0,10,0,15,0,1.44,0,3-.16,3.39,1.82-7.71.09-15.43,0.25-23.14,0.25q-32.23,0-64.46-.1c-4.69-.14-9.38,0-14.07-0.09-1,0-2.64.67-2.74-.94-0.13-1.92,1.76-1.76,3-1.73,7.56,0.15,15.13-.22,22.69.21,9.21-.41,18.42-0.12,27.63-0.17,7.64,0,15.27,0,22.91,0C509.68,255.31,511.06,255.62,512.25,254.84Z" transform="translate(-27.98 -133.29)"/><path class="cls-20" d="M502.45,216.7a4.68,4.68,0,0,1,.71,3.15c-0.16,6.24-.32,12.5-0.19,18.74,0.11,5.24.67,5.61,5.9,5.61,4.58,0,9.16-.07,13.73,0,2.74,0.06,3.87-1.21,3.83-3.83,0-2.23-.09-4.47,0-6.7,0.15-3.13,0-5.85-4.1-6.3a2.19,2.19,0,0,1-1.81-2.48,143,143,0,0,0,.12-17c-0.15-2.18,1.92-2.79,3.67-3.2a20.45,20.45,0,0,1,3.3-.25l0.46,0.67c-0.65,11.5-.14,23-0.27,34.51-0.07,5.76,0,5.75-5.59,5.76l-19.45,0c-1.16-.66-1.22-1.76-1.22-2.91,0-7.83,0-15.65,0-23.48C501.58,218.19,501.5,217.24,502.45,216.7Z" transform="translate(-27.98 -133.29)"/><path class="cls-21" d="M359.9,174.26a9.59,9.59,0,0,0,2-.35c1.14-.45,2.21-0.67,3,0.51,1,1.5-1.08,1.33-1.31,2.2a6.16,6.16,0,0,1-.4.92,4.64,4.64,0,0,1-1.11,3.2c-3.52,3.53-7.72,6.23-11.5,9.44-1.42,1.2-2.86,1.63-4.53.58a2.57,2.57,0,0,1-1.52-3c1.42-3.26,4.57-4.73,7.1-6.84C354.31,178.68,357.12,176.49,359.9,174.26Z" transform="translate(-27.98 -133.29)"/><path class="cls-22" d="M431,162.88c3,2.73,2.43,4-2.72,6a3.82,3.82,0,0,0-1-1.24c-1-.58-2.09-0.22-3.08-0.61-4.1-.94-8.26-1.63-12.11-3.44-1.43-.67-2.9-1.26-2.89-3.21a3.24,3.24,0,0,1,1.67-3.44c5.93,0.72,11.42,3.09,17.11,4.69A24.67,24.67,0,0,1,431,162.88Z" transform="translate(-27.98 -133.29)"/><path class="cls-23" d="M336.19,214c-0.53,1.65-2.11,2.22-3.28,3.21a24.71,24.71,0,0,1-3.78-4.67c-1.4,1.16-1.22,2.94-2.19,4.07-1.6-.43-1.66-2.91-3.67-2.79,0.73-3.35,2.85-6.6.68-10.19-0.18-.3.38-1.23,0.8-1.7a11.93,11.93,0,0,1,7.39-3.68,3.18,3.18,0,0,1,2.87,1.86,2.59,2.59,0,0,1-.19,2.82c-1.88,2.29-1.3,4.53,0,6.71A10.74,10.74,0,0,1,336.19,214Z" transform="translate(-27.98 -133.29)"/><path class="cls-24" d="M458,256.17H433l0,1.15c5.29,1.19,10.79-.18,16.09.71l-20,.33a6,6,0,0,0,2.22-3.77c8.73-.24,17.45-0.64,26.17.26A1,1,0,0,1,458,256.17Z" transform="translate(-27.98 -133.29)"/><path class="cls-25" d="M334.47,200.64a6.89,6.89,0,0,1-2.34-2.36l12.34-10.48a4.58,4.58,0,0,1,2.07,2.22,2.21,2.21,0,0,1-.48,3c-3.12,2.49-6.11,5.16-9.39,7.45A2,2,0,0,1,334.47,200.64Z" transform="translate(-27.98 -133.29)"/><path class="cls-26" d="M502.45,216.7c0,8.95-.09,17.9-0.1,26.84a8.84,8.84,0,0,0,.44,1.93l-2.06,0q0.09-17.71.18-35.42c0-1.45.1-2.89,0.16-4.34l1.11,0.07Z" transform="translate(-27.98 -133.29)"/><path class="cls-27" d="M410.89,156.93l-1,3.39c-2.81,1.48-6.83.36-8.86-2.48,0.37-1.07.17-2.33,1-3.24Z" transform="translate(-27.98 -133.29)"/><path class="cls-28" d="M296.43,310.21c0,1.13.4,2.56-1.14,2.31-1.83-.29-2.66-2-2.86-3.64-0.17-1.36,1.12-2,2.25-1.8C296.51,307.37,296.77,308.79,296.43,310.21Z" transform="translate(-27.98 -133.29)"/><path class="cls-6" d="M359.67,267.4c0.06,1,0,1.62-.88,1.74-0.45.06-3.45-4.06-3.38-4.63a1.2,1.2,0,0,1,1.3-1.24C359,263.77,358.87,266.07,359.67,267.4Z" transform="translate(-27.98 -133.29)"/><path class="cls-29" d="M319.51,323.57c1.58,0.6,2.14,2.5,3.33,3.78,0.17,0.19-.8.77-1.32,0.6-1.69-.54-3.56-1-3.87-3.16C317.5,323.76,318.33,323.51,319.51,323.57Z" transform="translate(-27.98 -133.29)"/><path class="cls-30" d="M347.39,323.91c-0.37.69-.16,1.84-1.31,2-0.94.17-1.37-.41-1.67-1.23s-0.67-1.38-1-2.08a1.51,1.51,0,0,1,.46-2.07c1.08-.65,1.38.26,1.44,1.06C345.42,323,347.53,322.37,347.39,323.91Z" transform="translate(-27.98 -133.29)"/><path class="cls-31" d="M348.24,331.32c-1.09-.42-2.18-1.12-2.18-2.27s1.29-1.43,2.28-1.46a1.66,1.66,0,0,1,1.89,1.85A2,2,0,0,1,348.24,331.32Z" transform="translate(-27.98 -133.29)"/><path class="cls-31" d="M366.53,323.13c-0.08.87,0.06,2-1.18,2-1.68.05-1.87-1.39-2-2.58a1.4,1.4,0,0,1,1.62-1.65C366.2,321.06,366.58,322,366.53,323.13Z" transform="translate(-27.98 -133.29)"/><path class="cls-32" d="M379.59,317a1,1,0,0,1-1.33,1c-1.18-.26-2.45-0.63-2.67-2-0.17-1.06.77-1.15,1.56-1.14C378.61,314.79,379.24,315.75,379.59,317Z" transform="translate(-27.98 -133.29)"/><path class="cls-33" d="M369,310.72a1.88,1.88,0,0,1-2.13-1.78,1.28,1.28,0,0,1,1.73-1.39c1,0.2,2.33.46,2.26,1.9C370.83,310.58,369.73,310.57,369,310.72Z" transform="translate(-27.98 -133.29)"/><path class="cls-4" d="M369,282.87c-0.14.78-.22,1.83-1.13,1.74-1.52-.14-1.55-1.61-1.78-2.74a1,1,0,0,1,1.08-1.27C368.58,280.67,368.78,281.79,369,282.87Z" transform="translate(-27.98 -133.29)"/><path class="cls-30" d="M359.73,302.41a2.64,2.64,0,0,1,2.07,2,1,1,0,0,1-1,1.34c-1,0-2-.3-2.13-1.54A2.12,2.12,0,0,1,359.73,302.41Z" transform="translate(-27.98 -133.29)"/><path class="cls-34" d="M364.48,280.23c-1.26-.37-1.06-1.23-1-2.14s0-1.63,1.06-1.61,1.35,0.91,1.3,1.86A1.74,1.74,0,0,1,364.48,280.23Z" transform="translate(-27.98 -133.29)"/><path class="cls-35" d="M329.59,322c1.28,0.22,1.67,1.26,1.91,2.35,0.12,0.53,0,1.27-.72,1.19-1.44-.16-1.77-1.51-2.22-2.57C328.3,322.3,328.93,322,329.59,322Z" transform="translate(-27.98 -133.29)"/><path class="cls-36" d="M339.4,328.14a0.84,0.84,0,0,1-.88,1.15,2.59,2.59,0,0,1-2.48-1.23c-0.37-.84.4-1.11,1.08-1.17A2,2,0,0,1,339.4,328.14Z" transform="translate(-27.98 -133.29)"/><path class="cls-37" d="M338.21,316.79c1.13,0,1.46.74,1.64,1.66,0.13,0.7.08,1.4-.78,1.48-1.16.11-1.33-.9-1.63-1.7A0.94,0.94,0,0,1,338.21,316.79Z" transform="translate(-27.98 -133.29)"/><path class="cls-38" d="M361.69,326.74a1,1,0,0,1-1.2,1.2,1.44,1.44,0,0,1-1.45-1.48,1.39,1.39,0,0,1,1.33-1.26C361.37,325.13,361.58,325.94,361.69,326.74Z" transform="translate(-27.98 -133.29)"/><path class="cls-39" d="M380.23,320.28c-1.29,1.3-2.08,2.31-3.52,2.14a0.76,0.76,0,0,1-.44-1.07C376.94,319.78,378.24,320,380.23,320.28Z" transform="translate(-27.98 -133.29)"/><path class="cls-40" d="M342,327.73a2.49,2.49,0,0,1-1.5-2.36,0.76,0.76,0,0,1,1.14-.74,2.14,2.14,0,0,1,1.38,2.09A0.87,0.87,0,0,1,342,327.73Z" transform="translate(-27.98 -133.29)"/><path class="cls-41" d="M347,290.77c0,0.81-.18,1.48-0.83,1.39-1-.13-1.32-1.07-1.43-1.94a0.8,0.8,0,0,1,1.06-.86A1.32,1.32,0,0,1,347,290.77Z" transform="translate(-27.98 -133.29)"/><path class="cls-42" d="M343.74,313.18a1.89,1.89,0,0,1,1.76,1.46,0.83,0.83,0,0,1-.74,1.19,1.56,1.56,0,0,1-1.58-1.39A1,1,0,0,1,343.74,313.18Z" transform="translate(-27.98 -133.29)"/><path class="cls-43" d="M359.62,286.89c0.05,0.84-.22,1.38-0.87,1.26a2.09,2.09,0,0,1-1.71-1.78,0.77,0.77,0,0,1,.77-0.88A2.06,2.06,0,0,1,359.62,286.89Z" transform="translate(-27.98 -133.29)"/><path class="cls-44" d="M361.24,294.63c-0.9,0-1-.73-1.16-1.33a1.12,1.12,0,0,1,.73-1.57c0.91-.18,1.05.61,1.1,1.25S362.08,294.33,361.24,294.63Z" transform="translate(-27.98 -133.29)"/><path class="cls-45" d="M354.52,295.9c-0.82-1.65-1.81-2.47-.86-3.64a0.9,0.9,0,0,1,.88,0C355.43,293.17,355.16,294.17,354.52,295.9Z" transform="translate(-27.98 -133.29)"/><path class="cls-46" d="M445.1,190.43a4.07,4.07,0,0,1-.9,2.74l-1.5-3.51Z" transform="translate(-27.98 -133.29)"/><path class="cls-47" d="M449,272.38c-8.62-5.7-14.56-4-20.86,6.06-6.44-3.2-7.1-11.58-1.53-16.26,2-1.67,4.23-1.87,6.59-1.87q46.84,0,93.68,0c3.79,0,7.6-.51,11.37.39a9.33,9.33,0,0,1-1.86,18.43c-17.66,0-35.31,0-53,0-3.57,0-7.13.14-10.7,0.22-2.51-3.81-6.66-5.45-10.43-7.45-1.85-1-4.48,0-5.87,1.43-2,2-3.29,1.52-5,0a3.59,3.59,0,0,0-1.59-.3Z" transform="translate(-27.98 -133.29)"/><path class="cls-48" d="M371.29,333.14c1.4-1.15,2.26-1.77,3.42-1a0.61,0.61,0,0,1,.06.59C374,333.89,373,333.54,371.29,333.14Z" transform="translate(-27.98 -133.29)"/><path class="cls-49" d="M334.47,200.64c3.2-2.69,6.38-5.4,9.61-8.05,0.93-.77,2-1.35,2.46-2.58,3.39,0.57,4.62-2.66,6.86-4.06,2.81-1.75,5.22-4.13,7.8-6.24,0.94-.33,1.44-1.94,2.74-1.13,0.65,0.4.28,1.19,0.05,1.81L336.2,214c-2.64-1.7-3.24-4.69-4.46-7.25a3.13,3.13,0,0,1,.95-3.38A4.93,4.93,0,0,0,334.47,200.64Z" transform="translate(-27.98 -133.29)"/><path class="cls-50" d="M401.07,157.83l8.86,2.48c1,1.76,3,1.88,4.58,2.41,3.45,1.14,7,2,10.49,3,1.24,0.46,2.81-.05,3.77,1.25a1.57,1.57,0,0,1-.52,1.87c-8.88-1.37-17.76-2.68-26.62-4.19-1.27-.22-3.61.3-3.55-2C398.12,160.7,398.26,158.33,401.07,157.83Z" transform="translate(-27.98 -133.29)"/><path class="cls-51" d="M326.94,216.64c-2-2.76.25-5,1-7.4,0.27-.87,1.24-0.17,1.53.34,1.38,2.44,3.55,4.54,3.45,7.65Z" transform="translate(-27.98 -133.29)"/><path class="cls-52" d="M323.68,220.24c-0.28,1.54-1,2.42-2.53,2.24a2.15,2.15,0,0,1-2.08-2.54,2,2,0,0,1,2.32-1.92A2.18,2.18,0,0,1,323.68,220.24Z" transform="translate(-27.98 -133.29)"/><path class="cls-53" d="M339.47,219.87c-0.47,1.37-1.21,2.24-2.66,2.13a2,2,0,0,1-1.91-2.25,2.13,2.13,0,0,1,2.32-2.26C338.7,217.54,339.12,218.75,339.47,219.87Z" transform="translate(-27.98 -133.29)"/><path class="cls-54" d="M441.08,167.54a1.86,1.86,0,0,1-2,2.06,1.74,1.74,0,0,1-1.93-1.83A2,2,0,1,1,441.08,167.54Z" transform="translate(-27.98 -133.29)"/><path class="cls-55" d="M389.4,165a2,2,0,0,1,0,4,1.8,1.8,0,0,1-2-1.84A2,2,0,0,1,389.4,165Z" transform="translate(-27.98 -133.29)"/><path class="cls-56" d="M443.34,185.58c-1.68.07-2.47-.57-2.56-1.66a1.77,1.77,0,0,1,1.91-2.12,1.68,1.68,0,0,1,1.86,1.82C444.58,184.71,444.09,185.52,443.34,185.58Z" transform="translate(-27.98 -133.29)"/><path class="cls-57" d="M395.83,155.71c-1.27-.08-2.21-0.52-2.31-1.91a1.79,1.79,0,0,1,1.81-2,1.94,1.94,0,0,1,2.21,1.94A1.64,1.64,0,0,1,395.83,155.71Z" transform="translate(-27.98 -133.29)"/><path class="cls-58" d="M364,180.39c-0.37-2.53-1.85-.52-2.79-0.68l1.93-2.18c0.91-.19,1.85-2,2.65-0.45S365.24,179.61,364,180.39Z" transform="translate(-27.98 -133.29)"/><path class="cls-59" d="M452.09,186.71c0.57-2.61,1-5.25,1.72-7.84,1.21-4.57,3.72-6.56,8.42-6.6,8.06-.06,16.12.05,24.17,0a5.13,5.13,0,0,1,5.28,3.31c3.69,8.49,7.64,16.79,6.66,26.6-0.67,6.65-.18,13.42-0.09,20.13a5.2,5.2,0,0,1-2,4.6c-5.38,4.37-10.65,8.88-16,13.35a6.22,6.22,0,0,1-4.2,1.74c-11.53,0-23.05,0-34.58,0a1.55,1.55,0,0,1-1.51-.46,2.72,2.72,0,0,1,1.72-1.62c2.56-.9,5.11-0.48,7.76-0.44,7.16,0.1,14.31.47,21.55-.13,10.74-.89,15.12-9.74,22.32-15a3.1,3.1,0,0,0,1-3c-0.11-2.83-2.78-1.53-4-2.5-1-1.26-2.69-1.91-3.15-3.63a1.72,1.72,0,0,1,.81-1.23c1.83-1.26,4.77.26,6-2.16,1-2-.2-4.16-0.1-6.26,0.12-2.45-.21-4.94.06-7.36,0.73-6.46-2.27-11.89-4.58-17.51-0.41-1-.92-2.34-2.27-2.11-1.62.27-1.39,1.84-1.37,3a36.6,36.6,0,0,1-1.33,11.92,2.31,2.31,0,0,1-.71,1.39,2,2,0,0,1-1.52.29,5.07,5.07,0,0,1-2.75-4.65c0.23-3.48-1.35-5.13-4.47-5.8-2.71-3.44-2.11-5.76,2.05-7.59-4.18.42-8.28,0.22-12.39,0.23-0.81,0-1.86-.51-2.11.87,0,1.64,1.43,2,2.29,2.9,1.88,2,5.48,2.62,5.34,6.33-1.52,1.29-2.87.69-4.14-.42-1.58-1.38-3.27-2.65-4.91-4-4-3.17-4.31-3-5.49,1.82a16.68,16.68,0,0,1-.47,2.27c-0.45,1.14-.92,2.31-2.48,2.26C451.63,188.63,452.47,187.54,452.09,186.71Z" transform="translate(-27.98 -133.29)"/><path class="cls-60" d="M452.09,186.71l0.44,2.41a152.61,152.61,0,0,0,11.58,12.22,30.66,30.66,0,0,0,4,3.49,2.31,2.31,0,0,1,1,2.61,1.85,1.85,0,0,1-2.34,1.32c-1.85-1-3-3-5.13-3.56-1.87-2-4.34-3.4-6.24-5.41-1.14-1.22-1.67-.29-2.22.61-1.35,1.41-.82,3.25-1.12,4.9a8.06,8.06,0,0,0-1.19,3,8.65,8.65,0,0,1-.2.9c-0.81,3.89-.49,4.36,3.72,5.41a2,2,0,0,1,.9,2.58,3.56,3.56,0,0,1-3.71,2.25c-1.77-.12-2.67.86-2.86,2.57s-1,3.21-1.16,4.87c-0.17,1.38-.17,2.82,1.48,3.31s2.82-.36,3.33-2c1-3.14,3-6,2.32-9.61a2.07,2.07,0,0,1,.66-1.49c2.57-1.17,4.23-.73,4.44,1.57,0.32,3.53,1.15,7,1,10.59-0.1,2-1,3-2.9,3.91A20.87,20.87,0,0,1,447.57,235a3.59,3.59,0,0,0-4.12,3,4.39,4.39,0,0,1-1.68,2.77l-1.76.65c1.66-10.56,4.54-20.86,6.74-31.31C448.39,202.32,450.3,194.53,452.09,186.71Z" transform="translate(-27.98 -133.29)"/><path class="cls-61" d="M458,256.17l-0.52-1.33a8,8,0,0,1,3.93-.57h46.9a9.29,9.29,0,0,1,3.94.56c-0.2,2.39-2.07,1.22-3.07,1.23-16.28.09-32.57,0.07-48.85,0.07Z" transform="translate(-27.98 -133.29)"/><path class="cls-62" d="M523.92,213.45c0.86,0.09,1.89.06,1.77,1.33-0.1,1.06-1.06.92-1.78,0.92s-2,.13-2-1.1S523.06,213.51,523.92,213.45Z" transform="translate(-27.98 -133.29)"/><path class="cls-63" d="M523.81,224c0.76,0.13,1.95-.31,1.82,1.12-0.09,1.06-1.05.93-1.78,0.91s-2,.15-1.86-1.17C522.08,223.77,523.1,224.11,523.81,224Z" transform="translate(-27.98 -133.29)"/><path class="cls-64" d="M523.87,220.55c1,0.06,2,0,1.8,1.12s-1.28.94-2.1,1-1.69-.17-1.59-1.19C522.12,220.05,523.39,220.88,523.87,220.55Z" transform="translate(-27.98 -133.29)"/><path class="cls-65" d="M523.85,212.14c-0.74-.16-2,0.27-1.85-1.15,0.08-1,1-1,1.78-1s1.95-.07,1.89,1.21C525.63,212.33,524.62,212.06,523.85,212.14Z" transform="translate(-27.98 -133.29)"/><path class="cls-66" d="M525.67,207.87c-0.28,1.16-1.32.78-2.1,0.8s-1.72.09-1.54-1.09,1.25-1,2.09-1S525.69,206.68,525.67,207.87Z" transform="translate(-27.98 -133.29)"/><path class="cls-67" d="M525.65,218c-0.11,1.18-1,1-1.74,1s-1.78.08-1.83-1,1-1,1.74-1S525.45,216.92,525.65,218Z" transform="translate(-27.98 -133.29)"/><path class="cls-15" d="M428.77,167c-1.26-.4-2.66-0.4-3.77-1.25a21.43,21.43,0,0,1,3.84.1C429.81,166,429.63,166.65,428.77,167Z" transform="translate(-27.98 -133.29)"/><path class="cls-68" d="M330,203.6a1.86,1.86,0,0,1-1.91,2,1.75,1.75,0,0,1-1.92-1.83,1.6,1.6,0,0,1,1.82-1.84A1.93,1.93,0,0,1,330,203.6Z" transform="translate(-27.98 -133.29)"/><path class="cls-69" d="M455.1,217.4l-1.43-2.14a2.11,2.11,0,0,1-.43-2.37,1.92,1.92,0,0,1,2.83-.51,4.87,4.87,0,0,0,3.4.63,19.84,19.84,0,0,1,2.42,0,6.74,6.74,0,0,1,1,.23c3.07,1.25,6.31.48,9.46,0.81,0.82-.12,1.61-0.4,2.44-0.49,5.07-.35,5.4-0.59,5.61-6a39.28,39.28,0,0,0-.21-8.36,6.84,6.84,0,0,1,.49-4.26,1.47,1.47,0,0,1,1.28-.69l1.4,0.25c1.51,0.84,1.06,2.31,1.08,3.57,0.07,4.2-.23,8.42.95,12.54a8.08,8.08,0,0,0,1.27,3c0.25,0.5.46,1,.73,1.51,1.79,0.12,3.44.41,3.47,2.74,0.95,1.93,3.58.86,4.64,2.61,1.62,1.34,1.75,2.6.06,4.09-4.67,4.11-9.21,8.36-13.9,12.43a14.44,14.44,0,0,1-9.22,3.66c-3.92.24-8,1-11.87,0.64-4.61-.43-9.32,1-13.86-0.87-1.54-.65-3.21.89-4.91,0.33a15.34,15.34,0,0,1,.21-3.65c0.73-2.43,1-5.68,5.12-3.83,0.84,0.38,2,0,3,.1,3.12,0.35,5.48-.5,6.23-3.84,1.39,0.16.64,2.32,2,2s0.92-1.85.93-2.88c0.05-3.17-1.21-6.2-.8-9.47,0.28-2.21-2-1.46-3.23-1.8Z" transform="translate(-27.98 -133.29)"/><path class="cls-70" d="M466.93,207.91c1.49-.29,1.77-0.87.42-1.82-5.21-3.63-9.18-8.57-13.65-13-1.19-1.17-1.16-2.55-1.17-4,1.8-3,1.6-6.66,2.89-9.84,0.35-.87.36-2.2,1.58-2.31,1-.09.72,1.31,1.3,1.7,4,2.7,7,6.78,11.71,8.41a1.12,1.12,0,0,1,1.51.13c1.55,2.9,4.48,4.86,5.51,8.11,0.4,2.4-.46,4.73-0.34,7.12-0.31,2-1.7,3.52-2.1,5.46-2.21,2.61-4.46,2.92-7.87,1.08A0.68,0.68,0,0,1,466.93,207.91Z" transform="translate(-27.98 -133.29)"/><path class="cls-71" d="M483.44,193.18c1-4.65.12-9.36,0.4-14,0.1-1.62.05-3.33,2.3-3.33,1.79,0,3.42.11,4.19,2.41,1.16,3.44,2.75,6.74,4.17,10.1a19.1,19.1,0,0,1,1.25,8.55,106.36,106.36,0,0,0,.12,13.05c0.33,4.73-.55,5.48-5.34,4.83-0.77-.1-1.53-0.31-2.29-0.47-2.49-1.35-1.61-3.63-1.45-5.61,0.35-4.29,1-8.56,1-12.87,0-2.7-.26-2.75-2.73-1.14C483.76,195,483.9,193.78,483.44,193.18Z" transform="translate(-27.98 -133.29)"/><path class="cls-72" d="M460.67,178.46c-1.83-1.51-1.26-2.67.78-2.71,6.11-.14,12.22,0,18.33,0,1.43,0,1.92.95,1.74,2.26-0.23,1.6-1.17,1.47-2.45,1.13-3.91-1.05-4.84,0-4,4.28,0.52,2,.83,4-0.22,6a2,2,0,0,1-3.12-.72C469.07,184.2,464.66,181.56,460.67,178.46Z" transform="translate(-27.98 -133.29)"/><path class="cls-73" d="M484.61,194.47c0.14-.77.25-1.54,0.44-2.29,0.33-1.34,1.17-2.29,2.57-2.13,1.61,0.19,2.06,1.37,2,2.93-0.48,7.1-.9,14.21-1.33,21.31l-0.89.92-2.13-.11c-1.6-.17-1.47-1.34-1.47-2.48,0-3.23-.27-6.51.45-9.67C484.85,200.1,483.68,197.24,484.61,194.47Z" transform="translate(-27.98 -133.29)"/><path class="cls-74" d="M474.6,189.14c-1.37-2-.9-3.89.49-5.67,0.66,0.09,1.32.21,2,.26,3.72,0.26,4.53,1.34,3.76,5.17-0.39,2,1.38,3.48,1.1,5.41l-0.48.55c-1,1.61-2.29,1.34-3.63.44a12.41,12.41,0,0,0-2.42-2.22C473.93,192.13,473.39,190.75,474.6,189.14Z" transform="translate(-27.98 -133.29)"/><path class="cls-75" d="M474.6,189.14c0.08,1.72-.34,3.72,2.52,3.57,1.15-.06.89,1,1,1.76-0.1,1.45-1,1.35-2,1.05l-6-8.43-9.34-8.63c0.9-.06,2.07-0.22,2.54.5,2.23,3.42,6.47,4.79,8.47,8.34A3.49,3.49,0,0,0,474.6,189.14Z" transform="translate(-27.98 -133.29)"/><path class="cls-76" d="M484.61,194.47c1.43,3.6,1,7.13-.19,10.71-0.87,2.68-.19,5.53-0.49,8.28-0.11,1,.61,1.31,1.31,1.64-2.57,0-1.62-2.07-1.66-3.19-0.2-5.78-.19-11.57-0.25-17.35l0.11-1.38Z" transform="translate(-27.98 -133.29)"/><path class="cls-77" d="M495.46,220.56c-1.77-.47-5.26,2.12-4.64-2.61C492.55,218.51,495.87,216.21,495.46,220.56Z" transform="translate(-27.98 -133.29)"/><path class="cls-78" d="M455.19,217.43c1.79,1.88,1.71,4,.75,6.21A19,19,0,0,0,454.3,228c-0.53,3.4-2.44,4.31-5.64,4.14-2.2-.12-3.24-1-2.95-3,0.48-3.3,1.16-6.58,1.91-9.83a2.27,2.27,0,0,1,2.83-1.75,11.09,11.09,0,0,0,4.65-.17Z" transform="translate(-27.98 -133.29)"/><path class="cls-79" d="M452,199.54c0.15-1.19-.12-2.8,1.13-3.28,1.48-.56,2.49.94,3.2,1.93,1.72,2.41,4.58,3.51,6.31,5.85,0.53,0.84,1.48,1.51,1.16,2.71-0.79.88-.9,2.32-2.27,2.71a7.75,7.75,0,0,1-1.53.12c-1.72.37-2.58-1.41-4.08-1.61a4.57,4.57,0,0,1-2.06-1.57A8.25,8.25,0,0,1,452,199.54Z" transform="translate(-27.98 -133.29)"/><path class="cls-80" d="M454,212.57l-0.3,2.68c-0.56,0-1.12,0-1.67,0-3.16.19-4-1.29-3-4.12,0.29-.83.56-1.67,0.84-2.51,1.06,1,.47,2.49.79,3.16-0.28-.69.26-2.14-0.78-3.17a3.38,3.38,0,0,1,.83-3.07c1.53-.75,1.88.7,2.63,1.41A9.29,9.29,0,0,1,454,212.57Z" transform="translate(-27.98 -133.29)"/><path class="cls-81" d="M452.22,207.28l-1.55-1.75c0.07-2.08.14-4.15,1.32-6l2.74,6.38C454.53,207.54,453.4,207.45,452.22,207.28Z" transform="translate(-27.98 -133.29)"/><path class="cls-82" d="M463.35,206.26L462.64,204l4.29,3.86a0.44,0.44,0,0,0-.06.36,1.71,1.71,0,0,1-2.07,1C463.15,208.84,463.1,207.62,463.35,206.26Z" transform="translate(-27.98 -133.29)"/><path class="cls-83" d="M464.86,208.89l2-.62c2.33,0.19,4.75,1.28,6.85-.72,1.8-1.68,1.27-3.79,1.08-5.84l1.24-6.19,2-1.05a6.23,6.23,0,0,0,3.38.39c0.1,6.12.18,12.24,0.31,18.36,0,1.53-.79,1.94-2.08,1.92-1.66,0-3.35.15-4.94-.56-0.95-.7-2-0.23-3-0.32a20.12,20.12,0,0,0-4.86-.31c-1.41,0-2.57-.38-3.08-1.86C463.46,210.8,463.44,209.61,464.86,208.89Z" transform="translate(-27.98 -133.29)"/><path class="cls-84" d="M468.54,230.92a12.55,12.55,0,0,1-2.53-.67,2,2,0,0,1-1.06-2.51,1.8,1.8,0,0,1,2-1.42c4.43,0,8.86-.16,13.28.09,2.93,0.16.76,2.93,1.7,4.21-1.12,1.39-2.68.84-4.08,0.86C474.71,231.52,471.59,231.76,468.54,230.92Z" transform="translate(-27.98 -133.29)"/><path class="cls-85" d="M452.22,207.28l2.51-1.36,1.74,0.77c2.07,1,1,4,3.22,5,0.69,0.7,1.88,1.34.24,2.28-2.46,1.61-4.09-.39-6-1.36C451.91,211.3,452.5,209.15,452.22,207.28Z" transform="translate(-27.98 -133.29)"/><path class="cls-86" d="M466.66,217.37c1.11,0,2.23-.07,3.34,0,0.75,0.06,1.69.16,1.51,1.31a1.67,1.67,0,0,1-1.45,1.62,21.77,21.77,0,0,1-6.68,0c-0.9-.2-1.76-0.7-1.59-1.82s1.06-1,1.85-1.06c1,0,2,0,3,0v-0.06Z" transform="translate(-27.98 -133.29)"/><path class="cls-87" d="M464.47,212c2.57,1.5,5.59.13,8.22,1.25A1.26,1.26,0,0,1,473,215c-2.85,0-5.7,0-8.55.16a3.51,3.51,0,0,1-2.93-1.15C461.78,212.28,462.19,210.72,464.47,212Z" transform="translate(-27.98 -133.29)"/><path class="cls-88" d="M468.54,230.92l13.35-.31c-0.21.76-.44,1.76-1.28,1.78a65.4,65.4,0,0,1-11.82-.6A2.22,2.22,0,0,1,468.54,230.92Z" transform="translate(-27.98 -133.29)"/><path class="cls-89" d="M464.47,212c-1.87-.68-1.57,2-3,2l-0.22,0L461,214c-0.53-1.88-1.7-3.83.57-5.41,0.48-.85.31-2.18,1.73-2.33,0.76,0.73.13,2.26,1.51,2.64Z" transform="translate(-27.98 -133.29)"/><path class="cls-90" d="M461.62,208.59q-0.29,2.7-.57,5.41c-0.4.6-.76,0.31-1.11-0.06,0.35-1-.49-1-1-1.35-1.55-1.7-.09-2.78.83-4Z" transform="translate(-27.98 -133.29)"/><path class="cls-91" d="M473,215l-0.27-1.71c1.69-1.13,2-.18,2,1.32Z" transform="translate(-27.98 -133.29)"/><path class="cls-92" d="M474.8,201.71c1.39,2,.29,4.3.54,6.45a0.64,0.64,0,0,1-.84.71c-0.68-.16-0.62-0.82-0.78-1.32Z" transform="translate(-27.98 -133.29)"/><path class="cls-93" d="M459.74,208.61c0.31,1.44.35,2.83-.83,4a3,3,0,0,1-.94,1.2c-0.69.19-.68-0.53-0.89-1-0.79-2-.09-4.07-0.61-6C458.67,205.46,458.42,208.37,459.74,208.61Z" transform="translate(-27.98 -133.29)"/><path class="cls-94" d="M449.85,208.6a2.12,2.12,0,0,1,.82.51c0.75,1.44,1.61,2.91.83,4.61a0.74,0.74,0,0,1-1.13.26c-1.16-1.19-.42-2.69-0.52-4.06,0-.44,0-0.88,0-1.31h0Z" transform="translate(-27.98 -133.29)"/><path class="cls-95" d="M478.52,207.73c-1.08-2.44.4-4.51,0.49-6.76C479.95,203.35,478.42,205.47,478.52,207.73Z" transform="translate(-27.98 -133.29)"/><rect class="cls-1" y="147.87" width="196.33" height="61.85"/><rect class="cls-1" x="586.43" y="147.87" width="216.3" height="65.17"/></svg>