<svg id="Слой_1" data-name="Слой 1" xmlns="http://www.w3.org/2000/svg" viewBox="0 0 311.6 180.91"><defs><style>.cls-1{fill:#121717;}.cls-2{fill:#a45045;}.cls-3{fill:#7a4f47;}.cls-4{fill:#1d3435;}.cls-5{fill:#e0ba7c;}.cls-6{fill:#1e3334;}.cls-7{fill:#e0ba7d;}.cls-8{fill:#bda676;}.cls-9{fill:#d3bb89;}.cls-10{fill:#2d4544;}.cls-11{fill:#2c4643;}.cls-12{fill:#35463f;}.cls-13{fill:#b36f5c;}.cls-14{fill:#e3b180;}.cls-15{fill:#2d3a2c;}.cls-16{fill:#dfb086;}.cls-17{fill:#aa5146;}.cls-18{fill:#9f4e44;}.cls-19{fill:#ac5046;}.cls-20{fill:#594332;}.cls-21{fill:#1f393a;}.cls-22{fill:#cf695a;}.cls-23{fill:#ad645b;}.cls-24{fill:#ada37a;}.cls-25{fill:#b8a778;}.cls-26{fill:#b5a884;}.cls-27{fill:#b6aa80;}.cls-28{fill:#d4b78b;}.cls-29{fill:#b8a880;}.cls-30{fill:#915f59;}.cls-31{fill:#26322c;}.cls-32{fill:#233029;}.cls-33{fill:#131919;}.cls-34{fill:#595740;}.cls-35{fill:#52492f;}.cls-36{fill:#4e4930;}.cls-37{fill:#514a30;}.cls-38{fill:#494a32;}.cls-39{fill:#2b2c1e;}.cls-40{fill:#d9b582;}.cls-41{fill:#1e3434;}.cls-42{fill:#1d3334;}.cls-43{fill:#ac5647;}.cls-44{fill:#af5547;}.cls-45{fill:#dbb97d;}.cls-46{fill:#efdbc0;}.cls-47{fill:#975652;}.cls-48{fill:#4f7d6f;}.cls-49{fill:#c5bc98;}.cls-50{fill:#b25347;}.cls-51{fill:#a95649;}.cls-52{fill:#7b5151;}.cls-53{fill:#ceb282;}.cls-54{fill:#825a49;}.cls-55{fill:#509398;}.cls-56{fill:#cfb380;}.cls-57{fill:#334c41;}.cls-58{fill:#92574f;}.cls-59{fill:#a8555c;}.cls-60{fill:#171916;}.cls-61{fill:#d9c9af;}.cls-62{fill:#658767;}.cls-63{fill:#a8c7b3;}.cls-64{fill:#beb8a0;}.cls-65{fill:#d9bb9e;}.cls-66{fill:#a95848;}.cls-67{fill:#80c3d3;}</style></defs><title>mining</title><path class="cls-1" d="M265.21,206.78a14.42,14.42,0,0,1-9-12.72,14.64,14.64,0,0,1,7.19-14.44c1.1-.7,2.32-1.21,3.49-1.81a13.2,13.2,0,0,1,6.71-1.38c6.8,0,13.61.08,20.41-.2,12,0.46,24.11.11,36.17,0.2,23.9,0.16,47.8-.28,71.69.1a12,12,0,0,1,5,.68c12.45,2.69,17.75,12,12.89,22.64-1.53,3.35-4.5,5.16-7.34,7.14-3.12.85-6.3,0.66-9.49,0.66h-75c-1.45,0-2.9-.13-4.35-0.19a2.52,2.52,0,0,1-.35-3c1.09-1.53,2.74-1.42,4.34-1.46,16.72-.4,33.45-0.21,50.18-0.11,9.59,0.06,19.2,0,28.79-.29a9.35,9.35,0,0,0,9.27-8.73c0.57-5.07-2.09-9-7.08-10.62a22.44,22.44,0,0,0-6.91-.79H274.36a25.83,25.83,0,0,0-4.35.23,10.27,10.27,0,0,0-6.8,16.42c1.12,1.52,2.51,2.83,3.32,4.57a2.87,2.87,0,0,1-.93,2.86A0.46,0.46,0,0,0,265.21,206.78Z" transform="translate(-109.94 -35.69)"/><path class="cls-2" d="M321.77,207.5c-2.16-.19-4.32-0.47-6.49-0.54-4.75-.16-9.72-2.44-14.07,1.67-0.75.71-2.5,0.47-3.78,0.47-8.52,0-17-.18-25.56-0.07-2.67,0-4-1.23-5-3.38,2-9.78,12.71-16.81,21.32-12a12.9,12.9,0,0,0,5,1.27,3.33,3.33,0,0,1,1.68,1.16c2.4,4.52,3.93,5,7.39,1.57,3-3,6.43-2.37,9.7-1.26,3.63,1.17,6.25,4.17,9.47,6.17C323.34,203.67,323.06,205.73,321.77,207.5Z" transform="translate(-109.94 -35.69)"/><path class="cls-3" d="M321.77,207.5c0.76-4-2.94-4.53-5-6.28-6.14-5.34-8.32-5.4-15-.91-3.47,2.33-5.11,1.65-8-3.3,5.52-.9,10.75-4.33,16.34-3.38,5.25,0.9,9.55,4.46,13.32,8.31a2.61,2.61,0,0,1,.15,3.23l-0.11,2.29Z" transform="translate(-109.94 -35.69)"/><path class="cls-3" d="M292.77,196.06c-1.85.8-3.4-.17-4.94-0.92a12.8,12.8,0,0,0-16.48,4.09l-4.45,6.41c-0.27.51-.38,1.24-1.26,0.9v-2.59a3.83,3.83,0,0,1,.06-3.73c5.22-7.89,14.56-14.35,24.94-7.78C292,193.32,293.46,194,292.77,196.06Z" transform="translate(-109.94 -35.69)"/><path class="cls-4" d="M269.21,53.56c2.7,0.31,5.24.77,7.86-1,2.23-1.52,4.44.12,6.29,1.58,4.08,3.23,8.12,6.5,12.18,9.75a2.58,2.58,0,0,1,.83,3.13c-2.39,6.73-3.78,13.75-6,20.53A4.14,4.14,0,0,1,288.61,90c-1.93,1-3-.3-4.13-1.53-6-3.84-13-5.07-19.53-7.28-13.09-4.4-26.33-8.33-39.45-12.63-2.75-.9-4.61-0.29-6.63,1.55q-31.62,28.75-63.31,57.42a23.86,23.86,0,0,0-7.72,16.07c-0.89,10-.52,19.76,3,29.25,0.4,1.09.91,2.33-.37,3.14-3.68,2.33-2.13,4.57-.23,7.17,1.42,1.94,3.81,3.27,4.17,6.31-4.86.81-9.22-1.25-13.26-2.9-14.63-6-26-15.56-30-31.62-2.85-11.46-.85-21.93,8.19-30.34,2-1.83,3.93-3.52,6.92-2.67,1.79,0.51,2.1-1,2.81-2,2.28-1.45,4.11-.1,6,1a12.34,12.34,0,0,0,5.67,1.07c1.88-.29,2.95-1.65,4-3,12-14.43,23.24-29.47,36-43.27,0.54-1,.07-1.81-0.39-2.64,0.06-2.51-2.6-2.92-3.58-4.62,1.93-2.18,5.1-3.5,4.8-7.23,0-.48.86-1.1,1.42-1.55,10.38-8.36,20.37-17.16,33.34-21.72,9.52-3.35,9.72-3.69,15.37,4.9,0.28,1.33,1.19,2.6.36,4-3.9,6.39-3.93,6.61,3.69,7.72,9.9,1.45,19.69,3.53,29.55,5.16C269.12,59.26,268.62,56,269.21,53.56Z" transform="translate(-109.94 -35.69)"/><path class="cls-5" d="M287.65,89.42c1.45-5.13,3.1-10.21,4.29-15.4,0.82-3.56,2.47-6.75,3.64-10.14,4.06-3.74,8.82-5.21,14.36-5.14,13.52,0.18,27,0,40.56.09,7.91,0,9.66,1.76,9.75,9.84,0.16,13.52.16,27,.22,40.56a7.55,7.55,0,0,1,1.07,4.58q0,22,0,44a6.72,6.72,0,0,1-.71,3.8c-1.28,1.54-3.1,1.54-4.82,1.55q-40.85.28-81.71,0c-1.84,0-3.9,0-4.84-2.16-0.72-4.8,1.65-9,2.78-13.4,4.18-16.25,8.71-32.4,13.07-48.6,0.52-2,.79-4,1.17-6C286.59,91.71,286.57,90.38,287.65,89.42Z" transform="translate(-109.94 -35.69)"/><path class="cls-6" d="M269.46,160.95H360a5.09,5.09,0,0,1,3.06-1.12c7.84-.12,15.68.07,23.51-0.09,5.91-.12,7.24-1.38,7.24-7.25,0-12.73-.12-25.46,0-38.19,0-2-.86-4.5,1.82-5.74,7.52-3.5,12.65-.56,12.69,7.37,0.09,17.57,0,35.14.19,52.71,0,3.14-1.13,4.08-4,4-7.55-.09-15.1,0-22.65,0-1.57,0-3.21-.36-4.65.65a2.65,2.65,0,0,1-3,.93,12.22,12.22,0,0,0-4.75-.49H308.77a23.94,23.94,0,0,0-5.19.53c-9.48-1.15-19-.21-28.48-0.53-1.82-.06-3.78.51-5.39-0.9C267.84,168.95,268.12,165,269.46,160.95Z" transform="translate(-109.94 -35.69)"/><path class="cls-7" d="M361.92,109.34a2,2,0,0,1,2.22-2.13c10.3,0,20.61-.58,30.89.51-0.53.68-1,1.65-2,1.57-4.45-.37-5,2.94-5.17,5.92-0.33,5.21-.24,10.45-0.11,15.67a6,6,0,0,0,3.46,5.68c2.75,1.27,3.24,3.32,3.16,6-0.13,4.35-.08,8.71,0,13.07,0,3.2-1.14,4.77-4.62,4.7-7.69-.16-15.39-0.12-23.09,0-2.63,0-4-.83-4.5-3.51a36.6,36.6,0,0,1-.59-6c-0.21-9.28.49-18.58-.4-27.85C361.47,118.37,360.3,113.77,361.92,109.34Z" transform="translate(-109.94 -35.69)"/><path class="cls-8" d="M375,173.24l2.16,0.13c1.6,1.64,3.7,1.42,5.69,1.43h19.48c1.88,0,3.9-.21,4.41,2.37-10,.11-20.07.32-30.11,0.32q-41.94,0-83.89-.14c-6.1-.18-12.21,0-18.31-0.12-1.27,0-3.43.88-3.57-1.23-0.17-2.5,2.28-2.29,3.85-2.26,9.84,0.2,19.69-.29,29.53.27,12-.54,24-0.16,36-0.22,9.94,0,19.88-.06,29.81,0C371.69,173.85,373.48,174.25,375,173.24Z" transform="translate(-109.94 -35.69)"/><path class="cls-9" d="M362.28,123.56a6.09,6.09,0,0,1,.92,4.1c-0.21,8.13-.42,16.26-0.25,24.39,0.14,6.83.87,7.3,7.68,7.3,6,0,11.91-.1,17.87,0,3.57,0.08,5-1.58,5-5,0-2.9-.11-5.82,0-8.72,0.19-4.07,0-7.62-5.34-8.2a2.85,2.85,0,0,1-2.35-3.22,186.13,186.13,0,0,0,.15-22.07c-0.19-2.84,2.5-3.63,4.78-4.17a26.61,26.61,0,0,1,4.3-.33l0.6,0.87c-0.85,15-.18,29.94-0.35,44.91-0.09,7.49,0,7.48-7.27,7.49H362.71c-1.51-.86-1.59-2.3-1.59-3.79V126.56C361.15,125.56,361,124.31,362.28,123.56Z" transform="translate(-109.94 -35.69)"/><path class="cls-10" d="M176.77,68.37a12.48,12.48,0,0,0,2.55-.45c1.48-.58,2.88-0.88,3.88.66,1.26,2-1.4,1.73-1.7,2.86a8,8,0,0,1-.52,1.19,6,6,0,0,1-1.44,4.16c-4.58,4.59-10,8.11-15,12.28-1.85,1.56-3.72,2.12-5.89.76a3.34,3.34,0,0,1-2-3.85c1.85-4.24,5.95-6.16,9.24-8.9C169.49,74.12,173.15,71.27,176.77,68.37Z" transform="translate(-109.94 -35.69)"/><path class="cls-11" d="M269.21,53.56c3.94,3.55,3.16,5.27-3.54,7.79a5,5,0,0,0-1.24-1.62c-1.24-.75-2.72-0.28-4-0.79-5.33-1.23-10.75-2.12-15.76-4.48-1.86-.87-3.78-1.64-3.77-4.17-0.38-2,.6-3.4,2.18-4.48,7.72,0.94,14.86,4,22.27,6.11A32.1,32.1,0,0,1,269.21,53.56Z" transform="translate(-109.94 -35.69)"/><path class="cls-12" d="M145.92,120.11c-0.69,2.14-2.74,2.89-4.27,4.18-2-1.63-3.28-3.85-4.92-6.07-1.82,1.51-1.59,3.83-2.86,5.3-2.09-.56-2.16-3.78-4.78-3.63,0.95-4.36,3.71-8.59.88-13.27-0.24-.39.5-1.61,1-2.21a15.52,15.52,0,0,1,9.62-4.79,4.13,4.13,0,0,1,3.73,2.42,3.37,3.37,0,0,1-.25,3.67c-2.45,3-1.69,5.9,0,8.73A14,14,0,0,1,145.92,120.11Z" transform="translate(-109.94 -35.69)"/><path class="cls-13" d="M304.42,175H271.91l0,1.5c6.88,1.55,14-.24,20.94.92l-26,.42a7.76,7.76,0,0,0,2.88-4.91c11.36-.31,22.71-0.83,34,0.33A1.35,1.35,0,0,1,304.42,175Z" transform="translate(-109.94 -35.69)"/><path class="cls-14" d="M143.67,102.7a9,9,0,0,1-3-3.07L156.73,86a6,6,0,0,1,2.7,2.89,2.87,2.87,0,0,1-.62,3.93c-4.06,3.24-7.95,6.72-12.22,9.69A2.61,2.61,0,0,1,143.67,102.7Z" transform="translate(-109.94 -35.69)"/><path class="cls-15" d="M362.28,123.56c-0.07,11.68-.07,23.32-0.13,35a11.5,11.5,0,0,0,.57,2.51L360,161q0.11-23.05.23-46.1c0-1.88.14-3.76,0.21-5.65l1.44,0.1Z" transform="translate(-109.94 -35.69)"/><path class="cls-16" d="M243.12,45.82l-1.25,4.41c-3.66,1.93-8.88.46-11.53-3.23,0.49-1.39.23-3,1.35-4.22Z" transform="translate(-109.94 -35.69)"/><path class="cls-17" d="M176.47,189.56c0.08,1.25,0,2.11-1.15,2.26-0.59.08-4.49-5.28-4.4-6a1.57,1.57,0,0,1,1.52-1.61h0.18C175.63,184.86,175.42,187.85,176.47,189.56Z" transform="translate(-109.94 -35.69)"/><path class="cls-2" d="M188.59,209.71c-0.18,1-.28,2.38-1.48,2.27-2-.18-2-2.1-2.32-3.57a1.27,1.27,0,0,1,1.42-1.65C188.07,206.85,188.33,208.31,188.59,209.71Z" transform="translate(-109.94 -35.69)"/><path class="cls-18" d="M182.73,206.27c-1.64-.48-1.38-1.6-1.33-2.78s0-2.12,1.38-2.1,1.76,1.19,1.69,2.42S184,206,182.73,206.27Z" transform="translate(-109.94 -35.69)"/><path class="cls-19" d="M176.4,214.94c0.07,1.09-.28,1.8-1.13,1.64a2.72,2.72,0,0,1-2.22-2.32,1,1,0,0,1,.84-1.14H174C175.42,213.08,175.93,214.15,176.4,214.94Z" transform="translate(-109.94 -35.69)"/><path class="cls-20" d="M287.65,89.42c0.25,1.4-.55,2.46-1.17,3.57l-2-4.57Z" transform="translate(-109.94 -35.69)"/><path class="cls-21" d="M292.77,196.06c-11.22-7.42-19-5.17-27.15,7.89-8.38-4.16-9.24-15.08-2-21.16,2.6-2.18,5.51-2.43,8.57-2.43H394.1c4.93,0,9.9-.66,14.8.51a12.14,12.14,0,0,1-2.42,24H337.55c-4.64,0-9.28.18-13.93,0.28-3.27-5-8.67-7.1-13.57-9.69-2.4-1.27-5.83.07-7.65,1.87-2.58,2.57-4.29,2-6.53,0a4.67,4.67,0,0,0-2.07-.39Z" transform="translate(-109.94 -35.69)"/><path class="cls-22" d="M143.67,102.7c4.16-3.5,8.3-7,12.5-10.48,1.21-1,2.64-1.76,3.2-3.35,4.42,0.74,6-3.47,8.93-5.29,3.65-2.28,6.79-5.38,10.16-8.12,1.23-.43,1.87-2.52,3.57-1.47,0.84,0.52.37,1.55,0.07,2.35l-36.18,43.77c-3.44-2.21-4.22-6.11-5.8-9.44-0.68-1.44,0-3.15,1.23-4.4C142.35,105.23,143.49,104.27,143.67,102.7Z" transform="translate(-109.94 -35.69)"/><path class="cls-22" d="M230.35,47l11.53,3.23c1.32,2.3,3.85,2.44,6,3.14,4.49,1.49,9.1,2.64,13.65,3.92,1.61,0.6,3.65-.07,4.9,1.63a2,2,0,0,1-.67,2.43c-11.55-1.79-23.12-3.49-34.64-5.45-1.65-.28-4.69.39-4.63-2.57C226.51,50.73,226.68,47.64,230.35,47Z" transform="translate(-109.94 -35.69)"/><path class="cls-23" d="M133.87,123.56c-2.57-3.59.33-6.53,1.3-9.63,0.35-1.13,1.62-.22,2,0.44,1.79,3.18,4.62,5.91,4.49,10Z" transform="translate(-109.94 -35.69)"/><path class="cls-24" d="M129.63,128.2c-0.37,2-1.36,3.15-3.29,2.92a2.8,2.8,0,0,1-2.7-3.31,2.65,2.65,0,0,1,2.78-2.51l0.22,0a2.83,2.83,0,0,1,3,2.66Q129.63,128.09,129.63,128.2Z" transform="translate(-109.94 -35.69)"/><path class="cls-25" d="M150.21,127.73c-0.61,1.78-1.58,2.91-3.47,2.78a2.55,2.55,0,0,1-2.53-3,2.77,2.77,0,0,1,3-2.94C149.21,124.7,149.72,126.27,150.21,127.73Z" transform="translate(-109.94 -35.69)"/><path class="cls-26" d="M282.42,59.62c-0.06,1.68-.89,2.69-2.66,2.68a2.26,2.26,0,0,1-2.51-2.38,2.59,2.59,0,0,1,5.16-.42S282.42,59.58,282.42,59.62Z" transform="translate(-109.94 -35.69)"/><path class="cls-27" d="M215.21,56.34c1.51,0.14,2.49.88,2.56,2.43a2.43,2.43,0,0,1-2.58,2.82,2.35,2.35,0,0,1-2.57-2.39C212.48,57.45,213.5,56.56,215.21,56.34Z" transform="translate(-109.94 -35.69)"/><path class="cls-28" d="M285.36,83.1c-2.19.09-3.22-.74-3.33-2.16a2.3,2.3,0,0,1,2.49-2.76,2.18,2.18,0,0,1,2.42,2.37C287,82,286.33,83,285.36,83.1Z" transform="translate(-109.94 -35.69)"/><path class="cls-29" d="M223.53,44.23c-1.66-.1-2.87-0.67-3-2.48a2.33,2.33,0,0,1,2.08-2.56h0.28a2.52,2.52,0,0,1,2.87,2.53C225.93,43.32,225,44.06,223.53,44.23Z" transform="translate(-109.94 -35.69)"/><path class="cls-30" d="M182.11,76.34c-0.49-3.3-2.4-.68-3.64-0.88L181,72.63c1.18-.25,2.4-2.6,3.45-0.59S183.72,75.34,182.11,76.34Z" transform="translate(-109.94 -35.69)"/><path class="cls-31" d="M296.75,84.56c0.74-3.4,1.36-6.84,2.24-10.2,1.57-6,4.84-8.54,11-8.59,10.49-.08,21,0.07,31.46-0.06,3.39,0,5.59,1.37,6.87,4.31,4.8,11,10,21.85,8.66,34.62-0.87,8.65-.24,17.46-0.11,26.2a6.76,6.76,0,0,1-2.62,6c-7,5.69-13.86,11.55-20.76,17.38a8.09,8.09,0,0,1-5.47,2.27c-15-.06-30,0-45,0a2,2,0,0,1-2-.6c0.57-.89,1-1.9,2.24-2.1,3.33-1.17,6.65-.63,10.09-0.58,9.32,0.13,18.62.61,28-.16,14-1.15,19.68-12.67,29-19.56,1.27-.93,1.45-2.45,1.29-4-0.15-3.68-3.62-2-5.27-3.25-1.29-1.64-3.5-2.48-4.09-4.73a2.23,2.23,0,0,1,1.06-1.61c2.39-1.64,6.2.33,7.85-2.81,1.36-2.59-.27-5.41-0.13-8.15,0.15-3.19-.28-6.43.08-9.58,1-8.41-3-15.47-6-22.79-0.53-1.3-1.2-3-3-2.75-2.11.36-1.8,2.4-1.79,3.92,0.06,5.25-.08,10.46-1.73,15.51a3,3,0,0,1-.92,1.81,2.6,2.6,0,0,1-2,.38,6.6,6.6,0,0,1-3.58-6c0.3-4.52-1.75-6.68-5.82-7.54-3.53-4.48-2.74-7.49,2.67-9.88-5.43.55-10.78,0.28-16.12,0.3-1,0-2.42-.66-2.75,1.13-0.06,2.13,1.86,2.58,3,3.77,2.45,2.61,7.13,3.41,7,8.23-2,1.68-3.73.9-5.38-.54-2.06-1.8-4.25-3.44-6.39-5.14-5.18-4.12-5.61-3.93-7.15,2.37a21.71,21.71,0,0,1-.61,3c-0.59,1.48-1.2,3-3.23,2.94C296.14,87.07,297.21,85.65,296.75,84.56Z" transform="translate(-109.94 -35.69)"/><path class="cls-32" d="M296.75,84.56l0.57,3.13a198.6,198.6,0,0,0,15.07,15.91,39.9,39.9,0,0,0,5.16,4.54,3,3,0,0,1,1.35,3.39c-0.4,1.53-1.6,1.91-3,1.72-2.41-1.28-3.86-3.94-6.68-4.63-2.44-2.65-5.65-4.42-8.11-7-1.48-1.58-2.18-.38-2.89.79-1.75,1.84-1.07,4.23-1.45,6.38a10.49,10.49,0,0,0-1.56,3.87,11.25,11.25,0,0,1-.26,1.17c-1.06,5.07-.64,5.68,4.84,7,1.15,0.86,1.75,1.9,1.17,3.36a4.63,4.63,0,0,1-4.83,2.92c-2.31-.15-3.48,1.12-3.72,3.34s-1.24,4.18-1.52,6.34c-0.23,1.79-.22,3.67,1.93,4.3s3.68-.46,4.34-2.54c1.3-4.09,3.88-7.87,3-12.51a2.7,2.7,0,0,1,.86-1.94c3.35-1.52,5.51-1,5.78,2,0.42,4.59,1.5,9.12,1.26,13.78-0.13,2.62-1.29,3.92-3.77,5.09a27.17,27.17,0,0,1-13.42,2.4c-2.9-.16-4.71,1.14-5.36,4a5.71,5.71,0,0,1-2.19,3.61l-2.3.85c2.16-13.75,5.91-27.15,8.77-40.75C291.93,104.89,294.41,94.75,296.75,84.56Z" transform="translate(-109.94 -35.69)"/><path class="cls-33" d="M304.42,175l-0.67-1.73c1.62-.86,3.38-0.74,5.12-0.74h61a12.09,12.09,0,0,1,5.13.73c-0.26,3.11-2.7,1.59-4,1.6-21.19.12-42.38,0.09-63.57,0.09Z" transform="translate(-109.94 -35.69)"/><path class="cls-34" d="M390.21,119.37c1.12,0.12,2.46.08,2.31,1.73-0.13,1.38-1.38,1.2-2.32,1.19s-2.56.17-2.55-1.43S389.1,119.45,390.21,119.37Z" transform="translate(-109.94 -35.69)"/><path class="cls-35" d="M390.08,133.09c1,0.17,2.53-.41,2.37,1.46-0.12,1.39-1.37,1.21-2.32,1.19s-2.54.2-2.42-1.52C387.82,132.8,389.16,133.24,390.08,133.09Z" transform="translate(-109.94 -35.69)"/><path class="cls-36" d="M390.21,128.56c1.28,0.08,2.54,0,2.34,1.46-0.21,1.64-1.66,1.22-2.74,1.25s-2.2-.22-2.07-1.54C387.88,128,389.53,129,390.21,128.56Z" transform="translate(-109.94 -35.69)"/><path class="cls-37" d="M390.14,117.67c-1-.21-2.54.36-2.41-1.5,0.1-1.34,1.3-1.31,2.32-1.29s2.53-.09,2.46,1.58C392.44,117.91,391.13,117.56,390.14,117.67Z" transform="translate(-109.94 -35.69)"/><path class="cls-38" d="M392.5,112.11c-0.37,1.52-1.72,1-2.74,1s-2.24.12-2-1.42,1.63-1.28,2.72-1.28S392.53,110.56,392.5,112.11Z" transform="translate(-109.94 -35.69)"/><path class="cls-39" d="M392.47,125.32c-0.14,1.53-1.26,1.36-2.26,1.37s-2.31.1-2.38-1.25,1.3-1.26,2.26-1.26S392.21,123.89,392.47,125.32Z" transform="translate(-109.94 -35.69)"/><path class="cls-4" d="M266.39,58.92c-1.65-.51-3.46-0.52-4.91-1.63a27.89,27.89,0,0,1,5,.13C267.74,57.67,267.52,58.47,266.39,58.92Z" transform="translate(-109.94 -35.69)"/><path class="cls-40" d="M137.82,106.56a2.42,2.42,0,0,1-2.25,2.58h-0.24a2.28,2.28,0,0,1-2.49-2.39c-0.1-1.61.83-2.36,2.36-2.39A2.52,2.52,0,0,1,137.82,106.56Z" transform="translate(-109.94 -35.69)"/><path class="cls-41" d="M300.66,124.51l-1.86-2.79a2.74,2.74,0,0,1-.56-3.09,2.5,2.5,0,0,1,3.43-.84l0.25,0.17a6.34,6.34,0,0,0,4.42.82,25.82,25.82,0,0,1,3.16,0,8.78,8.78,0,0,1,1.26.31c4,1.63,8.21.63,12.3,1.06,1.07-.15,2.1-0.52,3.18-0.64,6.59-.45,7-0.77,7.31-7.76a51.12,51.12,0,0,0-.27-10.88,8.9,8.9,0,0,1,.63-5.54,1.92,1.92,0,0,1,1.67-.9l1.82,0.32c2,1.09,1.38,3,1.41,4.64,0.09,5.47-.29,11,1.23,16.32a10.52,10.52,0,0,0,1.65,3.94c0.33,0.65.6,1.33,1,2,2.33,0.15,4.47.53,4.52,3.57,1.24,2.51,4.66,1.12,6,3.4,2.11,1.74,2.28,3.38.08,5.32-6.07,5.35-12,10.88-18.09,16.18a18.79,18.79,0,0,1-12,4.76c-5.1.31-10.35,1.3-15.44,0.83-6-.56-12.13,1.35-18-1.14-2-.84-4.18,1.16-6.39.43,0.07-1.59-.17-3.27.27-4.75,1-3.17,1.31-7.39,6.67-5,1.09,0.49,2.59,0,3.87.13,4.06,0.46,7.13-.65,8.1-5,1.81,0.21.84,3,2.58,2.54s1.19-2.41,1.22-3.75c0.07-4.13-1.58-8.07-1-12.33,0.36-2.88-2.58-1.89-4.2-2.34h-0.22Z" transform="translate(-109.94 -35.69)"/><path class="cls-42" d="M316,112.16c1.94-.38,2.31-1.14.55-2.36-6.78-4.73-12-11.15-17.76-16.89-1.54-1.53-1.51-3.32-1.52-5.19,2.34-4,2.08-8.67,3.77-12.8,0.46-1.13.47-2.86,2.06-3,1.28-.11.93,1.7,1.69,2.22C310,77.65,313.9,83,320.08,85.08a1.46,1.46,0,0,1,2,.17c2,3.78,5.83,6.33,7.18,10.55,0.52,3.12-.59,6.16-0.45,9.27-0.4,2.56-2.21,4.58-2.73,7.1-2.88,3.4-5.8,3.8-10.24,1.4A0.89,0.89,0,0,1,316,112.16Z" transform="translate(-109.94 -35.69)"/><path class="cls-43" d="M337.55,93c1.28-6,.16-12.18.53-18.26,0.13-2.11.07-4.33,3-4.34,2.33,0,4.45.14,5.46,3.13C348,78,350.12,82.29,352,86.66a24.85,24.85,0,0,1,1.63,11.13,138.41,138.41,0,0,0,.15,17c0.43,6.16-.72,7.13-7,6.29-1-.14-2-0.4-3-0.61-3.24-1.75-2.09-4.73-1.88-7.31,0.46-5.58,1.35-11.13,1.34-16.74,0-3.51-.33-3.58-3.55-1.48C338,95.41,338.14,93.77,337.55,93Z" transform="translate(-109.94 -35.69)"/><path class="cls-44" d="M307.91,73.84c-2.38-2-1.63-3.47,1-3.53,8-.18,15.91,0,23.86.06,1.86,0,2.5,1.23,2.26,2.94-0.29,2.09-1.53,1.92-3.18,1.47-5.09-1.37-6.3,0-5.19,5.58,0.67,2.62,1.08,5.23-.28,7.78-1.66,1-3.07.71-4.06-.94C318.84,81.31,313.1,77.88,307.91,73.84Z" transform="translate(-109.94 -35.69)"/><path class="cls-45" d="M339.06,94.67c0.19-1,.33-2,0.57-3,0.42-1.74,1.52-3,3.35-2.77,2.09,0.25,2.68,1.78,2.55,3.82-0.63,9.24-1.17,18.49-1.74,27.73l-1.15,1.2-2.77-.14c-2.09-.22-1.92-1.75-1.92-3.23,0-4.21-.35-8.47.59-12.59C339.37,102,337.86,98.28,339.06,94.67Z" transform="translate(-109.94 -35.69)"/><path class="cls-46" d="M326,87.73c-1.78-2.63-1.17-5.06.64-7.38,0.86,0.11,1.71.28,2.58,0.34,4.84,0.34,5.89,1.74,4.9,6.73-0.51,2.57,1.8,4.52,1.43,7l-0.63.71c-1.34,2.09-3,1.75-4.72.57a16.15,16.15,0,0,0-3.14-2.89C325.21,91.62,324.46,89.83,326,87.73Z" transform="translate(-109.94 -35.69)"/><path class="cls-47" d="M326,87.73c0.1,2.24-.44,4.84,3.27,4.65,1.5-.08,1.16,1.34,1.24,2.29-0.13,1.88-1.32,1.76-2.63,1.37l-7.85-11-12.16-11.2c1.17-.08,2.69-0.29,3.3.65,2.9,4.46,8.42,6.23,11,10.86A4.55,4.55,0,0,0,326,87.73Z" transform="translate(-109.94 -35.69)"/><path class="cls-48" d="M339.06,94.67c1.86,4.68,1.26,9.28-.24,13.94-1.13,3.49-.25,7.19-0.64,10.78-0.14,1.31.79,1.71,1.71,2.14-3.35,0-2.1-2.69-2.15-4.16-0.26-7.52-.25-15-0.33-22.58l0.15-1.8Z" transform="translate(-109.94 -35.69)"/><path class="cls-49" d="M353.21,128.62c-2.31-.61-6.85,2.76-6-3.4C349.39,125.95,353.72,123,353.21,128.62Z" transform="translate(-109.94 -35.69)"/><path class="cls-50" d="M300.77,124.56c2.33,2.45,2.23,5.17,1,8.08a24.67,24.67,0,0,0-2.13,5.69c-0.69,4.42-3.18,5.61-7.34,5.39-2.86-.15-4.22-1.27-3.83-3.91,0.63-4.3,1.52-8.56,2.48-12.79,0.4-1.76,1.8-2.55,3.68-2.27a14.43,14.43,0,0,0,6-.22Z" transform="translate(-109.94 -35.69)"/><path class="cls-51" d="M296.62,101.27c0.2-1.55-.16-3.65,1.48-4.27,1.92-.73,3.24,1.22,4.16,2.51,2.24,3.13,6,4.56,8.21,7.61,0.69,1.1,1.93,2,1.51,3.53-1,1.14-1.18,3-3,3.52a10.09,10.09,0,0,1-2,.16c-2.24.48-3.36-1.84-5.31-2.09a5.94,5.94,0,0,1-2.68-2A10.92,10.92,0,0,1,296.62,101.27Z" transform="translate(-109.94 -35.69)"/><path class="cls-52" d="M299.21,118.23l-0.4,3.49c-0.73,0-1.45-.06-2.18,0-4.11.25-5.21-1.67-3.9-5.37,0.38-1.08.73-2.18,1.09-3.26,1.38,1.34.62,3.24,1,4.12-0.37-.89.34-2.78-1-4.13a4.39,4.39,0,0,1,1.08-4c2-1,2.45.91,3.42,1.84A12.09,12.09,0,0,1,299.21,118.23Z" transform="translate(-109.94 -35.69)"/><path class="cls-53" d="M296.92,111.34l-2-2.28c0.09-2.7.18-5.41,1.72-7.79l3.57,8.29C299.92,111.68,298.45,111.56,296.92,111.34Z" transform="translate(-109.94 -35.69)"/><path class="cls-54" d="M311.39,110l-0.92-2.88,5.58,5a0.57,0.57,0,0,0-.08.47c-0.46,1.32-1.52,1.46-2.7,1.36C311.14,113.38,311.07,111.79,311.39,110Z" transform="translate(-109.94 -35.69)"/><path class="cls-55" d="M313.36,113.44l2.61-.81c3,0.25,6.19,1.66,8.92-.94,2.34-2.19,1.65-4.93,1.4-7.59L327.91,96l2.63-1.37a8.1,8.1,0,0,0,4.41.51c0.13,8,.23,15.93.41,23.9,0,2-1,2.52-2.71,2.5-2.17,0-4.36.19-6.43-.72-1.23-.91-2.62-0.3-4-0.41a26.18,26.18,0,0,0-6.32-.4c-1.84,0-3.34-.5-4-2.42C311.53,115.93,311.52,114.37,313.36,113.44Z" transform="translate(-109.94 -35.69)"/><path class="cls-56" d="M318.16,142.11a16.34,16.34,0,0,1-3.29-.87A2.59,2.59,0,0,1,313.5,138a2.34,2.34,0,0,1,2.55-1.85c5.76,0,11.54-.21,17.28.11,3.82,0.21,1,3.82,2.21,5.48-1.46,1.81-3.49,1.09-5.31,1.12C326.21,142.89,322.12,143.21,318.16,142.11Z" transform="translate(-109.94 -35.69)"/><path class="cls-57" d="M296.92,111.34l3.29-1.78,2.27,1c2.7,1.31,1.32,5.25,4.19,6.46,0.9,0.91,2.44,1.75.32,3-3.2,2.1-5.32-.5-7.76-1.77C296.51,116.56,297.28,113.77,296.92,111.34Z" transform="translate(-109.94 -35.69)"/><path class="cls-58" d="M315.7,124.47c1.45,0,2.91-.09,4.35,0,1,0.08,2.2.21,2,1.71a2.18,2.18,0,0,1-1.89,2.11c-2.89.24-5.81,0.64-8.69,0-1.17-.26-2.3-0.92-2.06-2.37,0.2-1.27,1.37-1.35,2.4-1.38h3.93v-0.08h0Z" transform="translate(-109.94 -35.69)"/><path class="cls-59" d="M312.85,117.56c3.35,2,7.27.17,10.7,1.62a1.63,1.63,0,0,1,.35,2.23c-3.71.06-7.42,0.06-11.13,0.2a4.56,4.56,0,0,1-3.82-1.49C309.36,117.85,309.89,115.82,312.85,117.56Z" transform="translate(-109.94 -35.69)"/><path class="cls-60" d="M318.16,142.11l17.37-.4c-0.27,1-.58,2.29-1.66,2.31a85.11,85.11,0,0,1-15.39-.78A2.89,2.89,0,0,1,318.16,142.11Z" transform="translate(-109.94 -35.69)"/><path class="cls-61" d="M312.85,117.56c-2.44-.88-2,2.55-3.9,2.56h-0.56c-0.69-2.44-2.22-5,.75-7,0.62-1.1.4-2.84,2.25-3,1,1,.17,2.94,2,3.43Z" transform="translate(-109.94 -35.69)"/><path class="cls-62" d="M309.15,113q-0.37,3.52-.75,7c-0.53.78-1,.4-1.44-0.08,0.45-1.27-.64-1.36-1.33-1.76-2-2.22-.11-3.62,1.08-5.17h2.44Z" transform="translate(-109.94 -35.69)"/><path class="cls-63" d="M323.9,121.36l-0.35-2.23c2.2-1.46,2.67-.24,2.67,1.71Z" transform="translate(-109.94 -35.69)"/><path class="cls-64" d="M326.29,104.1c1.81,2.66.38,5.6,0.71,8.39a0.83,0.83,0,0,1-1.1.92c-0.89-.21-0.81-1.06-1-1.72Z" transform="translate(-109.94 -35.69)"/><path class="cls-65" d="M306.7,113.07c0.4,1.88.45,3.69-1.08,5.17-0.4.54-.71,1.42-1.23,1.56-0.9.25-.89-0.69-1.16-1.36-1-2.57-.12-5.29-0.79-7.87C305.3,109,305,112.77,306.7,113.07Z" transform="translate(-109.94 -35.69)"/><path class="cls-66" d="M293.82,113.06a2.76,2.76,0,0,1,1.07.67c1,1.88,2.09,3.79,1.09,6a1,1,0,0,1-1.35.42l-0.13-.08c-1.52-1.55-.54-3.5-0.68-5.28v-1.71h0v0Z" transform="translate(-109.94 -35.69)"/><path class="cls-67" d="M331.13,111.93c-1.41-3.18.52-5.87,0.64-8.8C333,106.23,331,109,331.13,111.93Z" transform="translate(-109.94 -35.69)"/></svg>