<svg id="Слой_1" data-name="Слой 1" xmlns="http://www.w3.org/2000/svg" viewBox="0 0 535.08 85.81"><defs><style>.cls-1{fill:#c76b5d;}.cls-2{fill:#884941;}.cls-3{fill:none;}.cls-4{fill:#a05047;}.cls-5{fill:#a55248;}.cls-6{fill:#a25347;}.cls-7{fill:#a45349;}.cls-8{fill:#a35347;}.cls-9{fill:#a8574f;}.cls-10{fill:#ac5449;}.cls-11{fill:#a6554b;}.cls-12{fill:#be675f;}.cls-13{fill:#b45a4a;}.cls-14{fill:#9e5046;}.cls-15{fill:#a25147;}.cls-16{fill:#984f45;}.cls-17{fill:#b2584a;}.cls-18{fill:#9a5045;}.cls-19{fill:#9d5046;}.cls-20{fill:#a45147;}.cls-21{fill:#a45247;}.cls-22{fill:#a95548;}.cls-23{fill:#b1564a;}.cls-24{fill:#9f5146;}.cls-25{fill:#aa5248;}.cls-26{fill:#a95348;}.cls-27{fill:#bf695b;}</style></defs><title>miningbg</title><rect class="cls-1" x="4.66" y="5.11" width="280.59" height="75.8"/><path class="cls-2" d="M71.79,266.58c12.41,3.52,16.54,0,21.85,3.06,11.67,6.74-1.81,27.51,12.51,43.41,3.94,4.37,8.3,6.52,13,8.83,23.29,11.46,49.91,7.86,69,5.88,70.73-7.34,70.37,4.12,107-5.46,34.39-9,29.17-17.65,68-32.48,24-9.17,42-12,147.51-22.58,24.26-2.44,51.18-5.1,80.42-7.9v81.9H56v-81.9a56.46,56.46,0,0,0,13.45,6.52Z" transform="translate(-55.99 -255.42)"/><path class="cls-2" d="M56,259.34a18.41,18.41,0,0,1,3.89-1.92c7-2.49,13.32,2,21.06,2.89,4,0.48,7,2.65,9.69,5.32,6.28,6.21,11.15,13.71,17.85,19.54,6.09,7.52,13.25,12.88,23.65,11.73,4.55,0.56,5.68,5,8.32,7.62,2,2,3.23,4.4,6.57,3.74,0.54-.11,0-0.28.39,0.06,4.52,4.26,11.23,3.83,16,7.56a4.37,4.37,0,0,1,.84,1,7.27,7.27,0,0,0,4.46,4.84,43.68,43.68,0,0,0,16.3,0c5.29-1.12,10.45-2.07,15.62.43a4.73,4.73,0,0,0,3.82-.22c5.38-2.29,9.3.72,13.33,3.43,0.67,1.12-.15,2.23-0.07,3.53,3-.34,5.84,0,7.57,2.94a1,1,0,0,0,1.48.54c2.48-2.16,6.6-1.89,8.07-5.48a10.84,10.84,0,0,1,4.32-4.75,3.55,3.55,0,0,1,1.2-.32c4.26-.7,4.87,2,4.79,4.82,6,1.42,12.17-2,18,1.51,1.06,0.63,1.88.2,2.51-.86a14.92,14.92,0,0,1,2.4-3.6c5.29-4.91,9.07-11.46,16-14.59a4.79,4.79,0,0,0,1.59-2c1.85-2.74,2.93-6.19,6.66-7.19,2.58-.54,3.4-2.56,4-4.76a18.43,18.43,0,0,0,1.44-4.72,36.68,36.68,0,0,0-.39-10.43c-0.58-4.26-.14-8,4.77-9.9,2.91-1.11,4.66-3.9,6.29-6.45,2.5-3.91,5.26-7.2,10.45-7a3.41,3.41,0,0,1,1.31-.17,6.18,6.18,0,0,1,3.29,0c4.47,2.25,9.39,1.32,14.09,1.93,5.19,0.68,10.42-.65,15.65-0.2a2.13,2.13,0,0,0,1.29-.16c7.46-4.8,15.17-1.6,22.81-.76,0.78,0.07,1.56.13,2.34,0.17,27.39,0.11,54.77,0,82.15.09a42.37,42.37,0,0,0,6-.9c3.32,0.91,6.65.08,10,.07H582.62c2.7,0,5.63-.47,7.69,2.07l-1.7.83C503.37,301,430.7,318.3,380.27,326.35c-63.34,10.11-130.35,11.76-182.62,13.05-34.82.86-63.9,0.68-84.5,0.33Z" transform="translate(-55.99 -255.42)"/><line class="cls-3" x1="0.01" y1="3.92" y2="3.92"/><line class="cls-2" x1="534.32" y1="3.32" x2="535.08" y2="3.92"/><path class="cls-4" d="M286.89,307.78c0.12-2.39-.28-3.5-2.66-1.4-2.57,2.26-4.9,4.8-9.17,3.46-2.47-.78-3.35-1.91-3.42-4.19a11.16,11.16,0,0,0,0-1.3c-1.28-8.34,1.81-13.57,10.49-14.91a11.29,11.29,0,0,0,2.41-1c7.39-3.08,7.39-3.07,13.15,2.66a2.37,2.37,0,0,0,1.23-.1,5.84,5.84,0,0,1-1.45,4.61,15.76,15.76,0,0,0-4.46,5.27C290.26,302.52,288.69,305.25,286.89,307.78Z" transform="translate(-55.99 -255.42)"/><path class="cls-5" d="M106.89,286.58c1.4,0.77,2.45.52,3.88-.42,3.6-2.37,7.42-2.92,11.21-.06a29,29,0,0,0,5.48,3.45c3.84,1.71,5.3,4.55,4.81,8.59-6.93.93-13.81,1.77-18.53-5.21C112,290.28,108,290,106.89,286.58Z" transform="translate(-55.99 -255.42)"/><path class="cls-6" d="M217,326.16a4.73,4.73,0,0,0,4.95.11,7.53,7.53,0,0,1,5.65-.74c-0.56-1.6-1.33-3,.51-4.18s2.51,0,3.77.72c2.68,1.45,5.73,1.25,8.68,1.37a12.88,12.88,0,0,0-3.27,3.73c-2.81,5.34-8.53,6.9-13.68,9-1.36.55-2.55-.35-1.37-1.85,2.54-3.19-.09-3.39-2.08-3.65-2.15-.28-4.36-0.12-6.53-0.2-0.87,0-2-.12-2.09-1.15s0.94-1.3,1.82-1.37C214.78,327.83,216.3,327.88,217,326.16Z" transform="translate(-55.99 -255.42)"/><path class="cls-6" d="M240.46,323.48c0.8-1.82.48-5,2.25-5.34,3.6-.66,6.71-2.76,10.29-3.07,1.78-.15,2.47.93,1.41,2.88-2.43,4.48.28,8.75,5.65,9.11,3.55,0.24,6.86-.93,10.2-1.88-1.43,1.39-2.81,2.83-4.29,4.16-1,.94-2.43,1.39-3.54.35-2.53-2.38-5.21-1.87-8.06-.87a3.52,3.52,0,0,1-2.49,0c-2.4-1.25-4.29-.94-6.22,1-1.75,1.76-3.8.7-4.94-.7s0.84-2,1.74-2.71c0.73-.59,1.3-1.18.92-2.17C242.78,322.78,241.6,323.17,240.46,323.48Z" transform="translate(-55.99 -255.42)"/><path class="cls-7" d="M125.8,323.74c-0.34-2-1.17-4,1-5,2-.93,3.22.51,4.45,1.81,1.59,1.68,3.08,1,4.57-.26,1-.85,2.15-2.58,3.5-0.55,1.16,1.74.24,3-1.49,3.78-2.33,1-2.72,3.16-3.09,5.37-0.49,3-3.1,3.28-4.48,1.83C128.3,328.76,123.88,327.82,125.8,323.74Z" transform="translate(-55.99 -255.42)"/><path class="cls-8" d="M209.8,333.81c-4.26-.26-8.52-0.41-12.76-0.82-2.52-.24-1.38-3.25-2.9-4.43-0.44-.34,0-1.1.66-1.3,1.46-.46,2.49.34,3.46,1.28a5,5,0,0,0,4.08,1.09C205.48,329.42,207.84,330.88,209.8,333.81Z" transform="translate(-55.99 -255.42)"/><path class="cls-9" d="M136.11,308.14c-1.2,2.09-2.82,4-5.41,4.45a1.51,1.51,0,0,1-1.74-1.93c0.61-2.73,3-3.32,5.28-3.86A1.31,1.31,0,0,1,136.11,308.14Z" transform="translate(-55.99 -255.42)"/><path class="cls-10" d="M162.81,318.11c2.45,0.42,4.92,3.32,7.26-.79,0.78-1.38,2.47.69,3.17,1.82,0.9,1.45-.37,1.64-1.41,1.77a12.45,12.45,0,0,0-4.84,1.71C165.36,321.37,163.69,320.1,162.81,318.11Z" transform="translate(-55.99 -255.42)"/><path class="cls-11" d="M142.12,327.87c-0.66-.17-2.68.21-2-1.41a6.5,6.5,0,0,1,4.69-3.52,1.4,1.4,0,0,1,1.87,1.68C146.36,327.06,144.93,328.18,142.12,327.87Z" transform="translate(-55.99 -255.42)"/><path class="cls-12" d="M293.05,300.89a1.64,1.64,0,0,1-.41-0.13c-1.8-1.13-.47-2.19.39-2.54,1.65-.66,1.51-4.38,4.48-2.6C296.92,298.14,295.83,300.23,293.05,300.89Z" transform="translate(-55.99 -255.42)"/><path class="cls-13" d="M149.36,296.68c0,1.47.52,3.33-1.48,3-2.38-.38-3.46-2.57-3.72-4.73-0.22-1.77,1.46-2.57,2.93-2.34C149.43,293,149.77,294.84,149.36,296.68Z" transform="translate(-55.99 -255.42)"/><path class="cls-14" d="M179.36,314.07c2.05,0.78,2.79,3.26,4.33,4.92,0.23,0.24-1,1-1.72.78-2.2-.7-4.63-1.32-5-4.12C176.74,314.32,177.83,314,179.36,314.07Z" transform="translate(-55.99 -255.42)"/><path class="cls-15" d="M215.64,314.51c-0.48.9-.2,2.39-1.71,2.66-1.22.22-1.79-.53-2.17-1.6a28.6,28.6,0,0,0-1.3-2.71,2,2,0,0,1,.6-2.69c1.41-.85,1.8.33,1.88,1.37C213.08,313.31,215.82,312.5,215.64,314.51Z" transform="translate(-55.99 -255.42)"/><path class="cls-16" d="M216.74,324.15c-1.42-.55-2.83-1.45-2.83-3s1.68-1.86,3-1.9a2.17,2.17,0,0,1,2.46,2.4,2.55,2.55,0,0,1-2.6,2.5h0Z" transform="translate(-55.99 -255.42)"/><path class="cls-16" d="M240.55,313.49c-0.1,1.13.07,2.6-1.54,2.65-2.19.07-2.43-1.81-2.59-3.36a1.82,1.82,0,0,1,2.11-2.15C240.12,310.8,240.61,312,240.55,313.49Z" transform="translate(-55.99 -255.42)"/><path class="cls-17" d="M257.55,305.47a1.25,1.25,0,0,1-1.74,1.3c-1.53-.33-3.19-0.82-3.47-2.65-0.22-1.38,1-1.49,2-1.49C256.27,302.65,257.09,303.9,257.55,305.47Z" transform="translate(-55.99 -255.42)"/><path class="cls-18" d="M243.81,297.35A2.45,2.45,0,0,1,241,295a1.69,1.69,0,0,1,2.25-1.81c1.25,0.25,3,.6,2.94,2.47C246.15,297.16,244.71,297.15,243.81,297.35Z" transform="translate(-55.99 -255.42)"/><path class="cls-15" d="M231.7,286.53c1.71,0.25,2.23,1.51,2.7,2.66a1.24,1.24,0,0,1-1.26,1.75c-1.36,0-2.66-.39-2.77-2A2.76,2.76,0,0,1,231.7,286.53Z" transform="translate(-55.99 -255.42)"/><path class="cls-19" d="M192.48,312c1.66,0.29,2.18,1.63,2.49,3.06,0.15,0.69,0,1.66-.94,1.55-1.87-.21-2.3-2-2.89-3.34C190.8,312.42,191.62,312,192.48,312Z" transform="translate(-55.99 -255.42)"/><path class="cls-20" d="M205.24,320c0.16,1-.36,1.55-1.14,1.5-1.27-.08-2.67-0.32-3.23-1.6-0.48-1.09.53-1.44,1.41-1.53A2.6,2.6,0,0,1,205.24,320Z" transform="translate(-55.99 -255.42)"/><path class="cls-21" d="M203.69,305.25c1.47,0,1.9,1,2.13,2.16,0.18,0.91.11,1.82-1,1.92-1.51.14-1.73-1.17-2.12-2.22A1.22,1.22,0,0,1,203.69,305.25Z" transform="translate(-55.99 -255.42)"/><path class="cls-22" d="M234.24,318.2a1.34,1.34,0,0,1-1.56,1.56,1.88,1.88,0,0,1-1.89-1.87s0,0,0-.06a1.81,1.81,0,0,1,1.73-1.64C233.83,316.1,234.11,317.15,234.24,318.2Z" transform="translate(-55.99 -255.42)"/><path class="cls-23" d="M258.36,309.79c-1.67,1.69-2.71,3-4.58,2.79a1,1,0,0,1-.64-1.26l0.06-.14C254.09,309.13,255.78,309.38,258.36,309.79Z" transform="translate(-55.99 -255.42)"/><path class="cls-24" d="M208.6,319.48a3.24,3.24,0,0,1-1.95-3.07,1,1,0,0,1,1.48-1,2.79,2.79,0,0,1,1.79,2.71A1.13,1.13,0,0,1,208.6,319.48Z" transform="translate(-55.99 -255.42)"/><path class="cls-25" d="M215.13,271.38c0,1.06-.24,1.92-1.08,1.81-1.33-.17-1.72-1.4-1.86-2.52-0.11-.87.57-1.21,1.38-1.12A1.72,1.72,0,0,1,215.13,271.38Z" transform="translate(-55.99 -255.42)"/><path class="cls-26" d="M210.9,300.55a2.46,2.46,0,0,1,2.29,1.9,1.08,1.08,0,0,1-1,1.54,2,2,0,0,1-2.06-1.81A1.33,1.33,0,0,1,210.9,300.55Z" transform="translate(-55.99 -255.42)"/><path class="cls-22" d="M233.66,276.41c-1.17,0-1.32-1-1.51-1.73a1.45,1.45,0,0,1,.95-2c1.05-.16,1.37.79,1.43,1.63S234.76,276,233.66,276.41Z" transform="translate(-55.99 -255.42)"/><path class="cls-5" d="M224.91,278.06c-1.06-2.15-2.35-3.22-1.12-4.73a1.18,1.18,0,0,1,1.15,0C226.1,274.51,225.75,275.81,224.91,278.06Z" transform="translate(-55.99 -255.42)"/><path class="cls-27" d="M246.75,326.52c1.82-1.49,2.94-2.3,4.45-1.35a0.8,0.8,0,0,1,.08.76C250.26,327.5,248.92,327.05,246.75,326.52Z" transform="translate(-55.99 -255.42)"/></svg>