<svg id="Слой_1" data-name="Слой 1" xmlns="http://www.w3.org/2000/svg" viewBox="0 0 260.1 260.1"><defs><style>.cls-1{fill:#d4c4b9;}.cls-2{fill:#d4c4ba;}.cls-3{fill:#d5c6b8;}.cls-4{fill:#b75048;}.cls-5{fill:#8b4945;}.cls-6{fill:#ad4e48;}.cls-7{fill:#cd7d47;}.cls-8{fill:#b86947;}.cls-9{fill:#d3c5b7;}.cls-10{fill:#b66947;}.cls-11{fill:#3b5b5e;}.cls-12{fill:#53b0b3;}.cls-13{fill:#426b6d;}.cls-14{fill:#3f5e62;}.cls-15{fill:#8a4c47;}.cls-16{fill:#477470;}.cls-17{fill:#c94d44;}.cls-18{fill:#cb7b47;}.cls-19{fill:#c54e46;}.cls-20{fill:#fcf4ee;}.cls-21{fill:#c15049;}.cls-22{fill:#fcf6ed;}.cls-23{fill:#fef9f3;}.cls-24{fill:#56aaa8;}.cls-25{fill:#984c47;}.cls-26{fill:#8d4946;}.cls-27{fill:#8d4a46;}.cls-28{fill:#8d4a45;}.cls-29{fill:#8e4a46;}.cls-30{fill:#a5504b;}.cls-31{fill:#436c6e;}.cls-32{fill:#faf5ec;}.cls-33{fill:#874845;}.cls-34{fill:#8c4944;}.cls-35{fill:#d5c1b7;}.cls-36{fill:#f6efe9;}.cls-37{fill:#8a4846;}.cls-38{fill:#3f575a;}.cls-39{fill:#914b46;}.cls-40{fill:#fdf8f0;}.cls-41{fill:#8d4948;}.cls-42{fill:#4d8886;}.cls-43{fill:#8cb5b2;}.cls-44{fill:#bd4f47;}.cls-45{fill:#81605e;}.cls-46{fill:#914a46;}.cls-47{fill:#974c46;}.cls-48{fill:#3e685c;}.cls-49{fill:#53a8a5;}.cls-50{fill:#bd5049;}.cls-51{fill:#52b0b1;}.cls-52{fill:#456f66;}.cls-53{fill:#683c3d;}.cls-54{fill:#56afb1;}.cls-55{fill:#c54e4b;}.cls-56{fill:#cb4c4a;}.cls-57{fill:#6b766b;}.cls-58{fill:#c34e4a;}.cls-59{fill:#486b6f;}.cls-60{fill:#914a47;}.cls-61{fill:#924a48;}.cls-62{fill:#c84d48;}.cls-63{fill:#844644;}.cls-64{fill:#744142;}.cls-65{fill:#734042;}.cls-66{fill:#ceaa97;}.cls-67{fill:#dca49c;}.cls-68{fill:#d3867b;}.cls-69{fill:#e49944;}.cls-70{fill:#3e5e61;}.cls-71{fill:#cec4bc;}.cls-72{fill:#8b4946;}.cls-73{fill:#3e6560;}.cls-74{fill:#69767a;}.cls-75{fill:#50abb3;}.cls-76{fill:#687665;}.cls-77{fill:#2f4d53;}.cls-78{fill:#e9c3a5;}.cls-79{fill:#d3c1bc;}.cls-80{fill:#d3c2bb;}.cls-81{fill:#d3c4b9;}.cls-82{fill:#cec4b9;}.cls-83{fill:#477275;}.cls-84{fill:#4eb0b5;}.cls-85{fill:#47716c;}.cls-86{fill:#476f73;}.cls-87{fill:#5d6c66;}.cls-88{fill:#cbc1ba;}.cls-89{fill:#56a09b;}.cls-90{fill:#517d74;}.cls-91{fill:#b4c2b5;}.cls-92{fill:#467571;}.cls-93{fill:#477475;}.cls-94{fill:#d2c4b8;}.cls-95{fill:#46736d;}.cls-96{fill:#51a5ae;}.cls-97{fill:#6f9c9d;}.cls-98{fill:#d19992;}.cls-99{fill:#c28c90;}.cls-100{fill:#e1a19d;}.cls-101{fill:#d8aba6;}.cls-102{fill:#c34d45;}.cls-103{fill:#51aca5;}.cls-104{fill:#d0c3ba;}.cls-105{fill:#cfc2ba;}.cls-106{fill:#30392f;}</style></defs><title>mining5</title><path class="cls-1" d="M341.33,335.61v-205q128,0,256-.1c3.42,0,4.1.67,4.1,4.1q-0.19,116-.1,232c-8.65,1.16-17.45,4.18-25.35-2.58-2.92-2.5-6.07-2.54-8.88.36a11.19,11.19,0,0,1-9.45,3.57,18.1,18.1,0,0,1-3.94-.32c-1.08-.33-2.14-1.19-3.3-0.14-3.43.8-6.87,0.5-10.32,0.31a10.24,10.24,0,0,0-4.59-.12,52.71,52.71,0,0,1-9.52.2,13,13,0,0,0-5.33-.1,49.54,49.54,0,0,1-10.36-.07,9.54,9.54,0,0,0-3.82,0,52.85,52.85,0,0,1-9.5.2,13,13,0,0,0-5.34-.1,53.64,53.64,0,0,1-9.6,0,13.11,13.11,0,0,0-6.1,0,72.88,72.88,0,0,1-7.77,0,15.86,15.86,0,0,0-5.23-.14,16.93,16.93,0,0,1-2.34.19c-5.67.13-11.35-.6-17,0.07a42.71,42.71,0,0,1-4.76-.16,9.44,9.44,0,0,0-5.82,0,44.94,44.94,0,0,1-4.78.18,10.63,10.63,0,0,1-8.32-3.31c-1.44-2.91-.94-6-0.68-9a9.78,9.78,0,0,0,0-3.93c-0.25-3-.76-6,0.54-8.93a5.65,5.65,0,0,1,3.58-1.9c3.21-.25,5.67,1.68,8.34,2.95,32.42,15.31,63.63,12.42,92.47-8.16,21.51-15.36,32.88-37.42,35.69-63.76,0.55-5.14-.18-5.9-5.17-6-1.16,0-2.33,0-3.49,0a7.08,7.08,0,0,1-3.8-.87c-1.63-1.89-1.43-4.8-3.55-6.44-1.66-3.46-.14-7.37-1.57-10.86-0.69-.85.54-2.49-1.23-2.89-3.91.13-7.8-.82-11.68,0a4.35,4.35,0,0,0-.78,1.53,4.88,4.88,0,0,1-1.86,1.59c-4.68,2.17-3.85-2.83-5.69-4.37,0.57-2.59,2.74-5.4-1-7.37-1.48-1.26-2.95-2.68-4.67-.29a2.28,2.28,0,0,1-2.47-.46c-1.86-1.53-3.73.71-5.59,0A4.42,4.42,0,0,1,506,235c-1.83-1.93-2.87-4.36-4.19-6.61,1.78-5.14,2.86-5.76,7.85-4.47a29,29,0,0,0,6.62-1.9c3.29-1.17,4-5.66,1-7.34-2.74-1.55-5.76-3.43-9.26-1.74-4.93,0-6.58-1.37-6.94-6a22.62,22.62,0,0,0-.77-5.78c-0.67-3.74-.22-7.52-0.29-11.28a11,11,0,0,1,1.81-5.85,9.21,9.21,0,0,0,2-5c0.19-2.44-.78-3.8-3.28-4-1.66-.12-3.32-0.09-5-0.1q-28.64,0-57.29,0c-4.2,0-7.59-.07-8.84-5.61-0.7-3.12-4.54-5.16-7.72-6.59-2.8-1.25-2.58,1.16-3.07,2.94-2,7.12.41,14.18,0.12,21.26-0.09,12,0,23.9,0,35.84,0,2.48.19,5-.7,7.38s-1.43,4.6.8,6.56a4.49,4.49,0,0,1,.24,2.3c-0.82,4.29,0,8.64-.56,12.94-0.28,1.6-.84,3.13-1.24,4.7a14.62,14.62,0,0,0-.49,4.89c0.08,4.91.16,9.81,0,14.71-0.08,2.27-.14,4.71-3,5.51-3.18-3.09-1.49-7.05-1.78-10.62-0.23-2.9-.58-5.25-4.21-5.2-6.5-.18-13-0.1-19.5-0.07-5.21,0-6,.95-5.39,6.34,2.32,21.45,10.43,40.14,26.25,55.19,1.77,1.69,4,3.16,4.19,6a3.82,3.82,0,0,1-.72,2.32c-1.65,1.24-3.49,1.13-5.37.75a4,4,0,0,0-4.9,0,28.28,28.28,0,0,1-10.16,0c-1.06.21-1.69-3.07-3.06-.37a7.24,7.24,0,0,1-5.29.25,4.84,4.84,0,0,1-1.82-1.25c-2.28-3.41-5.27-5-9.42-3.72-2.67,1-4,3.81-6.65,4.92a5.79,5.79,0,0,1-4.34-.2c-1.39-2.68-2.08.56-3.18,0.39a31.51,31.51,0,0,1-10.52.08c-1.3-.21-2.13-3-4-0.56C343.38,336.78,342.11,336.28,341.33,335.61Z" transform="translate(-341.33 -130.52)"/><path class="cls-2" d="M415.45,390.55l-74.12.06v-50c2-1.79,4.5-.47,6.69-1.08a43.08,43.08,0,0,1,10.23,0,8.46,8.46,0,0,0,3.67.12,9,9,0,0,1,5.14.35c1.19,0.67,1.85,1.87,2.77,2.81,3.12,3.17,7.28,3.31,10.54.27,1.08-1,1.74-2.44,3.14-3.13a9.56,9.56,0,0,1,5.16-.31,8.57,8.57,0,0,0,3.66-.09,39.22,39.22,0,0,1,10.08,0,8.5,8.5,0,0,0,4.38.12,9.77,9.77,0,0,1,4.61.08c1.94,0.93,3.86,1.87,4.82,4a21.11,21.11,0,0,1,.18,8,9.58,9.58,0,0,0,0,3.83c0.29,2.9.65,5.8-.38,8.64-3.29,4.58-3.31,6.08-.12,10.56,1,2.23.78,4.54,0.49,6.86a8.69,8.69,0,0,0-.07,3.72C416.59,387.17,416.75,389,415.45,390.55Z" transform="translate(-341.33 -130.52)"/><path class="cls-3" d="M601.33,390.61l-181.11-.06c-1.32-1.66-1.24-3.51-.71-5.41,0.39-.54-0.08.16,0.15-0.43,0.32-.82,2.9-1.8,0-2.61a10.29,10.29,0,0,1,0-7.18,13.38,13.38,0,0,1,4.05-4,20.34,20.34,0,0,1,9.72-.25,3.25,3.25,0,0,0,4.7,0,26.59,26.59,0,0,1,10.59.06c0.53,0.4-.13-0.06.45,0.16,0.81,0.29,1.72,3.25,2.6.05a22.29,22.29,0,0,1,12.13.09c4.49-.32,9-1.41,13.48-0.36,1.7,1.16,3.38.68,5.06-.08a24.94,24.94,0,0,1,9.12.1,3.06,3.06,0,0,0,4.53,0,32.87,32.87,0,0,1,10.3-.17,9.59,9.59,0,0,0,3.83,0,39.72,39.72,0,0,1,10.35,0,7.59,7.59,0,0,0,4.61,0c3.59-.49,7.19-0.2,10.79-0.3,0.83,0,1.66,0,2.49,0,3.54,0.13,7.1-.19,10.63.27,0.76,0.13,1.5.32,2.25,0.5a11.08,11.08,0,0,0,3-.44c2.85-.33,5.7-0.62,8.51.28,1.28,0.56,1.92,1.79,2.84,2.74,3.53,3.63,7.06,3.81,10.86.53,1.38-1.19,2.53-2.66,4.3-3.35a16,16,0,0,1,7.91,0c1.54,1.76,3,1.17,4.38-.22,2.83-.35,5.69-0.87,8.22,1.09v19Z" transform="translate(-341.33 -130.52)"/><path class="cls-4" d="M592.34,371.63c-1.06,1.95-2.12,2-3.2,0-3.48-4-4.71-3.95-8.85,0-6,8.57-12.79,8.59-17.13.07-1.77-1.8-4.29-2.72-5.77-4.87,3.47-.06,6.36-0.52,8.85-3.85,2.74-3.65,9.17-2.79,12.08,1.26a5.16,5.16,0,0,0,4.9,2.41c6-.09,12.07-0.06,18.11-0.08v1a4.88,4.88,0,0,1-4.17,1.22A4.79,4.79,0,0,0,592.34,371.63Z" transform="translate(-341.33 -130.52)"/><path class="cls-5" d="M592.34,371.63c-1.22-3.12-.29-4.48,3.16-4.11,1.92,0.21,3.89.07,5.83,0.09v4Z" transform="translate(-341.33 -130.52)"/><path class="cls-6" d="M347.42,340.66c-2,2.25-4.05-.87-6.08,0v-5c2,0.82,4.1-2.54,6.11.06A3.79,3.79,0,0,1,347.42,340.66Z" transform="translate(-341.33 -130.52)"/><path class="cls-7" d="M547.39,264.11l3.94,0.57c2.18,3,1.44,6.41.84,9.64-2.36,12.76-6.75,24.64-14.83,35-10,12.94-23.1,21-38.62,25.93-12.42,3.91-24.83,3.1-37,.32a70.48,70.48,0,0,1-29.93-15.18c-1.39-1.18-2.56-2.67-4.14-3.6a11.87,11.87,0,0,1-6.24-10.14,9.75,9.75,0,0,1-.31-1.61c-0.29-3.54-.09-7.1-0.24-10.65-0.1-2.68-.36-5.4,1.22-7.82a1.12,1.12,0,0,1,1.65.53c1.48,5.19,5.48,8.54,8.78,12.44,13.83,16.32,32.06,21.09,51.63,16,17-4.4,30.6-14.87,36.55-32.88,1.68-5.08,3.54-10,3.49-15.43a3.49,3.49,0,0,1,2.15-3.63C533.38,262.93,540.41,262.22,547.39,264.11Z" transform="translate(-341.33 -130.52)"/><path class="cls-8" d="M422.4,306.6c2.33,8.91,10,12.74,16.73,17.39a70.16,70.16,0,0,0,20.36,9.86,78.34,78.34,0,0,0,18.57,2.64c13.34,0.51,25.37-3.61,37.21-9.89,15.38-8.16,24.84-21,31.27-36.24,3.35-7.91,5.56-16.68,4.8-25.68,0.83-.06,1.66-0.17,2.48-0.18,8.31-.1,8.46,0,7.46,8.1-2.65,21.59-10.84,40.64-26.68,55.85-23.55,22.61-51.46,30.3-83.42,23.81-9.88-2-18.61-6.77-27.68-10.74-2.63-2.72-.5-7.21-3.64-9.74a5,5,0,0,1,.46-5.54c1.43-1.77,1.15-3.62.72-5.57C421.23,316,419.5,311.05,422.4,306.6Z" transform="translate(-341.33 -130.52)"/><path class="cls-9" d="M418.32,238.17l0-1a34.8,34.8,0,0,0-.29-6.76c-0.39-11.34-.11-22.67-0.18-34,0.12-.82.36-1.62,0.5-2.44s0.22-2.11,1.5-2.25a2.44,2.44,0,0,1,2.33,1.58c1.37,2.47,2.4,5.13,4.2,7.36,0.62,0.77,1.12,1.9,2.25,1.67,1.52-.31,1.27-1.76,1.3-2.87,0.12-3.66,0-7.33.11-11,0.1-2.3.64-4.73,3.32-4.82,7.59-.25,15.24-1.5,22.75.82a5.63,5.63,0,0,1,1.7,1.8,50.2,50.2,0,0,1,1.73,5.37c1.55,5.18-.45,9-4.6,12-4.73.84-9.55-.09-14.27,0.79-1.13,0-2.16-.66-3.49-0.87,0.29,11.73.56,23.12-.1,34.5-0.9,6.65.39,13.4-.86,20-1.29,2.17-1.26,4.88-2.85,6.93-2.91,1.89-6.5.24-9.46,1.82-2.12,2.07-.89,4.71-1.2,7.07s0.68,5-1.63,6.93c-2.55-1.13-2.15-3.52-2.22-5.58-0.15-4.48-.08-9,0-13.46a15.85,15.85,0,0,0-.65-5,22.56,22.56,0,0,1-.35-5.16C418.1,247.11,417.32,242.61,418.32,238.17Z" transform="translate(-341.33 -130.52)"/><path class="cls-10" d="M412.5,333.53c-2.08-4-5.85-6.65-8.85-9.85C391.73,311,385.42,295.82,382.55,279c-0.77-4.54-3.32-10.27-.58-13.41s8.78-.79,13.36-1c4-.19,8,0.06,12,0.12a7.09,7.09,0,0,1,1.21,4.21c-0.34,8.47,3.64,15.89,5.69,23.79a8.29,8.29,0,0,1,.38,1.64,92.57,92.57,0,0,1,.18,9.53c0,5.81.33,11.63-.23,17.43-0.37,1.75-.89,3.49-0.19,5.29C415,329.2,416.67,332.14,412.5,333.53Z" transform="translate(-341.33 -130.52)"/><path class="cls-11" d="M433.38,264.11c0.53-1.91-2.1-5,2.11-5.54a3.87,3.87,0,0,1,2.62-1.57,14.69,14.69,0,0,1,2.42.28c0.83,0,1.64-.13,2.47-0.13,1.12,0.11,2.19.48,3.32,0.49,4.76-.59,9.54-0.31,14.3-0.45,1.64,0.12,2.21-.79,2.44-2.29s0.15-3,2-3.52a1.23,1.23,0,0,1,.76.6c2.39,6.1,3.53,6.4,8.63,2.17,1.28-1.06,2.42-2.28,3.8-3.22a25.25,25.25,0,0,0,3.5-3.16c3.6-2.36,6.32-5.92,10.37-7.7a1.89,1.89,0,0,1,1.69,1,3.33,3.33,0,0,1,.12,1.38,8.1,8.1,0,0,1-1.12,2.51c-2.38,3.31-5.92,5.36-8.82,8.11a18.21,18.21,0,0,1-3.17,2.52c-0.37.46-1.22,0.51-1.12,1.36,0.81-.18,1.39-0.85,2.18-1.07a4.55,4.55,0,0,1,3,.23c3,1.52,6.14,1,9.27,1,4.12-.12,8.24-0.15,12.36,0,6.13,0.13,12.26-.07,18.38,0l1.85,0c5.8,0.39,11.75-1.28,17.41,1.16,4.38,0,3.35,3.2,3.32,5.78l-22,.45c-1.91,1.69-4.27,1.66-6.6,1.66q-39.36,0-78.72,0C437.73,266.18,435,266.75,433.38,264.11Z" transform="translate(-341.33 -130.52)"/><path class="cls-12" d="M456.1,185.23c-7.39-1.53-14.86-.29-22.29-0.59-2.61-.11-2.31,1.81-2.33,3.44,0,4.48,0,9-.06,13.44,0,1.14.11,2.41-1.22,3-1.5.68-2.46-.21-3.46-1.18-3.17-3.07-4.35-7.33-6.52-11.06-1.79.58-.65,2.42-1.57,3.27-2-2.69.26-6-1.3-8.8-0.42-7.42-1.25-14.81-.18-22.28,0.65-4.5,1.56-5.37,5.48-2.76s9.35,4,9.05,10.66c-0.1,2.34,2.7,1.3,4.11,1.31,20.76,0.06,41.52,0,62.28,0,2.41,0,6-1,6.7,1.66,0.8,3,1.46,6.92-2,9.46a12.78,12.78,0,0,1-5.86,1.57c-8.46-.78-16.91-0.26-25.36.29C466.52,185.06,461.14,186.92,456.1,185.23Z" transform="translate(-341.33 -130.52)"/><path class="cls-13" d="M493.29,242.42a5.65,5.65,0,0,1,0-.8c4-3.66,2.09-8.48,2.47-12.84-1-1.9-2.67-2.33-4.59-1.83s-3.87-.05-5.76-0.64c-7.14-2.22-8.19-4-6.79-11.51,3.33-3.55,7.75-4.39,12.23-4.24,3.11,0.11,4.33-.83,4.32-3.81,0-2.16-.11-4.41,2.31-5.61,1.07-.1,2,0.06,2,1.41-0.57,4.77,0,9.58-.29,13.87,0.47-4.25-.54-9.05.54-13.77a1.38,1.38,0,0,1,1.55-1.28c2.08,1.84.87,4.27,1.23,6.43,0.49,2.91,1.62,5.29,5.35,3.64,0.47-.18,1.35-0.15,1.29.1-1,4.56,2.61,9.07.12,13.62-4.08-2.2-6-.4-6.82,3.62a10,10,0,0,1,1.13,5.4,13.15,13.15,0,0,0,1.22,6.64,2.61,2.61,0,0,1-.62,2.26C500.46,245.35,496.81,245,493.29,242.42Z" transform="translate(-341.33 -130.52)"/><path class="cls-14" d="M413.69,293.78l-0.51-1.18c-0.52-3.67-2.56-7.41.55-10.9,1.91-.93,1.49-2.7,1.51-4.29q0.11-8.34.19-16.68a3.33,3.33,0,0,1,4.61-.39c1,5.19.08,10.44,0.47,15.64,0.12,1.55-.69,3.29.72,4.65a2.85,2.85,0,0,1,1.18,1c0.93,1.67,1.39,3.35-.05,5l-0.73,7.27A7.36,7.36,0,0,1,413.69,293.78Z" transform="translate(-341.33 -130.52)"/><path class="cls-15" d="M544.06,258.34a78.37,78.37,0,0,1-17.71.07c-2.58-3.94-1.59-7.85.07-11.76,0.67-.18,1.58.09,1.78-1,4.79-.58,9.59-1.31,14.25.71C546.17,249.94,543.58,254.35,544.06,258.34Z" transform="translate(-341.33 -130.52)"/><path class="cls-16" d="M509.35,225.17c0.08-4.63-2.57-9-1.41-13.72,6.21-1.8,12.36,1.85,12.38,7.21,0,2.51-.6,4.18-3.36,4.53S512.13,225.4,509.35,225.17Z" transform="translate(-341.33 -130.52)"/><path class="cls-17" d="M412.5,333.53c2.47-2,1.53-4.47.83-6.88,2.06-1.16,2.63.42,3.08,1.81,0.66,2,2.13,2.79,4,3.11,2.87,0.35,3,2.41,3,4.64,0,1.77.07,3.54,0.11,5.31-0.45,1.65-1.91,1.09-3,1.37-1.52,1.56-3.15,2.28-5.12.75a11.3,11.3,0,0,1-4.05-3.11c-0.8-1.84-.19-3.44.85-5Z" transform="translate(-341.33 -130.52)"/><path class="cls-18" d="M413.73,281.71l-0.55,10.9c-3.61-9-7-18-5.89-27.94,5-1.18,6.75.64,6.2,5.77C413.09,274.14,413.61,277.94,413.73,281.71Z" transform="translate(-341.33 -130.52)"/><path class="cls-19" d="M423.55,371.93c-0.05,2-1.33,2.63-3.05,2.79a4.23,4.23,0,0,1-5.24.12c-2.41.06-3.31-1.33-2.75-3.42,0.65-2.43-2.3-6.24,2.59-7.11a4.92,4.92,0,0,1,5.52.1c2.82,0,4.4,3.73,7.62,2.55C427.33,369.22,424.15,369.35,423.55,371.93Z" transform="translate(-341.33 -130.52)"/><path class="cls-20" d="M549.74,227.43c0-1.7,6.66-5.41,8.82-4.44a24.84,24.84,0,0,0,9.2,1.75c1.6,0.09,3.17,1.17,3,2.72-0.17,1.8-2.12,1.1-3.32,1.12-5,.08-10,0.06-15,0C551.47,228.58,550.05,229.07,549.74,227.43Z" transform="translate(-341.33 -130.52)"/><path class="cls-21" d="M383.49,340.77c-5,8.11-12.08,8.12-16.44,0-1.54-1.58-2-3.29-.61-5.21,1.67-2,2.57-4.9,5.82-5.11a1.52,1.52,0,0,1,.43,1.17,17.63,17.63,0,0,0-.85,4.4,5.09,5.09,0,0,0-.36,4.87c0.54,1.52,1.84,1.21,3,1.24,2.12,0.81,3.86.69,4.67-1.82,1.34-1.7.39-3.35-.11-5a1.82,1.82,0,0,1,1.44-1.42,3.35,3.35,0,0,1,2.09.5l0.89,1C385.59,337.22,385.61,339,383.49,340.77Z" transform="translate(-341.33 -130.52)"/><path class="cls-22" d="M482.79,157.57c-6.49,0-13,0-19.46,0-0.87,0-1.79-.3-1.47-1.42a3,3,0,0,1,2.42-2.24c3.94-.72,7.77-2.34,11.81.34,1.87,1.24,4.52,1.28,6.82,1.86Z" transform="translate(-341.33 -130.52)"/><path class="cls-23" d="M384.77,189.6c-6.13,0-12.27,0-18.4,0-0.84,0-1.76-.2-1.61-1.33,0.12-.89.94-1.19,1.69-1.59,6.58-3.52,12.35-.1,18.34,1.49Z" transform="translate(-341.33 -130.52)"/><path class="cls-24" d="M507.41,234.83c1.49-.07,2.59-0.94,3.81-1.68,1.61-1,2.32-.15,2.11,1.6a1.7,1.7,0,0,1-.3.4c-1.49,1.89-2.94,3.8-.59,6,1.47,1.39,2.94,1.27,4.31-.22,2.35-2.56,0-4.06-1.31-5.79,2.33-6.06,3.5.19,5.24,0.5,3.25,2.73.95,5.48,0,8.23a2.54,2.54,0,0,1-1.35,1.62,11.82,11.82,0,0,1-3.58,1.15c-4.15.09-7.28-1.38-8.53-5.66C507.13,238.94,506.56,236.87,507.41,234.83Z" transform="translate(-341.33 -130.52)"/><path class="cls-25" d="M521.45,371.72l-11.88.17c-1.78-1.7-1.75-3.44-.1-5.2l11.88,0.14C523.65,368.42,524.37,370,521.45,371.72Z" transform="translate(-341.33 -130.52)"/><path class="cls-26" d="M478.19,371.76c-4.67.12-9.39-.44-14,1a2.49,2.49,0,0,1-.34-1.35c0.24-2.21.59-4.33,3.45-4.56l9,0C479.74,367.46,479.06,369.57,478.19,371.76Z" transform="translate(-341.33 -130.52)"/><path class="cls-27" d="M492.45,371.73H481.3c-2-1.65-2.3-3.28.05-4.88l11,0C494.71,368.45,495.28,370.06,492.45,371.73Z" transform="translate(-341.33 -130.52)"/><path class="cls-28" d="M403.21,340.62l-11.76.24c-1.61-1.81-1.7-3.58.17-5.28l11.58,0C404.8,337.28,404.77,338.95,403.21,340.62Z" transform="translate(-341.33 -130.52)"/><path class="cls-29" d="M347.42,340.66q0-2.49,0-5l11.8-.21a3.49,3.49,0,0,1,0,5.28Z" transform="translate(-341.33 -130.52)"/><path class="cls-25" d="M507.22,371.79l-11.82-.07c-1.57-2-1.4-3.66,1-4.89l10.88-.06A3.44,3.44,0,0,1,507.22,371.79Z" transform="translate(-341.33 -130.52)"/><path class="cls-30" d="M370.36,341.5c-0.92-2.24-1.4-4.4,1.06-6a3.5,3.5,0,0,0,.92-3.88l-0.07-1.09c4.72-2,8.07-.51,10.32,3.93l-2.2.12a3.69,3.69,0,0,0-2.71-.74c0.17,0.87,1.1,1.07,1.48,1.73,3.23,1.7,3.24,3.44.06,5.22l-0.59-.31q-3.65-4.14-6.55.56C371.6,341.49,371.12,342,370.36,341.5Z" transform="translate(-341.33 -130.52)"/><path class="cls-31" d="M515.45,235.17c2.94-.54,4,1.29,3.77,3.62s-1.35,4.39-4.14,4.66c-3,.3-4.79-1.52-5.28-4.07-0.45-2.36.44-4.55,3.53-4.63A1.9,1.9,0,0,0,515.45,235.17Z" transform="translate(-341.33 -130.52)"/><path class="cls-32" d="M388.48,234.78c-2.21-.82-6.16,1.18-6.27-1.5-0.1-2.33,4-2.76,6.59-2.59s7.12-1.49,7,2.09C395.57,236.55,390.9,233.64,388.48,234.78Z" transform="translate(-341.33 -130.52)"/><path class="cls-33" d="M449.06,371.68l-11.55,0c-1.64-1.87-1.56-3.47.75-4.72h5.21a22.45,22.45,0,0,0,3.4.14C450.51,367.24,451.14,368.81,449.06,371.68Z" transform="translate(-341.33 -130.52)"/><path class="cls-34" d="M423.55,371.93c-1.46-4.51,2.24-4.16,4.69-5l5.13-.07c3.13,1.35,3.35,2.41,1,4.82Z" transform="translate(-341.33 -130.52)"/><path class="cls-35" d="M519.3,244.77l1-1a0.53,0.53,0,0,1,.91-0.21c2,0,2.09,1.68,2.53,2.94,0.84,2.42,1.75.5,2.64,0.13q0,5.88-.07,11.76l-1,.06c-0.58-.31-1.45-0.49-1.64-1-1.36-3.69-2.39-7.49-5.4-10.38C517.54,246.38,518.24,245.24,519.3,244.77Z" transform="translate(-341.33 -130.52)"/><path class="cls-25" d="M538.34,371.53l-2.14,0c-3.83-1.07-7.77,0-11.64-.58-1.58-1.71-1.21-3,.76-4.08l11-.09c1.87,0.46,2,2.13,2.44,3.56A1.41,1.41,0,0,1,538.34,371.53Z" transform="translate(-341.33 -130.52)"/><path class="cls-36" d="M365.65,312.67c-1.63-.33-3.33.5-3.94-1.12-0.68-1.81,1.2-2.08,2.21-2.75,1.32-.87,2.23-2.41,4.25-2.2,2.29,0.24,4.14,1.61,4.49,3.39,0.54,2.8-2.29,1.25-3.53,1.81A17.42,17.42,0,0,1,365.65,312.67Z" transform="translate(-341.33 -130.52)"/><path class="cls-37" d="M464.31,371.76l-0.09,1c-4.09-2.05-8.43-.56-12.65-0.92-1.88-3.24-1.07-4.83,2.8-4.77a39.34,39.34,0,0,0,6.89-.15l2-.2A5.18,5.18,0,0,1,464.31,371.76Z" transform="translate(-341.33 -130.52)"/><path class="cls-38" d="M417.35,186.76c2.05,2.7.5,5.92,1.3,8.8,0.15,12.07-.71,24.16.62,36.22a1.94,1.94,0,0,1-2.9-.35c1.38-3.68.87-7.52,0.89-11.3C417.34,209,417.33,197.88,417.35,186.76Z" transform="translate(-341.33 -130.52)"/><path class="cls-39" d="M420.62,364.4l-5.52-.1q0-4.76.08-9.52c1.72-1.67,3.46-1.66,5.2,0Z" transform="translate(-341.33 -130.52)"/><path class="cls-25" d="M551.28,372.27l-1-.61c-3.56-1.43-7.36.14-11-.87-0.9-1.36-1.15-2.7.15-4l11.86-.37C552.86,368.39,553,370.33,551.28,372.27Z" transform="translate(-341.33 -130.52)"/><path class="cls-32" d="M567,178.79c-1.77-1-5.26,1.35-5.21-1.83,0-2.34,3.43-3.15,5.89-3.34s5.39,1.4,5.12,3.45C572.41,180.23,568.95,177.69,567,178.79Z" transform="translate(-341.33 -130.52)"/><path class="cls-40" d="M578.83,326.25c-4.74,3-9.29-.79-15.08.83C570.08,321.52,574.52,321.55,578.83,326.25Z" transform="translate(-341.33 -130.52)"/><path class="cls-41" d="M415.38,343.64l5.12-.75q0,4.79,0,9.58a3.63,3.63,0,0,1-5.29,0Z" transform="translate(-341.33 -130.52)"/><path class="cls-25" d="M557.39,366.87c2.51,0.93,6.11.56,5.78,4.87h-9.68c-0.92-1.62-1.46-3.25-.08-4.91Z" transform="translate(-341.33 -130.52)"/><path class="cls-42" d="M507.41,234.83c1.3,1.81.79,3.86,0.81,5.85a3,3,0,0,1-3.9.19c-3.53-1.31-1.49-4.19-1.81-6.41,1.28-1.09,2.52-.65,3.75.09Z" transform="translate(-341.33 -130.52)"/><path class="cls-43" d="M499.32,202.43l-1.73-1c-1.62-3.64,1.21-7.18.23-10.8a2.09,2.09,0,0,1,.61-1.36,2.5,2.5,0,0,1,2.89.19q0,6,.06,11.91l-1.14,1C499.95,202.89,499.64,202.89,499.32,202.43Z" transform="translate(-341.33 -130.52)"/><path class="cls-44" d="M461.26,367c-1.68,1.09-3.62.81-5.34,0.55-3.7-.56-4.47,1.36-4.35,4.38-1.1,3.38-1.7.15-2.52-.19,1.52-5.61-3.54-3.36-5.6-4.69C449.39,365.72,455.33,366.68,461.26,367Z" transform="translate(-341.33 -130.52)"/><path class="cls-45" d="M542.45,246.39c-4.77.11-9.57,1-14.25-.71a0.83,0.83,0,0,1-.79-1.1c4.9-1.46,10,.44,14.9-0.9C544.75,244.47,543.31,245.45,542.45,246.39Z" transform="translate(-341.33 -130.52)"/><path class="cls-39" d="M412.18,335.56a6.58,6.58,0,0,1-.84,5l-4.94.1c-1.3-1.68-3.11-3.34-.11-5.12Z" transform="translate(-341.33 -130.52)"/><path class="cls-46" d="M366.44,335.59q0.31,2.61.61,5.21l-5.51-.07a3.43,3.43,0,0,1,0-5.21Z" transform="translate(-341.33 -130.52)"/><path class="cls-47" d="M383.49,340.77a5.63,5.63,0,0,0,0-5.32l5.68,0.15c1.58,1.73,1.54,3.48,0,5.24Z" transform="translate(-341.33 -130.52)"/><path class="cls-48" d="M501.31,189.46l-3.11.26c-2.41-.85-2-2.47-1.13-4.2,1.73-1.7,3.76-1,5.74-.74A9.59,9.59,0,0,0,501.31,189.46Z" transform="translate(-341.33 -130.52)"/><path class="cls-19" d="M481.35,366.85a4.38,4.38,0,0,0-.05,4.88c-1,1.52-2.06,2.7-3.11,0-0.47-1.68.5-3.91-1.83-4.89C478,366.91,479.68,364.79,481.35,366.85Z" transform="translate(-341.33 -130.52)"/><path class="cls-49" d="M416.38,231.43l2.9,0.34c0.14,1.87,2.22,4.08-.94,5.37C414.07,236.47,414.88,234.07,416.38,231.43Z" transform="translate(-341.33 -130.52)"/><path class="cls-50" d="M406.28,335.51c-1.66,1.74.67,3.4,0.11,5.12-1.07,1.42-2.13,1.15-3.18,0q0-2.5,0-5C404.18,334.26,405.19,333.54,406.28,335.51Z" transform="translate(-341.33 -130.52)"/><path class="cls-51" d="M420,260.35l-4.61.39a4.76,4.76,0,0,1,.93-4.58,2.59,2.59,0,0,1,2.92.15A6.87,6.87,0,0,1,420,260.35Z" transform="translate(-341.33 -130.52)"/><path class="cls-19" d="M434.38,371.7c0.8-1.84,1.27-3.62-1-4.82,1.65-1,3.28-1.24,4.88.1-1.13,1.43-1,3.06-.75,4.72C436.46,373.73,435.42,373.72,434.38,371.7Z" transform="translate(-341.33 -130.52)"/><path class="cls-52" d="M521.25,243.57a2.51,2.51,0,0,0-.91.21c-0.08-2.71,2.12-5.33.34-8.11C525,237.85,525.1,239.67,521.25,243.57Z" transform="translate(-341.33 -130.52)"/><path class="cls-53" d="M542.32,243.69c-4.87,1.9-9.94.5-14.9,0.9a1.72,1.72,0,0,1,1.48-1.66C533.37,243.1,537.84,243.42,542.32,243.69Z" transform="translate(-341.33 -130.52)"/><path class="cls-19" d="M496.36,366.83a6.32,6.32,0,0,0-1,4.89c-1,2-2,2.35-3,0,1.49-1.64.87-3.25-.09-4.85C493.68,365,495,366.4,496.36,366.83Z" transform="translate(-341.33 -130.52)"/><path class="cls-19" d="M525.32,366.88a4.75,4.75,0,0,0-.9,3.8,0.59,0.59,0,0,1,.36.62,0.39,0.39,0,0,1-.2.37c-1,1.2-2.07,1.49-3.13.05,1.6-1.66.77-3.28-.1-4.89C522.7,365.11,524,366.43,525.32,366.88Z" transform="translate(-341.33 -130.52)"/><path class="cls-54" d="M506.26,234.54l-3.75-.08q0-2.84,0-5.68C505.05,229.88,505.47,232.33,506.26,234.54Z" transform="translate(-341.33 -130.52)"/><path class="cls-55" d="M361.55,335.53q0,2.61,0,5.21c-0.76,1.43-1.53,1.34-2.31,0q0-2.64,0-5.28C360,333.94,360.83,333.55,361.55,335.53Z" transform="translate(-341.33 -130.52)"/><path class="cls-56" d="M389.19,340.84q0-2.62,0-5.24c0.8-2.43,1.63-1.39,2.47,0q-0.08,2.64-.16,5.28C390.69,342.08,389.93,342.14,389.19,340.84Z" transform="translate(-341.33 -130.52)"/><path class="cls-57" d="M418.32,238.17l-0.07,14.45q-0.32.58-.76,0.08C417.64,247.85,416.28,242.91,418.32,238.17Z" transform="translate(-341.33 -130.52)"/><path class="cls-19" d="M507.22,371.79q0-2.51,0-5c0.71-.84,1.43-1.8,2.23-0.08q0,2.6.1,5.2C508.72,373.34,508,372.88,507.22,371.79Z" transform="translate(-341.33 -130.52)"/><path class="cls-19" d="M553.41,366.82q0,2.46.08,4.91a1.45,1.45,0,0,1-2.21.54q0-2.91,0-5.82C552.27,365,552.7,366.69,553.41,366.82Z" transform="translate(-341.33 -130.52)"/><path class="cls-58" d="M415.2,352.45l5.29,0c1.32,0.81,1.55,1.58-.1,2.27l-5.2,0C413.78,354,413.76,353.22,415.2,352.45Z" transform="translate(-341.33 -130.52)"/><path class="cls-19" d="M464.31,371.76l-1.1-5c1.44-1.95,2.76-.23,4.12.14C464.86,367.6,465.94,370.52,464.31,371.76Z" transform="translate(-341.33 -130.52)"/><path class="cls-19" d="M539.43,366.81l-0.24,3.62c-0.21.57-.51,0.65-0.9,0.14l-2-3.77C537.36,364.86,538.39,366.09,539.43,366.81Z" transform="translate(-341.33 -130.52)"/><path class="cls-59" d="M417.49,252.7a6.25,6.25,0,0,0,.76-0.08,3.47,3.47,0,0,1,1,3.69l-2.92-.15C416.09,254.79,416.86,253.77,417.49,252.7Z" transform="translate(-341.33 -130.52)"/><path class="cls-60" d="M420.48,384.79l-0.26,5.76h-4.77l-0.25-5.77Q417.84,382.27,420.48,384.79Z" transform="translate(-341.33 -130.52)"/><path class="cls-61" d="M415.26,374.83l5.24-.12q0,3.87-.09,7.75c-1.74,1.51-3.47,1.55-5.18-.06Z" transform="translate(-341.33 -130.52)"/><path class="cls-62" d="M415.23,382.4l5.18,0.06c2.13,0.7,1.54,1.5.08,2.33H415.2C413.65,384,413.79,383.18,415.23,382.4Z" transform="translate(-341.33 -130.52)"/><path class="cls-63" d="M580.29,371.67c0.72-2.73,1.65-4.63,5.33-4.23,3.09,0.34,4.15,1.28,3.52,4.21Z" transform="translate(-341.33 -130.52)"/><path class="cls-64" d="M538.29,370.57l0.9-.14c3.62,0.92,7.58-1.13,11,1.23l-11.89-.12Q538.31,371.05,538.29,370.57Z" transform="translate(-341.33 -130.52)"/><path class="cls-65" d="M524.59,371.67l-0.16-1c3.92,0.34,8-1.06,11.77.87Z" transform="translate(-341.33 -130.52)"/><path class="cls-66" d="M571.55,362.62c1,0.15,2.42-.12,2.33,1.2a2.66,2.66,0,0,1-2.32,2.69c-1.3.07-1.95-1-2.12-2.2C569.18,362.51,570.62,362.79,571.55,362.62Z" transform="translate(-341.33 -130.52)"/><path class="cls-67" d="M569.33,373.65c1.23-.5,2.35-3,3.76-0.27,0.46,0.9.59,2.14-.66,2.42-1.63.37-3.47,0.49-3.06-2.22Z" transform="translate(-341.33 -130.52)"/><path class="cls-68" d="M569.37,373.58c-1.11.25-2.24,1.73-3.33,0-0.36-.58-0.6-1.29.18-1.63,1.7-.75,2.8-0.18,3.11,1.72Z" transform="translate(-341.33 -130.52)"/><path class="cls-69" d="M422.35,286.6l-0.63-5.12c0.8-5.57-1-11.27.91-16.78l10.75-.59q41.31,0.07,82.62.15c3.14,0,6.29.2,9.43,0.31,0.19,15.2-5.18,28.37-16.26,38.49-16.63,15.2-36.09,19.83-57.63,12-10.5-3.81-18.39-11.35-25.09-20.17A24.25,24.25,0,0,1,422.35,286.6Z" transform="translate(-341.33 -130.52)"/><path class="cls-70" d="M413.5,322.52c0-6.25-.73-12.52.37-18.75,3.33-2.18,6.07-1.89,8,1.9l0.54,0.93-0.2,15.18C419.54,324.88,416.59,324.55,413.5,322.52Z" transform="translate(-341.33 -130.52)"/><path class="cls-71" d="M421.85,305.67c-2.3-2.15-5.1-2.21-8-1.9a27.34,27.34,0,0,1-.18-10l7.93,0.09A23.3,23.3,0,0,1,421.85,305.67Z" transform="translate(-341.33 -130.52)"/><path class="cls-72" d="M413.5,322.52c2.92,0,5.92,1,8.69-.73,1.12,1.86,2.29,3.6-.68,5-2.07,1-.9,3.11-1.09,4.75-2.76,1.76-4.66,1.38-5.09-2.17-0.17-1.37-.13-2.71-2-2.75C412,325.21,411.92,323.83,413.5,322.52Z" transform="translate(-341.33 -130.52)"/><path class="cls-73" d="M455.31,202.84c1.94-3.46,4.54-6.71,3.51-11.11,3.37-1.27,6.69-.47,10,0.24,0,5.5,5.36,9.64,4,15.51a3.6,3.6,0,0,1-3,1.53c-1.15-.27-2.24-1.07-3.51-0.44-2.15,1.08-4.08-1.07-6.19-.39-2.74,2.43-2.29,6-3.32,9.07-0.67,2-.46,4.35-2.67,5.61-2.56-.85-2.1-3.34-2.85-5.19a27.58,27.58,0,0,1,1.93-10.81C453.9,205.51,454.15,203.93,455.31,202.84Z" transform="translate(-341.33 -130.52)"/><path class="cls-74" d="M436.19,237.51q-0.16-13.14-.32-26.28a23.18,23.18,0,0,0,0-4.45c-1-4.65.6-5.46,4.48-3.24a3.85,3.85,0,0,1,.89,1.25,8.61,8.61,0,0,1,0,4.5,10.23,10.23,0,0,1-1.33,3.19c-0.66,1-3.18,1.48-.4,3.06,1,0.56,1,2.09.56,3.23-1.81,5-1.34,10-.17,15,0.56,2.4,0,4.37-3.15,4.19Z" transform="translate(-341.33 -130.52)"/><path class="cls-75" d="M468.84,192.57c-3.32-.48-6.79.68-10-0.84a7.61,7.61,0,0,1-1.85-5.13c4.33-2.52,8.69-2.1,13.08-.17C470.74,188.69,471.36,190.93,468.84,192.57Z" transform="translate(-341.33 -130.52)"/><path class="cls-74" d="M438.34,257.56l-2.85,1c0.66-7-.62-14.08.71-21.06l0.34,0.28c3,1.19,3.46,3,3.36,6.42C439.76,248.77,438.44,253.08,438.34,257.56Z" transform="translate(-341.33 -130.52)"/><path class="cls-76" d="M440.46,204.92l-0.15-1.38c4.94-1.45,10-.32,15-0.7-0.12,1.26.5,2.68-.79,3.7C449.9,205.44,445,207.07,440.46,204.92Z" transform="translate(-341.33 -130.52)"/><path class="cls-77" d="M469.58,186.47a22.48,22.48,0,0,0-12.62.12l-0.87-1.36c5-.87,10-1.27,14.95.21A1.1,1.1,0,0,1,469.58,186.47Z" transform="translate(-341.33 -130.52)"/><path class="cls-78" d="M422.63,264.7c-0.56,5.58,1,11.27-.91,16.78l-0.49-.84c0-3.83,0-7.66.13-11.49C421.41,267.6,420.63,265.72,422.63,264.7Z" transform="translate(-341.33 -130.52)"/><path class="cls-79" d="M469.58,186.47l1.47-1c7.09-.45,14.16-1.3,21.29-0.86,1.63,0.1,3.34-.31,4.73.95,0.77,1.3-.39,3.11,1.13,4.2a6,6,0,0,1,.15.91c0.79,1.56.86,2.94-1.19,3.44-1.85.45-4,.57-4.73-1.54-2.36-6.43-7.68-4.75-12.19-4.33-4.3.4-6.6,6.53-3.91,10,3.87,5,4.16,10.5,3,16.34-0.44,9.35,3.27,12.25,13,10.34,2.58-.51,3.87,1.42,4.87,3.47-2.82,3.62-3.41,8.11-4.82,12.28l-9.59,7.8c-1.81-.68-2.34-2.26-2.68-3.92-2.22-10.91-5-21.69-7.7-32.5a8.38,8.38,0,0,1,0-4.44c-0.61-3.17-.77-6.36-3.36-9a4.3,4.3,0,0,1-.13-6.08Z" transform="translate(-341.33 -130.52)"/><path class="cls-80" d="M440.46,204.92l11.32-.31c1.41,0,2.67.08,2.73,1.92l-2.42,10.87c0.91,5.13-1.3,9.76-2.32,14.59-1.55,7.31-3.72,14.47-5.21,21.8a5.61,5.61,0,0,1-2.07,3.84,1.86,1.86,0,0,1-2,.83,6.22,6.22,0,0,1-1.55-5.11c1.76-9.67-.15-19.37.3-29,0.23-4.87-.51-9.89,1.11-14.68Z" transform="translate(-341.33 -130.52)"/><path class="cls-81" d="M461.22,258.6l-15.51,0a1.09,1.09,0,0,1-.89-1c2-7.93,2.26-16.35,6.81-23.54a11.54,11.54,0,0,1,9.09.25,5.32,5.32,0,0,1,1.93,3.9,136.62,136.62,0,0,1,0,17.37A4.94,4.94,0,0,1,461.22,258.6Z" transform="translate(-341.33 -130.52)"/><path class="cls-82" d="M479.31,251.6c-2.16,1.78-4.43,3.43-6.44,5.36a6,6,0,0,1-6.37,1.44c-2.21-.8-0.73-3.15-1-4.79-0.11-.65-0.11-1.31-0.17-2-2.33-5.73-2.47-11.42.27-17.07,2.65-1.69,5.59-1.84,8.61-1.55C479.82,238.13,480.21,244.69,479.31,251.6Z" transform="translate(-341.33 -130.52)"/><path class="cls-83" d="M466.65,234.61c-2.23,5.54-.29,11.4-1.33,17-1.5,1.23-.92,2.94-0.94,4.45,0,2.25-1.37,2.59-3.15,2.5-0.17-8,.82-16-0.89-23.88-0.14-.86-0.36-1.71-0.42-2.58-0.45-6.4-1.45-12.78-1.06-19.23,0.13-2.12-.17-4.32,1.24-6.18,2.25-1.14,3.85,2.35,6.14.86a4,4,0,0,1,1.46,3,178.78,178.78,0,0,1-.06,21.74A4.85,4.85,0,0,1,466.65,234.61Z" transform="translate(-341.33 -130.52)"/><path class="cls-84" d="M493.29,242.42c3.68,0.09,7.38,1.77,11-.1,2.23-.65,2.73.91,3.15,2.51a44,44,0,0,1,.55,4.71c-0.53,3,.16,6.17-1.19,9.06L493,258.55c-1.87-4.63-1.17-9.35-.54-14.08Z" transform="translate(-341.33 -130.52)"/><path class="cls-85" d="M479.31,251.6c-1.69-6-.78-12.9-5.59-18-1.21-6.69-3.06-13.23-4.45-19.88-0.36-1.7-1.35-3.51.23-5.16l2.84-1c3.79,11.85,6.19,24,9.06,36.12,0.38,1.59.88,3.15,1.33,4.73Z" transform="translate(-341.33 -130.52)"/><path class="cls-86" d="M451.62,234.75l-5.91,23.81-3.21-.93c2.79-13.51,5.95-26.93,9.6-40.23l2,5.24c1.49,3.65-.45,7-1,10.4C452.78,233.77,452,234.07,451.62,234.75Z" transform="translate(-341.33 -130.52)"/><path class="cls-87" d="M440.32,209.66q0.07,24.4.15,48.8l-2.14-.9c-1.17-2.34-.87-4.56-0.38-7.14,0.79-4.19,2.2-8.8-1.42-12.63,1.79-.48,3.25-1.41,2.51-3.47-1.93-5.39-2.33-10.68.14-16a1.63,1.63,0,0,0,0-1.42C435.37,213.77,439.58,212,440.32,209.66Z" transform="translate(-341.33 -130.52)"/><path class="cls-88" d="M492.42,244.47c1.35,4.65.54,9.38,0.54,14.08-2.91-.57-6.52,2.16-8.69-1.86a3.71,3.71,0,0,1-1-4.08Z" transform="translate(-341.33 -130.52)"/><path class="cls-1" d="M506.84,258.6a18,18,0,0,1,.3-8.94c2-3.67,5.92-3,9.07-4.07l3.1-.81a4.94,4.94,0,0,0-.42,1.33c4.51,2.91,4,8.39,6.43,12.36Z" transform="translate(-341.33 -130.52)"/><path class="cls-89" d="M492.32,240.65c-0.06-4.75-.28-9.56,4.82-12.28,0.84,3.85-1,7.62-.08,11.61,0.54,2.39-2.31,1.37-3.73,1.65Z" transform="translate(-341.33 -130.52)"/><path class="cls-90" d="M483.32,252.6c0.39,1.34,1.38,2.55,1,4.08l-3-.08c-1.52.15-1.51-.72-1.2-1.79Z" transform="translate(-341.33 -130.52)"/><path class="cls-91" d="M480.1,254.82l1.2,1.79c-0.23,3.62-2.73,1.55-4.57,2.09C477.35,256.58,478.88,255.84,480.1,254.82Z" transform="translate(-341.33 -130.52)"/><path class="cls-92" d="M468.36,175.68q15,0,29.91,0c2.24,0,4.19-.24,4.26,3.17s-1.67,3.64-4.31,3.64q-30.16-.08-60.32,0c-2.28,0-4.37.07-4.47-3.16-0.11-3.41,1.9-3.65,4.52-3.63,10.14,0.06,20.27,0,30.41,0v0Z" transform="translate(-341.33 -130.52)"/><path class="cls-93" d="M429.31,202.89c-6.12-7.41-8.72-15-10-23a51.15,51.15,0,0,1,0-14.77c0.28-2.1.71-2.52,2.75-1.36,4.7,2.67,8,5.46,7.47,11.92C428.75,184.23,429.31,192.92,429.31,202.89Z" transform="translate(-341.33 -130.52)"/><path class="cls-94" d="M479.32,214.56c-0.31-3.12-1.27-6.14-1-9.35s-1.88-5.22-4-7.13c-1.59-1.43-1.8-2.53-.56-4.62,3.67-6.17,9.23-8.63,16.18-6.78,2.57,0.68,2.37,2.95,3.19,4.63,0.5,1,.46,2.4,2.25,1.82,1.36-.44,3.59.28,3-2.48,2,3.76-.19,7.23-0.77,10.8-1.53,2-.77,4.4-1.07,6.62-0.37,2.79-1.21,5.24-5.18,3.9C486.94,210.47,483.32,213.63,479.32,214.56Z" transform="translate(-341.33 -130.52)"/><path class="cls-95" d="M516.21,245.59l-9.07,4.07c-2.12-2,1.42-6.15-2.81-7.34q0-.73,0-1.46l3.9-.18C509.48,244.6,512.46,245.71,516.21,245.59Z" transform="translate(-341.33 -130.52)"/><path class="cls-96" d="M499.32,202.43a2.43,2.43,0,0,0,.91,0q0,9.41,0,18.82l-1.8,0C498.73,214.93,497.49,208.69,499.32,202.43Z" transform="translate(-341.33 -130.52)"/><path class="cls-97" d="M535.83,250.39c1.81-.26,1.82,1.06,2,2.69s-0.36,1.9-1.77,1.87c-1.79,0-3.46-.25-3.42-2.48C532.72,250.85,534.07,250.43,535.83,250.39Z" transform="translate(-341.33 -130.52)"/><path class="cls-98" d="M379.15,335.52c-1.45-.11-3.43.88-3.74-1.68-0.1-.81.11-1.82,1-1.93a3.33,3.33,0,0,1,3.94,2.62Z" transform="translate(-341.33 -130.52)"/><path class="cls-99" d="M379.21,340.74c1.24,1.32.78,2.17-.59,3.13-1.83,1.28-3,.53-4.19-0.87a1.61,1.61,0,0,1-.33-1.59c1.49-1.93,3.19-2.32,5.16-.68Z" transform="translate(-341.33 -130.52)"/><path class="cls-100" d="M372.34,331.58c1.83-.08,2.2,1.06,2.07,2.55-0.19,2.21-1.81,1.28-3,1.33C369.49,333.64,371.18,332.67,372.34,331.58Z" transform="translate(-341.33 -130.52)"/><path class="cls-101" d="M374.37,341.33q0,0.83.06,1.66c-1.94,1.1-3.59,1.39-4.07-1.49l1-.86C372.61,339.79,373.75,339.44,374.37,341.33Z" transform="translate(-341.33 -130.52)"/><path class="cls-102" d="M374.37,341.33c-0.78-1.2-2-.48-3-0.69,0.56-2,1.56-3.71,4-3.56a3.89,3.89,0,0,1,3.95,3.64C377.55,340.25,376,340.88,374.37,341.33Z" transform="translate(-341.33 -130.52)"/><path class="cls-103" d="M514.33,240.38a1.67,1.67,0,0,1-1.49-1.72c0.08-1.08,1-1.13,1.78-1.07s1.62,0.4,1.36,1.46A1.87,1.87,0,0,1,514.33,240.38Z" transform="translate(-341.33 -130.52)"/><path class="cls-104" d="M469.49,208.59c1.57,6.72,3.23,13.43,4.67,20.19,0.33,1.55,1.94,3.45-.44,4.85a14.78,14.78,0,0,1-7.06,1c-1.39-9,.41-18-0.42-27C467.86,206.18,469,206.48,469.49,208.59Z" transform="translate(-341.33 -130.52)"/><path class="cls-105" d="M452.29,233.46c-0.29-3.75,1.34-7.19,1.82-10.81,1.06-4.25,2.22-8.48,3.12-12.76,0.37-1.76.68-3.2,2.86-3.16a241.67,241.67,0,0,1,.73,26.78A12.47,12.47,0,0,1,452.29,233.46Z" transform="translate(-341.33 -130.52)"/><path class="cls-106" d="M452.29,233.46l8.53,0-0.49,1.21-8.71,0Z" transform="translate(-341.33 -130.52)"/><path class="cls-35" d="M513.42,257.62c-2-.33-5.08,1.14-5.14-3.16-0.05-3.63,1-5.16,4.93-4.59,1.83,0.26,3.87-2.35,5.84,0,1.15,1.39,2.44,2.73,1.69,4.85C519.44,258.47,516.31,257.48,513.42,257.62Z" transform="translate(-341.33 -130.52)"/></svg>