<?xml version="1.0" encoding="utf-8"?>
<!-- Generator: Adobe Illustrator 19.2.1, SVG Export Plug-In . SVG Version: 6.00 Build 0)  -->
<svg version="1.1" id="Слой_1" xmlns="http://www.w3.org/2000/svg" xmlns:xlink="http://www.w3.org/1999/xlink" x="0px" y="0px"
	 viewBox="0 0 422.1 450.1" style="enable-background:new 0 0 422.1 450.1;" xml:space="preserve">
<style type="text/css">
	.st0{fill:#8A7871;}
	.st1{fill:#5DB7C3;}
	.st2{fill:#4E9FA7;}
	.st3{fill:#597374;}
	.st4{fill:#587375;}
	.st5{fill:#52545B;}
	.st6{fill:#5FB2BC;}
	.st7{fill:#20333C;}
	.st8{fill:#597477;}
	.st9{fill:#A6D3D7;}
	.st10{fill:#A9D5D9;}
	.st11{fill:#A9D4D8;}
	.st12{fill:#91959A;}
	.st13{fill:#4EA0A8;}
	.st14{fill:#080A0C;}
	.st15{fill:#06080A;}
	.st16{fill:#0B0D0E;}
	.st17{fill:#493D29;}
	.st18{fill:#5C5A58;}
	.st19{fill:#BD904A;}
	.st20{fill:#41403F;}
	.st21{fill:#CDA54B;}
	.st22{fill:#454443;}
	.st23{fill:#CEA64B;}
	.st24{fill:#9F8C89;}
	.st25{fill:#292A2D;}
	.st26{fill:#121313;}
	.st27{fill:#C49D4A;}
	.st28{fill:#C9A44B;}
	.st29{fill:#111214;}
	.st30{fill:#0D0F10;}
	.st31{fill:#E9BE47;}
	.st32{fill:#CECBC5;}
	.st33{fill:#808186;}
	.st34{fill:#36363A;}
	.st35{fill:#5B5A59;}
	.st36{fill:#529195;}
	.st37{fill:#847B77;}
	.st38{fill:#373C40;}
	.st39{fill:#2B302F;}
	.st40{fill:#D2AD50;}
	.st41{fill:#3E4145;}
	.st42{fill:#7A6A62;}
	.st43{fill:#74625B;}
	.st44{fill:#353B3E;}
	.st45{fill:#333A3C;}
	.st46{fill:#34393E;}
	.st47{fill:#363B3E;}
	.st48{fill:#D7AB49;}
	.st49{fill:#0B1011;}
	.st50{fill:#585656;}
	.st51{fill:#4E9FA6;}
	.st52{fill:#48525A;}
	.st53{fill:#5DB7C2;}
	.st54{fill:#77665F;}
	.st55{fill:#486C6C;}
	.st56{fill:#5CB4BF;}
	.st57{fill:#519DA3;}
	.st58{fill:#435158;}
	.st59{fill:#5DB2BB;}
	.st60{fill:#51A0A5;}
	.st61{fill:#50A0A5;}
	.st62{fill:#4B4D52;}
	.st63{fill:#51A2A7;}
	.st64{fill:#71797C;}
	.st65{fill:#757A7F;}
	.st66{fill:#557C84;}
	.st67{fill:#76777F;}
	.st68{fill:#77767A;}
	.st69{fill:#75777B;}
	.st70{fill:#79777E;}
	.st71{fill:#78727A;}
	.st72{fill:#76767A;}
	.st73{fill:#75747A;}
	.st74{fill:#75777A;}
	.st75{fill:#7D787E;}
	.st76{fill:#76777A;}
	.st77{fill:#73787D;}
	.st78{fill:#75757D;}
	.st79{fill:#C3C2BB;}
	.st80{fill:#334F58;}
	.st81{fill:#715F58;}
	.st82{fill:#5DB6C1;}
	.st83{fill:#897871;}
	.st84{fill:#6A6E71;}
	.st85{fill:#89786F;}
	.st86{fill:#705F58;}
	.st87{fill:#7B6A4F;}
	.st88{fill:#6E5C56;}
	.st89{fill:#77674D;}
	.st90{fill:#76674D;}
	.st91{fill:#58595B;}
	.st92{fill:#23343C;}
	.st93{fill:#0E1011;}
	.st94{fill:#59595B;}
	.st95{fill:#C49349;}
	.st96{fill:#4A4543;}
	.st97{fill:#2B2C2C;}
	.st98{fill:#C7964A;}
	.st99{fill:#4E412A;}
	.st100{fill:#6C5C41;}
	.st101{fill:#E0B548;}
	.st102{fill:#6E5D42;}
	.st103{fill:#6A583B;}
	.st104{fill:#756750;}
	.st105{fill:#6B583A;}
	.st106{fill:#76674F;}
	.st107{fill:#4A3E29;}
	.st108{fill:#786A50;}
	.st109{fill:#9B8A86;}
	.st110{fill:#796A4F;}
	.st111{fill:#1B1E22;}
	.st112{fill:#7B6B65;}
	.st113{fill:#50432E;}
	.st114{fill:#21333C;}
	.st115{fill:#50ACBB;}
	.st116{fill:#5B5546;}
	.st117{fill:#4F432E;}
	.st118{fill:#303031;}
	.st119{fill:#84736C;}
	.st120{fill:#352F27;}
	.st121{fill:#9E8B89;}
	.st122{fill:#21201C;}
	.st123{fill:#4B3D29;}
	.st124{fill:#5E5152;}
	.st125{fill:#9C8F8A;}
	.st126{fill:#6E6F71;}
	.st127{fill:#634B51;}
	.st128{fill:#554947;}
	.st129{fill:#151411;}
	.st130{fill:#554935;}
	.st131{fill:#0B0C0D;}
	.st132{fill:#6F6866;}
	.st133{fill:#619898;}
	.st134{fill:#6A615F;}
	.st135{fill:#645A59;}
	.st136{fill:#6C5E58;}
	.st137{fill:#34322E;}
	.st138{fill:#69ABAE;}
	.st139{fill:#3C3C3C;}
	.st140{fill:#3C3B3C;}
	.st141{fill:#363638;}
	.st142{fill:#7B6B50;}
	.st143{fill:#373736;}
	.st144{fill:#535355;}
	.st145{fill:#C5954A;}
	.st146{fill:#0D0D0C;}
	.st147{fill:#51A0A7;}
	.st148{fill:#9E8F8A;}
	.st149{fill:#748C85;}
	.st150{fill:#9C8487;}
	.st151{fill:#537D82;}
	.st152{fill:#9E8F89;}
	.st153{fill:#D5BF71;}
	.st154{fill:#131310;}
	.st155{fill:#CDC9C3;}
	.st156{fill:#73635C;}
	.st157{fill:#545454;}
	.st158{fill:#65ACB3;}
	.st159{fill:#519DA4;}
	.st160{fill:#A98A4D;}
	.st161{fill:#509DA3;}
	.st162{fill:#509DA2;}
	.st163{fill:#627371;}
	.st164{fill:#4FA1A7;}
	.st165{fill:#4F9FA7;}
	.st166{fill:#686F6B;}
	.st167{fill:#857976;}
	.st168{fill:#E1B648;}
	.st169{fill:#E9C44E;}
	.st170{fill:#B89A4C;}
	.st171{fill:#484643;}
	.st172{fill:#D7C97A;}
	.st173{fill:#9C897B;}
	.st174{fill:#8C7960;}
	.st175{fill:#519FA8;}
	.st176{fill:#33383B;}
	.st177{fill:#B69448;}
	.st178{fill:#547E86;}
	.st179{fill:#557D86;}
	.st180{fill:#496E6E;}
	.st181{fill:#A4BFCC;}
	.st182{fill:#6D767C;}
	.st183{fill:#9DBAC7;}
	.st184{fill:#CFAC6A;}
	.st185{fill:#4FA0A7;}
	.st186{fill:#9E8D7A;}
	.st187{fill:#A7C1CE;}
	.st188{fill:#E1B264;}
	.st189{fill:#E4B468;}
	.st190{fill:#9FBBC7;}
	.st191{fill:#7F8589;}
	.st192{fill:#06080B;}
	.st193{fill:#C9C3BE;}
	.st194{fill:#587475;}
	.st195{fill:#567986;}
	.st196{fill:#547C84;}
	.st197{fill:#507C84;}
	.st198{fill:#509EA4;}
	.st199{fill:#519EA5;}
	.st200{fill:#579BA0;}
	.st201{fill:#569594;}
	.st202{fill:#569DA2;}
	.st203{fill:#569C9F;}
	.st204{fill:#A59D9B;}
	.st205{fill:#5FA8B0;}
	.st206{fill:#61ABAF;}
	.st207{fill:#5EAFB6;}
	.st208{fill:#0D0E10;}
	.st209{fill:#070A0B;}
	.st210{fill:#3A3B3B;}
	.st211{fill:#090A0C;}
	.st212{fill:#07090C;}
	.st213{fill:#8A7A73;}
	.st214{fill:#353537;}
	.st215{fill:#12110F;}
	.st216{fill:#5E4F34;}
	.st217{fill:#07080A;}
	.st218{fill:#050708;}
	.st219{fill:#07090B;}
	.st220{fill:#87766F;}
	.st221{fill:#353638;}
	.st222{fill:#0F0F10;}
	.st223{fill:#090C0E;}
	.st224{fill:#080C0D;}
	.st225{fill:#151714;}
	.st226{fill:#171410;}
	.st227{fill:#65766A;}
	.st228{fill:#151311;}
	.st229{fill:#131110;}
	.st230{fill:#030507;}
	.st231{fill:#404140;}
	.st232{fill:#E0BC59;}
	.st233{fill:#0F0E0D;}
	.st234{fill:#493D28;}
	.st235{fill:#12110D;}
	.st236{fill:#D1A848;}
	.st237{fill:#D3AB4A;}
	.st238{fill:#07090A;}
	.st239{fill:#080A0B;}
	.st240{fill:#030506;}
	.st241{fill:#787877;}
	.st242{fill:#665639;}
	.st243{fill:#11100F;}
	.st244{fill:#3F4042;}
	.st245{fill:#E7C34B;}
	.st246{fill:#76777B;}
	.st247{fill:#050709;}
	.st248{fill:#202025;}
	.st249{fill:#E5B361;}
	.st250{fill:#6E7376;}
	.st251{fill:#121314;}
	.st252{fill:#111213;}
	.st253{fill:#0A0C0E;}
	.st254{fill:#0C0F10;}
</style>
<rect x="26" y="231.9" class="st0" width="381" height="193"/>
<rect x="26" y="38.9" class="st1" width="381" height="193"/>
<title>mining4</title>
<path class="st1" d="M44,44.8c113.7,0,227.3,0,341-0.1c3.1,0,3.8,0.7,3.8,3.8c-0.1,40.3-0.1,80.7-0.1,121c-1.1,0.9-2.4,1.3-3.8,1.2
	c-12.8,0-25.5,0.4-38.3-0.2c-5.2-2.6-10-5.7-15.6-7.7c-1.2-0.7-2.1-1.8-2.7-3c-5.9-9.8-14-17-25.6-19.3c-0.5-0.1-1-0.3-1.5-0.6
	c-2.8-0.9-5.7-0.5-8.5-0.5c-19.6,0.2-39.3,0-58.9,0.1c-1.4,0.1-2.7-0.1-4-0.4c-1.5-0.5-1.8-1.9-2.3-3.2c-1-3.4-4.1-5.7-7.7-5.7
	c-4.1-0.2-6.8,1.7-8.4,5.3c-0.8,1.6-1.2,3.4-3.3,3.8c-6.1,0.6-12.3,0.3-18.4,0.3c-18.7,0-37.4,0.2-56-0.1c-3.6-0.4-5.6-3.2-7.7-5.6
	c-10.7-11.8-21.5-23.4-32.5-34.9c-3.7-3.8-6.9-8.1-10.9-11.6c-1.2-1.1-1.8-2.5-0.2-3.8c7.3-1.2,14.7-0.3,22-0.5
	c2.7-0.1,5.4-0.3,7.5,0.2c-3.4-1.3-6.7-2.9-9.8-4.8c-4.7-2.9-8.9-3.1-13.7-0.1c-2.9,1.8-5.9,3.9-9.7,4c-0.9-0.2-1.8-0.7-2.4-1.5
	C66,69.8,55.1,59.4,45.4,48C44.6,47,43.5,46.3,44,44.8z"/>
<path class="st0" d="M42.4,412.4V231.9c5.2-2.3,10.5-1.3,15.8-0.7c1.6,0.8,1.5,2.5,1.7,3.9c1.7,11.7,11,20,22.8,20.2
	c6.7,0.1,13.4,0.4,20.1-0.3c0.8-0.2,1.7-0.2,2.6-0.1c1.9,0.6,4,0.6,5.9,0.1c0.8-0.2,1.6-0.2,2.4,0c1.7,0.5,3.4,0.5,5.1,0
	c0.8-0.2,1.6-0.2,2.4,0c1.8,0.5,3.6,0.5,5.4,0.1c0.9,0,1.8,0.2,2.8,0.1c25-0.3,49.9-0.1,74.9-0.1c1.7,0,3.6-0.1,4.9,1.5
	c-1.2,6.5-0.1,13-0.6,19.5c0.4-6.1-0.6-12.2,0.7-18.3c2,0.8,1.7,2.6,1.8,4.2c0.1,4.1,0.1,8.2,0,12.2c-0.1,4.5-0.9,5.5-5.6,5.5
	c-11.4,0.1-22.8,0.1-34.3,0c-0.8-0.1-1.5-0.1-2.3-0.1c-24,0.1-48,0.1-72,0c-4.5-0.2-8.6,2.2-10.7,6.1c-2.4,4.2-1.6,8.1,1,11.9
	c1.8,2.8,5,4.4,8.4,4.2c5.4,0,10.9-0.1,16.4,0c1.4-0.1,2.8,0,4.3,0c1.6,0,3.2,0,4.8,0c0.7,0,1.3,0,2,0c1.3,0.1,2.7,0,4,0
	c0.9,0,1.8,0,2.7,0c1.6-0.1,3.2,0,4.7,0c1.1,0,2.3,0,3.4,0c2.5,0.1,5-0.3,7.4,0.5c1.2,0.8,1,1.5-0.2,2c-1.2,0.5-2.4-0.4-3.9,0.1
	c-0.2,0,0.6,0.5,0.5,0c0-0.2,0.1-0.2,0.4-0.2c3,0.4,2.1,2.2,0.9,3.4c-6,5.9-10.8,12.9-17.5,18.1c-1.5,0.7-3.2,0.4-4.8,0.7
	c-4.5,0.7-8.3,2.4-9.9,7.1c-0.5,1.3-0.7,2.6-0.8,4c0,0.8-0.1,1.6-0.3,2.3c-0.5,3.4-2.5,6-4.8,8.4c-9.9,10.5-19.9,21-29.8,31.6
	c-9.5,9.8-18.5,20.2-28.3,29.8C45.5,411.1,44.5,412.9,42.4,412.4z"/>
<path class="st2" d="M58.5,232l-16.1-0.1v-7.4C43,214,46.7,204,53,195.6c6.9-9.3,15-17.2,25.1-22.9c2.2-0.3,4.4-0.4,6.6-0.3
	c23.4,0,46.9,0,70.3,0c2-0.1,4.1,0,6.1,0.2c1.5,0.2,2.3,1.3,3.3,2.2c7,6.8,13.4,14.3,20.1,21.3c-6.3-6.8-12.4-13.8-19-20.4
	c-1.4-1.4-1.6-2.5,0.7-3.1c13-0.6,26-0.3,39.1-0.2c0.8,0,1.6,0.2,2.4,0.6c1.2,0.8,1.3,2,1.1,3.2c-0.9,5.7-1.7,11.4-3.5,17
	c-1.6,1.6-3.7,1.1-5.7,1.3c-1.9,0.2-4.1,0.3-4.2,3.1c-0.1,8.4,0.6,16.7-0.4,25.1c-0.6,1.4-1.4,1.6-2.2,0.1c-0.7-1.3-0.3-2.9-0.9-4.6
	c-2.3,0.4-3.9,1.3-4.2,3.9c-0.1,1.9-1.7,3.4-3.6,3.3c-0.1,0-0.2,0-0.3,0c-2.5-0.1-3.4-1.7-3.7-4c-0.2-1.3,0.6-3.1-1.4-3.8
	c-1.7-1.1-3.8-2-4.5-4.2c-0.1-1.1,0.4-2.1,0.1-3.2c-1.9-1.4-3.3-1.5-3.7,1.3c0,0.9-0.3,1.8-0.8,2.6c-0.8,0.5-1.6,0.2-2.4,0.2
	c-1.6,0-3.9,1.7-4.6-1.3c-0.6-2.8,1.3-5.4,4.3-6c-2-0.3-3.7,1.2-5.6,0.9c-1.8-0.5-3.5-1.4-4.9-2.8c-3.2-3-6.5-3.2-10.4-1.5
	c-3.7,1.6-7.8,2.2-11.6,3.6c-0.8,0.3-1.6,0.2-2.7,0.8c2.8,2.1,5.8,3.6,8.4,5.6c1.3,1,3,1.5,3.3,3.4c-0.7,1.3-1.9,1.2-3.2,1.1
	c-0.4-0.1-0.8-0.3-1.2-0.4c-4.7-1.3-5.7-0.6-5.3,4.2c0.2,2.7-0.5,4-3.3,3.5c-2.9-0.8-5.7-2.1-8.3,0.8c-0.4,0.4-1,0.4-1.5,0
	c-0.1-0.1-0.1-0.2-0.2-0.2c-0.2-0.4-0.4-0.8-0.5-1.3c-0.9-14.3-2.9-28.5-4.4-42.8c-0.5-4.7-1.1-5.1-6-5.2c-3,0-6,0-9,0
	c-5.1,0-5.5,0.3-6,5.5c-0.8,8-1.6,16.1-2.7,24c-0.8,5.5-1,11.2-1.9,16.7c-2.6,4.5-4.2,4.9-8.1,1.9c-1.5-1.1-3-2.3-4.4-3.6
	c-3-2-3.3-1.8-3.7,2.3c0,0.7,0,1.4,0,2c0,5.9,0,5.9-5.6,7.4C65,233.1,61.6,233.8,58.5,232z"/>
<path class="st1" d="M42.4,164.6V46.5c1.9-0.6,2.7,1,3.6,2.1c8.6,10,18.2,19.2,27,29.1c1.4,1.6,3.5,2.7,3.5,5.2
	c0.1,0.3-0.5,0.7-0.1,0.7c0.8-0.1,1.6-0.1,2.3,0.2C84.1,88.9,89,94.6,94.1,100c9.8,10.2,19.4,20.6,29.1,30.9c2.7,2.8,6.1,5.1,7.4,9
	c-2.6,4.7-6.5,8.6-11.2,11.2c-4.1-2-7.5,0.2-11,1.8c-1.4,0.4-2.9,0.4-4.3,0c-0.3,0-0.5-0.1-0.8-0.2c-4.4-3.2-8.7-2.5-13,0.2
	c-2.5,0.4-3.5,1.9-3.5,4.5c0,2.2,0.4,4.5-0.5,6.7c-1,1.1-2.1,0.9-3.3,0.3c-1.2-2.2-0.7-4.7-0.7-7c0-2.4-0.7-3.9-3-4.4
	c-4.2-3.6-8.5-2.7-12.8,0c-1.6,0.4-3.3,0.4-4.9,0c-4.4-2.7-8.8-3.5-13.2,0c-2.7,0.4-3.4,2.1-3.3,4.6c0,2.5,0.5,4.8-0.9,7
	C43.7,165.1,42.9,165.1,42.4,164.6z"/>
<path class="st2" d="M388.7,223.7v8.2c-2.4,1.8-5.2,0.9-7.8,1.1c-1.2,0.1-2.4-0.1-3.5-0.7c-2-1.9,0.1-3.7,0.2-5.5
	c0.5-3.2,0.1-5.7-4.1-5.5c-1,0.1-1.9-0.3-2.5-1.2c-2.5-4.7-6.4-4.5-10.7-3.3c-1.8-0.2-3-1.4-4.4-2.4c-4.1-3.2-5.6-7.9-7.7-12.3
	c-3.6-7.5-6.5-15.3-10-22.8c-0.8-1.6-1.5-3.2-1-5.1c0.8-1.6,2.3-1.7,3.8-1.7c4-0.1,8-0.3,12,0.2c8.5,5.1,16.1,11.8,22.2,19.6
	c5.3,6.5,9.3,13.8,11.8,21.8C388.1,217.3,387.7,220.6,388.7,223.7z"/>
<path class="st3" d="M119.4,150.8c4-3.2,7.4-6.9,10.9-10.7c0.3-0.8,0.9-1.4,1.6-1.6l77.1-0.1c1.4,1.4,2.1,2.9,0.4,4.6
	c-4.3,1.3-8.6,0.4-12.9,0.7c-10.7,0.2-21.4,0.1-32.1,0h-1.5c-7.9,0-15.8,0.2-23.7,0c-3.4-0.7-6.1,0.4-8.2,3.1
	c-1.6,2-4.1,3.2-5.1,5.7c-0.1,0.3-0.3,0.7-0.5,1c-1.2,0.7-2.6,1.1-3.5,2.3c-0.3,0.3-0.5,0.5-0.8,0.7c-2.7,2.9-5.6,5.6-8.1,8.6
	c-0.2,0.3-0.4,0.6-0.7,0.9c-0.8,0.8-1.9,1.4-3.2,2.8c2-0.2,3.5,0,5-0.7c1.6-0.7,3.2,0.9,4.8,0.1c0.4,0,0.8,0,1.2,0
	c1.4,0.2,2.7,0.4,4.1,0.4c1.9,0,3.7,0,5.6,0c1.4,0.1,2.8,0,4.1-0.3c0.4-0.1,0.7-0.1,1.1-0.1c1.4,0.3,2.9,0.3,4.3-0.1
	c0.5-0.1,1.1,0,1.6,0.1c1.4,0.4,2.6,0.2,2.8-1.6c0.2-1.3-0.8-2.2-1.2-3.3c-0.4-1.1-0.9-2.7,0.7-2.9c1.9-0.3,2,1.7,2.7,2.9
	c0.8,1.7,0.9,3.9,3,4.9c5,0.8,10,0.1,15,0.4c1.2,0.1,2.4,0,3.6-0.2c0.4-0.1,0.8-0.1,1.2-0.1c1.7,0.2,3.3,0.2,5,0
	c1.5,0,3.2,0.6,4.4-0.9c0.6-0.7,0.8-1.6,1.7-2c0.4,0,0.8,0.2,1,0.5c1.3,2.3,2.6,2.8,4.1,0.1c0.5-0.8,1.3-2.6,2.5-0.5
	c0,2.1,0.8,3.2,3.1,3.1c4.5-0.2,8.9-0.1,13.4,0c1.7,0,3.5-0.2,5.1,1c1.1,1.8,0.7,3.2-1,4.4l-43.4-0.1c-0.5,0.5-1.3,0.5-1.8,0l-86,0
	c-1.6,0.8-3.3,1.2-5.1,1.2c-8.3,0-16.5,0-24.8,0c-1.6,0-3.3-0.1-4.6-1.3v-4.1c0.7-0.6,1.6-1,2.6-1c1.6-0.3,3.2,0,4.8-0.3
	c0.5-0.1,1.1-0.1,1.6,0c1.6,0.2,3.1,0.3,4.7,0.3c5-0.1,10-0.1,15,0c1.5,0.1,3,0,4.4-0.2c0.4-0.1,0.8-0.1,1.2-0.1
	c1.6,0.2,3.1,0.3,4.7,0.2c2.2,0.2,4.4,0.3,6.6,0.2c1.1,0,2.3-0.1,3.4-0.3c0.5-0.1,1.1-0.2,1.6-0.1c1.6,0.1,3.2-0.3,4.7,0.5
	c3,0.5,4.6-1.5,6.4-3.3c0.4-0.4,0.8-0.8,1.2-1.2c3.9-4,8.1-7.7,11.9-11.8C117.7,151.6,118.5,151.1,119.4,150.8z"/>
<path class="st1" d="M388.7,223.7c-1.8-4.8-2.3-9.9-4.4-14.7c-6-13.5-15.5-24.2-27.4-32.8c-1.1-0.6-2-1.5-2.6-2.5
	c1.2-1.4,2.9-1.4,4.5-1.4c8.4-0.1,16.9-0.1,25.3,0c1.6,0,3.3,0.1,4.6,1.3V223.7L388.7,223.7z"/>
<path class="st1" d="M42.4,173.6l34.5,0.1c-2.5,3.3-6.2,5.2-9.3,7.8c-10.9,9.2-18.8,20.3-23.1,33.9c-0.9,3-0.6,6.2-2.1,9L42.4,173.6
	L42.4,173.6z"/>
<path class="st4" d="M388.7,173.6l-34.5,0.1c-4.5,0-8.9-0.1-13.4-0.1c-1.3,0-2.9-0.5-3.2,1.6c-2.7-1.5-3.6-3.5-1.9-6.3
	c3.1-1.1,6.5-0.9,9.4,0.5h43.4L388.7,173.6L388.7,173.6z"/>
<path class="st5" d="M93.3,168.6l-1.7,0c-1-0.7-1.5-2.1-3-2.1c-2.5,0.1-5,0.1-7.5,0c-1.6,0.2-2.7,1.5-4.2,2h-0.8
	c-1.4-0.5-2.4-2.1-4.2-1.9c-5.6,0.1-11.2,0.1-16.7,0c-1.7-0.2-2.7,1.1-3.8,2h-1.6c-1.2-0.6-2-2.1-3.6-2.1c-1.3-0.1-2.7,0-3.8-1.1
	v-0.8l1.6,0c1.5-1.3,3.3-1.2,5-1.2c9.7,0,19.5,0,29.3,0c1.7,0,3.6-0.1,5,1.3c0.8-0.6,1.9-0.5,2.7,0c0.6-0.8,1.5-1.2,2.4-1.3
	c5,0.1,10-0.1,15,0.2c0.8,0,1.6,0.4,2.1,1l-0.8,0.9c-2.3,1.5-5,0.9-7.5,1.1C95.4,166.5,94.4,167.5,93.3,168.6z"/>
<path class="st0" d="M44.8,414l-2.5,0.1v-1.6c9.5-8.1,17.2-18,26-26.8c2-2,3.7-4.3,6-6c0.3-0.3,0.7-0.3,1,0c0,0,0,0,0,0
	c0.7,1.4-0.1,2.4-0.9,3.3C64.3,392.9,55.2,404.1,44.8,414z"/>
<path class="st0" d="M387.8,409.2h0.8v4.9l-0.9-0.1c-6.8-6.2-12.7-13.4-19.1-20.1c-3.1-3.3-6.2-6.4-9.3-9.7
	c-1.1-1.2-2.9-2.3-2.2-4.4c0.3-0.3,0.6-0.5,1-0.6c2.1,0.2,3.3,1.8,4.5,3.2C370.9,391.5,379.4,400.3,387.8,409.2z"/>
<path class="st6" d="M42.4,165.4h4.6c1.1,1.7-0.9,2.6-1,4l-3.6,0.1V165.4L42.4,165.4z"/>
<path class="st7" d="M335.3,169.7l2.5,5.5c5.4,11.5,9.7,23.5,15.6,34.8c0.8,1.6,1.6,3.1,3.5,3.7c-2.8,2-5.1,1.3-6.9-1.4
	c-1.3-1.9-2.9-3.6-4.2-5.4c-1-4.3-3.8-6.9-7.9-8.3c-1-1.2-1.6-2.8-1.6-4.4c-0.1-1.4-0.4-2.6-1.8-3.3c-4.7-2.2-9.4-4.4-13.9-6.9
	c-2.7-1.5-5.4-1.7-8.1,0c-4.7,2.9-10.4,4.1-14.8,7.7c-1.3,1.8-1.4,3.8-1.4,5.9c0.1,8.2-0.4,16.3,0.3,24.5c0.2,1.4-0.1,2.8-0.9,3.9
	c-0.7,0.7-1.7,0.9-2.6,0.7c-5.2-0.7-9.2,0.8-11.4,5.8c-2.1,0.9-4.5,1-6.6,0.2c-0.4-0.2-0.6-0.5-0.8-0.9c-0.6-1.6,1.2-4.3-1.5-4.9
	c-3-0.6-6.4-1-8.7,1.8c-2,2.4-3.1,2.5-3.8-0.7c-0.2-0.8-0.9-1.4-1.7-1.5c-2.1-0.6-2.9-2.2-3.1-4.3c-0.1-1,0.6-2.8-1.5-2.6
	c-1.5,0.1-2.8,1.2-3,2.7c-1.2,4.8-3.2,5.5-7.2,3.2c-0.2-0.4-0.4-0.8-0.5-1.2c-0.4-3.9-0.4-7.9,0-11.8c4.1-7.9,7.3-16.3,11.5-24.2
	c8.5-8.3,16.3-17.2,24.6-25.7c7.3-7.5,14-15.7,21.9-22.6c0.4-0.1,0.8-0.1,1.1,0.1c11.5,1.3,19,8.4,25.3,17.2c1.2,1.6,2.3,3.3,3.4,5
	C333.6,164,335,166.7,335.3,169.7z"/>
<path class="st8" d="M302.5,139.9l-0.8,0.2c-1.6,0.9-3.6-0.2-5.2,0.6c-3.9,0.3-7.2,2.5-11,3c-5-0.3-10,0-14.9-0.1
	c-10.9,0.1-21.8,0-32.7,0.1c-2.2,0-4.4-0.2-6.3,1.3c-2.3,1.8-2.7-0.1-3.2-1.6c-0.5-1.7-0.8-3.4,0.5-4.9c23,0,46,0,68.9,0
	C299.5,138.4,301.4,137.8,302.5,139.9z"/>
<path class="st9" d="M353.7,108.4h-38.2c3.2-3.7,7.7-3.9,10.9-6.3c5.7-4.1,11.2-4.2,17.1-0.1c3.2,2.2,6.9,3.6,10.4,5.4L353.7,108.4z
	"/>
<path class="st10" d="M76,83.2c0.8-0.2,1.4-0.7,1.7-1.4c5.2-1.1,9.4-4.2,14.1-6.4c2.2-1,4-1.1,6.1,0c5.3,2.8,10.7,5.4,15.9,8.9h-32
	c-1.1,0.8-2.2,0.5-3.3,0C77.7,83.8,76.2,85,76,83.2z"/>
<path class="st11" d="M206.8,62.5l17.7-8.7c1.2-0.6,2.4-1.2,3.9-0.5c5.7,2.9,11.4,5.7,16.9,9.2L206.8,62.5L206.8,62.5z"/>
<path class="st12" d="M228.9,138.4l-0.2,4c0.5,1.4-0.3,2.5-0.9,3.7c-0.9,2.5-2.9,3.4-5.5,3.3c-2.3-0.1-4.6-0.1-6.9,0.1
	c-2.7,0.3-4.1-0.9-4.5-3.4c-0.5-1.2-1.2-2.3-1.1-3.7l-0.7-3.9c1.3-4.3,3-8.2,8-9.1C223.6,128.2,227.8,131.6,228.9,138.4z"/>
<path class="st13" d="M335.3,169.7l-4-7.5c5,1.8,10.1,3.4,14,7.4L335.3,169.7z"/>
<path class="st14" d="M274.6,231.8l7.3,0.1l0.5,0.4c1.2,2.5,0.7,5.1,0.6,7.6c-0.1,3.3,0.5,6,3.9,7.3c3.7,1.4,7.2,1.2,10.3-1.4
	c0.4-0.4,0.7-0.8,1.1-1.2c1.7-1.8,3-1.9,3.4,1c0.2,1.3,0.2,2.5,2.1,2.3c1.8-0.1,1.6-1.6,1.7-2.7c0.2-1.4-0.1-3.3,1.8-3.7
	c1.7-0.3,2.6,1.2,3.5,2.4c1.1,1.5,1.9,3.4,4,3.9c1.8,0.5,3.6,0.7,3.9-2c0.4-0.4,0.9-0.7,1.4-0.7c-0.3-0.2-0.7-0.2-1.1-0.2
	c-1.1-0.1-2.1-0.6-3-1.3c-1.4-1.8-3.3-3.3-4.1-5.6c-0.6-1.7-0.6-3.3,2.1-3c1.8,0.1,3.6,0.2,5.4,0.1c-1.6-0.3-4.1,0.7-5.4-1.1
	c-0.8-1.1,0.6-2.1,1.7-2.8c0.4-0.2,0.8-0.3,1.3-0.4c2.8-0.1,5.7-0.8,8.4,0.8c0.7,6.6,0.1,13.2,0.3,19.9c0,1.1,0.4,2.7-1.4,2.9
	c-2.3,0.1-1.8-1.6-1.8-2.9c-0.5,1.1,0.6,2.7-0.8,3.8c-2,2.1-4.6,0.8-6.9,1.3c2.3-0.5,4.9,0.7,7-1.3c3.1,0.6,4-0.7,4-3.7
	c0.1-6.7-0.7-13.4,0.4-20.1c3.3-1.5,6.7-0.7,10.1-0.8h1.5c2.9-0.1,5.7,0,8.7,0c0.5,0,1,0,1.5,0c3.2,0,6.4,0,9.6,0
	c5-0.1,10-0.1,15.1,0c1.5,0.1,3.1-0.1,4.3,1l3.4,0.3c0,0.2,0,0.5,0.1,0.7c1.1,1.5,0.7,3.1,0.3,4.7c-2.7,11.8-13.1,20.1-25.2,20.2
	c-5.7,0.1-11.5,0.1-17.2,0c-2.7,0-5.4,0.9-7.5,2.6c-7.2,5.6-14.3,11.4-22,17.2h30.4c2-0.1,4.1,0,6.1,0.3c6.9,1.5,11.1,7.1,10.6,14.4
	c-0.4,6.7-6,12-12.7,12.1c-5.2,0.1-10.4,0.5-15.5-0.3c-0.4-0.2-0.7-0.4-1-0.7c0.9-3.6-3.3-2.6-4.2-4.6c-0.2-1.2-0.1-2.4,0.1-3.5
	c3-2.5,6.3-2.8,9.9-1.8c1.5,0.8,2.1,2.4,3.2,3.6c3.6,4,8.5,4.7,12.6,1.2c3.4-3,5.2-8.5,0.6-13.4c-3.3-3.5-8.9-3.6-12.3-0.2
	c-0.1,0.1-0.2,0.2-0.3,0.3c-1.1,1-2,2.2-2.5,3.7c-0.3,1.4-1.2,2.5-2.5,3c-3.1,0.8-3.8-1.9-5.3-3.5c-2.9-3.2-3.1-3.3-6.2-0.6
	c-2.2,1.9-4.9,1.1-7.4,1.3c-4.2,0.2-4.7,0.8-4.7,5.1c0,1.6,0.6,3.3-0.6,4.7c-2.5,1.4-4,0.3-5.4-2.4c-0.9,3.2-3.2,3.3-5.6,3.1
	c-1.5-0.1-3.3-0.1-3.3-2.2c0-2.4,2.1-1.4,3.6-1.7c-2.6-0.1-4.6,0.3-6.2,2.6s-5,2.2-6.2,0.9c-2.4-2.5-6.4-2.9-7.9-6.3
	c-1.9-3.3-4.9-0.6-7.3-1.3c1.9,0.9,4.1-1.4,5.9,0.7c0.8,1.5,2.2,2.4,3.3,3.5c0.8,0.7,1.9,1.5,1.3,2.7s-1.8,1-2.9,1.1
	c-2.2,0-3.5-1.1-3.8-3.7c-3.3,3.5-6.7,5.7-11,1.6c-0.8,2.4,0.2,5.4-2.7,6.8c-7.5,0.9-15,0.3-22.5,0.4c-5.6,0.1-5.7,0.2-5.7,5.7
	c0,3.1-0.1,6.3,0,9.4c0.1,4,2.3,5.6,6.3,5.2c13.5-1.3,27-0.7,40.4-0.4c1.9,0.4,2.1,2.2,2.9,3.7c-0.3-1.6-0.8-3.1,1.2-3.6
	c7.1-0.5,14.3-0.6,21.4-0.1c6,1.8,9.7,5.7,10.9,11.9c-0.4,0.3-0.8,0.5-1.2,0.6c-5.5-0.2-11.2,0.5-16.4-2.3c-1.4-0.8-1.2-3.8-3.9-2.9
	c-0.7,0.2-1.5,0.1-2.2-0.3c-2.4-2.6-2.4-2.6-3.7,1.5c-0.4,1.1-1.1,2-1.3,3.2c-1.3,3.2-2,6.7-3.5,9.8c-0.7,1.6-1.3,3.3-3.2,4
	c-12,0.7-23.9,0.1-35.9,0.3c-2.7,0-5.4,0-8.2,0c-1.3,0-2.8-0.2-3.5,1.4c-0.7,5.2-0.2,10.4-0.3,15.6c-0.1,3,1.8,3.6,4.3,3.6h20.9
	c11.6,0,23.2-0.1,34.9,0.1c4.4,0.1,8.8,0.6,11.2,5.2c0,0.6-0.4,1.2-1.1,1.3c-0.1,0-0.1,0-0.2,0c-4.6-0.3-8.8,1.5-13.3,1.9
	c-1.8-0.3-2.9-0.3-4.1,1.8c-2,3.6-3.5,7.2-3.8,11.3c-0.1,1.8-0.4,3.5-1.8,4.8c-0.4,0.2-0.8,0.4-1.3,0.5c-6.4,0.4-12.8,0.2-19.1,0.1
	c-1.8,0-3.7-0.1-4-2.5c0.7-1.9,2.5-3.8,0.4-5.9c-0.9-0.8-9.8-1-10.8-0.2c-2.4,1.9-0.6,3.9,0,5.9c-0.2,2.5-2.1,2.7-3.9,2.7
	c-16,0.1-32,0.1-48,0c-3.2,0-4.7-1.3-3.5-4.6c0.4-0.9,1.1-1.6,2-2c3.6-1.7,7.1-3.7,10.9-5.1c-2.5,0.7-4.7,2.1-7.1,3
	c-2.7,1-4.4,0.3-4.3-2.8c0.2-4.1-2-4.8-5.4-5.3c-6.3-1-12.4,0.8-18.7,0.6c-2.3-0.1-3,1.8-3.3,3.9c-0.7,4.8-1.1,5.1-6.1,4.5
	c-1.7-0.8-0.7-2.1-0.6-3.2c0.1-3.1-0.1-6-2.5-8.3c-4.5-3.6-7.1-3.7-12.1-0.4c-4.2,3.9-4.4,9-0.6,13.2c3.2,3.5,9.3,3.6,12.8,0.2
	c2.2-0.6,4.6-0.7,6.8-0.2c1.1,0.4,2.2,0.8,2.9,1.9c0.8,3.9,0.5,4.6-3.1,4.7c-4.9,0.2-9.8,0.1-14.7,0c-7-1.1-11.6-5.9-11.9-12.5
	c-0.3-6.3,4.2-12.1,10.6-13.8c2.5-0.6,5.1-0.8,7.7-0.7c16.8,0,33.5,0,50.3,0c1.9,0,3.8,0.2,5.6-0.6c0.5-0.3,0.8-0.7,1-1.2
	c0.1-5.7,0.9-11.6-0.5-17.3c-1.4-1-2.9-0.7-4.4-0.7c-16.1,0-32.1,0-48.2,0c-0.7,0.1-1.5,0.1-2.2,0c-4.8-0.2-9.5-0.1-14.3-0.1
	c-3.2,0-4.9-1.4-4.9-4.6s-1.4-6.2-2.2-9.4c-1.2-2.9-2.1-6.4-6.6-4.9c-4.9,0.2-10-0.3-14.8,1.5c1.6-4.9,6.1-8.2,11.2-8.2
	c1.5-0.1,3,0,4.4,0c1.1-0.7,2.4-1.1,3.8-1.1c23.7-0.4,47.5-0.1,71.2-0.2c2,0,4.1,0.2,6.1-0.4c1.3-0.7,1.5-1.8,1.5-3.1
	c-0.1-5.1,0.3-10.1-0.3-15.1c-2.4-2.4-5.8-0.1-8.4-1.8c-0.6-0.6-0.9-1.5-0.7-2.3c0.5-2.1,2.3-4.1,0.2-6.3c-3.1-1-6.2-0.3-9.3-0.4
	c-2.2-0.1-2.1,1.6-2.5,3.1c-0.2,0.8-0.5,1.6-1.4,1.8c-0.8,0.2-1.5-0.3-1.7-1.1c0-0.1,0-0.1,0-0.2c-0.3-3.7-2.8-3.8-5.6-3.6
	c-1.1,0.1-2.2,0-3.3,0c-4.2,0.1-4.4,0.4-3.8,4.9c0.3,0.6,0.6,1.2,0.8,1.8c0.2,0.9-0.1,1.9-0.8,2.5c-4,1-7.9,1.4-11.7-0.4
	c-0.3-0.3-0.5-0.7-0.6-1.1c0-0.5,0.2-1.1,0.6-1.4c3.3-3.5,2.9-5.3-1.7-7c-0.9-1-0.3-1.8,0.3-2.5c4.1-4.2,8-8.8,12.6-12.4
	c11.7-0.1,23.4-0.3,35.1-0.1c3.3,0,4.3-0.9,4-4.1c-0.5-5.5,0.5-11.1-0.5-16.7c-0.3-0.1-0.4-0.3-0.3-0.4c0-0.1,0.1-0.2,0.3-0.3
	c-1.2-1.5-2.8-0.7-4.2-0.7c-25.7-0.1-51.4-0.1-77.1-0.1c-0.3-1.8,1.2-3.8-0.6-5.5c-0.4-0.7-0.7-1.4-0.2-2.1c1.4-0.9,3.4-0.7,4.7-2
	c0.7-0.5,1.5-0.8,2.3-0.7c3.4,0.7,4.2-0.9,4.2-4c0-3.5-0.7-7.1,0.7-10.5c2.4-2.3,4.7-1.9,7.1,0c1.6,2.9,0.6,6.1,0.9,9.2
	c0.1,1.2,0,2.5,0.2,3.7c0.2,1.1,0.7,1.8,1.9,1.6c1-0.1,1.2-0.8,1.4-1.7c0.3-1.8-0.6-4.6,1.6-5c2.2-0.4,2.1,2.7,3.3,4.1
	c2.5,2.9,11.4,4,14,1.6c1-1,0.6-2.3,0.8-3.5c0.4-3.3-0.8-6.8,1-10c1-0.7,2.3-0.7,3.3-0.2c2.1,2.6,0.9,5.7,1.2,8.6
	c0.3,3.1,2.5,5.8,5.4,6.1c1.1,0.1,2.3,0.4,2.8-1c0.3-0.9,0-1.9-0.8-2.5c-4.3-3.1-3.5-7.1-1.9-11.2c1.6-0.9,3.6-1,5.3-0.2
	c1.8,2.9,1.3,6.2,1.5,9.3c0.3,3.8,2.5,5.8,6,5.7c0.9,0,2,0.2,2.4-1s-0.2-1.9-1.2-2.7c-3.9-3.1-4.6-5.9-2.7-11
	c0.6-0.4,1.2-0.7,1.9-0.8c1.4-0.3,2.9,0,4.1,0.7c1.5,1.9,0.9,4.1,1,6.2c0.2,6.2,2.5,8.7,8.7,9.3c1.3,0.1,2.7,0.1,3.7,1.2
	c1.3,3.6,0.7,7.2,0.2,10.9c1,7.2,0.3,14.5,0.5,21.7c-0.1,10,0.2,20.1-0.1,30.1c0.2,7.4,0.2,14.9,0,22.3c-0.2,1.1-0.3,2.3-0.1,3.5
	c0.3,8.1,0.3,16.1-0.1,24.2c0.1,0.5,0.1,0.9,0.2,1.4c0.1,7.2,0.2,14.4,0,21.6c0,0.4-0.1,0.9-0.1,1.3c-0.2,1.2,0,2.5,0.4,3.6
	c1.1,3.5,4.1,5.4,7.5,4.9c3.6-0.7,6.2-4,5.9-7.7c-0.5-8.3,0-16.6-0.3-24.9c0-0.7,0-1.4,0-2.1c0.1-30.4-0.1-60.8,0-91.2
	c0-10.7-0.2-21.3,0-31.9c0-2.2-0.2-4.6,2.9-4.9c0.5,0,0.9,0.1,1.3,0.3c1.6,3.9,4.2,6.6,8.6,7c1.4,0.1,2.7,1,2.5,2.7s-1.7,2-3.1,2.2
	c-1.6,0.2-3.2-0.5-4.8-0.7c-1-0.2-1.9,0.4-2.1,1.4c0,0,0,0,0,0.1c-0.3,1-0.3,1.9,0.9,2.3c3.7,1.2,7.5,1.6,11.1,0
	c2.4-1,3.7-3.5,3.2-6.1c-0.3-2.5-2.1-4.6-4.5-5.4c-1.3-0.5-2.7-0.4-3.9-1.2c-0.8-0.6-2.2-1.1-0.7-2.5c2.2-0.9,4.6-0.5,6.9-0.6
	c1.9,0,3.8-0.2,5.6,0.7c2.2,2.6,1,5.7,1.3,8.6c0.3,3.6,2.2,6.4,5.1,7c1,0.2,2.3,0.5,2.9-0.6c0.7-1.2,0.1-2.3-0.9-3.2
	c-3.3-3.2-3.8-6.8-1.6-11.6c1.4-0.8,3.2-0.9,4.7-0.1c1.5,1.2,5.6,1.1,7.1,0C270.4,230.7,272.6,230.3,274.6,231.8z"/>
<path class="st14" d="M145.8,303.5l-8.1-0.2c-0.7-1.4-0.1-2.7,0.1-4.1c0.2-0.6,0.3-1.2,0.3-1.8c0.1-7.1,1.5-8.4,7.4-8.7
	c-3,1.2-7.6,0.6-11.6-0.8c-6.6-2.3-12.8,1.2-19.2,0.4c-2.7-0.4-2.7,2.2-3,4c-0.7,4.7-1.2,5.1-6.1,4.5c-1.9-1.5-0.5-3.5-0.7-5.2
	c-0.3-4.3-2.5-7.6-6.2-8.6c-5.1-1.4-8.5,0.1-10.8,4.7c-1.8,3.5-0.8,8.6,2,10.8c3.6,2.8,8.4,2.6,12.3-0.7c2.5-0.7,5.1-0.3,7.6,0.2
	c2.4,1.1,3.2,3,2.5,5.5c-5.6,0-11.2,0.1-16.8,0c-6.6-0.1-11.9-5.6-11.8-12.2c0-6.5,5.3-12.3,11.8-12.4c24.5-0.1,48.9,0,73.4,0.1
	c0.1,2.7-2.2,3.9-3.6,5.5c-2.8,3.3-6.4,5.8-8.8,9.5c-1,0.5-2,0.7-3.1,0.6c-4.7,0.3-5.3,1.1-4.5,6.1c0,1.2-0.6,2.4-1.7,2.9
	C146.6,303.6,146.1,303.7,145.8,303.5z"/>
<path class="st15" d="M58.5,232l10.1-0.2c3.3,0,6.6-1.7,10-0.5c1.5,0.9,0.7,1.8,0,2.7c-4.3,2.7-7.6,6.9-12.9,8.1
	c-1.7,0.4-1.6,1.5-0.5,2.7c2.5,2.7,6.6,1.6,8.5-2.4c1-2.1,2.1-4.1,3.5-6c0.6-0.7,1.3-1.4,2-2c5.2-4.3,6.5-4.5,11.9-0.1
	c3.4,2.7,7.1,4.9,9.9,8.2c0.9,1.6,0,3.7,1.2,5.3c0.5,0.5,1.2,0.8,1.7,1.3c0.3,0.7,0.1,1.5-0.3,2.1c-1.4,1.5-0.8,3.2-0.6,4.9
	c-9.2,0.9-18.5,1.7-27.5-0.6C66.9,253,58.5,243.9,58.5,232z"/>
<path class="st16" d="M108.7,340.3l0.2-2.7c4.2,0.4,7.4-2.1,10.9-3.7c1.8-0.8,3.6-1.8,5.6-2.2c2.5,0.5,3.1,2.4,3,4.5s-2,2.3-4.1,2.5
	c1.8,0.6,3.3-0.3,4.7,0.3c0.8,0.4,1,1.4,0.6,2.1c-1.3,2.7-2.6,5.4-4,8c-1.2,2.3-3.7,1.9-5.8,1.9c-4.8-0.1-7.9-2.9-10.6-6.6
	C108.8,343.2,108.3,341.8,108.7,340.3z"/>
<path class="st17" d="M139.2,298.4l-0.7,0.8c-2.2-0.2-4.3,0.2-5.7,2c-1.2,0.6-2.5,0.8-3.4,1.8h-2.5c-1.4-1.6-2.7-0.7-4.1,0l-1.7-0.1
	c-1.3-0.7-2.6-1.2-4-1.6c-2.1-0.5-3.2-2.9-5.6-3c-0.5,0-0.3-0.9-0.1-1.4c1.3-1.9,3.3-2.3,5.4-2.3c5.4-0.1,10.8-0.1,16.3-0.1
	C135.8,294.7,138,295.6,139.2,298.4z"/>
<path class="st18" d="M102.8,250.8l1.1-1.5c0.6-0.8,1.5-1.3,2.5-1.3c6.1-0.3,12.2-0.3,18.3,0.1c0.8,0,1.6,0.5,2,1.2l1.2,1.4
	c-2,1.2-3.3,2.7-1.9,5.2c-1.5,0.9-3.4,0.9-5,0c-0.1-2-1-2.3-2.6-1.3c-1.1,0.4-2.3,0.4-3.4,0.1c-1.5-1-3.5-1.1-5,0
	c-0.9,0.3-2,0.2-2.8-0.2C105.9,253.1,104.3,252.1,102.8,250.8z"/>
<path class="st0" d="M108.7,340.3l1.5,3.9c-1.2,2.7-3.4,4.6-5.4,6.6c-8.2,8.7-16.5,17.4-24.6,26.3c-1.2,1.4-2.3,3.6-4.9,2.5h-0.8
	c4.8-5.7,10-11.1,15.2-16.5c5.7-5.9,11.1-12.3,16.8-18.2C107.7,343.5,107.6,341.6,108.7,340.3z"/>
<path class="st19" d="M125.4,332.1c-3.7,1.9-7.5,3.9-11.2,5.8c-1.8,1-3.6,1.1-5.3-0.3c-0.1-1.3,0.2-2.7,0.8-3.9
	c2.8-3.5,6.7-2.4,10.2-2.5c1.8-0.1,3.5,0.1,5.3,0.1c0.2,0,0.4,0.3,0.4,0.5C125.5,332,125.5,332.1,125.4,332.1z"/>
<path class="st0" d="M145.8,303.5l0.8-0.3c0.3-0.2,0.7-0.3,1.1-0.3c1.2,0.2,2.5,0.2,3.2,1.7c-7.8,3.9-12.9,10.8-18.5,17.1
	c-1.1,1.3-2.4,2.5-3.9,3.6l-3.3,0.1c5.5-5.8,10.9-11.7,16.3-17.5c1.4-1.5,3-2.9-1.2-3.2C142.4,303.6,144.3,304.8,145.8,303.5z"/>
<path class="st20" d="M111.3,298.4c2.5-0.4,2.8-0.2,5.9,2.5c0.8,1.1,0.1,1.7-0.8,2.3l-4.2,0.1c-1-1.5-0.4-3.9-2.5-4.8
	c0.3-0.5,1-0.6,1.4-0.3C111.1,298.3,111.2,298.3,111.3,298.4z"/>
<path class="st14" d="M156.3,293.3c0.7-2.6,3-3.8,4.7-5.6c2.8-2.8,5.4-5.8,7.7-9l1.7,0.1c-2.6,4.5-6.8,7.4-10.2,11.2
	c-1,1.1-2,2.2-2.9,3.4C157,293.7,156.6,293.6,156.3,293.3z"/>
<path class="st21" d="M126,255.9c-1.4-0.7-2.5-1.6-2-3.3c0.6-2,2.3-1.9,3.9-1.9c2.6,2,1.6,3.9-0.1,5.7L126,255.9z"/>
<path class="st22" d="M132.6,300.8c1.4-2.7,3.1-4.3,5.9-1.6c0.1,1.4-0.2,2.8-0.9,4l-3.5-0.1C133.2,302.8,132.6,301.8,132.6,300.8z"
	/>
<path class="st23" d="M102.8,250.8c2.3-0.1,4.2,0.3,4.3,3.2c-0.1,1.1,0,2.2-1.6,1.8l-2.4,0.1C100.6,254.3,100.8,252.6,102.8,250.8z"
	/>
<path class="st24" d="M209,257.3c0.1,0.2,0.1,0.5,0.1,0.7c0,6.3,0,12.7,0,19h-1C208.7,270.4,207,263.8,209,257.3z"/>
<path class="st25" d="M105.4,255.8l1.6-1.8h3.2c0.9,0.3,1.5,0.9,1.1,1.9C109.5,256.8,107.3,256.7,105.4,255.8z"/>
<path class="st26" d="M114.5,254h4c0.6,0.4,0.7,1.2,0.4,1.8c-1.8,0.8-3.5,1.2-5.2-0.2C113.4,255,113.8,254.3,114.5,254
	C114.5,254,114.5,254,114.5,254z"/>
<path class="st27" d="M114.5,254l-0.9,1.6l-2.2,0.2l-1.1-1.9C111.8,251.9,113.2,251.8,114.5,254z"/>
<path class="st28" d="M118.9,255.9l-0.4-1.8c0.4-1.4,1.5-2.1,2.7-1.3c1.5,0.9,0.8,2.2-0.1,3.3L118.9,255.9z"/>
<path class="st29" d="M132.6,300.8l1.5,2.4l-4.8,0C129.2,300.6,131,300.8,132.6,300.8z"/>
<path class="st16" d="M116.3,303.2l0.8-2.3c2-0.5,3.3,0.3,4,2.2L116.3,303.2z"/>
<path class="st30" d="M122.8,303.1c0.7-1.1,1.1-2.6,2.9-2.2c1.3,0.3,1.1,1.3,1.2,2.2L122.8,303.1L122.8,303.1z"/>
<path class="st0" d="M363.9,387.6c7.1,7.6,14.2,15.1,21.3,22.7c1,1.1,1.9,2.3,2.5,3.7c-32,0-64,0.1-96,0.1c-80.7,0-161.4,0-242,0
	c-1.6,0-3.3-0.1-4.9-0.1c2.8-5.1,7.3-8.6,11.1-12.9c5.7-6.4,11.8-12.5,17.7-18.7c0.8-0.8,1.6-1.6,1.6-2.8c2.7-0.4,4-2.8,5.6-4.5
	c9.4-10,18.6-20.1,27.9-30.1c0.4-0.3,0.9-0.6,1.4-0.8c2.4,3.2,5.3,5.7,9.5,6c4,0.9,7.8-1.2,11.8-0.5c6.9,1.3,13.9,0.6,20.8,0.6h2
	c3.6,0.4,7.2-0.2,10.8,0.4c12.7,0.4,25.4,0.1,38.1,0.2c5.4,0,5.5,0,5.4,5.3c-0.1,5.3,0.5,10.6-0.4,15.9c-19.9,0.1-39.9,0.1-59.8,0.1
	c-3.5,0-6.9,0.4-9.7,2.6c-3.9,3.1-5.9,7.3-4.8,12.3c1.2,5.4,4.6,8.9,10.2,9.8c0.3,0.3,0.6,0.5,1,0.6c6.1-0.1,12.2,0.7,18.2-0.5
	c0.5-0.1,1-0.1,1.5,0c11.7,0.2,23.4,0.5,35.1,0.5c25.6,0,51.2,0,76.8-0.1c0.5-0.1,0.9-0.4,1.3-0.7h0.1c0.3-0.3,0.6-0.5,1-0.6
	c0.4,0,0.8,0,1.2,0.1c2.5,0.5,5,0.1,7.5-0.1c3.7,0.6,7.4,0,10.7-1.8c5.6-3.1,7.1-9.4,3.8-15.5c-0.4-0.4-0.6-1-0.6-1.6
	c-2.1-4.6-6.4-5-10.6-5c-19.1-0.1-38.2-0.1-57.4,0c-3.4,0-4.5-0.8-4.3-4.3c0.3-5.7,0.2-11.5,0.2-17.2c0.6-0.5,1.4-0.7,2.2-0.6
	c16.1,0.4,32.3,0.7,48.4-0.2c2.5-0.5,5.1-0.3,7.6-0.4c10-0.1,20.1,0.3,30.1-0.2c2.4-0.5,4.7-1.1,7-1.7c1.8-0.3,3.1,0.7,4.3,1.9
	c8,7.8,15.4,16.1,22.9,24.4c1.7,1.9,3.8,3.5,5.3,5.6c0,1.4,1,2.2,1.9,3l1.6,1.7"/>
<path class="st0" d="M360.9,384.4l3,3.2"/>
<path class="st7" d="M89.3,223.6c-0.5-6.4,1.1-12.7,1.6-19.1c0.8-8.8,2.1-17.6,3-26.4c0.2-2.3,0.9-3,3.2-3c5.5,0.1,10.9,0.1,16.4,0
	c2.1-0.1,2.7,0.7,3,2.7c1.2,11.5,2.6,23,3.9,34.5c0.5,4.3,1.5,8.6,0.6,13c-0.1,0.9-0.9,1.5-1.7,1.4c-2.8-0.6-3.6,1.6-4.9,3.2
	c-4,0.8-8.1,1-11.9,2.8c-2.5,0.5-5.1,0.1-7.6,0.4c-1.8,0.2-3-1-4.3-1.9c-2.4-1.6-3.2-3.4-0.8-5.6C90.6,224.7,91.2,223.9,89.3,223.6z
	"/>
<path class="st0" d="M244.4,211.4l-0.3,13.1c-1.2,1.2-2.7,1.1-4.2,1.1c-1.1,0-2.4-0.3-3.2,0.4c-4.8,4-8.4,0.2-12.4-1.6
	c-0.2-1.7,1.3-2.2,2.2-3.1c4.2-4.1,5.1-8.4,2.7-13.3c-2.1-4.4-6.5-6.7-11.9-6c-4.4,0.7-8,4-9,8.3c-1,5.4,1.1,9.8,6.1,12.6
	c0.6,0.3,1.2,0.6,1.8,0.9c0.6,0.3,1.3,0.4,2,0.6c4,0.6,4,0.7,2,3.9c-0.8,1.3-0.9,2.9-0.1,4.2c0.5,2.3,0.6,4.7,0.2,7.1
	c-0.1,0.4-0.2,0.8-0.5,1.2c-0.4,0.5-1,0.8-1.6,0.7c-1.4-0.3-2.7-0.9-3.9-1.7c-0.6-0.5-1-1.2-1-2c1.2-1.9,0.3-4.4,1.5-6.3
	c0.9-2.7-0.8-4.1-2.8-5.2c-3.2-1.7-8.6-0.8-11.3,1.8c-1.6,1.5-2.9,2.5-3.6-0.5c-0.4-1.8-1.9-2.2-3.2-2.8c-0.2-0.2-0.3-0.4-0.2-0.7
	c0-0.1,0-0.3,0.1-0.4l0.2-27.1c0.5-0.2,1-0.2,1.5,0c1.8,0.7,3.8,0.5,5.6,0.5c12.5,0,25,0,37.5,0c1.9,0,3.8-0.3,5.5,0.9
	C246.4,202.5,245.6,206.9,244.4,211.4z"/>
<path class="st31" d="M161.1,207.3c3.2-1.3,6.6-1.2,10.3-1.4c-0.5,1.1-1.7,1.7-2.9,1.4c-4.6-0.6-4.3,3-5.1,5.7
	c-0.1,0.6,0.3,1.1,0.9,1.1c0.3,0,0.6-0.1,0.9-0.3c1.6-1.7,2.8-0.1,4.2,0c0.4-0.3,0.7-0.5,1-0.8c1.5-0.7,2.9-1.4,4.1,0.4
	c1.3,1.3,3.2,1.9,4.1,3.7c0.4,0.4,0.6,1,0.6,1.6c-0.1,0.4-0.2,0.8-0.4,1.1c-1.1,0.9-2.1,1.9-3.7,1.5c-1-0.4-1.8-1.2-2.7-1.8
	c-3.4-2.2-7-1.3-8.9,2.3c-0.7,1.4-0.9,3.2-2.5,4.1c-0.8,0.3-1.7,0.5-2.5,0.5c-2.9-0.1-5.8,0.4-8.7-0.3c-2.5-2.8-3.9-6.3-6.2-9.3
	l-15.1-10l5.7-0.4C143.3,204.5,152.2,205.4,161.1,207.3z"/>
<path class="st32" d="M195,196.7c-0.2-0.1-0.5-0.1-0.8-0.2c0.1-2.2,1.5-2.9,3.5-3c2.3-0.1,4.6-0.2,6.9-0.2c0.4-0.3,0.7-0.5,1.1-0.7
	c1.7-0.5,3.5-0.3,5.3-0.4c0.4,0,0.9,0,1.3,0c0.9-0.1,1.8,0,2.7,0c2.7-0.1,5.4-0.1,8.2,0c0.9,0,1.8,0,2.7,0c0.5,0,0.9,0,1.4,0h5.5
	h1.5c2.3,0,4.6-0.3,6.8,0.3s4.6,1.4,2.8,4.6c-4.5,0.8-9,0.3-13.4,0.3c-10.2,0.1-20.4,0-30.6,0C198.2,197.4,196.5,197.7,195,196.7z"
	/>
<path class="st33" d="M89.3,223.6c1.1-0.3,1.9-2.7,3.3-1c1.1,1.4-0.7,2.1-1.5,2.7c-2.7,2.1-2.9,3.8,0.4,5.4c0.9,0.5,1.8,1.2,2.6,1.9
	c3.1,0.7,5.3,2.7,7.2,5.1c0.2,0.6,0.4,1.2,0.4,1.9c0,1.1-0.1,2.2-1.1,3c-3.7-2.8-7.5-5.5-11-8.5c-3.1-2.7-5.8-3.2-8.7,0.2
	c-1,0.9-2,1.8-3.2,2.5c-1-1.1-0.7-2.2,0-3.3l1.4-1.5c0.1-1.5,1.6-2,2.3-3.1c-2-1.3-4.3-2.4-4.7-5.1c0-1.3-0.2-2.6,1.2-3.4
	c1.4,0.9,2.8,2,4.1,3.1C84.5,225.9,86.8,226.6,89.3,223.6z"/>
<path class="st34" d="M161.1,207.3l-26.8-0.9l16.1-5.4c1.2-0.4,2.5-0.1,3.4,0.7L161.1,207.3z"/>
<path class="st2" d="M178.8,219l-0.2-1.9c1-0.7,2.2-2.6,2.3,0.5c0.1,1.2,0.1,2.5,0,3.7c0,1.9,0.4,3.2,2.6,3.3c2,0.1,3.1-0.7,3.1-2.8
	c0-1.1-0.2-2.3,1-2.8c1.6-0.7,2.9-2.7,4.6-2.1c1.7,0.6,0.7,2.9,0.9,4.4c0.1,0.9-0.1,1.9,0.8,2.6l0.3,0.8c0.4,0.6,0.3,1.5-0.3,1.9
	c-5,0.3-2.7-3.7-3.4-5.9c-0.4,0.7-0.6,1.5-0.8,2.2c-1.2,4.1-6.6,6.2-9.9,3.7C177.2,224.5,178.6,221.6,178.8,219z"/>
<path class="st35" d="M143.6,216.8c2.9,2.1,5.6,4.3,5.6,8.3c0.4,1-0.1,1.6-0.9,2.2c-1.2,0.6-2.7,0.3-3.6-0.8
	c-0.2-0.3-0.4-0.7-0.6-1.1c-0.4-1.4-0.5-3-2.5-3.1c-1.6,0-2.1,1.3-2.6,2.5c-0.1,0.7-0.7,1.2-1.4,1.2c-1.9-2.1-1.2-4.5-0.9-6.8
	c0.4-1.3,1.7-2.2,3.1-2.1L143.6,216.8z"/>
<path class="st36" d="M77.6,224.6l5.3,4.5l-3.8,2.9l-10.5-0.3c3.8-0.3,4.6-2.6,4.1-5.9c-0.1-1.3,0-2.7,0.1-4
	c1.4-0.1,2.4,0.4,2.7,1.8c-1,1.7-1.5,3.4-0.4,5.6c1.1-1.5,0.3-3.4,1.4-4.7C76.8,224.3,77.2,224.3,77.6,224.6
	C77.5,224.6,77.5,224.6,77.6,224.6z"/>
<path class="st2" d="M140,217.3l-2.4,1.5c-2,1.3-2.1,3.4-2.2,5.4c-0.2,2.3,0.3,4.7-0.5,6.9c-0.2,0.3-0.4,0.6-0.7,0.9l-0.5,0.1
	c-2.7-1-0.7-4-2.5-5.4c-0.5-0.7-1.5-1.1-1.1-2.2c2.8,0.5,3-0.7,2.6-3.2c-0.3-1.7-1.1-4.5,1-5.1C135.5,215.6,138.4,214.4,140,217.3z"
	/>
<path class="st2" d="M130.2,224.5l1.6,1.6c0.9,1.9,0.2,4.1-1.6,5.2c-3.1-0.6-6.4-0.6-9.5-1.5c-1-1-0.5-1.9,0.1-2.8
	c2.1-1,4.2-0.3,6.6-0.2c-1.7-1.2-4.2,0.3-5.4-1.8C124.5,221.8,127.3,223,130.2,224.5z"/>
<path class="st37" d="M205.7,193.4h-1l3.4-19.6c0.1-1.5,1.2-2.7,0.9-4.3l0.6-0.2c0.4,0.2,0.7,0.5,0.9,0.9c0.4,1.3,0.4,2.6,0,3.9
	c-0.8,5-1.8,9.9-2.8,14.9C207.3,190.6,206.9,192.2,205.7,193.4z"/>
<path class="st38" d="M77.6,224.6c-0.3,0-0.5,0-0.8,0.1c-0.9,0.2-1.3-0.4-1.5-1.1l-2.4-1.7c-0.1-1.6,0.3-3.1,2.1-3.4
	c1.6-0.3,2.6,0.4,3,2C77.8,221.8,77.7,223.2,77.6,224.6z"/>
<path class="st2" d="M122,225.1c2.1,0.2,4.3,0.4,6.4,0.7c0.7,0.1,1.7,0.4,1.4,1.6c-0.2,0.6-0.8,0.9-1.4,0.8c-0.1,0-0.2-0.1-0.2-0.1
	c-2.1-0.8-4.5,0.2-6.6-1.1c-0.5-0.2-0.6-0.5-0.1-0.8L122,225.1z"/>
<path class="st39" d="M121.4,226.1l0.1,0.8l-0.8,2.3c-0.2,0.3-0.5,0.5-0.8,0.6c-1.1,0.2-1.6-1-2.6-1.1c-0.9,0.4-1.6,1.6-2.9,0.7
	c0-2.5,0.2-4.7,3.8-3.3c0.9,0.4,1.8-0.2,2.6-0.7L121.4,226.1z"/>
<path class="st40" d="M170.7,213.5l-1.3,0.3c0-5.7,0.9-6.7,5.4-5.6c1.1,0.3,1.3,0.8,0.6,1.7C173.7,210.9,171.6,211.5,170.7,213.5z"
	/>
<path class="st41" d="M170.7,213.5c-0.5-3.9,1.9-4.1,4.7-3.7c-0.1,1.2-0.1,2.5-0.9,3.5L170.7,213.5z"/>
<path class="st42" d="M83.2,164.6H44c0.1-2.4,0.1-4.8-0.1-7.3c-0.5-3.9,1.1-5.5,4.9-5.1c4.3-1.9,8.5-1.4,12.7,0.1h5.3
	c4.1-1.7,8.6-1.7,12.7,0c3,0.1,4.4,1.3,3.9,4.7C83,159.5,83.3,162,83.2,164.6z"/>
<path class="st43" d="M105.4,164.6H85.9c0-2.4,0.4-4.9,0.1-7.2c-0.5-4,1.1-5.4,4.9-5.1c4.2-1.7,8.8-1.6,13,0.1h5.2
	c2.9-1.1,5.8-2.2,8.7,0C114.1,156.9,110,161,105.4,164.6z"/>
<path class="st44" d="M103.9,152.4l-13-0.1C95.2,148.1,99.6,148.7,103.9,152.4z"/>
<path class="st45" d="M61.5,152.3l-12.7-0.1C54.1,148.1,54.3,148.1,61.5,152.3z"/>
<path class="st46" d="M79.5,152.3l-12.7,0C71,148.4,75.2,148.3,79.5,152.3z"/>
<path class="st47" d="M117.7,152.4l-8.7,0c3.2-2.5,6.3-4.9,10.4-1.6C119.1,151.6,118.5,152.2,117.7,152.4z"/>
<path class="st48" d="M359.6,216.2c3.2-1.4,6.6-2.5,9.4,0.3c2.7,2.5,5.3,4.3,9.2,4.8c1.5,0.2,0.6,3.6,0.4,5.6
	c-2.5,0.1-4.8-2.5-7.5-0.7c-2.2,0.8-4.2,1.1-5.4-1.5c-0.7-1.8-0.1-3.6,0.1-5.4c0.1-0.5-0.9,0-0.3-0.1c0.2,0,0.3,0.1,0.2,0.3
	c-0.3,1.9-1.2,3.6-2.5,4.9c-1.4,1.1-3,1.3-4.7,1.3c-5.1,0-10.1,0.2-15.2-0.2c-4.5-2.4-4.9-7.2-0.8-10.1
	C348.3,215.3,354,214.2,359.6,216.2z"/>
<path class="st49" d="M359.6,216.2h-16.8c-0.2-0.4-0.1-0.8,0.3-1.1c3.4-1.3,3.5-3.6,2.2-6.4c-0.1-0.8,0.2-1.6,0.9-2.1
	c1.5,0.9,3.1,2.1,3.7,3.6c1.3,3.5,3.8,4.1,7,3.5L359.6,216.2z"/>
<path class="st50" d="M371.4,225.5c3.1-2.8,5.1-0.3,7.3,1.4c0.4,2-2.3,2.8-1.7,4.9h-3.9c-0.4-0.3-0.5-0.9-0.2-1.3
	c0,0,0.1-0.1,0.1-0.1c0.5-0.7,1.5-1.1,1.4-2.3c-1.2,0.5-0.8,1.8-1.5,2.5c-1.5-0.2-2.9-0.7-4.2-1.4
	C369,227.3,370.1,226.3,371.4,225.5z"/>
<path class="st2" d="M209.8,142.3l1.7,2.5c0.4,2.5,0.6,5,0.6,7.5c-0.8,2.1,0.2,4.6-1.7,6.7c-2.1-1.7-2.6-4.2-3.7-6.4
	c-1.4-2.3-2-5-3.5-7.2c1.4,2.3,2.1,4.9,3.5,7.2c0.9,3.6,3.6,6.3,4.6,9.8c0,2.6-0.3,5.1-2.2,7.1l-0.1,0c-7.3,0-14.6,0-21.9,0
	c-0.4-0.1-0.8-0.1-1.2-0.3l1-4.8c-0.7-2.1,1-3.2,1.9-4.7c2.4-5,5.1-9.8,6.9-15.2c0.1-0.8,0.5-1.5,1.1-2.1L209.8,142.3z"/>
<path class="st51" d="M196.6,142.7l-0.1,2.4c-3,4.9-5.5,10.1-7.3,15.5l-2.5,4.1c-0.2,0.2-0.4,0.4-0.6,0.6c-3.5,5.8-3.5,5.8-6.7,0.1
	c-0.4-0.2-0.6-0.5-0.8-0.8c-0.4-1.3-0.4-2.7-0.1-4.1c0.2-0.9,0.2-1.8,0-2.7c-0.8-2.9-1.3-6.1-5.6-5.7c-0.7-0.6-1.3-0.3-1.8,0.2
	c-3.8,0.4-7.5-0.3-11.2-0.3c-1.1-4.1,1.8-6.6,3.8-9.4L196.6,142.7z"/>
<path class="st52" d="M179.4,164.6c0.1,0.2,0.2,0.4,0.2,0.7c-0.3,0.8,0.1,1.9-0.9,2.5c-1.6-0.6-3.3,0-4.8,0.4
	c-1.7-0.6-3.5-1-5.1,0.4l-0.8,0.1c-2.1-3-3.6,1-5.5,0.5c-5-0.2-10,0.4-15-0.3c-1.7-1.2-1.6-3.4-2.6-5c2.2-1.9,4.9-0.8,7.4-1.1
	c7.5,0.5,14.9-0.6,22.4-0.5C176.6,162.1,178.4,163,179.4,164.6z"/>
<path class="st53" d="M137.6,142.5l25.3,0.1c0.5,1-0.3,1.6-0.8,2.2c-7.7,2.2-15.6,3.5-23.4,5.1c-2.3-1.1-2.9-3.3-3.7-5.4
	C134.5,142.2,136.9,143.5,137.6,142.5z"/>
<path class="st54" d="M121.1,155.6c0.6-2,2-2.8,4-2.6c2.3,3.8,1.8,7.8,0.4,11.7c-4.5,1.6-8.9,1.8-13.3-0.1
	C114.8,161.3,117.5,157.9,121.1,155.6c0.3,0.4,0.2,1,0.5,1.5C121.5,156.6,121.4,156.1,121.1,155.6z"/>
<path class="st55" d="M153.1,163.7l-8.1,0.1c-0.8-0.8-0.4-2.4-1.6-3c-1.2,1.1,0.3,2,0.1,2.9c-4.8,1.5-9.6,1.1-14.4,0
	c-0.8-1.4-1.5-2.8-0.4-4.4c2.5-1.4,5.3-0.6,7.9-0.8c1.6-0.1,3.2,0.1,4.7-0.7c0.4-0.2,0.9-0.2,1.3-0.2c2.2,1.4,5,0.3,7.3,1.5
	C150.6,160.9,152.5,161.8,153.1,163.7z"/>
<path class="st53" d="M53.9,165.5h19.4c0.5,1.6-0.6,2.8-1.2,4.1l-17.6-0.1C54.3,168.2,53.4,166.9,53.9,165.5z"/>
<path class="st56" d="M137.6,142.5c0.2,2-2.2,0.2-2.4,1.7c0.5,2.6,2.9,4.5,2.6,7.4c-2,1.6-4.3,0.1-6.4,0.5c-2.1-0.3-4,1.7-6.1,0.4
	c-0.3-3.7,3.5-4.3,5-6.5C132,143.6,134.2,141.7,137.6,142.5z"/>
<path class="st57" d="M125.2,152.5c2.1,0.5,3.6-2.6,5.9-0.9c1.4,2.4-1,4-1.1,6.1c-0.3,0.7-0.7,1.4-1.3,2l0.7,4.2
	c0.2,0.4,0,1-0.4,1.2c-1.4,0.6-2.7,0.7-3.8-0.5c0-3.9-0.1-7.7-0.1-11.6C125.2,152.8,125.2,152.7,125.2,152.5z"/>
<path class="st58" d="M129.3,164.6c0-0.2,0-0.5,0.1-0.7c4.6-1,9.2-0.2,13.9-0.1c0.7,0.8,1.6,1.4,0.8,2.7c-1.1,0.8-2.2,1.6-3.4,2.2
	h-1.4c-1-1.1-2.8-1.2-3.9-0.2c-0.1,0.1-0.1,0.1-0.2,0.2h-0.4h-0.4c-1.5-1-3.4-1.2-5-2c-0.3-0.3-0.4-0.6-0.5-1
	C129,165.2,129.1,164.8,129.3,164.6z"/>
<path class="st59" d="M80.3,165.5h8.8c0.5,1.5-0.4,2.7-0.8,4c-2.5-0.3-5,1-7.4-0.6C80.8,167.7,79.5,166.9,80.3,165.5z"/>
<path class="st60" d="M96,165.5h8.6c-1.6,3-3.8,4.6-7.3,4C96.7,168.3,95.5,167.2,96,165.5z"/>
<path class="st57" d="M129.3,165.4l0.3,0.8c0.8,1,1.5,2,0.8,3.3l-6.7,0c-0.5-1.4-1.5-2.8-0.6-4.4C125.2,164.9,127.3,165,129.3,165.4
	z"/>
<path class="st61" d="M114.6,168.7c-2,1.7-4.4,0.4-7,1c1-2.5,2.3-3.9,4.6-4.4c0.7-0.3,1.5-0.4,2.3-0.2
	C116.1,166.3,113.9,167.6,114.6,168.7z"/>
<path class="st62" d="M114.8,165.4l-2.7-0.1c0-0.2,0-0.5,0-0.8h13.1h4.1c0,0.3,0,0.6,0,0.9H123c-1,1.2-2.1,2.2-3.3,3.1h-1
	C117,167.9,116,166.5,114.8,165.4z"/>
<path class="st63" d="M147.5,168.8c5.4-0.2,10.8,0.5,16.2-0.5c0.5,0,1,0.3,1,0.8c0,0.1,0,0.3-0.1,0.4c-4.9,0-9.7,0-14.6,0
	C149.1,169.5,148.1,169.9,147.5,168.8z"/>
<path class="st64" d="M119.6,168.6c0.3-1.9,1.3-3.1,3.3-3.1c0.7,1.3,1.4,2.6,0.7,4.1C122.2,169.6,120.8,169.6,119.6,168.6z"/>
<path class="st65" d="M114.8,165.4c2.4-0.3,3,1.6,3.8,3.2c-1.3,2.2-2.7,0-4,0.1C113.2,167.5,114.8,166.5,114.8,165.4z"/>
<path class="st66" d="M162,144.1l0.8-1.5l1-0.1c-0.7,3.2-2.8,5.8-3.9,8.9c0.4,1-0.1,2.2-1.1,2.7c-0.2,0.1-0.3,0.1-0.5,0.1
	c-0.4-0.2-0.7-0.5-0.8-0.9c-0.2-0.6-0.2-1.2,0-1.8C158.8,148.8,159.7,146,162,144.1z"/>
<path class="st67" d="M130.4,169.6c0-1.2-1.3-2-0.8-3.3c1.7,0.6,4.3-0.8,4.8,2.3C133.3,170.1,131.7,169.3,130.4,169.6z"/>
<path class="st68" d="M72.2,169.6c-0.6-1.5-0.1-3.2,1.2-4.1c1.4,0.4,2.5,1.6,2.7,3C75.1,170.2,73.5,169.3,72.2,169.6z"/>
<path class="st69" d="M88.3,169.5c-1.4-1.6-0.2-2.8,0.8-4c2.1,0,2.5,1.5,2.5,3.2C90.8,170,89.5,169.4,88.3,169.5z"/>
<path class="st70" d="M173.7,167.8c1.6-1.4,3.3-2.9,5-0.1c-1.3,2.5-3.1,1.9-5.1,0.9C173.4,168.4,173.4,168.1,173.7,167.8
	C173.6,167.9,173.6,167.8,173.7,167.8z"/>
<path class="st71" d="M45.9,169.5c-0.8-1.6-0.1-2.9,1-4c1.5,0.3,2.7,1.6,2.8,3.1C48.9,170.7,47,168.3,45.9,169.5z"/>
<path class="st72" d="M53.9,165.5c0.7,1.3,2.2,2.5,0.6,4.1l-3.2-0.9C51.4,166.9,51.8,165.5,53.9,165.5z"/>
<path class="st73" d="M173.7,167.8c0,0.3,0,0.5,0,0.8c-1.5,1-3.4,0.9-4.8-0.1C170,165.1,171.7,165.7,173.7,167.8z"/>
<path class="st74" d="M135.1,168.6c0-1.3,0.1-2.3,1.8-2.4c1.7,0,2.4,0.7,2.3,2.4C138.1,169.7,136.3,169.7,135.1,168.6z"/>
<path class="st75" d="M80.3,165.5c-0.1,1.2,2.6,1.9,0.6,3.4c-1.4,0.5-2.8,1-4-0.4C77.6,167,79,166.4,80.3,165.5z"/>
<path class="st76" d="M140.7,168.6c0-2.5,1.6-2.5,3.4-2.2c0.5,1,1.1,2-0.2,2.7C142.8,169.7,141.6,169.8,140.7,168.6z"/>
<path class="st77" d="M164.6,169.6l-0.9-1.3c0.1-1.5,0.7-2,2.4-1.9c1.6,0.2,2,0.8,1.9,2.2C167.1,170,165.8,169.4,164.6,169.6z"/>
<path class="st78" d="M96,165.5c1.2,0.9,1.8,2.5,1.3,4l-3.9-1C93.4,167.1,94.5,165.8,96,165.5z"/>
<path class="st0" d="M351.5,373.2l-2.9-3.2"/>
<path class="st0" d="M365.3,387l-7-7.4c-1.3-0.7-2.5-1.6-3.5-2.7c-1.1-1.2-2.2-2.4-3.3-3.7"/>
<path class="st0" d="M348.5,370c-6.9-7.5-14-14.8-21-22.1c-0.4-0.4-0.6-0.9-0.8-1.4c0-1.7,1-3.1,1.5-4.6c2.6-6.9-1.2-13.5-8.6-14.8
	c-4-1.1-8.2,0-12.1-1.1c-6.9-5-11.7-12.2-17.7-18.1c-1.8-1.8-1.1-3.3,1.4-3.4c4.8-0.1,9.5,0,14.3-0.1c-5.3,0.1-10.7-0.1-16,0.1
	c-1.4,0.1-3.1,0.6-2.1-1.9c5.7-1.4,11.4-0.4,17.1-0.7c1.2-0.1,2.5,0.1,3.7,0c4.5,0.1,8.9,0.1,13.4,0.1c1.9,0,3.8-0.2,5.4,1.1
	c5.2,0,10.4,0.1,15.6,0.1c7.2,0,12.2-5,12.3-11.9c0.1-7.2-4.9-12.6-12.1-12.7c-11.3-0.1-22.7,0-34-0.1c-0.7,0-1.6,0.4-2.5-0.6
	c8.8-6.9,17.5-13.8,26.3-20.7c1.2-0.9,2.5-0.9,3.9-0.9c5.3,0,10.7-0.3,16,0.1c14.6,1.1,26.6-9,27.9-23.9c7.3,0.1,7.3,0.1,7.3,7.4
	c0,56.3,0,112.7,0,169c-4.7-2-7.3-6.4-10.7-9.8c-4-4.1-7.9-8.2-11.8-12.3"/>
<path class="st0" d="M352.1,375.4l-0.5-0.6c-7.6-8.5-15.4-16.9-23.5-25c-0.7-0.9-1.7-1.4-2.8-1.5c-0.2-0.8,0.3-1.5,1.1-1.7
	c0.2,0,0.4,0,0.6,0c9.3,8.7,17.6,18.3,26.5,27.5c1.7,1.7,3.2,3.7,4.8,5.5h-0.8C354.9,379.1,353.6,377.2,352.1,375.4"/>
<path class="st0" d="M325.5,232l-9-0.2c-0.5-1.7,1.5-2.5,1.6-4.2c-2.8-0.8-5.2-0.3-7.3,1.9c-0.9,1-2,2.2-3.5,1.6
	c-1.8-0.8-1.2-2.5-1-4c0.1-1.8,0.2-3.5,0.1-5.3c-0.1-1.3-0.1-2.5-1.9-2.6s-3,0.4-3.2,2.3c-0.1,0.8-0.1,1.6-0.2,2.5
	c-0.2,5-0.2,5-4.9,4.9c-0.4,0.1-0.8,0-1.1-0.1c-0.2-0.3-0.4-0.7-0.5-1.1c-0.1-0.6,0.2-1.2,0.6-1.6c1.2-3.5,0-7,0.1-10.5
	c0.2-6.8,0-13.5,0.1-20.3c0-2-0.3-4.2,2.2-5.1c12.6-0.9,25.2-1,37.8,0c3.8,1.7,0.9,5.6,2.6,8c0.8,1.1,1.1,2.5,0.9,3.9
	c-1.4,8.1-0.4,16.2-0.7,24.3c-0.1,1.9,0.4,3.8-1.2,5.4l-10.6,0.3C326.1,232.2,325.8,232.3,325.5,232
	C325.5,232.1,325.5,232,325.5,232z"/>
<path class="st2" d="M244.2,196.7c0-2.5-1.6-3.1-3.7-3.1c-2.3-0.1-4.5-0.1-6.8-0.2c-3-5.8-3.3-12.2-4.2-18.5c0-0.7,0.4-1.4,1-1.7
	c1.6-0.9,3.4-0.8,5.2-0.8c8.3,0.2,16.5-0.6,24.8,0.4c1.9,0.8,1.5,2.3,1.1,3.7c-0.7,2.1-1.5,4.1-2.5,6c-1,2-2,4-3.3,5.9
	c-2.8,5.9-5.5,11.8-8.3,17.7c-0.9,1.8-2,3.5-3.1,5.3c0-4.4-0.1-8.8-0.2-13.2c-0.4-0.3-0.5-0.9-0.2-1.3
	C244.1,196.8,244.2,196.7,244.2,196.7z"/>
<path class="st79" d="M335.3,190.2c-0.5,0.9-1.3,0.8-2.1,0.8c-11,0-22.1,0-33.1,0c-0.9,0-1.9,0.2-2.6-0.7c4.9-2.5,9.8-4.7,14.6-7.3
	c3.2-1.8,5.8-1.6,9,0.2C325.7,185.7,330.6,187.8,335.3,190.2z"/>
<path class="st7" d="M250,232l-5.5-0.1c-0.5-0.4-0.9-1-1.1-1.6c-0.2-1.1-0.2-2.2,0-3.4c0.1-0.7,0.5-1.3,1.1-1.6
	c3.2,1,5.5,0.5,5.5-3.4c0-3.8,3.4-3.6,5.5-4.3c1.4-0.5,1,1.6,1,2.5c0.1,2.6-0.5,5.3,3.6,5.4c2.3,0.1,0.7,2.8,1.8,4.1
	c2.4-5.2,7.1-4.8,11.2-4.1c3.8,0.7,2.2,3.9,1.4,6.3c-3.3,2.2-5.3,2.1-6.4,1.7c-1.4-0.5-2.5-1.9-2.8-1.6s0.9,2.5,0.7,2.6
	c-0.3,0.2-1-0.9-1.5-1.5c-1.1-1.1-3.3-2-7.9-1.1c-0.2,0.2-0.4,0.3-0.7,0.3c-0.3,0-0.7-0.1-1-0.3c-1.6-2.5,0.6-2.9,2.3-3.9
	c-3.1-0.5-3.3-2.9-3.5-5.6c-2.1,3.3-1.8,6.5-2.1,9.5C251.2,232.3,250.5,232.3,250,232z"/>
<path class="st80" d="M255.7,188.4c0.4-2.1,0.9-4.2,2.3-5.9c8.3-7.9,15.8-16.5,23.6-24.9c4.5-4.8,9-9.5,13.3-14.4
	c0.8-1,2.5-1.5,1.6-3.3c1.7-1.7,3.3,0,5,0.1c-3.8,4.2-7.6,8.4-11.5,12.5c-11.1,11.7-22.3,23.4-33.4,35.1
	C256.4,188,256.1,188.2,255.7,188.4z"/>
<path class="st0" d="M244.5,225.3l-0.3,1.8c-0.4,0.3-0.9,0.8-1.4,0.6c-4.8-1.4-8,1.1-10.8,4.4c-0.6,0.3-1.2,0.2-1.7-0.1v-0.1
	c-4.1-0.7-4.4-0.5-4.3,3.5c0.1,1.2-0.3,2.4-1.1,3.3c-0.6,0.5-1.3,1-2.2,0.5c-1.9-6-0.7-9.1,4.5-11.5c-2.9-0.3-3.3-0.2-5,1.6
	c-0.8,0.9-1.2,2.1-2.6,2.5c-2.3-0.2-1.1-1.5-0.9-2.6c0.3-1.6,1.6-2.5,2.8-3.7c-1.9-0.7-3.8,0.4-5.2-1.1c2.6-1.9,5.5-1.4,8.3-0.8
	c1.8,1.5,5.8-0.7,6.1,3.5c0.5,0,1-0.1,1.5-0.3c3.5-3,7.8-2.5,11.9-2.5L244.5,225.3z"/>
<path class="st81" d="M337,231.7c0.3-11.2-0.7-22.4,1-33.6c6,1.6,7.5,3.1,8.2,8.4l-0.2,2.2c-0.6,0.3-1.3,0.3-2,0.1
	c-5-1.2-5-1.2-5,3.8c0,4.7,0,9.5,0,14.2c0,1.7,0.3,3.6-1.3,4.9h-0.4L337,231.7z"/>
<path class="st7" d="M295.1,226.1l-0.1,1.9c-4.2,0.2-8.4,0.5-11.4,4.2c-0.5,0.3-1.2,0.2-1.7-0.2l0,0c0.5-4.6,3.2-6.6,8.8-6.7
	C292.3,225.2,293.7,225.5,295.1,226.1z"/>
<path class="st2" d="M227,144.9l1.6-2.6c2.3,0.1,0.3,2,1.5,3c0.7-3.3,3.2-2.9,5.6-2.8c11.6,0.1,23.2,0.1,34.8,0.1
	c0.2,0.3,0.4,0.6,0.4,1c-0.3,1.3,0,2.6,0.8,3.6c-0.4-1-1.4-2,0.2-2.9c2.9-0.1,5.9-0.2,8.4,1.8c0.7,1.3-0.2,2.1-1,2.8
	c-5.6,5.3-9.7,11.7-13.2,18.4c-0.6,1.2-1.3,2.4-2.7,2.9c-2.5,0.5-5.1,0.6-7.7,0.3c-2.5-0.2-3.4-1.3-2.1-3.8c0.9-1.5,1.6-3.2,2.4-4.7
	c1.8-4.4,3.9-8.7,6-13c-2.1,4.2-4.2,8.4-6,12.7c-1,2.2-2.4,4.2-3.1,6.5c-0.6,2.1-1.9,2.3-3.7,1.8c-3.8-5-5.1-11.2-8.2-16.1
	c2,3.9,3.9,8.3,5.9,12.6c0.6,1.3,1.8,2.7-0.4,3.7c-5.6,0.8-11.2,0.7-16.8-0.1c-2.7-1.4-1.9-4.3-2.8-6.5
	C225.5,157.6,225.5,151.1,227,144.9z"/>
<path class="st7" d="M263.8,169.5c4.4-8.5,9.3-16.6,16.5-23c1.2-2.3,2.9-3.7,5.6-3.4c3.4-1.7,6.8-3.3,10.8-3.2
	c1.9,0,2.8,0.5,1.1,2.2c-12.1,12.8-24.3,25.6-36.4,38.4c-0.8,0.9-1.3,2.8-3.3,2l3.3-9C261,171.5,262.6,170.6,263.8,169.5z"/>
<path class="st82" d="M285.9,143.1l-5.6,3.4c-2.9-1-5.9-1.2-8.9-1.6c-0.7-0.4-1.4-0.7-0.9-1.6c0-0.2,0-0.4,0-0.6
	C275.7,142.6,280.8,141.6,285.9,143.1z"/>
<path class="st83" d="M227,144.9c0.6,6.2-0.6,12.5,0.9,18.7c0.4,0.9,0.6,1.8-0.8,2c-1.3-1.1-1-2.9-1.6-4.3c-0.6-2.9-0.8-5.8-1.4-8.8
	c1.2,6,0.7,12,0.8,18.1c0.1,0.9,0.1,1.9,0,2.8c0.1,5,0,10,0,15c0,1.8,0.1,3.5-1.3,4.9h-8.8c-1.4-1.4-1.3-3.2-1.3-5
	c0-4.8-0.1-9.5,0-14.3c-0.1-2-0.1-3.9,0-5.9c0.1-5.4,0-10.7,0.6-14.5c-0.2,2.5-0.7,6.6-0.8,10.7c-0.8,2-0.8,4.5-3.5,5.2H209l1.5-7.4
	c0.3-3.3,0.5-6.6,0.8-9.9l0.2-7.3c0.4,3,2,4.1,5,3.4c1.7-0.3,3.5-0.3,5.3,0C224.6,148.7,226.3,147.6,227,144.9z"/>
<path class="st84" d="M214.7,140.9v3.9c-4-3.1-4.7-7.6-2-11.1c2.3-3.1,7.8-3.8,11-1.6c4,2.8,4.6,7.6,1.6,12.1
	c-2.9,0.8-2.2-2-3.2-3.1c-1.6-3.3-3.6-3-5.9-0.7C215.7,140.4,215.2,140.6,214.7,140.9z"/>
<path class="st85" d="M214.7,140.9l0.7-0.9c2.3-1.2,5.1-1.2,7.5,0c1.3,1.1,0,3.7,2.5,4.2c-1.5,0.8-1.3,3.1-3.6,3.3
	c-5,0.5-5.7,0-6.3-5.2C215.3,141.8,215,141.3,214.7,140.9z"/>
<path class="st0" d="M128.5,325.3c4.1-6.6,10-11.8,15.4-17.3c1.6-1.7,3.1-3.8,6-3.5l-2.5-1c1.2-1.6,3-1.3,4.6-1.4
	c2.3,0.1,4.6-0.4,6.9,0.1c3.9,2.2,8.2,0.7,12.3,1c0.7-0.6,1.6-0.9,2.6-1c2.1-0.1,4.1-0.1,6.2-0.1c0.9,0,1.8,0,2.7,0
	c2,0,4-0.1,5.9-0.4c2.7,0.5,5.4,0.3,8.1,0.4c0.9,0.1,1.8,0.4,2.5,1c3.3,0.5,6.7-0.8,9.8,0.8c-2,0.9-4,0.2-6,0.4
	c-0.5-0.1,0.1,0.7-0.1,0.2c0-0.1,0.1-0.2,0.4-0.2c5.2-0.1,5.3-0.1,5.2,5.3c-0.1,5.2,0.5,10.3-0.3,15.5L128.5,325.3L128.5,325.3z"/>
<path class="st0" d="M304.2,325.6l-23.7,0c-0.6,0.4-1.3,0.4-1.9,0l-39.3-0.1c-2.1,0-4,0.5-6.3,0.3c-3.1-0.4-3.8-1.3-3.7-4.2
	c0.2-4.6,0.2-9.3,0-14c-0.2-3.3,0.7-4.5,4.2-4.4c8.7,0.2,17.5,0,26.3,0c1-0.8,2.3-1.2,3.5-1.1c6.7-0.1,13.3-0.3,19.9,0.1
	c0.4,0,0.9,0.2,1.3,0.3c2.5,2.4-0.9,1.5-1.2,2.2c1.6-0.7,3.5-0.2,4.6,1.1c5.5,5.5,10.7,11.2,15.9,17c0.6,0.6,0.8,1.4,0.7,2.3
	L304.2,325.6z"/>
<path class="st0" d="M294.8,257.1c-8.8,6.9-17.4,13.5-25.7,20.3c-2,1.6-4.1,1.4-6.2,1.4c-10,0.1-20-0.1-29.9,0
	c-2.6,0-3.6-0.5-3.5-3.4c0.2-5.3,0.1-10.7,0-16c0-2,0.4-2.9,2.7-2.9c20.5,0.1,41,0,61.5,0.1C294,256.7,294.4,256.8,294.8,257.1z"/>
<path class="st86" d="M225.4,235.2c-1.2-1.2-1.2-2.7,0.1-3.4s3.3-2.3,4.8,0.1c-2.8-0.3-3.3,1-3.3,3.6c0.1,14.5,0.1,29.1,0.1,43.6
	c0,17.1,0,34.1,0,51.2c0,9.9-0.1,19.8-0.2,29.7c-1.2,0.6-1.6,0-1.9-1.1c0.3-6.5-0.3-13,0.4-19.2c-0.9,2.7-3.6,4.3-6.4,3.9
	c-2.9-0.3-5.6-1.2-6.3-4.7c0.3-3.6,2.9-3.6,5.6-3.9c2.2-0.2,5,1.3,6.6-1.8c1.1-6.6-0.5-13.4,0.8-18.9c-0.7,2.1-3,3.8-6.2,3.8
	c-3.3,0.2-6.2-2-7-5.2c0-0.8-0.3-1.6-1-2.1l0.2-29.5c0.3-0.3,0.7-0.4,1.2-0.3c2.9,0.2,5.7-0.1,8.6,0c2.8,0.1,3.9-1.2,3.9-3.9
	c0-4.5-0.3-9,0.2-13.1c0.5-0.7-0.7-0.5-0.1-0.4c-0.8,2.5-2.9,3.2-5,3.6c-3.4,0.6-6.1-1.2-7.9-4.9c0.1-1.3-1.1-1.9-1.5-3
	c1.1-3.5,0.5-7.1,0.6-10.6c-0.5-0.6-1.3-1.1-1.1-2.1c0.3-0.6,0.9-0.9,1.6-0.8c0.8,0.4,1.3,1.2,1.3,2.1c0.6,2.6-0.7,5.5,1.2,7.9
	c1.9,1.2,4,0.5,6,0.7c1.5,0.1,3.2-0.1,4.6,2c-3.6,0.5-7.3,0.6-10.9,0.3c3.4,0.1,6.7,0.2,10.1,0c2.2-0.1,0-1.5,0.5-2.2
	C225,249.3,225.1,242.2,225.4,235.2z"/>
<path class="st87" d="M158.9,392l-6.6-0.1c-1.1,0.8-2,0.3-2.9-0.4c-1.6-1.5-3-3.1-4.3-4.9c-0.8-0.9-1.1-2-0.1-2.9
	c1-0.9,2-0.2,2.8,0.6c1.6,1.4,2.3,3.8,4.8,4.1c0.8,0.1,1.6,0.4,2.2,1c4.1,0.7,6.6-0.2,5.7-5.1c-0.4-2.4,1.3-3.7,3.4-3.7
	c7.8,0.3,15.6-1.7,23.4-0.2c3,0.6,2.5,2.4,2.5,4.2c0.1,4.9,0.1,4.8,4.5,3c2.6-1.1,5-2.9,8.7-2.1c-4.4,2.8-8.7,4.5-13,6.4
	c-3,0.6-5.2-2-8-2.1c-0.6,0-1.3-0.8-1.9-0.6c-5.5,1.6-11.3,0.4-16.7,2.2C161.9,392.1,160.5,392.5,158.9,392z"/>
<path class="st14" d="M281.9,232l1.6-0.1l0.4,0.5c0.2,1.8-0.1,3.5,0,5.3c0.2,7.4,4,10,10.9,7.3c-6.7,2.1-9.7-0.3-9.7-7.5
	c0-1.8,0.1-3.6,1.1-5.1c0.2-0.3,0.6-0.6,0.9-0.8c0.6-0.2,1.2,0,1.6,0.4c0.5,2.2-0.1,4.3,0,6.5c0.2,2.5,1,3.7,3.6,2.5
	c1.5-0.8,3.1-1.1,4.8-0.9c2.3,0.3,2.8-1.1,2.7-3c0-2.2-1-2.9-3.1-2.4c-1.9,0.5-3.2-0.2-3.6-2.2c0-0.4,0.1-0.7,0.3-1.1
	c0.7-0.9,0.7-2.2,1.7-2.8c0.2,0,0.4,0.1,0.6,0.2c2,1.6,4.4,2.1,6.7,3c1.7,2.3,0.8,5,1,7.5c0.1,1.6-0.2,3.4,0.5,5.4
	c1.4-2.3,0-5.6,2.8-6.4c3.1-0.9,3.5,2.8,5.5,4c-4-6.8-4-6.8,0.5-10.7c0.4-0.2,0.8-0.3,1.2-0.3c0.7,0,1.3,0.3,1.6,0.8l-1.4,1.9
	c1.6,0.1,3.2,0.3,4.7,0.4c1.5,0.1,3.2-0.4,4.6,0.9c-3.5,1.2-7.1,0.7-10.9,0.7c-0.7,3.5,3.5,4.6,3.8,7.5c0.2,1.5,2,1.4,2.5,2.6
	c0.1,1,2.4,2.3,0.6,2.9c-2.3,0.7-5.2,1.3-7.3-1c-1.1-1.3-2-2.9-3-4.4c-0.5-0.6-1-1.5-1.9-1.2c-0.9,0.3-0.7,1.3-0.7,2.1
	c-0.1,2.1,0.6,4.4-2.8,4.8c-4.8,0.6-2.5-3.3-3.5-5.6c-3.1,5.4-7.6,6.6-13,5c-3.5-1.1-5.5-3.2-5.4-7.2
	C282,238.2,281.9,235.1,281.9,232z"/>
<path class="st88" d="M211.5,385.4l-0.1-23.8c5.2-2.1,10.4-1.9,15.6-0.1c0.5,8.3-0.4,16.6,0.5,24.9c0.3,3.3-1.5,6.3-4.4,7.8
	c-2.9,1.5-5.8,1.5-8.5-0.5S210.5,388.9,211.5,385.4c4.1,1.1,8.2,0.3,12.3,0.5c1.4,0.1,0.8-1.1,0.9-1.8c0.8-6.5-0.4-13,0.7-19.5
	c0-0.5-0.7,0.2-0.2,0.1c0,3.3-2.5,4-4.9,4.4c-4,0.7-6.5-1-7.5-4.8c1.1,6.7,0.2,13.4,0.6,20.1C213.2,385.4,212.7,386,211.5,385.4z"/>
<path class="st89" d="M307.3,294.4c-1.6-5-0.5-6.7,4.5-6.7c1.8,0,3.6,0,5.3,0c1,0,1.9,0.1,2.6-1.3c1.3-2.7,4.5-2.4,6.6-0.3
	c1.7,1.6,1.4,5.9,5.4,4.8c0.9-0.4,1.8-0.7,2.8-0.9c0.9-0.1,1.9-0.1,2.8-0.2c1.2,0,2.5-0.1,3.7-0.3c0.9-0.2,1.9-0.1,2.8,0.2
	c0.3,0.2,0.6,0.5,0.8,0.8c0.1,0.6,0,1.2-0.3,1.7c-2.5,1.9-5.7,0.5-8.3,2c-1.1,0.3-2.3,0.4-3.5,0.2c-3.3-1.1-7-0.5-9.8,1.5
	c-3.7-0.6-7.5-0.4-11.2-0.5C310.1,295.4,308.5,295.5,307.3,294.4z"/>
<path class="st90" d="M279.3,349.2l5.2-14c2.2-1,2.9,0.6,3.6,2.1c0.3,2.8,2,5.2,2.7,8.6c1.4-2.4-0.6-3.8-0.3-5.4
	c-0.1-1.6,1.1-3.4-0.1-5.1c-0.2-1.6,0.8-2.4,2.2-2.7c1.2-0.2,2.4,0.1,3.3,0.8c5.4,3,11.3,1.8,17,2.6c-0.9,3-3.8,1.2-5.5,2.3
	c-1.5,0.4-3,0.5-4.4,0.3c-3.2-0.4-4.7,1.4-5.6,4.1c-0.5,1.6-0.5,2.9,1.4,3.6c1.1,0.4,2.5,0.7,2.2,2.5c-0.2,0.4-0.5,0.7-0.9,0.9
	c-3.8,0.3-7.7,0.3-11.5,0.1c-1.8-0.4-1.5-1.9-1.6-3.2c-0.1-0.8-0.2-1.7-1.2-1.8c-0.7-0.1-1.1,0.6-1.6,1.1c-1.2,1.2-2,2.8-3.1,4.2
	c-0.5,0.3-1.2,0.3-1.7,0.1C279.3,350,279.2,349.6,279.3,349.2z"/>
<path class="st91" d="M335.5,290.8l-3.6,0.1c1.8-1.5,1.2-4.1,3.2-5.9c3.6-3.3,8.4-5.2,12.3-3.5c2,0.8,6.4,8,6.3,10.2
	c-0.2,3.1-5,9.2-7.7,9.6c-6.4,0.9-9.7-1.3-11.6-5.2c-0.5-0.6-1-1.2-1.7-1.6c1-0.6,2.2-1,3.4-1c0.8,0.4,1.6,1,2.3,1.6
	c4.2,3.3,5.9,3.1,9.5-1.1c1.4-3.7,0.7-6.3-2.4-8c-2.5-1.3-5.6-0.5-7.6,2C337.1,289,336.8,290.3,335.5,290.8z"/>
<path class="st92" d="M337.6,231.8c0-7.2,0.1-14.5,0.1-21.7c0-5.2,0-5.2,4.9-2.9l3.3,1.6c3.6,4.4,0.4,6-3.1,7.4
	c-2.8,2.1-2.5,6.9,0.6,8.5c1.2,1,1.5,2.7,2.6,3.8c0.2,0.3,0.4,0.6,0.6,0.9c0.4,0.8,0.9,1.6,0.2,2.5L337.6,231.8z"/>
<path class="st93" d="M307.4,325.4c4.2,0.4,8.6-0.7,12.7,0.8c1.4,0.4,2.8,1.1,3.9,2c1.4,1.3,2,3.3,1.4,5.2c-0.6,2.6-2.7,3.5-5.1,3.8
	c-2.3,0.5-4.6,1.1-6.3-1.2c-2.8-4-4.9-8.5-9.8-10.5l-0.1-0.3C305.1,324.6,306.5,324.7,307.4,325.4z"/>
<path class="st94" d="M154.8,389.4l-2.6-0.1c-1.1-1.4-0.3-2.9-0.3-4.3c-0.1-3.5-2.6-6-6-5.9c-3-0.1-5.5,2.3-5.6,5.3c0,0,0,0,0,0
	c-0.3,3.2,2.1,6.1,5.3,6.3c0.2,0,0.4,0,0.6,0c1.2,0,2.5-0.5,3.6,0.4l2.5,0.8c-2.3,3.9-11,4.1-13.6,0.3c-2-2.9-3.9-6.1-2.6-9.5
	c0.6-1.6-0.1-5.4,3.8-4.8c4.4-3.3,8.8-2.5,13.2,0C156.3,381,157.1,386.5,154.8,389.4z"/>
<path class="st95" d="M301.6,377.3l0.6,0.7c2.3,2.5,2.5,5.6,2.2,8.7c-0.3,3.3-2.4,4.4-5.4,2.9c-2-1.1-3.9-2.5-5.5-4.1
	c-1.8-2.3-4.8-3.2-6.7-5.5c-0.2-0.3-0.2-0.8,0.1-1.1C291.8,377.9,296.4,374.7,301.6,377.3z"/>
<path class="st96" d="M277.9,396.9c0,0.3,0,0.5-0.1,0.7c-1.4,0.8-2.9,0.4-4.4,0.4c-33.1,0-66.3,0-99.4,0c-0.5,0-0.9-0.2-1.2-0.5
	c0.3-2.3,3.3-1.5,4-3.4c0.7-0.4,1.5-0.6,2.3-0.3c0.5,0.2,0.9,0.5,1.2,1c0.4,0.5,0.9,1.2,1.6,0.8c0.7-0.4,0.1-1.3,0.3-1.9
	c2.2-4.2,3.2-4.3,6.4-1c-0.9,3.3,0.1,4.2,3.7,4.2c15.5-0.2,31.1-0.1,46.6-0.1c1.8,0,3.6,0.3,3.6-2.4c0.5-0.7,1.4-0.9,2.2-0.6
	c2.2,2.4,4.4,2.4,6.6,0c1-0.4,2.2-0.2,2.9,0.6c-0.4,2.6,1.4,2.5,3.1,2.5L277.9,396.9z"/>
<path class="st97" d="M285.3,303.5l-0.8-0.3c-5.5-4.5-12-2.6-18.2-2.9c-1.9-0.1-2.1,1.8-3,2.9l-3.3,0c-0.1-2,1.2-3.8,0.2-5.9
	c-0.5-0.9,0.4-1.8,1.4-2.1c1-0.3,1.3,0.5,1.7,1.2c1.6,2.8,4.6,2.6,6.7-0.1c1.4-1.8,3-2.5,4.1,0.4s3.2,1.2,5.1,1.5
	c-1.6-1.8-3.2-3.5-4.7-5.1c0-0.1,0-0.3,0.1-0.4c0.1-0.1,0.2-0.2,0.4-0.2c0.5-0.7,1.2-1.2,2.2-0.9c0.7,2.1,2,3.4,4.4,3.4
	c0.6,0,1.3-0.2,1.8,0.6c2.6,3.8,3.3,3.5,7,0c1.7-1.6,4.9-0.5,7.6-0.4c-1.2,1.4-3.3-0.2-4,1.6c-0.1,0.4,0,0.8,0.3,1
	c1.8,0.9,3.7,0.4,5.6,0.4c1.1,0,0.8-1.3,0.8-2c0-1.2,0.7-1.3,1.6-1.2c0.6,0.1,1.6-0.2,1.5,0.8c-0.5,3.7,2.2,2,3.7,2.4l0.3,0.5
	c-0.1,0.4-0.4,0.7-0.8,0.9c-6.1,1-12.3,0.4-18.4,0.4c-2.5,0-2.8,0.9-2.1,2.9C286.1,303.5,285.7,303.7,285.3,303.5z"/>
<path class="st98" d="M176.3,332.9c-3.7,4-7.5,7.9-11,12.1c-2.7,3.2-5.6,4.9-9.8,4.3c-1.8-0.3-3.7,0-6-0.9l26.7-16.5
	c0.2,0.1,0.3,0.4,0.3,0.6C176.4,332.7,176.4,332.8,176.3,332.9z"/>
<path class="st14" d="M171.2,231.9c0,3.8,0,7.6,0,11.5c0,1.9-0.6,3-2.7,3.4c-5,0.9-9.8,2.2-14.1-2.3c-1.3-1.4-0.8-3.4-2.3-4.6
	c-1,1.4-0.4,2.8-0.5,4c-0.1,1.7,0.3,3.6-2.5,3.6c-2.8,0-3.5-1.4-3.4-3.9c0.1-3.8,0-7.6,0-11.5c0.2-0.3,0.7-0.4,1-0.1
	c0,0,0.1,0.1,0.1,0.1c1.9,3.2,0.3,6.9,1.4,10.7c1.4-3.9-0.5-7.8,1.7-11.1c1.1-0.8,2.7-0.9,3.9-0.2c1.8,1.7,1.2,4,1.5,6.1
	c0.5,4.3,2.4,6.4,6.1,7c5.4,0.8,7.1-0.8,7.2-6.2c0-2-0.3-4.1,0.5-6c0.3-0.7,1-1.1,1.8-0.9C170.9,231.7,171.1,231.8,171.2,231.9z"/>
<path class="st14" d="M230.2,232l1.6-0.3l0.5,0.4c0.9,2.3,2.9,4,5.4,4.5c4.5,1.1,6.1,2.7,5.5,5.2c-0.5,2.3-3.3,3.7-7.1,3.4
	c-0.8-0.1-1.6-0.4-2.5-0.1c2.3,0.8,4.9,0.9,7.2,0.2c2.1-0.6,3.7-1.9,3.7-4.3c0-2.2-1.6-3.3-3.5-4c-2.5-0.9-5.6-0.7-6.4-4.2
	c0-0.4,0.2-0.8,0.5-1.1c0.6-0.3,1.2-0.2,1.6,0.3c1.1,1.2,2.5,1.4,4,1.6c4.1,0.5,7.1,4.3,6.6,8.4c-0.3,3.4-3.8,6.3-7.8,6.3
	c-2.5,0-4.9,0.4-7.3-0.5c-1.7-0.6-3.6-0.9-2.7-3.6c0.7-2.1,1.3-3.9,4.2-2.6c1.3,0.5,2.6,0.8,4,0.8c1.1,0,2.5-0.3,2.6-1.5
	c0.2-1.5-1.2-1.5-2.3-1.6c-1.9-0.2-3.7-0.8-5.3-1.8C230.8,236.2,230.1,234.3,230.2,232z"/>
<path class="st0" d="M315.7,232l-1.6-0.2c-0.9-0.7-0.4-1.5,0.2-3c-1.5,1.6-2.2,2.9-3.5,3.6c-0.4,0.2-0.8,0.3-1.2,0.4
	c-1.2,0.2-2.5,0.1-3.7-0.4c-0.4-0.2-0.6-0.5-0.8-0.9c-1-3,0.1-6.2-1.1-9.7c-1.1,3.5,0.2,6.8-1.2,9.8l-0.4,0.4
	c-2.7-0.1-5.9,0.9-6.7-3.2c0.3-0.9-0.3-3.1,1.9-1.3c2.2,1.9,2.4,0.3,2.4-1.5c0-1.7-0.1-3.3,0.1-4.9c0.3-2.6,2.1-3.2,4.4-3.2
	c2.3,0.1,2.9,1.5,2.9,3.5c-0.1,2,0,4.1-0.1,6.1c0,1-1.2,2.3,0.3,2.9c1.2,0.5,1.7-1.1,2.5-1.7c1-0.7,1.7-2.1,2.8-2.3
	c2.3-0.5,5.7-1.4,6.9,0.4s-2.5,3-3.3,4.9L315.7,232z"/>
<path class="st99" d="M188.6,392.8c-2.8-2.5-4.7-1.8-5.9,1.6c-1,1-2.1,0.8-3.2,0.1h-2.6c-0.9,0.7-2,1.1-3.1,1.1c-1.1,0-2.2,0-3.3,0
	c-1,0-2.1-0.1-3-0.5c-1.5-2.3-3.9-2-6.2-2.2c-0.9-0.1-1.8,0-2.5-0.7c5.7-3.9,12.8-1.6,19-3.8c3.1-1.1,6.6,1.1,9.7,2.6
	c0.8,0.4,1.5,1.2,2.5,1.3L188.6,392.8z"/>
<path class="st100" d="M156.3,293.3l1,0.1c1.6,0.7,4.3-1.3,4.9,2c0.6,3.1,0,5.4-3.3,6.5c-2.2,0.4-4.4,0-6.7,0.1
	c-1.4,0-2.8,0-3.8-1.2c-2.3-1.6-0.9-3.9-0.7-5.8c0.2-1.9,2.3-1.3,3.7-1.4C153.1,293.4,154.7,293.4,156.3,293.3z"/>
<path class="st101" d="M126.7,249.3H104l-2.5-0.4c-1.2-3,0.4-4,3-4.2c3.4-0.2,6.8-0.1,10.2,0c2.5,0,4.8,0.9,7.3,0.9
	c3.1-0.1,6-0.2,8.3-2.6c0.4-0.6,1.2-0.7,1.8-0.3c0,0,0,0,0,0c1.2,1.6,0.6,3.2-0.2,4.8C131.2,250.9,128.3,248.3,126.7,249.3z"/>
<path class="st102" d="M254.1,394.4l-3.5,0.1c-1.6,1.3-3.9,1.3-5.4,0h-2.8c-3-1.2-1.5-3.8-1.3-5.6c0.2-1.9,2.2-1.1,3.4-1.1
	c2.5-0.1,4.9-0.1,7.4,0c1.3,0.1,3.4-0.8,3.6,1.5C255.6,391,257,393.3,254.1,394.4z"/>
<path class="st103" d="M200.1,294.3c0.8,2.4,1.5,4.7-1,6.6c-0.9,0.7-2.1,1.1-3.2,1c-2.5,0-5.1,0.2-7.6,0.1c-1.3-0.2-2.2-1.3-2-2.6
	c0,0,0-0.1,0-0.1c0.3-5.5,0.3-5.5,5.8-5.5C194.7,293.9,197.5,293.4,200.1,294.3z"/>
<path class="st104" d="M152.2,350.4c-9,1.1-18.1,0.2-27,0.4c-1.8,0-3.8,0.6-5.5-0.5c3.5,0.3,6.1-0.5,6.4-4.7
	c0.1-2.4,3.8-3.3,2.6-6.2c0-2.2,0.6-3.8,3.1-4c0.9,4.1,3,7.9,2.6,12.3c-0.2,2.1,0.9,2.5,2.7,2.5
	C142.1,350.2,147.1,350.3,152.2,350.4z"/>
<path class="st105" d="M171.1,300.9l-0.8-0.8c-0.1-0.5,0,0.1-0.1-0.4c-0.7-5.6-0.7-5.6,4.7-5.8c1,0,1.9,0,2.8,0c5.9,0,5.9,0,6.3,5.8
	c-0.1,0.7-0.5,1.4-1.2,1.7c-1.1,0.4-2.3,0.6-3.5,0.5c-1.6,0.1-3.3,0.1-4.9,0C173.2,302,172.1,301.6,171.1,300.9z"/>
<path class="st106" d="M286.9,379c0.1,0.1,0.1,0.3,0,0.4c-0.2,1.6-1.3,2.6-2.3,3.7c-2.1,1.3,0,2.7,0,4c1.6,3.1,4.3,5.9,3,9.8
	c-2.7,1-5.4,1.4-8.2,0c0.9-1,2.2-0.8,3.3-1.2c0.5-0.1,0.9-0.6,0.8-1.1c0-0.2-0.1-0.3-0.2-0.4c-0.2-0.5-0.8-0.6-1.2-0.4
	c-0.2,0.1-0.3,0.2-0.4,0.4c-0.6,1-1.4,2-2.2,2.8L278,397c1-3.9,0.6-8,2.1-11.9c0.9-2.3,2.8-4,3.3-6.7
	C283.8,376.2,285.7,378.4,286.9,379z"/>
<path class="st107" d="M307.3,294.4c3.8,0,7.6,0.1,11.4-0.2c1.5-0.1,3,0.5,4,1.6c1.2,0.8,1.5,1.7,0,2.6c-0.1,0.5-0.5,1-1,1.2
	c-4.8,0.6-9.8,2.3-14.3-1.1l-0.3-0.2C307.3,297,307.3,295.7,307.3,294.4z"/>
<path class="st14" d="M272.8,248.4c-1.6-0.6-4.7,1.5-4.9-2.7c-0.1-2.9,0.7-4.7,3.8-3.8c2.9,0.8,3-0.7,2.8-2.7
	c-0.2-2.7,0.2-4.3,3.6-4.2c3.6,0.1,3,2.3,3,4.4C281.2,246,279.1,248.4,272.8,248.4z"/>
<path class="st50" d="M346.1,229.3c-2-0.9-3-2.4-2.7-4.6l15.7,0.1c1.6,1.6,3.7,1.8,5.8,2c1.2,0.2,3.5-0.5,3,2.2
	c-3.3,1.2-7,0.4-10.1,2.5c-2.4,0.5-4.8-0.6-6.1-2.6c-0.1,2.5-2.3,2.6-4.2,3.1h-0.3l-0.3,0L346.1,229.3c0.5-0.5,1.6-0.3,1.9-1.2
	C347.1,228.1,346.8,228.8,346.1,229.3z"/>
<path class="st0" d="M194,226.2l0.3-1.7c4.1-1.3,4.2,1.4,4.3,4.9c2.6-5.7,7.3-5.1,11.7-4.8c3.5,0.2,5.6,2.5,6.5,5.8
	c0.3,1.2-0.3,1.4-1.2,1.5c-2.4-2.8-4.8-5.2-9.1-4.7c-3.5,0.4-4.2,3.6-6.5,5.1c-0.6,0.3-1.2,0.2-1.7-0.2l-3.9-0.4
	c-1-0.6-0.9-1.5-0.8-2.4C193.8,228.2,193.6,227.2,194,226.2z"/>
<path class="st14" d="M255,231.9l1.5,0.1c0,1.9,0,3.8,0,5.7c-0.1,2.2,0,3.9,2.7,4.7c2.3,0.7,1.6,3,1.4,4.6c-0.3,2-2.1,1.4-3.3,1.3
	c-4,0-7.3-3.3-7.2-7.3c0,0,0,0,0,0c-0.1-3,0-6,0-9l1.5-0.1l0.5,0.4c1.2,2.5,0.6,5,0.7,7.6c0.1,2.5,0.6,4.5,3.9,5.5
	c-3.7-4.2-3.2-8.6-2.1-13L255,231.9z"/>
<path class="st14" d="M181,232c0,1.9,0.1,3.8,0,5.7c-0.1,1.9,0.3,3.3,2.2,3.8c2.8,0.7,2.1,2.9,1.8,4.6c-0.4,2.2-2.4,1.4-3.7,1.3
	c-3.8-0.2-6.8-3.4-6.8-7.2c-0.1-2.7,0-5.4,0-8.2c0.4-0.5,1.1-0.7,1.6-0.4c0.3,0.3,0.5,0.6,0.7,1c0.6,2.1,0.3,4.3,0.4,6.5
	c0.1,2.6,1.1,4.4,4.6,5.5c-4.5-3.6-3.4-7.8-3.1-11.8c0.1-0.4,0.4-0.7,0.7-1C180,231.4,180.6,231.5,181,232z"/>
<path class="st14" d="M192.6,232.1c0,1.8-0.1,3.5,0,5.3c0.1,1.9,0.6,4,2.9,4.3c2.6,0.4,2.3,2.2,2.1,3.9c-0.2,2.2-1.9,1.9-3.3,1.9
	c-4.7,0-7.5-2.4-7.5-7.1c0-2.8-1.1-5.6-0.1-8.4c0.4-0.5,1.1-0.7,1.6-0.4c0.3,0.3,0.5,0.6,0.7,0.9c0.6,2.3,0.3,4.6,0.4,6.9
	c0.1,2.3,0.9,4.2,4.3,5c-4.1-3.6-3.2-7.7-2.9-11.6c0.1-0.4,0.3-0.7,0.6-1C191.9,231.7,192.3,231.8,192.6,232.1z"/>
<path class="st108" d="M307.5,298.5c5,1.1,10.2,1,15.3-0.1c0.9,1.1,2.2,0.6,3.3,0.8c2.5,0.4,2.8,1.6,1,3.4
	c-6.8-0.4-13.7,1.4-20.5-0.8c-0.9-1.2-0.3-1.9,0.7-2.6L307.5,298.5z"/>
<path class="st96" d="M170.4,394.4h3.3c0.9,1,0.3,1.6-0.5,2.2c-0.1,0.1-0.3,0.3-0.4,0.5c-2.9,1.6-5.9,1.1-8.9,0.6l-0.8,0.1
	c-6.3,0.6-12.6,0.6-18.8-0.1c0-0.2-0.1-0.4-0.1-0.7c4.6,0,9.2-0.4,13.8,0c3.7,0.3,4.4-1,3.5-4.2c2.3-1,5-2.9,5.8,1.6
	C168.2,396.2,169.3,395.6,170.4,394.4z"/>
<path class="st109" d="M208.1,372.1c0-5.6-0.1-11.2,0-16.8c0.1-2.5-0.5-3.7-3.4-3.7c-12.4,0.2-24.9,0.2-37.3,0.3
	c-1.2,0-2.1-0.1-2.9-1.1c1.4-0.8,2.9-0.4,4.4-0.4c13.3,0.1,26.6-0.4,39.9,0.3c0.8,6.6,0.2,13.3,0.3,19.9c0.1,0.6-0.3,1.3-0.9,1.4
	C208.2,372.1,208.2,372.1,208.1,372.1z"/>
<path class="st110" d="M183.4,335.4c2.3,4.2,1.2,9,2.8,13.4c-1.8-1.4-4-2.5-3.5-5.7c-1.9,0.9-3.1,2.7-3.2,4.7c-0.1,1.2-1,1.8-2,1.4
	c-1.4-0.5,0-1.3,0-1.9c0.2-2.5,1.4-4.4,2.8-6.2C180.6,338.8,180.6,336.3,183.4,335.4z"/>
<path class="st111" d="M314,336.1c1.9,0.5,3.9,1.3,5.9,0.1c2.9,0.7,6.2,1,6.5,4.9c0.2,2.1,0.2,4.2-2.4,5c-1-0.5-1.8-1.2-2.4-2.1
	c-2.9-3.5-6.1-6-11-5.3c-1.2,0.3-2.5-0.1-3.3-1.1c1.6-1.6,4.2,0.4,5.7-1.4L314,336.1z"/>
<path class="st112" d="M225.4,333.7c0.9,1.6,0.6,2.5-1.4,2.5c-2.1,0-4.3,0.2-6.4-0.1s-3.5,0.6-4.3,2.5c-0.4-0.2-0.7-0.5-0.9-1
	c-0.1-0.6-0.5-1.1-1-1.4c-0.8-0.6-0.8-1.2,0-1.8c0.7-0.6,1.1-1.5,1.9-2C217.4,331.7,221.6,330.2,225.4,333.7z"/>
<path class="st14" d="M133.4,232l0.8-0.2l0.5,0.4c1.5,3.3,0,7,1.3,10.9c1-3.8,0-7.2,0.8-10.4c0.2-0.4,0.4-0.8,0.7-1
	c0.6-0.3,1.4-0.1,1.7,0.5c0,3.7,0,7.3,0,11c0,4.5-1.2,5.2-5.8,3.6C132.4,241.8,131.1,236.9,133.4,232z"/>
<path class="st113" d="M183.4,335.4l-3.2,5.7c-1.4-2.2-2.4,1.5-3.8,0.3c-0.4-1.9,1.9-1.6,2.3-3c-0.5-1.2-2.1,0-2.9-1.2
	c2-0.6,5.7,0.1,3.5-3.9c-0.8-1.4-2-1.1-3.1-0.4l-0.1-1c0.7-0.6,1.4-1.1,2.1-1.8c2-2,3.1-1.6,3.7,1.2
	C182.3,332.7,182.8,334.1,183.4,335.4z"/>
<path class="st104" d="M208.9,350.8l-44.2,0.1c-3.5-0.4-7,0.5-10.4-0.5c17.9-0.1,35.8-0.1,53.6-0.1
	C208.2,350.3,208.6,350.5,208.9,350.8z"/>
<path class="st114" d="M357.5,231.2c2.8-3.8,7-2.2,10.7-2.7c0.3-0.1,0.6-0.1,0.8,0.1l4.2,1.6l0,0l-0.1,1.6l-15.6,0.1
	c-0.3-0.1-0.4-0.3-0.3-0.4C357.2,231.3,357.3,231.2,357.5,231.2z"/>
<path class="st115" d="M279.3,349.2l0.2,0.8c-1.4,1.2-3.1,0.8-4.7,0.8c-13.6,0-27.2,0-40.8,0c-1,0.1-2-0.3-2.9,0h-1.5
	c-0.1-2.7,2.1-1.6,3.2-1.6C248.3,349.2,263.8,349.2,279.3,349.2z"/>
<path class="st116" d="M183.6,300.1c-0.1-5.8-0.1-5.8-5.9-5.8c-7.2,0-7.2,0-7.3,5.8c-2.3-1.7-0.7-3.9-0.5-5.7
	c0.2-1.4,2.1-0.8,3.2-0.8c1.6-0.1,3.3,0,4.9,0c5.7,0,5.7,0,6.8,5.3c0.2,0,0.5-0.1,0.7-0.2c-0.4-4.7,2.1-5.7,6.1-5.1
	c2.8,0.4,5.7-0.8,8.4,0.8h-7.4c-5.9,0-5.9,0-6,5.9C185.8,301,184.4,301,183.6,300.1z"/>
<path class="st117" d="M131.7,335.4c-1.6,0.9-2,2.7-3.1,4c-2.5,1.1-4.8,1.8-7-0.9c1.7-1.8,5,0.8,6-1.9c0.6-1.8-0.6-3.3-2.2-4.4
	l-0.2-0.8C130.1,328.3,129.8,333.5,131.7,335.4z"/>
<path class="st14" d="M198.3,232l1.6-0.2l0.5,0.5c0.9,1.6,0.6,3.5,0.7,5.2c0.2,5.8,1.3,7.1,6.9,8.2c0.9,0.2,1.9,0.2,2.6,1l0.8,1.8
	c-1.5,0-3,0-4.5-0.1c-4.9-0.4-8.3-3.7-8.6-8.6C198.2,237.1,198.3,234.5,198.3,232z"/>
<path class="st118" d="M325.5,232h0.8c0,6.7,0,13.3,0,20c0,5.9-0.2,6-4.9,3.7l0,0c1.5-2.2,0.5-4.8,1-7.3c0.2,0.1,0.4,0.2,0.5,0.3
	c0.6,1.6-1.1,4.9,1.3,4.8c2.5-0.1,1.1-3.4,1.2-5.2C325.6,242.9,325.5,237.4,325.5,232z"/>
<path class="st119" d="M227,361.5l-15.6,0.1h0c0.1-1.5,1-2.8,2.5-3.3c3.9-0.3,7.9-1.5,11.6,0.9l1.5,0.8L227,361.5z"/>
<path class="st120" d="M306.7,301.5c1.5-0.9,2.3-2,4.6,0.1s6.9,1.8,9.6,0.1c2.2-1.4,3-2.4,4.4,0.3c0.2,0.4,1.3,0.3,1.9,0.5
	c0,0.2,0,0.4,0,0.7h-19C307.8,302.6,305.9,303.2,306.7,301.5z"/>
<path class="st2" d="M139.3,232.1l-1.6-0.3c-1.3-1.8-0.3-3.1,0.9-4.4c1.7-0.7,3.5-0.2,5.3-0.3c1.2,0.2,2.2,0.9,2.9,1.8
	c0.4,0.6,0.6,1.4,0.4,2.2c-0.1,0.4-0.3,0.7-0.6,0.9l-0.9,0.1C143.5,231.3,141.4,230,139.3,232.1z"/>
<path class="st2" d="M188.4,231.7l-1.6,0.4c-1.9-0.4-3.8-0.4-5.7-0.1l-1.6-0.3c-1.5-2.3-0.4-3.5,1.9-4.1c1.8-0.5,3.8-0.4,5.6,0.3
	C188.5,228.6,189.6,229.7,188.4,231.7z"/>
<path class="st121" d="M208.1,325.3c0-5.2-0.3-10.3,0.1-15.5c0.2-3.9-0.9-5.6-4.9-4.9c-1.1,0.2-2.3-0.1-3.2-0.8h8.9
	c0.1,6.5,0.2,12.9,0.2,19.4C209.2,324.3,209.3,325.2,208.1,325.3z"/>
<path class="st122" d="M133.4,232c0,4.9,0,9.8,0,14.7l-1.5,0.8l-0.2-4.9c-1.9-3-0.5-6.4-1.2-9.5c0-0.5,0.1-0.9,0.3-1.3
	c0.9-0.7,1.7-0.4,2.6,0L133.4,232z"/>
<path class="st123" d="M287.7,337.7c-0.7-1.2-1.5-2.4-3.1-2.4c-0.3-1.3,1.1-1.6,1.6-2.5c0.4-0.4,1-0.6,1.6-0.4
	c1.5,0.8,1.9,2.6,3.3,3.6h1.2c-1.3,1.1,1.1,3.2-1.1,4.1C289.5,340.3,288.1,339.3,287.7,337.7z"/>
<path class="st124" d="M213,359.2l-1.8,2.4c0-8.5,0-16.9,0-25.4c0.8,0,1.5,0,1.6,1c0.5,5.8,0.7,11.7,0.6,17.5
	C213.6,356.2,213.4,357.7,213,359.2z"/>
<path class="st125" d="M236.9,232l-1.6-0.3c-0.7-3.1,1.7-3.1,3.6-3.3c1.9-0.2,4.1-0.2,5.4,1.8c0,0.5,0.1,1.1,0.1,1.7L236.9,232z"/>
<path class="st124" d="M213,333.7c-0.3,0.6-1.1,0.9-1.7,0.7c0-7.9,0-15.8,0-23.7c0.8,0,1.4,0.2,1.5,1.1
	C213.6,319.1,213.7,326.4,213,333.7z"/>
<path class="st126" d="M153.1,378c-4.4-1.5-8.8-2.3-13.2,0c0.9-3.5,3.7-2.6,6.2-2.9C148.8,374.6,151.5,375.8,153.1,378z"/>
<path class="st127" d="M212.1,281.2h-0.5c-0.1-5.7-0.1-11.3-0.2-17c0-1.7-0.3-3.4-0.5-5.2c0.8,0.6,1.9,0.7,2.1,1.8
	c0.6,5.1,0.7,10.3,0.5,15.4C213.4,278,213.7,279.9,212.1,281.2z"/>
<path class="st92" d="M357.5,231.2c0,0.2,0,0.4,0,0.7l-9.9,0C351.5,229.8,351.6,229.8,357.5,231.2z"/>
<path class="st128" d="M321.4,255.7c-0.2,0.5-0.3,1.3-0.5,1.4c-3.2,0.4-6.5,0.7-9.7-0.5C314.5,255.4,318,255.9,321.4,255.7
	L321.4,255.7L321.4,255.7z"/>
<path class="st129" d="M291,336.1c-2.7,0.5-2.3-2-3.2-3.3c0-1.9,1.1-2.1,2.6-1.6h2.3c0.7,0.6,0.8,1.6,0.2,2.2
	c-0.1,0.1-0.1,0.1-0.2,0.2C290.8,333.6,291.1,335,291,336.1z"/>
<path class="st130" d="M290.3,331.2l-2.6,1.6h-1.6c-1.1-1.4,1.1-2.2,0.5-3.7c-0.3-0.7,0.9-1.3,1.8-1.1
	C290.2,328.4,290.3,329.8,290.3,331.2z"/>
<path class="st14" d="M319,246c-1.6-0.2-3.7,0.2-2.5-2.6c2.2,1.2,4.8,0.7,7.5,1.2C322.4,246.7,320.4,245.3,319,246z"/>
<path class="st131" d="M152.4,301c2.2,0,4.5-0.7,6.5,0.9c0,0.1,0,0.3,0,0.4c-2,1.8-4.3,0.9-6.6,1c-0.6-0.6-0.7-1.5-0.1-2.2
	C152.3,301.1,152.3,301,152.4,301z"/>
<path class="st132" d="M276.9,291.7l-2.2,0.9c-2.3-1.6-5-0.2-7.4-1.3C270.6,291.9,273.8,288.2,276.9,291.7z"/>
<path class="st133" d="M176.1,231.7l-1.6,0.3l-3.3-0.2l-0.3-0.1h-0.3c-0.2-0.1-0.4-0.3-0.4-0.5c0-0.3,0-0.4,0.1-0.4
	c1.6-1,2.4-3.3,4.7-3.4C176.9,228.5,177.5,229.9,176.1,231.7z"/>
<path class="st134" d="M300,264.5c3,0,5.9,0,8.9,0c0.6,0,1.2-0.1,1.2,0.7c0,0.5-0.5,1.2-1,1C306.2,265,303,266.1,300,264.5z"/>
<path class="st130" d="M292.6,333.6c0-0.8,0-1.6,0-2.4c4.3-3.6,2,2,3.4,2.4H292.6L292.6,333.6z"/>
<path class="st135" d="M288.2,283.2l-9.7-0.5v-0.5h9.7L288.2,283.2z"/>
<path class="st136" d="M298.9,273.4c-3.2,1.5-6.5,1.2-9.7,0.5L298.9,273.4z"/>
<path class="st137" d="M278.6,325.6l1.9,0l1.8,4.6C280,329.3,278.2,328.3,278.6,325.6z"/>
<path class="st138" d="M192.6,232.1l-0.9-0.4c-0.9-3.2-0.5-3.7,2.5-3c0,0.9,0.1,1.9,0.1,2.8L192.6,232.1z"/>
<path class="st139" d="M171.1,300.9h3.4c0.8,1.2,0,1.8-0.8,2.3h-2.5L171.1,300.9z"/>
<path class="st140" d="M195.7,300.9l3.4,0c0,0.8,0,1.6,0,2.4l-2.6-0.1C195.6,302.7,195,302.1,195.7,300.9z"/>
<path class="st141" d="M242.8,330.6h6.4v0.4h-6.5L242.8,330.6z"/>
<path class="st142" d="M111.3,298.4l-1.6,0.1l-7.6-0.2c-1,0.3-2,0-2.8-0.6c-1.6-1.6-3.1-3.4-4.3-5.3c-0.6-0.6-0.6-1.6-0.1-2.2
	c0.8-0.9,1.7-0.4,2.5,0.2c1.6,1.4,2.6,3.5,4.7,4.2c1,0.1,1.9,0.5,2.7,1.1c4.1,0.7,6.6-0.2,5.7-5.1c-0.4-2.6,1.3-3.7,3.7-3.8
	c4.4-0.1,8.8,0.1,13.3-1.4c3.2-1.1,6.6,1.5,10.1,1.7c2.7,0.2,5.3,0.6,8-0.2c1.2-0.5,2.6,0.1,3.2,1.2c-5.4,1.3-11.3,2.4-9.7,10.1
	c-2-2.1-4.4-2.7-7.3-2.5c-5,0.2-10,0.1-15,0.1C114.6,295.9,112.5,296.3,111.3,298.4z"/>
<path class="st94" d="M104.7,295.9h-3.3c-0.6-1.4,0.2-2.7,0.2-4c0.1-3.6-1.8-6.1-4.9-6.3c-3.7-0.3-6.3,1.8-6.5,5.2
	c-0.2,3.4,1.9,5.8,5.6,6.2c1.3,0.2,2.7-0.4,3.9,0.6l2.3,0.8c-1.7,2.6-6.2,3.9-9.5,2.4c-5-2.2-7.5-5.5-6.8-12.1
	c0.3-2.9,6.4-8,9.4-8.1c4.5-0.1,8.2,3.3,10,7.5C106.4,290.6,106.2,293.5,104.7,295.9z"/>
<path class="st143" d="M152.4,301l-0.1,2.3l-5,0.2l-0.8-0.3l1.9-2.5L152.4,301z"/>
<path class="st144" d="M77.7,233.6v3.3c-1.6,2.8-2.5,6.1-4.9,8.5c-3.5,3.2-7.6,2.6-9.8-1.5c-0.4-0.7-0.4-1.2,0.2-1.7
	c0.2-0.2,0.5-0.3,0.7-0.4C69.4,240.7,73,236.2,77.7,233.6z"/>
<path class="st145" d="M115.4,245.9c-3.7,0-7.3,0.1-11,0c-2.4-0.1-3.2,0.9-3,3.1c-1.6-1.9-0.2-4.2-0.9-6.2l0.3-3.3
	c2.3,2.8,5.3,3.2,8.7,2.9c1.6-0.2,3.3,0,4.8,0.6C115.4,243.5,115.8,244.7,115.4,245.9z"/>
<path class="st146" d="M287.7,396.9c-0.2-3.7-2.6-6.6-3.9-9.8c2-1.5,4.8,0.4,6.7-1.5c1-0.3,1.7-1.5,3-1c2,1.4,3.9,2.9,5.9,4.3
	c2.7,1.7,4.3,1,4.7-2.2c0.3-3-0.3-6-1.8-8.6c4.2,4.1,3.8,11.3-1.1,15.7C297.3,397.2,292.8,398.6,287.7,396.9z"/>
<path class="st147" d="M323.8,345.9c3.4-4.8,2.8-6.5-4-9.7c2,0.1,3.9-0.2,4.6-2.3c0.7-2.1,0.1-4.4-1.7-5.7c-0.8-0.7-1.7-1.2-2.6-1.8
	c6.4,0.9,10.8,6.7,10,13.1c-0.1,0.9-0.3,1.8-0.7,2.6c-0.7,1.6-1.5,3.2-2.5,4.7l-1.7,1.7c-2,1.1-4.2,1.7-6.5,1.9
	c-5.4,0.5-10.9,0.1-16.4,0.2c-0.8,0-1.7,0-1.6-1.2l0-0.3c2.1-1.3,4.5-0.9,6.7-0.8C313.1,348.3,318.6,348,323.8,345.9z"/>
<path class="st148" d="M163.8,397.7l8.9-0.6c5.3,1.1,10.6,0.5,15.9,0.5c29.8,0.1,59.5,0,89.3,0c-0.3,1.8-1.6,0.8-2.4,0.8
	c-36.1,0.1-72.1,0.1-108.2,0C166,398.5,164.7,398.8,163.8,397.7z"/>
<path class="st149" d="M232.7,350.3l46.9-0.2l1.6-0.3c1.7-1.1,3.5-1,5.4-0.5c0.6,0.3,1.3,0.6,1.2,1.5l-7.5,0.1
	c-3.8,0.8-7.6,0.3-11.4,0.3c-10.9,0.1-21.8,0.1-32.7,0C235,351.2,233.4,352.1,232.7,350.3z"/>
<path class="st150" d="M232.7,350.3c1.3,1.1,2.9,0.6,4.3,0.6c14.4,0,28.9,0.1,43.3,0.1c-0.8,1-2,0.8-3,0.8c-14.1,0-28.1,0-42.2,0
	c-1.4,0.1-2.7-0.2-3.9-0.8C231.4,350.1,232,350.2,232.7,350.3z"/>
<path class="st151" d="M287.8,350.8l-1-0.8c-0.1-0.5,0.2-1,0.7-1.1c0,0,0.1,0,0.1,0l13.3,0.3c2.7,1.9,5.7,0.6,8.6,0.8
	c3.1,0.3,6.2,0.1,9.4,0.2C308.5,351.3,298.1,350.7,287.8,350.8z"/>
<path class="st152" d="M144.1,397.6l18.9,0.1c-6.2,1.6-12.5,0.5-18.8,0.6c-0.1-0.1-0.2-0.2-0.2-0.3
	C144.1,397.9,144.1,397.8,144.1,397.6z"/>
<path class="st153" d="M114.5,229.4c2.3,0.8,1.1-3.4,3.5-2.4c-0.3,2.2,0.6,4.4-0.3,6.6c-0.4,0.6-0.8,1.1-1.6,0.7
	c-3.9-2-7.8-1.6-11.8-0.2c-0.9,0.3-1.8,0.8-2.4-0.4c-0.2-0.6,0.1-1.3,0.6-1.7C106,228.9,110.5,230.1,114.5,229.4z"/>
<path class="st154" d="M102.5,232l-0.4,1.3c-0.2,1.6,0,3.3-1.4,4.4l-6.6-5C96.7,231,99.7,232.3,102.5,232z"/>
<path class="st14" d="M213.1,256.7c-2-2.9-0.6-6.1-0.8-9.1c1.3-2.3,3-4.3,0.2-7.2c-1.3-1.3,0.8-1.7,2.2-1.2c1.1,0.5,2.4,0.6,3.3,1.6
	c1.1,1.2,1,2.7,1.1,4.2c0,1.5,0.8,2.2,2.3,2.1c1.4-0.1,1.9-0.8,1.9-2.1c0.1-2.3-0.1-4.6,1-6.7l1-3.1c1.9,4.5,0.6,9.2,0.8,13.8
	c0.1,2.5,1,5.3-0.8,7.7C221.3,257.1,217.2,257.1,213.1,256.7z"/>
<path class="st155" d="M224.6,223.8c-2.7,1.1-5.5,0.6-8.3,0.8c-5.2-1.6-8.3-4.9-9-10.4c-0.7-5.5,1.6-9.8,6.3-12.3
	c4.5-2.4,9.3-1.9,13.5,1.2C234.2,208.6,233.1,218.6,224.6,223.8z"/>
<path class="st156" d="M244.2,196.7c0,0.5,0,1,0,1.5c-15.3,0-30.7,0-46,0.1c-1.2,0-2.9,0.5-3.2-1.5L244.2,196.7z"/>
<path class="st14" d="M214.8,239.2c-0.4,0.5-3.4-0.1-1.3,1.3c5.6,3.7,0.6,5-1.1,7.1c-0.1-0.8-0.2-1.5-1-1.8
	c-1.3-1.1-2.9-1.3-4.5-1.5c-2.6-0.3-4.3-1.7-4.4-4.5c0-2.7,2.1-3.1,4.2-3.2c1.5-0.1,3,0,3.9-1.6c0.7-1,0.7-2.5,1.9-3.3
	c2.6,1.5,1.8,3.8,1.6,6L214.8,239.2z"/>
<path class="st0" d="M214,237.7c-1.5-1.6,0-4.2-1.6-5.7c-4.8-2.9-4.8-2.9-9.4,0.6c-1,0.4-2.1,0.2-2.9-0.4l-0.1-0.4
	c1.6-4.5,4.7-6.1,9.4-5.6c3.6,0.4,5.5,2.4,6.3,5.7C214.4,233.6,216.9,236.4,214,237.7z"/>
<path class="st0" d="M219.6,231.9c1.6-3.5,3.7-6.3,8.2-5.7c0.9,0.1,1.5,0.4,1.6,1.4c0,0.7,0.1,1.3-1,1.3c-6.4,0-5.3,4.7-5.5,8.6
	c0,0.5,0,1.1,0.1,1.6c-0.4,0.7-1,1.2-1.7,1.4c-0.5,0.2-1.1,0-1.6-0.3L219.6,231.9z"/>
<path class="st14" d="M221.3,240.1l1.8-0.9l1.4-0.9c0,1.9,0,3.8,0.2,5.7c0.1,2.5,0.1,4.4-3.5,4.4c-3.6-0.1-3.2-2.1-3.1-4.3
	c0-1.1,0.1-2.2,0.1-3.3h1.5c1.3,0.8,0.8,2.5,1.7,3.9C222.3,243,221.3,241.5,221.3,240.1z"/>
<path class="st131" d="M221.3,240.1c3,1.3,1.4,3.8,1.4,5.8c0,0.7-1,0.7-1.7,0.7c-0.7,0-1.2-0.6-1.2-1.3c-0.1-1.5-0.1-2.9-0.2-4.4
	l0.2-0.6L221.3,240.1z"/>
<path class="st2" d="M194.2,228.7c-2.7-0.5-2.6,1.2-2.5,3l-0.1,0.4c-0.9,0.8-2.3,0.8-3.2,0l-0.1-0.4c-0.1-5.1-4-2.6-6.2-3.1
	c-2.5-0.5-3,1-2.7,3.1l-0.1,0.4c-0.9,0.8-2.3,0.8-3.2,0l0-0.3c0.2-1.6,0.3-3.1-1.4-3.9c-1-1.9,0.5-3.3,1.1-4.9c1.1-0.9,2-2,2.8-3.2
	l0.3-0.7c0.2,0.6,0.4,1.3,0.5,1.9c0.3,5.4,0.3,5.3,5.7,5.3c2.4,0,3.7-0.6,3.4-3.2c-0.2-2,0.5-3.5,2.7-3.6c2,1.9-1.9,6.1,2.9,6.8
	C194.4,227,195.7,227.8,194.2,228.7z"/>
<path class="st157" d="M161.2,225.1c0.7-2.1,0.9-4.5,2.8-6.2c3.5-3.1,8-2.2,11.4,2.3c0,0.2,0,0.4,0,0.6c-0.6,1.3-0.8,3-2.8,2.8
	c-4-3.3-5-3-6.5,1.8c-0.5,1.3-0.3,2.9-1.4,4C161.5,229.9,160.8,227.9,161.2,225.1z"/>
<path class="st158" d="M154,232h-4.1l-0.4-0.4c-0.6-1.1-0.9-2.4-1.5-3.5c-0.1-0.3,0-0.7,0.2-1l1.1-2l9.7,0.2
	c1.4,1.9,1.2,3.9,0.6,5.9c-0.3,0.6-0.9,1-1.6,1.1c-0.4,0-0.8-0.2-1.1-0.5c-0.7-1.1-0.5-2.4-1-3.9c-1.3,1.1-0.7,2.7-1.5,3.7L154,232z
	"/>
<path class="st159" d="M158.9,231.7c0-2.1,0-4.3,0-6.4l2.3-0.2c1,1.8,1.1,4.2,3.5,5c0.5,0,1.1,0.2,1.5,0.6c0.2,0.3,0.4,0.6,0.4,1
	c-0.2,0.3-0.4,0.6-0.7,0.8c-0.5,0.2-1.1,0.3-1.6,0.3c-1.5,0.2-3,0.1-4.5-0.3C159.3,232.3,159,232,158.9,231.7z"/>
<path class="st160" d="M178.5,219.7c0.4,1.9,0,3.3-2.4,3.2c-1.4,0.1-1.2-0.8-1.2-1.7c0.1-0.1,0.3-0.1,0.4,0
	C176.5,220.8,177.1,219.5,178.5,219.7z"/>
<path class="st161" d="M232.7,193.4l-5.6,0c-0.9-1-1.3-2.4-1.2-3.7c0-4.3-0.1-8.6,0-12.9c0-1.6,0.3-3.3,2.1-4
	c1.2-0.1,1.7,0.7,1.8,1.7c0.8,5.7,2.1,11.4,3.3,17.1C233.3,192.1,233.2,192.8,232.7,193.4z"/>
<path class="st162" d="M205.7,193.4l4-19.9c1-0.1,1.9,0.7,2,1.6c1.1,6.1,1.9,12.2-0.4,18.3L205.7,193.4z"/>
<path class="st163" d="M211.3,193.4c0-4.8,0.1-9.6,0-14.3c0-2,0.1-4.1-1.6-5.6c0-1.3,0.1-2.6,0.1-3.9l2.5-5.1
	c2.2,0.1,1.5,2.4,2.4,3.4v5.8c-1.3,1.1-1.2,2.7-1.2,4.1c0,3.8,0,7.6,0,11.4c0,1.5-0.1,3-1.3,4.2L211.3,193.4z"/>
<path class="st164" d="M223.6,193.3l0.2-20.2c2-0.6,2.8,0.3,2.8,2.2c-0.1,6,0.4,12.1-0.3,18.1L223.6,193.3z"/>
<path class="st165" d="M212.1,193.4c0-5.6,0.1-11.1,0.1-16.7c0-1.7-0.1-3.4,2.4-3.1c0.1,6.6,0.1,13.1,0.2,19.7L212.1,193.4z"/>
<path class="st166" d="M226.2,193.4c0-5.6-0.1-11.3,0-16.9c0-1.9-0.3-3.2-2.4-3.3l0-3c1.5-1,1.1-2.6,1.2-4c0.2-1.6-0.3-3.5,1.3-4.8
	c1.1,1.2,0.5,2.7,0.7,4.1c1.2,2.4,3.2,4.6,1.6,7.6c-1.9,0.7-1.5,2.4-1.5,3.8c0,5.5,0,11.1,0,16.6L226.2,193.4z"/>
<path class="st167" d="M228.6,173c0.2-2.7-0.7-5.1-1.6-7.6c0.6-0.4,0.9-1.1,0.9-1.9c1.4,1.7,0.2,4.2,1.6,5.9c1,1.3,1.8,2.6,0.8,4.3
	l3.4,19.6h-1L228.6,173z"/>
<path class="st168" d="M100.6,237.7c0.4-1.5,0.3-3.2,1.4-4.4c3.2-0.8,6.3-1.6,9.7-1.5c2,0.1,3.8,0.3,5.4,1.7
	c2.1-0.1,4.1,0.9,5.4,2.7c1,5.4,0.7,5.8-4.5,5.6c-1.6,0-2.3,1.3-3.5,1.6c-2.7,0-5.4-0.3-8.1,0c-3.4,0.5-5.2-0.7-5.6-4.1L100.6,237.7
	z"/>
<path class="st2" d="M139.4,227.8c-1.4,1-1.6,2.5-1.7,4.1l-0.2,0.3c-0.9,0.7-2.2,0.8-3.1,0.1l-0.2-0.3c0.9-3.7-0.6-7.6,0.6-11.4
	c0.6-1.7,1.1-2.3,2.7-1.7c0.2,2.5-0.8,5,0.7,7.3l0.5,0.2C139.3,226.7,139.5,227.2,139.4,227.8z"/>
<path class="st169" d="M138.4,226.1c-0.3-2.5-0.3-4.9,3.1-4.9c2.7,0,4,1.4,3.4,4.2c-2,1.1-4.1,1.7-6.3,0.6L138.4,226.1z"/>
<path class="st170" d="M138.6,226.1c2-0.6,4.2-0.8,6.3-0.6c0.1,0.2,0.1,0.5,0.1,0.7c0.1,0.7-0.4,1.4-1.1,1.6c-1.5,0.8-3,0.2-4.4,0.1
	L138.6,226.1z"/>
<path class="st171" d="M143.9,227.7l1.1-1.6l3.2,0.9c0.1,0.2,0.2,0.5,0.2,0.7c0,1.3-0.4,2.1-1.9,1.7L143.9,227.7z"/>
<path class="st2" d="M75.2,223.6l1.5,1.1c0,1.5,0,3,0,4.5c0,1.1-0.4,1.9-1.6,1.8c-1.3,0-1.6-0.9-1.5-1.9
	C73.8,227.1,72.5,224.7,75.2,223.6z"/>
<path class="st2" d="M133.4,231.8l-2.5,0.1c-0.5,0-0.9-0.5-0.8-1c0,0,0-0.1,0-0.1l1.6-4.6C134.3,227.5,132.1,230.2,133.4,231.8z"/>
<path class="st172" d="M130.2,230.8l0.8,1.1c0,0.3-0.1,0.5,0,0.8c0.2,0.4,0.1,1-0.2,0.9c-3.3-1.5-6.8-0.2-10.1-1
	c-0.9-0.4-2.1-0.8-1.9-2.1c0.1-0.7,1-0.6,1.6-0.8c0.1-0.2,0.2-0.3,0.4-0.5C123.9,229.9,127.2,229,130.2,230.8z"/>
<path class="st168" d="M120.3,229.8c-1.4,0.7-0.8,1.4,0,2.1c2.3,1.4,5,1.1,7.4,2.2c2.6,1.2,3.8,3,3.6,5.7c0.1,2.6-1.6,4.8-4.1,5.5
	c-3.3,1-6.8,0.9-10-0.2c-0.8-0.3-2.1-0.4-1.8-1.7c0.2-1.1,1.2-1.9,2.4-1.8c0.5,0-0.1,0.1,0.4,0.1c5.7,0.1,5.7,0.1,3.7-5.6
	c-1.6-0.9-3.5-1.2-4.8-2.6c0.2-2.2-0.7-4.5,0.8-6.5C119.1,227.6,118.4,229.8,120.3,229.8z"/>
<path class="st173" d="M80.9,157.8c-0.1,0.9-0.6,1.6-1.5,1.6c-0.7,0.1-1.3-0.4-1.4-1.1c0-0.1,0-0.3,0-0.4c0.1-0.8,0.4-2,1.6-1.9
	C80.4,156.2,81,156.9,80.9,157.8z"/>
<path class="st174" d="M369,228.6l-0.8-0.1c-1.5-1.1-3.4-1.1-4.9-0.8c-2.7,0.4-3.6-0.7-4.2-2.9c1.3-0.3,2.7,0,3.9-1
	c1.3-0.2,2.5-0.2,3.5,0.8c1.2,2.7,3.3,0.8,5,1C370.7,226.6,370.4,228,369,228.6z"/>
<path class="st175" d="M366.5,224.5c-1.2-0.2-2.6,0.5-3.5-0.8l2.9-5.2h0.7L366.5,224.5L366.5,224.5z"/>
<path class="st176" d="M369.1,220.5c-1,0-1.9-0.1-1.8-1.4c0-0.6,0.5-1.1,1.1-1.1c0.1,0,0.2,0,0.3,0c1,0,1.8,0.4,1.9,1.6
	C370.5,220.5,369.8,220.5,369.1,220.5z"/>
<path class="st177" d="M373.2,230.2c-0.9-1.3-1.6-2.7,0.3-3.7c0.8-0.5,1.8-0.2,2.2,0.6c0.1,0.2,0.2,0.4,0.2,0.6
	C376.3,229.7,374.8,230.1,373.2,230.2L373.2,230.2z"/>
<path class="st178" d="M189.2,160.5c-0.6-4.3,2.8-7.2,4.1-10.8c0.6-1.6,0.5-4.3,3.2-4.6C194.5,150.4,192.1,155.5,189.2,160.5z"/>
<path class="st179" d="M211.3,152.2c0.2,3.4,0.4,6.7-0.8,9.9c-1.4-3.2-3.7-6.1-4-9.8l0,0l3.7,6C211.3,156.3,209.8,153.9,211.3,152.2
	z"/>
<path class="st179" d="M206.5,152.3c-2.4-2.4-3-5.7-4.2-8.7C204.3,146.2,206.2,148.9,206.5,152.3L206.5,152.3z"/>
<path class="st180" d="M153.1,163.7c-1.6-0.9-3.9-1-3.2-3.8c1.3-1.6,3.1-1.2,4.8-1.3c0.7,0,1.5,0,2.2,0c5.9,0,11.9,0,17.8,0
	c0.5,0,1,0,1.5,0c1.2,0.1,2.5,0.1,3.4,1.2l-0.2,4.8c-4.5-2.5-9.5-1.3-14.2-1.2C161.2,163.5,157.1,163.6,153.1,163.7z"/>
<path class="st181" d="M158.1,154.1l1.7-2.7c4-1.2,8,0.1,12,0.1c1.2,2.3,1.1,5-0.3,7.1c-4.6,0.5-9.3,0.5-14,0
	C155.9,156.9,156.8,155.5,158.1,154.1z"/>
<path class="st182" d="M172.2,158c-1.9-2.1-0.2-4.4-0.4-6.6c0.5-0.5,0.9-0.3,1.2,0.3c5.1,2.5,5.6,3.3,4.2,6.7
	c-0.3,0.4-0.7,0.8-1.2,1.1h-0.3l-0.3,0C174.5,158.6,173,159.2,172.2,158z"/>
<path class="st183" d="M176.4,158.1c1.4-1.2,1.5-2.4,0-3.5c-1.2-0.9-2.8-1.3-3.3-2.9c2.7-1.4,4.7-1.6,5.3,2.3
	c0.2,1.3,1.1,2.7,1.2,4.1C178.7,159,177.3,159,176.4,158.1z"/>
<path class="st3" d="M170.6,148.6l-2.2-4.8C170.1,144.8,170.8,146.4,170.6,148.6z"/>
<path class="st184" d="M176.4,158.1h3.2c0.5,0.4,0.5,1.1,0.1,1.5c-0.1,0.1-0.1,0.1-0.2,0.2l-3.5-0.3L176.4,158.1z"/>
<path class="st185" d="M162,144.1l-3.8,7.4c-3.3,2-6.9,1.1-10.4,1c-2.7-0.1-5.4-0.3-8.1-0.5c-1.3-0.6-1.9-1.5-1.4-2.9
	c4.1-0.3,7.8-2.3,11.9-2.7C154.2,146,158.1,144.9,162,144.1z"/>
<path class="st3" d="M138.3,149.1l0.9,2.4c1.3,0.7,1.8,1.8,1,3.2c-2.5,0.2-2.5-1.6-2.6-3.3c-0.4-2.6-2.6-4.5-2.5-7.2L138.3,149.1z"
	/>
<path class="st186" d="M121.1,155.6c0.5,0.3,0.9,0.6,1.3,0.9c0.7,0.7,1.4,1.4,0.5,2.4c-0.6,0.6-1.5,0.7-2.2,0.1
	c-0.6-0.5-0.7-1.3-0.3-2C120.7,156.6,120.9,156.1,121.1,155.6L121.1,155.6z"/>
<path class="st187" d="M140.5,155.1l-1.3-3.5c4.3-2,8.5,0.5,12.8,0c2-0.1,4.1-0.1,6.1,0l-0.2,1.6c-3.1,0.8-5.4,2.5-6.4,5.6
	c-3.1,0.1-6.2,0.7-9.3-0.4c-0.2,0-0.5,0-0.7-0.1l-0.5-0.4C140.5,157.1,140.2,156,140.5,155.1z"/>
<path class="st188" d="M128.8,159.7l0.3-1.6c0.6-0.5,1.2-0.8,1.9-1c1.9-0.2,3.8-0.3,5.7-0.2c1.7,0,3.4-0.1,4.8,1.1v0.1
	c0.1,2.1-1.4,1.5-2.5,1.5C135.7,159.7,132.2,159.7,128.8,159.7z"/>
<path class="st189" d="M142.4,158.3l10-0.3c1.6-0.8,2.7-0.6,2.8,1.5l-5.3,0.4C147.5,158.7,144.3,161.5,142.4,158.3z"/>
<path class="st190" d="M131.2,158l-2.2,0.1c-0.3-2.5,2.1-4.1,2.1-6.5c2.1-1.6,4.3,0.6,6.5-0.1c1.3,0.9,1.1,3.2,2.9,3.7
	c0.7,0.8,1.1,1.9,1.1,3h-5.1c-1-0.9-0.1-3.1-1.9-3.2S132.3,156.9,131.2,158z"/>
<path class="st191" d="M155.1,159.5c-0.4-1.6-1.6-1.3-2.8-1.5c-1.5-4.4-1.3-4.8,3.3-4.8c0.8,0,1.6-0.1,2.4-0.1l0.1,1l-0.9,4
	c0.1,0.6-0.2,1.3-0.8,1.5L155.1,159.5z"/>
<path class="st192" d="M306.7,301.5l1.5,1.7l-21.3,0.2c-0.3,0.2-0.7,0-0.8-0.3c0,0,0,0,0,0l-3.3-4h24.5L306.7,301.5z"/>
<path class="st0" d="M286.1,303.2l0.8,0.3c4.7,1.5,9.5,0.3,14.2,0.7c1.7,0.1,3.5,0,5.3,0.8c-4.6,0-9.2,0-13.8,0
	c-1,0-2.5-0.5-2.8,0.8c-0.3,1,0.9,1.6,1.5,2.3l16.2,17.4l-3.3-0.1c-2-3.9-5.2-6.9-8.1-10c-2.5-2.7-5.2-5.2-7.8-7.8
	c-1.5-1.6-3.1-2.9-6.4-2.5l3.4-1.5L286.1,303.2z"/>
<path class="st193" d="M308.2,206.2c-0.2-4.3,3.1-7.9,7.4-8.1c0.1,0,0.3,0,0.4,0c4.9-0.1,8.5,3.1,8.6,7.7c0.3,4.6-3.2,8.5-7.8,8.7
	c-0.1,0-0.3,0-0.4,0C311.9,214.5,308.3,210.8,308.2,206.2z"/>
<path class="st7" d="M295.2,228.6c-0.2,1.1,0.3,2.4-0.8,3.3c-2.2-1.7-5.2-1.7-7.4,0l-0.2,0.1c-1.1,0.8-2.1,0.9-3.2,0l-0.1-0.1
	c2.2-4.2,5.2-5.3,11.5-3.9C295,228.2,295.1,228.4,295.2,228.6z"/>
<path class="st194" d="M230.4,173.8l-0.8-4.3h18c0.5-0.5,1.2-0.5,1.6,0c1.7,0.2,3-0.1,3.7-2.1c0.8-2.1,1.8-4.1,2.9-6.1
	c0.2-0.2,0.5-0.3,0.7-0.1c0.1,0,0.1,0.1,0.1,0.1c-0.1,0.4-0.2,0.8-0.3,1.2c-3.2,7.1-3.2,7.1,4.7,7c1,0,1.9,0,2.8-0.1l-2.3,4.1
	L230.4,173.8z"/>
<path class="st7" d="M251.5,231.8c0.1-0.8,0.3-1.8-0.6-2.2c-2.2-1-2.1-1.8-0.1-2.9c1.4-0.7,0.8-2.2,0.8-3.3c0.1-1.3,0.3-2.7,1.8-2.8
	c2-0.2,1.5,1.6,1.4,2.7c-0.1,2.3,0.2,4.1,3.2,3.7c0.8-0.1,1.6,0.3,1.5,1.4c-0.1,0.9-0.8,1-1.5,1c-1.6,0.1-3.5-0.2-3.1,2.5l-0.2,0.1
	c-0.9,0.8-2.2,0.8-3.1,0L251.5,231.8z"/>
<path class="st0" d="M244.3,230.2c-3.2-0.6-6.7-2.8-9,1.5l-0.1,0.4c-0.9,0.7-2.3,0.7-3.2,0l-0.1-0.4c2.4-6.3,7.3-5.7,12.4-4.7
	L244.3,230.2z"/>
<path class="st7" d="M269.3,221.2c1.6-3.8,4.5-5.2,8.5-4.6c1,0.1,2.3,0.5,2.1,2c-0.2,1.3-1.4,0.8-2.3,1.1c-1.6,0.4-3.9-1.3-4.7,1.6
	l-0.2,0.1c-0.9,0.8-2.2,0.8-3.1,0L269.3,221.2z"/>
<path class="st195" d="M249.2,169.5h-1.6l-7.5-17.1C244.1,157.6,246.3,163.8,249.2,169.5z"/>
<path class="st196" d="M256.5,161.4h-0.8c1.8-5,4.2-9.7,7.1-14.2C261.3,152.1,259.2,156.9,256.5,161.4z"/>
<path class="st197" d="M270.5,143.2l0.9,1.6c0.3,1.5,2,2.6,1.1,4.8C271.1,147.6,269.3,145.9,270.5,143.2z"/>
<path class="st198" d="M226.3,161.3c-0.1,2.2-0.2,4.4-0.1,6.6c0,1.7-0.5,2.7-2.4,2.3c0-6.5,0-13,0-19.5
	C224.2,154.3,226.1,157.6,226.3,161.3z"/>
<path class="st199" d="M214.6,167.8l-2.4-3.4c-0.6-4.7,1.2-9.1,2.4-13.6V167.8L214.6,167.8z"/>
<path class="st200" d="M222,155c-0.3,1.6-0.8,3.1-2.7,3c-1.5,0-2.8-1.2-2.8-2.7c0-0.1,0-0.1,0-0.2c0-1.4,1-2.6,2.5-2.7
	C220.8,152.3,221.6,153.5,222,155z"/>
<path class="st201" d="M222,166.3c-0.8,1.1-0.7,3.2-2.7,3c-1.7-0.3-2.9-1.7-2.9-3.4c-0.1-1.3,0.9-2.5,2.2-2.6c0.1,0,0.2,0,0.3,0
	C220.5,163.4,221.4,164.8,222,166.3z"/>
<path class="st202" d="M221.9,177.1c0,1.8-1.2,2.4-2.7,2.4c-1.5,0.1-2.7-1.1-2.8-2.6c0-0.1,0-0.2,0-0.4c0-1.4,1-2.1,2.5-2.1
	C220.9,174.4,221.7,175.4,221.9,177.1z"/>
<path class="st203" d="M219.1,190.4c-1.4,0-2.5-1.1-2.5-2.5c0-0.1,0-0.1,0-0.2c0-1.4,0.7-2.7,2.5-2.6c1.8,0.1,2.8,1.1,2.8,2.8
	C221.9,189.7,220.6,190.3,219.1,190.4z"/>
<path class="st204" d="M222.9,140h-7.5C217.9,136.6,220.4,135.8,222.9,140z"/>
<path class="st205" d="M218.8,133.7c0,0.7-0.5,1.2-1.1,1.3c0,0-0.1,0-0.1,0c-1,0-1.3-0.8-1.2-1.6c0-0.7,0.5-1.2,1.1-1.3
	c0,0,0.1,0,0.1,0C218.5,132.1,218.8,132.8,218.8,133.7z"/>
<path class="st206" d="M215.3,137.4c-0.1,0.6-0.6,1.1-1.3,1.1c0,0-0.1,0-0.1,0c-0.7,0-1.4-0.3-1.3-1.1c0-0.7,0.6-1.2,1.2-1.2
	c0,0,0,0,0.1,0C214.6,136.2,215.1,136.7,215.3,137.4z"/>
<path class="st207" d="M221.5,134.7c0.1-0.7,0.7-1.2,1.3-1.2c0.7-0.1,1.4,0.4,1.5,1.2c0,0.1,0,0.2,0,0.3c0,0.8-0.8,0.9-1.5,0.9
	C222.1,135.9,221.5,135.4,221.5,134.7z"/>
<path class="st16" d="M195.7,300.9l0.8,2.3c-2.7,0-5.6,1-8.1-0.9v-0.4C190.7,300.1,193.3,301.1,195.7,300.9z"/>
<path class="st208" d="M188.4,301.9c0,0.1,0,0.3,0,0.4c-1.6,1.6-3.7,1-5.7,1c-0.6-0.5-0.7-1.5-0.2-2.1c0.1-0.1,0.1-0.1,0.2-0.2
	l0.8-0.8l3.2,0L188.4,301.9z"/>
<path class="st209" d="M173.7,303.2l0.8-2.3h4.8c0.7,0.6,1.4,1.2,0.8,2.3L173.7,303.2L173.7,303.2z"/>
<path class="st210" d="M180.2,303.2l-0.8-2.3h3.4c0,0.8,0,1.6,0,2.3L180.2,303.2z"/>
<path class="st15" d="M263.1,303.2c-1.2-3.5,0.3-4.4,3.7-4.1c3.1,0.3,6.3,0.3,9.4,0c3.7-0.3,6.4,0.9,8.2,4.1H263.1z"/>
<path class="st211" d="M213,359.2c-1.6-1.9-0.8-4.2-0.8-6.2c0.2-5.3-0.9-10.6,0.6-15.8l0.3,1.4c3.5,5.9,8.9,5.6,13.2-1.6
	c-0.7,8,1,15.2-1,22.2C221.2,358.8,217.1,358.8,213,359.2z"/>
<path class="st212" d="M213,333.7c-1.7-2.2-0.8-4.7-0.7-7c0.1-4.9-0.9-9.9,0.6-14.8c0.5,3.2,2.6,4.8,5.5,5.3c3.7,0.6,6-1.7,7.9-5.6
	c0,7.4,0,13.9,0,20.4c0.1,0.7-0.2,1.4-0.8,1.7C221.4,332.7,217.1,332.6,213,333.7z"/>
<path class="st212" d="M212.1,281.2c0.1-5.5,0.1-11,0.2-16.5c0-1.3-0.6-2.7,0.7-3.8c0.4,3.5,2.9,5,5.8,5.2c3.2,0.3,5.6-1.6,7.4-4.6
	c0,6.2,0,12.5,0,18.7c0,0.7-0.2,1.6-0.9,1.6C220.9,281.6,216.4,282.9,212.1,281.2z"/>
<path class="st212" d="M212.2,286.7c4.7,6.7,9.5,6.7,14-0.2c0,6.9,0,13.2,0,19.5c0,1.4-0.3,1.8-1.8,1.6c-2.4-0.3-4.9-0.3-7.3,0
	c-4.5,0.8-5.3-1.1-5-5.2C212.5,297.3,212.2,292.1,212.2,286.7z"/>
<path class="st14" d="M200,232.1l3.3-0.2c0.5-0.4,1.1-0.5,1.6-0.3c1.6,1.3,3.8,0.7,5.5,1.6c0.7,0.5,1,1.2,1,2.1
	c0.2,3.2-2.2,2.3-3.9,2.6c-1.6,0.2-4.3-1.2-4.2,2.1c0.1,3.1,2.3,3.8,4.8,3.5c2.1-0.3,3.9-0.8,3.2,2.4l-0.7,0.9
	c-8.8,0.2-10.7-1.6-10.7-10.5C199.9,234.8,199.9,233.4,200,232.1z"/>
<path class="st213" d="M213.1,256.7h12.2c0.1,1.1,0.9,2.4-1.4,2.3c-3.6-0.1-7.3,0-10.9-0.8h10.7
	C220.3,256.5,216.5,258.3,213.1,256.7z"/>
<path class="st214" d="M149.9,391.1c-6.1,1.6-8.9,0.4-10.4-4.4c-0.8-2.7-0.3-5.2,1.9-7.1c2.2-2,5.4-2.4,8-0.9
	c2.6,1.2,4.1,3.9,3.7,6.7c-0.2,1.3-0.5,2.7-0.8,4c-3,0.3-3.5-2.5-4.9-4.1c-0.5-0.6-1.1-1.6-1.8-1.1c-1.1,0.8-0.1,1.5,0.6,2.2
	C147.5,387.9,148.6,389.5,149.9,391.1z"/>
<path class="st215" d="M178.5,384.7c-1.5,0.1-2.4-0.4-2.3-2s1.1-2.3,2.7-2.3c1.6,0,2.1,0.7,2.1,2.2
	C181,384.4,180.1,384.8,178.5,384.7z"/>
<path class="st216" d="M167.8,385.5c0.2-1.3-0.6-3.1,1.7-3c2.1,0.1,1.6,1.8,1.6,3c0,1.1,0.9,2.9-1.7,2.7
	C167.1,388.1,168.2,386.4,167.8,385.5z"/>
<path class="st217" d="M293.4,232.1c0.8,2.1,2.3,2.2,4.2,1.4c0.9-0.4,2.2-1.2,2.8,0.3c0.8,2.2,0.8,4.6,0.1,6.8
	c-0.4,1.4-1.6,0.9-2.7,0.6c-1.9-0.6-3.6,0-5.4,1.1c-2.7,1.6-4.5,0.5-4.6-2.6c-0.1-2.5-0.7-5.2,0.8-7.6
	C290.2,230.6,291.8,230.5,293.4,232.1z"/>
<path class="st218" d="M309.9,232c0.2-0.1,0.5-0.2,0.7-0.3c0.9-0.3,1.7-0.6,2.5,0.3c-4,3.1-3.1,6.1,0,9.3c0.7,0.7,2.2,1.8,0.6,2.9
	s-1.9-0.7-2.6-1.6c-0.1-0.1-0.1-0.2-0.2-0.3c-1.5-0.9-1.6-3.9-3.5-3.4c-2.5,0.6-1.2,3.2-1.5,4.9c-0.2,1.3-0.3,2.7-1.9,2.6
	c-1.9,0-1.3-1.7-1.4-2.8c-0.1-3.9,0-7.9,0-11.8l0-0.1c1-0.8,2.4-0.8,3.4,0l0,0.1c0.6,0.6,0.9,1.5,0.9,2.4
	C307.5,233.3,308.7,232.5,309.9,232z"/>
<path class="st219" d="M283.6,232h3.2c-0.7,2.5-1,5.1-0.7,7.7c0.3,4.9,3.6,6.6,7.9,4.3c1-0.5,2.1-2.1,3-0.4c1,1.9-1,2.3-2.1,2.7
	c-6.7,2.9-12.1-0.6-12.1-8C282.8,236.2,282.3,234,283.6,232z"/>
<path class="st7" d="M293.4,232.1l-4.8-0.1l-1.6-0.1c2.8-3.4,4.9-3.4,7.4,0L293.4,232.1z"/>
<path class="st0" d="M313.1,232l-2.5-0.3c2.6-3.4,2.6-3.4,5.1-3.7c0.2,1.6-2,2.2-1.7,3.8L313.1,232z"/>
<path class="st14" d="M213,384.7c-1.7-2.2-0.7-4.7-0.8-7.1c-0.2-4.8,0-9.5,0-15.5c1.6,4.3,3.8,6.3,7.6,6c3.1-0.3,4.9-2,6.1-4.8
	c-0.4,7.1,1.4,14.2-0.7,21.3C221.4,386.4,217,386.4,213,384.7z"/>
<path class="st220" d="M213,384.7c4.1-0.4,8.2-0.4,12.3,0c-0.2,0.8,1.1,2.2-0.5,2.2c-4.1,0-8.2,0.5-12.2-0.3
	c-0.4-0.1-0.7-0.8-1.1-1.2v0C212.1,385.5,212.7,385.3,213,384.7z"/>
<path class="st221" d="M335.5,290.8c1.2-6.8,9.4-8.6,12.9-3.7c1.8,2.5,2.6,4.8,0.2,7.2l-0.5-0.2c-1-1-2.3-1.4-3.5-2l-0.3-0.4
	l0.1-1.6c0.4-0.3,0.8-0.7,1.2-1c-0.5,0.2-0.9,0.6-1.2,1l-3.4,0c-1.1-0.8-2.1-1.1-3.2,0.1C337.2,291.1,336.3,290.9,335.5,290.8z"/>
<path class="st221" d="M348.5,294.3c-0.7,2.5-3.2,4.2-5.8,4c-3.1-0.1-5.4-1.9-6.6-4.9c2.5-2.2,5.6-0.5,8.2-1.6l0.2,0.1
	c1.1,1.1,2.4,1.9,3.9,2.3L348.5,294.3z"/>
<path class="st222" d="M323.2,285.3c1.7,0.1,2.2,1.2,2.3,2.7s-0.6,2.1-2.1,2.1c-1.9,0-2.2-1-2.2-2.6
	C321.2,286.2,321.5,285.2,323.2,285.3z"/>
<path class="st223" d="M337.8,290.3c0-1-0.3-2.3,1.2-2.4s2,0.9,2,2.3C340.1,291,338.7,291.1,337.8,290.3z"/>
<path class="st224" d="M323.8,345.9c-1.8,2.3-4.4,3.1-7.2,3.1c-5.3,0.1-10.6-0.1-15.9-0.1c0-1.1-0.7-1.3-1.6-1.4
	c-3.4-0.5-3.9-2.2-2.9-5.4c1.3-4.3,3.9-5,7.7-4.4c1.1,0.1,2.2,0,3.3-0.2c1.5,0.1,3,0.2,4.5,0.1C318.2,337,321,341.3,323.8,345.9z"/>
<path class="st225" d="M287.6,348.9l-0.8,1.1l-5.6-0.2c-0.1-3,2.7-4.1,3.9-6.3c0.8-1.4,1.8,0.3,2.4,0.9
	C289,345.9,288.1,347.4,287.6,348.9z"/>
<path class="st226" d="M287.7,337.7l3.4,2.6c0.6,1.9,2.3,3.6,1.6,5.9c-0.2,0.7-0.4,1.4-1.2,1.3c-0.5,0-1-0.2-1.4-0.6
	C290.1,343.6,287,341.2,287.7,337.7z"/>
<path class="st227" d="M296.5,337.1c-0.3,0.6-0.6,1.3-1.4,1.1c-0.8-0.2-0.7-1-0.6-1.7c-0.1-0.5,0.3-0.9,0.7-0.9c0.1,0,0.2,0,0.3,0
	C296.1,335.8,296.6,336.4,296.5,337.1z"/>
<path class="st228" d="M293.5,384.5c-0.8,0.5-1.2,1.8-2.5,1.6c-2.5-0.7-6.3,1.4-6.7-3.4c0-1.8,1.5-2.5,2.6-3.4
	C289.2,381,291.7,382.3,293.5,384.5z"/>
<path class="st229" d="M245.2,394.5h5.4c0.5,2.2-0.8,2.5-2.5,2.4C246.5,396.8,244.7,397.2,245.2,394.5z"/>
<path class="st30" d="M179.5,394.4l3.2-0.1c-0.1,0.8,2.3,1.6,0.2,2.3C181.2,397.3,179.5,396.9,179.5,394.4z"/>
<path class="st223" d="M173.1,396.6l0.5-2.2h3.3C177.1,397.6,174.8,396.6,173.1,396.6z"/>
<path class="st15" d="M169.5,231.9c-0.1,2.9-0.1,5.7,0.1,8.6c0.4,3.4-1.3,4.6-4.2,5.2c-7.1,1.5-11.4-2-11.4-9.3c0-1.5,0-3,0-4.5
	v-0.2c1-0.8,2.4-0.8,3.4,0v0.2c1.5,1.9,0.8,4.2,1.1,6.2c0.3,1.8,0.5,3.9,3.1,4.1c2.2,0.2,3.6-0.2,3.7-2.9c0-2.5-0.7-5.2,1.1-7.4l0,0
	C167.3,231.1,168.4,230.9,169.5,231.9z"/>
<path class="st230" d="M149.9,231.9c0,3.4,0,6.8,0,10.2c0,1.2,0.3,2.7-1.6,2.7c-1.9,0.1-1.6-1.4-1.6-2.6c0-3.4,0-6.8,0-10.2V232
	c0.9-0.9,2.3-1,3.3-0.2L149.9,231.9z"/>
<path class="st231" d="M169.5,231.9l-3.3,0c0-0.2,0-0.5-0.1-0.7c-0.8-1.2-0.9-2.8-0.3-4.1c1.3-1.2,2.6-0.8,3.8,0.2
	c0.8,1.1,1.1,2.5,0.7,3.9c0,0.2,0.1,0.4,0.2,0.6L169.5,231.9z"/>
<path class="st15" d="M232,232.1h3.2c0.2,1.7,1.6,3,3.3,3.1c1.1,0.2,2.1,0.5,3.2,0.8c2.3,0.5,3.9,1.8,4.2,4.3c0.4,2.5-1,4.2-3,5.3
	c-3.2,1.7-6.6,1.2-10,0.6c-0.8-0.1-2-0.5-1.4-2c0.5-1.1,1.2-1.4,2.2-0.8c1.5,0.7,3.2,1,4.8,0.7c1.9-0.3,4-0.7,4-3.3
	c0-2.3-1.9-2.9-3.6-3.2c-1.5-0.2-2.9-0.6-4.3-1.2C232.5,235.7,231.6,234.3,232,232.1z"/>
<path class="st0" d="M305.8,231.9h-3.4c0-3.1,0-6.3,0.1-9.4c0-1-0.4-2.5,1.3-2.5c1.6-0.1,1.9,1.2,1.9,2.6
	C305.8,225.6,305.8,228.7,305.8,231.9z"/>
<path class="st14" d="M309.9,232l-3.9,4.2l-0.2-4.3L309.9,232z"/>
<path class="st192" d="M170.4,394.4c0.3,2-0.8,2.6-2.6,2.3c-2.1-0.3-0.4-1.6-0.7-2.4L170.4,394.4L170.4,394.4z"/>
<path class="st232" d="M122,236c3,0.9,0.3,5.7,4.4,6.2c-2.9,0.4-5.5,0.7-8.1,0.1c-0.8-0.3-1.7,0.2-2,1c0,0,0,0,0,0
	c-0.4,1.3,0.9,1,1.5,1.2c2.9,1,5.9,1.1,8.8,0.3c2.5-0.5,4.3-2.7,4.4-5.2c0.1-2.8-1.9-4-4.2-4.9s-5-0.3-6.4-2.9
	c3.5,0.2,7.2-1.1,10.6,0.8c1.5,3.2,1,6.6,0.7,10c-3.2,5.2-8.3,4.1-13.1,3.9c-1.1-0.1-2.1-0.3-3.2-0.6l-0.9-2.4
	c0.3-1.7,1.3-3.7,3.1-2.9C123.6,243.1,121.8,238.7,122,236z"/>
<path class="st233" d="M131,343.5c-0.6,2.6,3.3,4.2,0.6,6.4c-0.8,0.6-3.5,0.4-3.7-0.1C127,347.4,128.2,345.5,131,343.5z"/>
<path class="st234" d="M284.3,382.8c1.2,2.5,3.2,3.1,5.6,2.2c1.7-0.6,1.5,0.1,1.1,1.2c-2.2,2.6-4.8,1.1-7.3,0.8c0-1.1-1-1.9-1.3-2.8
	C281.5,381.9,282.8,382.1,284.3,382.8z"/>
<path class="st235" d="M279.5,396.8c0.2-0.9,0.6-1.8,1-2.6c0.8-0.9,0.4-3.2,2.3-2.5c1.6,0.6,2.6,2.2,2.3,3.9
	c-0.3,2.1-2.1,1.2-3.2,1.3C281.1,397,280.3,397,279.5,396.8L279.5,396.8L279.5,396.8z"/>
<path class="st14" d="M279.5,239.8c0.1,5.3-2.8,7.7-7.9,6.9c-0.8-0.1-1.8-0.1-1.8-1.2c0-1.4,1.2-1.3,2.1-1.2
	c3.3,0.3,4.3-1.4,4.3-4.4c0-1.2-0.5-3,1.7-2.9C280.2,237.1,279.2,239,279.5,239.8z"/>
<path class="st236" d="M346.1,229.3c0.3-1.6,0.4-3.5,2.9-2.7c0.7,0.3,1.1,1.1,0.8,1.8c0,0.1-0.1,0.2-0.1,0.2
	C348.8,230.5,347.4,229.6,346.1,229.3L346.1,229.3z"/>
<path class="st237" d="M358.3,228.2c0.1,0.9-0.6,1.6-1.4,1.7c-0.1,0-0.2,0-0.3,0c-0.8,0-1.5-0.6-1.6-1.5c0,0,0,0,0,0
	c-0.2-0.9,0.4-1.7,1.3-1.9c0.1,0,0.1,0,0.2,0C357.7,226.3,358.2,227.1,358.3,228.2z"/>
<path class="st15" d="M251.7,232h3.1c0,2.1,0.1,4.1,0,6.1c-0.1,2.6-0.1,5,2.9,6c0.7,0.1,1.2,0.8,1.1,1.5c0,0.1-0.1,0.3-0.1,0.4
	c-0.4,0.6-1.1,0.8-1.8,0.6c-2.8-0.6-5.2-1.7-5.3-5.2C251.6,238.2,251.7,235.1,251.7,232z"/>
<path class="st238" d="M176.1,232.1h3.2c0,2,0.1,4.1,0,6.1c-0.1,2-0.1,4.1,2.7,4.6c0.9,0.1,1.4,0.9,1.3,1.8c0,0.1-0.1,0.3-0.1,0.4
	c-0.5,1.1-1.6,0.9-2.5,0.6c-2.6-1-4.8-2.5-4.7-5.8C176.2,237.2,176.1,234.6,176.1,232.1z"/>
<path class="st239" d="M188.4,232.1h3.2c0,1.9,0.1,3.8,0,5.7c-0.1,2.3,0,4.4,2.7,5.3c0.9,0.3,1.8,1,1.2,2.1
	c-0.4,0.8-1.4,0.7-2.2,0.5c-2.9-0.7-4.9-2.2-4.9-5.5C188.5,237.5,188.4,234.8,188.4,232.1z"/>
<path class="st240" d="M134.4,232.2l3.1-0.1c0,3.5,0.1,7,0.1,10.6c0,1.1,0,2.3-1.6,2.3s-1.6-1.1-1.6-2.2
	C134.3,239.2,134.3,235.7,134.4,232.2z"/>
<path class="st230" d="M263.2,232h3.1c0,0.5,0,1.1,0,1.6c-0.2,1.3,0.6,3.3-1.8,3.2c-2-0.1-1.3-2-1.4-3.2
	C263.1,233.1,263.1,232.5,263.2,232z"/>
<path class="st2" d="M149.9,231.8l-3.3,0.2c0-0.8-0.1-1.6-0.1-2.5c0.8-0.3,1.5-0.9,1.9-1.7C149.9,228.7,149.9,230.3,149.9,231.8z"/>
<path class="st241" d="M170.4,231.2c-1.2-0.8-0.7-2-0.7-3.1c0.8-1.4,1.1-3.3,3.1-3.5l2.2-3.3l1.2,1.7l-1.5,4.9
	C173.5,229.3,172.7,231.2,170.4,231.2z"/>
<path class="st214" d="M99.8,297.6c-2.5,0.5-5,1-7.4-0.5c-2.8-1.8-4.3-5.9-2.9-8.9c1.3-2.9,6.2-4.7,9.5-3.6c2.5,0.8,4.5,5.3,3.7,8.2
	c-0.3,1-0.7,2-1.2,3c-1.4-0.4-2.1-1.7-3.1-2.6c-1-0.9-1-2.6-3.3-2.9C95.9,293.5,98.8,294.9,99.8,297.6z"/>
<path class="st242" d="M117.1,294.7c-2.8,0.7-3.8-0.8-3.4-3.8c0.1-0.8-0.2-1.9,0.8-2c0.8,0,2.3-0.6,2.5,1.2c0,0.3,0.3,2,0.6,0.2
	c0.3-1.8,1.6-1.6,2.3-1.2c1.9,0.9,0.9,2.9,1.1,4.4c0.1,1.5-0.9,1.4-1.9,1.2C118.5,294.6,117.8,294.6,117.1,294.7z"/>
<path class="st243" d="M128,291c-1.6,0.1-2.7,0-2.7-1.8c-0.2-1.5,0.9-2.8,2.3-2.9c0.1,0,0.2,0,0.3,0c1.8-0.2,2.2,1,2.3,2.6
	C130.2,290.6,129.4,291.3,128,291z"/>
<path class="st244" d="M219.2,222.8c-5.6-0.1-10-4.7-10-10.2c0.1-5.6,4.7-10,10.2-10c5.5,0.1,10,4.6,10,10.1
	C229.3,218.4,224.8,222.8,219.2,222.8z"/>
<path class="st0" d="M204.8,232.2l-1.6-0.3c3-4.6,6.2-4.5,9,0.1c-0.4,1,0.3,2.4-0.8,3.2l-0.8-1.6
	C208.9,231.9,206.6,233.4,204.8,232.2z"/>
<path class="st219" d="M207.5,239.2c1.1,0.3,2.7-0.5,2.7,1.2c0,1.3-1.4,1.4-2.5,1.4c-1.1,0-2.5-0.2-2.5-1.4
	C205.2,238.7,206.9,239.7,207.5,239.2z"/>
<path class="st245" d="M172.8,224.5c-1,1.3-1.1,3.3-3.1,3.5c-1-0.6-1.9-1.4-3.2-1c-0.5,0-1-0.5-1-1c-0.1-2.1,0.1-4.2,2.6-4.8
	C170.7,220.6,171.9,222.4,172.8,224.5z"/>
<path class="st246" d="M165.4,226l1,1c-0.1,1.4-0.2,2.7-0.3,4.1c-0.7,0-1.3-0.4-1.5-1C164.7,228.7,164.2,227.2,165.4,226z"/>
<path class="st14" d="M166.3,231.9c0,2.3,0.2,4.7,0,7c-0.1,1.7,1.3,4.4-2.3,4.6c-3.3,0.2-6.2,0-6.6-4.2c-0.2-2.5-0.1-4.9-0.1-7.4
	l1.6-0.2v0.3c1.5,1.6,0.9,3.6,1.2,5.5c0.2,1.2,0.3,2.7,2,2.6c1.5-0.1,1.3-1.5,1.4-2.6c0.2-1.9-0.3-3.9,1.1-5.5L166.3,231.9z"/>
<path class="st158" d="M157.3,231.8h-3.4c0.7-1.8-1.5-5.3,1.7-5.3S156.6,230,157.3,231.8z"/>
<path class="st247" d="M164.5,232c0,2.3,0.1,4.6,0.1,6.9c0,1.4,0.1,2.7-2,2.9s-3.4-0.5-3.6-2.5c-0.3-2.4-0.1-4.9-0.2-7.3L164.5,232z
	"/>
<path class="st248" d="M105.9,237.1c-0.1,1,0.2,2.3-1.5,2.4c-0.7,0.1-1.4-0.4-1.5-1.1c0-0.1,0-0.3,0-0.4c0-1.3,0.2-2.6,1.8-2.7
	C106,235.2,105.7,236.3,105.9,237.1z"/>
<path class="st249" d="M156.3,159.6l0.8-1.5l15.1-0.1c1.2,0.2,2.8-0.5,3.2,1.5L156.3,159.6z"/>
<path class="st250" d="M131.2,158c-0.1-0.4-0.2-0.8-0.2-1.2c0.7-2.3,2.4-4.1,4.7-3.4c2.2,0.7,1,2.9,0.7,4.6L131.2,158L131.2,158z"/>
<path class="st244" d="M323,206.6c0,3.6-2.9,6.5-6.4,6.5c-0.1,0-0.3,0-0.4,0c-3.8-0.1-6.5-3-6.4-7c0.1-3.9,2.9-6.5,6.9-6.4
	S323.1,202.6,323,206.6z"/>
<path class="st247" d="M204.8,232.2c2,0.2,4.6-2.3,5.7,1.4C208.7,233,206.2,234.9,204.8,232.2z"/>
<path class="st251" d="M348.3,294.2c-2.8,1.7-3.3-0.3-3.9-2.3C346.2,291.8,348.2,291.4,348.3,294.2z"/>
<path class="st252" d="M344.3,290.2c0.2-0.6,0.4-1.2,0.7-1.8c0.5-0.7,1.4-0.8,2.1-0.4c0.5,0.1,0.8,0.7,0.7,1.2c0,0,0,0,0,0.1
	c-0.3,0.9-1.2,1-2,1C345.4,290.2,344.9,290.2,344.3,290.2L344.3,290.2L344.3,290.2z"/>
<path class="st253" d="M343.1,288.2c-0.9,0.1-1.1-0.5-1.2-1.2s0-1.4,0.8-1.5c0.7-0.1,1.3,0.4,1.3,1.1c0,0,0,0,0,0
	C344.1,287.4,343.7,288,343.1,288.2z"/>
<path class="st254" d="M344.2,295.3c0,0.9-0.4,1.4-1.2,1.4c-0.8,0-1.6-0.4-1.4-1.4c0.1-0.6,0.4-1.4,1.2-1.4
	C343.6,293.8,344.2,294.4,344.2,295.3z"/>
</svg>
