<svg id="Слой_1" data-name="Слой 1" xmlns="http://www.w3.org/2000/svg" viewBox="0 0 571.22 318.44"><defs><style>.cls-1{fill:#191815;}.cls-2{fill:#605739;}.cls-3{fill:#7c6f4c;}.cls-4{fill:#b86547;}.cls-5{fill:#5d5135;}.cls-6{fill:#c7934e;}.cls-7{fill:#dd8344;}.cls-8{fill:#de8244;}.cls-9{fill:#151b1a;}.cls-10{fill:#7b6f4c;}.cls-11{fill:#223b36;}.cls-12{fill:#727372;}.cls-13{fill:#5f5739;}.cls-14{fill:#9a7247;}.cls-15{fill:#bfc3c1;}.cls-16{fill:#5f583a;}.cls-17{fill:#eaac6c;}.cls-18{fill:#5f563a;}.cls-19{fill:#365b52;}.cls-20{fill:#c2904e;}.cls-21{fill:#2a3833;}.cls-22{fill:#5b5034;}.cls-23{fill:#243b36;}.cls-24{fill:#5e573a;}.cls-25{fill:#33574f;}.cls-26{fill:#da8145;}.cls-27{fill:#aea9a3;}.cls-28{fill:#345851;}.cls-29{fill:#233935;}.cls-30{fill:#594f34;}.cls-31{fill:#e2b374;}.cls-32{fill:#c4934e;}.cls-33{fill:#c4934f;}.cls-34{fill:#c6934e;}.cls-35{fill:#1b1c16;}.cls-36{fill:#6a6144;}.cls-37{fill:#d89a4b;}.cls-38{fill:#c07f46;}.cls-39{fill:#c07e46;}.cls-40{fill:#ca7e45;}.cls-41{fill:#cb7e45;}.cls-42{fill:#d79a4b;}.cls-43{fill:#4e4731;}.cls-44{fill:#5e583c;}.cls-45{fill:#d08848;}.cls-46{fill:#4e4832;}.cls-47{fill:#4c4e39;}.cls-48{fill:#d1d6d8;}.cls-49{fill:#283c32;}.cls-50{fill:#c67046;}.cls-51{fill:#416e62;}.cls-52{fill:#457668;}.cls-53{fill:#b8844d;}.cls-54{fill:#61573c;}.cls-55{fill:#946a44;}.cls-56{fill:#4a5742;}.cls-57{fill:#253f39;}.cls-58{fill:#987347;}.cls-59{fill:#62573a;}.cls-60{fill:#2a453f;}.cls-61{fill:#2c4942;}.cls-62{fill:#29423c;}.cls-63{fill:#2e4740;}.cls-64{fill:#50a58c;}.cls-65{fill:#50a68c;}.cls-66{fill:#51a98d;}.cls-67{fill:#4f9f84;}.cls-68{fill:#965540;}.cls-69{fill:#965641;}.cls-70{fill:#dc8344;}.cls-71{fill:#243834;}.cls-72{fill:#5aacbe;}.cls-73{fill:#d47d45;}.cls-74{fill:#213733;}.cls-75{fill:#5aadbf;}.cls-76{fill:#d28346;}.cls-77{fill:#da7f45;}.cls-78{fill:#806544;}.cls-79{fill:#54af97;}.cls-80{fill:#1f2822;}.cls-81{fill:#f7f3c6;}.cls-82{fill:#cf7f46;}.cls-83{fill:#d28146;}.cls-84{fill:#162422;}.cls-85{fill:#4b8572;}.cls-86{fill:#f1c574;}.cls-87{fill:#53b19a;}.cls-88{fill:#f1c676;}.cls-89{fill:#53b098;}.cls-90{fill:#53af97;}.cls-91{fill:#efe954;}.cls-92{fill:#51ac91;}.cls-93{fill:#51ae95;}.cls-94{fill:#52ae90;}.cls-95{fill:#51ac90;}.cls-96{fill:#4f907f;}</style></defs><title>rodovische</title><path class="cls-1" d="M294.64,519.92q-39.3-.11-78.6-0.23c-2.49,0-5-.17-7.47-0.26-4-5.4-2.62-11.9-3.25-17.85-1.64-15.41-3.47-30.82-4.77-46.26-0.87-10.3-2.4-20.53-2.88-30.86-0.2-4.33,1.37-6.73,6-7.8,20.92-4.8,42-8.86,63-13.43,14.94-3.26,30-6.09,44.89-9.39,2.78-.61,5.65-1.52,8.41.2,3.22,6.28,1.89,13,1.46,19.49-0.87,13.19-1.7,26.38-2.13,39.58-0.14,4.36-.32,8.69-2,12.79-1.12,2.52-3.62,2.64-5.81,3.28-3.61,1.91-5.78,4.87-5.06,9,1.24,7-.58,13.45-3.2,19.8-1.11,2.68-2.16,5.36-1.51,8.36,0.26,3.82-2,6.82-3.24,10.18C297.65,518.15,297,520,294.64,519.92Z" transform="translate(-15.78 -264.1)"/><path class="cls-2" d="M166.84,349.94c1.3-4.81,4.29-8.27,8.17-11.36,17.4-13.82,34.61-27.88,52-41.73a14.84,14.84,0,0,0,5.69-8.51c1.46-6,3.52-11.94,5.15-18,2.07-7.62,2-7.64,9.14-3.62,3.44,4.77,3.71,10.5,4.52,16,0.9,6.08,3.35,10.87,8.44,14.54,6,4.36,11.84,9.08,17.71,13.69,2.48,2,4.85,4.07,5.67,7.21,2.58,9.82,5.18,19.64,6.44,29.74a7.34,7.34,0,0,1-.66,4.24c-6.22,3.94-11.77,1.38-13-6-0.25-1.5,1.3-3.77-2.76-3.14-3.18.5-5.3-3.46-7.32-6.1-1.26-2.46-.11-5.64-2.33-7.83a6.81,6.81,0,0,1-1.16-2.88c-0.7-7.55-2.74-13.74-12-14.22-2.61-.14-4.18-2.64-4.89-5.17a217.22,217.22,0,0,1-4.89-23.14c-0.11-.64-0.38-1.74.51-1.88-3,16.25-9.53,31.65-13.43,47.78-1.65,6.84-5.32,10-12,11.61-8.31,2-16.86,2.43-25.09,4.81-4,1.15-6.43,3.11-7.69,7.17-7.57,24.4-15.79,48.6-23.15,73.05,5.7-1.85,9.49-7.7,16.13-7.52,5.47,1.41,6.61,5.61,6.74,10.45,0.19,5.46-2.15,10-5.42,14.1-4.61,5.84-9.18,11.71-13.61,17.68A39.14,39.14,0,0,1,147,474.28c-5,2-9.69,4.64-14.45,7.13-2,1-3.89,2.5-6.37,1.61,0.27-4.23-5.46-5.69-4.71-10.17,12.62-8.92,13.44-23.72,17.48-36.58C148,407.41,156,378.23,166.84,349.94Z" transform="translate(-15.78 -264.1)"/><path class="cls-3" d="M288.08,352.4c-0.71-11.8-3.79-23.2-7.07-34.41-1.83-6.24-9.39-8.24-14-12.61a48.58,48.58,0,0,0-9.25-7.2c-6.21-3.53-7.77-9.23-8.37-15.59-0.5-5.33-2.78-10.38-2.44-15.83l6.17,3.29c8.55,5.45,17.15,10.82,25.65,16.35a26.47,26.47,0,0,1,10,10.82c3.67,7.68,8.07,15,11.48,22.79a14.59,14.59,0,0,0,9.79,8.77c7.33,2.16,14.45,5,22.14,5.8a11.71,11.71,0,0,1,6.7,4.9,6.53,6.53,0,0,1,.82,1.71c1,2.68,2.3,5.28,2.5,8.21,0.83,8.77,4.29,16.83,6.81,25.14a73.07,73.07,0,0,1,2.66,9.59c1.15,7.14-1.12,9.68-8.32,9.34a9.37,9.37,0,0,1-4.76-1.22c-1.54-1.18-.61-2.56-0.32-3.91,0.87-4.06.52-7.77-3.1-10.53a5.47,5.47,0,0,1-2.54-4.07c0-4.31-2.93-4.3-5.94-4.24-3.68.07-4.34,2.44-4.1,5.48-0.28,3.17-1.61,5.88-4.74,6.7-7.19,1.9-14.43,3.85-22,2.88-2.95-2.24-3-5.79-3.91-8.92-2.06-7-2.75-14.28-4.49-21.34A2.75,2.75,0,0,1,288.08,352.4Z" transform="translate(-15.78 -264.1)"/><path class="cls-4" d="M571.23,491.23c-1.19,5.18.84,7,6,6.16,2.43-.39,5,0,7.47-0.06,1.72,0,2,1,2.18,2.34,0.24,1.75-.86,2.17-2.21,2.19-3.95.06-7.89,0-11.84,0.08-1.16,0-2.75-.1-2.56,1.78,0.15,1.42,1.49,1.15,2.44,1.17,3.74,0.05,7.48.07,11.22,0,1.63,0,2.81.19,2.9,2.24s-1,2.72-2.63,2.47c-10.81-1.67-20.83,5-31.67,3a17,17,0,0,0-3.11,0c-2.54,0-4.07-1.77-5.86-3.14-5.83-4.46-10.34-4.42-16.22.19-2.25,1.76-4,4.23-7.21,4.53-7.38.17-14.76,0.22-22.13,0-2.43-.22-4-1.92-5.66-3.42-6.63-5.95-12.4-6-18.93-.07-1.21,1.09-2.24,2.41-3.79,3.09-2.92,1.25-6,.7-9,0.69-8.83,1.34-17-3.25-25.81-2.77a4,4,0,0,1-4.3-4.36c0.06-2.58,1.74-3.49,4.11-3.71,1.43-.13,2.83-0.71,4.28-0.16-1.51-.65-3,0.11-4.55-0.06a3.77,3.77,0,0,1-3.63-3.61c-0.2-2,1-3.06,2.65-3.74a4.76,4.76,0,0,1,2.41-.56c5.61,0.92,9.14-1.91,11.83-6.4,3.5-.75,7-0.37,10.54-0.37q51.25,0,102.51,0C564.39,488.73,568.29,488.07,571.23,491.23Z" transform="translate(-15.78 -264.1)"/><path class="cls-5" d="M451,441.29c9.44-12.2,20.91-21,36.18-25.44a66,66,0,0,1,19-2.77,16.15,16.15,0,0,0,9.28-2.87c11.19-2.44,20.6,1.91,27.39,9.88,5.63,6.62,11,12.72,19.39,15.57a11.65,11.65,0,0,1,6.39,5.59c-2.12,2.57-5.1,2.53-8,2.53q-50.78,0-101.56,0C456.15,443.78,453.17,443.82,451,441.29Z" transform="translate(-15.78 -264.1)"/><path class="cls-6" d="M180.87,430c0.24-4.32-.49-8.15-5-10.07-5.69-7-5.71-13.54-.06-22.69,2.91-4.71,9.92-6.9,17.18-5.35,3,2.38,2.69,6.14,3,9.19,1.83,16.87,2.85,33.83,4.77,50.7,1.59,13.93,3.25,27.87,4.53,41.82,0.81,8.78,2.8,17.55,1.76,26.47-5.64,5.58-11.06,5.07-16.28-.6a5.09,5.09,0,0,1-1.44-1.71c-3-11.47-3-23.33-4.5-35-1.45-11.49-2.38-23.08-4.49-34.43C179.13,441.92,182.81,436.13,180.87,430Z" transform="translate(-15.78 -264.1)"/><path class="cls-7" d="M451,441.29l117.59,0c3.37,1.16,9.14-2.6,9.71,4.73,0,0.35,3.39.59,5.2,0.61s3.28,0.12,3.46,2.43c0.22,2.86-1.95,2.41-3.33,2.13-6.18-1.27-7.7,2.09-8.07,7.31-0.31,4.31-1.2,8.59-1.83,12.88-2,2.2-4.74,2.34-7.47,2.35q-58.78.08-117.56,0a8.35,8.35,0,0,1-4.24-.76,2.34,2.34,0,0,1-.4-3.32c-0.51-4.89-1.07-9.78-1.52-14.67s-4-3.45-6.88-3.82c-1.51-.2-4,1.19-4-2.11s2.5-1.76,4-2.34c2-.8,6.5,1.94,5.22-3.77-0.36-1.59,1.61-1.43,2.77-1.48C446.08,441.35,448.55,441.34,451,441.29Z" transform="translate(-15.78 -264.1)"/><path class="cls-8" d="M571.23,491.23q-58.25,0-116.5-.05c-2.67,0-5.43.46-7.88-1.14-3.07-2.42-3.12-5.89-3.27-9.33,0.13-2,.27-4.07,2.14-5.42a11.61,11.61,0,0,1,6.57-1.5q56.63-.07,113.25,0c2.71,0,5.44,0,7.48,2.29Z" transform="translate(-15.78 -264.1)"/><path class="cls-9" d="M337.88,340.19c-2-1.35-3.49-3.46-6.12-3.76,0.14-3.62.66-3.77,5.67-1.63,3.11,0.51,3.68-3.62,6.53-3.58,9.24-.13,18.41,1.29,27.79-0.35,4.12-.72,8.84,3,13.76,2l3.62-1.39c9.56,1.64,19.13-.73,28.7.12,2,3.94,4,4.09,7.45,1,6.56-5.8,13-3.84,15.69,4.47,0.39,1.21.7,2.06,1.75,1.7,3.89-1.32,5.46-.25,5.87,4,0.21,2.18,3.21-.55,5.13,1.41,3.27,3.34,4.48,7.13,5.17,11.39,1,2.56,1.31,5.17,4.09,7.2,3.16,2.32,3.44,7,1.74,10.17-2.32,4.29-3.14,7.91-2.14,12.88a8,8,0,0,1-5.53,9.5c-3.37,1.06-6,4.32-7,7.27-1.91,5.41-4.76,7.06-10.35,6.76-3-.16-6.37,1.87-8.17,4.83-2.47,4-5.23,6.27-10.55,5.54-3-.42-6.76,1.79-8.22,4.66-2.32,4.56-5.42,6.11-10.31,5.74-2.95-.22-5.32,1.73-7.45,3.7-3.3,0-4.79-1.88-5.05-5,0.94-3.13,3.66-4.38,6.23-5.71,12-6.22,23.57-13.17,35.71-19.11,7.49-3.68,14.68-7.48,19.09-15.28,11.41-20.18-2.43-45.36-25.67-46.25-26.36-1-52.74-.26-79.11-0.5C343.28,342,340.25,342.52,337.88,340.19Z" transform="translate(-15.78 -264.1)"/><path class="cls-10" d="M166.84,349.94c-2,11.65-5.74,22.87-9.47,34-7.31,21.81-13.07,44.07-20.26,65.9-1.68,5.11-3.45,10.19-4.85,15.38-1.44,5.35-7.2,5.2-10.16,8.53-2.17,4.14-5.09,4-7.69.78s-5.59-6-8-9.32a4.65,4.65,0,0,1-.3-1.85c0.78-4.11,3.66-6.88,6.36-9.7,11.23-11.73,17.4-26.48,24.35-40.74,2.34-4.79,5.5-9.26,6.47-14.67C150.62,381.89,158.55,365.82,166.84,349.94Z" transform="translate(-15.78 -264.1)"/><path class="cls-11" d="M470,512.23c7.37-11.3,17.43-11.17,26.73.34a58.71,58.71,0,0,0,24.92,0c9.57-11.59,18.46-11.59,27.75,0,1.43,11.08-.17,14.4-9.57,19.84-2.44,2.64-5.49,2.06-8.51,1.62a14.16,14.16,0,0,1-8-5.55c-2.66-3.92-6.09-5.11-10.59-4.74a66,66,0,0,1-9.29,0c-3.18-.19-5.6.73-7.22,3.66-2,3.66-5.37,5.6-9.33,6.63-3,.39-6,1-8.42-1.62-4.17-2.42-8.18-5.08-9.25-10.19-0.8-3.8-4-1.93-6-2.9C464.7,516.15,468.14,514.93,470,512.23Z" transform="translate(-15.78 -264.1)"/><path class="cls-12" d="M440.57,543.44v-6.26c2.28-2.31,5.23-2.25,8.14-2.25q59.72,0,119.45,0c2.92,0,5.85,0,8.17,2.21q0,3.17,0,6.33a85.24,85.24,0,0,1-34.38.89,20.44,20.44,0,0,0-5-.09c-19,1.33-38,.83-57.06.17-8.4-.29-16.87,1.34-25.38,1.1A49.93,49.93,0,0,1,440.57,543.44Z" transform="translate(-15.78 -264.1)"/><path class="cls-13" d="M330.83,519.31l-3.26.56c-1.8-1.66-1.37-3.69-1-5.77,1.05-6.79.44-13.62,0.5-20.44a9.72,9.72,0,0,0-2.83-6.66c-1.31-2.84.19-5,1.7-7.17,4.59-2.4,1.82-7.46,3.87-10.8,2.87-4.32,4.88-9.15,8.12-13.23,1-1.3,2.09-2.74,4-2.54,2.3,0.24,2.9,2.23,3.29,4,1.16,5.23,3,10.38,2,15.89a5.5,5.5,0,0,1-1.4,2.66c-5.15,4.85-3.59,9.76-.17,14.69,2,4.5.63,9.14,0.62,13.74a12.07,12.07,0,0,1,.05,4c0.91,11.07.91,11.07-10.41,11.07C334.15,519.29,332.49,519.28,330.83,519.31Z" transform="translate(-15.78 -264.1)"/><path class="cls-14" d="M207,520.07q-3.15-28.28-6.3-56.56Q196.87,428.76,193,394a4.62,4.62,0,0,0-.95-1.56c2.27-3.85,4.23-1.93,5.7.54,1.17,1.95,1.28,4.35,1.67,6.59,0.52,13.73.46,13.44,14,10.68,32.6-6.62,65.13-13.56,97.78-20,2.44-.48,4.94-1.14,7.38-0.2,2.27,0.88,3.1,2.19.57,3.88L208.94,417.4c-10.42,2.21-10.15,2.18-9.07,12.78,3,29.74,5.81,59.5,8.7,89.26Z" transform="translate(-15.78 -264.1)"/><path class="cls-15" d="M576.33,537.14l-135.76,0c-1.07-3.7.63-4.53,4.06-4.51,11.29,0.05,22.58-.16,33.87-0.27l8.77,0c14.53-3.67,29.07-4.17,43.61,0l9,0c10.73,0.09,21.46.28,32.19,0.22C575.41,532.62,577.32,533.33,576.33,537.14Z" transform="translate(-15.78 -264.1)"/><path class="cls-16" d="M159.07,519c-11.45,1.46-23-.19-34.45.84a1.31,1.31,0,0,1-1.9-.17c-1.79-2.65-1.66-5.37-.33-8.14,2.28-2.82,5.57-2.47,8.58-2.38,4.7,0.14,7.79-1.9,10-5.87,2.44-4.31,5.22-8.42,7.61-12.77,1.48-2.69,3-5.53,6.55-6a21.19,21.19,0,0,1,8.57,7.55c-0.93,4.07-1.69,8.17-2.24,12.32a16,16,0,0,1,0,3.51,33.4,33.4,0,0,1,.34,7.76C161.76,517.27,161.91,519.46,159.07,519Z" transform="translate(-15.78 -264.1)"/><path class="cls-17" d="M573,476.07l-120.3.1c-2.49,0-5,.13-7.47.2-2.73-1-2.39-2.45-.74-4.17a24.5,24.5,0,0,1,4.8-1q62.22,0,124.44.09C573.92,473,574.14,474.63,573,476.07Z" transform="translate(-15.78 -264.1)"/><path class="cls-18" d="M337.43,334.8c-1.68,1.25-4.63-1.86-5.67,1.63-8.43-1.21-16.47-3.9-24.58-6.35a11.26,11.26,0,0,1-7.29-6.24c-4.26-8.77-8.77-17.42-13-26.19-2.09-4.29-5.29-7.2-9.32-9.69-8.59-5.31-17-10.94-24.39-17.91,10.72,5.31,21.42,10.68,32.19,15.9a10.17,10.17,0,0,1,4.19,4.31c4.36,7,9.38,13.73,13,21.1,4.61,9.28,12.19,14.79,20.84,19.44,1.43,0.77,3.1,2.29,4.49.87C333.42,326,335.46,330.14,337.43,334.8Z" transform="translate(-15.78 -264.1)"/><path class="cls-19" d="M107,464a4,4,0,0,0,.37,1,3.11,3.11,0,0,1-2.25,1.28c-2.31.29-4.32-1.18-6.7-1.18-0.35,2.14,2,4.22.16,6.33-4.07.52-5-3.44-7.52-5.2-2.13-2.1-4.9-3-8.15-4.31,0.77,4.53,3.54,8.17,3.44,12.5a4.9,4.9,0,0,1-1.43,3.43,3,3,0,0,1-2.72.18c-3.43-5.64-3.61-12.41-6.43-18.59-3.84,3.17-5.32,7.35-6.26,11.84-0.46,2.18-.28,4.58-2.05,6.34a1.55,1.55,0,0,1-1.67-.19c-0.49-9.17,1.26-17.28,9.71-22.75,3.07-2,.15-3-1.36-3.67-5.15-2.43-10.58-2.05-15.81-.64C40.74,455,29.5,471.72,28.62,489.83c-0.14,3,.52,4.71,3.79,2.14a16.26,16.26,0,0,1,4.94-2.57c5-1.63,9.75-1.2,12.62,3.6,2.67,4.48,1.68,8.77-2.72,12-1.2.57-1.55-.2-1.8-1.13a5.82,5.82,0,0,1,.59-2.37c1.5-3.1,1.9-6.08-1.69-7.95-3.84-2-7.49-.69-10.07,2.2-2.95,3.3,2.28,5.18,2.16,8.16-0.25,1-.61,1.71-1.81,1.11-2.57-1.2-3.86-3.67-5.64-5.65-9.26,8.57-16.25,33.4-5.13,51.41q0.44,1.3-.81.74c-10.79-15.32-8.36-31.11-.52-46.35,3-5.93,4.75-11.35,4.75-18,0-21,19.94-40.5,40-39.65a23.27,23.27,0,0,1,14.31,5.25,33,33,0,0,0,15,7C100.93,459,104.89,459.24,107,464Z" transform="translate(-15.78 -264.1)"/><path class="cls-20" d="M324.54,486.21c3.62,0.18,4.91,2.11,4.72,5.66-0.5,9.34.73,18.77-1.69,28-5,5.58-9.77,2-14.58-.3-3.48-3.94-2.44-8.59-1.54-12.91a50.55,50.55,0,0,0,1.06-9.74C314.5,488.9,318.46,485.38,324.54,486.21Z" transform="translate(-15.78 -264.1)"/><path class="cls-21" d="M123,519.59l1.58,0.24a2.75,2.75,0,0,1-1.66,3.39,18.22,18.22,0,0,1-14.36.11l-1.71-.09a19.09,19.09,0,0,1-14.33.21l-1.67-.28c-4.61,2.33-9.3,2-14,.42l-2.2-.48c-4.56,2.42-9.25,2-14,.64-1.28-1-2.6-2-2.16-3.9a4,4,0,0,1,2.59-1.62c4.36-.89,8.82-0.34,13.21-0.82,1.33-.12,2.61.37,3.93,0.34,10.5-.3,10.54-0.3,10.76-10.66A103.7,103.7,0,0,0,88.86,496c-0.77-8.86-.75-8.86-10-8.54-1.61.09-3.1,1-4.76,0.7-4.31-1.57-9.3.13-13.34-2.77-3.81-1.42-2.08-2.88,0-4.33,4-3,8.62-1.28,13-1.48a16.34,16.34,0,0,1,2.79.16,11.38,11.38,0,0,1,1.79.37,29.43,29.43,0,0,0,12.47,0l1-.05c0.68,0,1.34.13,2,.23,9.88,0.85,19.77.11,29.65,0.37,2.3,0.86,2.25,2.57,1.63,4.48a4.55,4.55,0,0,1-1.67,1.29,9.9,9.9,0,0,1-3,.72c-11.44.05-8.88,1.1-10,10.41-0.59,4.92.05,9.93,0.34,14.9,0.22,3.73,1.81,5.15,5.37,5.17C118.51,517.61,121.08,517.64,123,519.59Z" transform="translate(-15.78 -264.1)"/><path class="cls-22" d="M385.51,332.84c-3.1,4.19-7.09,2.68-10.42,1-4.12-2.12-7.67-2.31-11.67.05a9.33,9.33,0,0,1-10,.09c-3-1.95-6.52-1.09-9.43-2.74,2.51-2.22,4.11-5.06,5.83-7.91,3.44-5.69,9.48-6.17,20.48-2.66C377,322.8,381.19,327.83,385.51,332.84Z" transform="translate(-15.78 -264.1)"/><path class="cls-23" d="M330.83,519.31a13.64,13.64,0,0,1,2.38-.52c11.06-.45,11.06-0.44,11.25-11.67,4-.05,8.23-0.95,11.31,2.8,0.91,4.51,3.36,6.44,8.23,6.33,28.74-.63,57.47.85,86.21,0.51a9.81,9.81,0,0,1,6.41.76,2.31,2.31,0,0,1,1.15,1.72c-18,.13-36.06.3-54.1,0.38-14.52.06-29,.19-43.55-0.09-4.59-.09-6.51,1.12-5.91,5.87a12.37,12.37,0,0,1-.61,6.07c-0.75,1.8-2.94,2.18-4.88,1.9a4.51,4.51,0,0,1-3.88-3.51c-1-3.32,2.08-8.12-2.32-9.88-3.06-1.22-7-.35-10.48-0.44A7,7,0,0,1,330.83,519.31Z" transform="translate(-15.78 -264.1)"/><path class="cls-24" d="M107,464L96.6,459.74c6.88-6.6,13.35-13.71,20.73-19.69,10.33-8.37,14.85-20.17,20.51-31.39,1.77-3.5,3.63-7,5.44-10.42,0.9,6.38-3.87,10.7-6,16-3,7.45-7.06,14.46-10,21.9C122.83,447.17,112.94,454.12,107,464Z" transform="translate(-15.78 -264.1)"/><path class="cls-25" d="M307.95,553.79a106.1,106.1,0,0,1-56,11.12c-12.27-.84-24.12-3.67-35.94-6.91-11.4-3.12-22.84-6.2-34.88-3-4.68,1.23-7.23,2.56-5.07,8.29s1.73,11.42-4.05,15.37c-2-3.88,1.37-7.5.55-11.35-0.29-1.37.25-3.3-1.09-4-1.85-.92-2.85,1.07-4,2.16a15.19,15.19,0,0,0-3.44,5.07c-2.13,5.17-.45,7.54,5.15,7.25a3.51,3.51,0,0,1,2.85.77c-1.66,4.2-5.22,4.5-8.67,3.51-3.12-.9-3.82-3.95-4-7-0.26-5.14,2.08-9.11,5.44-12.65,6.38-6.71,6.39-6.7-1.48-11.57-0.08-.95-0.1-1.81,1.24-1,5.76,5.55,11.81,4.87,19.3,3,9.86-2.45,20.13-.13,30,2.73,16.36,4.74,32.94,8.65,50.12,7.82,14.11-.68,28-2.87,40.22-10.82C306,551.32,307.6,550.7,307.95,553.79Z" transform="translate(-15.78 -264.1)"/><path class="cls-26" d="M74.78,518.85c-4.48,2-9.15.62-13.73,0.78-3.51-1.66-2.46-4.76-2.13-7.44a32.28,32.28,0,0,1,1.78-6.45q0-10.19,0-20.38c3.72-.12,7.44-0.23,11.16-0.37,1.65-.07,2.85.36,2.91,2.28,1.5,1.43,1.63,3.3,1.65,5.19q0.12,10.61,0,21.22C76.44,515.57,76.29,517.44,74.78,518.85Z" transform="translate(-15.78 -264.1)"/><path class="cls-27" d="M440.57,543.44l135.76,0c-1.09,3.55-5,.31-6.54,2.68-8.9,3.79-17.78,4.07-26.62-.21a59.42,59.42,0,0,0-21.66,0c-8.74,4.26-17.49,4.19-26.24,0a57.32,57.32,0,0,0-21.6,0c-8.88,3.15-17.77,4.41-26.69.15C445.24,544.27,441.74,546.66,440.57,543.44Z" transform="translate(-15.78 -264.1)"/><path class="cls-28" d="M164.61,549.84l-1.24,1c-14.41-6-28.79-3.95-43.13.28S92.07,562,77.31,565.43c-16.66,3.83-32.9,3.92-47.51-6.83-2.67-2-5.33-4-6.76-7.12q0.42-.35.81-0.73C38.1,566.2,55.73,568.48,75.17,564.1c11.37-2.56,22.06-7.07,33-10.9,14.9-5.22,29.85-10.18,46-7.11C157.84,546.79,161.49,547.59,164.61,549.84Z" transform="translate(-15.78 -264.1)"/><path class="cls-29" d="M159.07,519c2.17-3.87.26-8,.69-12,3.77,0,7.66-.57,10.85,2.25,0.88,6.09,4.62,7.73,10.33,7.2,3.35-.31,7-0.64,9.76,2.25a1.48,1.48,0,0,1,.05.74c-5.56.06-11.12,0.28-16.67,0.11-3.48-.11-4.93,1.11-4.55,4.61,0.17,1.63,0,3.29,0,4.94,0,2.87-1.68,4.17-4.22,4.27-2.78.11-4.63-1.08-4.89-4.27C160.16,525.73,161.56,522.09,159.07,519Z" transform="translate(-15.78 -264.1)"/><path class="cls-30" d="M417.82,331.56c-9.58,2.66-19.15,5.16-28.69-.12C397.77,317.26,412.35,322.29,417.82,331.56Z" transform="translate(-15.78 -264.1)"/><path class="cls-31" d="M307.95,553.79c-0.47-2.74-2.23-1.53-3.7-1.22l-6,.76c0.63-3.24,8-4.53,2.27-9.08-0.26-1.07-2.14-1.66-1-3.11,0.75-1,1.82-.72,2.78-0.26,3.25,1.55,6.44,1.89,9.57-.28l5.27-8.13,0.86,0.45L314.42,543c2.77,1.4,5.33-.18,7.9-0.16-0.92,2.7-4.28,1.44-5.74,4l14.15,5.85-0.21,1-15.84-2.73c-2,1.11-1.43,3.1-1.66,4.81-0.19,1.38-.24,2.94-2.35,2.61Z" transform="translate(-15.78 -264.1)"/><path class="cls-32" d="M447,546.1l26.69-.15c1.25,5.83-.71,8.41-7,7.66a56.25,56.25,0,0,0-12.39,0C448.36,554.21,445.69,552.23,447,546.1Z" transform="translate(-15.78 -264.1)"/><path class="cls-33" d="M543.17,545.95l26.62,0.21c1.44,6.25-1.33,8.08-7.26,7.44a55,55,0,0,0-12.44,0C543.76,554.38,541.85,551.78,543.17,545.95Z" transform="translate(-15.78 -264.1)"/><path class="cls-34" d="M495.27,546l26.24,0c1.18,6.13-1,8.64-7.46,7.66a39.77,39.77,0,0,0-11.15,0C496.7,554.43,494,552.35,495.27,546Z" transform="translate(-15.78 -264.1)"/><path class="cls-35" d="M314.15,496.48L313,519.57l-13.54,0a2.09,2.09,0,0,1-.62-2.38c2.07-3.08,3.8-6.39,6-9.41,2-2.12,3.26-4.76,4.76-7.23C310.62,498.76,311,495.91,314.15,496.48Z" transform="translate(-15.78 -264.1)"/><path class="cls-36" d="M60.7,505.74c0.47,4.62-.77,9.29.36,13.89l-2.54.21L50.57,519Z" transform="translate(-15.78 -264.1)"/><path class="cls-37" d="M311.84,540.6c-2.23,4.79-5.6,3.58-9,1.62-3-1.75-3-.32-2.3,2l-11-8.52,0.52-.88L306,540.94c1.73-1.3.06-3.6,1.35-4.77C310.65,535.94,307.64,541.69,311.84,540.6Z" transform="translate(-15.78 -264.1)"/><path class="cls-38" d="M92.56,523.44a32.38,32.38,0,0,1,14.33-.21c0.24,2.47.24,4.58-3.33,4.25a56.89,56.89,0,0,0-8.1,0C92.22,527.69,92.29,525.68,92.56,523.44Z" transform="translate(-15.78 -264.1)"/><path class="cls-39" d="M108.6,523.33a36,36,0,0,1,14.36-.11c0.23,2.38.36,4.54-3.2,4.26a49,49,0,0,0-8,.08C108.32,527.85,108.36,525.72,108.6,523.33Z" transform="translate(-15.78 -264.1)"/><path class="cls-40" d="M76.86,523.59c4.63-1.53,9.33-1,14-.42,0.23,2.71,0,4.82-3.73,4.28a26.85,26.85,0,0,0-6.71.08C77.25,527.89,76.58,526.24,76.86,523.59Z" transform="translate(-15.78 -264.1)"/><path class="cls-41" d="M60.68,523.74c4.58-1.91,9.3-1,14-.64,0.25,2.65.19,4.85-3.61,4.35a32.34,32.34,0,0,0-7.29.06C60.63,527.82,60.6,525.89,60.68,523.74Z" transform="translate(-15.78 -264.1)"/><path class="cls-42" d="M310.67,558.49c3.05-1.55-1-6.94,4-7.43-1.36,7,2,13.69,2,21.65A60.58,60.58,0,0,1,310.67,558.49Z" transform="translate(-15.78 -264.1)"/><path class="cls-43" d="M479,389.86c-1.91.59-3.36,2.33-5.86,2.19-0.2-3.92-3.77-7.34-1.55-11.69C475.72,382.19,476.87,386.39,479,389.86Z" transform="translate(-15.78 -264.1)"/><path class="cls-44" d="M457.76,519.25l0.13-.2a25.68,25.68,0,0,1,2.55-6.2l9.59-.62c-0.59,3.95-1.74,7.35-6.74,7.09Z" transform="translate(-15.78 -264.1)"/><path class="cls-45" d="M74.71,481.19a35.49,35.49,0,0,1-14-.16c-0.57-4.34,2.85-3.16,5.06-3.65l1.82-.08C73.6,474.79,75.15,475.65,74.71,481.19Z" transform="translate(-15.78 -264.1)"/><path class="cls-46" d="M477.8,370c-3.24.58-8.89-4-8.17-6.88,0.37-1.48,2.09-.57,3.24-0.52,1.57,1.33,3.05,2.77,4.72,4S479.06,368.76,477.8,370Z" transform="translate(-15.78 -264.1)"/><path class="cls-47" d="M480.74,378.73c-0.66-2.39-1.83-4.68-1.46-7.28,2.66,0.13,3.94,2.06,5,4,0.6,1.07,2.59,1.91,1.05,3.59S482.16,380.44,480.74,378.73Z" transform="translate(-15.78 -264.1)"/><path class="cls-48" d="M300,517.53l-0.6,2c-1.79,1.63-1.53,4.76-4.49,6-1.77-1.78-.23-3.78-0.32-5.59l2.24-3.75C298.57,515.13,299.53,515.81,300,517.53Z" transform="translate(-15.78 -264.1)"/><path class="cls-6" d="M319.15,394c1.22-4.37-2.17-2.61-3.56-2.34-12.2,2.37-24.37,4.93-36.54,7.45q-37.73,7.8-75.45,15.64c-3.68.77-5.66-.14-5.39-4.25,0.25-3.81-2.76-7.66.1-11.46,2.6-3.26,6.56-2.19,9.88-3.13,10.62-2.56,21.48-3.71,32.24-5.49,11.71-2,23.41-4,35.15-5.84,4.49-.68,9-1.41,13.46-2.09,2.28-.35,4.54-0.51,6.52,1,6.62-1.08,13.2-2.45,19.86-3.13,4.38-.45,5.56-2.63,5.25-6.45,0.25-4,1.45-6.17,6.33-5.82,4.7,0.34,5.15,2.7,5.5,6.41a123.39,123.39,0,0,1-1.18,30.25,28.67,28.67,0,0,0-.14,5.59c0.82,18.43-1.73,36.77-1.31,55.19a14.21,14.21,0,0,1-1.31,6.64c-5.35,1.71-8.73.39-12.83-5C316.95,442.76,319.33,418.43,319.15,394Z" transform="translate(-15.78 -264.1)"/><path class="cls-49" d="M285.8,465.66c0.61,5.69-.86,11.19-1.74,16.69-1.29,8.07-6.36,12.52-14.48,14.05-10.81,2-20.57,1.15-28.34-7.73-5.07-5.79-3.49-13.14-4-19.65-1.36-16.09.88-18.32,16.86-21.37,5.48-1,11-1.8,16.55-2.51,8.39-1.07,12.94,2.18,14.52,10.61C285.74,459,285.6,462.35,285.8,465.66Z" transform="translate(-15.78 -264.1)"/><path class="cls-50" d="M314.15,496.48c-3.76,3.49-3.54,9.74-8.6,12.32-2.34.75-3.78-.24-4.61-2.4-2.49-1.3-1.85-3.07-1.08-5.19,1.93-5.37,4.71-10.47,5.2-16.33,0.1-1.21.53-2.37,0-3.56-2.69-6.33.28-10.47,5.32-13.81a2.65,2.65,0,0,1,1.1,2.31c-0.55,4.58,5,9.27,10.71,8.9,1.57-.1,3.07-1.31,4.71-0.25a1.46,1.46,0,0,1,.13,1.62l-2.52,6.13C319.13,487.67,316,491.4,314.15,496.48Z" transform="translate(-15.78 -264.1)"/><path class="cls-51" d="M310.26,470.24l0.16-2.74c1.65-2,3.52-.74,5.33-0.37l11,5.22a2.43,2.43,0,0,1,.75,1.85c-0.91,3.29-3.55,4.09-6.21,3.26C317,476.13,311.84,475.81,310.26,470.24Z" transform="translate(-15.78 -264.1)"/><path class="cls-52" d="M300.95,506.4l4.61,2.4c-1.71,3-2,6.89-5.51,8.72-0.63-1.45-1.93-1.32-3.17-1.35Z" transform="translate(-15.78 -264.1)"/><path class="cls-3" d="M275.57,386.38l-35,6.12a2,2,0,0,0-1.12-.47c-9.81-.22-9.78-0.22-9.65-9.93,0.08-5.79.1-11.58,0-18.51-2.93,6.79-6.22,12.24-8.5,18.16-2.6,6.76-6.15,12.67-13.06,15.85-3.08,2-6.62.86-9.9,1.42-1.76-1-2.1-2.36-2-4.51,0.2-3.07-1.75-3.71-4.33-2.06-3.78.89-7.56,1.77-11.34,2.69a6.51,6.51,0,0,0-2.18.81c0.78,5.65-8,8.29-4.49,15,1.36,2.6,1.25,6,1.8,9-7,2.88-13,7.55-20.06,12.14,2.48-7.91,4.66-15,6.91-22,6.23-19.55,12.59-39.06,18.65-58.67,1.25-4,3.16-6.33,7.41-7.09,9.36-1.68,18.64-3.82,28-5.49,5-.9,7.51-3.28,8.87-8.48,4.17-16,9.06-31.8,13.7-47.68,0.34-1.17.88-2.27,1.94-4.94,2.07,9.51,4.24,17.5,5.43,25.64,0.79,5.43,3.76,7.79,8.48,7.87,5.86,0.09,7.87,2.62,8.35,8.3,0.26,3.1.07,6.69,2.11,9.56,1.53,3,.66,6.15-1.63,7.61-3.66,2.34-7.89,2.16-12-1.23,2,6.44-4,6.55-6.53,9.39-0.76.85-3.73,0.25-1.63,2.85,0.46,0.57,0,1.61-.27,2.4-1.38,4.63-2.81,9.13.85,13.63a6.18,6.18,0,0,1,1.27,5.86c0.43,0-1.47,1.25.27,0.52a3.89,3.89,0,0,1,3-.13c3.48,1.31,6.05,6.13,8.66,5.82,3.68-.43,7.35-2.67,11.24-1.28,1.59,0.57,1,.07,1.21-0.83,0.51-2.07,2.11-2.28,3.94-1.82a3.45,3.45,0,0,1,1.46,1.33C276.75,377.6,278.64,382,275.57,386.38Z" transform="translate(-15.78 -264.1)"/><path class="cls-10" d="M190.69,518.73c-4.72,0-9.47-.38-14.15,0-5.39.49-7.72-1.32-6.91-6.82a20.09,20.09,0,0,0-.12-3.68c-1.88-1.38-1.73-3.47-1.93-5.44-0.31-3.35-.22-6.76-1.13-10,0-2.43,2.12-3.35,3.47-4.82,2.16-2.36,2.89-5,1.36-7.92-1.39-2.63-3.26-4.7-6.72-4.47s-5.77,1.91-6.77,5.25c-0.46,1.54-.39,3.34-2.25,4.11-4.82,3.43-6.81,9-9.07,13.86-4.75,10.32-12,14.51-23.1,12.41a3.59,3.59,0,0,1-1.6-2.53c-0.33-6.14-.56-12.29-0.74-18.44a6.48,6.48,0,0,1,2.08-5l1.45-.33c0.88-.59.36-1.92,1.29-2.48,8.52-4.15,17.08-8.24,25.56-12.48,4-2,7-5.24,9.67-8.62,5.54-6.94,10.83-14.06,16.24-21.1,2.33-3,4-6.25,3.54-10.23,1.15,9.41,2.33,18.82,3.44,28.23q3.23,27.44,6.36,54.9A49.88,49.88,0,0,1,190.69,518.73Z" transform="translate(-15.78 -264.1)"/><path class="cls-53" d="M273,372.53c-4.68,2.28,1.14,5.41-.94,8.3-3-.86-2.5-6.82-8.43-5.06-4.57,1.36-6.33,3.55-8.17,8.51-1.41-4.55-.29-7.86-4.09-11.11-5.66-4.84-7,2.46-11.14,1.55,1.22-3.14,4.19-5.05,3.09-9.64-1.5-6.3-6.33-3.94-10.19-6.11,3.35-1.91,6.67-1.35,8.13-6.77,1.61-6-2.37-6.69-4.92-11.43,5.17,3.65,7.89,2.25,11.72.15,5.82-3.19.06-6.84,2.17-10.29,2.65,5.38,6.89,6.7,12.14,5.1,3.41-1,2.56-4.21,3.2-6.63,4.65,1.74-.13,5.1,1.27,7.4,1.15,2.26,3,4.33,1.79,7.18-1.93,2-4.31.82-6.49,0.84-5.7,0-10.46,2.76-12,7.07a12.53,12.53,0,0,0,3.94,14c4.26,3.43,8.34,3.47,13.72.16,2-1.22,3.75-3.71,6.37-1C275.45,367.58,275.27,370.21,273,372.53Z" transform="translate(-15.78 -264.1)"/><path class="cls-54" d="M125.86,482.43a2.82,2.82,0,0,1-1.29,2.48c0.11-1.27.18-2.54-1-3.43l-0.8-.32c-4.78-2.77-9.49-3.06-14.13.32a2.34,2.34,0,0,1-1.67.07c-4.34-3.28-8.9-3-13.58-.87a4.6,4.6,0,0,1-1.49.77,3.35,3.35,0,0,1-1-.21c-1.73-2.06-5.12-1.36-6.54-3.94l0.47-3.83c1.1-4,2.11-8,7.16-8.7,3.29,1,3.55,5.06,6.5,6.4,1.75-2.36,3.47-4.75,6.11-6.24l2.74,0a12.89,12.89,0,0,1,7.09,6.64c1.79,3.83,4.18,4.74,7.66,2.14C122.64,476.95,130.27,477.08,125.86,482.43Z" transform="translate(-15.78 -264.1)"/><path class="cls-55" d="M268.24,343.91c-0.4-2.48-1.83-4.78-1.36-7.42a5.69,5.69,0,0,1,1.56,1c3.44,4.33,7,6.16,11.12.78a1.81,1.81,0,0,1,1.14-.26,3.64,3.64,0,0,1,1,.64c-3.78,3.08-5.26,6.43-2.35,11.21,2.45,4,5.77,2,8.75,2.56l0.29,1.69a1.23,1.23,0,0,1-.06.6c-6.31,3.21-8,7.22-3,13.26,1.82,2.23-.69,3.46-2.63,3.13-3.09-.54-5.59.92-8.33,1.61l-1.29-.15q0-4.44,0-8.89a3.59,3.59,0,0,1-.75-3.4c0.75-5,.37-9.73-3.54-13.56A2.24,2.24,0,0,1,268.24,343.91Z" transform="translate(-15.78 -264.1)"/><path class="cls-2" d="M444.51,472.2c-0.44,1.51-.72,3,0.74,4.17q0,2.41,0,4.82a1.23,1.23,0,0,1-.6.08c-9-10.06-22-8.86-33.47-12a0.92,0.92,0,0,0-.61-0.1c-11-1-18.85-6-24.78-16-9.44-15.81-20.63-30.57-30.81-46-2.93-4.43-6.35-6.52-11.73-6.51-3.85,0-8.47,1.35-11.29-3.06-0.12-7.45.27-7.87,6-6.45,14.15,0.33,14.55-.36,9.75-13.92-3.29-9.31-6.65-18.63-7.33-28.62,3.54,0.16,3.9,3.32,4.91,5.58,4.57,10.2,9.36,20.32,13.38,30.74A72.5,72.5,0,0,0,377,412c5.22,4.93,10.57,9.87,13.41,16.75l4.49,5.07c12.51,17.25,30.41,27.09,49.14,35.8Z" transform="translate(-15.78 -264.1)"/><path class="cls-56" d="M482.64,391.91c3.06,0.78,4.65,1.87,5,4.05a2.33,2.33,0,0,1-1.66,1.41C483,396.77,483.89,394.23,482.64,391.91Z" transform="translate(-15.78 -264.1)"/><path class="cls-57" d="M431.71,406.35c-1.23-2.3-3.31-1.12-5-1.09-16.89.34-30.13-9.26-33.7-24.54-3.67-15.68,4-30.35,19.6-37.36a5.24,5.24,0,0,0,2.68-2.07H338.12a4.91,4.91,0,0,1-.24-1.1c29.72,0,59.44-.18,89.16,0,13,0.08,26.14,11.74,29.55,25.47,3.31,13.35-2.66,28.72-13.84,35.16C439.19,402.88,435.4,404.52,431.71,406.35Z" transform="translate(-15.78 -264.1)"/><path class="cls-58" d="M338,391.25c-6.4-.55-4.86,4-4.89,7.58,3.29,3.67,2.76,8.24,2.23,12.41-1.81,14.2-.91,28.44-1,42.65,0,5.73-1,11-3.74,16,0,2.6-.22,5.21-0.09,7.8,0.15,2.92-1.59,2.66-3.48,2.35l-0.34-1.55c-1.16-1.79,1.22-3.47.17-5.26a3.33,3.33,0,0,1-.14-0.93c1.43-1,1.24-2.5,1.28-3.94,0.43-16.79,1-33.57,1.23-50.36,0.2-14.1,2.09-28.14,1.26-42.25-0.15-2.53,1.64-6-3-7-4.42-.92-5.79,1.76-6.88,5.08-0.11-3.12-.81-6.77,4.25-6.22,3.67,0.4,9-2.12,9.34,4.84,0.07,1.45,0,3.09,1.8,3.58,6.69,1.8,3.66,8,5.27,12C342.09,390,338.91,389.89,338,391.25Z" transform="translate(-15.78 -264.1)"/><path class="cls-59" d="M274.32,372.68c2-5.79,5.91-4.82,10.73-1.91-0.83-4.14-5-4.29-5.26-8.4-0.42-7.16,4.14-7.21,8.58-8.28,2.83,1.41,2.06,4.25,2.55,6.55,1.61,7.61,3.11,15.24,4.65,22.86-6.64,1.14-13.18,3-20,2.88Z" transform="translate(-15.78 -264.1)"/><path class="cls-3" d="M330.64,469.93c1.69-8,1.33-16,1.07-24.07-0.51-15.72,1.3-31.35,1.43-47,5.36,0,10.72,0,16.08.05,2.33,0,3.66,1.63,4.87,3.42,12.85,19,25.78,38,38.52,57.11a12,12,0,0,0,8.37,5.66c10.75,2,21.38,4.62,32.17,6.35,6.24,1,9.88,4.3,12.14,9.78l1.56,8.84c1.33,7.17,1.31,6.91-6.46,7.57-2.84.24-8.07-2.43-8.21,2.11s5.12,0.62,7.7,2.12c2.15,1.25,5.2-.43,8.33,1.87-4.45,1.85-8.36.88-12.08,1.28-1.74.19-4.1-.67-4.29,2.16s2.07,2.76,3.9,2.5c8.54-1.21,16.29,3.57,24.7,3.19,1.81,3.16,1.74,5.55-2.55,6.2l-6.36-.34c-10.44-1.43-21-1.19-31.46-1.82-20.07-1.21-40-4-59.92-6.12a9.43,9.43,0,0,1-6-2.83c-1.5-1.26-1.59-3-1.73-4.79-0.46-3.42-.21-6.93-1.17-10.29-0.08-1.9,1.29-2.9,2.51-4,2.49-2.21,4-4.83,2.61-8.14-1.24-2.92-3.14-5.29-6.83-5.22a4.31,4.31,0,0,1-3.82-1.59c0-6.63-2-12.87-3.3-20.15C337.16,458.87,335.35,465.51,330.64,469.93Z" transform="translate(-15.78 -264.1)"/><path class="cls-3" d="M521.68,512.58c0,1.83-.92,2.41-2.72,2.4-6.57,0-13.15.07-19.72,0.16-1.81,0-2.7-.7-2.48-2.57h24.92Z" transform="translate(-15.78 -264.1)"/><path class="cls-60" d="M497.38,468.38c6.69-6.86,12.27-12.4,17.61-18.16a9.83,9.83,0,0,1,8-3.6c9.9,0.21,19.8.07,31.54,0.07-7.7,7.66-14.33,14.28-21,20.85a2.67,2.67,0,0,1-1.64.79C520.67,468.39,509.41,468.38,497.38,468.38Z" transform="translate(-15.78 -264.1)"/><path class="cls-61" d="M496.62,447.06c-7.33,7.19-13.37,13.39-19.71,19.26-4.39,4.06-18.46,2.9-22.58-1.47a10.15,10.15,0,0,1-2.2-10.93c1.38-4,4.3-6.74,8.7-6.8C472.14,447,483.45,447.06,496.62,447.06Z" transform="translate(-15.78 -264.1)"/><path class="cls-62" d="M537.49,468.29c7.45-7.37,13.73-13.54,20-19.75,1.78-1.78,3.38-.95,5,0.18,3.72,2.64,5.43,6.23,4.59,10.75-1,5.09-4.34,8.26-9.29,8.69C551.65,468.69,545.51,468.29,537.49,468.29Z" transform="translate(-15.78 -264.1)"/><path class="cls-63" d="M480.18,466.51c6.49-6.08,12.86-12.3,19.51-18.19,3.65-3.23,8.18-1.27,13.09-1.57-7,7.35-13.23,14.46-20.17,20.73-2.88,2.6-7.46.72-11.27,0.91Z" transform="translate(-15.78 -264.1)"/><path class="cls-64" d="M482.93,525.16a2.78,2.78,0,0,1-3.77,2.17c-1.52-.42-2.51-1.59-1.91-3.28s1.7-3,3.72-2.33A2.82,2.82,0,0,1,482.93,525.16Z" transform="translate(-15.78 -264.1)"/><path class="cls-65" d="M532.65,527.49a2.63,2.63,0,0,1-2.83-2.66,2.9,2.9,0,1,1,5.77.17A2.59,2.59,0,0,1,532.65,527.49Z" transform="translate(-15.78 -264.1)"/><path class="cls-66" d="M544.84,521.42c-0.44,1.55-1.32,2.77-3,2.66-1.87-.13-3.12-1.22-2.79-3.29,0.27-1.7,1.48-2.41,3.15-2.22A2.78,2.78,0,0,1,544.84,521.42Z" transform="translate(-15.78 -264.1)"/><path class="cls-67" d="M479.8,515.39c-0.23,1.79-1.11,3.06-3,3.14a2.59,2.59,0,0,1-2.79-2.64,2.64,2.64,0,0,1,2.89-3.12C478.5,512.74,479.43,513.78,479.8,515.39Z" transform="translate(-15.78 -264.1)"/><path class="cls-68" d="M489.12,511.73c-2.25.87-4.1,1.27-5.81-.17a3,3,0,0,1,1-2C486.23,508.33,487.72,509.09,489.12,511.73Z" transform="translate(-15.78 -264.1)"/><path class="cls-69" d="M535.06,511.76c2.46-3.54,4.3-3.38,6.83-.25C539.5,512.74,537.65,512.59,535.06,511.76Z" transform="translate(-15.78 -264.1)"/><path class="cls-70" d="M345.67,473.92c5.29-1,10-.48,12.61,5.1,2.48,5.26.29,9.76-6.37,13.17-2.9,3.16-5.25,1.24-7.59-.82C338.3,484.56,338.71,479.38,345.67,473.92Z" transform="translate(-15.78 -264.1)"/><path class="cls-71" d="M344.32,491.37c2.52,0.32,4.93,1.72,7.58.82,4.86,2.66,1.36,7.15,2.33,10.66-3,4.45-6.26,4.57-9.8.65C344,499.45,345.49,495.4,344.32,491.37Z" transform="translate(-15.78 -264.1)"/><path class="cls-72" d="M344.43,503.49c3.32,0.54,6.68,1.88,9.8-.65l0.3,4.59c0.41,0.57.23,0.85-.44,0.88-3.51,2-6.79,2.13-9.64-1.19Q344.44,505.31,344.43,503.49Z" transform="translate(-15.78 -264.1)"/><path class="cls-73" d="M123.12,485.24l0.25,26L123,519.59c-18.15.32-14.23,2.51-14.89-13.54-0.22-5.38.35-10.78,0.14-16.16-0.14-3.75,1-5.35,4.9-5C116.48,485.23,119.81,485.15,123.12,485.24Z" transform="translate(-15.78 -264.1)"/><path class="cls-70" d="M155.55,484.93c0-5.34,1-10,7.3-11.18,5.17-.92,8.93,1,10.93,5.93,2.08,5.1-.12,9.2-6.59,12.57-1.26,1.34-2.56,1.3-3.91.15C159.9,490.74,156.32,489.29,155.55,484.93Z" transform="translate(-15.78 -264.1)"/><path class="cls-74" d="M163.28,492.39l3.91-.15c4.66,2.64,1.43,7,2.33,10.5-2.89,4.5-6.16,4.67-9.78.86C161.47,500,158.42,495,163.28,492.39Z" transform="translate(-15.78 -264.1)"/><path class="cls-75" d="M159.73,503.6c3.31,0.25,6.75,2.08,9.78-.86q0,2.76,0,5.53c-3.57,2-6.9,2.3-9.76-1.24Z" transform="translate(-15.78 -264.1)"/><path class="cls-2" d="M104.61,464.94a7.33,7.33,0,0,1-6.11,6.24,8.76,8.76,0,0,1-.54-1.77c-0.25-2.78-5.32-4.64-3-6.93,1.95-1.89,5.62,1.05,8.51,1.88A5.9,5.9,0,0,1,104.61,464.94Z" transform="translate(-15.78 -264.1)"/><path class="cls-76" d="M76.88,481.05c-0.66-4.63,3.16-2.94,5.24-3.71l2.26,0c2.54,0.72,6.74-1.33,6.54,3.94l0,0a34.07,34.07,0,0,1-13.66,0Z" transform="translate(-15.78 -264.1)"/><path class="cls-73" d="M107.38,502.87c0,2.69,0,5.38,0,8.08-0.14,9.07-.15,8.81-9.19,9-4.46.08-6.43-1.11-6.32-5.8,0.21-8.49.1-17,0-25.48,0-2.63,1-3.49,3.63-3.74,11.13-1.05,11.88-.48,11.92,10.49,0,2.49,0,5,0,7.46h-0.05Z" transform="translate(-15.78 -264.1)"/><path class="cls-77" d="M77.29,485.13c13.48-.56,13.51-0.56,13.81,12.78,0.12,5.35-.06,10.72.19,16.07,0.2,4.36-1.09,6.61-5.92,5.9a66,66,0,0,0-8-.24,5.07,5.07,0,0,1-1.5-3.94c0.16-9-.16-18.09.27-27.13A5.11,5.11,0,0,1,77.29,485.13Z" transform="translate(-15.78 -264.1)"/><path class="cls-78" d="M77.29,485.13q0,17.25.06,34.5l-2.56-.78q0-15.79,0-31.59C75.8,486.74,75.82,485.09,77.29,485.13Z" transform="translate(-15.78 -264.1)"/><path class="cls-2" d="M107,481.17l1.6,0c4.81-2.82,9.65-2.62,14.52-.15l0.48,0.49a102.14,102.14,0,0,1-31.67,0l0.52-.52C97.31,478.56,102.17,478.28,107,481.17Z" transform="translate(-15.78 -264.1)"/><path class="cls-54" d="M77.23,481.26H90.89A16.3,16.3,0,0,1,77.23,481.26Z" transform="translate(-15.78 -264.1)"/><path class="cls-44" d="M354.09,508.31a1.19,1.19,0,0,1,.44-0.88c13.82,2.58,27.85,3.39,41.79,4.95,17.46,1.95,34.87,4.42,52.45,5.15a8.74,8.74,0,0,1,2.76,1.17c-30.49,0-61-.11-91.46.15C350.84,518.93,355.47,512.15,354.09,508.31Z" transform="translate(-15.78 -264.1)"/><path class="cls-79" d="M72.21,502.86c0.13,3.42.42,7.17-4.45,7.2s-5.31-3.81-5.21-7.46,0.07-7.67,5.13-7.56C73,495.16,72.11,499.44,72.21,502.86Z" transform="translate(-15.78 -264.1)"/><path class="cls-2" d="M208.22,397.6c1.77-5,7.37-6.7,9.28-11.93,3.11-8.52,7.33-16.63,11.12-24.9a27.11,27.11,0,0,1,2-3c2.24,4.17,1.06,8.1,1.28,11.82,0.19,3.3,0,6.62,0,9.94,0,10.14,0,10.14,8.67,13Z" transform="translate(-15.78 -264.1)"/><path class="cls-80" d="M326.89,473.28c2.19,1.82.3,3.52-.17,5.26-2.72-.91-2.55,4-5.47,2.71-4.12-1.87-8.52-3.32-12.26-5.78-2.18-1.44.27-3.57,1.26-5.23,3.1,2.79,7.26,3.46,10.8,5.39C323.6,477,325.77,476.11,326.89,473.28Z" transform="translate(-15.78 -264.1)"/><path class="cls-81" d="M268.24,343.91c7.1,6.47,8.09,10.58,4.78,19.74-3.93,4.83-8.73,7.59-15.16,6.05-6.83-1.63-11.64-8.78-10.54-15.47,1.2-7.34,7-12.25,14.33-11.84C263.87,342.52,266,343.38,268.24,343.91Z" transform="translate(-15.78 -264.1)"/><path class="cls-82" d="M123.09,481c-4.83.83-9.68,0.24-14.52,0.15,0-1.2-.35-2.93,1.07-3.18a28.37,28.37,0,0,1,12.67.29C122.78,478.37,122.84,480,123.09,481Z" transform="translate(-15.78 -264.1)"/><path class="cls-83" d="M107,481.17l-14.55-.23c1.71-6.57,7.1-2.24,10.62-3.43C105.53,476.66,107.45,478,107,481.17Z" transform="translate(-15.78 -264.1)"/><path class="cls-84" d="M407.9,392c-6.64-8.07-10.57-16.88-6.53-27.38,6.34-16.5,25.28-21.07,39.29-9.61,1.44,1.18,2.72,2.54,4.08,3.81,7.4,7.08,6.7,24.7-2.53,33.3S415.66,401.21,407.9,392Z" transform="translate(-15.78 -264.1)"/><path class="cls-85" d="M407.9,392c15.78,12.38,36.42,4.09,40.5-13,1.75-7.3-.14-13.89-3.66-20.21,6.71,4.6,6.23,11.67,5.73,18.35-0.71,9.65-5.9,16.42-14.78,20.45s-17.26,2.81-25.3-2.23A5,5,0,0,1,407.9,392Z" transform="translate(-15.78 -264.1)"/><path class="cls-86" d="M347.58,486.08c-2.89-.45-4.5-2.1-4.67-5s1-4.79,4.22-4.91c3.41-.13,5.2,1.94,5.21,4.89C352.35,483.77,350.25,485.44,347.58,486.08Z" transform="translate(-15.78 -264.1)"/><path class="cls-87" d="M110.9,503.47c0-4.46,0-8.39,5-8.4,4.58,0,5,3.54,4.87,7.09s0.61,7.67-4.63,7.83C111.16,510.14,110.73,506.49,110.9,503.47Z" transform="translate(-15.78 -264.1)"/><path class="cls-88" d="M167.19,479.46c0.18,4.42-1.41,6.26-4.2,6.44-3.3.21-4.71-2.07-4.79-5.1s1.51-4.61,4.52-4.58S167.07,478,167.19,479.46Z" transform="translate(-15.78 -264.1)"/><path class="cls-89" d="M104.61,502.53c0.11,3.7.13,7.61-5,7.5-4.43-.1-5-3.5-4.93-7.12s0-7.65,4.85-7.84C104.61,494.87,104.7,498.83,104.61,502.53Z" transform="translate(-15.78 -264.1)"/><path class="cls-90" d="M88.41,502.46c0,3.58.48,7.67-4.79,7.58-5-.08-5-4-5-7.66,0-3.43.17-7.16,4.71-7.32C88.4,494.87,88.57,498.71,88.41,502.46Z" transform="translate(-15.78 -264.1)"/><path class="cls-91" d="M261.24,365.94a9.58,9.58,0,0,1-9.6-10,9.48,9.48,0,0,1,9.41-9.53,9.67,9.67,0,0,1,9.64,9.94C270.57,361.52,266.19,366,261.24,365.94Z" transform="translate(-15.78 -264.1)"/><path class="cls-92" d="M411.25,374.06c-4.87-.22-7.72-2.53-7.89-6.84s2.17-7.12,6.77-7.32,7.2,2.45,7.44,6.67S415,373.33,411.25,374.06Z" transform="translate(-15.78 -264.1)"/><path class="cls-93" d="M438.48,386.73c-5-.2-7.42-2.94-7.33-7.16s2.73-7.08,7.2-6.91,7,2.79,6.94,7.19S442.46,386.49,438.48,386.73Z" transform="translate(-15.78 -264.1)"/><path class="cls-94" d="M430.3,352.38c4.54,0.24,7.34,2.42,7.5,6.83s-2.39,7-6.8,7.24-7.14-2.5-7.32-6.74S426,352.85,430.3,352.38Z" transform="translate(-15.78 -264.1)"/><path class="cls-95" d="M418.08,394.23c-4.32-.18-7.16-2.48-7.25-6.83s2.44-7.1,6.87-7.29,7.18,2.65,7.37,6.79S422.62,393.79,418.08,394.23Z" transform="translate(-15.78 -264.1)"/><path class="cls-96" d="M426.31,371.39c-0.31,1.64-1.19,2.67-2.91,2.58s-2.77-1-2.69-2.72a2.55,2.55,0,0,1,2.87-2.56C425.29,368.71,426.13,369.76,426.31,371.39Z" transform="translate(-15.78 -264.1)"/></svg>